<?xml version="1.0" encoding="UTF-8"?>
<svg xmlns="http://www.w3.org/2000/svg" xmlns:xlink="http://www.w3.org/1999/xlink" width="1440pt" height="809.999993pt" viewBox="0 0 1440 809.999993" version="1.2">
<defs>
<clipPath id="clip1">
  <path d="M 0 154 L 1440 154 L 1440 673 L 0 673 Z M 0 154 "/>
</clipPath>
<clipPath id="clip2">
  <path d="M -94.5625 227.230469 L 1524.917969 -18.390625 L 1603.980469 502.898438 L -15.5 748.519531 Z M -94.5625 227.230469 "/>
</clipPath>
<clipPath id="clip3">
  <path d="M -94.5625 227.230469 L 1524.917969 -18.390625 L 1603.980469 502.898438 L -15.5 748.519531 Z M -94.5625 227.230469 "/>
</clipPath>
<clipPath id="clip4">
  <path d="M 1104.113281 392.128906 C 1024.925781 404.140625 854.503906 339.769531 760.207031 303.953125 C 739.796875 296.210938 722.277344 289.65625 709.394531 285.109375 C 634.464844 259.085938 592.339844 281.457031 538.636719 309.652344 C 489.949219 335.1875 434.738281 364.152344 340.261719 364.664062 C 270.714844 365.1875 241.078125 328.773438 212.703125 293.523438 C 192.144531 268.734375 173.113281 245.070312 140.367188 234.59375 C 53.871094 207.347656 17.320312 252.171875 -18.105469 295.476562 C -35.683594 317.105469 -52.367188 337.515625 -74.917969 349.605469 L -75.992188 347.875 C -53.972656 335.863281 -37.289062 315.453125 -19.933594 294.128906 C 15.980469 250.480469 53.246094 205.003906 140.878906 232.621094 C 174.15625 243.015625 193.535156 267.167969 214.128906 292.222656 C 242.425781 326.941406 271.714844 362.867188 340.207031 362.503906 C 434.152344 362.074219 489.097656 333.148438 537.523438 307.652344 C 589.453125 280.269531 634.140625 256.964844 709.90625 283.132812 C 722.75 287.417969 740.308594 294.238281 760.71875 301.976562 C 861.589844 340.050781 1048.964844 410.789062 1118.421875 386.4375 C 1133.339844 381.195312 1148.828125 376.136719 1165.074219 370.695312 C 1238.847656 346.230469 1322.710938 318.609375 1375.542969 268.601562 C 1380.992188 263.441406 1386.175781 258.320312 1391.625 253.160156 C 1437.539062 209.351562 1484.578125 164.015625 1545.757812 154.738281 C 1546.550781 154.617188 1547.347656 154.496094 1548.40625 154.335938 L 1548.726562 156.453125 C 1547.933594 156.574219 1547.136719 156.695312 1546.34375 156.816406 C 1485.695312 166.015625 1438.882812 211.042969 1393.496094 254.773438 C 1388.046875 259.933594 1382.863281 265.054688 1377.414062 270.214844 C 1324.089844 320.566406 1240.226562 348.1875 1166.226562 372.957031 C 1149.984375 378.398438 1134.496094 383.457031 1119.578125 388.703125 C 1114.625 389.996094 1109.675781 391.285156 1104.113281 392.128906 Z M 1073.703125 393.492188 C 1082.40625 391.902344 1091.367188 390.269531 1100.597656 388.601562 C 1194.214844 371.691406 1300.195312 352.367188 1375.851562 286.707031 C 1388.074219 276.183594 1400.359375 264.296875 1412.195312 253.019531 C 1453.152344 214.027344 1495.496094 173.46875 1549.257812 165.316406 C 1549.523438 165.273438 1549.789062 165.234375 1550.050781 165.195312 L 1549.730469 163.074219 C 1549.464844 163.117188 1549.203125 163.15625 1548.9375 163.195312 C 1494.378906 171.46875 1452.035156 212.027344 1410.855469 251.328125 C 1399.019531 262.605469 1386.691406 274.226562 1374.511719 285.015625 C 1299.34375 350.328125 1193.363281 369.652344 1100.277344 386.480469 C 1091.046875 388.152344 1082.082031 389.78125 1073.382812 391.371094 C 1071.792969 391.613281 1070.46875 391.816406 1068.882812 392.054688 C 976.453125 406.074219 769.59375 342.625 690.625 318.570312 L 689.753906 318.160156 C 616.707031 295.644531 569.359375 313.933594 514.878906 335.199219 C 466.019531 354.257812 411.007812 375.605469 324.355469 374.121094 C 261.347656 373.109375 232.644531 339.261719 204.628906 306.394531 C 184.152344 282.136719 164.710938 259.347656 132.617188 249.585938 C 49.171875 224.585938 13.65625 270.878906 -20.695312 315.917969 C -36.949219 337.347656 -52.574219 357.597656 -72.738281 369.324219 L -71.664062 371.058594 C -51.007812 358.984375 -35.648438 338.773438 -19.128906 317.304688 C 14.773438 272.878906 49.839844 227.191406 132.183594 252.089844 C 163.933594 261.363281 183.109375 284.191406 203.546875 308.1875 C 231.601562 341.316406 260.652344 375.652344 324.71875 376.503906 C 411.636719 377.949219 467.136719 356.257812 516.035156 337.464844 C 570.25 316.234375 617.070312 298.027344 689.542969 320.359375 L 690.417969 320.769531 C 769.386719 344.824219 976.550781 408.496094 1069.507812 394.398438 C 1070.832031 394.199219 1072.421875 393.957031 1073.703125 393.492188 Z M 1374.859375 303.386719 C 1391.75 289.714844 1407.75 273.742188 1423.605469 258.605469 C 1462.078125 221.070312 1501.707031 182.28125 1551.988281 174.382812 L 1551.667969 172.265625 C 1500.59375 180.28125 1460.695312 219.113281 1422 256.953125 C 1406.449219 272.3125 1390.144531 288.0625 1373.519531 301.691406 C 1272.921875 383.324219 1144.746094 390.300781 1031.601562 396.355469 L 1028.121094 396.613281 C 930.355469 402.230469 747.59375 374.410156 669.371094 353.492188 C 599.050781 334.625 549.535156 347.554688 492.457031 362.441406 C 443.472656 375.289062 387.945312 389.671875 308.589844 386.265625 C 251.019531 383.617188 222.902344 351.847656 195.476562 321.058594 C 174.894531 297.902344 155.574219 275.90625 124.699219 267.042969 C 44.527344 243.984375 9.230469 293.496094 -22.023438 337.519531 C -36.914062 359.015625 -51.214844 379.0625 -69.527344 390.511719 L -68.449219 392.246094 C -49.875 380.757812 -35.351562 360.402344 -20.191406 338.867188 C 12.183594 293.320312 45.683594 246.246094 124.449219 268.976562 C 154.492188 277.695312 173.769531 299.425781 194.3125 322.320312 C 221.78125 353.375 250.507812 385.589844 308.871094 388.117188 C 388.492188 391.484375 444.285156 377.0625 493.269531 364.214844 C 550.078125 349.367188 599.332031 336.480469 669.082031 355.160156 C 747.304688 376.078125 930.328125 403.859375 1028.359375 398.203125 L 1031.84375 397.945312 C 1075.921875 395.59375 1122.421875 393.148438 1168.5 386.15625 C 1241.105469 375.417969 1313.085938 353.390625 1374.859375 303.386719 Z M 1373.867188 320.0625 C 1394 304.546875 1413 285.136719 1431.328125 266.644531 C 1469.597656 227.789062 1505.761719 191.148438 1553.84375 183.042969 L 1553.523438 180.921875 C 1531.582031 184.523438 1510.074219 194.558594 1487.492188 211.796875 C 1467.316406 227.050781 1448.316406 246.457031 1430.027344 265.214844 C 1411.703125 283.710938 1392.925781 302.8125 1372.789062 318.328125 C 1256.085938 408.09375 1122.101562 408.910156 983.386719 401.769531 C 946.773438 399.738281 904.535156 399.914062 860.097656 399.878906 C 781.792969 399.835938 700.800781 399.929688 649.746094 388.4375 C 582.980469 373.367188 531.480469 380.363281 471.773438 388.605469 C 422.433594 395.546875 366.167969 403.269531 293.535156 397.757812 C 241.449219 393.738281 213.917969 364.046875 187.074219 335.339844 C 166.164062 313.585938 146.738281 292.6875 117.308594 284.417969 C 40.71875 263.523438 7.027344 314.691406 -22.703125 359.839844 C -36.574219 380.90625 -49.8125 400.796875 -66.007812 411.921875 L -64.933594 413.65625 C -48.207031 402.449219 -35.007812 382.296875 -20.871094 361.1875 C 8.671875 316.609375 41.914062 266.054688 117.101562 286.617188 C 145.960938 294.703125 165.347656 315.335938 185.765625 337.433594 C 212.648438 366.410156 240.789062 396.546875 293.40625 400.488281 C 366.304688 405.957031 422.570312 398.238281 472.175781 391.253906 C 531.617188 383.050781 582.8125 375.828125 649.3125 390.941406 C 700.367188 402.433594 781.625 402.300781 860.195312 402.304688 C 904.632812 402.335938 946.871094 402.164062 983.484375 404.195312 C 1051.210938 407.738281 1117.863281 409.550781 1181.953125 399.832031 C 1249.144531 389.097656 1313.6875 366.304688 1373.867188 320.0625 Z M 1372.609375 336.777344 C 1395.757812 319.722656 1416.785156 297.570312 1437.09375 276.066406 C 1473.996094 237.144531 1508.757812 200.175781 1555.25 192.3125 L 1554.925781 190.191406 C 1507.683594 198.441406 1472.65625 235.453125 1435.527344 274.675781 C 1415.21875 296.179688 1394.460938 318.292969 1371.269531 335.085938 C 1230.402344 438.8125 1073.574219 426.5625 937.859375 407.050781 C 881.078125 398.867188 822.546875 407.742188 765.832031 416.074219 C 715.25 423.746094 667.539062 430.710938 629.101562 423.804688 C 567.214844 412.332031 512.144531 413.640625 453.816406 414.902344 C 400.375 416.234375 345.039062 417.582031 277.195312 409.71875 C 230.894531 404.550781 204.214844 376.898438 178.265625 350.492188 C 157.394531 329.003906 137.5625 308.980469 109.308594 301.347656 C 36.257812 282.351562 4.210938 335.4375 -24.214844 382.011719 C -36.765625 402.882812 -48.71875 422.304688 -63.101562 432.882812 L -61.757812 434.578125 C -47.113281 423.957031 -35.238281 404.003906 -22.425781 383.097656 C 5.554688 337.132812 37.453125 284.882812 108.835938 303.585938 C 136.742188 310.730469 156.3125 330.792969 176.875 352.054688 C 203.171875 378.953125 230.117188 406.566406 276.988281 411.917969 C 345.09375 419.742188 400.429688 418.390625 453.871094 417.058594 C 511.894531 415.574219 566.96875 414.265625 628.855469 425.742188 C 667.59375 432.871094 715.53125 425.597656 766.152344 418.191406 C 822.5625 409.636719 881.132812 401.023438 937.34375 409.023438 C 1013.246094 420 1095.828125 428.605469 1178.457031 416.074219 C 1244.136719 406.113281 1309.96875 382.855469 1372.609375 336.777344 Z M 1371.351562 353.496094 C 1397.292969 335.203125 1419.8125 310.382812 1441.613281 286.21875 C 1477.335938 246.664062 1511.261719 209.546875 1556.574219 201.050781 L 1556.253906 198.933594 C 1510.148438 207.550781 1476.261719 244.929688 1440.007812 284.5625 C 1418.164062 308.464844 1395.648438 333.285156 1369.96875 351.539062 C 1297.074219 403.234375 1218.402344 431.148438 1129.351562 437.070312 C 1044.84375 442.570312 962.089844 427.488281 892.554688 412.027344 C 828.066406 397.695312 771.304688 418.222656 721.1875 436.121094 C 681.875 450.210938 644.636719 463.714844 608.90625 458.566406 C 559.636719 451.679688 511.605469 447.585938 460.839844 443.367188 C 398.289062 438.222656 333.804688 432.832031 261.347656 421.335938 C 220.832031 415.015625 194.777344 389.707031 169.945312 365.300781 C 148.664062 344.683594 128.648438 325.234375 101.351562 318.539062 C 31.878906 301.710938 -0.09375 358.847656 -25.648438 404.71875 C -36.953125 424.855469 -47.585938 444.078125 -59.886719 454.070312 L -58.585938 455.5 C -46.058594 445.199219 -35.429688 425.976562 -23.898438 405.535156 C 2.777344 358.140625 32.769531 304.015625 101.144531 320.738281 C 127.867188 327.25 147.886719 346.699219 168.859375 367.089844 C 194.265625 391.683594 220.359375 417.253906 261.445312 423.757812 C 333.898438 435.253906 398.386719 440.648438 460.9375 445.789062 C 511.699219 450.011719 559.695312 453.839844 609.003906 460.992188 C 645 466.097656 682.5 452.554688 722.34375 438.382812 C 772.199219 420.527344 828.695312 400.039062 892.652344 414.449219 C 962.453125 429.871094 1045.246094 445.21875 1130.019531 439.675781 C 1144.519531 438.832031 1158.636719 437.234375 1172.410156 435.144531 C 1244.363281 423.6875 1309.9375 396.945312 1371.351562 353.496094 Z M 1370.359375 370.171875 C 1398.605469 350.988281 1422.574219 323.242188 1445.644531 296.714844 C 1480.71875 256.445312 1513.730469 218.65625 1558.46875 209.972656 L 1558.1875 208.121094 C 1512.917969 216.882812 1479.417969 255.015625 1444.382812 295.550781 C 1421.3125 322.078125 1397.304688 349.558594 1369.324219 368.703125 C 1188.660156 492.28125 1011.96875 465.167969 847.863281 417.449219 C 778.132812 397.140625 729.308594 428.925781 686.402344 456.839844 C 654.34375 477.683594 624.28125 497.414062 589.363281 494.042969 C 485.703125 484.027344 362.890625 458.492188 246.375 433.359375 C 211.644531 425.890625 186.789062 403.113281 162.84375 381.007812 C 141.074219 360.738281 120.34375 341.9375 93.960938 335.914062 C 27.5 321.070312 -2.523438 380.347656 -26.695312 428.175781 C -36.902344 448.417969 -45.878906 466.035156 -56.101562 475.441406 L -54.804688 476.871094 C -44.355469 467.15625 -35.378906 449.539062 -24.945312 428.992188 C -0.917969 382 28.65625 323.332031 93.714844 337.847656 C 119.789062 343.644531 139.992188 362.527344 161.71875 382.53125 C 185.96875 404.863281 210.867188 427.90625 246.164062 435.558594 C 362.949219 460.652344 485.496094 486.226562 589.417969 496.203125 C 624.90625 499.757812 655.457031 479.683594 687.78125 458.796875 C 730.425781 430.925781 778.757812 399.484375 847.652344 419.648438 C 948.828125 449.003906 1054.519531 470.632812 1163.367188 454.125 C 1230.820312 443.351562 1300.421875 418.167969 1370.359375 370.171875 Z M 1368.835938 386.929688 C 1399.386719 366.855469 1424.355469 336.789062 1448.917969 307.59375 C 1483.34375 266.613281 1515.929688 227.804688 1559.835938 218.980469 L 1559.554688 217.125 C 1514.851562 226.070312 1482.042969 265.183594 1447.394531 306.472656 C 1423.058594 335.359375 1398.085938 365.425781 1367.800781 385.460938 C 1163.714844 520.71875 975.1875 483.480469 802.070312 422.769531 C 727.933594 396.625 688.375 439.472656 653.46875 477.277344 C 627.871094 505 603.660156 531.15625 568.71875 529.414062 C 493.371094 525.667969 391.652344 494.496094 301.859375 466.9375 C 276.5625 459.125 252.707031 451.90625 230.339844 445.542969 C 201.742188 437.417969 178.613281 417.085938 156.128906 397.46875 C 133.261719 377.09375 111.46875 358.453125 85.738281 353.144531 C 22.328125 340.546875 -7.15625 405.164062 -28.722656 452.324219 C -37.460938 471.53125 -44.96875 488.113281 -53.15625 496.667969 L -51.589844 498.054688 C -43.179688 489.195312 -35.40625 472.574219 -26.707031 453.101562 C -4.101562 403.886719 23.746094 342.769531 85.488281 355.078125 C 110.914062 360.164062 132.179688 378.882812 154.964844 398.726562 C 177.449219 418.34375 200.886719 438.902344 230.050781 447.214844 C 252.417969 453.574219 276.3125 461.058594 301.570312 468.605469 C 391.628906 496.128906 493.613281 527.257812 568.957031 531.003906 C 604.738281 532.890625 629.394531 506.121094 655.21875 478.09375 C 691.285156 439.03125 728.785156 398.664062 801.738281 424.171875 C 911.894531 462.734375 1028.488281 491.921875 1151.105469 473.324219 C 1221.59375 462.90625 1293.988281 436.480469 1368.835938 386.929688 Z M 1367.84375 403.605469 C 1400.429688 382.679688 1426.671875 350.253906 1451.96875 318.78125 C 1485.96875 276.78125 1517.90625 237.257812 1561.507812 228.207031 L 1561.226562 226.355469 C 1516.828125 235.523438 1484.707031 275.617188 1450.445312 317.660156 C 1425.105469 348.867188 1399.132812 381.25 1366.808594 402.136719 C 1264.859375 467.722656 1162.578125 498.945312 1053.464844 497.617188 C 965.222656 496.367188 873.664062 475.035156 757.335938 427.929688 C 679.136719 396.441406 650.292969 447.414062 622.53125 496.597656 C 602.90625 531.542969 584.324219 564.433594 548.828125 564.398438 C 477.832031 564.328125 365.757812 518.472656 275.921875 481.707031 C 253.683594 472.617188 232.886719 464.121094 214.757812 457.117188 C 192.332031 448.597656 171.535156 431.164062 151.386719 414.441406 C 126.625 394.085938 103.65625 374.8125 77.78125 370.335938 C 17.113281 359.761719 -10.484375 427.882812 -30.855469 477.574219 C -37.9375 495.171875 -44.058594 510.1875 -50.207031 517.894531 L -48.679688 519.019531 C -42.308594 511.007812 -36.230469 495.726562 -28.878906 478.085938 C -8.960938 429.007812 18.535156 361.984375 77.492188 372.007812 C 102.53125 376.335938 125.769531 395.570312 149.960938 415.742188 C 170.105469 432.464844 191.167969 449.859375 213.898438 458.601562 C 232.027344 465.605469 252.824219 474.101562 275.0625 483.191406 C 365.203125 520.183594 477.28125 566.039062 548.804688 566.027344 C 585.09375 565.941406 604.125 532.441406 624.242188 497.152344 C 651.554688 448.578125 679.988281 398.480469 756.476562 429.414062 C 873.335938 476.441406 964.933594 498.039062 1053.441406 499.246094 C 1082.5 499.714844 1111.199219 497.800781 1139.535156 493.5 C 1217.664062 481.652344 1293.058594 451.792969 1367.84375 403.605469 Z M 1366.851562 420.285156 C 1401.476562 398.503906 1428.71875 363.761719 1455.023438 329.96875 C 1488.328125 286.988281 1520.105469 246.40625 1563.402344 237.132812 L 1563.121094 235.277344 C 1519.070312 244.9375 1487.335938 285.785156 1453.496094 328.847656 C 1427.417969 362.332031 1400.214844 397.34375 1365.8125 418.816406 C 1254.246094 488.835938 1143.488281 521.347656 1027.761719 517.5 C 933.554688 514.445312 833.3125 487.65625 712.070312 433.167969 C 684.726562 420.789062 663 418.664062 645.226562 426.507812 C 616.015625 439.335938 603.429688 477.820312 591.476562 515.125 C 577.597656 557.597656 564.722656 597.75 528.710938 599.691406 C 455.367188 603.769531 311.707031 528.296875 225.738281 483.085938 C 216.035156 478.054688 206.902344 473.210938 198.988281 469.261719 C 183.121094 461.105469 166.792969 448.136719 149.511719 434.230469 C 123.308594 413.28125 96.183594 391.65625 69.859375 387.792969 C 11.144531 379.359375 -15.328125 454.898438 -32.96875 504.714844 C -38.296875 519.609375 -42.84375 532.492188 -46.953125 539.347656 L -45.164062 540.429688 C -40.789062 533.535156 -36.28125 520.386719 -30.953125 505.492188 C -13.5 456.246094 12.871094 381.808594 69.878906 389.6875 C 95.632812 393.367188 122.753906 414.992188 148.65625 435.71875 C 165.9375 449.621094 182.261719 462.589844 198.394531 470.707031 C 206.347656 474.921875 215.441406 479.5 225.144531 484.53125 C 311.113281 529.742188 455.34375 605.398438 528.953125 601.277344 C 530.582031 601.300781 532.171875 601.0625 533.761719 600.820312 C 567.394531 595.71875 580.164062 556.664062 593.410156 515.375 C 605.441406 478.597656 617.804688 440.421875 646.261719 427.976562 C 663.28125 420.519531 684.742188 422.683594 711.476562 434.613281 C 833.023438 489.328125 933.53125 516.074219 1028 519.085938 C 1061.5 520.238281 1094.515625 518.210938 1127.355469 513.230469 C 1207.90625 501.285156 1287.195312 470.292969 1366.851562 420.285156 Z M 561.886719 532.617188 C 568.414062 489.90625 575.230469 445.523438 601.855469 431.730469 C 617.433594 423.679688 638.140625 426.230469 665.644531 439.667969 C 793.589844 502.621094 900.5 534.089844 1001.769531 539.050781 C 1124.5625 544.808594 1243.605469 511.582031 1365.550781 436.734375 C 1402.257812 414.371094 1430.199219 377.082031 1457.238281 341.011719 C 1490.386719 296.972656 1521.46875 255.410156 1564.6875 245.605469 L 1564.140625 243.792969 C 1520.394531 253.679688 1488.820312 295.582031 1455.714844 339.886719 C 1428.671875 375.957031 1400.691406 412.984375 1364.515625 435.265625 C 1243.0625 509.769531 1124.320312 543.222656 1001.753906 537.15625 C 900.789062 532.421875 794.140625 500.914062 666.464844 437.917969 C 638.347656 424.03125 617.113281 421.5625 601.046875 429.957031 C 573.664062 444.136719 566.664062 489.085938 559.953125 532.367188 C 552.3125 582.023438 545.0625 628.90625 509.839844 634.25 C 509.3125 634.328125 508.78125 634.410156 508.25 634.492188 C 476.3125 638.25 418.597656 618.558594 341.417969 577.703125 C 282.199219 546.316406 219.273438 506.554688 183.097656 480.613281 C 175.207031 475.039062 166.242188 467.726562 156.667969 459.96875 C 127.675781 436.730469 91.285156 407.574219 61.820312 404.457031 C 4.605469 398.773438 -21.304688 486.960938 -35.476562 534.625 C -38.863281 546.246094 -41.550781 555.324219 -44.003906 560.574219 L -42.253906 561.390625 C -39.839844 555.878906 -37.152344 546.800781 -33.769531 535.179688 C -20.003906 488.390625 5.761719 401.035156 61.652344 406.917969 C 90.546875 409.851562 126.632812 438.785156 155.359375 462.0625 C 164.933594 469.820312 173.902344 477.132812 182.054688 482.667969 C 242.207031 525.5625 431.367188 645.609375 508.347656 636.914062 C 508.878906 636.832031 509.40625 636.753906 509.9375 636.671875 C 546.710938 630.824219 554.574219 580.867188 561.886719 532.617188 Z M 488.683594 671.59375 C 527.453125 664.628906 529.066406 605.597656 530.46875 548.761719 C 531.753906 500.070312 533.0625 449.75 558.207031 435.101562 C 572.417969 426.984375 592.675781 430.144531 620.644531 444.867188 C 754.988281 516.0625 868.042969 552.289062 976.066406 558.933594 C 1105.695312 566.90625 1232.6875 532.472656 1364.558594 453.414062 C 1403.039062 430.238281 1431.980469 390.628906 1459.761719 352.277344 C 1492.480469 307.21875 1523.40625 264.601562 1566.316406 254.570312 L 1566.074219 252.980469 C 1522.371094 263.132812 1491.222656 306.054688 1458.273438 351.421875 C 1430.457031 389.503906 1401.777344 429.074219 1363.523438 451.945312 C 1232.140625 530.660156 1105.414062 565.054688 976.089844 557.304688 C 868.332031 550.617188 755.542969 514.355469 621.503906 443.382812 C 592.925781 428.210938 571.871094 425.171875 557.171875 433.632812 C 531.050781 448.972656 529.726562 497.398438 528.578125 548.777344 C 527.050781 604.816406 525.542969 662.753906 488.402344 669.742188 C 448.613281 677.128906 366.472656 632.152344 321.15625 604.890625 C 251.695312 563.136719 190.335938 515.820312 167.859375 492.679688 C 146.339844 470.476562 90.292969 424.25 54.167969 421.871094 C -4.355469 418.285156 -28.96875 529.304688 -38.121094 570.789062 C -39.066406 575.265625 -39.828125 579.175781 -40.527344 581.71875 L -38.550781 582.230469 C -37.894531 579.421875 -37.09375 575.78125 -36.144531 571.300781 C -26.953125 530.082031 -2.667969 420.46875 53.960938 424.070312 C 86.480469 425.910156 139.179688 466.140625 166.207031 494.285156 C 213.71875 543.160156 415.894531 682.90625 487.132812 672.101562 C 487.625 671.753906 488.152344 671.675781 488.683594 671.59375 Z M 488.683594 671.59375 "/>
</clipPath>
<linearGradient id="linear0" gradientUnits="userSpaceOnUse" x1="9.893873" y1="117.318001" x2="570.987474" y2="117.318001" gradientTransform="matrix(2.648372,-0.40167,0.40166,2.648307,-101.721802,188.951188)">
<stop offset="0" style="stop-color:rgb(79.219055%,41.993713%,90.480042%);stop-opacity:1;"/>
<stop offset="0.015625" style="stop-color:rgb(79.040527%,41.802979%,90.609741%);stop-opacity:1;"/>
<stop offset="0.03125" style="stop-color:rgb(78.684998%,41.424561%,90.872192%);stop-opacity:1;"/>
<stop offset="0.046875" style="stop-color:rgb(78.330994%,41.044617%,91.133118%);stop-opacity:1;"/>
<stop offset="0.0625" style="stop-color:rgb(77.975464%,40.666199%,91.394043%);stop-opacity:1;"/>
<stop offset="0.078125" style="stop-color:rgb(77.619934%,40.286255%,91.656494%);stop-opacity:1;"/>
<stop offset="0.09375" style="stop-color:rgb(77.26593%,39.907837%,91.917419%);stop-opacity:1;"/>
<stop offset="0.109375" style="stop-color:rgb(76.9104%,39.529419%,92.179871%);stop-opacity:1;"/>
<stop offset="0.125" style="stop-color:rgb(76.554871%,39.149475%,92.440796%);stop-opacity:1;"/>
<stop offset="0.140625" style="stop-color:rgb(76.200867%,38.771057%,92.703247%);stop-opacity:1;"/>
<stop offset="0.15625" style="stop-color:rgb(75.845337%,38.391113%,92.964172%);stop-opacity:1;"/>
<stop offset="0.171875" style="stop-color:rgb(75.489807%,38.012695%,93.226624%);stop-opacity:1;"/>
<stop offset="0.1875" style="stop-color:rgb(75.135803%,37.632751%,93.487549%);stop-opacity:1;"/>
<stop offset="0.203125" style="stop-color:rgb(74.780273%,37.254333%,93.75%);stop-opacity:1;"/>
<stop offset="0.21875" style="stop-color:rgb(74.424744%,36.875916%,94.010925%);stop-opacity:1;"/>
<stop offset="0.234375" style="stop-color:rgb(74.07074%,36.495972%,94.271851%);stop-opacity:1;"/>
<stop offset="0.25" style="stop-color:rgb(73.71521%,36.117554%,94.534302%);stop-opacity:1;"/>
<stop offset="0.265625" style="stop-color:rgb(73.35968%,35.73761%,94.795227%);stop-opacity:1;"/>
<stop offset="0.28125" style="stop-color:rgb(73.005676%,35.359192%,95.057678%);stop-opacity:1;"/>
<stop offset="0.296875" style="stop-color:rgb(72.650146%,34.979248%,95.318604%);stop-opacity:1;"/>
<stop offset="0.3125" style="stop-color:rgb(72.294617%,34.60083%,95.581055%);stop-opacity:1;"/>
<stop offset="0.328125" style="stop-color:rgb(71.939087%,34.222412%,95.84198%);stop-opacity:1;"/>
<stop offset="0.34375" style="stop-color:rgb(71.585083%,33.842468%,96.104431%);stop-opacity:1;"/>
<stop offset="0.359375" style="stop-color:rgb(71.229553%,33.46405%,96.365356%);stop-opacity:1;"/>
<stop offset="0.375" style="stop-color:rgb(70.874023%,33.084106%,96.627808%);stop-opacity:1;"/>
<stop offset="0.390625" style="stop-color:rgb(70.52002%,32.705688%,96.888733%);stop-opacity:1;"/>
<stop offset="0.40625" style="stop-color:rgb(70.16449%,32.325745%,97.149658%);stop-opacity:1;"/>
<stop offset="0.421875" style="stop-color:rgb(69.80896%,31.947327%,97.412109%);stop-opacity:1;"/>
<stop offset="0.4375" style="stop-color:rgb(69.454956%,31.568909%,97.673035%);stop-opacity:1;"/>
<stop offset="0.453125" style="stop-color:rgb(69.099426%,31.188965%,97.935486%);stop-opacity:1;"/>
<stop offset="0.46875" style="stop-color:rgb(68.743896%,30.810547%,98.196411%);stop-opacity:1;"/>
<stop offset="0.484375" style="stop-color:rgb(68.389893%,30.430603%,98.458862%);stop-opacity:1;"/>
<stop offset="0.5" style="stop-color:rgb(68.034363%,30.052185%,98.719788%);stop-opacity:1;"/>
<stop offset="0.515625" style="stop-color:rgb(67.678833%,29.672241%,98.982239%);stop-opacity:1;"/>
<stop offset="0.53125" style="stop-color:rgb(67.324829%,29.293823%,99.243164%);stop-opacity:1;"/>
<stop offset="0.546875" style="stop-color:rgb(66.969299%,28.915405%,99.504089%);stop-opacity:1;"/>
<stop offset="0.5625" style="stop-color:rgb(66.61377%,28.535461%,99.766541%);stop-opacity:1;"/>
<stop offset="0.570312" style="stop-color:rgb(66.311646%,28.398132%,99.923706%);stop-opacity:1;"/>
<stop offset="0.574219" style="stop-color:rgb(65.934753%,29.01001%,99.84436%);stop-opacity:1;"/>
<stop offset="0.578125" style="stop-color:rgb(65.684509%,29.570007%,99.737549%);stop-opacity:1;"/>
<stop offset="0.582031" style="stop-color:rgb(65.432739%,30.130005%,99.630737%);stop-opacity:1;"/>
<stop offset="0.585938" style="stop-color:rgb(65.182495%,30.690002%,99.523926%);stop-opacity:1;"/>
<stop offset="0.589844" style="stop-color:rgb(64.930725%,31.25%,99.417114%);stop-opacity:1;"/>
<stop offset="0.59375" style="stop-color:rgb(64.678955%,31.811523%,99.310303%);stop-opacity:1;"/>
<stop offset="0.597656" style="stop-color:rgb(64.427185%,32.371521%,99.203491%);stop-opacity:1;"/>
<stop offset="0.601562" style="stop-color:rgb(64.176941%,32.931519%,99.09668%);stop-opacity:1;"/>
<stop offset="0.605469" style="stop-color:rgb(63.925171%,33.491516%,98.989868%);stop-opacity:1;"/>
<stop offset="0.609375" style="stop-color:rgb(63.674927%,34.051514%,98.883057%);stop-opacity:1;"/>
<stop offset="0.613281" style="stop-color:rgb(63.423157%,34.611511%,98.776245%);stop-opacity:1;"/>
<stop offset="0.617188" style="stop-color:rgb(63.171387%,35.173035%,98.669434%);stop-opacity:1;"/>
<stop offset="0.621094" style="stop-color:rgb(62.919617%,35.733032%,98.561096%);stop-opacity:1;"/>
<stop offset="0.625" style="stop-color:rgb(62.669373%,36.29303%,98.454285%);stop-opacity:1;"/>
<stop offset="0.628906" style="stop-color:rgb(62.417603%,36.853027%,98.347473%);stop-opacity:1;"/>
<stop offset="0.632812" style="stop-color:rgb(62.167358%,37.413025%,98.240662%);stop-opacity:1;"/>
<stop offset="0.636719" style="stop-color:rgb(61.915588%,37.973022%,98.13385%);stop-opacity:1;"/>
<stop offset="0.640625" style="stop-color:rgb(61.663818%,38.534546%,98.027039%);stop-opacity:1;"/>
<stop offset="0.644531" style="stop-color:rgb(61.412048%,39.094543%,97.920227%);stop-opacity:1;"/>
<stop offset="0.648438" style="stop-color:rgb(61.161804%,39.654541%,97.813416%);stop-opacity:1;"/>
<stop offset="0.652344" style="stop-color:rgb(60.910034%,40.214539%,97.706604%);stop-opacity:1;"/>
<stop offset="0.65625" style="stop-color:rgb(60.65979%,40.774536%,97.599792%);stop-opacity:1;"/>
<stop offset="0.660156" style="stop-color:rgb(60.40802%,41.334534%,97.492981%);stop-opacity:1;"/>
<stop offset="0.664062" style="stop-color:rgb(60.15625%,41.896057%,97.386169%);stop-opacity:1;"/>
<stop offset="0.667969" style="stop-color:rgb(59.90448%,42.456055%,97.279358%);stop-opacity:1;"/>
<stop offset="0.671875" style="stop-color:rgb(59.654236%,43.016052%,97.172546%);stop-opacity:1;"/>
<stop offset="0.675781" style="stop-color:rgb(59.402466%,43.57605%,97.065735%);stop-opacity:1;"/>
<stop offset="0.679688" style="stop-color:rgb(59.152222%,44.136047%,96.958923%);stop-opacity:1;"/>
<stop offset="0.683594" style="stop-color:rgb(58.900452%,44.696045%,96.850586%);stop-opacity:1;"/>
<stop offset="0.6875" style="stop-color:rgb(58.648682%,45.257568%,96.743774%);stop-opacity:1;"/>
<stop offset="0.691406" style="stop-color:rgb(58.396912%,45.817566%,96.636963%);stop-opacity:1;"/>
<stop offset="0.695312" style="stop-color:rgb(58.146667%,46.377563%,96.530151%);stop-opacity:1;"/>
<stop offset="0.699219" style="stop-color:rgb(57.894897%,46.937561%,96.42334%);stop-opacity:1;"/>
<stop offset="0.703125" style="stop-color:rgb(57.644653%,47.497559%,96.316528%);stop-opacity:1;"/>
<stop offset="0.707031" style="stop-color:rgb(57.392883%,48.057556%,96.209717%);stop-opacity:1;"/>
<stop offset="0.710938" style="stop-color:rgb(57.141113%,48.61908%,96.102905%);stop-opacity:1;"/>
<stop offset="0.714844" style="stop-color:rgb(56.889343%,49.179077%,95.996094%);stop-opacity:1;"/>
<stop offset="0.71875" style="stop-color:rgb(56.639099%,49.739075%,95.889282%);stop-opacity:1;"/>
<stop offset="0.722656" style="stop-color:rgb(56.387329%,50.299072%,95.782471%);stop-opacity:1;"/>
<stop offset="0.726562" style="stop-color:rgb(56.137085%,50.85907%,95.675659%);stop-opacity:1;"/>
<stop offset="0.730469" style="stop-color:rgb(55.885315%,51.419067%,95.568848%);stop-opacity:1;"/>
<stop offset="0.734375" style="stop-color:rgb(55.633545%,51.980591%,95.462036%);stop-opacity:1;"/>
<stop offset="0.738281" style="stop-color:rgb(55.381775%,52.540588%,95.355225%);stop-opacity:1;"/>
<stop offset="0.742188" style="stop-color:rgb(55.131531%,53.100586%,95.248413%);stop-opacity:1;"/>
<stop offset="0.746094" style="stop-color:rgb(54.879761%,53.660583%,95.141602%);stop-opacity:1;"/>
<stop offset="0.75" style="stop-color:rgb(54.629517%,54.220581%,95.03479%);stop-opacity:1;"/>
<stop offset="0.753906" style="stop-color:rgb(54.377747%,54.780579%,94.926453%);stop-opacity:1;"/>
<stop offset="0.757812" style="stop-color:rgb(54.125977%,55.342102%,94.819641%);stop-opacity:1;"/>
<stop offset="0.761719" style="stop-color:rgb(53.874207%,55.9021%,94.71283%);stop-opacity:1;"/>
<stop offset="0.765625" style="stop-color:rgb(53.623962%,56.462097%,94.606018%);stop-opacity:1;"/>
<stop offset="0.769531" style="stop-color:rgb(53.372192%,57.022095%,94.499207%);stop-opacity:1;"/>
<stop offset="0.773438" style="stop-color:rgb(53.121948%,57.582092%,94.392395%);stop-opacity:1;"/>
<stop offset="0.777344" style="stop-color:rgb(52.870178%,58.14209%,94.285583%);stop-opacity:1;"/>
<stop offset="0.78125" style="stop-color:rgb(52.618408%,58.703613%,94.178772%);stop-opacity:1;"/>
<stop offset="0.785156" style="stop-color:rgb(52.366638%,59.263611%,94.07196%);stop-opacity:1;"/>
<stop offset="0.789062" style="stop-color:rgb(52.116394%,59.823608%,93.965149%);stop-opacity:1;"/>
<stop offset="0.792969" style="stop-color:rgb(51.864624%,60.383606%,93.858337%);stop-opacity:1;"/>
<stop offset="0.796875" style="stop-color:rgb(51.61438%,60.943604%,93.751526%);stop-opacity:1;"/>
<stop offset="0.800781" style="stop-color:rgb(51.36261%,61.503601%,93.644714%);stop-opacity:1;"/>
<stop offset="0.804688" style="stop-color:rgb(51.112366%,62.065125%,93.537903%);stop-opacity:1;"/>
<stop offset="0.808594" style="stop-color:rgb(50.860596%,62.625122%,93.431091%);stop-opacity:1;"/>
<stop offset="0.8125" style="stop-color:rgb(50.608826%,63.18512%,93.32428%);stop-opacity:1;"/>
<stop offset="0.816406" style="stop-color:rgb(50.357056%,63.745117%,93.215942%);stop-opacity:1;"/>
<stop offset="0.820312" style="stop-color:rgb(50.106812%,64.305115%,93.109131%);stop-opacity:1;"/>
<stop offset="0.824219" style="stop-color:rgb(49.855042%,64.865112%,93.002319%);stop-opacity:1;"/>
<stop offset="0.828125" style="stop-color:rgb(49.604797%,65.426636%,92.895508%);stop-opacity:1;"/>
<stop offset="0.832031" style="stop-color:rgb(49.353027%,65.986633%,92.788696%);stop-opacity:1;"/>
<stop offset="0.835938" style="stop-color:rgb(49.101257%,66.546631%,92.681885%);stop-opacity:1;"/>
<stop offset="0.839844" style="stop-color:rgb(48.849487%,67.106628%,92.575073%);stop-opacity:1;"/>
<stop offset="0.84375" style="stop-color:rgb(48.599243%,67.666626%,92.468262%);stop-opacity:1;"/>
<stop offset="0.847656" style="stop-color:rgb(48.347473%,68.226624%,92.36145%);stop-opacity:1;"/>
<stop offset="0.851562" style="stop-color:rgb(48.097229%,68.788147%,92.254639%);stop-opacity:1;"/>
<stop offset="0.855469" style="stop-color:rgb(47.845459%,69.348145%,92.147827%);stop-opacity:1;"/>
<stop offset="0.859375" style="stop-color:rgb(47.593689%,69.908142%,92.041016%);stop-opacity:1;"/>
<stop offset="0.863281" style="stop-color:rgb(47.341919%,70.46814%,91.934204%);stop-opacity:1;"/>
<stop offset="0.867188" style="stop-color:rgb(47.091675%,71.028137%,91.827393%);stop-opacity:1;"/>
<stop offset="0.871094" style="stop-color:rgb(46.839905%,71.588135%,91.720581%);stop-opacity:1;"/>
<stop offset="0.875" style="stop-color:rgb(46.589661%,72.149658%,91.61377%);stop-opacity:1;"/>
<stop offset="0.878906" style="stop-color:rgb(46.337891%,72.709656%,91.506958%);stop-opacity:1;"/>
<stop offset="0.882812" style="stop-color:rgb(46.086121%,73.269653%,91.400146%);stop-opacity:1;"/>
<stop offset="0.886719" style="stop-color:rgb(45.834351%,73.829651%,91.291809%);stop-opacity:1;"/>
<stop offset="0.890625" style="stop-color:rgb(45.584106%,74.389648%,91.184998%);stop-opacity:1;"/>
<stop offset="0.894531" style="stop-color:rgb(45.332336%,74.949646%,91.078186%);stop-opacity:1;"/>
<stop offset="0.898438" style="stop-color:rgb(45.082092%,75.511169%,90.971375%);stop-opacity:1;"/>
<stop offset="0.902344" style="stop-color:rgb(44.830322%,76.071167%,90.864563%);stop-opacity:1;"/>
<stop offset="0.90625" style="stop-color:rgb(44.578552%,76.631165%,90.757751%);stop-opacity:1;"/>
<stop offset="0.910156" style="stop-color:rgb(44.326782%,77.191162%,90.65094%);stop-opacity:1;"/>
<stop offset="0.914063" style="stop-color:rgb(44.076538%,77.752686%,90.544128%);stop-opacity:1;"/>
<stop offset="0.917969" style="stop-color:rgb(43.824768%,78.312683%,90.437317%);stop-opacity:1;"/>
<stop offset="0.921875" style="stop-color:rgb(43.574524%,78.872681%,90.330505%);stop-opacity:1;"/>
<stop offset="0.925781" style="stop-color:rgb(43.322754%,79.432678%,90.223694%);stop-opacity:1;"/>
<stop offset="0.929688" style="stop-color:rgb(43.070984%,79.992676%,90.116882%);stop-opacity:1;"/>
<stop offset="0.933594" style="stop-color:rgb(42.819214%,80.552673%,90.010071%);stop-opacity:1;"/>
<stop offset="0.9375" style="stop-color:rgb(42.56897%,81.114197%,89.903259%);stop-opacity:1;"/>
<stop offset="0.941406" style="stop-color:rgb(42.3172%,81.674194%,89.796448%);stop-opacity:1;"/>
<stop offset="0.945313" style="stop-color:rgb(42.066956%,82.234192%,89.689636%);stop-opacity:1;"/>
<stop offset="0.949219" style="stop-color:rgb(41.815186%,82.794189%,89.581299%);stop-opacity:1;"/>
<stop offset="0.953125" style="stop-color:rgb(41.563416%,83.354187%,89.474487%);stop-opacity:1;"/>
<stop offset="0.957031" style="stop-color:rgb(41.311646%,83.914185%,89.367676%);stop-opacity:1;"/>
<stop offset="0.960938" style="stop-color:rgb(41.061401%,84.475708%,89.260864%);stop-opacity:1;"/>
<stop offset="0.964844" style="stop-color:rgb(40.809631%,85.035706%,89.154053%);stop-opacity:1;"/>
<stop offset="0.96875" style="stop-color:rgb(40.559387%,85.595703%,89.047241%);stop-opacity:1;"/>
<stop offset="0.972656" style="stop-color:rgb(40.307617%,86.155701%,88.94043%);stop-opacity:1;"/>
<stop offset="0.976562" style="stop-color:rgb(40.055847%,86.715698%,88.833618%);stop-opacity:1;"/>
<stop offset="0.980469" style="stop-color:rgb(39.804077%,87.275696%,88.726807%);stop-opacity:1;"/>
<stop offset="0.984375" style="stop-color:rgb(39.553833%,87.837219%,88.619995%);stop-opacity:1;"/>
<stop offset="0.988281" style="stop-color:rgb(39.302063%,88.397217%,88.513184%);stop-opacity:1;"/>
<stop offset="0.992188" style="stop-color:rgb(39.051819%,88.957214%,88.406372%);stop-opacity:1;"/>
<stop offset="0.996094" style="stop-color:rgb(38.800049%,89.517212%,88.299561%);stop-opacity:1;"/>
<stop offset="1" style="stop-color:rgb(38.548279%,90.077209%,88.192749%);stop-opacity:1;"/>
</linearGradient>
<clipPath id="clip5">
  <path d="M 591 0 L 1440 0 L 1440 423 L 591 423 Z M 591 0 "/>
</clipPath>
<clipPath id="clip6">
  <path d="M 811.304688 -395.117188 L 2005.351562 211.9375 L 1784.757812 645.832031 L 590.714844 38.777344 Z M 811.304688 -395.117188 "/>
</clipPath>
<clipPath id="clip7">
  <path d="M 811.304688 -395.117188 L 2005.351562 211.9375 L 1784.757812 645.832031 L 590.714844 38.777344 Z M 811.304688 -395.117188 "/>
</clipPath>
<clipPath id="clip8">
  <path d="M 636.1875 -46.332031 L 635.121094 -47.609375 C 707.5 -114.878906 822.765625 -147.121094 943.085938 -133.945312 C 1036.785156 -123.769531 1133.429688 -87.613281 1246.835938 -20.410156 C 1292.511719 6.730469 1337.578125 36.5 1381.09375 65.476562 C 1426.648438 95.738281 1473.855469 127.085938 1521.960938 155.214844 C 1577.351562 187.785156 1651.339844 226.625 1732.339844 239.15625 C 1818.699219 252.695312 1904.796875 233.539062 1987.960938 215.339844 C 1993.238281 214.101562 1998.710938 212.96875 2004.183594 211.832031 L 2004.5625 213.492188 C 1999.089844 214.628906 1993.8125 215.863281 1988.339844 217 C 1904.882812 235.296875 1818.785156 254.453125 1732.132812 241.007812 C 1650.839844 228.574219 1576.757812 189.441406 1521.070312 156.964844 C 1472.964844 128.835938 1425.757812 97.492188 1380.203125 67.230469 C 1336.6875 38.25 1291.621094 8.480469 1246.140625 -18.558594 C 1132.925781 -85.664062 1036.671875 -121.625 943.070312 -131.992188 C 822.851562 -145.363281 708.171875 -113.3125 636.1875 -46.332031 Z M 691.050781 -78.1875 C 711.703125 -87.519531 733.125 -94.996094 755.214844 -100.414062 C 820.214844 -117.074219 886.414062 -123.085938 946.582031 -117.71875 C 1042.144531 -108.800781 1144.15625 -72.609375 1249.496094 -9.753906 C 1256.976562 -5.214844 1264.457031 -0.675781 1272.035156 4.15625 C 1307.304688 26.25 1341.578125 50.777344 1374.6875 74.710938 C 1401.195312 93.816406 1428.476562 113.320312 1456.160156 131.558594 C 1478.890625 146.542969 1499.292969 159.363281 1518.046875 170.609375 C 1560.515625 195.875 1596.496094 213.675781 1631.628906 226.886719 C 1662.769531 238.800781 1695.597656 246.921875 1728.839844 251.332031 C 1763.351562 255.65625 1800.921875 255.414062 1843.5 250.125 C 1881.296875 245.585938 1919.792969 237.734375 1956.925781 230.167969 C 1971.09375 227.332031 1985.554688 224.398438 1999.917969 221.664062 L 1999.539062 220 C 1985.175781 222.738281 1970.714844 225.671875 1956.546875 228.507812 C 1882.480469 243.742188 1805.871094 259.152344 1728.949219 249.675781 C 1695.902344 245.359375 1663.367188 237.144531 1632.226562 225.230469 C 1597.285156 212.121094 1561.304688 194.316406 1519.035156 169.152344 C 1500.085938 157.804688 1479.875 145.082031 1457.148438 130.101562 C 1429.464844 111.863281 1402.179688 92.359375 1375.671875 73.25 C 1342.566406 49.320312 1308.09375 24.691406 1272.828125 2.601562 C 1265.445312 -2.132812 1257.769531 -6.769531 1250.285156 -11.308594 C 1144.652344 -74.070312 1042.546875 -110.554688 946.691406 -119.378906 C 886.328125 -124.84375 819.9375 -118.929688 754.835938 -102.078125 C 732.746094 -96.65625 711.03125 -89.085938 690.375 -79.753906 C 669.136719 -70.226562 649.730469 -57.566406 632.351562 -42.160156 L 633.417969 -40.882812 C 650.5 -56.195312 670.101562 -68.757812 691.050781 -78.1875 Z M 690.210938 -69.796875 C 712.515625 -78.046875 734.503906 -82.785156 755.019531 -86.554688 C 810.515625 -97.03125 882.800781 -108.273438 950.484375 -103.246094 C 1048.789062 -95.875 1153.632812 -60.445312 1253.433594 -0.648438 C 1260.914062 3.890625 1268.398438 8.429688 1275.78125 13.160156 C 1309.585938 34.757812 1341.808594 59.953125 1373.0625 84.167969 C 1399.363281 104.640625 1426.539062 125.800781 1454.605469 144.722656 C 1476.75 159.898438 1496.859375 172.816406 1516 184.261719 C 1557.398438 209.226562 1594.449219 227.328125 1629.296875 239.65625 C 1660.539062 250.890625 1693.082031 258.128906 1726.136719 261.46875 C 1794.878906 268.257812 1863.375 254.839844 1929.71875 241.800781 C 1951.214844 237.550781 1973.6875 233.304688 1995.667969 229.542969 L 1995.484375 227.976562 C 1973.308594 231.640625 1951.03125 235.988281 1929.535156 240.238281 C 1863.289062 253.082031 1794.988281 266.597656 1726.441406 259.90625 C 1693.578125 256.667969 1661.136719 249.234375 1630.085938 238.101562 C 1595.238281 225.773438 1558.1875 207.667969 1516.988281 182.804688 C 1497.84375 171.359375 1478.027344 158.347656 1455.785156 143.367188 C 1427.914062 124.542969 1400.738281 103.378906 1374.433594 82.90625 C 1343.183594 58.691406 1310.960938 33.496094 1277.15625 11.902344 C 1269.769531 7.167969 1262.289062 2.628906 1254.808594 -1.910156 C 1154.621094 -61.902344 1049.582031 -97.429688 951.078125 -104.902344 C 883.203125 -110.027344 810.820312 -98.589844 755.324219 -88.117188 C 734.707031 -84.148438 712.71875 -79.414062 690.414062 -71.164062 C 665.664062 -61.953125 645.972656 -50.660156 630.265625 -36.609375 L 631.328125 -35.332031 C 646.355469 -49.488281 665.753906 -60.683594 690.210938 -69.796875 Z M 689.566406 -61.308594 C 711.171875 -67.222656 733.339844 -69.90625 754.828125 -72.695312 C 766.546875 -74.085938 778.167969 -75.765625 790.667969 -77.246094 C 844.675781 -84.316406 900.445312 -91.957031 954.382812 -88.777344 C 1056.601562 -82.84375 1161.363281 -49.171875 1257.078125 8.550781 C 1264.558594 13.089844 1271.941406 17.820312 1279.324219 22.554688 C 1312.0625 43.851562 1342.910156 69.816406 1372.5 94.898438 C 1398.207031 116.539062 1424.59375 138.769531 1452.464844 158.082031 C 1474.121094 173.253906 1493.835938 186.460938 1513.074219 198.203125 C 1553.882812 223.355469 1591.035156 241.265625 1626.277344 252.816406 C 1657.625 263.363281 1690.074219 269.824219 1722.941406 272.085938 C 1784.675781 276.292969 1846.425781 264.589844 1906.125 253.070312 C 1933.875 247.589844 1962.601562 242.113281 1991.023438 238.199219 L 1990.835938 236.636719 C 1962.417969 240.550781 1933.691406 246.023438 1905.746094 251.40625 C 1846.242188 263.027344 1784.6875 274.828125 1723.050781 270.425781 C 1690.183594 268.164062 1657.929688 261.804688 1626.777344 251.355469 C 1591.632812 239.609375 1554.675781 221.800781 1513.769531 196.839844 C 1494.722656 185.199219 1474.8125 171.890625 1453.351562 156.820312 C 1425.675781 137.605469 1399.09375 115.277344 1373.582031 93.734375 C 1343.894531 68.847656 1313.042969 42.878906 1280.210938 21.289062 C 1272.828125 16.558594 1265.445312 11.824219 1257.964844 7.285156 C 1161.859375 -50.632812 1056.90625 -84.402344 954.394531 -90.242188 C 900.355469 -93.226562 844.492188 -85.878906 790.386719 -78.617188 C 777.980469 -76.839844 766.261719 -75.453125 754.542969 -74.066406 C 732.863281 -71.375 710.695312 -68.6875 688.988281 -62.582031 C 663.082031 -55.429688 642.714844 -45.214844 626.8125 -31.261719 L 627.875 -29.988281 C 643.78125 -43.941406 663.953125 -54.253906 689.566406 -61.308594 Z M 688.824219 -52.628906 C 706.410156 -55.929688 723.785156 -56.890625 742.136719 -57.84375 C 746.238281 -58.210938 750.433594 -58.28125 754.726562 -58.542969 C 778.15625 -59.855469 802.375 -62.726562 828.15625 -65.777344 C 871.125 -70.867188 915.558594 -75.949219 958.285156 -74.304688 C 1062.859375 -70.113281 1170.355469 -37.496094 1261.015625 17.652344 C 1268.496094 22.191406 1275.878906 26.925781 1282.96875 31.753906 C 1315.117188 53.238281 1344.597656 79.980469 1373.203125 106.03125 C 1397.832031 128.347656 1423.433594 151.648438 1450.421875 171.246094 C 1472.464844 187.105469 1492.082031 200.503906 1510.25 211.945312 C 1550.765625 237.195312 1587.820312 254.8125 1623.257812 265.972656 C 1654.515625 275.742188 1687.164062 281.320312 1719.84375 282.507812 C 1775.933594 284.824219 1831.921875 273.867188 1886.050781 263.1875 C 1918.882812 256.859375 1952.882812 250.152344 1986.574219 246.464844 L 1986.390625 244.902344 C 1952.699219 248.589844 1918.796875 255.101562 1885.867188 261.625 C 1831.835938 272.109375 1775.847656 283.066406 1720.148438 280.949219 C 1687.46875 279.761719 1655.109375 274.085938 1624.050781 264.417969 C 1588.804688 253.351562 1551.945312 235.835938 1511.429688 210.585938 C 1493.261719 199.148438 1473.542969 185.941406 1451.503906 170.082031 C 1424.511719 150.484375 1399.109375 127.28125 1374.285156 104.867188 C 1345.679688 78.816406 1316.199219 52.074219 1283.855469 30.488281 C 1276.765625 25.660156 1269.1875 20.828125 1261.902344 16.390625 C 1171.050781 -38.859375 1063.0625 -71.476562 958.292969 -75.769531 C 915.566406 -77.414062 871.136719 -72.332031 827.972656 -67.34375 C 802.289062 -64.484375 778.070312 -61.613281 754.542969 -60.105469 C 750.25 -59.84375 745.953125 -59.578125 741.953125 -59.40625 C 723.601562 -58.453125 706.125 -57.296875 688.445312 -54.289062 C 661.480469 -49.390625 640.632812 -40.152344 624.335938 -25.910156 L 625.402344 -24.636719 C 641.304688 -38.585938 662.152344 -47.824219 688.824219 -52.628906 Z M 687.789062 -44.335938 C 703.023438 -45.898438 717.949219 -45.410156 733.753906 -45.210938 C 740.292969 -45.070312 747.316406 -44.925781 754.144531 -44.882812 C 784.492188 -44.882812 816.230469 -48.578125 849.917969 -52.265625 C 886.832031 -56.515625 925.015625 -60.855469 961.503906 -59.9375 C 1069.601562 -57.378906 1177.015625 -26.523438 1264.269531 26.652344 C 1271.363281 30.996094 1278.550781 35.628906 1286.125 40.949219 C 1317.492188 62.527344 1345.601562 90.039062 1372.640625 116.765625 C 1396.484375 140.148438 1421.292969 164.515625 1447.890625 184.40625 C 1470.023438 201.046875 1488.863281 214.050781 1507.03125 225.492188 C 1547.253906 250.839844 1584.113281 268.355469 1619.953125 278.738281 C 1651.308594 287.824219 1683.671875 292.523438 1716.359375 292.734375 C 1767.484375 293.261719 1818.683594 283.054688 1868.324219 273.027344 C 1905.453125 265.460938 1943.660156 257.703125 1981.636719 254.730469 L 1981.453125 253.167969 C 1943.476562 256.140625 1905.171875 264.09375 1867.945312 271.367188 C 1818.5 281.488281 1767.300781 291.699219 1716.464844 291.078125 C 1683.972656 290.964844 1651.613281 286.265625 1620.546875 277.082031 C 1584.90625 266.796875 1548.238281 249.382812 1508.214844 224.132812 C 1490.046875 212.695312 1471.304688 199.492188 1449.074219 183.046875 C 1422.472656 163.160156 1397.859375 138.890625 1374.015625 115.503906 C 1346.78125 88.679688 1318.675781 61.167969 1287.113281 39.492188 C 1279.539062 34.171875 1272.347656 29.535156 1265.257812 25.195312 C 1177.902344 -28.273438 1070.003906 -59.132812 961.804688 -61.496094 C 925.027344 -62.320312 886.84375 -57.980469 849.929688 -53.730469 C 816.335938 -49.75 784.402344 -46.152344 754.351562 -46.25 C 747.226562 -46.195312 740.496094 -46.4375 733.960938 -46.574219 C 718.253906 -46.96875 703.226562 -47.261719 687.800781 -45.800781 C 659.972656 -43.054688 638.351562 -34.703125 621.664062 -20.65625 L 622.730469 -19.382812 C 638.925781 -33.429688 660.449219 -41.585938 687.789062 -44.335938 Z M 687.144531 -35.851562 C 700.710938 -36.054688 713.679688 -34.605469 727.425781 -33.246094 C 736.007812 -32.3125 744.882812 -31.472656 754.148438 -30.925781 C 789.261719 -28.746094 826.273438 -33.191406 865.824219 -37.8125 C 898.929688 -41.796875 933.011719 -45.773438 965.695312 -45.5625 C 1076.929688 -44.839844 1184.355469 -15.933594 1268.207031 35.757812 C 1275.496094 40.195312 1282.78125 45.125 1289.871094 49.953125 C 1320.554688 71.429688 1347.386719 100.007812 1373.25 127.601562 C 1396.304688 152.058594 1419.9375 177.296875 1446.144531 197.476562 C 1468.273438 214.601562 1487.011719 227.804688 1504.695312 239.238281 C 1544.523438 264.875 1581.582031 282.003906 1617.226562 291.800781 C 1648.6875 300.203125 1681.054688 303.925781 1713.554688 303.0625 C 1760.300781 302.097656 1807.105469 292.347656 1852.449219 282.589844 C 1893.296875 273.972656 1935.609375 264.875 1977.289062 262.804688 L 1977.203125 261.046875 C 1935.230469 263.214844 1893.015625 272.113281 1852.070312 280.925781 C 1806.828125 290.492188 1760.117188 300.535156 1713.664062 301.40625 C 1681.359375 302.367188 1649.089844 298.449219 1617.824219 290.144531 C 1582.078125 280.542969 1545.3125 263.320312 1505.679688 237.78125 C 1488 226.34375 1469.453125 213.242188 1447.324219 196.117188 C 1421.117188 175.9375 1397.484375 150.699219 1374.625 126.34375 C 1348.566406 98.648438 1321.734375 70.070312 1290.855469 48.496094 C 1283.863281 43.472656 1276.480469 38.738281 1269 34.199219 C 1184.953125 -17.589844 1077.039062 -46.496094 965.613281 -47.316406 C 932.730469 -47.628906 898.550781 -43.457031 865.445312 -39.476562 C 826.085938 -34.753906 789.074219 -30.308594 754.257812 -32.585938 C 744.992188 -33.132812 736.117188 -33.96875 727.535156 -34.90625 C 713.789062 -36.261719 700.820312 -37.714844 687.253906 -37.507812 C 658.957031 -37.203125 636.070312 -29.738281 618.996094 -15.40625 L 620.058594 -14.128906 C 636.644531 -27.980469 659.234375 -35.347656 687.144531 -35.851562 Z M 686.207031 -27.265625 C 698.789062 -26.5 710.582031 -24.179688 723.347656 -21.851562 C 733.191406 -20.03125 743.226562 -18.113281 753.855469 -16.871094 C 792.367188 -12.230469 833.480469 -17.527344 877.332031 -22.902344 C 907.703125 -26.804688 939.246094 -30.601562 969.304688 -30.992188 C 1083.671875 -32.105469 1191.011719 -4.957031 1271.851562 44.957031 C 1278.945312 49.296875 1286.035156 54.125 1293.414062 59.347656 C 1323.515625 81.015625 1348.972656 110.363281 1373.851562 138.929688 C 1395.925781 164.351562 1418.578125 190.5625 1444.195312 210.933594 C 1465.835938 228.054688 1484.1875 241.546875 1502.0625 253.082031 C 1541.984375 279.011719 1578.847656 296.039062 1614.5 304.859375 C 1645.867188 312.484375 1678.144531 315.425781 1710.457031 313.488281 C 1753.40625 311.324219 1796.503906 301.648438 1837.941406 292.351562 C 1881.917969 282.390625 1927.558594 272.046875 1972.648438 270.972656 L 1972.5625 269.214844 C 1927.277344 270.191406 1881.640625 280.53125 1837.464844 290.398438 C 1795.929688 299.890625 1753.125 309.46875 1710.175781 311.632812 C 1678.160156 313.472656 1645.882812 310.53125 1614.710938 303.007812 C 1579.058594 294.1875 1542.582031 277.355469 1502.65625 251.425781 C 1484.785156 239.890625 1466.433594 226.402344 1444.988281 209.375 C 1419.367188 189.003906 1396.714844 162.796875 1374.839844 137.472656 C 1349.960938 108.90625 1324.402344 79.261719 1294.304688 57.59375 C 1286.925781 52.375 1279.835938 47.546875 1272.742188 43.203125 C 1191.808594 -7.003906 1084.074219 -33.859375 969.316406 -32.945312 C 939.066406 -32.652344 907.71875 -28.757812 877.148438 -24.953125 C 833.496094 -19.480469 792.378906 -14.183594 754.160156 -18.917969 C 743.535156 -20.160156 733.496094 -22.078125 723.65625 -23.898438 C 710.886719 -26.226562 699.097656 -28.550781 686.515625 -29.3125 C 666.617188 -30.613281 638.113281 -28.457031 616.226562 -10.445312 L 617.292969 -9.167969 C 638.78125 -26.402344 666.605469 -28.664062 686.207031 -27.265625 Z M 685.371094 -18.878906 C 697.261719 -17.238281 708.464844 -14.238281 720.441406 -10.839844 C 730.960938 -7.941406 741.964844 -5.039062 753.660156 -3.011719 C 794.984375 4.28125 841.960938 -1.953125 887.183594 -8.101562 C 915.601562 -12.015625 945 -15.925781 973.203125 -16.523438 C 1090.414062 -19.375 1197.867188 5.628906 1275.59375 53.960938 C 1282.785156 58.59375 1289.875 63.421875 1296.863281 68.445312 C 1326.28125 90.011719 1350.660156 120.527344 1374.070312 150.058594 C 1394.964844 176.351562 1416.828125 203.628906 1441.859375 224.191406 C 1460.101562 239.339844 1479.222656 253.714844 1498.941406 266.921875 C 1538.277344 293.042969 1574.851562 309.679688 1611.289062 317.917969 C 1642.757812 324.859375 1674.945312 327.019531 1707.066406 324.007812 C 1746.609375 320.847656 1786.386719 311.441406 1824.703125 302.027344 C 1871.519531 290.8125 1919.898438 278.925781 1967.613281 279.429688 L 1967.722656 277.773438 C 1919.910156 277.460938 1871.332031 289.25 1824.515625 300.464844 C 1786.300781 309.683594 1746.421875 319.285156 1707.175781 322.347656 C 1675.347656 325.265625 1643.0625 323.300781 1611.886719 316.265625 C 1575.9375 308.027344 1539.363281 291.390625 1500.121094 265.5625 C 1480.402344 252.355469 1461.28125 237.980469 1443.039062 222.832031 C 1418.007812 202.269531 1396.339844 175.09375 1375.34375 148.992188 C 1351.742188 119.363281 1327.363281 88.847656 1297.75 67.183594 C 1290.761719 62.160156 1283.671875 57.332031 1276.289062 52.597656 C 1198.464844 3.972656 1090.621094 -21.226562 972.925781 -18.378906 C 944.621094 -17.585938 915.226562 -13.675781 886.804688 -9.761719 C 841.582031 -3.613281 794.800781 2.71875 753.769531 -4.671875 C 742.074219 -6.699219 731.363281 -9.695312 720.746094 -12.402344 C 708.863281 -15.503906 697.46875 -18.605469 685.480469 -20.535156 C 648.535156 -25.851562 625.820312 -14.871094 613.453125 -4.507812 L 614.519531 -3.230469 C 636.503906 -21.441406 665.289062 -21.742188 685.371094 -18.878906 Z M 684.726562 -10.390625 C 696.125 -7.777344 706.929688 -4 718.125 -0.0234375 C 729.316406 3.953125 740.898438 8.128906 753.46875 10.847656 C 797.210938 21.085938 847.121094 13.894531 895.761719 6.792969 C 922.722656 2.867188 950.460938 -1.152344 977.203125 -2.246094 C 1131.125 -8.46875 1226.679688 29.824219 1279.535156 63.0625 C 1286.722656 67.695312 1293.8125 72.527344 1300.507812 77.644531 C 1329.339844 99.402344 1352.539062 130.789062 1374.773438 161.191406 C 1394.785156 188.257812 1415.472656 216.40625 1440.113281 237.257812 C 1457.960938 252.699219 1476.984375 267.269531 1496.503906 280.378906 C 1535.550781 306.59375 1572.222656 323.035156 1608.46875 330.6875 C 1638.089844 336.933594 1669.304688 338.109375 1704.167969 334.042969 C 1740.6875 330.082031 1777.347656 320.558594 1812.828125 311.417969 C 1862.097656 298.757812 1913.121094 285.519531 1963.363281 287.308594 L 1963.472656 285.652344 C 1913.035156 283.761719 1862.011719 297 1812.449219 309.757812 C 1776.96875 318.898438 1740.308594 328.421875 1703.984375 332.480469 C 1669.21875 336.351562 1638.199219 335.273438 1608.773438 329.128906 C 1572.527344 321.476562 1536.046875 305.132812 1497.199219 279.015625 C 1477.773438 265.710938 1458.75 251.144531 1440.804688 235.898438 C 1416.359375 215.144531 1395.671875 186.996094 1375.660156 159.925781 C 1353.234375 129.425781 1329.9375 97.746094 1300.8125 76.085938 C 1293.921875 70.867188 1286.832031 66.039062 1279.640625 61.402344 C 1183.363281 0.945312 1061.644531 -7.554688 976.4375 -4.105469 C 949.691406 -3.011719 921.953125 1.007812 894.996094 4.933594 C 846.839844 12.039062 796.929688 19.230469 753.382812 9.089844 C 740.914062 6.175781 729.332031 2.003906 718.234375 -1.679688 C 706.84375 -5.757812 696.234375 -9.4375 684.640625 -12.148438 C 667.492188 -15.96875 635.21875 -19.398438 610.199219 0.449219 L 611.265625 1.726562 C 636.183594 -17.441406 667.96875 -14.011719 684.726562 -10.390625 Z M 684.082031 -1.902344 C 695.378906 1.390625 705.789062 5.949219 716.585938 10.703125 C 728.160156 15.855469 740.226562 21.007812 753.46875 24.804688 C 799.335938 38.082031 852.28125 29.738281 903.269531 21.871094 C 929.058594 17.839844 955.433594 13.621094 981.105469 12.226562 C 1067.980469 7.421875 1190.980469 13.878906 1283.277344 72.066406 C 1290.175781 76.308594 1297.164062 81.332031 1304.253906 86.648438 C 1332.398438 108.304688 1354.324219 140.753906 1375.574219 172.128906 C 1394.605469 200.167969 1414.308594 229.285156 1438.363281 250.328125 C 1456.109375 265.960938 1474.742188 280.820312 1494.167969 294.125 C 1532.820312 320.632812 1569.589844 336.878906 1606.039062 343.652344 C 1635.273438 349.210938 1666.6875 349.511719 1701.558594 344.46875 C 1735.355469 339.613281 1769.472656 330.269531 1802.222656 321.207031 C 1853.746094 307 1906.832031 292.117188 1959.300781 295.777344 L 1959.410156 294.117188 C 1906.839844 290.652344 1853.367188 305.335938 1801.746094 319.742188 C 1768.996094 328.800781 1734.875 338.144531 1701.082031 343 C 1666.40625 348.144531 1635.28125 347.746094 1606.046875 342.191406 C 1569.601562 335.414062 1533.316406 319.171875 1494.761719 292.957031 C 1475.433594 279.460938 1456.703125 264.792969 1439.152344 249.257812 C 1415.292969 228.3125 1395.488281 199.390625 1376.652344 171.449219 C 1355.402344 140.078125 1333.285156 107.53125 1305.039062 85.578125 C 1297.953125 80.261719 1290.964844 75.238281 1283.871094 70.898438 C 1191.285156 12.320312 1067.796875 5.859375 980.628906 10.757812 C 955.148438 12.253906 928.582031 16.375 902.792969 20.402344 C 851.996094 28.371094 799.347656 36.617188 753.675781 23.4375 C 740.429688 19.644531 728.660156 14.394531 716.984375 9.4375 C 705.992188 4.582031 695.777344 0.125 684.285156 -3.269531 C 670.265625 -7.457031 634.703125 -15.007812 607.71875 6.289062 L 608.785156 7.566406 C 635.375 -13.445312 670.253906 -5.996094 684.082031 -1.902344 Z M 682.949219 6.582031 C 694.046875 10.753906 704.15625 15.894531 714.753906 21.527344 C 726.8125 27.65625 739.160156 34.179688 752.691406 38.855469 C 800.582031 55.367188 856.070312 45.871094 909.605469 36.847656 C 934.222656 32.710938 959.625 28.484375 984.03125 26.691406 C 1113.285156 17.476562 1214.832031 35.800781 1286.238281 81.164062 C 1293.425781 85.796875 1300.222656 90.722656 1307.117188 95.941406 C 1334.675781 117.789062 1355.425781 151.109375 1375.691406 183.449219 C 1393.738281 212.460938 1412.265625 242.445312 1435.734375 263.683594 C 1453.089844 279.609375 1471.722656 294.46875 1490.753906 308.058594 C 1529.304688 334.761719 1565.789062 350.617188 1602.53125 356.808594 C 1631.378906 361.679688 1662.511719 361.101562 1697.875 355.085938 C 1729.234375 349.722656 1760.914062 340.363281 1791.519531 331.191406 C 1844.90625 315.238281 1899.953125 298.90625 1954.074219 304.136719 L 1954.183594 302.476562 C 1899.574219 297.242188 1844.234375 313.671875 1790.847656 329.625 C 1760.242188 338.796875 1728.757812 348.257812 1697.398438 353.617188 C 1662.421875 359.832031 1631.292969 360.410156 1602.734375 355.441406 C 1566.1875 349.347656 1530 333.398438 1491.640625 306.796875 C 1472.507812 293.398438 1453.976562 278.34375 1436.816406 262.519531 C 1413.542969 241.382812 1394.914062 211.589844 1377.0625 182.679688 C 1356.894531 150.140625 1336.148438 116.820312 1308.195312 94.777344 C 1301.597656 89.460938 1294.3125 84.535156 1287.320312 80 C 1215.71875 34.539062 1113.78125 16.015625 984.234375 25.324219 C 959.632812 27.019531 934.136719 31.441406 909.519531 35.578125 C 855.984375 44.601562 800.789062 54.003906 753.28125 37.6875 C 739.753906 33.011719 727.304688 26.683594 715.542969 20.457031 C 705.234375 15.21875 694.640625 9.585938 683.542969 5.414062 C 653.761719 -5.808594 624.570312 -3.265625 605.144531 11.835938 L 606.210938 13.113281 C 625.144531 -1.992188 653.753906 -4.34375 682.949219 6.582031 Z M 682.304688 15.070312 C 693.296875 19.921875 703.597656 26.140625 713.703125 32.257812 C 725.851562 39.65625 738.679688 47.15625 752.691406 52.8125 C 802.222656 72.363281 860.15625 61.902344 916.136719 51.921875 C 939.878906 47.585938 964.59375 43.253906 988.125 41.261719 C 1119.933594 29.914062 1221.589844 46.582031 1290.273438 90.558594 C 1297.265625 95.09375 1304.257812 100.117188 1310.855469 105.433594 C 1337.929688 127.277344 1357.402344 161.664062 1376.394531 195.070312 C 1393.457031 225.046875 1411 256.007812 1433.882812 277.433594 C 1450.84375 293.648438 1469.183594 308.605469 1488.410156 322.296875 C 1526.085938 348.796875 1563.640625 364.949219 1599.996094 370.457031 C 1628.65625 374.742188 1659.792969 373.1875 1695.261719 366 C 1724.480469 360.039062 1753.914062 350.761719 1782.375 341.480469 C 1837.332031 323.875 1894.246094 305.796875 1950.109375 312.894531 L 1950.21875 311.234375 C 1893.867188 304.136719 1836.953125 322.214844 1781.699219 339.914062 C 1753.339844 349 1723.808594 358.472656 1694.882812 364.335938 C 1659.609375 371.625 1628.570312 372.984375 1600.300781 368.898438 C 1564.332031 363.589844 1526.972656 347.535156 1489.492188 321.132812 C 1470.460938 307.539062 1452.121094 292.582031 1435.15625 276.367188 C 1412.472656 255.039062 1394.828125 224.277344 1377.957031 194.398438 C 1358.964844 160.988281 1339.300781 126.503906 1312.132812 104.367188 C 1305.53125 99.054688 1298.542969 94.03125 1291.351562 89.394531 C 1222.28125 45.21875 1120.332031 28.648438 988.328125 39.894531 C 964.507812 41.984375 939.984375 46.414062 916.046875 50.652344 C 860.363281 60.539062 802.71875 70.902344 753.578125 51.550781 C 739.464844 46.089844 726.929688 38.492188 714.785156 31.09375 C 704.679688 24.976562 694.183594 18.660156 683.191406 13.804688 C 638.25 -6.105469 610.320312 11.285156 602.769531 16.992188 L 603.832031 18.269531 C 610.996094 12.363281 638.238281 -4.640625 682.304688 15.070312 Z M 681.078125 23.261719 C 681.273438 23.359375 681.46875 23.457031 681.660156 23.558594 C 692.550781 29.09375 702.84375 36.285156 712.847656 43.085938 C 725.378906 51.660156 738.292969 60.429688 752.691406 66.769531 C 803.957031 89.648438 864.144531 78.132812 922.375 67.089844 C 945.433594 62.652344 969.273438 58.121094 992.21875 55.832031 C 1128.238281 41.972656 1227.082031 56.476562 1294.210938 99.664062 C 1301.203125 104.199219 1308.195312 109.222656 1314.695312 114.730469 C 1341.277344 136.570312 1359.671875 172.121094 1377.484375 206.398438 C 1393.371094 237.25 1409.839844 268.882812 1432.328125 290.601562 C 1448.996094 306.910156 1467.136719 322.253906 1486.070312 336.042969 C 1523.550781 362.933594 1561.007812 378.792969 1597.371094 383.324219 C 1625.839844 387.023438 1656.101562 384.777344 1692.265625 376.226562 C 1719.535156 369.769531 1746.820312 360.378906 1773.425781 351.378906 C 1830.054688 331.929688 1888.449219 311.910156 1945.761719 320.96875 L 1946.0625 319.410156 C 1888.261719 310.347656 1829.675781 330.269531 1772.945312 349.910156 C 1746.539062 359.011719 1719.054688 368.300781 1691.980469 374.859375 C 1655.820312 383.410156 1625.847656 385.558594 1597.574219 381.957031 C 1561.503906 377.332031 1524.242188 361.570312 1486.859375 334.972656 C 1467.925781 321.1875 1449.882812 306.136719 1433.308594 289.628906 C 1411.210938 268.109375 1394.742188 236.476562 1378.953125 205.921875 C 1361.234375 171.449219 1342.648438 135.796875 1315.871094 113.859375 C 1309.371094 108.351562 1302.378906 103.328125 1295.191406 98.691406 C 1227.773438 55.113281 1128.640625 40.707031 992.132812 54.5625 C 969.183594 56.851562 945.246094 61.578125 921.992188 65.917969 C 864.054688 76.863281 804.160156 88.285156 753.378906 65.894531 C 738.984375 59.554688 726.066406 50.785156 713.730469 42.308594 C 703.730469 35.511719 693.335938 28.511719 682.351562 22.683594 C 682.15625 22.585938 681.960938 22.484375 681.765625 22.386719 C 658.042969 10.324219 624.226562 4.152344 599.898438 22.636719 L 600.964844 23.910156 C 624.609375 5.324219 657.742188 11.394531 681.078125 23.261719 Z M 680.824219 31.945312 C 691.804688 38.265625 702.191406 46.238281 712.285156 53.820312 C 724.808594 63.367188 737.914062 73.214844 752.5 80.628906 C 805.300781 106.738281 867.742188 94.164062 928.03125 81.960938 C 950.40625 77.421875 973.5625 72.789062 995.925781 70.203125 C 1084.304688 60.039062 1211.59375 52.761719 1297.855469 108.863281 C 1304.847656 113.398438 1311.839844 118.421875 1318.144531 123.828125 C 1344.140625 145.863281 1361.355469 182.285156 1377.800781 217.332031 C 1392.703125 249.152344 1408.1875 281.757812 1429.894531 303.566406 C 1446.367188 320.265625 1464.214844 335.707031 1482.855469 349.589844 C 1520.039062 376.574219 1557.402344 392.140625 1593.964844 396.285156 C 1622.632812 399.105469 1652.804688 396.078125 1688.878906 386.261719 C 1714.394531 379.398438 1739.925781 370.09375 1764.675781 360.886719 C 1822.488281 339.59375 1882.066406 317.722656 1940.828125 328.746094 L 1941.132812 327.183594 C 1881.980469 315.964844 1822.109375 337.929688 1764.199219 359.417969 C 1739.445312 368.628906 1713.914062 377.929688 1688.5 384.597656 C 1652.523438 394.222656 1622.546875 397.347656 1594.171875 394.429688 C 1557.804688 390.386719 1520.734375 374.726562 1483.839844 348.132812 C 1465.101562 334.441406 1447.253906 319.003906 1430.976562 302.402344 C 1409.367188 280.886719 1393.980469 248.085938 1379.171875 216.5625 C 1362.4375 181.121094 1345.324219 144.503906 1319.128906 122.371094 C 1312.628906 116.863281 1305.832031 111.9375 1298.644531 107.304688 C 1211.996094 51.007812 1084.21875 58.28125 995.546875 68.539062 C 973.183594 71.128906 950.027344 75.761719 927.355469 80.398438 C 867.363281 92.5 805.214844 104.980469 752.703125 79.265625 C 738.214844 72.140625 725.207031 62.101562 712.6875 52.550781 C 702.589844 44.972656 692.203125 36.996094 681.027344 30.582031 C 657.996094 17.15625 622.050781 8.433594 596.644531 27.59375 L 597.710938 28.867188 C 622.917969 10.097656 658.082031 18.914062 680.824219 31.945312 Z M 679.984375 40.335938 C 691.058594 47.433594 701.34375 56.089844 711.238281 64.546875 C 723.945312 75.171875 737.140625 86.289062 752.304688 94.488281 C 806.648438 123.828125 871.144531 110.09375 933.683594 96.835938 C 955.570312 92.292969 978.144531 87.363281 999.925781 84.480469 C 1097.199219 71.738281 1219.613281 63.941406 1301.695312 117.671875 C 1308.691406 122.207031 1315.386719 127.324219 1321.691406 132.734375 C 1347.007812 154.664062 1362.949219 192.152344 1378.410156 228.171875 C 1392.429688 260.765625 1406.832031 294.535156 1427.953125 316.535156 C 1444.03125 333.527344 1461.585938 349.0625 1480.417969 363.042969 C 1517.507812 390.222656 1554.671875 405.691406 1591.4375 408.957031 C 1619.523438 411.480469 1649.699219 407.480469 1686.074219 396.589844 C 1709.738281 389.519531 1733.902344 380.011719 1756.898438 370.890625 C 1815.894531 347.75 1876.753906 323.839844 1936.574219 337.109375 L 1936.878906 335.550781 C 1876.570312 322.277344 1815.417969 346.28125 1756.320312 369.617188 C 1733.132812 378.640625 1709.257812 388.050781 1685.496094 395.316406 C 1649.417969 406.109375 1619.238281 410.113281 1591.347656 407.6875 C 1554.972656 404.621094 1518 389.25 1481.109375 362.167969 C 1462.46875 348.285156 1444.917969 332.75 1429.03125 315.859375 C 1408.007812 294.152344 1393.601562 260.382812 1379.675781 228.082031 C 1364.121094 191.769531 1348.183594 154.28125 1322.578125 131.960938 C 1316.078125 126.453125 1309.378906 121.332031 1302.386719 116.796875 C 1219.722656 62.773438 1097.113281 70.46875 999.542969 83.304688 C 977.765625 86.191406 954.996094 91.019531 933.300781 95.664062 C 872.324219 108.734375 809.292969 121.992188 756.203125 95 C 755.230469 94.507812 754.066406 93.914062 753.09375 93.417969 C 738.121094 85.316406 724.929688 74.203125 712.21875 63.578125 C 702.324219 55.121094 692.042969 46.464844 680.773438 39.265625 C 657.359375 24.179688 620.746094 13.402344 594.363281 33.042969 L 595.425781 34.320312 C 621.125 15.0625 656.960938 25.445312 679.984375 40.335938 Z M 679.144531 48.722656 C 690.3125 56.605469 700.6875 66.042969 710.480469 75.183594 C 723.277344 87.078125 736.660156 99.265625 751.917969 108.246094 C 807.699219 141.015625 874.445312 126.222656 938.851562 111.707031 C 960.15625 106.867188 982.242188 101.933594 1003.339844 98.945312 C 1119.375 82.03125 1248.332031 73.890625 1325.042969 142.027344 C 1349.773438 164.152344 1364.730469 202.609375 1378.914062 239.691406 C 1391.757812 273.15625 1405.179688 307.894531 1425.710938 330.085938 C 1479.175781 387.632812 1533.703125 418.539062 1588.125 422.207031 C 1642.546875 425.878906 1696.664062 403.195312 1749.019531 381.085938 C 1809.007812 356 1870.953125 329.949219 1931.636719 345.375 L 1931.941406 343.816406 C 1870.769531 328.386719 1808.628906 354.339844 1748.347656 379.519531 C 1696.089844 401.4375 1642.269531 424.023438 1588.140625 420.257812 C 1534.203125 416.589844 1479.871094 385.78125 1426.699219 328.628906 C 1406.261719 306.730469 1392.933594 272.285156 1380.285156 238.921875 C 1366.003906 201.542969 1351.148438 162.890625 1326.03125 140.570312 C 1248.832031 71.941406 1119.390625 80.082031 1003.058594 97.089844 C 981.863281 100.273438 959.777344 105.203125 938.472656 110.042969 C 874.363281 124.464844 808.003906 139.457031 752.609375 106.886719 C 737.546875 98.003906 724.164062 85.8125 711.367188 73.921875 C 701.382812 64.679688 691.003906 55.242188 679.839844 47.363281 C 654.300781 29.234375 616.996094 19.332031 591.402344 37.90625 L 592.464844 39.179688 C 617.472656 21.285156 654.09375 31.089844 679.144531 48.722656 Z M 679.144531 48.722656 "/>
</clipPath>
<linearGradient id="linear1" gradientUnits="userSpaceOnUse" x1="-8.37433" y1="129.899994" x2="426.837698" y2="129.899994" gradientTransform="matrix(1.9447,0.988688,-0.989209,1.945725,830.674869,-430.325356)">
<stop offset="0" style="stop-color:rgb(66.299438%,28.199768%,100%);stop-opacity:1;"/>
<stop offset="0.03125" style="stop-color:rgb(66.362%,28.266907%,99.952698%);stop-opacity:1;"/>
<stop offset="0.0625" style="stop-color:rgb(66.572571%,28.491211%,99.797058%);stop-opacity:1;"/>
<stop offset="0.09375" style="stop-color:rgb(66.867065%,28.805542%,99.580383%);stop-opacity:1;"/>
<stop offset="0.125" style="stop-color:rgb(67.16156%,29.119873%,99.363708%);stop-opacity:1;"/>
<stop offset="0.15625" style="stop-color:rgb(67.456055%,29.434204%,99.147034%);stop-opacity:1;"/>
<stop offset="0.1875" style="stop-color:rgb(67.750549%,29.748535%,98.928833%);stop-opacity:1;"/>
<stop offset="0.21875" style="stop-color:rgb(68.045044%,30.064392%,98.712158%);stop-opacity:1;"/>
<stop offset="0.25" style="stop-color:rgb(68.339539%,30.378723%,98.495483%);stop-opacity:1;"/>
<stop offset="0.28125" style="stop-color:rgb(68.634033%,30.693054%,98.277283%);stop-opacity:1;"/>
<stop offset="0.3125" style="stop-color:rgb(68.928528%,31.007385%,98.060608%);stop-opacity:1;"/>
<stop offset="0.34375" style="stop-color:rgb(69.223022%,31.321716%,97.843933%);stop-opacity:1;"/>
<stop offset="0.375" style="stop-color:rgb(69.517517%,31.636047%,97.627258%);stop-opacity:1;"/>
<stop offset="0.40625" style="stop-color:rgb(69.812012%,31.950378%,97.409058%);stop-opacity:1;"/>
<stop offset="0.4375" style="stop-color:rgb(70.106506%,32.266235%,97.192383%);stop-opacity:1;"/>
<stop offset="0.46875" style="stop-color:rgb(70.402527%,32.580566%,96.975708%);stop-opacity:1;"/>
<stop offset="0.5" style="stop-color:rgb(70.697021%,32.894897%,96.759033%);stop-opacity:1;"/>
<stop offset="0.53125" style="stop-color:rgb(70.991516%,33.209229%,96.540833%);stop-opacity:1;"/>
<stop offset="0.5625" style="stop-color:rgb(71.286011%,33.52356%,96.324158%);stop-opacity:1;"/>
<stop offset="0.59375" style="stop-color:rgb(71.580505%,33.837891%,96.107483%);stop-opacity:1;"/>
<stop offset="0.625" style="stop-color:rgb(71.875%,34.152222%,95.890808%);stop-opacity:1;"/>
<stop offset="0.65625" style="stop-color:rgb(72.169495%,34.468079%,95.672607%);stop-opacity:1;"/>
<stop offset="0.6875" style="stop-color:rgb(72.463989%,34.78241%,95.455933%);stop-opacity:1;"/>
<stop offset="0.71875" style="stop-color:rgb(72.758484%,35.096741%,95.239258%);stop-opacity:1;"/>
<stop offset="0.75" style="stop-color:rgb(73.052979%,35.411072%,95.022583%);stop-opacity:1;"/>
<stop offset="0.78125" style="stop-color:rgb(73.347473%,35.725403%,94.804382%);stop-opacity:1;"/>
<stop offset="0.8125" style="stop-color:rgb(73.641968%,36.039734%,94.587708%);stop-opacity:1;"/>
<stop offset="0.84375" style="stop-color:rgb(73.936462%,36.354065%,94.371033%);stop-opacity:1;"/>
<stop offset="0.875" style="stop-color:rgb(74.230957%,36.668396%,94.152832%);stop-opacity:1;"/>
<stop offset="0.90625" style="stop-color:rgb(74.526978%,36.984253%,93.936157%);stop-opacity:1;"/>
<stop offset="0.9375" style="stop-color:rgb(74.821472%,37.298584%,93.719482%);stop-opacity:1;"/>
<stop offset="0.96875" style="stop-color:rgb(75.115967%,37.612915%,93.502808%);stop-opacity:1;"/>
<stop offset="1" style="stop-color:rgb(75.410461%,37.927246%,93.284607%);stop-opacity:1;"/>
</linearGradient>
</defs>
<g id="surface1">
<rect x="0" y="0" width="1440" height="809.999993" style="fill:rgb(100%,100%,100%);fill-opacity:1;stroke:none;"/>
<rect x="0" y="0" width="1440" height="809.999993" style="fill:rgb(100%,100%,100%);fill-opacity:1;stroke:none;"/>
<rect x="0" y="0" width="1440" height="809.999993" style="fill:rgb(26.669312%,3.919983%,40.388489%);fill-opacity:1;stroke:none;"/>
<g clip-path="url(#clip1)" clip-rule="nonzero">
<g clip-path="url(#clip2)" clip-rule="nonzero">
<g clip-path="url(#clip3)" clip-rule="nonzero">
<g clip-path="url(#clip4)" clip-rule="nonzero">
<path style=" stroke:none;fill-rule:nonzero;fill:url(#linear0);" d="M -78.363281 166.222656 L 32.378906 896.394531 L 1518.363281 671.019531 L 1407.621094 -59.152344 Z M -78.363281 166.222656 "/>
</g>
</g>
</g>
</g>
<g clip-path="url(#clip5)" clip-rule="nonzero">
<g clip-path="url(#clip6)" clip-rule="nonzero">
<g clip-path="url(#clip7)" clip-rule="nonzero">
<g clip-path="url(#clip8)" clip-rule="nonzero">
<path style=" stroke:none;fill-rule:nonzero;fill:url(#linear1);" d="M 765.691406 -342.820312 L 419.351562 338.410156 L 1265.710938 768.699219 L 1612.046875 87.46875 Z M 765.691406 -342.820312 "/>
</g>
</g>
</g>
</g>
</g>
</svg>
