<?xml version="1.0" encoding="UTF-8"?>
<svg xmlns="http://www.w3.org/2000/svg" xmlns:xlink="http://www.w3.org/1999/xlink" width="705pt" height="591.000005pt" viewBox="0 0 705 591.000005" version="1.2">
<defs>
<clipPath id="clip1">
  <path d="M 113.023438 291.40625 L 592.210938 291.40625 L 592.210938 531 L 113.023438 531 Z M 113.023438 291.40625 "/>
</clipPath>
<clipPath id="clip2">
  <path d="M 143.828125 82.617188 L 560.875 82.617188 L 560.875 499.664062 L 143.828125 499.664062 Z M 143.828125 82.617188 "/>
</clipPath>
<clipPath id="clip3">
  <path d="M 183 156 L 521 156 L 521 499.664062 L 183 499.664062 Z M 183 156 "/>
</clipPath>
</defs>
<g id="surface1">
<g clip-path="url(#clip1)" clip-rule="nonzero">
<path style=" stroke:none;fill-rule:nonzero;fill:rgb(79.60968%,42.349243%,90.19928%);fill-opacity:1;" d="M 113.023438 291.40625 L 138.785156 291.40625 C 138.785156 409.316406 234.710938 505.242188 352.617188 505.242188 C 470.527344 505.242188 566.453125 409.316406 566.453125 291.40625 L 592.210938 291.40625 C 592.210938 423.519531 484.730469 531 352.617188 531 C 220.503906 531 113.023438 423.519531 113.023438 291.40625 Z M 113.023438 291.40625 "/>
</g>
<g clip-path="url(#clip2)" clip-rule="nonzero">
<path style=" stroke:none;fill-rule:nonzero;fill:rgb(79.60968%,42.349243%,90.19928%);fill-opacity:1;" d="M 143.828125 291.140625 C 143.828125 175.996094 237.207031 82.617188 352.351562 82.617188 C 467.496094 82.617188 560.875 175.996094 560.875 291.140625 C 560.875 406.285156 467.496094 499.664062 352.351562 499.664062 C 237.207031 499.664062 143.828125 406.285156 143.828125 291.140625 Z M 143.828125 291.140625 "/>
</g>
<g clip-path="url(#clip3)" clip-rule="nonzero">
<path style=" stroke:none;fill-rule:nonzero;fill:rgb(75.289917%,52.549744%,92.939758%);fill-opacity:1;" d="M 352.351562 499.664062 C 421.4375 499.664062 482.710938 466.042969 520.613281 414.269531 C 513.554688 404.183594 485.820312 374.683594 392.527344 352.160156 C 392.527344 330.980469 390.425781 318.289062 390.425781 318.289062 C 390.425781 318.289062 417.910156 280.132812 420.011719 227.265625 C 420.011719 218.859375 424.128906 159.101562 352.269531 156.414062 L 352.269531 156.328125 L 351.761719 156.328125 C 351.761719 156.328125 351.425781 156.328125 351.257812 156.328125 L 351.257812 156.414062 C 279.3125 159.101562 283.433594 218.777344 283.433594 227.265625 C 285.535156 280.214844 313.101562 318.371094 313.101562 318.371094 C 313.101562 318.371094 311 331.0625 311 352.242188 C 220.144531 374.097656 191.484375 402.671875 183.5 413.429688 C 221.40625 465.625 282.84375 499.664062 352.351562 499.664062 "/>
</g>
</g>
</svg>
