<?xml version="1.0" encoding="UTF-8"?>
<svg xmlns="http://www.w3.org/2000/svg" xmlns:xlink="http://www.w3.org/1999/xlink" width="1440pt" height="809.999993pt" viewBox="0 0 1440 809.999993" version="1.2">
<defs>
<clipPath id="clip1">
  <path d="M 0 0 L 969 0 L 969 810 L 0 810 Z M 0 0 "/>
</clipPath>
<clipPath id="clip2">
  <path d="M -608.945312 619.761719 L 818.363281 -269.1875 L 1104.636719 190.453125 L -322.671875 1079.402344 Z M -608.945312 619.761719 "/>
</clipPath>
<clipPath id="clip3">
  <path d="M -608.945312 619.761719 L 818.363281 -269.1875 L 1104.636719 190.453125 L -322.671875 1079.402344 Z M -608.945312 619.761719 "/>
</clipPath>
<clipPath id="clip4">
  <path d="M 588.304688 288.835938 C 518.515625 332.300781 331.671875 340.746094 228.207031 345.226562 C 205.816406 346.207031 186.636719 347.136719 172.640625 348.074219 C 91.417969 353.9375 60.785156 392.136719 21.597656 440.527344 C -13.941406 484.375 -54.238281 534.101562 -143.117188 572.929688 C -208.484375 601.648438 -251.21875 579.328125 -292.292969 557.589844 C -321.742188 542.550781 -349.300781 527.953125 -384.433594 531.359375 C -477.058594 540.761719 -493.316406 597.878906 -509.132812 653.101562 C -516.925781 680.644531 -524.367188 706.667969 -540.71875 727.222656 L -542.4375 726.023438 C -526.550781 705.757812 -519.113281 679.734375 -511.40625 652.574219 C -495.269531 596.824219 -478.601562 538.804688 -384.75 529.289062 C -349.152344 525.589844 -321.070312 540.511719 -291.472656 555.785156 C -250.691406 577.054688 -208.480469 599.054688 -144.046875 570.914062 C -55.636719 532.378906 -15.570312 482.796875 19.734375 439.09375 C 57.578125 392.1875 90.253906 352.070312 172.324219 346.003906 C 186.171875 344.832031 205.5 344.136719 227.890625 343.15625 C 338.46875 338.132812 543.882812 328.816406 599.484375 277.65625 C 611.421875 266.65625 623.972656 255.601562 637.078125 243.875 C 696.707031 190.855469 764.566406 130.765625 794.074219 62.152344 C 797.117188 55.074219 799.925781 48.140625 802.96875 41.058594 C 828.46875 -18.902344 854.410156 -80.753906 908.328125 -114.335938 C 909.03125 -114.773438 909.730469 -115.207031 910.664062 -115.789062 L 911.828125 -113.921875 C 911.128906 -113.484375 910.425781 -113.050781 909.726562 -112.613281 C 856.277344 -79.324219 830.421875 -17.847656 805.386719 41.820312 C 802.34375 48.902344 799.535156 55.835938 796.496094 62.914062 C 766.664062 132.050781 698.804688 192.140625 639.085938 245.539062 C 625.984375 257.265625 613.433594 268.324219 601.496094 279.324219 C 597.351562 282.550781 593.207031 285.78125 588.304688 288.835938 Z M 560.183594 302.460938 C 567.742188 297.429688 575.53125 292.253906 583.554688 286.929688 C 664.960938 232.988281 757.046875 171.746094 801.71875 79.105469 C 808.96875 64.21875 815.726562 48.019531 822.304688 32.578125 C 845.089844 -20.824219 868.542969 -76.269531 915.925781 -105.78125 C 916.160156 -105.925781 916.394531 -106.070312 916.625 -106.214844 L 915.464844 -108.082031 C 915.230469 -107.9375 914.996094 -107.792969 914.761719 -107.648438 C 866.679688 -77.699219 843.226562 -22.257812 820.355469 31.527344 C 813.773438 46.96875 806.871094 62.933594 799.769531 78.054688 C 755.417969 170.167969 663.332031 231.410156 582.390625 285.0625 C 574.367188 290.382812 566.578125 295.558594 559.019531 300.589844 C 557.621094 301.464844 556.453125 302.191406 555.050781 303.0625 C 473.59375 353.796875 252.765625 377.898438 168.535156 387.253906 L 167.542969 387.222656 C 89.523438 395.628906 52.304688 432.097656 9.570312 474.269531 C -28.757812 512.074219 -71.960938 554.539062 -154.273438 588.304688 C -214.097656 612.921875 -254.910156 592.644531 -294.675781 573.007812 C -323.835938 558.4375 -351.421875 544.832031 -385.652344 548.648438 C -474.488281 558.929688 -489.175781 617.011719 -503.273438 673.4375 C -509.898438 700.25 -516.40625 725.691406 -530.65625 744.9375 L -528.941406 746.136719 C -514.367188 726.367188 -508.09375 701.070312 -501.234375 674.109375 C -487.308594 618.445312 -472.800781 561.117188 -385.042969 551.1875 C -351.335938 547.046875 -323.984375 560.800781 -294.96875 575.136719 C -255.058594 595.007812 -213.722656 615.605469 -152.964844 590.40625 C -70.417969 556.496094 -26.894531 513.507812 11.578125 475.933594 C 54.082031 433.90625 90.832031 397.730469 168.242188 389.382812 L 169.230469 389.414062 C 253.464844 380.058594 474.667969 356.042969 556.59375 305.019531 C 557.761719 304.292969 559.164062 303.417969 560.183594 302.460938 Z M 807.554688 95.242188 C 817.933594 75.492188 826.53125 53.929688 835.335938 33.214844 C 856.367188 -17.800781 877.980469 -70.480469 922.183594 -98.332031 L 921.019531 -100.203125 C 876.117188 -71.910156 854.269531 -19.089844 833.152344 32.308594 C 824.726562 53.109375 815.746094 74.582031 805.605469 94.1875 C 743.902344 212.019531 625.875 270.621094 521.648438 322.246094 L 518.46875 323.902344 C 428.5625 368.878906 244.929688 416.808594 162.675781 428.820312 C 88.703125 439.566406 47.265625 471.855469 -0.507812 509.066406 C -41.480469 541.066406 -87.996094 577.167969 -164.207031 606.160156 C -219.566406 627.023438 -258.984375 608.46875 -297.351562 590.558594 C -326.164062 577.066406 -353.3125 564.160156 -386.027344 568.328125 C -470.988281 579.113281 -484.164062 640.144531 -495.753906 694.355469 C -501.066406 720.675781 -506.40625 745.390625 -519.023438 763.621094 L -517.304688 764.820312 C -504.453125 746.441406 -499.023438 721.347656 -493.480469 694.882812 C -481.449219 638.777344 -468.980469 580.777344 -385.476562 570.253906 C -353.609375 566.285156 -326.601562 578.960938 -297.9375 592.21875 C -259.421875 610.363281 -219.25 629.09375 -163.191406 607.792969 C -86.746094 578.65625 -39.996094 542.410156 0.976562 510.410156 C 48.515625 473.347656 89.722656 441.199219 163.082031 430.511719 C 245.335938 418.5 429.199219 370.425781 519.339844 325.304688 L 522.519531 323.648438 C 563.125 303.542969 605.980469 282.363281 646.59375 257.070312 C 710.691406 217.472656 769.617188 167.484375 807.554688 95.242188 Z M 813.394531 111.375 C 826.078125 88.566406 836.113281 62.546875 845.882812 37.664062 C 866.183594 -14.519531 885.40625 -63.761719 927.449219 -90.917969 L 926.285156 -92.785156 C 907.058594 -80.488281 890.855469 -62.292969 876.566406 -36.863281 C 863.738281 -14.289062 853.703125 11.730469 844.078125 36.847656 C 834.304688 61.730469 824.359375 87.371094 811.675781 110.175781 C 738.089844 242.214844 612.082031 297.359375 478.382812 346.925781 C 443.035156 359.867188 403.277344 377.171875 361.359375 395.175781 C 287.503906 426.914062 211.171875 459.871094 158.363281 469.75 C 89.285156 482.632812 43.570312 510.132812 -9.386719 542.140625 C -53.089844 568.714844 -103.007812 598.832031 -173.734375 623.113281 C -224.484375 640.457031 -262.503906 623.625 -299.472656 607.433594 C -328.023438 595.402344 -354.828125 583.574219 -385.9375 587.71875 C -466.644531 599.09375 -477.632812 661.03125 -487.328125 715.683594 C -491.851562 741.1875 -496.257812 765.320312 -507.007812 782.390625 L -505.292969 783.585938 C -494.074219 766.230469 -489.8125 741.863281 -485.054688 716.210938 C -475.300781 662.171875 -464.488281 600.992188 -385.242188 589.878906 C -354.742188 585.789062 -328.085938 597.382812 -299.855469 609.941406 C -262.738281 626.363281 -223.960938 643.375 -172.746094 625.738281 C -101.789062 601.3125 -51.871094 571.195312 -7.929688 544.476562 C 44.789062 512.613281 90.128906 485.023438 158.972656 472.289062 C 211.78125 462.410156 288.347656 429.308594 362.4375 397.421875 C 404.351562 379.421875 444.109375 362.113281 479.457031 349.171875 C 544.761719 325.027344 608.347656 299.6875 664.832031 264.507812 C 723.828125 227.117188 775.433594 179.417969 813.394531 111.375 Z M 818.996094 127.65625 C 833.898438 102.167969 844.726562 72.738281 855.144531 44.214844 C 874.132812 -7.476562 891.898438 -56.460938 932.539062 -82.746094 L 931.378906 -84.613281 C 890.179688 -57.65625 872.183594 -8.53125 853.105469 43.539062 C 842.6875 72.066406 832.09375 101.347656 817.046875 126.601562 C 726.347656 281.613281 573.492188 333.710938 437.597656 370.382812 C 380.730469 385.707031 329.144531 417.832031 279.050781 448.707031 C 234.46875 476.476562 192.308594 502.40625 153.265625 511.496094 C 90.246094 525.785156 38.851562 549.371094 -15.636719 574.234375 C -65.488281 597.179688 -117.121094 620.910156 -184.285156 641.023438 C -230.042969 654.9375 -266.429688 639.683594 -301.625 625.304688 C -330.03125 613.503906 -356.867188 602.667969 -386.605469 606.929688 C -463.203125 618.664062 -471.859375 681.742188 -479.75 737.214844 C -483.105469 761.992188 -486.492188 785.167969 -495.753906 800.980469 L -493.800781 802.035156 C -484.304688 786.074219 -481.210938 762.433594 -477.621094 737.511719 C -469.910156 682.796875 -461.046875 620.5625 -386.140625 609.234375 C -356.925781 604.652344 -330.328125 615.632812 -302.300781 627.34375 C -266.578125 642.042969 -229.957031 657.15625 -183.585938 643.183594 C -116.191406 622.921875 -64.558594 599.191406 -14.707031 576.246094 C 39.402344 551.296875 90.800781 527.710938 153.816406 513.417969 C 193.238281 504.421875 235.488281 478.109375 280.214844 450.578125 C 329.929688 419.613281 381.660156 387.71875 437.914062 372.453125 C 513.941406 352.003906 595.308594 326.605469 668.132812 281.25 C 726.019531 245.195312 778.644531 196.539062 818.996094 127.65625 Z M 824.601562 143.933594 C 841.636719 116.148438 852.785156 83.601562 863.527344 51.953125 C 881.148438 0.144531 898.066406 -48.632812 937.339844 -75.039062 L 936.175781 -76.90625 C 896.203125 -50.066406 879.429688 -1.054688 861.34375 51.046875 C 850.457031 82.457031 839.304688 115.007812 822.503906 142.648438 C 774.761719 220.996094 711.921875 279.257812 630.355469 320.980469 C 552.902344 360.46875 468.746094 379.824219 396.898438 393.460938 C 330.269531 406.113281 285.085938 448.515625 245.097656 485.738281 C 213.746094 514.984375 184.121094 542.835938 148.339844 552.480469 C 99.082031 565.980469 52.128906 581.613281 2.546875 598.230469 C -58.523438 618.765625 -121.519531 639.851562 -194.511719 658.414062 C -235.277344 668.894531 -270.125 655.597656 -303.457031 642.648438 C -331.894531 631.839844 -358.667969 621.617188 -387.128906 626.378906 C -459.46875 638.699219 -466.414062 705.574219 -471.878906 759.214844 C -474.359375 782.796875 -476.578125 805.242188 -484.117188 819.664062 L -482.3125 820.484375 C -474.683594 805.683594 -472.464844 783.238281 -469.898438 759.273438 C -463.988281 703.742188 -457.695312 640.511719 -386.429688 628.535156 C -358.585938 623.832031 -331.808594 634.058594 -303.75 644.777344 C -269.808594 657.667969 -234.816406 671.199219 -193.433594 660.660156 C -120.445312 642.097656 -57.449219 621.015625 3.625 600.480469 C 53.203125 583.859375 100.015625 567.992188 149.414062 554.726562 C 185.429688 544.9375 215.289062 516.941406 247.105469 487.402344 C 286.859375 450.328125 331.8125 408.070312 397.972656 395.707031 C 470.054688 381.925781 554.359375 362.804688 632.042969 323.171875 C 645.375 316.488281 658.035156 309.25 670.171875 301.691406 C 733.371094 261.683594 784.339844 209.84375 824.601562 143.933594 Z M 830.4375 160.070312 C 849.28125 130.507812 860.613281 94.605469 871.59375 60.21875 C 888.308594 8 904.089844 -41.042969 942.75 -67.390625 L 941.734375 -69.023438 C 902.605469 -42.386719 886.503906 7.179688 869.929688 59.632812 C 858.953125 94.019531 847.476562 129.6875 828.867188 159.105469 C 708.703125 348.996094 531.082031 395.128906 356.957031 416.714844 C 282.960938 425.855469 249.832031 475.65625 220.710938 519.398438 C 198.945312 552.074219 178.613281 582.886719 144.316406 593.875 C 42.503906 626.496094 -83.667969 652.253906 -203.746094 675.832031 C -239.523438 682.882812 -272.21875 671.484375 -303.773438 660.347656 C -332.53125 650.0625 -359.714844 640.742188 -387.039062 645.769531 C -455.738281 658.738281 -459.96875 726.839844 -463.339844 781.765625 C -464.742188 805.003906 -466.050781 825.265625 -471.871094 838.285156 L -470.066406 839.105469 C -464.15625 825.703125 -462.847656 805.441406 -461.359375 781.828125 C -457.785156 727.75 -453.726562 660.402344 -386.488281 647.691406 C -359.542969 642.578125 -332.824219 652.191406 -304.210938 662.242188 C -272.277344 673.464844 -239.441406 685.097656 -203.050781 677.992188 C -82.738281 654.265625 43.203125 628.65625 145.246094 595.890625 C 180.15625 584.84375 200.808594 553.507812 222.804688 520.683594 C 251.695312 477.089844 284.5 427.8125 357.65625 418.875 C 464.980469 405.507812 573.425781 383.015625 669.355469 323.265625 C 728.585938 285.730469 783.988281 233.722656 830.4375 160.070312 Z M 835.808594 176.492188 C 856.460938 145.15625 867.796875 106.660156 879.101562 69.15625 C 894.914062 16.527344 909.878906 -33.304688 947.695312 -59.449219 L 946.679688 -61.085938 C 908.160156 -34.503906 893.109375 15.707031 877.207031 68.714844 C 865.992188 105.839844 854.65625 144.335938 834.234375 175.527344 C 696.730469 385.945312 503.835938 427.328125 315.9375 440.320312 C 235.414062 445.746094 215.515625 502.214844 197.957031 552.042969 C 185.078125 588.582031 172.875 623.082031 139.214844 635.621094 C 66.652344 662.664062 -41.925781 674.542969 -137.789062 684.988281 C -164.816406 687.886719 -190.242188 690.753906 -213.914062 693.832031 C -244.179688 697.773438 -274.25 687.984375 -303.417969 678.601562 C -333.257812 668.664062 -361.375 659.925781 -387.792969 665.359375 C -452.703125 679.210938 -454.261719 752.128906 -455.441406 805.367188 C -455.882812 827.03125 -456.226562 845.71875 -460.46875 857.113281 L -458.429688 857.789062 C -454.101562 846.015625 -453.519531 827.179688 -453.226562 805.285156 C -451.898438 749.683594 -450.460938 680.730469 -387.242188 667.285156 C -361.203125 661.761719 -333.550781 670.792969 -304.003906 680.261719 C -274.835938 689.644531 -244.386719 699.523438 -213.511719 695.523438 C -189.835938 692.449219 -164.265625 689.808594 -137.382812 686.679688 C -41.285156 676.089844 67.523438 664.066406 140.089844 637.019531 C 174.59375 624.28125 186.972656 589.023438 199.9375 552.105469 C 218.082031 500.617188 237.046875 447.324219 316.199219 441.777344 C 435.730469 433.445312 557.523438 413.660156 665.59375 346.351562 C 727.828125 307.917969 785.359375 253.613281 835.808594 176.492188 Z M 841.644531 192.628906 C 863.875 159.660156 875.449219 118.425781 886.523438 78.46875 C 901.519531 25.050781 915.582031 -25.191406 953.019531 -51.421875 L 952 -53.058594 C 913.863281 -26.386719 899.859375 24.464844 884.628906 78.027344 C 873.40625 117.75 862.070312 158.839844 840.074219 191.664062 C 770.582031 294.902344 686.816406 365.867188 583.386719 408.894531 C 499.675781 443.53125 404.675781 460.566406 275.851562 463.339844 C 189.328125 465.375 182.832031 525.164062 176.632812 582.824219 C 172.320312 623.753906 168.15625 662.320312 134.671875 676.695312 C 67.699219 705.441406 -56.605469 707.671875 -156.246094 709.445312 C -180.910156 709.898438 -203.96875 710.324219 -223.910156 711.078125 C -248.515625 712.140625 -275.207031 704.132812 -300.996094 696.535156 C -332.613281 687.382812 -362.101562 678.527344 -388.316406 684.808594 C -449.816406 699.453125 -448.171875 774.914062 -447.199219 830.050781 C -446.730469 849.527344 -446.402344 866.175781 -449.070312 875.941406 L -447.175781 876.378906 C -444.421875 866.238281 -444.890625 849.355469 -445.128906 829.734375 C -446.277344 775.351562 -447.574219 700.972656 -387.910156 686.5 C -362.539062 680.421875 -332.816406 689.132812 -301.8125 698.34375 C -276.023438 705.941406 -249.101562 713.800781 -224.117188 712.824219 C -204.175781 712.074219 -181.117188 711.648438 -156.453125 711.195312 C -56.433594 709.507812 67.871094 707.277344 135.308594 678.242188 C 169.496094 663.429688 173.835938 624.105469 178.46875 582.652344 C 184.496094 525.75 190.960938 466.949219 275.648438 465.089844 C 404.9375 462.023438 500.082031 445.222656 584.027344 410.441406 C 611.621094 399.089844 637.902344 385.636719 662.878906 370.082031 C 731.734375 327.195312 790.703125 268.433594 841.644531 192.628906 Z M 847.484375 208.761719 C 871.289062 174.164062 882.863281 130.332031 893.941406 87.785156 C 907.894531 33.722656 921.371094 -17.453125 958.429688 -43.773438 L 957.414062 -45.410156 C 919.800781 -18.417969 906.464844 32.992188 892.046875 87.34375 C 881.058594 129.515625 869.628906 173.578125 845.910156 207.796875 C 769.148438 319.128906 677.917969 394.746094 567.226562 438.082031 C 477.160156 473.433594 371.753906 488.847656 235.300781 486.652344 C 204.488281 486.074219 183.140625 492.886719 169.566406 507.5 C 147.230469 531.457031 150.992188 572.867188 154.871094 612.90625 C 159.035156 658.601562 163.203125 701.703125 130.035156 718.148438 C 62.535156 751.761719 -103.582031 738.871094 -203.007812 731.117188 C -214.199219 730.308594 -224.78125 729.445312 -233.84375 728.933594 C -252.121094 727.675781 -272.78125 722.070312 -294.726562 715.964844 C -327.945312 706.839844 -362.300781 697.449219 -388.691406 704.488281 C -447.484375 720.359375 -441.765625 802.359375 -438.167969 856.511719 C -437.140625 872.726562 -436.199219 886.722656 -437.289062 894.855469 L -435.160156 895.148438 C -433.835938 886.871094 -434.925781 872.640625 -435.953125 856.429688 C -439.492188 802.890625 -444.863281 721.96875 -387.910156 706.265625 C -362.128906 699.285156 -327.773438 708.675781 -294.929688 717.714844 C -272.988281 723.820312 -252.328125 729.425781 -233.820312 730.535156 C -224.609375 731.28125 -214.171875 731.914062 -202.980469 732.71875 C -103.554688 740.476562 63.171875 753.308594 130.910156 719.546875 C 132.457031 718.910156 133.855469 718.039062 135.257812 717.164062 C 164.898438 698.703125 161.082031 656.679688 156.796875 612.355469 C 153.207031 572.78125 149.359375 531.75 171.136719 508.464844 C 184.160156 494.519531 205.273438 487.851562 235.328125 488.253906 C 372.160156 490.539062 477.796875 474.980469 568.101562 439.480469 C 600.152344 426.972656 630.464844 411.660156 659.40625 393.632812 C 730.507812 349.675781 792.6875 288.261719 847.484375 208.761719 Z M 134.078125 641.414062 C 122.882812 598.472656 111.285156 553.84375 130.792969 530.027344 C 142.207031 516.109375 162.769531 510.113281 194.164062 511.625 C 340.375 519.085938 453.96875 505.378906 551.472656 468.960938 C 669.597656 424.558594 768.355469 344.902344 852.941406 224.808594 C 878.46875 188.816406 889.667969 142.300781 900.515625 97.300781 C 913.886719 42.304688 926.316406 -9.511719 963.085938 -36.300781 L 961.835938 -37.792969 C 924.597656 -10.710938 911.847656 41.632812 898.625 96.859375 C 887.773438 141.859375 876.429688 188.140625 851.367188 223.84375 C 767.101562 343.414062 668.722656 423.15625 550.6875 467.179688 C 453.5625 503.6875 340.203125 517.25 194.222656 509.644531 C 162.070312 507.953125 141.046875 514.242188 129.304688 528.683594 C 109.246094 553.167969 120.902344 598.414062 132.152344 641.964844 C 145.113281 691.902344 157.324219 739.070312 126.28125 758.40625 C 125.8125 758.695312 125.34375 758.988281 124.878906 759.277344 C 96.289062 775.789062 33.867188 780.636719 -55.5 773.421875 C -124.085938 767.847656 -199.570312 755.875 -244.21875 746.085938 C -253.921875 744.03125 -265.34375 740.773438 -277.527344 737.339844 C -314.300781 727.1875 -360.460938 714.449219 -389.507812 723.46875 C -445.765625 741.328125 -434.378906 835.03125 -428.382812 885.746094 C -426.855469 898.082031 -425.703125 907.734375 -425.886719 913.679688 L -423.90625 913.742188 C -423.867188 907.5625 -425.019531 897.910156 -426.546875 885.574219 C -432.570312 835.847656 -443.753906 742.992188 -388.664062 725.859375 C -360.230469 716.898438 -314.449219 729.546875 -277.910156 739.847656 C -265.726562 743.28125 -254.304688 746.535156 -244.367188 748.449219 C -170.226562 764.5 56.898438 800.96875 125.953125 761.527344 C 126.421875 761.234375 126.886719 760.945312 127.355469 760.652344 C 159.652344 740.214844 146.78125 689.894531 134.078125 641.414062 Z M 121.496094 802.222656 C 155.226562 779.917969 132.769531 723.574219 111.011719 669.390625 C 92.445312 622.941406 73.242188 574.945312 91 550.921875 C 101.105469 537.496094 121.488281 532.257812 153.84375 534.792969 C 309.4375 547.429688 430.75 535.71875 535.3125 498.144531 C 660.78125 453.058594 766.542969 369.039062 858.777344 240.941406 C 885.648438 203.464844 896.851562 154.355469 907.472656 106.90625 C 920.023438 51.121094 931.875 -1.632812 968.265625 -28.507812 L 967.390625 -29.910156 C 930.300781 -2.597656 918.363281 50.535156 905.722656 106.699219 C 894.960938 153.914062 883.988281 202.878906 857.207031 239.976562 C 765.292969 367.550781 659.765625 451.425781 534.671875 496.601562 C 430.347656 534.027344 309.265625 545.59375 154.050781 533.042969 C 120.9375 530.332031 99.855469 536.007812 89.425781 549.957031 C 71.027344 575.027344 89.445312 621.246094 109.230469 670.175781 C 130.554688 723.660156 152.664062 778.921875 120.476562 800.585938 C 85.960938 823.703125 -9.761719 814.613281 -63.5625 807.289062 C -146.015625 796.089844 -223.09375 776.359375 -253.6875 763.652344 C -282.996094 751.441406 -354.621094 730.585938 -389.648438 743 C -446.289062 763.371094 -424.410156 878.082031 -416.1875 920.929688 C -415.261719 925.539062 -414.394531 929.535156 -414.019531 932.214844 L -411.949219 931.898438 C -412.46875 928.984375 -413.191406 925.21875 -414.121094 920.613281 C -422.195312 878 -443.8125 764.746094 -388.953125 745.160156 C -357.542969 733.699219 -291.507812 750.261719 -254.59375 765.835938 C -189.945312 792.660156 57.453125 842.433594 120.242188 803.328125 C 120.5625 802.800781 121.03125 802.511719 121.496094 802.222656 Z M 121.496094 802.222656 "/>
</clipPath>
<linearGradient id="linear0" gradientUnits="userSpaceOnUse" x1="151.899837" y1="117.318001" x2="606.519146" y2="117.318001" gradientTransform="matrix(2.334113,-1.453717,1.454355,2.335136,-631.245348,586.554825)">
<stop offset="0" style="stop-color:rgb(72.43042%,34.745789%,95.481873%);stop-opacity:1;"/>
<stop offset="0.015625" style="stop-color:rgb(72.573853%,34.898376%,95.375061%);stop-opacity:1;"/>
<stop offset="0.03125" style="stop-color:rgb(72.862244%,35.205078%,95.162964%);stop-opacity:1;"/>
<stop offset="0.046875" style="stop-color:rgb(73.149109%,35.513306%,94.950867%);stop-opacity:1;"/>
<stop offset="0.0625" style="stop-color:rgb(73.4375%,35.820007%,94.73877%);stop-opacity:1;"/>
<stop offset="0.078125" style="stop-color:rgb(73.724365%,36.126709%,94.526672%);stop-opacity:1;"/>
<stop offset="0.09375" style="stop-color:rgb(74.012756%,36.434937%,94.314575%);stop-opacity:1;"/>
<stop offset="0.109375" style="stop-color:rgb(74.299622%,36.741638%,94.102478%);stop-opacity:1;"/>
<stop offset="0.125" style="stop-color:rgb(74.588013%,37.04834%,93.890381%);stop-opacity:1;"/>
<stop offset="0.140625" style="stop-color:rgb(74.874878%,37.355042%,93.678284%);stop-opacity:1;"/>
<stop offset="0.15625" style="stop-color:rgb(75.163269%,37.663269%,93.467712%);stop-opacity:1;"/>
<stop offset="0.171875" style="stop-color:rgb(75.450134%,37.969971%,93.255615%);stop-opacity:1;"/>
<stop offset="0.1875" style="stop-color:rgb(75.738525%,38.276672%,93.043518%);stop-opacity:1;"/>
<stop offset="0.203125" style="stop-color:rgb(76.025391%,38.5849%,92.831421%);stop-opacity:1;"/>
<stop offset="0.21875" style="stop-color:rgb(76.313782%,38.891602%,92.619324%);stop-opacity:1;"/>
<stop offset="0.234375" style="stop-color:rgb(76.602173%,39.198303%,92.407227%);stop-opacity:1;"/>
<stop offset="0.25" style="stop-color:rgb(76.889038%,39.505005%,92.195129%);stop-opacity:1;"/>
<stop offset="0.265625" style="stop-color:rgb(77.177429%,39.813232%,91.983032%);stop-opacity:1;"/>
<stop offset="0.28125" style="stop-color:rgb(77.464294%,40.119934%,91.770935%);stop-opacity:1;"/>
<stop offset="0.296875" style="stop-color:rgb(77.752686%,40.426636%,91.558838%);stop-opacity:1;"/>
<stop offset="0.3125" style="stop-color:rgb(78.039551%,40.734863%,91.346741%);stop-opacity:1;"/>
<stop offset="0.328125" style="stop-color:rgb(78.327942%,41.041565%,91.134644%);stop-opacity:1;"/>
<stop offset="0.34375" style="stop-color:rgb(78.614807%,41.348267%,90.924072%);stop-opacity:1;"/>
<stop offset="0.359375" style="stop-color:rgb(78.903198%,41.654968%,90.711975%);stop-opacity:1;"/>
<stop offset="0.375" style="stop-color:rgb(79.190063%,41.963196%,90.499878%);stop-opacity:1;"/>
<stop offset="0.390625" style="stop-color:rgb(79.452515%,42.214966%,90.257263%);stop-opacity:1;"/>
<stop offset="0.394531" style="stop-color:rgb(79.478455%,42.051697%,89.871216%);stop-opacity:1;"/>
<stop offset="0.398438" style="stop-color:rgb(79.386902%,41.789246%,89.624023%);stop-opacity:1;"/>
<stop offset="0.402344" style="stop-color:rgb(79.293823%,41.525269%,89.375305%);stop-opacity:1;"/>
<stop offset="0.40625" style="stop-color:rgb(79.202271%,41.262817%,89.128113%);stop-opacity:1;"/>
<stop offset="0.410156" style="stop-color:rgb(79.110718%,40.99884%,88.879395%);stop-opacity:1;"/>
<stop offset="0.414063" style="stop-color:rgb(79.019165%,40.736389%,88.632202%);stop-opacity:1;"/>
<stop offset="0.417969" style="stop-color:rgb(78.927612%,40.472412%,88.383484%);stop-opacity:1;"/>
<stop offset="0.421875" style="stop-color:rgb(78.83606%,40.209961%,88.136292%);stop-opacity:1;"/>
<stop offset="0.425781" style="stop-color:rgb(78.744507%,39.94751%,87.887573%);stop-opacity:1;"/>
<stop offset="0.429688" style="stop-color:rgb(78.652954%,39.685059%,87.640381%);stop-opacity:1;"/>
<stop offset="0.433594" style="stop-color:rgb(78.561401%,39.421082%,87.393188%);stop-opacity:1;"/>
<stop offset="0.4375" style="stop-color:rgb(78.469849%,39.15863%,87.145996%);stop-opacity:1;"/>
<stop offset="0.441406" style="stop-color:rgb(78.378296%,38.894653%,86.897278%);stop-opacity:1;"/>
<stop offset="0.445313" style="stop-color:rgb(78.286743%,38.632202%,86.650085%);stop-opacity:1;"/>
<stop offset="0.449219" style="stop-color:rgb(78.19519%,38.368225%,86.401367%);stop-opacity:1;"/>
<stop offset="0.453125" style="stop-color:rgb(78.103638%,38.105774%,86.154175%);stop-opacity:1;"/>
<stop offset="0.457031" style="stop-color:rgb(78.010559%,37.843323%,85.905457%);stop-opacity:1;"/>
<stop offset="0.460938" style="stop-color:rgb(77.919006%,37.580872%,85.658264%);stop-opacity:1;"/>
<stop offset="0.464844" style="stop-color:rgb(77.827454%,37.316895%,85.409546%);stop-opacity:1;"/>
<stop offset="0.46875" style="stop-color:rgb(77.735901%,37.054443%,85.162354%);stop-opacity:1;"/>
<stop offset="0.472656" style="stop-color:rgb(77.644348%,36.790466%,84.913635%);stop-opacity:1;"/>
<stop offset="0.476563" style="stop-color:rgb(77.552795%,36.528015%,84.666443%);stop-opacity:1;"/>
<stop offset="0.480469" style="stop-color:rgb(77.461243%,36.265564%,84.41925%);stop-opacity:1;"/>
<stop offset="0.484375" style="stop-color:rgb(77.36969%,36.003113%,84.172058%);stop-opacity:1;"/>
<stop offset="0.488281" style="stop-color:rgb(77.278137%,35.739136%,83.92334%);stop-opacity:1;"/>
<stop offset="0.492188" style="stop-color:rgb(77.186584%,35.476685%,83.676147%);stop-opacity:1;"/>
<stop offset="0.496094" style="stop-color:rgb(77.095032%,35.212708%,83.427429%);stop-opacity:1;"/>
<stop offset="0.5" style="stop-color:rgb(77.003479%,34.950256%,83.180237%);stop-opacity:1;"/>
<stop offset="0.503906" style="stop-color:rgb(76.9104%,34.686279%,82.931519%);stop-opacity:1;"/>
<stop offset="0.507812" style="stop-color:rgb(76.818848%,34.423828%,82.684326%);stop-opacity:1;"/>
<stop offset="0.511719" style="stop-color:rgb(76.727295%,34.161377%,82.435608%);stop-opacity:1;"/>
<stop offset="0.515625" style="stop-color:rgb(76.635742%,33.898926%,82.188416%);stop-opacity:1;"/>
<stop offset="0.519531" style="stop-color:rgb(76.544189%,33.634949%,81.939697%);stop-opacity:1;"/>
<stop offset="0.523437" style="stop-color:rgb(76.452637%,33.372498%,81.692505%);stop-opacity:1;"/>
<stop offset="0.527344" style="stop-color:rgb(76.361084%,33.108521%,81.445312%);stop-opacity:1;"/>
<stop offset="0.53125" style="stop-color:rgb(76.269531%,32.846069%,81.19812%);stop-opacity:1;"/>
<stop offset="0.535156" style="stop-color:rgb(76.177979%,32.582092%,80.949402%);stop-opacity:1;"/>
<stop offset="0.539062" style="stop-color:rgb(76.086426%,32.319641%,80.702209%);stop-opacity:1;"/>
<stop offset="0.542969" style="stop-color:rgb(75.994873%,32.05719%,80.453491%);stop-opacity:1;"/>
<stop offset="0.546875" style="stop-color:rgb(75.90332%,31.794739%,80.206299%);stop-opacity:1;"/>
<stop offset="0.550781" style="stop-color:rgb(75.810242%,31.530762%,79.957581%);stop-opacity:1;"/>
<stop offset="0.554687" style="stop-color:rgb(75.718689%,31.268311%,79.710388%);stop-opacity:1;"/>
<stop offset="0.558594" style="stop-color:rgb(75.627136%,31.004333%,79.46167%);stop-opacity:1;"/>
<stop offset="0.5625" style="stop-color:rgb(75.535583%,30.741882%,79.214478%);stop-opacity:1;"/>
<stop offset="0.566406" style="stop-color:rgb(75.444031%,30.479431%,78.965759%);stop-opacity:1;"/>
<stop offset="0.570312" style="stop-color:rgb(75.352478%,30.21698%,78.718567%);stop-opacity:1;"/>
<stop offset="0.574219" style="stop-color:rgb(75.260925%,29.953003%,78.471375%);stop-opacity:1;"/>
<stop offset="0.578125" style="stop-color:rgb(75.169373%,29.690552%,78.224182%);stop-opacity:1;"/>
<stop offset="0.582031" style="stop-color:rgb(75.07782%,29.426575%,77.975464%);stop-opacity:1;"/>
<stop offset="0.585937" style="stop-color:rgb(74.986267%,29.164124%,77.728271%);stop-opacity:1;"/>
<stop offset="0.589844" style="stop-color:rgb(74.894714%,28.900146%,77.479553%);stop-opacity:1;"/>
<stop offset="0.59375" style="stop-color:rgb(74.803162%,28.637695%,77.232361%);stop-opacity:1;"/>
<stop offset="0.597656" style="stop-color:rgb(74.711609%,28.375244%,76.983643%);stop-opacity:1;"/>
<stop offset="0.601562" style="stop-color:rgb(74.620056%,28.112793%,76.73645%);stop-opacity:1;"/>
<stop offset="0.605469" style="stop-color:rgb(74.526978%,27.848816%,76.487732%);stop-opacity:1;"/>
<stop offset="0.609375" style="stop-color:rgb(74.435425%,27.586365%,76.24054%);stop-opacity:1;"/>
<stop offset="0.613281" style="stop-color:rgb(74.343872%,27.322388%,75.991821%);stop-opacity:1;"/>
<stop offset="0.617187" style="stop-color:rgb(74.252319%,27.059937%,75.744629%);stop-opacity:1;"/>
<stop offset="0.621094" style="stop-color:rgb(74.160767%,26.795959%,75.495911%);stop-opacity:1;"/>
<stop offset="0.625" style="stop-color:rgb(74.069214%,26.533508%,75.248718%);stop-opacity:1;"/>
<stop offset="0.628906" style="stop-color:rgb(73.977661%,26.271057%,75.001526%);stop-opacity:1;"/>
<stop offset="0.632812" style="stop-color:rgb(73.886108%,26.008606%,74.754333%);stop-opacity:1;"/>
<stop offset="0.636719" style="stop-color:rgb(73.794556%,25.744629%,74.505615%);stop-opacity:1;"/>
<stop offset="0.640625" style="stop-color:rgb(73.703003%,25.482178%,74.258423%);stop-opacity:1;"/>
<stop offset="0.644531" style="stop-color:rgb(73.61145%,25.218201%,74.009705%);stop-opacity:1;"/>
<stop offset="0.648437" style="stop-color:rgb(73.519897%,24.95575%,73.762512%);stop-opacity:1;"/>
<stop offset="0.652344" style="stop-color:rgb(73.426819%,24.691772%,73.513794%);stop-opacity:1;"/>
<stop offset="0.65625" style="stop-color:rgb(73.335266%,24.429321%,73.266602%);stop-opacity:1;"/>
<stop offset="0.660156" style="stop-color:rgb(73.243713%,24.16687%,73.017883%);stop-opacity:1;"/>
<stop offset="0.664062" style="stop-color:rgb(73.152161%,23.904419%,72.770691%);stop-opacity:1;"/>
<stop offset="0.667969" style="stop-color:rgb(73.060608%,23.640442%,72.521973%);stop-opacity:1;"/>
<stop offset="0.671875" style="stop-color:rgb(72.969055%,23.377991%,72.27478%);stop-opacity:1;"/>
<stop offset="0.675781" style="stop-color:rgb(72.877502%,23.114014%,72.027588%);stop-opacity:1;"/>
<stop offset="0.679687" style="stop-color:rgb(72.78595%,22.851562%,71.780396%);stop-opacity:1;"/>
<stop offset="0.683594" style="stop-color:rgb(72.694397%,22.589111%,71.531677%);stop-opacity:1;"/>
<stop offset="0.6875" style="stop-color:rgb(72.602844%,22.32666%,71.284485%);stop-opacity:1;"/>
<stop offset="0.691406" style="stop-color:rgb(72.511292%,22.062683%,71.035767%);stop-opacity:1;"/>
<stop offset="0.695312" style="stop-color:rgb(72.419739%,21.800232%,70.788574%);stop-opacity:1;"/>
<stop offset="0.699219" style="stop-color:rgb(72.32666%,21.536255%,70.539856%);stop-opacity:1;"/>
<stop offset="0.703125" style="stop-color:rgb(72.235107%,21.273804%,70.292664%);stop-opacity:1;"/>
<stop offset="0.707031" style="stop-color:rgb(72.143555%,21.009827%,70.043945%);stop-opacity:1;"/>
<stop offset="0.710937" style="stop-color:rgb(72.052002%,20.747375%,69.796753%);stop-opacity:1;"/>
<stop offset="0.714844" style="stop-color:rgb(71.960449%,20.484924%,69.548035%);stop-opacity:1;"/>
<stop offset="0.71875" style="stop-color:rgb(71.868896%,20.222473%,69.300842%);stop-opacity:1;"/>
<stop offset="0.722656" style="stop-color:rgb(71.777344%,19.958496%,69.05365%);stop-opacity:1;"/>
<stop offset="0.726562" style="stop-color:rgb(71.685791%,19.696045%,68.806458%);stop-opacity:1;"/>
<stop offset="0.730469" style="stop-color:rgb(71.594238%,19.432068%,68.557739%);stop-opacity:1;"/>
<stop offset="0.734375" style="stop-color:rgb(71.502686%,19.169617%,68.310547%);stop-opacity:1;"/>
<stop offset="0.738281" style="stop-color:rgb(71.411133%,18.90564%,68.061829%);stop-opacity:1;"/>
<stop offset="0.742187" style="stop-color:rgb(71.31958%,18.643188%,67.814636%);stop-opacity:1;"/>
<stop offset="0.746094" style="stop-color:rgb(71.228027%,18.380737%,67.565918%);stop-opacity:1;"/>
<stop offset="0.75" style="stop-color:rgb(71.136475%,18.118286%,67.318726%);stop-opacity:1;"/>
<stop offset="0.753906" style="stop-color:rgb(71.043396%,17.854309%,67.070007%);stop-opacity:1;"/>
<stop offset="0.757812" style="stop-color:rgb(70.951843%,17.591858%,66.822815%);stop-opacity:1;"/>
<stop offset="0.761719" style="stop-color:rgb(70.860291%,17.327881%,66.574097%);stop-opacity:1;"/>
<stop offset="0.765625" style="stop-color:rgb(70.768738%,17.06543%,66.326904%);stop-opacity:1;"/>
<stop offset="0.769531" style="stop-color:rgb(70.677185%,16.802979%,66.078186%);stop-opacity:1;"/>
<stop offset="0.773437" style="stop-color:rgb(70.585632%,16.540527%,65.830994%);stop-opacity:1;"/>
<stop offset="0.777344" style="stop-color:rgb(70.49408%,16.27655%,65.583801%);stop-opacity:1;"/>
<stop offset="0.78125" style="stop-color:rgb(70.402527%,16.014099%,65.336609%);stop-opacity:1;"/>
<stop offset="0.785156" style="stop-color:rgb(70.310974%,15.750122%,65.087891%);stop-opacity:1;"/>
<stop offset="0.789062" style="stop-color:rgb(70.219421%,15.487671%,64.840698%);stop-opacity:1;"/>
<stop offset="0.792969" style="stop-color:rgb(70.127869%,15.223694%,64.59198%);stop-opacity:1;"/>
<stop offset="0.796875" style="stop-color:rgb(70.036316%,14.961243%,64.344788%);stop-opacity:1;"/>
<stop offset="0.800781" style="stop-color:rgb(69.943237%,14.698792%,64.096069%);stop-opacity:1;"/>
<stop offset="0.804687" style="stop-color:rgb(69.851685%,14.43634%,63.848877%);stop-opacity:1;"/>
<stop offset="0.808594" style="stop-color:rgb(69.760132%,14.172363%,63.600159%);stop-opacity:1;"/>
<stop offset="0.8125" style="stop-color:rgb(69.668579%,13.909912%,63.352966%);stop-opacity:1;"/>
<stop offset="0.816406" style="stop-color:rgb(69.577026%,13.645935%,63.104248%);stop-opacity:1;"/>
<stop offset="0.820312" style="stop-color:rgb(69.485474%,13.383484%,62.857056%);stop-opacity:1;"/>
<stop offset="0.824219" style="stop-color:rgb(69.393921%,13.119507%,62.609863%);stop-opacity:1;"/>
<stop offset="0.828125" style="stop-color:rgb(69.302368%,12.857056%,62.362671%);stop-opacity:1;"/>
<stop offset="0.832031" style="stop-color:rgb(69.210815%,12.594604%,62.113953%);stop-opacity:1;"/>
<stop offset="0.835937" style="stop-color:rgb(69.119263%,12.332153%,61.86676%);stop-opacity:1;"/>
<stop offset="0.839844" style="stop-color:rgb(69.02771%,12.068176%,61.618042%);stop-opacity:1;"/>
<stop offset="0.84375" style="stop-color:rgb(68.936157%,11.805725%,61.37085%);stop-opacity:1;"/>
<stop offset="0.847656" style="stop-color:rgb(68.843079%,11.541748%,61.122131%);stop-opacity:1;"/>
<stop offset="0.851562" style="stop-color:rgb(68.751526%,11.279297%,60.874939%);stop-opacity:1;"/>
<stop offset="0.855469" style="stop-color:rgb(68.659973%,11.016846%,60.626221%);stop-opacity:1;"/>
<stop offset="0.859375" style="stop-color:rgb(68.56842%,10.754395%,60.379028%);stop-opacity:1;"/>
<stop offset="0.863281" style="stop-color:rgb(68.476868%,10.490417%,60.13031%);stop-opacity:1;"/>
<stop offset="0.867187" style="stop-color:rgb(68.385315%,10.227966%,59.883118%);stop-opacity:1;"/>
<stop offset="0.871094" style="stop-color:rgb(68.293762%,9.963989%,59.635925%);stop-opacity:1;"/>
<stop offset="0.875" style="stop-color:rgb(68.202209%,9.701538%,59.388733%);stop-opacity:1;"/>
<stop offset="0.878906" style="stop-color:rgb(68.110657%,9.437561%,59.140015%);stop-opacity:1;"/>
<stop offset="0.882812" style="stop-color:rgb(68.019104%,9.17511%,58.892822%);stop-opacity:1;"/>
<stop offset="0.886719" style="stop-color:rgb(67.927551%,8.912659%,58.644104%);stop-opacity:1;"/>
<stop offset="0.890625" style="stop-color:rgb(67.835999%,8.650208%,58.396912%);stop-opacity:1;"/>
<stop offset="0.894531" style="stop-color:rgb(67.744446%,8.38623%,58.148193%);stop-opacity:1;"/>
<stop offset="0.898438" style="stop-color:rgb(67.652893%,8.123779%,57.901001%);stop-opacity:1;"/>
<stop offset="0.902344" style="stop-color:rgb(67.559814%,7.859802%,57.652283%);stop-opacity:1;"/>
<stop offset="0.90625" style="stop-color:rgb(67.468262%,7.597351%,57.40509%);stop-opacity:1;"/>
<stop offset="0.910156" style="stop-color:rgb(67.376709%,7.333374%,57.156372%);stop-opacity:1;"/>
<stop offset="0.914062" style="stop-color:rgb(67.285156%,7.070923%,56.90918%);stop-opacity:1;"/>
<stop offset="0.917969" style="stop-color:rgb(67.193604%,6.808472%,56.661987%);stop-opacity:1;"/>
<stop offset="0.921875" style="stop-color:rgb(67.102051%,6.546021%,56.414795%);stop-opacity:1;"/>
<stop offset="0.925781" style="stop-color:rgb(67.010498%,6.282043%,56.166077%);stop-opacity:1;"/>
<stop offset="0.929688" style="stop-color:rgb(66.918945%,6.019592%,55.918884%);stop-opacity:1;"/>
<stop offset="0.933594" style="stop-color:rgb(66.827393%,5.755615%,55.670166%);stop-opacity:1;"/>
<stop offset="0.9375" style="stop-color:rgb(66.73584%,5.493164%,55.422974%);stop-opacity:1;"/>
<stop offset="0.941406" style="stop-color:rgb(66.644287%,5.230713%,55.174255%);stop-opacity:1;"/>
<stop offset="0.945312" style="stop-color:rgb(66.552734%,4.968262%,54.927063%);stop-opacity:1;"/>
<stop offset="0.949219" style="stop-color:rgb(66.459656%,4.704285%,54.678345%);stop-opacity:1;"/>
<stop offset="0.953125" style="stop-color:rgb(66.368103%,4.441833%,54.431152%);stop-opacity:1;"/>
<stop offset="0.957031" style="stop-color:rgb(66.27655%,4.177856%,54.182434%);stop-opacity:1;"/>
<stop offset="0.960938" style="stop-color:rgb(66.184998%,3.915405%,53.935242%);stop-opacity:1;"/>
<stop offset="0.964844" style="stop-color:rgb(66.093445%,3.651428%,53.686523%);stop-opacity:1;"/>
<stop offset="0.96875" style="stop-color:rgb(66.001892%,3.388977%,53.439331%);stop-opacity:1;"/>
<stop offset="0.972656" style="stop-color:rgb(65.910339%,3.126526%,53.192139%);stop-opacity:1;"/>
<stop offset="0.976562" style="stop-color:rgb(65.818787%,2.864075%,52.944946%);stop-opacity:1;"/>
<stop offset="0.980469" style="stop-color:rgb(65.727234%,2.600098%,52.696228%);stop-opacity:1;"/>
<stop offset="0.984375" style="stop-color:rgb(65.635681%,2.337646%,52.449036%);stop-opacity:1;"/>
<stop offset="0.988281" style="stop-color:rgb(65.544128%,2.073669%,52.200317%);stop-opacity:1;"/>
<stop offset="0.992188" style="stop-color:rgb(65.452576%,1.811218%,51.953125%);stop-opacity:1;"/>
<stop offset="0.996094" style="stop-color:rgb(65.359497%,1.547241%,51.704407%);stop-opacity:1;"/>
<stop offset="1" style="stop-color:rgb(65.267944%,1.28479%,51.457214%);stop-opacity:1;"/>
</linearGradient>
<clipPath id="clip5">
  <path d="M 0 0 L 920 0 L 920 528 L 0 528 Z M 0 0 "/>
</clipPath>
<clipPath id="clip6">
  <path d="M -286.210938 118.570312 L 841.953125 -603.582031 L 1104.371094 -193.628906 L -23.792969 528.523438 Z M -286.210938 118.570312 "/>
</clipPath>
<clipPath id="clip7">
  <path d="M -286.210938 118.570312 L 841.953125 -603.582031 L 1104.371094 -193.628906 L -23.792969 528.523438 Z M -286.210938 118.570312 "/>
</clipPath>
<clipPath id="clip8">
  <path d="M -74.152344 446.210938 L -75.792969 446.484375 C -97.140625 350.003906 -66.566406 234.285156 5.730469 137.210938 C 61.957031 61.566406 142.078125 -3.453125 257.460938 -67.207031 C 303.992188 -92.84375 352.488281 -116.632812 399.511719 -139.476562 C 448.675781 -163.429688 499.613281 -188.261719 548.230469 -215.496094 C 604.367188 -246.765625 675.328125 -290.890625 727.15625 -354.386719 C 782.570312 -421.996094 809.652344 -505.9375 836.078125 -586.863281 C 837.683594 -592.039062 839.476562 -597.335938 841.269531 -602.628906 L 842.894531 -602.113281 C 841.101562 -596.820312 839.492188 -591.644531 837.703125 -586.351562 C 811.210938 -505.121094 784.128906 -421.179688 728.648438 -353.269531 C 676.757812 -289.472656 605.492188 -245.410156 549.289062 -213.839844 C 500.671875 -186.605469 449.734375 -161.777344 400.570312 -137.820312 C 353.546875 -114.976562 305.050781 -91.191406 258.703125 -65.667969 C 143.503906 -2.035156 63.75 62.75 7.40625 138.210938 C -65.007812 235.101562 -95.449219 350.21875 -74.152344 446.210938 Z M -73.835938 382.773438 C -71.421875 360.238281 -67.019531 337.980469 -60.507812 316.1875 C -41.949219 251.699219 -13.609375 191.574219 21.492188 142.410156 C 77.578125 64.527344 160.445312 -5.105469 267.996094 -64.101562 C 275.699219 -68.253906 283.402344 -72.410156 291.40625 -76.496094 C 328.316406 -95.714844 366.824219 -112.851562 404.226562 -129.277344 C 434.128906 -142.457031 464.761719 -156.105469 494.507812 -170.738281 C 518.941406 -182.75 540.328125 -193.847656 559.527344 -204.324219 C 602.816406 -228.148438 636.390625 -250.15625 665.574219 -273.761719 C 691.617188 -294.578125 715.246094 -318.773438 735.886719 -345.203125 C 757.09375 -372.773438 775.90625 -405.292969 792.914062 -444.683594 C 808.140625 -479.570312 820.867188 -516.742188 833.148438 -552.59375 C 837.878906 -566.246094 842.671875 -580.203125 847.585938 -593.972656 L 845.960938 -594.488281 C 841.046875 -580.71875 836.253906 -566.761719 831.523438 -553.109375 C 807.148438 -481.527344 781.640625 -407.664062 734.511719 -346.136719 C 714.054688 -319.824219 690.492188 -295.933594 664.449219 -275.113281 C 635.449219 -251.625 601.875 -229.617188 558.769531 -205.914062 C 539.386719 -195.320312 518.183594 -184.339844 493.75 -172.328125 C 464.003906 -157.695312 433.371094 -144.042969 403.46875 -130.867188 C 366.066406 -114.4375 327.375 -97.1875 290.464844 -77.964844 C 282.644531 -73.996094 274.757812 -69.726562 267.054688 -65.574219 C 159.4375 -6.277344 76.269531 63.289062 20.117188 141.476562 C -15.167969 190.757812 -43.691406 251 -62.132812 315.671875 C -68.644531 337.464844 -73.113281 360.023438 -75.523438 382.558594 C -78.070312 405.699219 -76.980469 428.84375 -72.496094 451.628906 L -70.855469 451.359375 C -75.40625 428.875 -76.3125 405.609375 -73.835938 382.773438 Z M -67.027344 387.742188 C -62.84375 364.332031 -55.792969 342.972656 -48.652344 323.375 C -29.578125 270.214844 -2.667969 202.191406 35.945312 146.378906 C 92.089844 65.34375 175.734375 -7.117188 277.839844 -62.886719 C 285.542969 -67.039062 293.246094 -71.195312 301.066406 -75.164062 C 336.808594 -93.378906 374.851562 -108.398438 411.558594 -123.085938 C 442.53125 -135.394531 474.542969 -148.109375 505.074219 -162.730469 C 529.375 -174.136719 550.695312 -184.9375 570.261719 -195.644531 C 612.75 -218.699219 647.125 -241.476562 675.402344 -265.28125 C 700.914062 -286.535156 723.632812 -310.925781 743.253906 -337.738281 C 783.925781 -393.578125 807.042969 -459.433594 829.402344 -523.242188 C 836.621094 -543.933594 844.339844 -565.460938 852.226562 -586.316406 L 850.785156 -586.949219 C 842.714844 -565.972656 835.179688 -544.566406 827.960938 -523.875 C 805.484375 -460.25 782.550781 -394.511719 742.0625 -338.792969 C 722.628906 -312.097656 699.789062 -287.886719 674.460938 -266.753906 C 646.183594 -242.949219 611.808594 -220.167969 569.503906 -197.234375 C 549.9375 -186.523438 528.683594 -176.027344 504.5 -164.4375 C 474.152344 -149.933594 442.140625 -137.21875 411.167969 -124.910156 C 374.460938 -110.222656 336.417969 -95.199219 300.675781 -76.984375 C 292.855469 -73.015625 285.152344 -68.863281 277.449219 -64.710938 C 174.976562 -8.707031 91.148438 63.875 34.820312 145.023438 C -3.976562 200.957031 -30.769531 269.164062 -49.84375 322.320312 C -56.867188 342.105469 -63.917969 363.464844 -68.097656 386.875 C -72.691406 412.882812 -72.929688 435.578125 -68.769531 456.242188 L -67.128906 455.96875 C -71.722656 435.84375 -71.554688 413.449219 -67.027344 387.742188 Z M -60.035156 392.597656 C -54.1875 370.972656 -45.277344 350.5 -36.800781 330.558594 C -32.0625 319.75 -27.628906 308.878906 -22.574219 297.347656 C -1.316406 247.199219 20.339844 195.242188 50.398438 150.34375 C 107.285156 65.207031 189.371094 -8.070312 287.617188 -61.371094 C 295.320312 -65.523438 303.140625 -69.492188 310.960938 -73.460938 C 345.902344 -90.90625 383.917969 -104.355469 420.53125 -117.164062 C 452.210938 -128.371094 484.742188 -139.867188 515.507812 -154.117188 C 539.558594 -165.109375 560.933594 -175.421875 580.796875 -186.0625 C 623.15625 -208.511719 657.410156 -231.476562 685.21875 -256.015625 C 710.191406 -277.703125 732.195312 -302.410156 750.792969 -329.605469 C 785.683594 -380.710938 806.867188 -439.882812 827.167969 -497.191406 C 836.496094 -523.894531 846.320312 -551.4375 857.339844 -577.929688 L 855.898438 -578.558594 C 844.878906 -552.070312 835.054688 -524.527344 825.542969 -497.707031 C 805.425781 -440.511719 784.429688 -381.460938 749.414062 -330.539062 C 730.820312 -303.34375 709 -278.753906 684.214844 -257.183594 C 656.285156 -232.828125 622.214844 -209.984375 579.976562 -187.351562 C 560.292969 -176.824219 538.734375 -166.394531 514.867188 -155.523438 C 484.285156 -141.390625 451.570312 -129.777344 420.074219 -118.6875 C 383.578125 -105.691406 345.5625 -92.242188 310.320312 -74.867188 C 302.5 -70.898438 294.679688 -66.929688 286.976562 -62.777344 C 188.363281 -9.242188 106.09375 64.15625 49.140625 149.59375 C 19.199219 194.675781 -2.757812 246.566406 -23.898438 296.898438 C -28.648438 308.496094 -33.386719 319.300781 -38.125 330.109375 C -46.785156 350.167969 -55.695312 370.644531 -61.421875 392.449219 C -68.375 418.410156 -69.882812 441.144531 -65.90625 461.925781 L -64.265625 461.652344 C -68.242188 440.875 -66.921875 418.257812 -60.035156 392.597656 Z M -52.921875 397.636719 C -46.863281 380.796875 -38.894531 365.328125 -30.421875 349.023438 C -28.660156 345.300781 -26.59375 341.648438 -24.648438 337.8125 C -13.914062 316.945312 -4.121094 294.609375 6.300781 270.832031 C 23.671875 231.203125 41.796875 190.316406 64.851562 154.308594 C 121.425781 66.261719 203.992188 -9.914062 297.460938 -60.15625 C 305.164062 -64.308594 312.984375 -68.277344 320.738281 -71.945312 C 355.546875 -88.785156 393.535156 -100.660156 430.484375 -112.132812 C 462.203125 -122.070312 495.257812 -132.34375 525.824219 -145.691406 C 550.660156 -156.664062 572.152344 -166.792969 591.21875 -176.664062 C 633.507812 -198.8125 667.464844 -221.84375 695.039062 -246.75 C 719.289062 -268.753906 740.636719 -294.078125 758.210938 -321.65625 C 788.613281 -368.847656 807.519531 -422.675781 825.726562 -474.757812 C 836.898438 -506.269531 848.332031 -538.988281 862.214844 -569.90625 L 860.773438 -570.539062 C 846.890625 -539.621094 835.339844 -507.085938 824.285156 -475.390625 C 805.960938 -423.492188 787.054688 -369.664062 757.019531 -322.707031 C 739.445312 -295.132812 718.164062 -270.105469 694.097656 -248.21875 C 666.707031 -223.429688 632.933594 -200.519531 590.644531 -178.371094 C 571.578125 -168.5 550.203125 -158.1875 525.367188 -147.214844 C 494.800781 -133.867188 461.929688 -123.710938 430.027344 -113.65625 C 393.078125 -102.183594 355.089844 -90.308594 320.097656 -73.351562 C 312.34375 -69.683594 304.339844 -65.597656 296.820312 -61.5625 C 203.167969 -11.203125 120.355469 65.394531 63.59375 153.558594 C 40.539062 189.566406 22.417969 230.453125 4.859375 270.199219 C -5.679688 293.792969 -15.472656 316.128906 -26.089844 337.179688 C -28.035156 341.015625 -29.984375 344.855469 -31.863281 348.390625 C -40.332031 364.695312 -48.1875 380.351562 -54.546875 397.121094 C -63.976562 422.851562 -66.574219 445.507812 -62.546875 466.773438 L -60.90625 466.5 C -64.882812 445.71875 -62.289062 423.066406 -52.921875 397.636719 Z M -46.296875 402.722656 C -39.929688 388.800781 -31.949219 376.175781 -23.773438 362.648438 C -20.339844 357.082031 -16.660156 351.097656 -13.164062 345.230469 C 2.207031 319.066406 15.089844 289.824219 28.976562 258.910156 C 44.003906 224.925781 59.601562 189.804688 78.871094 158.808594 C 135.820312 66.894531 216.828125 -10.097656 306.871094 -58.40625 C 314.207031 -62.324219 321.84375 -66.175781 330.265625 -70.011719 C 364.757812 -86.128906 402.71875 -96.433594 439.453125 -106.214844 C 471.695312 -114.929688 505.269531 -123.980469 535.890625 -136.84375 C 561.449219 -147.5 582.203125 -157.160156 601.269531 -167.03125 C 643.496094 -188.878906 677.265625 -211.789062 704.367188 -237.433594 C 728.082031 -259.867188 748.527344 -285.394531 765.261719 -313.472656 C 791.609375 -357.289062 808.738281 -406.609375 825.234375 -454.488281 C 837.511719 -490.335938 850.171875 -527.210938 866.84375 -561.464844 L 865.402344 -562.097656 C 848.734375 -527.84375 836.1875 -490.785156 823.609375 -455.003906 C 807.296875 -407.242188 790.167969 -357.921875 763.886719 -314.40625 C 747.335938 -286.445312 726.890625 -260.921875 703.242188 -238.785156 C 676.324219 -213.261719 642.738281 -190.464844 600.695312 -168.738281 C 581.628906 -158.867188 560.757812 -149.390625 535.316406 -138.550781 C 504.695312 -125.6875 471.304688 -116.753906 439.066406 -108.035156 C 402.144531 -98.136719 364.183594 -87.835938 329.507812 -71.597656 C 321.085938 -67.761719 313.449219 -63.910156 306.113281 -59.992188 C 215.769531 -11.75 134.511719 65.660156 77.679688 157.757812 C 58.34375 189.054688 42.746094 224.175781 27.71875 258.160156 C 14.136719 289.140625 1.066406 318.5 -14.238281 344.363281 C -17.800781 350.53125 -21.414062 356.214844 -24.847656 361.78125 C -33.140625 375.125 -41.003906 387.929688 -47.554688 401.972656 C -59.28125 427.363281 -63.027344 450.234375 -59.367188 471.734375 L -57.730469 471.464844 C -61.640625 450.382812 -57.773438 427.691406 -46.296875 402.722656 Z M -39.304688 407.578125 C -32.613281 395.777344 -24.792969 385.332031 -16.660156 374.164062 C -11.507812 367.238281 -6.292969 360.011719 -1.128906 352.300781 C 18.535156 323.125 33.445312 288.960938 49.488281 252.515625 C 62.824219 221.953125 76.65625 190.550781 93.390625 162.472656 C 150.347656 66.925781 229.675781 -11.066406 316.714844 -57.191406 C 324.234375 -61.226562 332.171875 -65.011719 339.925781 -68.679688 C 373.984375 -84.261719 412.214844 -92.925781 449.109375 -101.25 C 481.871094 -108.742188 515.601562 -116.339844 546.273438 -128.71875 C 572.25 -139.125 593.125 -148.597656 611.9375 -158.050781 C 654.214844 -179.414062 687.75 -202.691406 714.25 -228.46875 C 737.429688 -251.339844 757.035156 -277.363281 772.75 -305.824219 C 795.589844 -346.621094 810.886719 -391.917969 825.4375 -435.957031 C 838.691406 -475.542969 852.28125 -516.636719 871.601562 -553.625 L 870.042969 -554.441406 C 850.65625 -517.152344 836.949219 -476.242188 823.8125 -436.472656 C 809.144531 -392.617188 794.148438 -347.253906 771.375 -306.757812 C 755.84375 -278.414062 736.121094 -252.574219 713.125 -229.820312 C 686.746094 -203.863281 653.273438 -180.882812 611.179688 -159.640625 C 592.367188 -150.1875 571.675781 -140.832031 545.699219 -130.425781 C 515.027344 -118.046875 481.296875 -110.449219 448.71875 -103.074219 C 411.640625 -94.628906 373.410156 -85.96875 339.167969 -70.265625 C 331.296875 -66.785156 323.476562 -62.8125 315.773438 -58.660156 C 228.550781 -12.417969 148.972656 65.992188 91.832031 161.65625 C 74.914062 189.851562 61.199219 221.4375 47.867188 252 C 32.007812 288.328125 17.09375 322.492188 -2.503906 351.363281 C -7.667969 359.078125 -12.882812 366.304688 -18.035156 373.230469 C -26.167969 384.398438 -33.988281 394.84375 -40.679688 406.644531 C -54.75 431.199219 -59.902344 454.714844 -56.191406 476.699219 L -54.550781 476.425781 C -58.09375 455.109375 -53.007812 431.898438 -39.304688 407.578125 Z M -32.378906 412.734375 C -25.347656 402.273438 -17.375 393.28125 -8.902344 383.453125 C -2.347656 375.886719 4.390625 368.203125 10.84375 359.667969 C 34.347656 328.8125 50.605469 290.675781 68.175781 250.144531 C 80.195312 221.976562 92.894531 192.855469 107.777344 166.742188 C 164.742188 67.5625 242.511719 -11.246094 326.492188 -55.675781 C 333.828125 -59.589844 341.582031 -63.257812 349.820312 -66.980469 C 383.75 -81.957031 421.949219 -89.046875 459.179688 -96.035156 C 492.28125 -102.191406 526.351562 -108.449219 556.890625 -120.222656 C 582.617188 -130.210938 603.542969 -139.199219 622.542969 -148.769531 C 665.121094 -170.066406 698.472656 -193.230469 724.132812 -219.503906 C 746.59375 -242.691406 765.476562 -269.03125 780.167969 -297.875 C 800.054688 -336.003906 813.539062 -378.066406 826.507812 -418.503906 C 840.191406 -461.46875 854.386719 -506.0625 876.292969 -545.484375 L 874.734375 -546.300781 C 852.644531 -506.761719 838.449219 -462.167969 824.582031 -419.085938 C 811.730469 -378.460938 798.3125 -336.703125 778.425781 -298.574219 C 763.800781 -270.03125 744.914062 -243.691406 722.640625 -220.621094 C 696.980469 -194.347656 663.996094 -171.417969 621.417969 -150.125 C 602.417969 -140.554688 581.492188 -131.566406 555.949219 -121.695312 C 525.410156 -109.921875 491.339844 -103.660156 458.421875 -97.621094 C 421.191406 -90.636719 382.6875 -83.613281 348.761719 -68.632812 C 340.523438 -64.914062 332.769531 -61.246094 325.433594 -57.328125 C 241.152344 -12.96875 163.433594 66.324219 106.101562 165.742188 C 91.035156 191.972656 78.515625 220.976562 66.316406 249.261719 C 48.929688 289.675781 32.671875 327.8125 9.234375 358.367188 C 2.78125 366.902344 -3.957031 374.585938 -10.511719 382.148438 C -18.984375 391.980469 -26.957031 400.96875 -33.988281 411.433594 C -45.1875 427.929688 -57.765625 453.605469 -53.316406 481.597656 L -51.675781 481.324219 C -55.65625 454.066406 -43.511719 428.929688 -32.378906 412.734375 Z M -25.570312 417.707031 C -18.132812 408.28125 -9.875 400.140625 -0.878906 391.535156 C 6.949219 383.933594 15.023438 375.910156 22.695312 366.855469 C 49.914062 334.917969 68.328125 291.253906 85.929688 249.148438 C 96.945312 222.65625 108.464844 195.328125 122.234375 170.707031 C 179.132812 68.195312 255.113281 -11.796875 336.152344 -54.339844 C 343.789062 -58.191406 351.542969 -61.859375 359.414062 -65.34375 C 392.910156 -79.789062 431.566406 -85.355469 468.886719 -90.585938 C 502.140625 -95.285156 536.734375 -100.324219 567.140625 -111.496094 C 589.441406 -119.550781 611.523438 -128.757812 632.894531 -139.070312 C 675.34375 -159.761719 708.207031 -182.875 733.765625 -210.121094 C 755.6875 -233.742188 773.851562 -260.398438 787.523438 -289.625 C 804.824219 -325.316406 816.859375 -364.382812 828.144531 -402.1875 C 842.1875 -448.234375 856.441406 -495.972656 881.039062 -536.859375 L 879.664062 -537.792969 C 855.183594 -496.726562 840.746094 -448.867188 826.703125 -402.820312 C 815.300781 -365.199219 803.382812 -325.949219 786.148438 -290.558594 C 772.542969 -261.632812 754.496094 -234.792969 732.640625 -211.472656 C 707.332031 -184.648438 674.46875 -161.535156 632.320312 -140.777344 C 610.949219 -130.464844 588.867188 -121.253906 566.566406 -113.199219 C 536.160156 -102.027344 501.75 -97.109375 468.613281 -92.222656 C 431.109375 -86.878906 392.453125 -81.308594 358.773438 -66.75 C 350.902344 -63.265625 343.148438 -59.597656 335.328125 -55.628906 C 253.988281 -13.148438 177.640625 67.078125 120.492188 170.007812 C 106.839844 194.8125 95.320312 222.140625 84.304688 248.632812 C 66.703125 290.738281 48.472656 334.285156 21.320312 365.921875 C 13.648438 374.976562 5.636719 382.695312 -2.070312 390.480469 C -10.765625 399.15625 -19.207031 407.414062 -26.945312 416.769531 C -50.238281 445.9375 -52.273438 471.082031 -49.601562 486.992188 L -47.960938 486.722656 C -52.527344 458.546875 -38.210938 433.570312 -25.570312 417.707031 Z M -18.578125 422.558594 C -10.554688 414.054688 -1.824219 406.652344 7.277344 399.011719 C 16.375 391.375 25.839844 383.5 34.546875 374.039062 C 65.53125 341.507812 84.605469 294.828125 103.117188 249.289062 C 113.382812 224.054688 123.96875 198.101562 136.570312 174.488281 C 209.152344 38.613281 290.570312 -24.386719 345.996094 -53.125 C 353.632812 -56.976562 361.386719 -60.644531 369.191406 -63.828125 C 402.554688 -77.667969 441.367188 -81.78125 478.839844 -85.554688 C 512.316406 -89.097656 547.066406 -92.683594 577.523438 -103.367188 C 599.875 -110.9375 622.074219 -119.964844 643.265625 -130.160156 C 685.644531 -150.546875 718.394531 -173.84375 743.347656 -201.222656 C 763.734375 -223.601562 780.558594 -249.921875 794.707031 -282.042969 C 809.789062 -315.539062 820.140625 -351.96875 830.230469 -387.195312 C 844.261719 -436.089844 858.691406 -486.789062 885.679688 -529.203125 L 884.304688 -530.136719 C 857.132812 -487.605469 842.703125 -436.90625 828.605469 -387.710938 C 818.515625 -352.484375 808.164062 -316.054688 793.265625 -282.675781 C 779 -250.738281 762.359375 -224.535156 742.15625 -202.273438 C 717.203125 -174.894531 684.636719 -151.71875 642.441406 -131.445312 C 621.132812 -121.433594 598.933594 -112.410156 576.699219 -104.65625 C 546.425781 -94.085938 511.675781 -90.503906 478.203125 -86.957031 C 440.542969 -83.066406 401.429688 -79.023438 368 -64.878906 C 360.011719 -61.582031 352.257812 -57.914062 344.621094 -54.0625 C 243.726562 -1.660156 174.753906 98.988281 134.578125 174.207031 C 121.976562 197.824219 111.390625 223.777344 101.125 249.007812 C 82.863281 294.128906 63.789062 340.808594 32.988281 373.222656 C 24.164062 382.5 14.699219 390.375 5.902344 398.078125 C -3.382812 405.835938 -11.929688 413.121094 -20.136719 421.742188 C -32.113281 434.59375 -51.417969 460.683594 -46.976562 492.308594 L -45.335938 492.039062 C -49.242188 460.847656 -30.1875 435.175781 -18.578125 422.558594 Z M -11.585938 427.414062 C -3.023438 419.339844 6.175781 412.671875 15.746094 405.769531 C 26.050781 398.398438 36.605469 390.605469 46.582031 381.109375 C 81.261719 348.28125 100.882812 298.40625 119.921875 250.453125 C 129.507812 226.175781 139.222656 201.296875 151.023438 178.453125 C 190.878906 101.109375 258.738281 -1.679688 355.65625 -51.792969 C 362.804688 -55.59375 370.679688 -59.078125 378.851562 -62.496094 C 411.78125 -75.800781 450.867188 -78.269531 488.679688 -80.707031 C 522.492188 -82.914062 557.578125 -85.160156 587.90625 -95.242188 C 610.375 -102.628906 632.625 -111.167969 653.933594 -121.179688 C 696.363281 -141.082031 728.996094 -164.5625 753.296875 -192.558594 C 772.894531 -214.953125 789.066406 -241.890625 802.375 -274.511719 C 815.304688 -306.109375 824.527344 -340.261719 833.300781 -373.09375 C 847.140625 -424.714844 861.195312 -478.027344 890.921875 -521.417969 L 889.546875 -522.351562 C 859.9375 -478.777344 845.515625 -425.226562 831.792969 -373.421875 C 823.019531 -340.59375 813.796875 -306.441406 800.871094 -274.84375 C 787.742188 -242.339844 771.636719 -215.703125 752.039062 -193.308594 C 727.738281 -165.3125 695.359375 -142.253906 653.226562 -122.28125 C 631.800781 -112.453125 609.671875 -103.730469 587.382812 -96.460938 C 557.242188 -86.496094 522.273438 -84.070312 488.640625 -81.976562 C 450.828125 -79.542969 411.558594 -76.953125 378.328125 -63.71875 C 370.15625 -60.300781 362.285156 -56.816406 354.949219 -52.898438 C 257.546875 -2.730469 189.4375 100.476562 149.515625 178.121094 C 137.898438 200.847656 128 225.84375 118.414062 250.121094 C 99.558594 297.957031 80.003906 347.53125 45.511719 380.238281 C 35.53125 389.738281 25.042969 397.226562 14.855469 404.785156 C 5.105469 411.804688 -3.914062 418.355469 -12.660156 426.546875 C -23.375 436.515625 -47.894531 463.355469 -43.195312 497.40625 L -41.554688 497.132812 C -46.207031 463.566406 -22.117188 437.265625 -11.585938 427.414062 Z M -4.84375 432.6875 C 4.371094 425.230469 13.925781 419.117188 24.152344 412.832031 C 35.542969 405.539062 47.417969 398.195312 58.304688 388.894531 C 96.796875 355.960938 116.710938 303.304688 136.042969 252.574219 C 144.945312 229.253906 154.164062 205.210938 164.976562 183.257812 C 222.492188 67.136719 289.722656 -11.144531 365 -49.742188 C 372.636719 -53.59375 380.324219 -56.960938 388.3125 -60.257812 C 421.109375 -72.960938 460.351562 -73.976562 498.5 -75.074219 C 532.65625 -75.941406 567.894531 -76.730469 598.089844 -86.210938 C 620.613281 -93.113281 642.863281 -101.652344 664.222656 -111.175781 C 706.769531 -130.898438 738.917969 -154.328125 762.863281 -182.875 C 781.675781 -205.28125 796.941406 -232.417969 809.664062 -265.960938 C 820.925781 -295.714844 828.898438 -327.769531 836.488281 -358.804688 C 849.769531 -412.917969 863.5625 -468.65625 895.484375 -512.671875 L 894.109375 -513.609375 C 861.9375 -469.171875 848.078125 -413.132812 834.796875 -359.019531 C 827.207031 -327.984375 819.417969 -296.042969 808.15625 -266.289062 C 795.804688 -232.984375 780.535156 -205.847656 761.789062 -183.742188 C 738.027344 -155.3125 705.945312 -132.183594 663.582031 -112.582031 C 642.339844 -102.871094 619.972656 -94.515625 597.632812 -87.734375 C 567.621094 -78.371094 532.5 -77.398438 498.53125 -76.644531 C 460.261719 -75.734375 421.019531 -74.71875 387.855469 -61.78125 C 379.933594 -58.78125 371.996094 -54.996094 364.542969 -51.265625 C 289.082031 -12.550781 221.484375 65.96875 163.902344 182.390625 C 152.90625 204.460938 143.804688 228.6875 134.902344 252.007812 C 115.570312 302.738281 95.726562 355.09375 57.597656 387.792969 C 46.714844 397.09375 34.953125 404.621094 23.628906 411.609375 C 13.890625 417.84375 3.667969 424.128906 -5.550781 431.582031 C -30.308594 451.578125 -42.898438 478.039062 -39.714844 502.4375 L -38.078125 502.164062 C -41.511719 478.1875 -29.050781 452.328125 -4.84375 432.6875 Z M 2.148438 437.539062 C 11.902344 430.519531 22.480469 424.785156 32.871094 419.171875 C 45.402344 412.445312 58.367188 405.183594 70.339844 395.964844 C 112.28125 363.15625 132.605469 307.902344 152.347656 254.578125 C 160.632812 231.910156 169.417969 208.402344 179.613281 187.105469 C 236.582031 67.707031 302.4375 -11.511719 375.144531 -48.460938 C 382.597656 -52.195312 390.46875 -55.679688 398.390625 -58.675781 C 430.9375 -70.957031 470.453125 -70.335938 508.875 -69.792969 C 543.367188 -69.324219 578.945312 -68.773438 609.011719 -77.652344 C 631.582031 -84.066406 653.765625 -92.304688 675.308594 -101.949219 C 717.242188 -121.015625 750.1875 -145.214844 773.351562 -173.777344 C 791.558594 -196.316406 805.988281 -223.953125 817.753906 -258.179688 C 827.410156 -286.390625 834.320312 -316.46875 840.726562 -345.710938 C 853.382812 -402.015625 866.617188 -460.246094 901.027344 -504.820312 L 899.652344 -505.753906 C 864.992188 -460.761719 851.757812 -402.527344 839.035156 -345.921875 C 832.511719 -316.867188 825.71875 -286.601562 816.128906 -258.691406 C 804.546875 -224.585938 790 -197.132812 772.160156 -174.828125 C 749.363281 -146.5 716.601562 -122.417969 674.851562 -103.46875 C 653.492188 -93.945312 631.308594 -85.707031 608.738281 -79.289062 C 578.859375 -70.53125 543.394531 -70.894531 509.089844 -71.484375 C 470.664062 -72.027344 430.96875 -72.53125 398.121094 -60.316406 C 390.195312 -57.316406 382.324219 -53.835938 374.6875 -49.984375 C 301.613281 -12.796875 235.691406 66.71875 178.539062 186.238281 C 168.277344 207.835938 159.675781 231.226562 151.207031 254.011719 C 131.53125 307.035156 111.273438 361.984375 69.699219 394.558594 C 57.84375 403.960938 44.945312 410.921875 32.414062 417.648438 C 22.023438 423.265625 11.261719 429.117188 1.507812 436.136719 C -38.421875 464.804688 -37.570312 497.695312 -36.472656 507.097656 L -34.835938 506.828125 C -36.300781 497.65625 -37.164062 465.554688 2.148438 437.539062 Z M 8.589844 442.746094 C 8.773438 442.628906 8.957031 442.511719 9.140625 442.394531 C 19.429688 435.808594 30.847656 430.574219 41.773438 425.390625 C 55.511719 418.929688 69.617188 412.234375 82.375 403.03125 C 128.066406 370.414062 148.617188 312.683594 168.585938 256.878906 C 176.4375 234.75 184.605469 211.898438 194.25 190.953125 C 251.1875 66.648438 313.75 -11.234375 384.988281 -47.246094 C 392.441406 -50.980469 400.3125 -54.464844 408.351562 -57.277344 C 440.648438 -69.140625 480.617188 -66.996094 519.199219 -64.996094 C 553.84375 -63.070312 589.460938 -61.25 619.574219 -69.640625 C 642.082031 -75.753906 664.5 -83.625 685.976562 -92.96875 C 728.144531 -111.667969 760.792969 -135.933594 783.113281 -164.996094 C 800.722656 -187.667969 814.113281 -214.902344 825.054688 -250.414062 C 833.292969 -277.199219 839.019531 -305.484375 844.730469 -332.980469 C 856.640625 -391.660156 868.949219 -452.148438 905.785156 -496.980469 L 904.597656 -498.03125 C 867.507812 -452.78125 855.015625 -392.175781 843.222656 -333.3125 C 837.695312 -305.929688 831.789062 -277.527344 823.730469 -250.863281 C 812.789062 -215.347656 799.464844 -188.417969 782.042969 -165.863281 C 759.785156 -137.101562 727.320312 -112.953125 685.457031 -94.1875 C 663.980469 -84.847656 641.863281 -76.910156 619.238281 -70.980469 C 589.488281 -62.824219 553.875 -64.644531 519.527344 -66.503906 C 480.832031 -68.6875 440.679688 -70.714844 408.199219 -58.734375 C 400.15625 -55.917969 392.285156 -52.433594 384.648438 -48.582031 C 312.929688 -12.523438 250.300781 65.664062 193.109375 190.386719 C 183.464844 211.332031 175.417969 234.367188 167.382812 256.617188 C 147.476562 312.117188 126.992188 369.546875 81.972656 401.996094 C 69.210938 411.199219 55.109375 417.894531 41.554688 424.238281 C 30.625 429.417969 19.328125 434.835938 8.738281 441.355469 C 8.554688 441.476562 8.371094 441.59375 8.1875 441.710938 C -14.230469 456.058594 -36.679688 482.089844 -33.0625 512.429688 L -31.421875 512.15625 C -35.472656 482.355469 -13.457031 456.859375 8.589844 442.746094 Z M 15.949219 447.367188 C 26.960938 441.09375 39.09375 436.179688 50.746094 431.3125 C 65.320312 425.351562 80.449219 419.039062 94.226562 410.21875 C 143.484375 377.910156 164.261719 317.703125 184.273438 259.539062 C 191.691406 237.945312 199.425781 215.628906 208.519531 195.035156 C 244.515625 113.683594 302.707031 0.238281 394.765625 -45.730469 C 402.21875 -49.464844 410.089844 -52.949219 417.945312 -55.644531 C 450.113281 -66.902344 490.234375 -63.300781 528.785156 -59.730469 C 563.769531 -56.46875 599.726562 -53.308594 629.523438 -60.980469 C 652.265625 -66.726562 674.621094 -74.292969 696.03125 -83.335938 C 738.132812 -101.730469 770.476562 -126.066406 792.5625 -155.496094 C 809.515625 -178.785156 822.1875 -206.332031 831.988281 -242.410156 C 838.996094 -267.886719 843.902344 -294.613281 848.496094 -320.621094 C 859.417969 -381.257812 870.730469 -443.703125 909.996094 -488.789062 L 908.804688 -489.839844 C 869.171875 -444.519531 857.792969 -381.769531 846.992188 -320.953125 C 842.398438 -294.945312 837.488281 -268.21875 830.363281 -242.925781 C 820.445312 -207.03125 807.957031 -179.601562 791.070312 -156.613281 C 769.167969 -127.300781 736.890625 -103.269531 695.273438 -84.921875 C 673.980469 -75.699219 651.628906 -68.128906 629.070312 -62.5 C 599.570312 -54.761719 563.5 -58.105469 528.816406 -61.304688 C 489.777344 -64.824219 449.539062 -68.609375 417.1875 -57.234375 C 409.148438 -54.417969 401.460938 -51.050781 393.824219 -47.199219 C 301.398438 -0.996094 242.957031 112.867188 206.894531 194.519531 C 197.800781 215.113281 190.066406 237.429688 182.585938 259.324219 C 162.636719 317.1875 141.925781 377.09375 93.15625 409.347656 C 79.675781 418.238281 64.429688 424.367188 49.855469 430.328125 C 38.207031 435.191406 26.070312 440.109375 14.878906 446.496094 C -8.363281 459.558594 -34.089844 486.136719 -30.433594 517.746094 L -28.796875 517.472656 C -32.214844 486.230469 -6.804688 460.375 15.949219 447.367188 Z M 22.757812 452.335938 C 34.488281 446.382812 47.160156 441.898438 59.464844 437.652344 C 75.0625 432.074219 91.328125 426.328125 106.082031 417.402344 C 158.902344 385.40625 179.722656 322.835938 199.964844 262.195312 C 207.132812 241.019531 214.3125 219.058594 222.855469 198.816406 C 261.132812 108.488281 316.410156 -1.015625 404.308594 -44.582031 C 411.757812 -48.316406 419.566406 -51.496094 427.421875 -54.195312 C 459.152344 -64.917969 499.550781 -59.675781 538.4375 -54.765625 C 573.644531 -50.347656 610.054688 -45.664062 639.722656 -52.734375 C 662.515625 -57.996094 684.804688 -65.265625 706.398438 -74.421875 C 748.617188 -92.636719 780.777344 -116.851562 802.210938 -146.898438 C 818.613281 -169.835938 830.445312 -197.882812 839.476562 -234.765625 C 845.363281 -258.746094 849.40625 -284.402344 853.183594 -308.847656 C 863.109375 -371.441406 873.316406 -436.023438 915.054688 -480.882812 L 913.863281 -481.9375 C 871.875 -436.65625 861.601562 -371.769531 851.792969 -308.996094 C 847.832031 -284.429688 843.855469 -259.078125 838.085938 -234.910156 C 829.121094 -198.332031 817.289062 -170.285156 801.070312 -147.464844 C 780.007812 -117.652344 748.027344 -93.554688 705.992188 -75.457031 C 684.582031 -66.417969 662.296875 -59.148438 639.6875 -54.007812 C 610.320312 -46.871094 573.910156 -51.554688 539.003906 -55.90625 C 499.816406 -60.882812 459.417969 -66.125 427.203125 -55.347656 C 419.160156 -52.535156 411.355469 -49.351562 403.902344 -45.617188 C 315.453125 -1.699219 259.996094 107.921875 221.652344 198.550781 C 213.109375 218.792969 205.742188 240.871094 198.757812 261.929688 C 179.148438 321.128906 158.660156 382.191406 108.496094 414.300781 C 107.578125 414.886719 106.476562 415.59375 105.558594 416.183594 C 90.992188 424.988281 74.726562 430.734375 59.128906 436.3125 C 46.824219 440.5625 34.152344 445.042969 22.238281 451.117188 C -2.628906 463.664062 -30.464844 489.777344 -26.890625 522.472656 L -25.25 522.203125 C -28.839844 490.289062 -1.738281 464.648438 22.757812 452.335938 Z M 29.566406 457.308594 C 42.019531 451.671875 55.410156 447.503906 68.253906 443.691406 C 84.988281 438.679688 102.277344 433.3125 117.75 424.707031 C 174.253906 393.199219 195.300781 328.15625 215.402344 265.269531 C 222.019531 244.449219 228.949219 222.90625 237.058594 203.203125 C 281.242188 94.578125 339.527344 -20.738281 437.132812 -52.378906 C 468.734375 -62.496094 509.46875 -55.917969 548.628906 -49.367188 C 583.988281 -43.492188 620.742188 -37.472656 650.273438 -43.9375 C 726.972656 -60.898438 781.234375 -92.261719 811.960938 -137.328125 C 842.691406 -182.398438 850.539062 -240.546875 857.988281 -296.890625 C 866.738281 -361.320312 875.648438 -427.929688 919.679688 -472.441406 L 918.488281 -473.496094 C 874.207031 -428.5625 865.113281 -361.835938 856.296875 -297.105469 C 848.730469 -240.945312 840.949219 -183.097656 810.285156 -138.328125 C 779.808594 -93.683594 725.726562 -62.433594 649.515625 -45.527344 C 620.285156 -38.996094 583.835938 -44.949219 548.660156 -50.941406 C 509.195312 -57.554688 468.34375 -64.320312 436.375 -53.964844 C 338.101562 -22.160156 279.566406 93.578125 235.316406 202.503906 C 227.324219 222.390625 220.394531 243.933594 213.777344 264.753906 C 193.742188 327.339844 173.0625 392.148438 116.925781 423.417969 C 101.636719 431.910156 84.347656 437.273438 67.613281 442.285156 C 54.585938 446.21875 41.195312 450.382812 28.746094 456.023438 C 0.183594 468.863281 -27.25 496.011719 -24.199219 527.488281 L -22.558594 527.21875 C -25.324219 496.59375 1.675781 469.980469 29.566406 457.308594 Z M 29.566406 457.308594 "/>
</clipPath>
<linearGradient id="linear1" gradientUnits="userSpaceOnUse" x1="8.841737" y1="129.899994" x2="494.248722" y2="129.899994" gradientTransform="matrix(1.837401,-1.176145,1.176766,1.83837,-306.761711,84.037679)">
<stop offset="0" style="stop-color:rgb(65.768433%,27.874756%,99.240112%);stop-opacity:1;"/>
<stop offset="0.0078125" style="stop-color:rgb(65.661621%,27.809143%,99.087524%);stop-opacity:1;"/>
<stop offset="0.015625" style="stop-color:rgb(65.449524%,27.679443%,98.782349%);stop-opacity:1;"/>
<stop offset="0.0234375" style="stop-color:rgb(65.235901%,27.548218%,98.477173%);stop-opacity:1;"/>
<stop offset="0.03125" style="stop-color:rgb(65.022278%,27.418518%,98.171997%);stop-opacity:1;"/>
<stop offset="0.0390625" style="stop-color:rgb(64.810181%,27.287292%,97.866821%);stop-opacity:1;"/>
<stop offset="0.046875" style="stop-color:rgb(64.596558%,27.157593%,97.561646%);stop-opacity:1;"/>
<stop offset="0.0546875" style="stop-color:rgb(64.382935%,27.027893%,97.25647%);stop-opacity:1;"/>
<stop offset="0.0625" style="stop-color:rgb(64.170837%,26.896667%,96.951294%);stop-opacity:1;"/>
<stop offset="0.0703125" style="stop-color:rgb(63.957214%,26.766968%,96.646118%);stop-opacity:1;"/>
<stop offset="0.078125" style="stop-color:rgb(63.743591%,26.635742%,96.340942%);stop-opacity:1;"/>
<stop offset="0.0859375" style="stop-color:rgb(63.531494%,26.506042%,96.035767%);stop-opacity:1;"/>
<stop offset="0.09375" style="stop-color:rgb(63.317871%,26.376343%,95.730591%);stop-opacity:1;"/>
<stop offset="0.101562" style="stop-color:rgb(63.104248%,26.245117%,95.425415%);stop-opacity:1;"/>
<stop offset="0.109375" style="stop-color:rgb(62.892151%,26.115417%,95.120239%);stop-opacity:1;"/>
<stop offset="0.117188" style="stop-color:rgb(62.678528%,25.984192%,94.815063%);stop-opacity:1;"/>
<stop offset="0.125" style="stop-color:rgb(62.466431%,25.854492%,94.509888%);stop-opacity:1;"/>
<stop offset="0.132812" style="stop-color:rgb(62.252808%,25.724792%,94.204712%);stop-opacity:1;"/>
<stop offset="0.140625" style="stop-color:rgb(62.039185%,25.593567%,93.899536%);stop-opacity:1;"/>
<stop offset="0.148438" style="stop-color:rgb(61.827087%,25.463867%,93.59436%);stop-opacity:1;"/>
<stop offset="0.15625" style="stop-color:rgb(61.613464%,25.332642%,93.289185%);stop-opacity:1;"/>
<stop offset="0.164062" style="stop-color:rgb(61.399841%,25.202942%,92.985535%);stop-opacity:1;"/>
<stop offset="0.171875" style="stop-color:rgb(61.187744%,25.071716%,92.680359%);stop-opacity:1;"/>
<stop offset="0.179688" style="stop-color:rgb(60.974121%,24.942017%,92.375183%);stop-opacity:1;"/>
<stop offset="0.1875" style="stop-color:rgb(60.760498%,24.812317%,92.070007%);stop-opacity:1;"/>
<stop offset="0.195312" style="stop-color:rgb(60.548401%,24.681091%,91.764832%);stop-opacity:1;"/>
<stop offset="0.203125" style="stop-color:rgb(60.334778%,24.551392%,91.459656%);stop-opacity:1;"/>
<stop offset="0.210938" style="stop-color:rgb(60.121155%,24.420166%,91.15448%);stop-opacity:1;"/>
<stop offset="0.21875" style="stop-color:rgb(59.909058%,24.290466%,90.849304%);stop-opacity:1;"/>
<stop offset="0.226562" style="stop-color:rgb(59.695435%,24.160767%,90.544128%);stop-opacity:1;"/>
<stop offset="0.234375" style="stop-color:rgb(59.481812%,24.029541%,90.238953%);stop-opacity:1;"/>
<stop offset="0.242187" style="stop-color:rgb(59.269714%,23.899841%,89.933777%);stop-opacity:1;"/>
<stop offset="0.25" style="stop-color:rgb(59.056091%,23.768616%,89.628601%);stop-opacity:1;"/>
<stop offset="0.257812" style="stop-color:rgb(58.843994%,23.638916%,89.323425%);stop-opacity:1;"/>
<stop offset="0.265625" style="stop-color:rgb(58.630371%,23.509216%,89.01825%);stop-opacity:1;"/>
<stop offset="0.273438" style="stop-color:rgb(58.416748%,23.377991%,88.713074%);stop-opacity:1;"/>
<stop offset="0.28125" style="stop-color:rgb(58.204651%,23.248291%,88.407898%);stop-opacity:1;"/>
<stop offset="0.289063" style="stop-color:rgb(57.991028%,23.117065%,88.102722%);stop-opacity:1;"/>
<stop offset="0.296875" style="stop-color:rgb(57.777405%,22.987366%,87.797546%);stop-opacity:1;"/>
<stop offset="0.304688" style="stop-color:rgb(57.565308%,22.857666%,87.492371%);stop-opacity:1;"/>
<stop offset="0.3125" style="stop-color:rgb(57.351685%,22.72644%,87.187195%);stop-opacity:1;"/>
<stop offset="0.320312" style="stop-color:rgb(57.138062%,22.596741%,86.882019%);stop-opacity:1;"/>
<stop offset="0.328125" style="stop-color:rgb(56.925964%,22.465515%,86.576843%);stop-opacity:1;"/>
<stop offset="0.335938" style="stop-color:rgb(56.712341%,22.335815%,86.273193%);stop-opacity:1;"/>
<stop offset="0.34375" style="stop-color:rgb(56.498718%,22.206116%,85.968018%);stop-opacity:1;"/>
<stop offset="0.351562" style="stop-color:rgb(56.286621%,22.07489%,85.662842%);stop-opacity:1;"/>
<stop offset="0.359375" style="stop-color:rgb(56.072998%,21.94519%,85.357666%);stop-opacity:1;"/>
<stop offset="0.367188" style="stop-color:rgb(55.859375%,21.813965%,85.05249%);stop-opacity:1;"/>
<stop offset="0.375" style="stop-color:rgb(55.647278%,21.684265%,84.747314%);stop-opacity:1;"/>
<stop offset="0.382812" style="stop-color:rgb(55.433655%,21.554565%,84.442139%);stop-opacity:1;"/>
<stop offset="0.390625" style="stop-color:rgb(55.221558%,21.42334%,84.136963%);stop-opacity:1;"/>
<stop offset="0.398438" style="stop-color:rgb(55.007935%,21.29364%,83.831787%);stop-opacity:1;"/>
<stop offset="0.40625" style="stop-color:rgb(54.794312%,21.162415%,83.526611%);stop-opacity:1;"/>
<stop offset="0.414062" style="stop-color:rgb(54.582214%,21.032715%,83.221436%);stop-opacity:1;"/>
<stop offset="0.421875" style="stop-color:rgb(54.368591%,20.901489%,82.91626%);stop-opacity:1;"/>
<stop offset="0.429687" style="stop-color:rgb(54.154968%,20.77179%,82.611084%);stop-opacity:1;"/>
<stop offset="0.4375" style="stop-color:rgb(53.942871%,20.64209%,82.305908%);stop-opacity:1;"/>
<stop offset="0.445312" style="stop-color:rgb(53.729248%,20.510864%,82.000732%);stop-opacity:1;"/>
<stop offset="0.453125" style="stop-color:rgb(53.515625%,20.381165%,81.695557%);stop-opacity:1;"/>
<stop offset="0.460937" style="stop-color:rgb(53.303528%,20.249939%,81.390381%);stop-opacity:1;"/>
<stop offset="0.46875" style="stop-color:rgb(53.089905%,20.120239%,81.085205%);stop-opacity:1;"/>
<stop offset="0.476562" style="stop-color:rgb(52.876282%,19.99054%,80.780029%);stop-opacity:1;"/>
<stop offset="0.484375" style="stop-color:rgb(52.664185%,19.859314%,80.474854%);stop-opacity:1;"/>
<stop offset="0.492187" style="stop-color:rgb(52.450562%,19.729614%,80.169678%);stop-opacity:1;"/>
<stop offset="0.5" style="stop-color:rgb(52.238464%,19.598389%,79.864502%);stop-opacity:1;"/>
<stop offset="0.507812" style="stop-color:rgb(52.024841%,19.468689%,79.559326%);stop-opacity:1;"/>
<stop offset="0.515625" style="stop-color:rgb(51.811218%,19.338989%,79.255676%);stop-opacity:1;"/>
<stop offset="0.523437" style="stop-color:rgb(51.599121%,19.207764%,78.9505%);stop-opacity:1;"/>
<stop offset="0.53125" style="stop-color:rgb(51.385498%,19.078064%,78.645325%);stop-opacity:1;"/>
<stop offset="0.539062" style="stop-color:rgb(51.171875%,18.946838%,78.340149%);stop-opacity:1;"/>
<stop offset="0.546875" style="stop-color:rgb(50.959778%,18.817139%,78.034973%);stop-opacity:1;"/>
<stop offset="0.554687" style="stop-color:rgb(50.746155%,18.687439%,77.729797%);stop-opacity:1;"/>
<stop offset="0.5625" style="stop-color:rgb(50.532532%,18.556213%,77.424622%);stop-opacity:1;"/>
<stop offset="0.570312" style="stop-color:rgb(50.320435%,18.426514%,77.119446%);stop-opacity:1;"/>
<stop offset="0.578125" style="stop-color:rgb(50.106812%,18.295288%,76.81427%);stop-opacity:1;"/>
<stop offset="0.585937" style="stop-color:rgb(49.893188%,18.165588%,76.509094%);stop-opacity:1;"/>
<stop offset="0.59375" style="stop-color:rgb(49.681091%,18.035889%,76.203918%);stop-opacity:1;"/>
<stop offset="0.601562" style="stop-color:rgb(49.467468%,17.904663%,75.898743%);stop-opacity:1;"/>
<stop offset="0.609375" style="stop-color:rgb(49.253845%,17.774963%,75.593567%);stop-opacity:1;"/>
<stop offset="0.617188" style="stop-color:rgb(49.041748%,17.643738%,75.288391%);stop-opacity:1;"/>
<stop offset="0.625" style="stop-color:rgb(48.828125%,17.514038%,74.983215%);stop-opacity:1;"/>
<stop offset="0.632812" style="stop-color:rgb(48.616028%,17.384338%,74.67804%);stop-opacity:1;"/>
<stop offset="0.640625" style="stop-color:rgb(48.402405%,17.253113%,74.372864%);stop-opacity:1;"/>
<stop offset="0.648438" style="stop-color:rgb(48.188782%,17.123413%,74.067688%);stop-opacity:1;"/>
<stop offset="0.65625" style="stop-color:rgb(47.976685%,16.992188%,73.762512%);stop-opacity:1;"/>
<stop offset="0.664062" style="stop-color:rgb(47.763062%,16.862488%,73.457336%);stop-opacity:1;"/>
<stop offset="0.671875" style="stop-color:rgb(47.549438%,16.731262%,73.152161%);stop-opacity:1;"/>
<stop offset="0.679687" style="stop-color:rgb(47.337341%,16.601562%,72.846985%);stop-opacity:1;"/>
<stop offset="0.6875" style="stop-color:rgb(47.123718%,16.471863%,72.541809%);stop-opacity:1;"/>
<stop offset="0.695312" style="stop-color:rgb(46.910095%,16.340637%,72.238159%);stop-opacity:1;"/>
<stop offset="0.703125" style="stop-color:rgb(46.697998%,16.210938%,71.932983%);stop-opacity:1;"/>
<stop offset="0.710938" style="stop-color:rgb(46.484375%,16.079712%,71.627808%);stop-opacity:1;"/>
<stop offset="0.71875" style="stop-color:rgb(46.270752%,15.950012%,71.322632%);stop-opacity:1;"/>
<stop offset="0.726562" style="stop-color:rgb(46.058655%,15.820312%,71.017456%);stop-opacity:1;"/>
<stop offset="0.734375" style="stop-color:rgb(45.845032%,15.689087%,70.71228%);stop-opacity:1;"/>
<stop offset="0.742188" style="stop-color:rgb(45.632935%,15.559387%,70.407104%);stop-opacity:1;"/>
<stop offset="0.75" style="stop-color:rgb(45.419312%,15.428162%,70.101929%);stop-opacity:1;"/>
<stop offset="0.757812" style="stop-color:rgb(45.205688%,15.298462%,69.796753%);stop-opacity:1;"/>
<stop offset="0.765625" style="stop-color:rgb(44.993591%,15.168762%,69.491577%);stop-opacity:1;"/>
<stop offset="0.773437" style="stop-color:rgb(44.779968%,15.037537%,69.186401%);stop-opacity:1;"/>
<stop offset="0.78125" style="stop-color:rgb(44.566345%,14.907837%,68.881226%);stop-opacity:1;"/>
<stop offset="0.789062" style="stop-color:rgb(44.354248%,14.776611%,68.57605%);stop-opacity:1;"/>
<stop offset="0.796875" style="stop-color:rgb(44.140625%,14.646912%,68.270874%);stop-opacity:1;"/>
<stop offset="0.804687" style="stop-color:rgb(43.927002%,14.517212%,67.965698%);stop-opacity:1;"/>
<stop offset="0.8125" style="stop-color:rgb(43.714905%,14.385986%,67.660522%);stop-opacity:1;"/>
<stop offset="0.820312" style="stop-color:rgb(43.501282%,14.256287%,67.355347%);stop-opacity:1;"/>
<stop offset="0.828125" style="stop-color:rgb(43.287659%,14.125061%,67.050171%);stop-opacity:1;"/>
<stop offset="0.835937" style="stop-color:rgb(43.075562%,13.995361%,66.744995%);stop-opacity:1;"/>
<stop offset="0.84375" style="stop-color:rgb(42.861938%,13.865662%,66.439819%);stop-opacity:1;"/>
<stop offset="0.851562" style="stop-color:rgb(42.648315%,13.734436%,66.134644%);stop-opacity:1;"/>
<stop offset="0.859375" style="stop-color:rgb(42.436218%,13.604736%,65.829468%);stop-opacity:1;"/>
<stop offset="0.867188" style="stop-color:rgb(42.222595%,13.473511%,65.524292%);stop-opacity:1;"/>
<stop offset="0.875" style="stop-color:rgb(42.010498%,13.343811%,65.220642%);stop-opacity:1;"/>
<stop offset="0.882812" style="stop-color:rgb(41.796875%,13.214111%,64.915466%);stop-opacity:1;"/>
<stop offset="0.890625" style="stop-color:rgb(41.583252%,13.082886%,64.610291%);stop-opacity:1;"/>
<stop offset="0.898437" style="stop-color:rgb(41.371155%,12.953186%,64.305115%);stop-opacity:1;"/>
<stop offset="0.90625" style="stop-color:rgb(41.157532%,12.82196%,63.999939%);stop-opacity:1;"/>
<stop offset="0.914062" style="stop-color:rgb(40.943909%,12.692261%,63.694763%);stop-opacity:1;"/>
<stop offset="0.921875" style="stop-color:rgb(40.731812%,12.561035%,63.389587%);stop-opacity:1;"/>
<stop offset="0.929688" style="stop-color:rgb(40.518188%,12.431335%,63.084412%);stop-opacity:1;"/>
<stop offset="0.9375" style="stop-color:rgb(40.304565%,12.301636%,62.779236%);stop-opacity:1;"/>
<stop offset="0.945312" style="stop-color:rgb(40.092468%,12.17041%,62.47406%);stop-opacity:1;"/>
<stop offset="0.953125" style="stop-color:rgb(39.878845%,12.04071%,62.168884%);stop-opacity:1;"/>
<stop offset="0.960938" style="stop-color:rgb(39.665222%,11.909485%,61.863708%);stop-opacity:1;"/>
<stop offset="0.96875" style="stop-color:rgb(39.453125%,11.779785%,61.558533%);stop-opacity:1;"/>
<stop offset="0.976562" style="stop-color:rgb(39.239502%,11.650085%,61.253357%);stop-opacity:1;"/>
<stop offset="0.984375" style="stop-color:rgb(39.027405%,11.51886%,60.948181%);stop-opacity:1;"/>
<stop offset="0.992188" style="stop-color:rgb(38.813782%,11.38916%,60.643005%);stop-opacity:1;"/>
<stop offset="1" style="stop-color:rgb(38.600159%,11.257935%,60.33783%);stop-opacity:1;"/>
</linearGradient>
</defs>
<g id="surface1">
<g clip-path="url(#clip1)" clip-rule="nonzero">
<g clip-path="url(#clip2)" clip-rule="nonzero">
<g clip-path="url(#clip3)" clip-rule="nonzero">
<g clip-path="url(#clip4)" clip-rule="nonzero">
<path style=" stroke:none;fill-rule:nonzero;fill:url(#linear0);" d="M -363.484375 226.382812 L 270.617188 1244.503906 L 1331.75 583.617188 L 697.648438 -434.503906 Z M -363.484375 226.382812 "/>
</g>
</g>
</g>
</g>
<g clip-path="url(#clip5)" clip-rule="nonzero">
<g clip-path="url(#clip6)" clip-rule="nonzero">
<g clip-path="url(#clip7)" clip-rule="nonzero">
<g clip-path="url(#clip8)" clip-rule="nonzero">
<path style=" stroke:none;fill-rule:nonzero;fill:url(#linear1);" d="M -239.511719 153.316406 L 267.308594 945.082031 L 1159.195312 374.171875 L 652.375 -417.59375 Z M -239.511719 153.316406 "/>
</g>
</g>
</g>
</g>
</g>
</svg>
