<?xml version="1.0" encoding="UTF-8"?>
<svg xmlns="http://www.w3.org/2000/svg" xmlns:xlink="http://www.w3.org/1999/xlink" width="595.5pt" height="842.249979pt" viewBox="0 0 595.5 842.249979" version="1.2">
<defs>
<clipPath id="clip1">
  <path d="M 18 282.46875 L 577.417969 282.46875 L 577.417969 841.5 L 18 841.5 Z M 18 282.46875 "/>
</clipPath>
</defs>
<g id="surface1">
<g clip-path="url(#clip1)" clip-rule="nonzero">
<path style=" stroke:none;fill-rule:nonzero;fill:rgb(100%,100%,100%);fill-opacity:1;" d="M 67.34375 706.855469 C 37.925781 716.699219 18.148438 744.261719 18.148438 775.386719 L 18.148438 841.9375 L 577.328125 841.9375 L 577.328125 775.386719 C 577.328125 744.261719 557.550781 716.699219 528.113281 706.855469 L 526.203125 706.289062 C 493.574219 697.433594 469.632812 689.003906 455.230469 683.441406 C 404.207031 663.832031 390.914062 649.671875 387.535156 642.964844 C 382.6875 633.339844 385.316406 618.542969 394.921875 601.308594 C 399.101562 595.554688 402.753906 590.214844 406.167969 584.773438 L 408.59375 580.796875 C 419.34375 562.859375 428.011719 543.390625 434.34375 522.929688 C 441.972656 498.285156 446.273438 471.972656 447.089844 444.738281 C 447.753906 422.433594 443.984375 400.726562 435.929688 380.199219 C 428.199219 360.574219 416.886719 342.980469 402.3125 327.875 C 374.050781 298.714844 336.96875 282.585938 297.910156 282.46875 C 258.503906 282.585938 221.425781 298.714844 193.164062 327.878906 C 178.59375 342.980469 167.277344 360.574219 159.546875 380.199219 C 151.492188 400.726562 147.71875 422.433594 148.386719 444.738281 C 149.207031 471.972656 153.507812 498.289062 161.132812 522.929688 C 167.464844 543.390625 176.132812 562.863281 186.882812 580.796875 L 189.308594 584.773438 C 192.722656 590.214844 196.371094 595.558594 200.125 600.644531 C 210.160156 618.558594 212.789062 633.339844 207.941406 642.964844 C 204.5625 649.671875 191.269531 663.835938 140.226562 683.476562 C 125.84375 689.003906 101.902344 697.433594 69.578125 706.207031 Z M 147.363281 702.023438 C 166.1875 694.808594 181.9375 687.519531 194.1875 680.402344 C 210.539062 670.847656 220.863281 661.546875 225.707031 651.9375 C 233.847656 635.746094 230.949219 614.550781 217.363281 590.609375 C 213.371094 585.113281 210.128906 580.421875 207.074219 575.644531 L 206.136719 574.140625 C 182.449219 536.257812 169.71875 492.519531 168.285156 444.15625 C 167.6875 424.566406 170.980469 405.503906 178.046875 387.519531 C 184.839844 370.300781 194.734375 354.910156 207.46875 341.75 C 231.9375 316.460938 263.949219 302.484375 297.585938 302.398438 L 297.738281 302.398438 C 331.527344 302.484375 363.539062 316.460938 388.011719 341.75 C 400.742188 354.910156 410.640625 370.300781 417.433594 387.519531 C 424.496094 405.503906 427.789062 424.566406 427.191406 444.15625 C 425.757812 492.484375 413.027344 536.257812 389.328125 574.15625 L 388.457031 575.574219 C 385.347656 580.421875 382.105469 585.113281 378.78125 589.601562 C 364.53125 614.550781 361.628906 635.746094 369.789062 651.941406 C 374.617188 661.546875 384.941406 670.847656 401.289062 680.40625 C 413.542969 687.523438 429.292969 694.808594 448.113281 702.027344 C 462.980469 707.742188 487.640625 716.464844 520.695312 725.421875 C 543.269531 733.066406 557.433594 753 557.433594 775.386719 L 557.433594 822.027344 L 38.046875 822.027344 L 38.046875 775.386719 C 38.046875 753 52.210938 733.066406 73.335938 725.832031 C 107.839844 716.460938 132.5 707.742188 147.363281 702.023438 Z M 147.363281 702.023438 "/>
</g>
</g>
</svg>
