<?xml version="1.0" encoding="UTF-8"?>
<svg xmlns="http://www.w3.org/2000/svg" xmlns:xlink="http://www.w3.org/1999/xlink" width="1440pt" height="809.999993pt" viewBox="0 0 1440 809.999993" version="1.2">
<defs>
<clipPath id="clip1">
  <path d="M 364.152344 81 L 948.402344 81 L 948.402344 810 L 364.152344 810 Z M 364.152344 81 "/>
</clipPath>
</defs>
<g id="surface1">
<g clip-path="url(#clip1)" clip-rule="nonzero">
<path style=" stroke:none;fill-rule:nonzero;fill:rgb(100%,100%,100%);fill-opacity:1;" d="M 726.804688 489.238281 C 725.203125 477.691406 724.203125 466.359375 726.878906 462.59375 C 786.8125 430.089844 825.402344 359.058594 825.402344 280.878906 C 825.402344 170.671875 749.527344 81.003906 656.277344 81.003906 C 563.027344 81.003906 487.152344 170.671875 487.152344 280.878906 C 487.152344 359.042969 525.742188 430.074219 585.675781 462.578125 C 588.351562 466.328125 587.367188 477.628906 585.753906 489.222656 C 480.328125 512.636719 364.152344 560.515625 364.152344 711.371094 L 364.152344 834.371094 C 364.152344 842.871094 371.039062 849.746094 379.527344 849.746094 L 933.027344 849.746094 C 941.53125 849.746094 948.402344 842.871094 948.402344 834.371094 L 948.402344 711.371094 C 948.402344 560.515625 832.230469 512.636719 726.804688 489.238281 Z M 726.804688 489.238281 "/>
</g>
</g>
</svg>
