<?xml version="1.0" encoding="UTF-8"?>
<svg xmlns="http://www.w3.org/2000/svg" xmlns:xlink="http://www.w3.org/1999/xlink" width="595.5pt" height="842.249979pt" viewBox="0 0 595.5 842.249979" version="1.2">
<defs>
<clipPath id="clip1">
  <path d="M 539 291 L 579.796875 291 L 579.796875 334 L 539 334 Z M 539 291 "/>
</clipPath>
</defs>
<g id="surface1">
<path style=" stroke:none;fill-rule:nonzero;fill:rgb(46.269226%,61.178589%,59.999084%);fill-opacity:1;" d="M 474.484375 93.609375 C 470.367188 86.671875 459.539062 92.96875 463.683594 99.933594 C 545.75 237.933594 482.4375 415.125 395.910156 534.859375 C 350.597656 597.574219 290.585938 637.230469 230.105469 683.371094 C 179.984375 721.605469 139.699219 768.824219 138.027344 834.503906 C 137.816406 842.589844 150.332031 842.570312 150.542969 834.503906 C 152.730469 748.320312 226.457031 700.542969 289.777344 655.511719 C 347.171875 614.699219 393.375 564.636719 431.121094 505.160156 C 506.015625 387.175781 550.542969 221.484375 474.484375 93.609375 "/>
<path style=" stroke:none;fill-rule:nonzero;fill:rgb(46.269226%,61.178589%,59.999084%);fill-opacity:1;" d="M 226.3125 641.707031 C 233.492188 637.984375 227.15625 627.167969 220.007812 630.886719 C 163.742188 660.121094 63.0625 736.808594 101.640625 810.75 C 105.378906 817.910156 116.167969 811.574219 112.441406 804.417969 C 78.183594 738.746094 177.152344 667.25 226.3125 641.707031 "/>
<path style=" stroke:none;fill-rule:nonzero;fill:rgb(46.269226%,61.178589%,59.999084%);fill-opacity:1;" d="M 135.988281 594.175781 C 101.761719 618.214844 50.421875 646.539062 38.371094 689.683594 C 36.195312 697.480469 48.269531 700.785156 50.449219 693.007812 C 61.425781 653.699219 111.132812 626.882812 142.289062 604.992188 C 148.839844 600.394531 142.609375 589.523438 135.988281 594.175781 "/>
<path style=" stroke:none;fill-rule:nonzero;fill:rgb(46.269226%,61.178589%,59.999084%);fill-opacity:1;" d="M 32.113281 753.925781 C 29.300781 743.5625 27.910156 732.617188 30.597656 722.070312 C 32.589844 714.242188 20.515625 710.917969 18.519531 718.746094 C 15.296875 731.445312 16.644531 744.726562 20.035156 757.257812 C 22.15625 765.046875 34.226562 761.734375 32.113281 753.925781 "/>
<path style=" stroke:none;fill-rule:nonzero;fill:rgb(46.269226%,61.178589%,59.999084%);fill-opacity:1;" d="M 43.699219 790.667969 C 40.367188 783.316406 29.582031 789.691406 32.898438 796.988281 C 37.867188 807.953125 46.074219 816.660156 53.738281 825.777344 C 58.941406 831.972656 67.75 823.0625 62.582031 816.921875 C 55.566406 808.570312 48.257812 800.707031 43.699219 790.667969 "/>
<path style=" stroke:none;fill-rule:nonzero;fill:rgb(46.269226%,61.178589%,59.999084%);fill-opacity:1;" d="M 108.230469 163.882812 C 138.574219 188.519531 163.90625 217.277344 181.894531 252.171875 C 185.601562 259.355469 196.390625 253.011719 192.703125 245.84375 C 174.257812 210.070312 148.21875 180.304688 117.078125 155.023438 C 110.863281 149.984375 101.960938 158.789062 108.230469 163.882812 "/>
<path style=" stroke:none;fill-rule:nonzero;fill:rgb(46.269226%,61.178589%,59.999084%);fill-opacity:1;" d="M 203.773438 297.464844 C 202.25 293.832031 201.941406 290.503906 201.914062 286.597656 C 201.882812 278.519531 189.363281 278.511719 189.402344 286.597656 C 189.425781 291.546875 189.765625 296.195312 191.703125 300.789062 C 194.78125 308.128906 206.890625 304.90625 203.773438 297.464844 "/>
<path style=" stroke:none;fill-rule:nonzero;fill:rgb(46.269226%,61.178589%,59.999084%);fill-opacity:1;" d="M 181.246094 14.097656 C 267.492188 52.421875 336.101562 142.574219 362.746094 231.875 C 365.054688 239.597656 377.136719 236.304688 374.824219 228.546875 C 347.324219 136.414062 276.671875 42.875 187.558594 3.285156 C 180.253906 0.0351562 173.878906 10.824219 181.246094 14.097656 "/>
<path style=" stroke:none;fill-rule:nonzero;fill:rgb(46.269226%,61.178589%,59.999084%);fill-opacity:1;" d="M 377.5625 273.503906 C 377.5625 270.15625 377.5625 265.128906 377.5625 261.777344 C 377.5625 253.398438 364.171875 253.398438 364.171875 261.777344 C 364.171875 261.777344 364.171875 270.15625 364.171875 273.503906 C 364.171875 281.882812 377.5625 281.882812 377.5625 273.503906 "/>
<path style=" stroke:none;fill-rule:nonzero;fill:rgb(46.269226%,61.178589%,59.999084%);fill-opacity:1;" d="M 328.035156 32.898438 C 367.769531 60.3125 397.730469 94.488281 413.753906 140.445312 C 429.007812 184.171875 429.152344 232.488281 429.289062 278.25 C 429.316406 286.324219 441.832031 286.328125 441.804688 278.25 C 441.660156 228.222656 439.996094 177.730469 423.375 130.058594 C 407.320312 84.066406 373.726562 49.234375 334.34375 22.082031 C 327.679688 17.480469 321.4375 28.347656 328.035156 32.898438 "/>
<path style=" stroke:none;fill-rule:nonzero;fill:rgb(46.269226%,61.178589%,59.999084%);fill-opacity:1;" d="M 526.332031 403.421875 C 526.265625 395.96875 526.789062 388.558594 528.941406 381.324219 C 530.226562 377.011719 533.058594 373.789062 536.753906 371.375 C 538.027344 370.535156 538.910156 370.125 539.507812 369.882812 C 539.128906 372.46875 537.863281 375.453125 537.304688 377.257812 C 534.496094 386.351562 530.554688 394.953125 526.332031 403.421875 Z M 524.46875 365.109375 C 508.742188 378.949219 514.117188 407.671875 514.769531 426.496094 C 513.640625 428.914062 512.539062 431.339844 511.5 433.800781 C 508.394531 441.152344 519.175781 447.550781 522.304688 440.125 C 523.289062 437.789062 524.351562 435.476562 525.429688 433.175781 C 526.460938 432.285156 527.15625 430.96875 527.285156 429.277344 C 531.691406 420.238281 536.511719 411.371094 540.691406 402.230469 C 545.796875 391.019531 553.925781 376.304688 551.433594 363.523438 C 548.621094 349.085938 530.117188 360.140625 524.46875 365.109375 "/>
<path style=" stroke:none;fill-rule:nonzero;fill:rgb(46.269226%,61.178589%,59.999084%);fill-opacity:1;" d="M 558.011719 172.808594 C 558.117188 172.101562 558.316406 171.394531 558.566406 170.695312 C 558.835938 170.949219 559.109375 171.199219 559.363281 171.46875 C 559.488281 171.597656 559.59375 171.730469 559.683594 171.859375 C 559.136719 172.207031 558.578125 172.523438 558.011719 172.808594 Z M 559.683594 155.886719 C 557.140625 154.238281 553.90625 155.042969 551.941406 157.097656 C 550.582031 157.144531 549.191406 157.683594 547.953125 158.957031 C 542.78125 164.28125 537.242188 172.15625 541.691406 179.636719 C 544.140625 183.753906 548.980469 185.59375 553.703125 185.910156 C 554.550781 186.011719 555.433594 186.011719 556.332031 185.929688 C 556.867188 185.902344 557.390625 185.863281 557.898438 185.796875 C 564.136719 185.019531 570.6875 182.105469 572.507812 175.507812 C 574.925781 166.769531 565.96875 159.914062 559.683594 155.886719 "/>
<path style=" stroke:none;fill-rule:nonzero;fill:rgb(46.269226%,61.178589%,59.999084%);fill-opacity:1;" d="M 169.757812 580.050781 C 194.375 545.808594 218.425781 511.273438 230.582031 470.433594 C 243.546875 426.832031 235.910156 380.121094 224.625 337.144531 C 222.578125 329.335938 210.496094 332.648438 212.554688 340.46875 C 224.257812 385.074219 229.777344 429.238281 216.4375 474.054688 C 205.511719 510.808594 181.019531 543.035156 158.957031 573.722656 C 154.222656 580.292969 165.089844 586.539062 169.757812 580.050781 "/>
<path style=" stroke:none;fill-rule:nonzero;fill:rgb(46.269226%,61.178589%,59.999084%);fill-opacity:1;" d="M 246.726562 609.070312 C 239.917969 613.371094 246.1875 624.210938 253.035156 619.882812 C 354.253906 555.917969 416.664062 439.234375 431.371094 322.109375 C 432.371094 314.105469 419.84375 314.203125 418.855469 322.109375 C 404.71875 434.648438 343.863281 547.675781 246.726562 609.070312 "/>
<g clip-path="url(#clip1)" clip-rule="nonzero">
<path style=" stroke:none;fill-rule:nonzero;fill:rgb(62.748718%,37.249756%,51.368713%);fill-opacity:1;" d="M 562.609375 320.300781 C 554.160156 327.941406 545.167969 302.359375 557.042969 303.949219 C 558.035156 305.042969 559.417969 305.84375 561.234375 306.007812 C 570.085938 306.804688 567.558594 315.824219 562.609375 320.300781 Z M 564.554688 294 C 563.824219 293.070312 562.730469 292.351562 561.226562 292.011719 C 545.515625 288.464844 536.484375 302.457031 539.703125 316.769531 C 542.09375 327.457031 553.355469 336.632812 564.40625 333.296875 C 573.421875 330.566406 578.566406 321.292969 579.652344 312.488281 C 580.910156 302.355469 573.34375 295.9375 564.554688 294 "/>
</g>
<path style=" stroke:none;fill-rule:nonzero;fill:rgb(62.748718%,37.249756%,51.368713%);fill-opacity:1;" d="M 572.53125 227.59375 C 572.539062 227.710938 572.539062 227.816406 572.539062 227.933594 C 572.539062 227.796875 572.5 227.679688 572.492188 227.539062 C 572.507812 227.558594 572.519531 227.574219 572.53125 227.59375 Z M 569.65625 235.886719 C 577.445312 235.953125 577.691406 224.351562 570.480469 223.449219 C 566.878906 220.367188 559.820312 221.84375 560.023438 227.941406 C 560.222656 233.835938 564.28125 235.847656 569.65625 235.886719 "/>
<path style=" stroke:none;fill-rule:nonzero;fill:rgb(62.748718%,37.249756%,51.368713%);fill-opacity:1;" d="M 416.023438 601.824219 C 419.804688 608.304688 426.125 613.152344 433.789062 615.3125 C 422.792969 626.632812 413.433594 639.21875 405.058594 652.5625 C 404.046875 643.199219 401.160156 634.402344 395.191406 628.746094 C 404.226562 622.496094 410.648438 612.328125 416.023438 601.824219 Z M 449.632812 604.238281 C 448.808594 603.878906 447.835938 603.695312 446.671875 603.820312 C 432.683594 605.324219 421.175781 596.207031 425.761719 581.394531 C 427.832031 574.664062 417.457031 570.140625 414.316406 576.5625 C 406.835938 591.835938 397.792969 621.027344 377.597656 622.371094 C 373.410156 622.390625 371.417969 625.773438 371.574219 629.023438 C 371.5625 632.164062 373.5625 635.167969 377.597656 634.898438 C 396.480469 634.800781 394.101562 663.132812 391.777344 675.882812 C 390.574219 682.527344 399.644531 687.324219 403.214844 680.707031 C 416.488281 656.070312 431.574219 633.058594 452.785156 614.515625 C 457.046875 610.785156 453.949219 605.34375 449.632812 604.238281 "/>
<path style=" stroke:none;fill-rule:nonzero;fill:rgb(62.748718%,37.249756%,51.368713%);fill-opacity:1;" d="M 243.601562 721.828125 C 206.636719 745.914062 175.003906 781.75 165.613281 825.8125 C 163.9375 833.691406 176.003906 837.042969 177.691406 829.144531 C 186.394531 788.21875 215.554688 755.03125 249.902344 732.644531 C 256.652344 728.257812 250.378906 717.40625 243.601562 721.828125 "/>
<path style=" stroke:none;fill-rule:nonzero;fill:rgb(62.748718%,37.249756%,51.368713%);fill-opacity:1;" d="M 333.585938 364.015625 C 334.769531 356.121094 322.703125 352.71875 321.507812 360.691406 C 306.945312 457.726562 264.019531 543.773438 185.511719 604.433594 C 125.683594 650.664062 64.40625 690.34375 61.988281 773.359375 C 61.753906 781.445312 74.269531 781.425781 74.503906 773.359375 C 77.316406 676.964844 168.351562 641.667969 229.125 583.140625 C 289.394531 525.113281 321.351562 445.53125 333.585938 364.015625 "/>
<path style=" stroke:none;fill-rule:nonzero;fill:rgb(62.748718%,37.249756%,51.368713%);fill-opacity:1;" d="M 113.742188 87.183594 C 219.882812 127.464844 303.878906 227.964844 321.507812 340.46875 C 322.757812 348.4375 334.8125 345.046875 333.585938 337.144531 C 315.25 220.136719 227.070312 116.847656 117.0625 75.105469 C 109.511719 72.238281 106.273438 84.347656 113.742188 87.183594 "/>
<path style=" stroke:none;fill-rule:nonzero;fill:rgb(62.748718%,37.249756%,51.368713%);fill-opacity:1;" d="M 344.339844 656.59375 C 317.792969 670.300781 294.089844 688.71875 267.550781 702.421875 C 260.363281 706.125 266.707031 716.933594 273.859375 713.234375 C 300.40625 699.539062 324.109375 681.113281 350.644531 667.414062 C 357.824219 663.714844 351.488281 652.894531 344.339844 656.59375 "/>
<path style=" stroke:none;fill-rule:nonzero;fill:rgb(62.748718%,37.249756%,51.368713%);fill-opacity:1;" d="M 499.4375 454.886719 C 486.6875 492.957031 472.484375 538.539062 438.835938 563.476562 C 432.417969 568.222656 438.652344 579.109375 445.140625 574.292969 C 481.875 547.085938 497.542969 499.921875 511.515625 458.21875 C 514.078125 450.535156 501.992188 447.265625 499.4375 454.886719 "/>
</g>
</svg>
