<?xml version="1.0" encoding="UTF-8"?>
<svg xmlns="http://www.w3.org/2000/svg" xmlns:xlink="http://www.w3.org/1999/xlink" width="595.5pt" height="842.249979pt" viewBox="0 0 595.5 842.249979" version="1.2">
<defs>
<clipPath id="clip1">
  <path d="M 334 438 L 533.492188 438 L 533.492188 814.542969 L 334 814.542969 Z M 334 438 "/>
</clipPath>
<clipPath id="clip2">
  <path d="M 374 135.433594 L 533.492188 135.433594 L 533.492188 409.292969 L 374 409.292969 Z M 374 135.433594 "/>
</clipPath>
</defs>
<g id="surface1">
<path style=" stroke:none;fill-rule:nonzero;fill:rgb(86.268616%,32.159424%,100%);fill-opacity:1;" d="M 142.804688 264.230469 C 135.78125 262.476562 132.816406 273.296875 139.820312 275.054688 C 244.566406 301.285156 417.027344 435.683594 316.277344 550.953125 C 280.347656 592.0625 210.351562 627.488281 217.867188 691.222656 C 224.71875 749.355469 284.457031 797.878906 324.582031 834.554688 C 329.90625 839.425781 337.867188 831.503906 332.507812 826.613281 C 286.527344 784.582031 199.039062 713.875 239.917969 644.699219 C 273.457031 587.9375 345.460938 563.964844 357.722656 493.324219 C 367.035156 439.671875 330.59375 389.246094 294.917969 353.605469 C 253.894531 312.613281 199.335938 278.386719 142.804688 264.230469 "/>
<path style=" stroke:none;fill-rule:nonzero;fill:rgb(86.268616%,32.159424%,100%);fill-opacity:1;" d="M 427.695312 423.164062 C 403.066406 298.054688 323.863281 178.707031 202.480469 130.628906 C 195.746094 127.964844 192.855469 138.820312 199.496094 141.457031 C 317.210938 188.074219 393.074219 305.246094 416.878906 426.144531 C 418.277344 433.242188 429.089844 430.230469 427.695312 423.164062 "/>
<g clip-path="url(#clip1)" clip-rule="nonzero">
<path style=" stroke:none;fill-rule:nonzero;fill:rgb(100%,100%,100%);fill-opacity:1;" d="M 522.242188 444.367188 C 513.246094 537.882812 436.917969 576.808594 374.523438 633.765625 C 320.878906 682.734375 324.171875 756.195312 364.921875 811.59375 C 369.160156 817.355469 378.898438 811.765625 374.605469 805.929688 C 349.46875 771.753906 337.316406 733.40625 349.730469 691.707031 C 362.148438 650.007812 401.617188 625.984375 433.78125 600.683594 C 485.953125 559.640625 526.875 512.777344 533.457031 444.367188 C 534.148438 437.15625 522.929688 437.226562 522.242188 444.367188 "/>
</g>
<path style=" stroke:none;fill-rule:nonzero;fill:rgb(100%,100%,100%);fill-opacity:1;" d="M 105.554688 200.070312 C 105.1875 193.261719 101.566406 187.132812 96.394531 181.507812 C 102.859375 181.792969 109.050781 180.28125 115.246094 176.320312 C 116.464844 183.3125 120.417969 189.367188 125.738281 194.5625 C 118.792969 195.113281 112.058594 197.027344 105.554688 200.070312 Z M 152.492188 199.347656 C 139.054688 192.382812 121.160156 182.132812 127.585938 164.285156 C 129.484375 159.011719 121.871094 154.726562 118.214844 158.824219 C 103.207031 175.632812 91.015625 171.339844 72.773438 162.183594 C 66.21875 158.882812 61.355469 167.644531 67.128906 171.875 C 78.414062 180.164062 100.875 192.070312 92.554688 207.78125 C 91.34375 208.652344 90.136719 209.5625 88.945312 210.503906 C 85.507812 213.222656 87.097656 217.175781 90.125 218.886719 C 92.023438 221.390625 95.550781 222.457031 98.070312 219.34375 C 99.113281 218.050781 100.011719 216.792969 100.828125 215.542969 C 115.335938 205.519531 130.984375 202.527344 148.179688 209.605469 C 154.09375 212.042969 158.074219 202.234375 152.492188 199.347656 "/>
<path style=" stroke:none;fill-rule:nonzero;fill:rgb(100%,100%,100%);fill-opacity:1;" d="M 205.632812 228.242188 C 206.566406 227.679688 207.203125 226.96875 207.632812 226.203125 C 211.050781 228.164062 210.519531 235.789062 209.34375 239.566406 C 208.90625 240.976562 208.28125 241.902344 207.363281 242.789062 C 207.277344 242.875 207.257812 242.960938 206.835938 242.78125 C 200.089844 239.8125 199.335938 232.070312 205.632812 228.242188 Z M 197.230469 249.699219 C 203.5625 255.402344 212.324219 255.433594 217.421875 248.210938 C 226.523438 235.335938 220.429688 211.429688 201.765625 215.011719 C 198.796875 215.578125 197.617188 217.800781 197.742188 220.097656 C 187.824219 227.78125 187.601562 241.050781 197.230469 249.699219 "/>
<path style=" stroke:none;fill-rule:nonzero;fill:rgb(100%,100%,100%);fill-opacity:1;" d="M 347.492188 134.210938 C 347.988281 134.285156 348.492188 134.351562 348.988281 134.425781 C 356.0625 135.464844 359.097656 124.648438 351.964844 123.605469 C 351.472656 123.53125 350.972656 123.457031 350.476562 123.386719 C 343.402344 122.34375 340.363281 133.15625 347.492188 134.210938 "/>
<path style=" stroke:none;fill-rule:nonzero;fill:rgb(100%,100%,100%);fill-opacity:1;" d="M 278.574219 744.488281 C 268.265625 725.882812 263.378906 705.304688 262.222656 684.21875 C 260.839844 659.242188 271.046875 643.769531 284.28125 624.308594 C 288.367188 618.3125 278.640625 612.703125 274.601562 618.644531 C 263.460938 635.027344 254.957031 646.433594 251.851562 666.496094 C 248.75 686.460938 252.632812 707.140625 258.515625 726.171875 C 271.78125 769.160156 306.707031 802.929688 334.898438 836.414062 C 339.566406 841.953125 347.460938 833.976562 342.828125 828.480469 C 320.046875 801.414062 295.832031 775.636719 278.574219 744.488281 "/>
<path style=" stroke:none;fill-rule:nonzero;fill:rgb(100%,100%,100%);fill-opacity:1;" d="M 350.378906 554.039062 C 343.304688 552.96875 340.269531 563.785156 347.398438 564.859375 C 347.628906 564.898438 347.855469 564.929688 348.085938 564.964844 C 355.167969 566.035156 358.199219 555.21875 351.070312 554.144531 C 350.835938 554.109375 350.605469 554.078125 350.378906 554.039062 "/>
<path style=" stroke:none;fill-rule:nonzero;fill:rgb(100%,100%,100%);fill-opacity:1;" d="M 296.527344 611.421875 C 310.636719 601.5625 324.371094 591.234375 336.988281 579.503906 C 342.300781 574.570312 334.351562 566.648438 329.0625 571.570312 C 317.140625 582.65625 304.195312 592.410156 290.875 601.734375 C 284.992188 605.839844 290.589844 615.585938 296.527344 611.421875 "/>
<path style=" stroke:none;fill-rule:nonzero;fill:rgb(100%,100%,100%);fill-opacity:1;" d="M 255.710938 782.914062 C 197.605469 742.027344 179.265625 665.621094 231.800781 610.210938 C 236.773438 604.96875 228.851562 597.015625 223.871094 602.273438 C 197.945312 629.621094 183.660156 670.285156 190.480469 708.078125 C 197.1875 745.148438 219.921875 771.40625 250.058594 792.601562 C 255.988281 796.785156 261.585938 787.042969 255.710938 782.914062 "/>
<path style=" stroke:none;fill-rule:nonzero;fill:rgb(100%,100%,100%);fill-opacity:1;" d="M 245.984375 274.355469 C 331 312.765625 405.289062 416.304688 365.347656 510.140625 C 362.542969 516.722656 372.207031 522.453125 375.03125 515.804688 C 417.394531 416.300781 343.160156 306.003906 251.640625 264.664062 C 245.109375 261.714844 239.394531 271.386719 245.984375 274.355469 "/>
<g clip-path="url(#clip2)" clip-rule="nonzero">
<path style=" stroke:none;fill-rule:nonzero;fill:rgb(100%,100%,100%);fill-opacity:1;" d="M 376.941406 146.148438 C 422.898438 169.121094 453.601562 214.210938 477.457031 258.214844 C 501.339844 302.230469 519.980469 353.28125 522.105469 403.722656 C 522.414062 410.933594 533.628906 410.964844 533.328125 403.722656 C 531.078125 350.652344 511.417969 299.21875 487.152344 252.550781 C 463.4375 206.953125 429.617188 159.953125 382.59375 136.460938 C 376.136719 133.238281 370.464844 142.914062 376.941406 146.148438 "/>
</g>
<path style=" stroke:none;fill-rule:nonzero;fill:rgb(100%,100%,100%);fill-opacity:1;" d="M 255.425781 566.300781 C 250.082031 571.199219 258.035156 579.121094 263.359375 574.234375 C 293.101562 546.933594 322.191406 503.542969 314.007812 460.828125 C 307.644531 427.554688 286.351562 386.0625 252.207031 374.90625 C 245.320312 372.648438 242.382812 383.488281 249.230469 385.726562 C 280.425781 395.925781 301.015625 439.746094 303.703125 470.34375 C 306.921875 507.199219 280.984375 542.839844 255.425781 566.300781 "/>
<path style=" stroke:none;fill-rule:nonzero;fill:rgb(100%,100%,100%);fill-opacity:1;" d="M 242.378906 591.171875 C 242.378906 591.171875 250.285156 579.941406 242.378906 579.941406 C 236.050781 579.941406 236.050781 591.171875 242.378906 591.171875 "/>
<path style=" stroke:none;fill-rule:nonzero;fill:rgb(79.60968%,42.349243%,90.19928%);fill-opacity:1;" d="M 298.988281 704.957031 C 295.96875 665.175781 318.394531 635.785156 343.5 608.109375 C 381.679688 566.023438 428.257812 523.566406 430.011719 462.714844 C 430.222656 455.472656 419 455.492188 418.796875 462.714844 C 416.640625 537.4375 343.65625 581.007812 305.339844 637.550781 C 266.671875 694.613281 295.953125 770.972656 338.21875 816.6875 C 343.140625 822.011719 351.050781 814.054688 346.152344 808.75 C 319.402344 779.816406 301.996094 744.539062 298.988281 704.957031 "/>
<path style=" stroke:none;fill-rule:nonzero;fill:rgb(79.60968%,42.349243%,90.19928%);fill-opacity:1;" d="M 318.953125 146.410156 C 309.957031 141.207031 300.570312 136.453125 292.433594 129.929688 C 286.847656 125.453125 278.84375 133.34375 284.5 137.863281 C 293.441406 145.03125 303.40625 150.390625 313.296875 156.097656 C 319.578125 159.714844 325.21875 150.019531 318.953125 146.410156 "/>
<path style=" stroke:none;fill-rule:nonzero;fill:rgb(79.60968%,42.349243%,90.19928%);fill-opacity:1;" d="M 435.726562 303.71875 C 437.785156 310.640625 448.609375 307.691406 446.550781 300.738281 C 430.992188 248.351562 380.332031 222.128906 352.523438 177.699219 C 348.691406 171.582031 338.984375 177.210938 342.839844 183.363281 C 369.910156 226.597656 420.6875 253.039062 435.726562 303.71875 "/>
<path style=" stroke:none;fill-rule:nonzero;fill:rgb(79.60968%,42.349243%,90.19928%);fill-opacity:1;" d="M 188.066406 59.128906 C 202.628906 63.859375 215.023438 75.621094 226.929688 86.878906 C 221.679688 85.289062 216.421875 83.71875 211.328125 81.832031 C 203.390625 78.890625 195.640625 75.011719 189.585938 69.007812 C 186.824219 66.277344 185.359375 62.707031 185.261719 58.886719 C 185.21875 57.5 184.570312 58.003906 188.066406 59.128906 Z M 186.578125 81.3125 C 203.804688 94.199219 225.449219 95.585938 244.140625 105.035156 C 248.570312 107.28125 252.640625 103.378906 252.632812 99.667969 C 253.757812 97.78125 253.714844 95.425781 251.398438 93.625 C 239.269531 84.234375 228.351562 73.324219 216.179688 63.9375 C 208.554688 58.046875 190.648438 41.777344 179.621094 48.304688 C 166.441406 56.109375 178.171875 75.019531 186.578125 81.3125 "/>
<path style=" stroke:none;fill-rule:nonzero;fill:rgb(79.60968%,42.349243%,90.19928%);fill-opacity:1;" d="M 165.699219 335.707031 C 166.464844 335.230469 167.050781 334.667969 167.476562 334.046875 C 171.625 339.132812 170.355469 348.15625 167.433594 353.925781 C 166.570312 355.636719 164.59375 359.210938 162.484375 358.074219 C 154.03125 353.511719 159.675781 339.425781 165.699219 335.707031 Z M 172.902344 365.335938 C 186.378906 353.070312 184.125 324.9375 165.179688 319.898438 C 160.316406 318.605469 157.40625 323.441406 158.425781 327.132812 C 147.15625 335.292969 144.015625 351.242188 151.765625 363.027344 C 156.84375 370.777344 166.367188 371.269531 172.902344 365.335938 "/>
<path style=" stroke:none;fill-rule:nonzero;fill:rgb(79.60968%,42.349243%,90.19928%);fill-opacity:1;" d="M 228.648438 363.367188 C 221.574219 362.308594 218.535156 373.132812 225.671875 374.1875 C 226.28125 374.28125 226.898438 374.375 227.511719 374.460938 C 234.585938 375.519531 237.621094 364.703125 230.488281 363.644531 C 229.878906 363.554688 229.261719 363.460938 228.648438 363.367188 "/>
<path style=" stroke:none;fill-rule:nonzero;fill:rgb(79.60968%,42.349243%,90.19928%);fill-opacity:1;" d="M 451.457031 313.433594 C 448.054688 307.054688 438.371094 312.71875 441.773438 319.105469 C 480.96875 392.621094 467.078125 475.804688 417.535156 540.597656 C 413.128906 546.347656 422.886719 551.925781 427.21875 546.261719 C 479.257812 478.203125 492.40625 390.246094 451.457031 313.433594 "/>
<path style=" stroke:none;fill-rule:nonzero;fill:rgb(79.60968%,42.349243%,90.19928%);fill-opacity:1;" d="M 227.132812 404.636719 C 182.171875 372.296875 133.582031 429.246094 155.335938 473.3125 C 165.671875 494.257812 181.800781 505.207031 204.691406 497.335938 C 220.484375 491.90625 223.09375 477.707031 208.132812 470.21875 C 201.691406 466.988281 196.003906 476.671875 202.480469 479.910156 C 197.480469 492.371094 188.363281 493.324219 175.070312 482.765625 C 169.425781 477.101562 165.523438 470.417969 163.355469 462.707031 C 157.917969 447.414062 161.832031 430.898438 171.953125 418.488281 C 203.183594 380.175781 243.164062 433.371094 250.316406 461.402344 C 266.078125 523.183594 206.007812 572.109375 178.835938 619.96875 C 142.972656 683.148438 154.710938 800.683594 232.925781 827.910156 C 239.769531 830.304688 242.691406 819.457031 235.902344 817.097656 C 191.996094 801.8125 174.714844 749.894531 170.585938 707.789062 C 165.753906 658.566406 190.714844 619.300781 219.066406 582.058594 C 257.113281 532.058594 290.855469 450.464844 227.132812 404.636719 "/>
</g>
</svg>
