<?xml version="1.0" encoding="UTF-8"?>
<svg xmlns="http://www.w3.org/2000/svg" xmlns:xlink="http://www.w3.org/1999/xlink" width="595.5pt" height="842.249979pt" viewBox="0 0 595.5 842.249979" version="1.2">
<defs>
<clipPath id="clip1">
  <path d="M 59.738281 747.402344 L 517.617188 747.402344 L 517.617188 816.667969 L 59.738281 816.667969 Z M 59.738281 747.402344 "/>
</clipPath>
<clipPath id="clip2">
  <path d="M 250 526.433594 L 323 526.433594 L 323 599 L 250 599 Z M 250 526.433594 "/>
</clipPath>
</defs>
<g id="surface1">
<path style=" stroke:none;fill-rule:nonzero;fill:rgb(79.60968%,42.349243%,90.19928%);fill-opacity:1;" d="M 111.007812 737.984375 C 115.628906 696.664062 134.351562 659.597656 162.253906 631.710938 C 194.609375 599.375 239.304688 579.371094 288.679688 579.371094 C 338.050781 579.371094 382.746094 599.375 415.101562 631.710938 C 443.003906 659.597656 461.726562 696.664062 466.347656 737.984375 L 111.007812 737.984375 "/>
<g clip-path="url(#clip1)" clip-rule="nonzero">
<path style=" stroke:none;fill-rule:nonzero;fill:rgb(79.60968%,42.349243%,90.19928%);fill-opacity:1;" d="M 94.351562 747.515625 L 483.003906 747.515625 C 492.53125 747.515625 501.1875 751.40625 507.457031 757.671875 C 513.726562 763.9375 517.617188 772.585938 517.617188 782.109375 C 517.617188 791.632812 513.726562 800.285156 507.457031 806.550781 C 501.1875 812.816406 492.53125 816.703125 483.003906 816.703125 L 94.351562 816.703125 C 84.824219 816.703125 76.167969 812.816406 69.898438 806.550781 C 63.632812 800.285156 59.738281 791.632812 59.738281 782.109375 C 59.738281 772.585938 63.632812 763.9375 69.898438 757.671875 C 76.167969 751.40625 84.824219 747.515625 94.351562 747.515625 "/>
</g>
<g clip-path="url(#clip2)" clip-rule="nonzero">
<path style=" stroke:none;fill-rule:nonzero;fill:rgb(79.60968%,42.349243%,90.19928%);fill-opacity:1;" d="M 286.683594 526.429688 C 296.667969 526.429688 305.714844 530.480469 312.257812 537.015625 C 318.804688 543.558594 322.851562 552.597656 322.851562 562.574219 C 322.851562 572.554688 318.804688 581.589844 312.257812 588.128906 C 305.714844 594.671875 296.667969 598.714844 286.683594 598.714844 C 276.699219 598.714844 267.660156 594.671875 261.113281 588.128906 C 254.570312 581.589844 250.523438 572.554688 250.523438 562.574219 C 250.523438 552.597656 254.570312 543.558594 261.113281 537.015625 C 267.660156 530.480469 276.699219 526.429688 286.683594 526.429688 "/>
</g>
</g>
</svg>
