<?xml version="1.0" encoding="UTF-8"?>
<svg xmlns="http://www.w3.org/2000/svg" xmlns:xlink="http://www.w3.org/1999/xlink" width="595.5pt" height="842.249979pt" viewBox="0 0 595.5 842.249979" version="1.2">
<defs>
<clipPath id="clip1">
  <path d="M 108.992188 59.523438 L 486.164062 59.523438 L 486.164062 436.695312 L 108.992188 436.695312 Z M 108.992188 59.523438 "/>
</clipPath>
<clipPath id="clip2">
  <path d="M 202 261 L 394 261 L 394 436.695312 L 202 436.695312 Z M 202 261 "/>
</clipPath>
<clipPath id="clip3">
  <path d="M 202 419 L 394 419 L 394 436.695312 L 202 436.695312 Z M 202 419 "/>
</clipPath>
<clipPath id="clip4">
  <path d="M 109 436.816406 L 486 436.816406 L 486 814 L 109 814 Z M 109 436.816406 "/>
</clipPath>
</defs>
<g id="surface1">
<g clip-path="url(#clip1)" clip-rule="nonzero">
<path style=" stroke:none;fill-rule:nonzero;fill:rgb(68.629456%,45.098877%,68.238831%);fill-opacity:1;" d="M 108.980469 59.511719 L 486.164062 59.511719 L 486.164062 436.695312 L 108.980469 436.695312 Z M 108.980469 59.511719 "/>
</g>
<path style=" stroke:none;fill-rule:nonzero;fill:rgb(19.999695%,5.879211%,17.649841%);fill-opacity:1;" d="M 252.589844 113.28125 C 252.589844 113.28125 225.242188 113.8125 224.625 167.753906 C 224.007812 221.691406 224.625 340.300781 224.625 340.300781 L 292.171875 337.832031 L 315.179688 294.597656 L 305.550781 209.96875 Z M 252.589844 113.28125 "/>
<path style=" stroke:none;fill-rule:nonzero;fill:rgb(96.078491%,67.449951%,62.348938%);fill-opacity:1;" d="M 344.152344 168.210938 C 338.742188 190.507812 329.863281 197.160156 322.945312 204.683594 C 321.640625 206.109375 320.367188 207.34375 319.109375 208.445312 C 318.808594 208.710938 318.492188 208.976562 318.191406 209.21875 C 314.804688 211.988281 321.082031 204.683594 317.34375 206.097656 C 314.609375 207.152344 310.207031 212.125 306.855469 213.066406 C 301.402344 214.601562 300.675781 213.285156 292.183594 215.390625 C 288.675781 216.261719 277.050781 222.367188 273.871094 223.144531 C 266.371094 224.957031 252.496094 229.554688 251.441406 229.722656 C 251.441406 229.722656 248.757812 225.089844 244.511719 210.527344 C 250.847656 208.480469 255.699219 204.429688 255.699219 204.429688 C 249.375 204.199219 244.835938 204.417969 242.792969 204.199219 C 242.417969 202.011719 242.019531 199.519531 241.621094 196.785156 C 240.859375 191.621094 240.09375 185.609375 239.453125 179.234375 C 239.140625 176.316406 238.863281 173.316406 238.621094 170.292969 C 236.359375 142.3125 248.734375 124.324219 262.28125 114.832031 C 268.074219 110.765625 274.085938 108.25 279.265625 107.171875 C 314.9375 99.722656 355.183594 122.597656 344.152344 168.210938 Z M 344.152344 168.210938 "/>
<path style=" stroke:none;fill-rule:nonzero;fill:rgb(96.078491%,67.449951%,62.348938%);fill-opacity:1;" d="M 279.976562 206.097656 L 315.191406 206.097656 L 315.191406 264.441406 L 279.976562 264.441406 Z M 279.976562 206.097656 "/>
<path style=" stroke:none;fill-rule:nonzero;fill:rgb(96.078491%,67.449951%,62.348938%);fill-opacity:1;" d="M 249.386719 194.558594 C 249.386719 194.558594 235.96875 199.300781 232.945312 195.140625 C 232.945312 195.140625 236.054688 190.578125 240.363281 172.90625 C 242.757812 163.070312 249.992188 189.429688 249.992188 189.429688 Z M 249.386719 194.558594 "/>
<path style=" stroke:none;fill-rule:nonzero;fill:rgb(19.999695%,5.879211%,17.649841%);fill-opacity:1;" d="M 317.34375 206.097656 C 246.132812 208.035156 250.667969 115.460938 250.667969 115.460938 C 272.007812 89.8125 320.40625 87.769531 346.050781 109.109375 C 371.695312 130.445312 375.238281 169.109375 353.902344 194.753906 C 345.09375 205.335938 332.949219 212.621094 319.472656 215.414062 C 319.472656 215.402344 327.082031 205.832031 317.34375 206.097656 Z M 317.34375 206.097656 "/>
<path style=" stroke:none;fill-rule:nonzero;fill:rgb(96.078491%,67.449951%,62.348938%);fill-opacity:1;" d="M 328.132812 175.398438 C 328.132812 182.546875 321.289062 197.824219 314.125 197.824219 C 306.976562 197.824219 302.234375 182.546875 302.234375 175.398438 C 302.234375 168.25 308.03125 162.453125 315.179688 162.453125 C 322.328125 162.453125 328.132812 168.25 328.132812 175.398438 Z M 328.132812 175.398438 "/>
<g clip-path="url(#clip2)" clip-rule="nonzero">
<path style=" stroke:none;fill-rule:nonzero;fill:rgb(90.589905%,19.999695%,23.139954%);fill-opacity:1;" d="M 393.335938 436.707031 L 202.488281 436.707031 C 202.488281 436.707031 202.585938 430.140625 202.765625 419.980469 C 202.851562 414.425781 202.960938 407.785156 203.078125 400.550781 C 203.175781 395.230469 203.273438 389.59375 203.371094 383.824219 C 203.492188 377.410156 203.613281 370.832031 203.734375 364.382812 C 203.84375 358.660156 203.949219 353.023438 204.058594 347.664062 C 204.191406 340.554688 204.339844 333.925781 204.472656 328.226562 C 204.652344 320.714844 204.820312 314.800781 204.953125 311.496094 C 205.015625 310.167969 205.0625 309.257812 205.113281 308.835938 C 205.800781 302.449219 206.925781 296.882812 208.5 292.070312 C 210.796875 284.980469 214.074219 279.488281 218.359375 275.339844 C 219.785156 273.949219 221.320312 272.714844 222.980469 271.613281 C 231.082031 266.242188 240.507812 262.734375 250.667969 261.707031 C 252.710938 261.5 254.792969 261.394531 256.898438 261.394531 L 338.257812 261.394531 C 340.363281 261.394531 342.445312 261.5 344.488281 261.707031 C 354.652344 262.734375 364.074219 266.242188 372.179688 271.613281 C 373.738281 272.644531 375.335938 273.902344 376.921875 275.339844 C 380.441406 278.523438 383.886719 282.5625 386.71875 286.929688 C 387.808594 288.609375 388.8125 290.328125 389.671875 292.070312 C 392.054688 296.835938 393.492188 301.722656 393.324219 306.113281 C 393.261719 307.84375 393.203125 309.632812 393.140625 311.496094 C 392.996094 316.648438 392.875 322.289062 392.804688 328.226562 C 392.707031 334.445312 392.65625 340.988281 392.632812 347.664062 C 392.609375 353.195312 392.609375 358.808594 392.621094 364.382812 C 392.621094 370.976562 392.65625 377.519531 392.695312 383.824219 C 392.707031 385.285156 392.71875 386.726562 392.730469 388.164062 L 392.765625 392.398438 C 392.777344 393.800781 392.792969 395.179688 392.804688 396.535156 L 392.839844 400.550781 C 392.910156 407.859375 392.996094 414.476562 393.070312 419.980469 C 393.214844 430.25 393.335938 436.707031 393.335938 436.707031 Z M 393.335938 436.707031 "/>
</g>
<g clip-path="url(#clip3)" clip-rule="nonzero">
<path style=" stroke:none;fill-rule:nonzero;fill:rgb(19.999695%,5.879211%,17.649841%);fill-opacity:1;" d="M 202.488281 436.707031 L 393.335938 436.707031 L 393.25 431.640625 L 393.226562 429.984375 L 393.140625 424.453125 L 393.09375 421.855469 L 393.070312 419.980469 L 202.765625 419.980469 Z M 202.488281 436.707031 "/>
</g>
<path style=" stroke:none;fill-rule:nonzero;fill:rgb(19.999695%,5.879211%,17.649841%);fill-opacity:1;" d="M 392.695312 383.824219 L 203.371094 383.824219 C 203.273438 389.59375 203.175781 395.230469 203.078125 400.550781 L 392.839844 400.550781 Z M 392.695312 383.824219 "/>
<path style=" stroke:none;fill-rule:nonzero;fill:rgb(19.999695%,5.879211%,17.649841%);fill-opacity:1;" d="M 392.621094 364.382812 L 203.734375 364.382812 C 203.84375 358.660156 203.949219 353.023438 204.058594 347.664062 L 392.632812 347.664062 C 392.609375 353.195312 392.609375 358.808594 392.621094 364.382812 Z M 392.621094 364.382812 "/>
<path style=" stroke:none;fill-rule:nonzero;fill:rgb(19.999695%,5.879211%,17.649841%);fill-opacity:1;" d="M 393.140625 311.496094 L 204.953125 311.496094 C 204.820312 314.800781 204.652344 320.714844 204.472656 328.226562 L 392.804688 328.226562 Z M 393.140625 311.496094 "/>
<path style=" stroke:none;fill-rule:nonzero;fill:rgb(19.999695%,5.879211%,17.649841%);fill-opacity:1;" d="M 389.671875 292.070312 L 208.5 292.070312 C 210.796875 284.980469 214.074219 279.488281 218.359375 275.339844 L 376.921875 275.339844 C 380.441406 278.523438 383.886719 282.5625 386.71875 286.929688 C 387.808594 288.609375 388.8125 290.328125 389.671875 292.070312 Z M 389.671875 292.070312 "/>
<path style=" stroke:none;fill-rule:nonzero;fill:rgb(100%,100%,100%);fill-opacity:1;" d="M 325.269531 261.394531 L 325.269531 237.019531 L 269.671875 237.019531 L 269.671875 261.394531 L 256.898438 261.394531 C 254.792969 261.394531 252.710938 261.5 250.667969 261.707031 C 251.054688 287.28125 271.910156 307.890625 297.578125 307.890625 C 323.246094 307.890625 344.101562 287.28125 344.488281 261.707031 C 342.445312 261.5 340.363281 261.394531 338.257812 261.394531 Z M 325.269531 261.394531 "/>
<path style=" stroke:none;fill-rule:nonzero;fill:rgb(19.999695%,5.879211%,17.649841%);fill-opacity:1;" d="M 324.492188 147.574219 L 297.917969 143.257812 L 297.917969 364.394531 C 297.917969 364.394531 367.859375 358.214844 367.859375 292.746094 C 367.859375 258.152344 367.859375 151.289062 367.859375 151.289062 Z M 324.492188 147.574219 "/>
<g clip-path="url(#clip4)" clip-rule="nonzero">
<path style=" stroke:none;fill-rule:nonzero;fill:rgb(54.899597%,32.159424%,100%);fill-opacity:1;" d="M 109.222656 436.804688 L 485.980469 436.804688 L 485.980469 813.5625 L 109.222656 813.5625 Z M 109.222656 436.804688 "/>
</g>
<path style=" stroke:none;fill-rule:nonzero;fill:rgb(96.078491%,67.449951%,62.348938%);fill-opacity:1;" d="M 251.089844 545.378906 C 256.140625 567.722656 273.828125 583.261719 280.753906 590.777344 C 288.484375 599.199219 286.46875 592.273438 296.484375 595.113281 C 309.496094 598.789062 339.753906 610.90625 344.40625 607.984375 C 344.40625 607.984375 347.714844 603.367188 351.136719 587.273438 C 343.425781 586.003906 335.113281 581.183594 335.113281 581.183594 C 341.421875 580.964844 349.179688 579.769531 352.695312 579.175781 C 354.109375 570.949219 355.460938 560.53125 356.523438 547.445312 C 359.75 507.5625 333.15625 488.191406 315.925781 484.398438 C 280.183594 476.53125 236.480469 480.75 251.089844 545.378906 Z M 251.089844 545.378906 "/>
<path style=" stroke:none;fill-rule:nonzero;fill:rgb(19.999695%,5.879211%,17.649841%);fill-opacity:1;" d="M 251.269531 548.910156 C 251.269531 548.910156 267.085938 533.273438 300.21875 541.222656 C 300.21875 541.222656 299.808594 511.066406 350.964844 513.566406 C 350.964844 513.566406 344.441406 482.683594 306.804688 481.230469 C 269.164062 479.78125 201.269531 488.046875 251.269531 548.910156 Z M 251.269531 548.910156 "/>
<path style=" stroke:none;fill-rule:nonzero;fill:rgb(96.078491%,67.449951%,62.348938%);fill-opacity:1;" d="M 319.117188 641.5 L 276.101562 641.5 L 276.101562 583.222656 L 319.117188 583.222656 Z M 319.117188 641.5 "/>
<path style=" stroke:none;fill-rule:nonzero;fill:rgb(96.078491%,67.449951%,62.348938%);fill-opacity:1;" d="M 354.035156 570.476562 C 354.035156 570.476562 359.773438 571.203125 363.253906 567.433594 C 363.253906 567.433594 358.746094 557.320312 356.511719 547.457031 C 354.289062 537.597656 346.714844 566.078125 346.714844 566.078125 Z M 354.035156 570.476562 "/>
<path style=" stroke:none;fill-rule:nonzero;fill:rgb(96.078491%,67.449951%,62.348938%);fill-opacity:1;" d="M 292.957031 552.558594 C 292.957031 553.40625 292.875 554.246094 292.707031 555.078125 C 292.542969 555.914062 292.296875 556.722656 291.972656 557.503906 C 291.648438 558.289062 291.25 559.035156 290.777344 559.742188 C 290.304688 560.445312 289.769531 561.097656 289.167969 561.699219 C 288.570312 562.300781 287.914062 562.835938 287.210938 563.308594 C 286.503906 563.78125 285.757812 564.175781 284.976562 564.503906 C 284.191406 564.828125 283.382812 565.074219 282.550781 565.238281 C 281.71875 565.402344 280.875 565.488281 280.027344 565.488281 C 279.179688 565.488281 278.335938 565.402344 277.503906 565.238281 C 276.671875 565.074219 275.863281 564.828125 275.078125 564.503906 C 274.296875 564.175781 273.550781 563.78125 272.84375 563.308594 C 272.136719 562.835938 271.484375 562.300781 270.886719 561.699219 C 270.285156 561.097656 269.75 560.445312 269.277344 559.742188 C 268.804688 559.035156 268.40625 558.289062 268.082031 557.503906 C 267.757812 556.722656 267.511719 555.914062 267.347656 555.078125 C 267.179688 554.246094 267.097656 553.40625 267.097656 552.558594 C 267.097656 551.707031 267.179688 550.867188 267.347656 550.035156 C 267.511719 549.203125 267.757812 548.394531 268.082031 547.609375 C 268.40625 546.824219 268.804688 546.082031 269.277344 545.375 C 269.75 544.667969 270.285156 544.015625 270.886719 543.414062 C 271.484375 542.816406 272.136719 542.28125 272.84375 541.808594 C 273.550781 541.335938 274.296875 540.9375 275.078125 540.613281 C 275.863281 540.289062 276.671875 540.042969 277.503906 539.878906 C 278.335938 539.710938 279.179688 539.628906 280.027344 539.628906 C 280.875 539.628906 281.71875 539.710938 282.550781 539.878906 C 283.382812 540.042969 284.191406 540.289062 284.976562 540.613281 C 285.757812 540.9375 286.503906 541.335938 287.210938 541.808594 C 287.914062 542.28125 288.570312 542.816406 289.167969 543.414062 C 289.769531 544.015625 290.304688 544.667969 290.777344 545.375 C 291.25 546.082031 291.648438 546.824219 291.972656 547.609375 C 292.296875 548.394531 292.542969 549.203125 292.707031 550.035156 C 292.875 550.867188 292.957031 551.707031 292.957031 552.558594 Z M 292.957031 552.558594 "/>
<path style=" stroke:none;fill-rule:nonzero;fill:rgb(100%,100%,100%);fill-opacity:1;" d="M 399.867188 700.066406 L 399.867188 813.996094 L 195.363281 813.996094 L 195.363281 700.066406 C 195.363281 698.484375 195.410156 696.902344 195.542969 695.355469 C 196.074219 688.429688 197.753906 681.832031 200.386719 675.730469 C 205.183594 664.675781 213.136719 655.273438 223.09375 648.664062 C 232.820312 642.214844 244.46875 638.457031 256.972656 638.457031 L 338.242188 638.457031 C 350.75 638.457031 362.398438 642.214844 372.125 648.664062 C 382.082031 655.273438 390.03125 664.675781 394.828125 675.730469 C 397.460938 681.832031 399.140625 688.429688 399.671875 695.355469 C 399.804688 696.902344 399.867188 698.484375 399.867188 700.066406 Z M 399.867188 700.066406 "/>
<path style=" stroke:none;fill-rule:nonzero;fill:rgb(100%,100%,100%);fill-opacity:1;" d="M 265.636719 629.960938 L 329.578125 629.960938 C 331.996094 629.960938 333.976562 627.980469 333.976562 625.5625 L 333.976562 621.925781 C 333.976562 619.507812 331.996094 617.527344 329.578125 617.527344 L 265.636719 617.527344 C 263.21875 617.527344 261.238281 619.507812 261.238281 621.925781 L 261.238281 625.5625 C 261.238281 627.980469 263.21875 629.960938 265.636719 629.960938 Z M 265.636719 629.960938 "/>
<path style=" stroke:none;fill-rule:nonzero;fill:rgb(100%,100%,100%);fill-opacity:1;" d="M 269.417969 627.242188 L 325.726562 627.242188 L 325.726562 653.171875 L 269.417969 653.171875 Z M 269.417969 627.242188 "/>
<path style=" stroke:none;fill-rule:nonzero;fill:rgb(19.999695%,5.879211%,17.649841%);fill-opacity:1;" d="M 348.113281 486.355469 L 348.113281 454.300781 C 360.851562 456.679688 375.144531 473.390625 375.144531 486.355469 C 375.144531 501.179688 362.941406 513.386719 348.113281 513.386719 C 334.050781 513.386719 322.207031 502.414062 321.15625 488.386719 Z M 348.113281 486.355469 "/>
<path style=" stroke:none;fill-rule:nonzero;fill:rgb(19.999695%,5.879211%,17.649841%);fill-opacity:1;" d="M 320.214844 492.699219 L 287.46875 504.394531 C 281.054688 486.425781 290.550781 466.371094 308.519531 459.953125 C 326.484375 453.539062 346.542969 463.035156 352.960938 481.003906 C 355.339844 487.660156 355.628906 494.886719 353.792969 501.710938 Z M 320.214844 492.699219 "/>
<path style=" stroke:none;fill-rule:nonzero;fill:rgb(19.999695%,5.879211%,17.649841%);fill-opacity:1;" d="M 250.21875 541.222656 C 250.21875 541.222656 226.4375 518 233.6875 490.390625 L 236.769531 493.628906 C 236.769531 493.628906 245.832031 454.867188 306.851562 460.59375 L 289.367188 499.03125 L 251.570312 511.199219 L 254.808594 527.714844 Z M 250.21875 541.222656 "/>
<path style=" stroke:none;fill-rule:nonzero;fill:rgb(19.999695%,5.879211%,17.649841%);fill-opacity:1;" d="M 269.417969 638.457031 L 269.417969 813.996094 L 195.363281 813.996094 L 195.363281 700.066406 C 195.363281 698.484375 195.410156 696.902344 195.542969 695.355469 C 196.074219 688.429688 197.753906 681.832031 200.386719 675.730469 C 205.183594 664.675781 213.136719 655.273438 223.09375 648.664062 C 232.820312 642.214844 244.46875 638.457031 256.972656 638.457031 Z M 269.417969 638.457031 "/>
<path style=" stroke:none;fill-rule:nonzero;fill:rgb(19.999695%,5.879211%,17.649841%);fill-opacity:1;" d="M 399.867188 700.066406 L 399.867188 813.996094 L 325.726562 813.996094 L 325.726562 638.457031 L 338.242188 638.457031 C 350.75 638.457031 362.398438 642.214844 372.125 648.664062 C 382.082031 655.273438 390.03125 664.675781 394.828125 675.730469 C 397.460938 681.832031 399.140625 688.429688 399.671875 695.355469 C 399.804688 696.902344 399.867188 698.484375 399.867188 700.066406 Z M 399.867188 700.066406 "/>
</g>
</svg>
