<?xml version="1.0" encoding="UTF-8" standalone="no"?> <svg id="Layer_1" data-name="Layer 1" xmlns="http://www.w3.org/2000/svg" viewBox="0 0 128 128"><defs><style>.cls-1{fill:#1d75b8;}.cls-2{fill:#2d3e50;}</style></defs><title>b</title><circle class="cls-1" cx="97.59581" cy="45.00986" r="4.78073"/><circle class="cls-1" cx="75.1127" cy="45.00986" r="4.78077"/><circle class="cls-1" cx="52.62993" cy="45.00986" r="4.7808"/><circle class="cls-1" cx="30.14685" cy="45.00986" r="4.7808"/><circle class="cls-1" cx="97.59581" cy="67.49301" r="4.78073"/><circle class="cls-1" cx="75.1127" cy="67.49301" r="4.78077"/><circle class="cls-1" cx="30.14685" cy="67.49301" r="4.7808"/><circle class="cls-1" cx="97.59581" cy="89.97581" r="4.78073"/><circle class="cls-1" cx="75.1127" cy="89.97581" r="4.78077"/><circle class="cls-1" cx="52.62993" cy="89.97581" r="4.7808"/><circle class="cls-1" cx="30.14685" cy="89.97581" r="4.7808"/><path class="cls-1" d="M52.62937,77.13467a9.641,9.641,0,1,1,9.641-9.641A9.65191,9.65191,0,0,1,52.62937,77.13467Zm0-15.86887a6.22783,6.22783,0,1,0,6.22783,6.22783A6.23488,6.23488,0,0,0,52.62937,61.2658Z"/><path class="cls-2" d="M114.30575,14.682H96.89554V12.671a5.19235,5.19235,0,1,0-10.38469,0v2.011H69.16036V12.671a5.198,5.198,0,0,0-5.15823-5.19351V7.47725L64,7.47737l-.00214-.00012v.00024A5.198,5.198,0,0,0,58.83964,12.671v2.011H41.48915V12.671a5.19235,5.19235,0,1,0-10.38469,0v2.011H13.69425A11.895,11.895,0,0,0,1.81343,26.56277v82.07917a11.895,11.895,0,0,0,11.88082,11.8808H114.30575a11.895,11.895,0,0,0,11.88082-11.8808V26.56277A11.895,11.895,0,0,0,114.30575,14.682Zm1.49613,93.96a1.498,1.498,0,0,1-1.49613,1.49613H13.69425a1.498,1.498,0,0,1-1.49613-1.49613V26.56277a1.498,1.498,0,0,1,1.49613-1.49613H31.10446v2.0138a5.19235,5.19235,0,1,0,10.38469,0v-2.0138H58.83964v2.0138A5.1998,5.1998,0,0,0,63.99787,32.274v.00024L64,32.2741l.00212.00012V32.274a5.1998,5.1998,0,0,0,5.15823-5.19353v-2.0138H86.51085v2.0138a5.19235,5.19235,0,1,0,10.38469,0v-2.0138h17.41021a1.498,1.498,0,0,1,1.49613,1.49613Z"/></svg>