<?xml version="1.0" encoding="UTF-8"?>
<svg xmlns="http://www.w3.org/2000/svg" xmlns:xlink="http://www.w3.org/1999/xlink" width="1440pt" height="809.999993pt" viewBox="0 0 1440 809.999993" version="1.2">
<defs>
<clipPath id="clip1">
  <path d="M 294 0 L 1440 0 L 1440 810 L 294 810 Z M 294 0 "/>
</clipPath>
<clipPath id="clip2">
  <path d="M 227.6875 664.144531 L 1654.996094 -224.804688 L 1941.269531 234.839844 L 513.957031 1123.785156 Z M 227.6875 664.144531 "/>
</clipPath>
<clipPath id="clip3">
  <path d="M 227.6875 664.144531 L 1654.996094 -224.804688 L 1941.269531 234.839844 L 513.957031 1123.785156 Z M 227.6875 664.144531 "/>
</clipPath>
<clipPath id="clip4">
  <path d="M 1424.9375 333.21875 C 1355.148438 376.683594 1168.304688 385.128906 1064.839844 389.613281 C 1042.449219 390.59375 1023.265625 391.519531 1009.273438 392.457031 C 928.050781 398.320312 897.417969 436.519531 858.230469 484.910156 C 822.691406 528.757812 782.394531 578.484375 693.515625 617.3125 C 628.148438 646.03125 585.414062 623.710938 544.339844 601.972656 C 514.890625 586.933594 487.332031 572.335938 452.199219 575.742188 C 359.574219 585.144531 343.316406 642.261719 327.496094 697.488281 C 319.707031 725.027344 312.265625 751.050781 295.910156 771.605469 L 294.195312 770.40625 C 310.078125 750.144531 317.519531 724.117188 325.222656 696.957031 C 341.363281 641.210938 358.03125 583.1875 451.882812 573.671875 C 487.480469 569.976562 515.5625 584.894531 545.160156 600.167969 C 585.941406 621.4375 628.152344 643.4375 692.585938 615.296875 C 780.996094 576.761719 821.0625 527.179688 856.363281 483.476562 C 894.210938 436.574219 926.886719 396.453125 1008.957031 390.386719 C 1022.804688 389.214844 1042.132812 388.523438 1064.523438 387.539062 C 1175.101562 382.519531 1380.511719 373.203125 1436.117188 322.042969 C 1448.054688 311.042969 1460.605469 299.984375 1473.710938 288.257812 C 1533.339844 235.238281 1601.199219 175.148438 1630.707031 106.535156 C 1633.75 99.457031 1636.558594 92.523438 1639.597656 85.441406 C 1665.101562 25.484375 1691.042969 -36.371094 1744.960938 -69.953125 C 1745.660156 -70.386719 1746.363281 -70.824219 1747.296875 -71.40625 L 1748.460938 -69.539062 C 1747.757812 -69.101562 1747.058594 -68.664062 1746.359375 -68.230469 C 1692.90625 -34.9375 1667.054688 26.535156 1642.015625 86.207031 C 1638.976562 93.285156 1636.167969 100.21875 1633.125 107.300781 C 1603.296875 176.4375 1535.4375 236.523438 1475.71875 289.921875 C 1462.613281 301.648438 1450.0625 312.707031 1438.125 323.707031 C 1433.980469 326.9375 1429.839844 330.164062 1424.9375 333.21875 Z M 1396.816406 346.84375 C 1404.375 341.8125 1412.164062 336.636719 1420.1875 331.316406 C 1501.59375 277.371094 1593.679688 216.132812 1638.351562 123.492188 C 1645.601562 108.605469 1652.359375 92.40625 1658.9375 76.964844 C 1681.71875 23.558594 1705.175781 -31.886719 1752.558594 -61.394531 C 1752.792969 -61.542969 1753.027344 -61.6875 1753.257812 -61.832031 L 1752.09375 -63.699219 C 1751.863281 -63.554688 1751.628906 -63.410156 1751.394531 -63.265625 C 1703.3125 -33.316406 1679.855469 22.125 1656.984375 75.910156 C 1650.40625 91.351562 1643.503906 107.316406 1636.398438 122.4375 C 1592.050781 214.554688 1499.964844 275.796875 1419.023438 329.445312 C 1411 334.769531 1403.210938 339.945312 1395.652344 344.976562 C 1394.253906 345.847656 1393.085938 346.574219 1391.683594 347.445312 C 1310.222656 398.179688 1089.398438 422.28125 1005.167969 431.636719 L 1004.175781 431.605469 C 926.15625 440.011719 888.9375 476.480469 846.203125 518.652344 C 807.875 556.460938 764.671875 598.921875 682.359375 632.6875 C 622.535156 657.304688 581.722656 637.027344 541.957031 617.394531 C 512.796875 602.820312 485.210938 589.214844 450.980469 593.03125 C 362.140625 603.3125 347.457031 661.398438 333.359375 717.820312 C 326.734375 744.632812 320.226562 770.074219 305.972656 789.324219 L 307.691406 790.519531 C 322.265625 770.75 328.539062 745.453125 335.398438 718.492188 C 349.320312 662.828125 363.832031 605.503906 451.589844 595.570312 C 485.292969 591.429688 512.648438 605.183594 541.664062 619.519531 C 581.574219 639.390625 622.910156 659.988281 683.667969 634.789062 C 766.214844 600.878906 809.738281 557.890625 848.210938 520.316406 C 890.710938 478.289062 927.464844 442.113281 1004.871094 433.765625 L 1005.863281 433.796875 C 1090.09375 424.441406 1311.300781 400.429688 1393.226562 349.402344 C 1394.394531 348.675781 1395.792969 347.804688 1396.816406 346.84375 Z M 1644.1875 139.625 C 1654.5625 119.875 1663.164062 98.3125 1671.96875 77.597656 C 1692.996094 26.582031 1714.613281 -26.09375 1758.816406 -53.949219 L 1757.652344 -55.816406 C 1712.75 -27.527344 1690.902344 25.296875 1669.78125 76.691406 C 1661.359375 97.496094 1652.378906 118.96875 1642.238281 138.570312 C 1580.535156 256.402344 1462.507812 315.003906 1358.28125 366.628906 L 1355.101562 368.285156 C 1265.195312 413.261719 1081.5625 461.191406 999.308594 473.207031 C 925.335938 483.949219 883.898438 516.242188 836.125 553.449219 C 795.152344 585.449219 748.636719 621.550781 672.421875 650.542969 C 617.066406 671.410156 577.648438 652.851562 539.28125 634.941406 C 510.46875 621.449219 483.316406 608.542969 450.605469 612.710938 C 365.640625 623.496094 352.46875 684.527344 340.878906 738.738281 C 335.566406 765.058594 330.226562 789.773438 317.609375 808.003906 L 319.328125 809.203125 C 332.179688 790.828125 337.605469 765.730469 343.152344 739.265625 C 355.183594 683.160156 367.652344 625.160156 451.15625 614.636719 C 483.023438 610.671875 510.027344 623.34375 538.695312 636.601562 C 577.207031 654.746094 617.382812 673.480469 673.441406 652.175781 C 749.886719 623.039062 796.636719 586.792969 837.609375 554.792969 C 885.148438 517.730469 926.355469 485.585938 999.714844 474.898438 C 1081.96875 462.882812 1265.832031 414.808594 1355.972656 369.6875 L 1359.152344 368.03125 C 1399.757812 347.925781 1442.609375 326.746094 1483.226562 301.453125 C 1547.324219 261.855469 1606.25 211.867188 1644.1875 139.625 Z M 1650.027344 155.757812 C 1662.707031 132.953125 1672.742188 106.933594 1682.515625 82.050781 C 1702.816406 29.863281 1722.039062 -19.375 1764.082031 -46.535156 L 1762.917969 -48.402344 C 1743.691406 -36.101562 1727.488281 -17.910156 1713.195312 7.519531 C 1700.367188 30.09375 1690.332031 56.113281 1680.707031 81.230469 C 1670.9375 106.113281 1660.992188 131.753906 1648.308594 154.558594 C 1574.722656 286.597656 1448.710938 341.746094 1315.015625 391.308594 C 1279.664062 404.25 1239.90625 421.558594 1197.992188 439.558594 C 1124.136719 471.296875 1047.804688 504.253906 994.996094 514.132812 C 925.917969 527.015625 880.199219 554.515625 827.246094 586.527344 C 783.542969 613.097656 733.621094 643.214844 662.898438 667.496094 C 612.148438 684.839844 574.128906 668.007812 537.160156 651.820312 C 508.605469 639.785156 481.804688 627.957031 450.695312 632.101562 C 369.988281 643.476562 359 705.414062 349.304688 760.066406 C 344.78125 785.570312 340.375 809.707031 329.621094 826.773438 L 331.339844 827.972656 C 342.558594 810.613281 346.820312 786.246094 351.578125 760.597656 C 361.328125 706.554688 372.140625 645.375 451.390625 634.261719 C 481.886719 630.175781 508.546875 641.769531 536.777344 654.324219 C 573.894531 670.75 612.667969 687.757812 663.882812 670.121094 C 734.84375 645.695312 784.761719 615.578125 828.703125 588.859375 C 881.421875 556.996094 926.761719 529.410156 995.605469 516.671875 C 1048.410156 506.792969 1124.980469 473.691406 1199.066406 441.808594 C 1240.984375 423.804688 1280.742188 406.496094 1316.089844 393.554688 C 1381.394531 369.414062 1444.976562 344.070312 1501.464844 308.890625 C 1560.460938 271.5 1612.0625 223.800781 1650.027344 155.757812 Z M 1655.628906 172.039062 C 1670.53125 146.550781 1681.359375 117.125 1691.777344 88.597656 C 1710.765625 36.90625 1728.527344 -12.074219 1769.171875 -38.363281 L 1768.007812 -40.230469 C 1726.808594 -13.273438 1708.8125 35.851562 1689.734375 87.921875 C 1679.320312 116.449219 1668.726562 145.734375 1653.679688 170.984375 C 1562.980469 326 1410.125 378.09375 1274.226562 414.765625 C 1217.363281 430.089844 1165.777344 462.214844 1115.683594 493.09375 C 1071.101562 520.859375 1028.941406 546.792969 989.894531 555.878906 C 926.878906 570.167969 875.484375 593.753906 820.992188 618.617188 C 771.140625 641.5625 719.511719 665.292969 652.347656 685.40625 C 606.589844 699.320312 570.203125 684.066406 535.007812 669.6875 C 506.601562 657.886719 479.765625 647.050781 450.027344 651.316406 C 373.429688 663.046875 364.773438 726.125 356.882812 781.597656 C 353.527344 806.375 350.140625 829.550781 340.878906 845.367188 L 342.832031 846.417969 C 352.328125 830.457031 355.417969 806.816406 359.011719 781.894531 C 366.722656 727.179688 375.582031 664.945312 450.488281 653.621094 C 479.707031 649.035156 506.304688 660.015625 534.332031 671.726562 C 570.050781 686.429688 606.675781 701.539062 653.042969 687.566406 C 720.441406 667.304688 772.070312 643.574219 821.921875 620.628906 C 876.035156 595.679688 927.429688 572.09375 990.445312 557.804688 C 1029.871094 548.804688 1072.121094 522.492188 1116.847656 494.960938 C 1166.5625 463.996094 1218.292969 432.101562 1274.546875 416.835938 C 1350.570312 396.386719 1431.9375 370.988281 1504.765625 325.632812 C 1562.648438 289.582031 1615.277344 240.921875 1655.628906 172.039062 Z M 1661.234375 188.316406 C 1678.265625 160.53125 1689.417969 127.984375 1700.160156 96.339844 C 1717.78125 44.527344 1734.699219 -4.25 1773.972656 -30.65625 L 1772.808594 -32.523438 C 1732.832031 -5.683594 1716.0625 43.328125 1697.976562 95.429688 C 1687.085938 126.84375 1675.9375 159.390625 1659.136719 187.03125 C 1611.394531 265.378906 1548.550781 323.640625 1466.988281 365.367188 C 1389.535156 404.851562 1305.378906 424.210938 1233.53125 437.84375 C 1166.902344 450.496094 1121.71875 492.898438 1081.730469 530.121094 C 1050.378906 559.367188 1020.753906 587.21875 984.972656 596.863281 C 935.714844 610.363281 888.761719 625.996094 839.179688 642.617188 C 778.109375 663.152344 715.113281 684.234375 642.121094 702.796875 C 601.351562 713.277344 566.507812 699.980469 533.175781 687.035156 C 504.738281 676.222656 477.960938 666 449.503906 670.761719 C 377.164062 683.082031 370.21875 749.957031 364.753906 803.597656 C 362.273438 827.179688 360.054688 849.628906 352.511719 864.046875 L 354.320312 864.867188 C 361.949219 850.066406 364.164062 827.621094 366.734375 803.660156 C 372.640625 748.125 378.9375 684.894531 450.199219 672.921875 C 478.046875 668.21875 504.824219 678.441406 532.878906 689.160156 C 566.824219 702.050781 601.816406 715.582031 643.195312 705.042969 C 716.1875 686.484375 779.183594 665.398438 840.253906 644.863281 C 889.835938 628.242188 936.644531 612.378906 986.046875 599.109375 C 1022.0625 589.320312 1051.921875 561.324219 1083.738281 531.785156 C 1123.492188 494.710938 1168.445312 452.453125 1234.605469 440.089844 C 1306.6875 426.3125 1390.988281 407.1875 1468.675781 367.554688 C 1482.007812 360.871094 1494.667969 353.636719 1506.804688 346.074219 C 1570.003906 306.066406 1620.972656 254.230469 1661.234375 188.316406 Z M 1667.070312 204.453125 C 1685.914062 174.890625 1697.246094 138.988281 1708.222656 104.605469 C 1724.941406 52.382812 1740.722656 3.339844 1779.382812 -23.007812 L 1778.367188 -24.640625 C 1739.238281 1.996094 1723.136719 51.566406 1706.5625 104.019531 C 1695.585938 138.402344 1684.109375 174.070312 1665.496094 203.488281 C 1545.335938 393.378906 1367.710938 439.511719 1193.589844 461.097656 C 1119.589844 470.242188 1086.464844 520.039062 1057.339844 563.78125 C 1035.578125 596.457031 1015.246094 627.269531 980.949219 638.261719 C 879.136719 670.882812 752.964844 696.636719 632.886719 720.214844 C 597.105469 727.265625 564.414062 715.867188 532.859375 704.730469 C 504.101562 694.445312 476.914062 685.125 449.59375 690.152344 C 380.894531 703.121094 376.660156 771.222656 373.292969 826.152344 C 371.890625 849.386719 370.578125 869.648438 364.761719 882.671875 L 366.566406 883.492188 C 372.472656 870.089844 373.785156 849.828125 375.273438 826.210938 C 378.847656 772.132812 382.90625 704.785156 450.144531 692.078125 C 477.085938 686.964844 503.804688 696.574219 532.417969 706.625 C 564.355469 717.851562 597.191406 729.484375 633.582031 722.375 C 753.894531 698.648438 879.832031 673.039062 981.878906 640.273438 C 1016.789062 629.226562 1037.441406 597.890625 1059.4375 565.070312 C 1088.328125 521.472656 1121.132812 472.195312 1194.285156 463.257812 C 1301.613281 449.890625 1410.054688 427.398438 1505.988281 367.648438 C 1565.21875 330.113281 1620.617188 278.109375 1667.070312 204.453125 Z M 1672.441406 220.878906 C 1693.09375 189.539062 1704.429688 151.042969 1715.734375 113.539062 C 1731.546875 60.910156 1746.511719 11.078125 1784.328125 -15.066406 L 1783.308594 -16.703125 C 1744.792969 9.878906 1729.742188 60.089844 1713.839844 113.097656 C 1702.621094 150.226562 1691.289062 188.722656 1670.867188 219.914062 C 1533.363281 430.328125 1340.46875 471.710938 1152.570312 484.703125 C 1072.046875 490.128906 1052.148438 546.601562 1034.585938 596.425781 C 1021.710938 632.96875 1009.507812 667.46875 975.847656 680.003906 C 903.28125 707.050781 794.707031 718.929688 698.84375 729.371094 C 671.816406 732.269531 646.390625 735.140625 622.714844 738.21875 C 592.453125 742.15625 562.378906 732.367188 533.214844 722.984375 C 503.375 713.046875 475.257812 704.308594 448.839844 709.742188 C 383.929688 723.59375 382.371094 796.515625 381.1875 849.753906 C 380.75 871.414062 380.40625 890.105469 376.160156 901.496094 L 378.203125 902.171875 C 382.53125 890.398438 383.113281 871.566406 383.40625 849.667969 C 384.734375 794.070312 386.171875 725.113281 449.390625 711.667969 C 475.429688 706.144531 503.082031 715.175781 532.628906 724.644531 C 561.796875 734.027344 592.246094 743.90625 623.121094 739.910156 C 646.796875 736.832031 672.367188 734.195312 699.25 731.0625 C 795.347656 720.476562 904.15625 708.449219 976.722656 681.40625 C 1011.226562 668.664062 1023.605469 633.40625 1036.570312 596.488281 C 1054.714844 545 1073.675781 491.707031 1152.832031 486.160156 C 1272.363281 477.828125 1394.15625 458.042969 1502.226562 390.734375 C 1564.457031 352.300781 1621.992188 297.996094 1672.441406 220.878906 Z M 1678.277344 237.011719 C 1700.507812 204.042969 1712.078125 162.808594 1723.152344 122.855469 C 1738.152344 69.433594 1752.214844 19.195312 1789.652344 -7.039062 L 1788.632812 -8.675781 C 1750.496094 17.996094 1736.492188 68.847656 1721.257812 122.414062 C 1710.039062 162.132812 1698.703125 203.226562 1676.707031 236.046875 C 1607.210938 339.285156 1523.449219 410.25 1420.019531 453.277344 C 1336.308594 487.914062 1241.308594 504.949219 1112.484375 507.722656 C 1025.960938 509.757812 1019.464844 569.546875 1013.265625 627.207031 C 1008.953125 668.136719 1004.789062 706.703125 971.304688 721.078125 C 904.332031 749.824219 780.027344 752.054688 680.386719 753.832031 C 655.722656 754.28125 632.664062 754.707031 612.722656 755.460938 C 588.117188 756.523438 561.425781 748.519531 535.636719 740.921875 C 504.019531 731.765625 474.53125 722.910156 448.316406 729.191406 C 386.816406 743.835938 388.460938 819.296875 389.433594 874.433594 C 389.902344 893.910156 390.230469 910.5625 387.5625 920.324219 L 389.457031 920.765625 C 392.210938 910.621094 391.738281 893.738281 391.503906 874.117188 C 390.355469 819.738281 389.058594 745.355469 448.722656 730.882812 C 474.089844 724.804688 503.8125 733.515625 534.816406 742.726562 C 560.605469 750.324219 587.53125 758.1875 612.515625 757.210938 C 632.457031 756.457031 655.515625 756.03125 680.179688 755.578125 C 780.199219 753.890625 904.503906 751.660156 971.941406 722.625 C 1006.128906 707.816406 1010.46875 668.488281 1015.101562 627.035156 C 1021.125 570.132812 1027.589844 511.335938 1112.277344 509.472656 C 1241.570312 506.40625 1336.714844 489.605469 1420.660156 454.824219 C 1448.25 443.472656 1474.535156 430.019531 1499.511719 414.464844 C 1568.367188 371.582031 1627.332031 312.816406 1678.277344 237.011719 Z M 1684.117188 253.144531 C 1707.921875 218.550781 1719.496094 174.71875 1730.574219 132.167969 C 1744.523438 78.105469 1758.003906 26.929688 1795.0625 0.609375 L 1794.046875 -1.027344 C 1756.433594 25.964844 1743.097656 77.375 1728.679688 131.726562 C 1717.691406 173.898438 1706.261719 217.964844 1682.542969 252.179688 C 1605.777344 363.511719 1514.546875 439.128906 1403.859375 482.464844 C 1313.789062 517.820312 1208.386719 533.230469 1071.933594 531.035156 C 1041.121094 530.457031 1019.773438 537.269531 1006.195312 551.882812 C 983.863281 575.839844 987.625 617.25 991.503906 657.289062 C 995.667969 702.984375 999.835938 746.085938 966.667969 762.53125 C 899.167969 796.144531 733.050781 783.257812 633.625 775.5 C 622.433594 774.691406 611.851562 773.828125 602.785156 773.316406 C 584.511719 772.058594 563.847656 766.453125 541.90625 760.351562 C 508.6875 751.222656 474.332031 741.832031 447.9375 748.871094 C 389.148438 764.746094 394.863281 846.746094 398.464844 900.894531 C 399.492188 917.109375 400.433594 931.105469 399.34375 939.238281 L 401.472656 939.535156 C 402.792969 931.253906 401.707031 917.023438 400.679688 900.8125 C 397.136719 847.273438 391.769531 766.351562 448.722656 750.652344 C 474.503906 743.667969 508.859375 753.0625 541.699219 762.097656 C 563.644531 768.203125 584.304688 773.808594 602.8125 774.917969 C 612.023438 775.664062 622.460938 776.296875 633.652344 777.101562 C 733.078125 784.859375 899.804688 797.691406 967.542969 763.933594 C 969.085938 763.292969 970.488281 762.421875 971.886719 761.550781 C 1001.53125 743.085938 997.710938 701.066406 993.429688 656.738281 C 989.839844 617.164062 985.992188 576.136719 1007.769531 552.847656 C 1020.789062 538.90625 1041.90625 532.234375 1071.960938 532.640625 C 1208.792969 534.921875 1314.429688 519.363281 1404.730469 483.867188 C 1436.785156 471.355469 1467.09375 456.042969 1496.039062 438.019531 C 1567.140625 394.058594 1629.316406 332.648438 1684.117188 253.144531 Z M 970.710938 685.796875 C 959.515625 642.859375 947.917969 598.226562 967.421875 574.410156 C 978.839844 560.496094 999.402344 554.496094 1030.792969 556.007812 C 1177.007812 563.46875 1290.601562 549.761719 1388.105469 513.34375 C 1506.226562 468.941406 1604.984375 389.285156 1689.574219 269.191406 C 1715.101562 233.199219 1726.300781 186.683594 1737.148438 141.683594 C 1750.519531 86.6875 1762.949219 34.871094 1799.71875 8.082031 L 1798.464844 6.59375 C 1761.230469 33.671875 1748.476562 86.015625 1735.253906 141.242188 C 1724.40625 186.242188 1713.0625 232.523438 1688 268.226562 C 1603.734375 387.796875 1505.355469 467.542969 1387.320312 511.5625 C 1290.195312 548.070312 1176.835938 561.632812 1030.855469 554.027344 C 998.703125 552.335938 977.675781 558.625 965.9375 573.066406 C 945.878906 597.554688 957.535156 642.796875 968.785156 686.347656 C 981.746094 736.289062 993.953125 783.457031 962.910156 802.789062 C 962.445312 803.082031 961.976562 803.371094 961.511719 803.664062 C 932.917969 820.171875 870.5 825.019531 781.132812 817.804688 C 712.546875 812.230469 637.058594 800.257812 592.414062 790.472656 C 582.710938 788.414062 571.285156 785.15625 559.105469 781.722656 C 522.332031 771.570312 476.171875 758.835938 447.125 767.851562 C 390.867188 785.710938 402.253906 879.414062 408.246094 930.128906 C 409.773438 942.464844 410.929688 952.117188 410.746094 958.066406 L 412.726562 958.125 C 412.765625 951.945312 411.613281 942.292969 410.085938 929.957031 C 404.058594 880.234375 392.878906 787.378906 447.96875 770.242188 C 476.402344 761.285156 522.183594 773.929688 558.722656 784.230469 C 570.902344 787.664062 582.328125 790.917969 592.265625 792.832031 C 666.402344 808.882812 893.53125 845.351562 962.585938 805.910156 C 963.054688 805.617188 963.519531 805.328125 963.988281 805.035156 C 996.285156 784.597656 983.410156 734.277344 970.710938 685.796875 Z M 958.128906 846.605469 C 991.859375 824.300781 969.402344 767.957031 947.640625 713.777344 C 929.078125 667.324219 909.875 619.328125 927.632812 595.304688 C 937.738281 581.882812 958.121094 576.640625 990.476562 579.175781 C 1146.066406 591.8125 1267.382812 580.101562 1371.941406 542.53125 C 1497.414062 497.441406 1603.175781 413.425781 1695.410156 285.324219 C 1722.28125 247.847656 1733.484375 198.738281 1744.101562 151.289062 C 1756.65625 95.503906 1768.507812 42.753906 1804.894531 15.875 L 1804.023438 14.472656 C 1766.933594 41.789062 1754.996094 94.917969 1742.355469 151.082031 C 1731.589844 198.296875 1720.621094 247.261719 1693.839844 284.359375 C 1601.921875 411.933594 1496.394531 495.808594 1371.304688 540.984375 C 1266.976562 578.410156 1145.894531 589.976562 990.683594 577.425781 C 957.570312 574.714844 936.484375 580.390625 926.058594 594.339844 C 907.660156 619.410156 926.078125 665.628906 945.863281 714.558594 C 967.1875 768.042969 989.292969 823.304688 957.109375 844.96875 C 922.59375 868.089844 826.871094 858.996094 773.070312 851.671875 C 690.613281 840.472656 613.535156 820.746094 582.945312 808.035156 C 553.636719 795.824219 482.011719 774.96875 446.980469 787.386719 C 390.34375 807.753906 412.222656 922.464844 420.441406 965.3125 C 421.367188 969.921875 422.238281 973.917969 422.613281 976.601562 L 424.683594 976.285156 C 424.164062 973.367188 423.4375 969.605469 422.511719 964.996094 C 414.4375 922.382812 392.816406 809.128906 447.679688 789.542969 C 479.089844 778.082031 545.125 794.644531 582.039062 810.222656 C 646.6875 837.042969 894.085938 886.816406 956.875 847.710938 C 957.195312 847.1875 957.660156 846.894531 958.128906 846.605469 Z M 958.128906 846.605469 "/>
</clipPath>
<linearGradient id="linear0" gradientUnits="userSpaceOnUse" x1="-7.011796" y1="117.318001" x2="502.412916" y2="117.318001" gradientTransform="matrix(2.334113,-1.453717,1.454355,2.335136,205.386574,630.938485)">
<stop offset="0" style="stop-color:rgb(31.799316%,7.099915%,50.59967%);stop-opacity:1;"/>
<stop offset="0.015625" style="stop-color:rgb(31.83136%,7.122803%,50.62561%);stop-opacity:1;"/>
<stop offset="0.0195312" style="stop-color:rgb(32.15332%,7.36084%,50.892639%);stop-opacity:1;"/>
<stop offset="0.0234375" style="stop-color:rgb(32.443237%,7.574463%,51.133728%);stop-opacity:1;"/>
<stop offset="0.0273438" style="stop-color:rgb(32.733154%,7.788086%,51.373291%);stop-opacity:1;"/>
<stop offset="0.03125" style="stop-color:rgb(33.023071%,8.003235%,51.612854%);stop-opacity:1;"/>
<stop offset="0.0351562" style="stop-color:rgb(33.312988%,8.216858%,51.852417%);stop-opacity:1;"/>
<stop offset="0.0390625" style="stop-color:rgb(33.602905%,8.430481%,52.093506%);stop-opacity:1;"/>
<stop offset="0.0429687" style="stop-color:rgb(33.891296%,8.644104%,52.333069%);stop-opacity:1;"/>
<stop offset="0.046875" style="stop-color:rgb(34.181213%,8.859253%,52.572632%);stop-opacity:1;"/>
<stop offset="0.0507812" style="stop-color:rgb(34.47113%,9.072876%,52.812195%);stop-opacity:1;"/>
<stop offset="0.0546875" style="stop-color:rgb(34.761047%,9.286499%,53.053284%);stop-opacity:1;"/>
<stop offset="0.0585937" style="stop-color:rgb(35.049438%,9.500122%,53.292847%);stop-opacity:1;"/>
<stop offset="0.0625" style="stop-color:rgb(35.339355%,9.713745%,53.53241%);stop-opacity:1;"/>
<stop offset="0.0664062" style="stop-color:rgb(35.629272%,9.927368%,53.771973%);stop-opacity:1;"/>
<stop offset="0.0703125" style="stop-color:rgb(35.919189%,10.142517%,54.013062%);stop-opacity:1;"/>
<stop offset="0.0742187" style="stop-color:rgb(36.209106%,10.35614%,54.252625%);stop-opacity:1;"/>
<stop offset="0.078125" style="stop-color:rgb(36.499023%,10.569763%,54.492188%);stop-opacity:1;"/>
<stop offset="0.0820312" style="stop-color:rgb(36.787415%,10.783386%,54.73175%);stop-opacity:1;"/>
<stop offset="0.0859375" style="stop-color:rgb(37.077332%,10.997009%,54.972839%);stop-opacity:1;"/>
<stop offset="0.0898438" style="stop-color:rgb(37.367249%,11.210632%,55.212402%);stop-opacity:1;"/>
<stop offset="0.09375" style="stop-color:rgb(37.657166%,11.425781%,55.451965%);stop-opacity:1;"/>
<stop offset="0.0976562" style="stop-color:rgb(37.947083%,11.639404%,55.691528%);stop-opacity:1;"/>
<stop offset="0.101562" style="stop-color:rgb(38.237%,11.853027%,55.932617%);stop-opacity:1;"/>
<stop offset="0.105469" style="stop-color:rgb(38.525391%,12.06665%,56.17218%);stop-opacity:1;"/>
<stop offset="0.109375" style="stop-color:rgb(38.815308%,12.280273%,56.411743%);stop-opacity:1;"/>
<stop offset="0.113281" style="stop-color:rgb(39.105225%,12.493896%,56.651306%);stop-opacity:1;"/>
<stop offset="0.117188" style="stop-color:rgb(39.395142%,12.709045%,56.892395%);stop-opacity:1;"/>
<stop offset="0.121094" style="stop-color:rgb(39.683533%,12.922668%,57.131958%);stop-opacity:1;"/>
<stop offset="0.125" style="stop-color:rgb(39.97345%,13.136292%,57.371521%);stop-opacity:1;"/>
<stop offset="0.128906" style="stop-color:rgb(40.263367%,13.349915%,57.611084%);stop-opacity:1;"/>
<stop offset="0.132812" style="stop-color:rgb(40.553284%,13.563538%,57.852173%);stop-opacity:1;"/>
<stop offset="0.136719" style="stop-color:rgb(40.843201%,13.777161%,58.091736%);stop-opacity:1;"/>
<stop offset="0.140625" style="stop-color:rgb(41.133118%,13.99231%,58.331299%);stop-opacity:1;"/>
<stop offset="0.144531" style="stop-color:rgb(41.421509%,14.205933%,58.570862%);stop-opacity:1;"/>
<stop offset="0.148438" style="stop-color:rgb(41.711426%,14.419556%,58.811951%);stop-opacity:1;"/>
<stop offset="0.152344" style="stop-color:rgb(42.001343%,14.633179%,59.051514%);stop-opacity:1;"/>
<stop offset="0.15625" style="stop-color:rgb(42.29126%,14.846802%,59.291077%);stop-opacity:1;"/>
<stop offset="0.160156" style="stop-color:rgb(42.581177%,15.060425%,59.53064%);stop-opacity:1;"/>
<stop offset="0.164062" style="stop-color:rgb(42.871094%,15.275574%,59.771729%);stop-opacity:1;"/>
<stop offset="0.167969" style="stop-color:rgb(43.159485%,15.489197%,60.011292%);stop-opacity:1;"/>
<stop offset="0.171875" style="stop-color:rgb(43.449402%,15.70282%,60.250854%);stop-opacity:1;"/>
<stop offset="0.175781" style="stop-color:rgb(43.739319%,15.916443%,60.490417%);stop-opacity:1;"/>
<stop offset="0.179688" style="stop-color:rgb(44.029236%,16.130066%,60.731506%);stop-opacity:1;"/>
<stop offset="0.183594" style="stop-color:rgb(44.317627%,16.343689%,60.971069%);stop-opacity:1;"/>
<stop offset="0.1875" style="stop-color:rgb(44.607544%,16.558838%,61.210632%);stop-opacity:1;"/>
<stop offset="0.191406" style="stop-color:rgb(44.897461%,16.772461%,61.450195%);stop-opacity:1;"/>
<stop offset="0.195312" style="stop-color:rgb(45.187378%,16.986084%,61.691284%);stop-opacity:1;"/>
<stop offset="0.199219" style="stop-color:rgb(45.477295%,17.199707%,61.930847%);stop-opacity:1;"/>
<stop offset="0.203125" style="stop-color:rgb(45.767212%,17.414856%,62.17041%);stop-opacity:1;"/>
<stop offset="0.207031" style="stop-color:rgb(46.055603%,17.628479%,62.409973%);stop-opacity:1;"/>
<stop offset="0.210937" style="stop-color:rgb(46.34552%,17.842102%,62.651062%);stop-opacity:1;"/>
<stop offset="0.214844" style="stop-color:rgb(46.635437%,18.055725%,62.890625%);stop-opacity:1;"/>
<stop offset="0.21875" style="stop-color:rgb(46.925354%,18.269348%,63.130188%);stop-opacity:1;"/>
<stop offset="0.222656" style="stop-color:rgb(47.215271%,18.482971%,63.369751%);stop-opacity:1;"/>
<stop offset="0.226562" style="stop-color:rgb(47.505188%,18.69812%,63.61084%);stop-opacity:1;"/>
<stop offset="0.230469" style="stop-color:rgb(47.793579%,18.911743%,63.850403%);stop-opacity:1;"/>
<stop offset="0.234375" style="stop-color:rgb(48.083496%,19.125366%,64.089966%);stop-opacity:1;"/>
<stop offset="0.238281" style="stop-color:rgb(48.373413%,19.338989%,64.329529%);stop-opacity:1;"/>
<stop offset="0.242187" style="stop-color:rgb(48.66333%,19.552612%,64.570618%);stop-opacity:1;"/>
<stop offset="0.246094" style="stop-color:rgb(48.951721%,19.766235%,64.810181%);stop-opacity:1;"/>
<stop offset="0.25" style="stop-color:rgb(49.241638%,19.981384%,65.049744%);stop-opacity:1;"/>
<stop offset="0.253906" style="stop-color:rgb(49.531555%,20.195007%,65.289307%);stop-opacity:1;"/>
<stop offset="0.257812" style="stop-color:rgb(49.821472%,20.40863%,65.530396%);stop-opacity:1;"/>
<stop offset="0.261719" style="stop-color:rgb(50.111389%,20.622253%,65.769958%);stop-opacity:1;"/>
<stop offset="0.265625" style="stop-color:rgb(50.401306%,20.835876%,66.009521%);stop-opacity:1;"/>
<stop offset="0.269531" style="stop-color:rgb(50.689697%,21.0495%,66.249084%);stop-opacity:1;"/>
<stop offset="0.273437" style="stop-color:rgb(50.979614%,21.264648%,66.490173%);stop-opacity:1;"/>
<stop offset="0.277344" style="stop-color:rgb(51.269531%,21.478271%,66.729736%);stop-opacity:1;"/>
<stop offset="0.28125" style="stop-color:rgb(51.559448%,21.691895%,66.969299%);stop-opacity:1;"/>
<stop offset="0.285156" style="stop-color:rgb(51.849365%,21.905518%,67.208862%);stop-opacity:1;"/>
<stop offset="0.289062" style="stop-color:rgb(52.139282%,22.119141%,67.449951%);stop-opacity:1;"/>
<stop offset="0.292969" style="stop-color:rgb(52.427673%,22.332764%,67.689514%);stop-opacity:1;"/>
<stop offset="0.296875" style="stop-color:rgb(52.71759%,22.547913%,67.929077%);stop-opacity:1;"/>
<stop offset="0.300781" style="stop-color:rgb(53.007507%,22.761536%,68.16864%);stop-opacity:1;"/>
<stop offset="0.304687" style="stop-color:rgb(53.297424%,22.975159%,68.409729%);stop-opacity:1;"/>
<stop offset="0.308594" style="stop-color:rgb(53.585815%,23.188782%,68.649292%);stop-opacity:1;"/>
<stop offset="0.3125" style="stop-color:rgb(53.875732%,23.402405%,68.888855%);stop-opacity:1;"/>
<stop offset="0.316406" style="stop-color:rgb(54.165649%,23.616028%,69.128418%);stop-opacity:1;"/>
<stop offset="0.320312" style="stop-color:rgb(54.455566%,23.831177%,69.369507%);stop-opacity:1;"/>
<stop offset="0.324219" style="stop-color:rgb(54.745483%,24.0448%,69.60907%);stop-opacity:1;"/>
<stop offset="0.328125" style="stop-color:rgb(55.0354%,24.258423%,69.848633%);stop-opacity:1;"/>
<stop offset="0.332031" style="stop-color:rgb(55.323792%,24.472046%,70.088196%);stop-opacity:1;"/>
<stop offset="0.335938" style="stop-color:rgb(55.613708%,24.687195%,70.329285%);stop-opacity:1;"/>
<stop offset="0.339844" style="stop-color:rgb(55.903625%,24.900818%,70.568848%);stop-opacity:1;"/>
<stop offset="0.34375" style="stop-color:rgb(56.193542%,25.114441%,70.808411%);stop-opacity:1;"/>
<stop offset="0.347656" style="stop-color:rgb(56.483459%,25.328064%,71.047974%);stop-opacity:1;"/>
<stop offset="0.351562" style="stop-color:rgb(56.773376%,25.541687%,71.289062%);stop-opacity:1;"/>
<stop offset="0.355469" style="stop-color:rgb(57.061768%,25.75531%,71.528625%);stop-opacity:1;"/>
<stop offset="0.359375" style="stop-color:rgb(57.351685%,25.970459%,71.768188%);stop-opacity:1;"/>
<stop offset="0.363281" style="stop-color:rgb(57.641602%,26.184082%,72.007751%);stop-opacity:1;"/>
<stop offset="0.367187" style="stop-color:rgb(57.931519%,26.397705%,72.24884%);stop-opacity:1;"/>
<stop offset="0.371094" style="stop-color:rgb(58.21991%,26.611328%,72.488403%);stop-opacity:1;"/>
<stop offset="0.375" style="stop-color:rgb(58.509827%,26.824951%,72.727966%);stop-opacity:1;"/>
<stop offset="0.378906" style="stop-color:rgb(58.799744%,27.038574%,72.967529%);stop-opacity:1;"/>
<stop offset="0.382812" style="stop-color:rgb(59.089661%,27.253723%,73.208618%);stop-opacity:1;"/>
<stop offset="0.386719" style="stop-color:rgb(59.379578%,27.467346%,73.448181%);stop-opacity:1;"/>
<stop offset="0.390625" style="stop-color:rgb(59.669495%,27.680969%,73.687744%);stop-opacity:1;"/>
<stop offset="0.394531" style="stop-color:rgb(59.957886%,27.894592%,73.927307%);stop-opacity:1;"/>
<stop offset="0.398437" style="stop-color:rgb(60.247803%,28.108215%,74.168396%);stop-opacity:1;"/>
<stop offset="0.402344" style="stop-color:rgb(60.53772%,28.321838%,74.407959%);stop-opacity:1;"/>
<stop offset="0.40625" style="stop-color:rgb(60.827637%,28.536987%,74.647522%);stop-opacity:1;"/>
<stop offset="0.410156" style="stop-color:rgb(61.117554%,28.75061%,74.887085%);stop-opacity:1;"/>
<stop offset="0.414062" style="stop-color:rgb(61.407471%,28.964233%,75.128174%);stop-opacity:1;"/>
<stop offset="0.417969" style="stop-color:rgb(61.695862%,29.177856%,75.367737%);stop-opacity:1;"/>
<stop offset="0.421875" style="stop-color:rgb(61.985779%,29.391479%,75.6073%);stop-opacity:1;"/>
<stop offset="0.425781" style="stop-color:rgb(62.275696%,29.605103%,75.846863%);stop-opacity:1;"/>
<stop offset="0.429687" style="stop-color:rgb(62.565613%,29.820251%,76.087952%);stop-opacity:1;"/>
<stop offset="0.433594" style="stop-color:rgb(62.85553%,30.033875%,76.327515%);stop-opacity:1;"/>
<stop offset="0.4375" style="stop-color:rgb(63.145447%,30.247498%,76.567078%);stop-opacity:1;"/>
<stop offset="0.441406" style="stop-color:rgb(63.433838%,30.461121%,76.806641%);stop-opacity:1;"/>
<stop offset="0.445312" style="stop-color:rgb(63.723755%,30.674744%,77.047729%);stop-opacity:1;"/>
<stop offset="0.449219" style="stop-color:rgb(64.013672%,30.888367%,77.287292%);stop-opacity:1;"/>
<stop offset="0.453125" style="stop-color:rgb(64.303589%,31.103516%,77.526855%);stop-opacity:1;"/>
<stop offset="0.457031" style="stop-color:rgb(64.59198%,31.317139%,77.766418%);stop-opacity:1;"/>
<stop offset="0.460937" style="stop-color:rgb(64.881897%,31.530762%,78.007507%);stop-opacity:1;"/>
<stop offset="0.464844" style="stop-color:rgb(65.171814%,31.744385%,78.24707%);stop-opacity:1;"/>
<stop offset="0.46875" style="stop-color:rgb(65.461731%,31.959534%,78.486633%);stop-opacity:1;"/>
<stop offset="0.472656" style="stop-color:rgb(65.751648%,32.173157%,78.726196%);stop-opacity:1;"/>
<stop offset="0.476562" style="stop-color:rgb(66.041565%,32.38678%,78.967285%);stop-opacity:1;"/>
<stop offset="0.480469" style="stop-color:rgb(66.329956%,32.600403%,79.206848%);stop-opacity:1;"/>
<stop offset="0.484375" style="stop-color:rgb(66.619873%,32.814026%,79.446411%);stop-opacity:1;"/>
<stop offset="0.488281" style="stop-color:rgb(66.90979%,33.027649%,79.685974%);stop-opacity:1;"/>
<stop offset="0.492187" style="stop-color:rgb(67.199707%,33.242798%,79.927063%);stop-opacity:1;"/>
<stop offset="0.496094" style="stop-color:rgb(67.489624%,33.456421%,80.166626%);stop-opacity:1;"/>
<stop offset="0.5" style="stop-color:rgb(67.779541%,33.670044%,80.406189%);stop-opacity:1;"/>
<stop offset="0.503906" style="stop-color:rgb(68.067932%,33.883667%,80.645752%);stop-opacity:1;"/>
<stop offset="0.507812" style="stop-color:rgb(68.357849%,34.09729%,80.886841%);stop-opacity:1;"/>
<stop offset="0.511719" style="stop-color:rgb(68.647766%,34.310913%,81.126404%);stop-opacity:1;"/>
<stop offset="0.515625" style="stop-color:rgb(68.937683%,34.526062%,81.365967%);stop-opacity:1;"/>
<stop offset="0.519531" style="stop-color:rgb(69.226074%,34.739685%,81.60553%);stop-opacity:1;"/>
<stop offset="0.523438" style="stop-color:rgb(69.515991%,34.953308%,81.846619%);stop-opacity:1;"/>
<stop offset="0.527344" style="stop-color:rgb(69.805908%,35.166931%,82.086182%);stop-opacity:1;"/>
<stop offset="0.53125" style="stop-color:rgb(70.095825%,35.380554%,82.325745%);stop-opacity:1;"/>
<stop offset="0.535156" style="stop-color:rgb(70.385742%,35.594177%,82.565308%);stop-opacity:1;"/>
<stop offset="0.539062" style="stop-color:rgb(70.675659%,35.809326%,82.806396%);stop-opacity:1;"/>
<stop offset="0.542969" style="stop-color:rgb(70.96405%,36.022949%,83.045959%);stop-opacity:1;"/>
<stop offset="0.546875" style="stop-color:rgb(71.253967%,36.236572%,83.285522%);stop-opacity:1;"/>
<stop offset="0.550781" style="stop-color:rgb(71.543884%,36.450195%,83.525085%);stop-opacity:1;"/>
<stop offset="0.554687" style="stop-color:rgb(71.833801%,36.663818%,83.766174%);stop-opacity:1;"/>
<stop offset="0.558594" style="stop-color:rgb(72.123718%,36.877441%,84.005737%);stop-opacity:1;"/>
<stop offset="0.5625" style="stop-color:rgb(72.413635%,37.09259%,84.2453%);stop-opacity:1;"/>
<stop offset="0.566406" style="stop-color:rgb(72.702026%,37.306213%,84.484863%);stop-opacity:1;"/>
<stop offset="0.570312" style="stop-color:rgb(72.991943%,37.519836%,84.725952%);stop-opacity:1;"/>
<stop offset="0.574219" style="stop-color:rgb(73.28186%,37.733459%,84.965515%);stop-opacity:1;"/>
<stop offset="0.578125" style="stop-color:rgb(73.571777%,37.947083%,85.205078%);stop-opacity:1;"/>
<stop offset="0.582031" style="stop-color:rgb(73.860168%,38.160706%,85.444641%);stop-opacity:1;"/>
<stop offset="0.585937" style="stop-color:rgb(74.150085%,38.375854%,85.68573%);stop-opacity:1;"/>
<stop offset="0.589844" style="stop-color:rgb(74.440002%,38.589478%,85.925293%);stop-opacity:1;"/>
<stop offset="0.59375" style="stop-color:rgb(74.729919%,38.803101%,86.164856%);stop-opacity:1;"/>
<stop offset="0.597656" style="stop-color:rgb(75.019836%,39.016724%,86.404419%);stop-opacity:1;"/>
<stop offset="0.601562" style="stop-color:rgb(75.309753%,39.230347%,86.645508%);stop-opacity:1;"/>
<stop offset="0.605469" style="stop-color:rgb(75.598145%,39.44397%,86.885071%);stop-opacity:1;"/>
<stop offset="0.609375" style="stop-color:rgb(75.888062%,39.659119%,87.124634%);stop-opacity:1;"/>
<stop offset="0.613281" style="stop-color:rgb(76.177979%,39.872742%,87.364197%);stop-opacity:1;"/>
<stop offset="0.617188" style="stop-color:rgb(76.467896%,40.086365%,87.605286%);stop-opacity:1;"/>
<stop offset="0.621094" style="stop-color:rgb(76.757812%,40.299988%,87.844849%);stop-opacity:1;"/>
<stop offset="0.625" style="stop-color:rgb(77.047729%,40.515137%,88.084412%);stop-opacity:1;"/>
<stop offset="0.628906" style="stop-color:rgb(77.336121%,40.72876%,88.323975%);stop-opacity:1;"/>
<stop offset="0.632812" style="stop-color:rgb(77.626038%,40.942383%,88.565063%);stop-opacity:1;"/>
<stop offset="0.636719" style="stop-color:rgb(77.915955%,41.156006%,88.804626%);stop-opacity:1;"/>
<stop offset="0.640625" style="stop-color:rgb(78.205872%,41.369629%,89.044189%);stop-opacity:1;"/>
<stop offset="0.644531" style="stop-color:rgb(78.494263%,41.583252%,89.283752%);stop-opacity:1;"/>
<stop offset="0.648438" style="stop-color:rgb(78.78418%,41.798401%,89.524841%);stop-opacity:1;"/>
<stop offset="0.652344" style="stop-color:rgb(79.074097%,42.012024%,89.764404%);stop-opacity:1;"/>
<stop offset="0.65625" style="stop-color:rgb(79.364014%,42.225647%,90.003967%);stop-opacity:1;"/>
<stop offset="0.664063" style="stop-color:rgb(79.258728%,42.149353%,89.891052%);stop-opacity:1;"/>
<stop offset="0.667969" style="stop-color:rgb(78.778076%,41.801453%,89.427185%);stop-opacity:1;"/>
<stop offset="0.671875" style="stop-color:rgb(78.404236%,41.529846%,89.074707%);stop-opacity:1;"/>
<stop offset="0.675781" style="stop-color:rgb(78.02887%,41.256714%,88.720703%);stop-opacity:1;"/>
<stop offset="0.679688" style="stop-color:rgb(77.655029%,40.983582%,88.368225%);stop-opacity:1;"/>
<stop offset="0.683594" style="stop-color:rgb(77.279663%,40.710449%,88.015747%);stop-opacity:1;"/>
<stop offset="0.6875" style="stop-color:rgb(76.905823%,40.438843%,87.663269%);stop-opacity:1;"/>
<stop offset="0.691406" style="stop-color:rgb(76.530457%,40.16571%,87.310791%);stop-opacity:1;"/>
<stop offset="0.695312" style="stop-color:rgb(76.15509%,39.892578%,86.958313%);stop-opacity:1;"/>
<stop offset="0.699219" style="stop-color:rgb(75.779724%,39.619446%,86.604309%);stop-opacity:1;"/>
<stop offset="0.703125" style="stop-color:rgb(75.405884%,39.347839%,86.251831%);stop-opacity:1;"/>
<stop offset="0.707031" style="stop-color:rgb(75.030518%,39.074707%,85.899353%);stop-opacity:1;"/>
<stop offset="0.710938" style="stop-color:rgb(74.656677%,38.801575%,85.546875%);stop-opacity:1;"/>
<stop offset="0.714844" style="stop-color:rgb(74.281311%,38.528442%,85.192871%);stop-opacity:1;"/>
<stop offset="0.71875" style="stop-color:rgb(73.907471%,38.256836%,84.840393%);stop-opacity:1;"/>
<stop offset="0.722656" style="stop-color:rgb(73.532104%,37.983704%,84.487915%);stop-opacity:1;"/>
<stop offset="0.726562" style="stop-color:rgb(73.158264%,37.710571%,84.135437%);stop-opacity:1;"/>
<stop offset="0.730469" style="stop-color:rgb(72.782898%,37.437439%,83.781433%);stop-opacity:1;"/>
<stop offset="0.734375" style="stop-color:rgb(72.407532%,37.165833%,83.428955%);stop-opacity:1;"/>
<stop offset="0.738281" style="stop-color:rgb(72.032166%,36.8927%,83.076477%);stop-opacity:1;"/>
<stop offset="0.742188" style="stop-color:rgb(71.658325%,36.619568%,82.723999%);stop-opacity:1;"/>
<stop offset="0.746094" style="stop-color:rgb(71.282959%,36.346436%,82.371521%);stop-opacity:1;"/>
<stop offset="0.75" style="stop-color:rgb(70.909119%,36.074829%,82.019043%);stop-opacity:1;"/>
<stop offset="0.753906" style="stop-color:rgb(70.533752%,35.801697%,81.665039%);stop-opacity:1;"/>
<stop offset="0.757812" style="stop-color:rgb(70.159912%,35.528564%,81.312561%);stop-opacity:1;"/>
<stop offset="0.761719" style="stop-color:rgb(69.784546%,35.255432%,80.960083%);stop-opacity:1;"/>
<stop offset="0.765625" style="stop-color:rgb(69.410706%,34.983826%,80.607605%);stop-opacity:1;"/>
<stop offset="0.769531" style="stop-color:rgb(69.035339%,34.710693%,80.253601%);stop-opacity:1;"/>
<stop offset="0.773437" style="stop-color:rgb(68.659973%,34.437561%,79.901123%);stop-opacity:1;"/>
<stop offset="0.777344" style="stop-color:rgb(68.284607%,34.164429%,79.548645%);stop-opacity:1;"/>
<stop offset="0.78125" style="stop-color:rgb(67.910767%,33.892822%,79.196167%);stop-opacity:1;"/>
<stop offset="0.785156" style="stop-color:rgb(67.5354%,33.61969%,78.842163%);stop-opacity:1;"/>
<stop offset="0.789062" style="stop-color:rgb(67.16156%,33.346558%,78.489685%);stop-opacity:1;"/>
<stop offset="0.792969" style="stop-color:rgb(66.786194%,33.073425%,78.137207%);stop-opacity:1;"/>
<stop offset="0.796875" style="stop-color:rgb(66.412354%,32.801819%,77.784729%);stop-opacity:1;"/>
<stop offset="0.800781" style="stop-color:rgb(66.036987%,32.528687%,77.432251%);stop-opacity:1;"/>
<stop offset="0.804688" style="stop-color:rgb(65.661621%,32.255554%,77.079773%);stop-opacity:1;"/>
<stop offset="0.808594" style="stop-color:rgb(65.286255%,31.982422%,76.725769%);stop-opacity:1;"/>
<stop offset="0.8125" style="stop-color:rgb(64.912415%,31.710815%,76.373291%);stop-opacity:1;"/>
<stop offset="0.816406" style="stop-color:rgb(64.537048%,31.437683%,76.020813%);stop-opacity:1;"/>
<stop offset="0.820312" style="stop-color:rgb(64.163208%,31.164551%,75.668335%);stop-opacity:1;"/>
<stop offset="0.824219" style="stop-color:rgb(63.787842%,30.891418%,75.314331%);stop-opacity:1;"/>
<stop offset="0.828125" style="stop-color:rgb(63.414001%,30.619812%,74.961853%);stop-opacity:1;"/>
<stop offset="0.832031" style="stop-color:rgb(63.038635%,30.34668%,74.609375%);stop-opacity:1;"/>
<stop offset="0.835938" style="stop-color:rgb(62.664795%,30.073547%,74.256897%);stop-opacity:1;"/>
<stop offset="0.839844" style="stop-color:rgb(62.289429%,29.800415%,73.902893%);stop-opacity:1;"/>
<stop offset="0.84375" style="stop-color:rgb(61.914062%,29.528809%,73.550415%);stop-opacity:1;"/>
<stop offset="0.847656" style="stop-color:rgb(61.538696%,29.255676%,73.197937%);stop-opacity:1;"/>
<stop offset="0.851563" style="stop-color:rgb(61.164856%,28.982544%,72.845459%);stop-opacity:1;"/>
<stop offset="0.855469" style="stop-color:rgb(60.78949%,28.709412%,72.492981%);stop-opacity:1;"/>
<stop offset="0.859375" style="stop-color:rgb(60.415649%,28.437805%,72.140503%);stop-opacity:1;"/>
<stop offset="0.863281" style="stop-color:rgb(60.040283%,28.164673%,71.786499%);stop-opacity:1;"/>
<stop offset="0.867188" style="stop-color:rgb(59.666443%,27.891541%,71.434021%);stop-opacity:1;"/>
<stop offset="0.871094" style="stop-color:rgb(59.291077%,27.618408%,71.081543%);stop-opacity:1;"/>
<stop offset="0.875" style="stop-color:rgb(58.917236%,27.346802%,70.729065%);stop-opacity:1;"/>
<stop offset="0.878906" style="stop-color:rgb(58.54187%,27.073669%,70.375061%);stop-opacity:1;"/>
<stop offset="0.882812" style="stop-color:rgb(58.166504%,26.800537%,70.022583%);stop-opacity:1;"/>
<stop offset="0.886719" style="stop-color:rgb(57.791138%,26.527405%,69.670105%);stop-opacity:1;"/>
<stop offset="0.890625" style="stop-color:rgb(57.417297%,26.255798%,69.317627%);stop-opacity:1;"/>
<stop offset="0.894531" style="stop-color:rgb(57.041931%,25.982666%,68.963623%);stop-opacity:1;"/>
<stop offset="0.898438" style="stop-color:rgb(56.668091%,25.709534%,68.611145%);stop-opacity:1;"/>
<stop offset="0.902344" style="stop-color:rgb(56.292725%,25.436401%,68.258667%);stop-opacity:1;"/>
<stop offset="0.90625" style="stop-color:rgb(55.918884%,25.164795%,67.906189%);stop-opacity:1;"/>
<stop offset="0.910156" style="stop-color:rgb(55.543518%,24.891663%,67.553711%);stop-opacity:1;"/>
<stop offset="0.914062" style="stop-color:rgb(55.168152%,24.61853%,67.201233%);stop-opacity:1;"/>
<stop offset="0.917969" style="stop-color:rgb(54.792786%,24.345398%,66.847229%);stop-opacity:1;"/>
<stop offset="0.921875" style="stop-color:rgb(54.418945%,24.073792%,66.494751%);stop-opacity:1;"/>
<stop offset="0.925781" style="stop-color:rgb(54.043579%,23.800659%,66.142273%);stop-opacity:1;"/>
<stop offset="0.929688" style="stop-color:rgb(53.669739%,23.527527%,65.789795%);stop-opacity:1;"/>
<stop offset="0.933594" style="stop-color:rgb(53.294373%,23.254395%,65.435791%);stop-opacity:1;"/>
<stop offset="0.9375" style="stop-color:rgb(52.920532%,22.982788%,65.083313%);stop-opacity:1;"/>
<stop offset="0.941406" style="stop-color:rgb(52.545166%,22.709656%,64.730835%);stop-opacity:1;"/>
<stop offset="0.945312" style="stop-color:rgb(52.171326%,22.436523%,64.378357%);stop-opacity:1;"/>
<stop offset="0.949219" style="stop-color:rgb(51.795959%,22.163391%,64.024353%);stop-opacity:1;"/>
<stop offset="0.953125" style="stop-color:rgb(51.420593%,21.891785%,63.671875%);stop-opacity:1;"/>
<stop offset="0.957031" style="stop-color:rgb(51.045227%,21.618652%,63.319397%);stop-opacity:1;"/>
<stop offset="0.960937" style="stop-color:rgb(50.671387%,21.34552%,62.966919%);stop-opacity:1;"/>
<stop offset="0.964844" style="stop-color:rgb(50.296021%,21.072388%,62.614441%);stop-opacity:1;"/>
<stop offset="0.96875" style="stop-color:rgb(49.92218%,20.800781%,62.261963%);stop-opacity:1;"/>
<stop offset="0.972656" style="stop-color:rgb(49.546814%,20.527649%,61.907959%);stop-opacity:1;"/>
<stop offset="0.976562" style="stop-color:rgb(49.172974%,20.254517%,61.555481%);stop-opacity:1;"/>
<stop offset="0.980469" style="stop-color:rgb(48.797607%,19.981384%,61.203003%);stop-opacity:1;"/>
<stop offset="0.984375" style="stop-color:rgb(48.423767%,19.709778%,60.850525%);stop-opacity:1;"/>
<stop offset="0.988281" style="stop-color:rgb(48.048401%,19.436646%,60.496521%);stop-opacity:1;"/>
<stop offset="0.992188" style="stop-color:rgb(47.673035%,19.163513%,60.144043%);stop-opacity:1;"/>
<stop offset="0.996094" style="stop-color:rgb(47.297668%,18.890381%,59.791565%);stop-opacity:1;"/>
<stop offset="1" style="stop-color:rgb(46.923828%,18.618774%,59.439087%);stop-opacity:1;"/>
</linearGradient>
<clipPath id="clip5">
  <path d="M 754 0 L 1440 0 L 1440 572 L 754 572 Z M 754 0 "/>
</clipPath>
<clipPath id="clip6">
  <path d="M 550.421875 162.953125 L 1678.585938 -559.199219 L 1941.003906 -149.246094 L 812.839844 572.910156 Z M 550.421875 162.953125 "/>
</clipPath>
<clipPath id="clip7">
  <path d="M 550.421875 162.953125 L 1678.585938 -559.199219 L 1941.003906 -149.246094 L 812.839844 572.910156 Z M 550.421875 162.953125 "/>
</clipPath>
<clipPath id="clip8">
  <path d="M 762.480469 490.59375 L 760.839844 490.867188 C 739.492188 394.386719 770.0625 278.667969 842.359375 181.59375 C 898.585938 105.949219 978.707031 40.929688 1094.09375 -22.824219 C 1140.625 -48.460938 1189.121094 -72.246094 1236.144531 -95.09375 C 1285.308594 -119.046875 1336.242188 -143.875 1384.863281 -171.109375 C 1441 -202.378906 1511.960938 -246.507812 1563.789062 -310.003906 C 1619.203125 -377.613281 1646.285156 -461.554688 1672.710938 -542.480469 C 1674.316406 -547.65625 1676.109375 -552.949219 1677.902344 -558.246094 L 1679.527344 -557.730469 C 1677.734375 -552.4375 1676.125 -547.261719 1674.332031 -541.964844 C 1647.84375 -460.738281 1620.761719 -376.796875 1565.28125 -308.886719 C 1513.386719 -245.089844 1442.125 -201.027344 1385.921875 -169.457031 C 1337.304688 -142.222656 1286.367188 -117.394531 1237.203125 -93.4375 C 1190.179688 -70.59375 1141.683594 -46.808594 1095.335938 -21.285156 C 980.136719 42.347656 900.382812 107.136719 844.039062 182.59375 C 771.621094 279.484375 741.183594 394.601562 762.480469 490.59375 Z M 762.796875 427.15625 C 765.207031 404.621094 769.613281 382.363281 776.125 360.570312 C 794.679688 296.082031 823.023438 235.957031 858.125 186.796875 C 914.210938 108.910156 997.078125 39.277344 1104.628906 -19.71875 C 1112.332031 -23.871094 1120.035156 -28.023438 1128.039062 -32.113281 C 1164.949219 -51.332031 1203.457031 -68.464844 1240.859375 -84.894531 C 1270.761719 -98.070312 1301.394531 -111.722656 1331.140625 -126.355469 C 1355.570312 -138.367188 1376.960938 -149.464844 1396.15625 -159.941406 C 1439.449219 -183.761719 1473.019531 -205.773438 1502.203125 -229.378906 C 1528.25 -250.195312 1551.875 -274.390625 1572.515625 -300.820312 C 1593.722656 -328.390625 1612.539062 -360.90625 1629.542969 -400.300781 C 1644.773438 -435.1875 1657.5 -472.359375 1669.78125 -508.210938 C 1674.507812 -521.863281 1679.304688 -535.820312 1684.21875 -549.589844 L 1682.59375 -550.105469 C 1677.679688 -536.332031 1672.882812 -522.378906 1668.15625 -508.726562 C 1643.78125 -437.144531 1618.273438 -363.28125 1571.140625 -301.753906 C 1550.683594 -275.441406 1527.125 -251.550781 1501.078125 -230.730469 C 1472.078125 -207.242188 1438.507812 -185.234375 1395.398438 -161.527344 C 1376.019531 -150.9375 1354.8125 -139.953125 1330.382812 -127.945312 C 1300.636719 -113.308594 1270.003906 -99.660156 1240.101562 -86.480469 C 1202.699219 -70.054688 1164.007812 -52.804688 1127.097656 -33.582031 C 1119.277344 -29.613281 1111.390625 -25.34375 1103.6875 -21.1875 C 996.070312 38.109375 912.902344 107.675781 856.75 185.863281 C 821.464844 235.140625 792.9375 295.386719 774.5 360.054688 C 767.988281 381.847656 763.519531 404.40625 761.105469 426.941406 C 758.5625 450.082031 759.652344 473.226562 764.136719 496.015625 L 765.773438 495.742188 C 761.222656 473.257812 760.320312 449.992188 762.796875 427.15625 Z M 769.605469 432.128906 C 773.789062 408.71875 780.839844 387.359375 787.976562 367.757812 C 807.050781 314.601562 833.964844 246.578125 872.578125 190.761719 C 928.722656 109.726562 1012.367188 37.265625 1114.472656 -18.503906 C 1122.175781 -22.65625 1129.875 -26.808594 1137.695312 -30.777344 C 1173.441406 -48.992188 1211.484375 -64.015625 1248.191406 -78.703125 C 1279.164062 -91.011719 1311.175781 -103.726562 1341.707031 -118.347656 C 1366.003906 -129.753906 1387.328125 -140.550781 1406.894531 -151.261719 C 1449.382812 -174.3125 1483.757812 -197.09375 1512.035156 -220.898438 C 1537.542969 -242.152344 1560.265625 -266.542969 1579.886719 -293.355469 C 1620.554688 -349.191406 1643.675781 -415.046875 1666.03125 -478.859375 C 1673.253906 -499.546875 1680.972656 -521.074219 1688.859375 -541.933594 L 1687.417969 -542.566406 C 1679.347656 -521.589844 1671.8125 -500.179688 1664.589844 -479.492188 C 1642.117188 -415.863281 1619.179688 -350.128906 1578.695312 -294.40625 C 1559.257812 -267.710938 1536.417969 -243.503906 1511.09375 -222.367188 C 1482.816406 -198.566406 1448.441406 -175.785156 1406.136719 -152.851562 C 1386.570312 -142.140625 1365.3125 -131.644531 1341.132812 -120.054688 C 1310.785156 -105.550781 1278.773438 -92.835938 1247.800781 -80.523438 C 1211.09375 -65.839844 1173.050781 -50.816406 1137.308594 -32.601562 C 1129.488281 -28.632812 1121.785156 -24.480469 1114.082031 -20.328125 C 1011.609375 35.675781 927.777344 108.257812 871.453125 189.40625 C 832.65625 245.339844 805.859375 313.546875 786.785156 366.707031 C 779.765625 386.492188 772.714844 407.847656 768.53125 431.257812 C 763.9375 457.265625 763.703125 479.964844 767.863281 500.625 L 769.503906 500.351562 C 764.910156 480.226562 765.078125 457.832031 769.605469 432.128906 Z M 776.597656 436.980469 C 782.441406 415.359375 791.351562 394.882812 799.832031 374.941406 C 804.566406 364.136719 809.003906 353.261719 814.058594 341.734375 C 835.316406 291.582031 856.972656 239.625 887.03125 194.726562 C 943.914062 109.589844 1026.003906 36.3125 1124.25 -16.988281 C 1131.953125 -21.140625 1139.773438 -25.109375 1147.59375 -29.078125 C 1182.535156 -46.519531 1220.550781 -59.972656 1257.160156 -72.78125 C 1288.839844 -83.988281 1321.375 -95.484375 1352.140625 -109.734375 C 1376.191406 -120.722656 1397.5625 -131.035156 1417.429688 -141.679688 C 1459.789062 -164.128906 1494.042969 -187.09375 1521.851562 -211.632812 C 1546.824219 -233.320312 1568.824219 -258.027344 1587.421875 -285.222656 C 1622.316406 -336.324219 1643.5 -395.496094 1663.800781 -452.808594 C 1673.125 -479.511719 1682.953125 -507.054688 1693.972656 -533.542969 L 1692.53125 -534.175781 C 1681.511719 -507.6875 1671.683594 -480.144531 1662.175781 -453.324219 C 1642.058594 -396.128906 1621.058594 -337.074219 1586.046875 -286.15625 C 1567.449219 -258.960938 1545.632812 -234.371094 1520.84375 -212.800781 C 1492.917969 -188.445312 1458.847656 -165.597656 1416.605469 -142.96875 C 1396.921875 -132.441406 1375.367188 -122.011719 1351.5 -111.140625 C 1320.917969 -97.003906 1288.199219 -85.394531 1256.703125 -74.304688 C 1220.210938 -61.308594 1182.195312 -47.859375 1146.953125 -30.484375 C 1139.132812 -26.515625 1131.3125 -22.546875 1123.609375 -18.390625 C 1024.996094 35.140625 942.722656 108.539062 885.773438 193.976562 C 855.832031 239.058594 833.875 290.949219 812.734375 341.285156 C 807.984375 352.878906 803.246094 363.6875 798.507812 374.492188 C 789.847656 394.550781 780.9375 415.027344 775.210938 436.835938 C 768.257812 462.796875 766.75 485.53125 770.726562 506.308594 L 772.363281 506.039062 C 768.386719 485.257812 769.710938 462.640625 776.597656 436.980469 Z M 783.707031 442.019531 C 789.769531 425.183594 797.738281 409.714844 806.210938 393.40625 C 807.972656 389.6875 810.039062 386.03125 811.984375 382.195312 C 822.71875 361.328125 832.507812 338.992188 842.933594 315.214844 C 860.304688 275.585938 878.425781 234.703125 901.484375 198.691406 C 958.058594 110.644531 1040.625 34.46875 1134.09375 -15.773438 C 1141.796875 -19.925781 1149.617188 -23.894531 1157.371094 -27.5625 C 1192.179688 -44.402344 1230.167969 -56.277344 1267.117188 -67.75 C 1298.832031 -77.6875 1331.886719 -87.960938 1362.457031 -101.308594 C 1387.292969 -112.28125 1408.785156 -122.410156 1427.851562 -132.28125 C 1470.140625 -154.429688 1504.097656 -177.460938 1531.667969 -202.367188 C 1555.921875 -224.367188 1577.269531 -249.695312 1594.84375 -277.273438 C 1625.246094 -324.464844 1644.152344 -378.292969 1662.359375 -430.375 C 1673.527344 -461.886719 1684.964844 -494.605469 1698.847656 -525.523438 L 1697.40625 -526.152344 C 1683.523438 -495.238281 1671.96875 -462.703125 1660.917969 -431.007812 C 1642.59375 -379.109375 1623.6875 -325.28125 1593.652344 -278.324219 C 1576.078125 -250.746094 1554.796875 -225.722656 1530.726562 -203.835938 C 1503.339844 -179.046875 1469.566406 -156.132812 1427.277344 -133.988281 C 1408.210938 -124.117188 1386.835938 -113.804688 1362 -102.828125 C 1331.433594 -89.480469 1298.5625 -79.324219 1266.660156 -69.273438 C 1229.710938 -57.800781 1191.722656 -45.925781 1156.730469 -28.96875 C 1148.976562 -25.300781 1140.972656 -21.210938 1133.453125 -17.175781 C 1039.800781 33.179688 956.984375 109.777344 900.226562 197.941406 C 877.171875 233.953125 859.046875 274.835938 841.492188 314.582031 C 830.949219 338.175781 821.160156 360.511719 810.542969 381.5625 C 808.597656 385.398438 806.648438 389.238281 804.769531 392.773438 C 796.296875 409.082031 788.445312 424.734375 782.085938 441.503906 C 772.652344 467.238281 770.058594 489.890625 774.085938 511.15625 L 775.726562 510.882812 C 771.75 490.105469 774.34375 467.449219 783.707031 442.019531 Z M 790.332031 447.109375 C 796.703125 433.183594 804.683594 420.558594 812.859375 407.03125 C 816.289062 401.464844 819.972656 395.480469 823.46875 389.613281 C 838.839844 363.449219 851.722656 334.210938 865.605469 303.292969 C 880.636719 269.3125 896.230469 234.191406 915.503906 203.195312 C 972.453125 111.277344 1053.460938 34.285156 1143.503906 -14.019531 C 1150.835938 -17.9375 1158.472656 -21.789062 1166.898438 -25.628906 C 1201.390625 -41.746094 1239.347656 -52.050781 1276.085938 -61.828125 C 1308.324219 -70.546875 1341.902344 -79.597656 1372.523438 -92.460938 C 1398.078125 -103.117188 1418.835938 -112.777344 1437.902344 -122.648438 C 1480.128906 -144.492188 1513.898438 -167.40625 1541 -193.046875 C 1564.714844 -215.484375 1585.15625 -241.011719 1601.894531 -269.089844 C 1628.242188 -312.90625 1645.367188 -362.226562 1661.863281 -410.105469 C 1674.144531 -445.953125 1686.804688 -482.824219 1703.472656 -517.078125 L 1702.03125 -517.710938 C 1685.363281 -483.457031 1672.820312 -446.402344 1660.238281 -410.617188 C 1643.929688 -362.859375 1626.800781 -313.539062 1600.519531 -270.023438 C 1583.96875 -242.0625 1563.523438 -216.535156 1539.875 -194.402344 C 1512.957031 -168.878906 1479.371094 -146.082031 1437.328125 -124.355469 C 1418.261719 -114.480469 1397.386719 -105.007812 1371.949219 -94.167969 C 1341.328125 -81.304688 1307.9375 -72.367188 1275.695312 -63.652344 C 1238.773438 -53.753906 1200.816406 -43.453125 1166.140625 -27.214844 C 1157.714844 -23.378906 1150.078125 -19.527344 1142.746094 -15.609375 C 1052.402344 32.632812 971.144531 110.042969 914.3125 202.140625 C 894.972656 233.441406 879.378906 268.5625 864.351562 302.542969 C 850.769531 333.523438 837.699219 362.882812 822.394531 388.746094 C 818.832031 394.914062 815.21875 400.597656 811.785156 406.164062 C 803.492188 419.507812 795.628906 432.316406 789.078125 446.359375 C 777.351562 471.746094 773.601562 494.617188 777.261719 516.117188 L 778.902344 515.847656 C 774.992188 494.765625 778.859375 472.078125 790.332031 447.109375 Z M 797.324219 451.960938 C 804.019531 440.160156 811.835938 429.714844 819.972656 418.546875 C 825.121094 411.621094 830.339844 404.394531 835.503906 396.683594 C 855.167969 367.511719 870.078125 333.34375 886.121094 296.898438 C 899.453125 266.335938 913.285156 234.933594 930.023438 206.859375 C 986.980469 111.3125 1066.308594 33.316406 1153.347656 -12.804688 C 1160.863281 -16.84375 1168.804688 -20.628906 1176.558594 -24.296875 C 1210.617188 -39.878906 1248.847656 -48.539062 1285.738281 -56.863281 C 1318.5 -64.359375 1352.234375 -71.957031 1382.90625 -84.335938 C 1408.882812 -94.742188 1429.753906 -104.214844 1448.570312 -113.667969 C 1490.847656 -135.027344 1524.382812 -158.308594 1550.882812 -184.085938 C 1574.0625 -206.953125 1593.664062 -232.980469 1609.382812 -261.441406 C 1632.222656 -302.238281 1647.519531 -347.535156 1662.070312 -391.574219 C 1675.324219 -431.160156 1688.910156 -472.253906 1708.234375 -509.242188 L 1706.675781 -510.058594 C 1687.285156 -472.765625 1673.582031 -431.859375 1660.445312 -392.089844 C 1645.777344 -348.234375 1630.78125 -302.871094 1608.007812 -262.375 C 1592.476562 -234.03125 1572.753906 -208.191406 1549.757812 -185.4375 C 1523.375 -159.480469 1489.90625 -136.5 1447.8125 -115.257812 C 1428.996094 -105.804688 1408.308594 -96.449219 1382.332031 -86.039062 C 1351.660156 -73.664062 1317.929688 -66.066406 1285.351562 -58.6875 C 1248.273438 -50.246094 1210.042969 -41.582031 1175.800781 -25.882812 C 1167.925781 -22.398438 1160.105469 -18.429688 1152.40625 -14.277344 C 1065.183594 31.964844 985.605469 110.375 928.464844 206.042969 C 911.542969 234.234375 897.828125 265.820312 884.496094 296.382812 C 868.636719 332.710938 853.726562 366.878906 834.128906 395.75 C 828.964844 403.460938 823.746094 410.6875 818.597656 417.613281 C 810.460938 428.78125 802.644531 439.226562 795.949219 451.027344 C 781.882812 475.582031 776.730469 499.097656 780.441406 521.082031 L 782.078125 520.8125 C 778.539062 499.496094 783.625 476.28125 797.324219 451.960938 Z M 804.253906 457.117188 C 811.285156 446.65625 819.257812 437.664062 827.730469 427.835938 C 834.285156 420.269531 841.023438 412.585938 847.476562 404.050781 C 870.980469 373.195312 887.238281 335.058594 904.808594 294.527344 C 916.824219 266.359375 929.527344 237.238281 944.410156 211.125 C 1001.371094 111.945312 1079.144531 33.136719 1163.125 -11.289062 C 1170.457031 -15.207031 1178.214844 -18.875 1186.453125 -22.59375 C 1220.378906 -37.574219 1258.582031 -44.664062 1295.8125 -51.652344 C 1328.914062 -57.808594 1362.984375 -64.066406 1393.523438 -75.839844 C 1419.25 -85.828125 1440.175781 -94.816406 1459.175781 -104.386719 C 1501.753906 -125.683594 1535.105469 -148.84375 1560.765625 -175.121094 C 1583.222656 -198.304688 1602.109375 -224.648438 1616.800781 -253.492188 C 1636.6875 -291.617188 1650.171875 -333.683594 1663.140625 -374.121094 C 1676.820312 -417.085938 1691.015625 -461.679688 1712.925781 -501.101562 L 1711.367188 -501.917969 C 1689.273438 -462.378906 1675.078125 -417.785156 1661.214844 -374.699219 C 1648.363281 -334.078125 1634.945312 -292.316406 1615.058594 -254.191406 C 1600.429688 -225.648438 1581.546875 -199.308594 1559.273438 -176.238281 C 1533.613281 -149.960938 1500.628906 -127.035156 1458.050781 -105.742188 C 1439.050781 -96.171875 1418.125 -87.179688 1392.582031 -77.3125 C 1362.042969 -65.535156 1327.972656 -59.277344 1295.054688 -53.238281 C 1257.824219 -46.253906 1219.320312 -39.230469 1185.394531 -24.25 C 1177.152344 -20.53125 1169.398438 -16.863281 1162.066406 -12.945312 C 1077.785156 31.414062 1000.0625 110.710938 942.734375 210.125 C 927.664062 236.355469 915.148438 265.359375 902.949219 293.644531 C 885.5625 334.058594 869.304688 372.195312 845.863281 402.75 C 839.414062 411.285156 832.675781 418.96875 826.121094 426.535156 C 817.648438 436.363281 809.675781 445.355469 802.640625 455.816406 C 791.445312 472.3125 778.867188 497.988281 783.316406 525.980469 L 784.957031 525.707031 C 780.976562 498.449219 793.121094 473.3125 804.253906 457.117188 Z M 811.0625 462.089844 C 818.496094 452.664062 826.757812 444.527344 835.753906 435.917969 C 843.578125 428.316406 851.65625 420.296875 859.328125 411.238281 C 886.546875 379.300781 904.960938 335.636719 922.558594 293.53125 C 933.578125 267.039062 945.097656 239.710938 958.863281 215.089844 C 1015.765625 112.578125 1091.742188 32.585938 1172.785156 -9.957031 C 1180.421875 -13.808594 1188.175781 -17.476562 1196.046875 -20.960938 C 1229.539062 -35.402344 1268.199219 -40.972656 1305.519531 -46.199219 C 1338.773438 -50.902344 1373.367188 -55.941406 1403.773438 -67.109375 C 1426.074219 -75.164062 1448.152344 -84.375 1469.527344 -94.6875 C 1511.972656 -115.378906 1544.839844 -138.492188 1570.398438 -165.734375 C 1592.320312 -189.355469 1610.484375 -216.015625 1624.15625 -245.238281 C 1641.453125 -280.933594 1653.492188 -319.996094 1664.777344 -357.804688 C 1678.816406 -403.851562 1693.070312 -451.589844 1717.667969 -492.476562 L 1716.292969 -493.410156 C 1691.8125 -452.339844 1677.378906 -404.484375 1663.335938 -358.4375 C 1651.933594 -320.8125 1640.015625 -281.566406 1622.78125 -246.175781 C 1609.175781 -217.25 1591.128906 -190.410156 1569.273438 -167.089844 C 1543.964844 -140.261719 1511.097656 -117.152344 1468.953125 -96.394531 C 1447.582031 -86.082031 1425.5 -76.871094 1403.199219 -68.816406 C 1372.792969 -57.644531 1338.382812 -52.722656 1305.246094 -47.839844 C 1267.742188 -42.492188 1229.085938 -36.925781 1195.40625 -22.367188 C 1187.535156 -18.882812 1179.78125 -15.214844 1171.960938 -11.246094 C 1090.617188 31.234375 1014.273438 111.460938 957.121094 214.390625 C 943.472656 239.195312 931.953125 266.523438 920.9375 293.015625 C 903.335938 335.121094 885.105469 378.667969 857.953125 410.304688 C 850.28125 419.359375 842.269531 427.082031 834.5625 434.867188 C 825.867188 443.539062 817.425781 451.796875 809.6875 461.15625 C 786.394531 490.320312 784.355469 515.464844 787.03125 531.378906 L 788.667969 531.105469 C 784.101562 502.929688 798.421875 477.953125 811.0625 462.089844 Z M 818.054688 466.941406 C 826.078125 458.4375 834.808594 451.035156 843.90625 443.394531 C 853.003906 435.757812 862.472656 427.886719 871.179688 418.421875 C 902.160156 385.890625 921.238281 339.210938 939.746094 293.671875 C 950.015625 268.441406 960.601562 242.488281 973.199219 218.871094 C 1045.785156 82.996094 1127.203125 19.996094 1182.628906 -8.742188 C 1190.261719 -12.59375 1198.019531 -16.261719 1205.824219 -19.445312 C 1239.1875 -33.285156 1278 -37.394531 1315.472656 -41.167969 C 1348.949219 -44.714844 1383.695312 -48.296875 1414.15625 -58.984375 C 1436.507812 -66.554688 1458.707031 -75.578125 1479.894531 -85.773438 C 1522.277344 -106.164062 1555.023438 -129.460938 1579.980469 -156.835938 C 1600.367188 -179.214844 1617.191406 -205.535156 1631.339844 -237.65625 C 1646.421875 -271.15625 1656.773438 -307.585938 1666.863281 -342.8125 C 1680.894531 -391.703125 1695.324219 -442.40625 1722.3125 -484.820312 L 1720.9375 -485.753906 C 1693.765625 -443.222656 1679.335938 -392.519531 1665.238281 -343.328125 C 1655.148438 -308.101562 1644.796875 -271.667969 1629.898438 -238.289062 C 1615.632812 -206.351562 1598.992188 -180.148438 1578.789062 -157.890625 C 1553.832031 -130.511719 1521.269531 -107.332031 1479.074219 -87.0625 C 1457.765625 -77.050781 1435.566406 -68.023438 1413.332031 -60.269531 C 1383.058594 -49.703125 1348.308594 -46.121094 1314.832031 -42.574219 C 1277.175781 -38.683594 1238.0625 -34.636719 1204.632812 -20.496094 C 1196.644531 -17.195312 1188.890625 -13.527344 1181.253906 -9.675781 C 1080.359375 42.722656 1011.386719 143.371094 971.207031 218.589844 C 958.609375 242.207031 948.023438 268.160156 937.753906 293.394531 C 919.496094 338.515625 900.417969 385.195312 869.621094 417.605469 C 860.796875 426.882812 851.328125 434.757812 842.53125 442.460938 C 833.25 450.21875 824.703125 457.503906 816.496094 466.125 C 804.515625 478.976562 785.214844 505.070312 789.65625 536.695312 L 791.296875 536.421875 C 787.390625 505.230469 806.441406 479.558594 818.054688 466.941406 Z M 825.046875 471.796875 C 833.609375 463.726562 842.808594 457.058594 852.378906 450.15625 C 862.683594 442.78125 873.234375 434.988281 883.214844 425.492188 C 917.894531 392.667969 937.511719 342.789062 956.550781 294.835938 C 966.136719 270.558594 975.855469 245.679688 987.652344 222.835938 C 1027.507812 145.492188 1095.371094 42.703125 1192.285156 -7.410156 C 1199.4375 -11.210938 1207.308594 -14.695312 1215.484375 -18.113281 C 1248.410156 -31.414062 1287.496094 -33.886719 1325.308594 -36.324219 C 1359.125 -38.53125 1394.210938 -40.773438 1424.539062 -50.859375 C 1447.007812 -58.242188 1469.257812 -66.785156 1490.566406 -76.796875 C 1532.996094 -96.699219 1565.628906 -120.179688 1589.929688 -148.175781 C 1609.527344 -170.566406 1625.699219 -197.503906 1639.007812 -230.128906 C 1651.9375 -261.726562 1661.160156 -295.878906 1669.933594 -328.707031 C 1683.773438 -380.328125 1697.824219 -433.640625 1727.554688 -477.03125 L 1726.179688 -477.96875 C 1696.570312 -434.390625 1682.148438 -380.84375 1668.425781 -329.039062 C 1659.652344 -296.210938 1650.429688 -262.058594 1637.5 -230.457031 C 1624.375 -197.953125 1608.269531 -171.316406 1588.671875 -148.925781 C 1564.371094 -120.929688 1531.988281 -97.867188 1489.859375 -77.898438 C 1468.433594 -68.070312 1446.300781 -59.347656 1424.015625 -52.078125 C 1393.871094 -42.113281 1358.902344 -39.683594 1325.273438 -37.59375 C 1287.460938 -35.160156 1248.191406 -32.570312 1214.960938 -19.332031 C 1206.789062 -15.914062 1198.914062 -12.433594 1191.582031 -8.515625 C 1094.179688 41.652344 1026.066406 144.859375 986.148438 222.503906 C 974.53125 245.230469 964.628906 270.230469 955.046875 294.507812 C 936.191406 342.339844 916.636719 391.917969 882.140625 424.625 C 872.164062 434.121094 861.675781 441.613281 851.488281 449.167969 C 841.734375 456.191406 832.71875 462.738281 823.972656 470.929688 C 813.257812 480.898438 788.734375 507.738281 793.4375 541.789062 L 795.074219 541.519531 C 790.425781 507.953125 814.515625 481.648438 825.046875 471.796875 Z M 831.789062 477.070312 C 841.003906 469.617188 850.558594 463.5 860.78125 457.214844 C 872.175781 449.921875 884.050781 442.578125 894.9375 433.28125 C 933.429688 400.34375 953.34375 347.6875 972.675781 296.957031 C 981.574219 273.636719 990.792969 249.59375 1001.609375 227.640625 C 1059.121094 111.519531 1126.351562 33.238281 1201.628906 -5.359375 C 1209.265625 -9.210938 1216.957031 -12.574219 1224.945312 -15.875 C 1257.742188 -28.578125 1296.980469 -29.59375 1335.132812 -30.6875 C 1369.285156 -31.558594 1404.527344 -32.347656 1434.722656 -41.828125 C 1457.246094 -48.726562 1479.492188 -57.269531 1500.851562 -66.792969 C 1543.402344 -86.515625 1575.546875 -109.941406 1599.496094 -138.488281 C 1618.308594 -160.898438 1633.574219 -188.035156 1646.296875 -221.574219 C 1657.554688 -251.328125 1665.527344 -283.386719 1673.121094 -314.421875 C 1686.402344 -368.535156 1700.195312 -424.273438 1732.113281 -468.289062 L 1730.738281 -469.222656 C 1698.570312 -424.789062 1684.710938 -368.75 1671.429688 -314.636719 C 1663.839844 -283.601562 1656.050781 -251.660156 1644.789062 -221.90625 C 1632.433594 -188.601562 1617.167969 -161.464844 1598.421875 -139.355469 C 1574.660156 -110.929688 1542.578125 -87.800781 1500.210938 -68.199219 C 1478.972656 -58.488281 1456.605469 -50.132812 1434.265625 -43.347656 C 1404.253906 -33.988281 1369.132812 -33.015625 1335.164062 -32.261719 C 1296.894531 -31.347656 1257.652344 -30.332031 1224.488281 -17.398438 C 1216.566406 -14.398438 1208.628906 -10.613281 1201.175781 -6.878906 C 1125.714844 31.835938 1058.117188 110.351562 1000.535156 226.773438 C 989.535156 248.84375 980.4375 273.070312 971.535156 296.390625 C 952.203125 347.121094 932.355469 399.476562 894.230469 432.175781 C 883.34375 441.476562 871.585938 449.003906 860.261719 455.992188 C 850.523438 462.226562 840.296875 468.511719 831.082031 475.964844 C 806.324219 495.960938 793.730469 522.421875 796.914062 546.820312 L 798.554688 546.546875 C 795.121094 522.570312 807.582031 496.710938 831.789062 477.070312 Z M 838.78125 481.921875 C 848.535156 474.902344 859.109375 469.167969 869.503906 463.554688 C 882.035156 456.828125 895 449.566406 906.972656 440.347656 C 948.914062 407.539062 969.238281 352.285156 988.980469 298.960938 C 997.265625 276.292969 1006.046875 252.789062 1016.246094 231.488281 C 1073.214844 112.089844 1139.070312 32.875 1211.777344 -4.078125 C 1219.226562 -7.8125 1227.101562 -11.292969 1235.023438 -14.292969 C 1267.570312 -26.574219 1307.082031 -25.949219 1345.507812 -25.40625 C 1380 -24.9375 1415.578125 -24.390625 1445.640625 -33.265625 C 1468.214844 -39.683594 1490.398438 -47.921875 1511.941406 -57.566406 C 1553.871094 -76.628906 1586.820312 -100.832031 1609.980469 -129.390625 C 1628.191406 -151.933594 1642.621094 -179.570312 1654.386719 -213.792969 C 1664.042969 -242.003906 1670.949219 -272.085938 1677.359375 -301.324219 C 1690.015625 -357.628906 1703.25 -415.863281 1737.660156 -460.4375 L 1736.285156 -461.371094 C 1701.625 -416.378906 1688.390625 -358.144531 1675.667969 -301.539062 C 1669.140625 -272.480469 1662.351562 -242.21875 1652.761719 -214.308594 C 1641.179688 -180.203125 1626.632812 -152.75 1608.789062 -130.445312 C 1585.996094 -102.117188 1553.234375 -78.035156 1511.484375 -59.085938 C 1490.125 -49.5625 1467.941406 -41.320312 1445.371094 -34.90625 C 1415.488281 -26.148438 1380.027344 -26.511719 1345.71875 -27.097656 C 1307.296875 -27.640625 1267.597656 -28.148438 1234.75 -15.933594 C 1226.828125 -12.933594 1218.957031 -9.449219 1211.320312 -5.597656 C 1138.246094 31.585938 1072.324219 111.105469 1015.171875 230.621094 C 1004.910156 252.222656 996.308594 275.609375 987.839844 298.394531 C 968.164062 351.417969 947.90625 406.371094 906.332031 438.941406 C 894.476562 448.34375 881.578125 455.304688 869.046875 462.03125 C 858.652344 467.648438 847.894531 473.5 838.140625 480.519531 C 798.210938 509.1875 799.058594 542.078125 800.160156 551.480469 L 801.796875 551.210938 C 800.332031 542.039062 799.46875 509.9375 838.78125 481.921875 Z M 845.222656 487.128906 C 845.40625 487.011719 845.589844 486.894531 845.773438 486.777344 C 856.0625 480.191406 867.476562 474.957031 878.40625 469.777344 C 892.144531 463.316406 906.25 456.617188 919.007812 447.414062 C 964.699219 414.796875 985.25 357.066406 1005.21875 301.265625 C 1013.070312 279.132812 1021.238281 256.28125 1030.882812 235.335938 C 1087.820312 111.03125 1150.382812 33.148438 1221.617188 -2.863281 C 1229.070312 -6.597656 1236.945312 -10.082031 1244.984375 -12.894531 C 1277.28125 -24.757812 1317.25 -22.609375 1355.828125 -20.613281 C 1390.476562 -18.6875 1426.09375 -16.867188 1456.207031 -25.257812 C 1478.714844 -31.371094 1501.132812 -39.242188 1522.609375 -48.585938 C 1564.777344 -67.285156 1597.421875 -91.550781 1619.746094 -120.613281 C 1637.351562 -143.285156 1650.746094 -170.515625 1661.6875 -206.027344 C 1669.925781 -232.8125 1675.652344 -261.097656 1681.363281 -288.597656 C 1693.273438 -347.277344 1705.582031 -407.765625 1742.417969 -452.597656 L 1741.226562 -453.648438 C 1704.140625 -408.398438 1691.648438 -347.792969 1679.855469 -288.929688 C 1674.328125 -261.546875 1668.417969 -233.144531 1660.363281 -206.476562 C 1649.421875 -170.964844 1636.09375 -144.035156 1618.671875 -121.480469 C 1596.414062 -92.71875 1563.953125 -68.570312 1522.085938 -49.804688 C 1500.609375 -40.464844 1478.492188 -32.527344 1455.867188 -26.597656 C 1426.121094 -18.4375 1390.503906 -20.261719 1356.160156 -22.121094 C 1317.464844 -24.300781 1277.3125 -26.332031 1244.828125 -14.351562 C 1236.789062 -11.535156 1228.917969 -8.050781 1221.28125 -4.199219 C 1149.558594 31.859375 1086.929688 110.046875 1029.742188 234.769531 C 1020.097656 255.714844 1012.046875 278.75 1004.011719 301 C 984.109375 356.5 963.625 413.929688 918.601562 446.378906 C 905.84375 455.582031 891.738281 462.277344 878.1875 468.621094 C 867.257812 473.804688 855.960938 479.222656 845.367188 485.742188 C 845.183594 485.859375 845 485.976562 844.816406 486.09375 C 822.402344 500.441406 799.953125 526.476562 803.570312 556.8125 L 805.210938 556.542969 C 801.15625 526.738281 823.171875 501.242188 845.222656 487.128906 Z M 852.582031 491.75 C 863.59375 485.480469 875.726562 480.5625 887.378906 475.695312 C 901.953125 469.734375 917.078125 463.421875 930.859375 454.601562 C 980.117188 422.292969 1000.894531 362.085938 1020.90625 303.921875 C 1028.324219 282.328125 1036.058594 260.011719 1045.152344 239.417969 C 1081.148438 158.066406 1139.339844 44.625 1231.398438 -1.347656 C 1238.847656 -5.078125 1246.722656 -8.5625 1254.578125 -11.261719 C 1286.742188 -22.519531 1326.867188 -18.917969 1365.417969 -15.347656 C 1400.402344 -12.082031 1436.359375 -8.921875 1466.15625 -16.59375 C 1488.898438 -22.339844 1511.25 -29.910156 1532.664062 -38.953125 C 1574.761719 -57.347656 1607.109375 -81.679688 1629.195312 -111.109375 C 1646.148438 -134.402344 1658.820312 -161.949219 1668.621094 -198.027344 C 1675.625 -223.503906 1680.535156 -250.230469 1685.128906 -276.238281 C 1696.046875 -336.871094 1707.363281 -399.316406 1746.625 -444.40625 L 1745.433594 -445.457031 C 1705.804688 -400.132812 1694.421875 -337.386719 1683.621094 -276.566406 C 1679.027344 -250.5625 1674.121094 -223.835938 1666.996094 -198.542969 C 1657.078125 -162.648438 1644.589844 -135.21875 1627.703125 -112.226562 C 1605.800781 -82.917969 1573.519531 -58.886719 1531.90625 -40.539062 C 1510.613281 -31.316406 1488.257812 -23.746094 1465.699219 -18.117188 C 1436.203125 -10.378906 1400.128906 -13.722656 1365.445312 -16.917969 C 1326.410156 -20.441406 1286.167969 -24.226562 1253.820312 -12.847656 C 1245.78125 -10.035156 1238.089844 -6.667969 1230.453125 -2.816406 C 1138.03125 43.386719 1079.589844 157.25 1043.527344 238.902344 C 1034.433594 259.496094 1026.699219 281.8125 1019.214844 303.707031 C 999.269531 361.570312 978.558594 421.476562 929.785156 453.734375 C 916.308594 462.621094 901.0625 468.75 886.488281 474.710938 C 874.835938 479.578125 862.703125 484.492188 851.507812 490.882812 C 828.269531 503.945312 802.542969 530.519531 806.199219 562.128906 L 807.835938 561.859375 C 804.414062 530.617188 829.828125 504.761719 852.582031 491.75 Z M 859.390625 496.71875 C 871.121094 490.765625 883.792969 486.285156 896.097656 482.035156 C 911.695312 476.457031 927.960938 470.710938 942.710938 461.785156 C 995.535156 429.789062 1016.355469 367.21875 1036.59375 306.578125 C 1043.761719 285.402344 1050.945312 263.441406 1059.488281 243.199219 C 1097.765625 152.871094 1153.039062 43.367188 1240.9375 -0.199219 C 1248.390625 -3.929688 1256.199219 -7.113281 1264.054688 -9.8125 C 1295.785156 -20.535156 1336.183594 -15.292969 1375.070312 -10.382812 C 1410.277344 -5.964844 1446.6875 -1.28125 1476.355469 -8.351562 C 1499.148438 -13.613281 1521.4375 -20.878906 1543.03125 -30.039062 C 1585.25 -48.25 1617.410156 -72.464844 1638.84375 -102.511719 C 1655.242188 -125.453125 1667.078125 -153.5 1676.109375 -190.378906 C 1681.996094 -214.363281 1686.039062 -240.015625 1689.816406 -264.464844 C 1699.742188 -327.054688 1709.945312 -391.640625 1751.6875 -436.5 L 1750.496094 -437.550781 C 1708.503906 -392.273438 1698.234375 -327.386719 1688.425781 -264.613281 C 1684.464844 -240.046875 1680.488281 -214.695312 1674.71875 -190.527344 C 1665.753906 -153.949219 1653.921875 -125.898438 1637.703125 -103.078125 C 1616.636719 -73.269531 1584.660156 -49.171875 1542.625 -31.074219 C 1521.214844 -22.035156 1498.929688 -14.765625 1476.316406 -9.621094 C 1446.953125 -2.488281 1410.542969 -7.171875 1375.636719 -11.519531 C 1336.445312 -16.496094 1296.050781 -21.738281 1263.832031 -10.964844 C 1255.792969 -8.152344 1247.988281 -4.96875 1240.535156 -1.234375 C 1152.085938 42.683594 1096.625 152.304688 1058.28125 242.9375 C 1049.738281 263.175781 1042.375 285.253906 1035.390625 306.3125 C 1015.78125 365.515625 995.289062 426.574219 945.128906 458.683594 C 944.210938 459.273438 943.109375 459.976562 942.191406 460.566406 C 927.621094 469.371094 911.355469 475.121094 895.757812 480.699219 C 883.453125 484.945312 870.78125 489.429688 858.867188 495.5 C 834.003906 508.046875 806.167969 534.160156 809.742188 566.859375 L 811.382812 566.585938 C 807.792969 534.675781 834.894531 509.03125 859.390625 496.71875 Z M 866.199219 501.691406 C 878.652344 496.054688 892.042969 491.886719 904.882812 488.074219 C 921.621094 483.0625 938.910156 477.695312 954.378906 469.089844 C 1010.886719 437.585938 1031.933594 372.539062 1052.035156 309.652344 C 1058.648438 288.832031 1065.582031 267.289062 1073.691406 247.585938 C 1117.875 138.964844 1176.160156 23.644531 1273.765625 -7.992188 C 1305.367188 -18.113281 1346.101562 -11.535156 1385.261719 -4.984375 C 1420.621094 0.890625 1457.371094 6.910156 1486.90625 0.445312 C 1563.601562 -16.511719 1617.867188 -47.878906 1648.59375 -92.945312 C 1679.320312 -138.011719 1687.167969 -196.164062 1694.621094 -252.507812 C 1703.367188 -316.9375 1712.28125 -383.546875 1756.3125 -428.058594 L 1755.121094 -429.109375 C 1710.839844 -384.179688 1701.746094 -317.453125 1692.929688 -252.722656 C 1685.359375 -196.5625 1677.578125 -138.710938 1646.917969 -93.945312 C 1616.441406 -49.296875 1562.359375 -18.050781 1486.148438 -1.144531 C 1456.917969 5.386719 1420.46875 -0.566406 1385.289062 -6.554688 C 1345.828125 -13.171875 1304.976562 -19.9375 1273.007812 -9.582031 C 1174.734375 22.226562 1116.199219 137.960938 1071.949219 246.886719 C 1063.957031 266.773438 1057.023438 288.316406 1050.410156 309.136719 C 1030.375 371.722656 1009.695312 436.53125 953.558594 467.800781 C 938.269531 476.292969 920.980469 481.65625 904.246094 486.667969 C 891.21875 490.601562 877.828125 494.769531 865.375 500.40625 C 836.8125 513.246094 809.382812 540.394531 812.433594 571.871094 L 814.074219 571.601562 C 811.308594 540.976562 838.304688 514.363281 866.199219 501.691406 Z M 866.199219 501.691406 "/>
</clipPath>
<linearGradient id="linear1" gradientUnits="userSpaceOnUse" x1="-28.660419" y1="129.899994" x2="383.100917" y2="129.899994" gradientTransform="matrix(1.837401,-1.176145,1.176766,1.83837,529.870182,128.421339)">
<stop offset="0" style="stop-color:rgb(66.299438%,28.199768%,100%);stop-opacity:1;"/>
<stop offset="0.0625" style="stop-color:rgb(66.299438%,28.199768%,100%);stop-opacity:1;"/>
<stop offset="0.09375" style="stop-color:rgb(66.413879%,28.320312%,99.914551%);stop-opacity:1;"/>
<stop offset="0.125" style="stop-color:rgb(66.667175%,28.590393%,99.728394%);stop-opacity:1;"/>
<stop offset="0.15625" style="stop-color:rgb(66.944885%,28.887939%,99.5224%);stop-opacity:1;"/>
<stop offset="0.1875" style="stop-color:rgb(67.224121%,29.187012%,99.316406%);stop-opacity:1;"/>
<stop offset="0.21875" style="stop-color:rgb(67.503357%,29.484558%,99.111938%);stop-opacity:1;"/>
<stop offset="0.25" style="stop-color:rgb(67.781067%,29.782104%,98.905945%);stop-opacity:1;"/>
<stop offset="0.28125" style="stop-color:rgb(68.060303%,30.079651%,98.701477%);stop-opacity:1;"/>
<stop offset="0.3125" style="stop-color:rgb(68.339539%,30.377197%,98.495483%);stop-opacity:1;"/>
<stop offset="0.34375" style="stop-color:rgb(68.617249%,30.674744%,98.28949%);stop-opacity:1;"/>
<stop offset="0.375" style="stop-color:rgb(68.896484%,30.97229%,98.085022%);stop-opacity:1;"/>
<stop offset="0.40625" style="stop-color:rgb(69.17572%,31.269836%,97.879028%);stop-opacity:1;"/>
<stop offset="0.4375" style="stop-color:rgb(69.45343%,31.567383%,97.674561%);stop-opacity:1;"/>
<stop offset="0.46875" style="stop-color:rgb(69.732666%,31.864929%,97.468567%);stop-opacity:1;"/>
<stop offset="0.5" style="stop-color:rgb(70.011902%,32.162476%,97.262573%);stop-opacity:1;"/>
<stop offset="0.53125" style="stop-color:rgb(70.289612%,32.460022%,97.058105%);stop-opacity:1;"/>
<stop offset="0.5625" style="stop-color:rgb(70.568848%,32.757568%,96.852112%);stop-opacity:1;"/>
<stop offset="0.59375" style="stop-color:rgb(70.848083%,33.055115%,96.647644%);stop-opacity:1;"/>
<stop offset="0.625" style="stop-color:rgb(71.125793%,33.352661%,96.44165%);stop-opacity:1;"/>
<stop offset="0.65625" style="stop-color:rgb(71.405029%,33.650208%,96.235657%);stop-opacity:1;"/>
<stop offset="0.6875" style="stop-color:rgb(71.684265%,33.947754%,96.031189%);stop-opacity:1;"/>
<stop offset="0.71875" style="stop-color:rgb(71.961975%,34.2453%,95.825195%);stop-opacity:1;"/>
<stop offset="0.75" style="stop-color:rgb(72.241211%,34.542847%,95.620728%);stop-opacity:1;"/>
<stop offset="0.78125" style="stop-color:rgb(72.520447%,34.840393%,95.414734%);stop-opacity:1;"/>
<stop offset="0.8125" style="stop-color:rgb(72.798157%,35.137939%,95.210266%);stop-opacity:1;"/>
<stop offset="0.84375" style="stop-color:rgb(73.077393%,35.435486%,95.004272%);stop-opacity:1;"/>
<stop offset="0.875" style="stop-color:rgb(73.356628%,35.733032%,94.798279%);stop-opacity:1;"/>
<stop offset="0.90625" style="stop-color:rgb(73.634338%,36.030579%,94.593811%);stop-opacity:1;"/>
<stop offset="0.9375" style="stop-color:rgb(73.913574%,36.328125%,94.387817%);stop-opacity:1;"/>
<stop offset="0.96875" style="stop-color:rgb(74.19281%,36.625671%,94.18335%);stop-opacity:1;"/>
<stop offset="1" style="stop-color:rgb(74.47052%,36.923218%,93.977356%);stop-opacity:1;"/>
</linearGradient>
</defs>
<g id="surface1">
<rect x="0" y="0" width="1440" height="809.999993" style="fill:rgb(100%,100%,100%);fill-opacity:1;stroke:none;"/>
<rect x="0" y="0" width="1440" height="809.999993" style="fill:rgb(100%,100%,100%);fill-opacity:1;stroke:none;"/>
<rect x="0" y="0" width="1440" height="809.999993" style="fill:rgb(57.649231%,19.60907%,61.959839%);fill-opacity:1;stroke:none;"/>
<g clip-path="url(#clip1)" clip-rule="nonzero">
<g clip-path="url(#clip2)" clip-rule="nonzero">
<g clip-path="url(#clip3)" clip-rule="nonzero">
<g clip-path="url(#clip4)" clip-rule="nonzero">
<path style=" stroke:none;fill-rule:nonzero;fill:url(#linear0);" d="M -69.289062 226.382812 L 614.429688 1324.175781 L 1803.484375 583.617188 L 1119.765625 -514.175781 Z M -69.289062 226.382812 "/>
</g>
</g>
</g>
</g>
<g clip-path="url(#clip5)" clip-rule="nonzero">
<g clip-path="url(#clip6)" clip-rule="nonzero">
<g clip-path="url(#clip7)" clip-rule="nonzero">
<g clip-path="url(#clip8)" clip-rule="nonzero">
<path style=" stroke:none;fill-rule:nonzero;fill:url(#linear1);" d="M 479.824219 166.214844 L 943.09375 889.949219 L 1699.667969 405.65625 L 1236.394531 -318.074219 Z M 479.824219 166.214844 "/>
</g>
</g>
</g>
</g>
</g>
</svg>
