<?xml version="1.0" encoding="UTF-8"?>
<svg xmlns="http://www.w3.org/2000/svg" xmlns:xlink="http://www.w3.org/1999/xlink" width="595.5pt" height="842.249979pt" viewBox="0 0 595.5 842.249979" version="1.2">
<defs>
<clipPath id="clip1">
  <path d="M 101 162.640625 L 340.050781 162.640625 L 340.050781 841.5 L 101 841.5 Z M 101 162.640625 "/>
</clipPath>
<clipPath id="clip2">
  <path d="M 292 288.53125 L 470 288.53125 L 470 841.257812 L 292 841.257812 Z M 292 288.53125 "/>
</clipPath>
<clipPath id="clip3">
  <path d="M 338.460938 434 L 594.984375 434 L 594.984375 671 L 338.460938 671 Z M 338.460938 434 "/>
</clipPath>
</defs>
<g id="surface1">
<g clip-path="url(#clip1)" clip-rule="nonzero">
<path style=" stroke:none;fill-rule:nonzero;fill:rgb(16.079712%,19.60907%,25.489807%);fill-opacity:1;" d="M 170.496094 807.476562 C 153.785156 812.09375 137.078125 816.578125 120.226562 821.195312 C 117.511719 822.285156 113.574219 824.1875 109.496094 827.449219 C 105.285156 830.980469 102.703125 834.652344 101.074219 837.234375 C 110.585938 838.050781 122.132812 838.453125 134.902344 837.234375 C 145.089844 836.285156 154.191406 834.652344 162.074219 832.746094 L 162.074219 837.234375 C 167.914062 837.234375 173.757812 837.234375 179.734375 837.234375 C 180.414062 834.925781 182.589844 826.902344 178.917969 818.207031 C 176.476562 812.503906 172.53125 809.105469 170.496094 807.476562 Z M 328.769531 825.273438 C 323.605469 821.875 318.445312 821.195312 315.863281 820.925781 L 283.257812 808.425781 C 276.871094 809.375 270.351562 810.191406 263.964844 811.144531 C 263.425781 815.21875 263.148438 819.839844 263.148438 824.863281 C 263.148438 830.167969 263.425781 834.925781 263.964844 839.132812 L 283.527344 839.132812 C 283.527344 837.371094 283.527344 835.605469 283.527344 833.835938 C 287.332031 835.738281 291.679688 837.503906 296.710938 838.863281 C 314.503906 844.027344 330.265625 841.988281 340.046875 839.679688 C 339.09375 837.371094 336.378906 830.167969 328.769531 825.273438 Z M 237.882812 180.460938 C 243.585938 189.023438 240.328125 203.15625 228.503906 209.679688 L 196.714844 244.332031 C 191.011719 253.710938 185.308594 263.085938 179.464844 272.460938 C 169.003906 281.292969 154.464844 281.839844 144.953125 274.367188 C 137.890625 268.792969 133.542969 258.738281 136.121094 248.816406 C 139.386719 236.316406 151.203125 231.96875 152.292969 231.558594 C 140.472656 217.019531 139.925781 198.398438 149.167969 187.394531 C 156.910156 178.289062 168.867188 177.609375 171.722656 177.609375 C 176.609375 168.097656 186.257812 162.253906 196.445312 162.664062 C 208.125 163.203125 214.917969 172.035156 215.875 173.394531 C 224.707031 171.085938 233.667969 174.214844 237.882812 180.460938 "/>
</g>
<path style=" stroke:none;fill-rule:nonzero;fill:rgb(43.139648%,31.759644%,46.269226%);fill-opacity:1;" d="M 254.183594 773.773438 L 198.484375 495.871094 L 186.664062 773.773438 C 169.40625 773.773438 152.15625 773.773438 134.765625 773.773438 C 134.359375 762.761719 130.6875 653.777344 129.875 627.550781 C 129.875 627.550781 128.515625 588.550781 130.964844 521.824219 C 131.644531 503.074219 133.132812 470.59375 147.671875 432.273438 C 149.167969 428.332031 150.523438 425.070312 151.476562 422.757812 L 184.21875 404.550781 C 200.929688 413.789062 217.773438 423.03125 234.484375 432.132812 C 242.5 451.433594 253.914062 481.464844 263.015625 519.382812 C 273.066406 561.101562 274.425781 587.730469 282.035156 651.738281 C 285.292969 679.328125 290.320312 719.6875 297.792969 769.015625 M 297.792969 769.015625 L 254.183594 773.773438 "/>
<path style=" stroke:none;fill-rule:nonzero;fill:rgb(6.669617%,1.568604%,7.839966%);fill-opacity:1;" d="M 149.707031 398.160156 C 150.253906 402.375 150.664062 406.722656 150.933594 411.207031 C 151.203125 415.285156 151.476562 419.089844 151.476562 422.898438 C 161.53125 422.757812 171.582031 422.621094 181.632812 422.488281 C 187.476562 410.121094 193.320312 397.757812 199.164062 385.390625 C 194.136719 385.390625 189.105469 385.390625 184.21875 385.390625 C 172.804688 389.738281 161.253906 393.953125 149.707031 398.160156 Z M 224.160156 296.242188 C 227.144531 297.195312 230.679688 298.28125 234.214844 300.046875 C 238.695312 302.085938 242.636719 304.394531 245.761719 306.433594 C 244.265625 312.546875 242.90625 319.75 242.089844 327.773438 C 241.550781 333.886719 241.277344 339.726562 241.410156 344.757812 L 218.046875 345.300781 C 216.007812 349.515625 213.96875 353.863281 211.929688 358.074219 C 209.484375 356.714844 207.3125 356.035156 205.546875 355.761719 C 192.097656 353.726562 181.230469 368.132812 180.414062 369.21875 C 169.136719 370.03125 157.859375 370.980469 146.585938 371.800781 C 145.230469 361.066406 143.191406 348.96875 140.066406 336.058594 C 137.210938 324.507812 133.8125 314.046875 130.417969 304.804688 C 133.8125 303.582031 137.210938 302.355469 140.605469 301.136719 C 147.265625 298.6875 153.921875 296.378906 160.445312 294.070312 C 181.632812 294.882812 202.832031 295.5625 224.160156 296.242188 "/>
<path style=" stroke:none;fill-rule:nonzero;fill:rgb(54.119873%,24.308777%,62.348938%);fill-opacity:1;" d="M 218.046875 345.4375 L 177.15625 432.542969 L 185.984375 438.117188 L 267.089844 428.195312 L 306.761719 352.636719 L 295.351562 301.273438 L 270.488281 343.53125 Z M 207.445312 287.136719 C 209.761719 287.546875 212.882812 288.496094 216.277344 290.265625 C 219.949219 292.300781 222.53125 294.613281 224.160156 296.242188 C 224.566406 299.097656 224.707031 303.3125 223.886719 308.066406 C 222.390625 315.8125 218.722656 321.25 216.554688 324.097656 L 199.433594 311.328125 C 195.21875 316.492188 190.875 321.789062 186.664062 326.953125 C 181.910156 324.097656 174.164062 318.800781 167.777344 309.425781 C 163.972656 303.851562 161.800781 298.417969 160.445312 294.339844 C 162.613281 292.84375 165.46875 291.082031 168.867188 289.585938 C 171.722656 288.226562 174.4375 287.40625 176.746094 286.867188 C 186.796875 286.730469 197.125 287.003906 207.445312 287.136719 "/>
<path style=" stroke:none;fill-rule:nonzero;fill:rgb(80.778503%,55.688477%,44.709778%);fill-opacity:1;" d="M 254.726562 315.542969 C 251.601562 312.277344 248.203125 310.105469 245.355469 308.746094 C 243.996094 314.316406 242.90625 320.703125 242.230469 327.90625 C 241.6875 334.160156 241.410156 339.863281 241.550781 344.890625 C 249.5625 344.484375 257.445312 343.941406 265.460938 343.53125 C 265.324219 339.59375 264.914062 325.867188 254.726562 315.542969 Z M 295.621094 373.699219 C 294.804688 372.070312 289.371094 361.746094 287.46875 362.425781 C 285.433594 363.105469 288.148438 375.058594 288.558594 376.828125 C 285.972656 376.964844 282.304688 376.964844 278.5 375.46875 C 270.898438 372.480469 268.3125 366.09375 266.414062 366.773438 C 264.238281 367.722656 265.324219 377.644531 269.261719 386.070312 C 272.660156 393.40625 277.550781 398.300781 280.949219 401.15625 C 282.304688 400.609375 290.867188 397.621094 294.671875 388.515625 C 297.519531 381.722656 296.164062 375.605469 295.621094 373.699219 Z M 180.414062 369.351562 C 169.136719 370.171875 157.859375 371.121094 146.585938 371.9375 C 145.363281 360.386719 143.191406 347.066406 139.386719 332.800781 C 137.078125 323.964844 134.359375 315.8125 131.503906 308.472656 C 119.546875 325.457031 106.914062 343.941406 93.734375 363.644531 C 81.917969 381.582031 71.726562 397.480469 77.839844 408.082031 C 79.199219 410.527344 81.105469 412.027344 82.054688 412.707031 C 99.441406 425.886719 143.730469 401.558594 149.707031 398.160156 L 184.351562 385.390625 C 189.382812 385.390625 194.40625 385.390625 199.296875 385.390625 C 203.507812 376.285156 207.722656 367.3125 211.929688 358.210938 C 209.484375 356.851562 207.3125 356.171875 205.546875 355.902344 C 191.960938 353.863281 181.230469 368.265625 180.414062 369.351562 Z M 213.289062 264.582031 C 210.84375 265.664062 208.671875 265.804688 207.445312 265.804688 C 207.175781 269.609375 207.042969 273.6875 207.042969 278.035156 C 207.042969 284.828125 207.445312 291.082031 207.992188 296.921875 C 205.136719 301.675781 202.152344 306.433594 199.296875 311.328125 L 174.4375 293.660156 C 176.476562 287.546875 178.238281 280.480469 179.597656 272.460938 C 180.277344 267.839844 180.683594 263.492188 180.953125 259.550781 C 179.734375 258.191406 178.375 256.152344 177.15625 253.710938 C 176.066406 251.535156 175.386719 249.496094 174.980469 247.867188 C 173.621094 248 169.816406 248.136719 166.964844 245.558594 C 161.933594 240.933594 163.292969 230.742188 167.097656 229.113281 C 167.914062 228.839844 169.546875 228.433594 172.804688 230.609375 C 174.4375 231.691406 176.066406 232.78125 177.558594 233.867188 C 178.648438 229.652344 179.597656 224.21875 179.734375 217.96875 C 179.871094 213.214844 179.464844 209.136719 178.917969 205.601562 C 182.722656 206.28125 188.566406 206.828125 195.359375 205.46875 C 205.546875 203.429688 212.476562 198.398438 215.875 195.546875 C 216.824219 195.679688 218.453125 195.816406 220.222656 196.769531 C 235.84375 204.789062 232.855469 256.289062 213.289062 264.582031 "/>
<path style=" stroke:none;fill-rule:nonzero;fill:rgb(80.778503%,55.688477%,44.709778%);fill-opacity:1;" d="M 150.523438 773.90625 L 150.523438 799.453125 C 144.820312 804.210938 138.4375 808.964844 131.644531 813.722656 C 127.839844 816.441406 124.03125 818.886719 120.226562 821.195312 C 123.625 822.828125 132.863281 826.5 144.410156 824.460938 C 160.171875 821.605469 168.726562 810.054688 170.363281 807.476562 C 170.902344 796.328125 171.445312 785.054688 171.992188 773.90625 Z M 286.519531 769.695312 C 288.148438 780.839844 289.777344 791.980469 291.40625 803.261719 C 294.671875 806.65625 299.019531 810.734375 304.722656 814.539062 C 310.425781 818.480469 315.863281 821.0625 320.207031 822.828125 C 308.121094 828.128906 300.238281 827.179688 295.210938 825.410156 C 288.421875 822.964844 284.480469 817.9375 272.527344 813.722656 C 268.859375 812.363281 265.867188 811.683594 263.828125 811.144531 C 264.644531 809.917969 265.460938 808.695312 266.273438 807.476562 C 265.054688 795.785156 263.828125 783.964844 262.605469 772.277344 L 286.519531 769.695312 "/>
<path style=" stroke:none;fill-rule:nonzero;fill:rgb(16.079712%,19.60907%,25.489807%);fill-opacity:1;" d="M 221.710938 229.519531 C 221.578125 230.609375 223.207031 230.742188 223.480469 229.792969 C 223.75 228.839844 224.429688 227.890625 225.515625 227.480469 C 226.46875 227.074219 227.554688 227.480469 227.554688 228.703125 C 227.421875 231.152344 231.496094 230.878906 230.953125 228.292969 C 229.863281 223.136719 222.121094 224.898438 221.710938 229.519531 Z M 202.152344 225.984375 C 199.84375 226.257812 198.214844 228.160156 197.257812 230.199219 C 196.578125 231.558594 198.617188 232.648438 199.296875 231.289062 C 199.84375 230.0625 200.523438 228.292969 202.152344 228.160156 C 203.648438 228.023438 204.050781 229.792969 204.597656 230.878906 C 205.683594 232.917969 209.082031 230.878906 207.722656 228.972656 C 206.363281 227.34375 204.328125 225.714844 202.152344 225.984375 Z M 221.171875 216.609375 C 222.800781 217.019531 224.296875 217.699219 225.789062 218.378906 C 227.144531 218.921875 228.644531 219.871094 230.140625 220.140625 C 231.628906 220.417969 232.855469 218.648438 231.628906 217.5625 C 229.183594 215.113281 224.707031 214.84375 221.441406 214.574219 C 220.222656 214.433594 220.082031 216.203125 221.171875 216.609375 Z M 190.0625 221.097656 C 194 218.78125 197.667969 217.289062 202.152344 217.019531 C 203.507812 217.019531 203.507812 215.113281 202.152344 214.980469 C 197.394531 214.707031 192.371094 215.660156 188.425781 218.378906 C 186.796875 219.597656 188.292969 222.179688 190.0625 221.097656 Z M 207.992188 253.574219 C 206.496094 253.03125 205.683594 255.203125 206.90625 256.019531 C 208.125 256.832031 210.300781 257.648438 211.390625 256.289062 C 212.070312 255.609375 211.929688 254.390625 211.121094 253.980469 C 210.164062 253.300781 209.082031 253.84375 207.992188 253.574219 Z M 205.957031 245.960938 C 205.277344 245.011719 203.78125 245.828125 204.328125 246.917969 C 207.3125 252.621094 214.917969 253.574219 219.949219 250.039062 C 221.988281 248.679688 220.222656 245.417969 218.046875 246.640625 C 214.105469 248.953125 208.945312 250.445312 205.957031 245.960938 Z M 255.273438 409.441406 C 243.859375 408.898438 232.308594 408.898438 220.898438 409.308594 C 217.914062 409.441406 217.914062 413.925781 220.898438 413.925781 C 232.449219 413.789062 243.859375 413.246094 255.273438 412.160156 C 256.902344 411.886719 256.902344 409.578125 255.273438 409.441406 Z M 260.429688 378.324219 C 261.789062 378.1875 261.789062 375.875 260.429688 375.738281 C 255.542969 375.058594 250.652344 375.058594 245.761719 374.925781 C 242.90625 374.789062 242.90625 379.410156 245.761719 379.273438 C 250.652344 379.136719 255.542969 379.003906 260.429688 378.324219 Z M 276.734375 360.789062 C 265.054688 360.789062 253.234375 360.65625 241.550781 360.109375 C 238.96875 359.976562 238.832031 364.1875 241.550781 364.1875 C 253.367188 364.054688 265.054688 363.507812 276.734375 362.148438 C 277.6875 362.148438 277.6875 360.789062 276.734375 360.789062 Z M 271.4375 398.570312 C 266.273438 407.8125 261.789062 417.734375 256.222656 426.699219 C 254.59375 429.144531 258.53125 431.453125 260.160156 429.011719 C 265.867188 420.042969 269.539062 409.308594 273.476562 399.386719 C 273.882812 398.160156 272.117188 397.480469 271.4375 398.570312 Z M 302.546875 342.3125 C 274.425781 341.902344 245.761719 341.632812 217.773438 344.890625 C 215.328125 345.164062 215.058594 348.96875 217.773438 348.96875 C 220.222656 348.835938 222.667969 348.835938 225.109375 348.699219 C 210.441406 376.964844 198.074219 406.722656 185.03125 435.808594 C 183.671875 438.796875 188.023438 441.242188 189.382812 438.386719 C 202.691406 408.761719 216.957031 379.136719 228.101562 348.699219 C 250.789062 347.609375 273.476562 345.710938 296.300781 344.621094 C 296.300781 344.621094 296.300781 344.757812 296.164062 344.757812 C 296.03125 344.890625 296.03125 345.03125 296.03125 345.164062 C 295.621094 346.117188 294.671875 347.066406 294.261719 347.878906 C 293.582031 348.96875 292.90625 350.058594 292.359375 351.144531 C 291 353.453125 289.640625 355.761719 288.421875 358.210938 C 287.46875 360.386719 290.457031 362.148438 291.679688 360.109375 C 293.445312 356.988281 294.941406 353.453125 296.433594 350.195312 C 296.980469 348.835938 299.019531 346.117188 297.792969 344.621094 C 299.289062 344.484375 300.917969 344.484375 302.414062 344.351562 C 303.636719 344.078125 303.636719 342.3125 302.546875 342.3125 Z M 218.316406 231.828125 C 218.722656 233.730469 217.636719 235.636719 216.144531 236.585938 C 215.328125 237.128906 216.007812 238.355469 216.824219 237.808594 C 218.996094 236.585938 220.222656 234.410156 220.222656 231.96875 C 220.222656 230.742188 219.8125 229.792969 219.269531 228.703125 C 218.183594 226.394531 218.316406 224.21875 218.046875 221.636719 C 217.773438 219.738281 214.785156 219.597656 215.058594 221.636719 C 215.195312 223.8125 215.195312 226.664062 216.414062 228.433594 C 216.957031 229.792969 218.046875 230.332031 218.316406 231.828125 Z M 168.046875 238.082031 C 168.324219 237.128906 168.046875 236.175781 168.046875 235.226562 C 168.046875 234.820312 168.046875 234.277344 168.324219 234.007812 C 168.457031 233.867188 168.59375 233.597656 168.59375 233.730469 C 169.003906 234.410156 170.222656 234.007812 169.953125 233.1875 C 169.546875 231.558594 167.644531 231.558594 166.558594 232.648438 C 165.878906 233.328125 165.609375 234.277344 165.46875 235.226562 C 165.332031 236.316406 165.0625 237.535156 165.738281 238.488281 C 166.417969 239.304688 167.777344 239.164062 168.046875 238.082031 Z M 169.953125 252.074219 C 175.386719 264.171875 194.136719 267.300781 205.816406 267.160156 C 206.90625 267.160156 206.90625 265.664062 205.816406 265.53125 C 198.617188 265.125 191.421875 263.085938 185.03125 259.824219 C 180.003906 257.242188 176.339844 253.433594 171.992188 250.175781 C 170.632812 249.085938 169.40625 250.855469 169.953125 252.074219 Z M 179.597656 370.847656 C 166.828125 371.660156 154.191406 372.886719 141.695312 375.335938 C 130.007812 377.644531 118.597656 381.722656 106.914062 384.03125 C 105.152344 384.4375 103.792969 381.855469 105.554688 380.902344 C 116.5625 375.46875 129.875 372.886719 141.832031 371.121094 C 154.332031 369.21875 166.828125 368.265625 179.464844 368.945312 C 180.683594 369.082031 180.683594 370.710938 179.597656 370.847656 "/>
<g clip-path="url(#clip2)" clip-rule="nonzero">
<path style=" stroke:none;fill-rule:nonzero;fill:rgb(16.079712%,19.60907%,25.489807%);fill-opacity:1;" d="M 394.453125 298.117188 C 392.132812 296.011719 381.394531 287.167969 367.453125 288.71875 C 358.269531 289.710938 351.296875 294.90625 348.863281 296.898438 C 343.664062 301.214844 344.105469 303.199219 338.019531 308.070312 C 331.492188 313.265625 328.832031 312.601562 323.746094 316.800781 C 323.746094 316.800781 316.660156 322.664062 313.566406 331.730469 C 307.585938 349.089844 321.863281 366.5625 322.859375 367.78125 C 328.832031 369.992188 335.363281 371.984375 342.558594 373.527344 C 373.875 380.277344 401.3125 375.074219 419.019531 369.660156 C 428.316406 358.601562 429.089844 351.195312 427.984375 346.324219 C 426.878906 341.460938 424 340.136719 423.003906 333.941406 C 421.675781 325.867188 425.769531 323.882812 425.105469 316.800781 C 424.332031 308.289062 417.472656 298.667969 407.84375 296.566406 C 401.867188 295.132812 396.777344 297.011719 394.453125 298.117188 Z M 310.800781 720.519531 L 411.824219 686.570312 L 450.449219 695.527344 L 469.148438 765.078125 C 466.933594 788.964844 464.832031 812.957031 462.621094 836.84375 C 451.222656 839.386719 436.28125 841.488281 418.910156 841.046875 C 406.183594 840.714844 395.007812 839.054688 385.714844 837.066406 L 381.175781 812.738281 C 378.1875 820.917969 375.199219 829.210938 372.101562 837.398438 C 359.15625 839.941406 342.664062 841.929688 323.632812 841.046875 C 312.015625 840.496094 301.722656 838.945312 292.761719 837.175781 L 294.53125 783.101562 L 310.800781 720.519531 "/>
</g>
<path style=" stroke:none;fill-rule:nonzero;fill:rgb(65.098572%,65.098572%,65.098572%);fill-opacity:1;" d="M 315.226562 497.042969 C 313.675781 490.296875 312.234375 483.550781 310.6875 476.804688 L 330.9375 454.03125 L 338.570312 446.507812 L 403.972656 450.046875 L 407.511719 452.144531 C 417.03125 476.253906 426.324219 505.667969 432.1875 539.835938 C 444.027344 608.503906 437.277344 667.109375 429.203125 706.585938 C 422.5625 709.679688 411.824219 713.660156 398.105469 714.765625 C 382.394531 715.984375 369.777344 712.886719 362.363281 710.453125 C 347.203125 642.339844 332.265625 574.113281 317.105469 505.886719 M 317.105469 505.886719 C 316.441406 502.902344 315.777344 500.027344 315.113281 497.042969 "/>
<path style=" stroke:none;fill-rule:nonzero;fill:rgb(16.468811%,0%,23.919678%);fill-opacity:1;" d="M 423.558594 535.742188 C 426.210938 557.417969 427.210938 576.878906 428.425781 622.546875 C 429.3125 654.832031 429.976562 697.738281 429.203125 748.824219 C 432.964844 752.363281 439.601562 757.671875 449.339844 761.320312 C 459.742188 765.191406 468.925781 765.300781 474.125 765.078125 C 469.480469 724.941406 464.941406 684.800781 460.292969 644.550781 C 461.953125 645.433594 469.039062 648.863281 477.667969 646.761719 C 487.851562 644.222656 492.496094 636.035156 493.269531 634.710938 L 493.269531 587.050781 C 483.644531 551.003906 474.125 515.066406 464.5 479.015625 C 463.835938 476.585938 462.289062 474.59375 460.074219 473.378906 C 454.207031 470.171875 447.789062 466.855469 440.710938 463.757812 C 428.648438 458.453125 417.359375 454.804688 407.398438 452.144531 C 412.824219 472.273438 419.242188 500.914062 423.558594 535.742188 Z M 361.367188 556.972656 C 365.128906 583.84375 364.910156 606.734375 364.355469 651.515625 C 363.800781 689.886719 362.03125 721.84375 360.484375 744.292969 C 354.0625 751.480469 343.996094 761.101562 329.71875 769.394531 C 313.675781 778.792969 298.734375 782.769531 288.777344 784.652344 C 289.222656 770.832031 290.101562 748.9375 292.761719 722.066406 C 296.300781 685.90625 299.84375 671.972656 301.167969 644.660156 C 301.945312 628.742188 302.054688 605.074219 298.515625 575.882812 C 270.851562 623.210938 241.859375 654.0625 225.367188 648.53125 C 220.835938 646.984375 215.410156 642.007812 212.203125 636.589844 C 204.675781 623.871094 208.882812 608.835938 210.761719 601.535156 C 215.855469 581.964844 220.722656 555.316406 225.367188 516.28125 L 263.105469 514.402344 C 263.21875 517.386719 263.324219 520.375 263.4375 523.359375 C 264.542969 520.261719 270.964844 501.683594 278.484375 486.871094 C 282.027344 479.902344 281.804688 480.457031 284.902344 475.039062 C 287.117188 471.167969 289.328125 467.519531 291.65625 463.980469 C 292.648438 462.429688 294.308594 461.324219 296.1875 460.882812 L 331.160156 453.917969 C 350.082031 496.15625 357.828125 532.09375 361.367188 556.972656 "/>
<g clip-path="url(#clip3)" clip-rule="nonzero">
<path style=" stroke:none;fill-rule:nonzero;fill:rgb(43.139648%,31.759644%,46.269226%);fill-opacity:1;" d="M 478.21875 616.683594 C 479.878906 627.964844 486.746094 634.710938 488.84375 636.699219 C 480.878906 642.007812 473.019531 647.3125 465.054688 652.621094 C 468.261719 658.484375 471.472656 664.34375 474.679688 670.207031 C 514.960938 646.652344 555.125 622.988281 595.410156 599.4375 C 593.195312 596.894531 584.675781 586.496094 584.675781 570.90625 C 584.675781 556.199219 592.089844 546.25 594.300781 543.484375 L 584.121094 542.046875 L 484.640625 592.027344 C 483.199219 593.796875 476.339844 603.414062 478.21875 616.683594 Z M 393.125 437.664062 C 394.566406 438.105469 397 439.101562 399.324219 441.199219 C 402.867188 444.519531 403.75 448.5 404.078125 449.933594 C 404.632812 453.476562 405.1875 458.78125 403.972656 465.195312 C 402.644531 472.601562 399.652344 478.132812 397.664062 481.339844 L 381.949219 460.664062 C 377.414062 467.074219 372.875 473.488281 368.449219 479.902344 C 364.355469 477.359375 359.597656 473.820312 354.835938 469.066406 C 346.652344 460.882812 341.671875 452.480469 338.792969 446.398438 C 339.570312 444.628906 340.785156 442.308594 342.890625 439.984375 C 345.65625 436.777344 348.75 435.007812 350.636719 434.125 C 364.6875 435.339844 378.855469 436.558594 393.125 437.664062 "/>
</g>
<path style=" stroke:none;fill-rule:nonzero;fill:rgb(80.778503%,55.688477%,44.709778%);fill-opacity:1;" d="M 560.105469 620.003906 C 546.71875 615.578125 541.628906 617.019531 539.414062 619.449219 C 537.535156 621.554688 538.308594 623.984375 536.761719 628.1875 C 534.546875 633.9375 530.007812 637.585938 526.246094 639.796875 C 534.769531 645.546875 545.722656 645.214844 552.804688 639.246094 C 561.324219 632.277344 560.21875 620.886719 560.105469 620.003906 Z M 415.144531 362.910156 C 413.484375 362.140625 411.605469 362.582031 410.058594 363.246094 C 408.953125 363.910156 407.953125 364.570312 406.847656 365.347656 C 407.179688 362.140625 407.292969 357.273438 405.410156 352.078125 C 402.867188 345 398.773438 342.898438 396.113281 336.046875 C 394.898438 332.835938 393.679688 327.972656 394.453125 321.003906 C 389.03125 324.761719 379.847656 330.292969 367.121094 332.835938 C 358.933594 334.496094 351.851562 334.496094 346.539062 334.054688 C 345.433594 338.808594 343.996094 344.007812 341.890625 349.535156 C 339.125 357.054688 335.917969 363.464844 332.929688 368.773438 C 332.152344 366.894531 331.378906 365.015625 330.71875 363.136719 C 329.71875 362.910156 328.390625 362.691406 327.066406 363.246094 C 322.195312 365.125 319.425781 375.074219 323.746094 380.9375 C 327.066406 385.472656 333.152344 385.691406 334.144531 385.691406 C 334.699219 389.230469 336.691406 399.621094 345.542969 408.359375 C 346.210938 409.023438 348.089844 410.792969 350.855469 412.785156 C 351.628906 416.542969 352.296875 421.851562 351.519531 428.152344 C 350.964844 432.6875 349.96875 436.558594 348.863281 439.542969 C 353.070312 443.632812 358.710938 448.386719 365.902344 452.8125 C 371.660156 456.347656 377.195312 458.894531 381.839844 460.773438 C 383.832031 458.007812 385.820312 454.910156 387.8125 451.59375 C 390.140625 447.835938 392.132812 444.1875 393.792969 440.648438 C 392.574219 436.113281 391.464844 430.253906 391.355469 423.289062 C 391.246094 418.421875 391.6875 413.996094 392.242188 410.351562 C 398.992188 404.269531 404.414062 395.53125 406.957031 384.917969 C 408.617188 384.808594 412.710938 384.367188 415.699219 381.269531 C 420.902344 375.851562 419.683594 365.015625 415.144531 362.910156 Z M 260.558594 497.484375 C 260.777344 505.222656 257.570312 511.53125 254.804688 515.398438 C 248.71875 515.621094 242.519531 515.839844 236.433594 516.058594 C 233.78125 513.296875 226.476562 505.222656 224.488281 492.179688 C 222.496094 479.238281 226.808594 469.285156 228.582031 465.96875 C 231.347656 464.203125 235.550781 461.878906 241.195312 460.992188 C 249.605469 459.558594 259.121094 461.4375 259.34375 463.871094 C 259.453125 465.085938 257.351562 466.964844 247.390625 469.839844 C 248.832031 471.609375 250.933594 474.375 253.144531 477.910156 C 256.796875 483.886719 260.339844 489.855469 260.558594 497.484375 "/>
<path style=" stroke:none;fill-rule:nonzero;fill:rgb(16.079712%,19.60907%,25.489807%);fill-opacity:1;" d="M 239.929688 443.261719 L 228.671875 426.554688 C 227.011719 424.011719 223.910156 423.015625 221.917969 424.453125 C 219.925781 425.78125 219.707031 428.984375 221.367188 431.53125 L 278.023438 515.566406 L 288.3125 522.753906 L 285.328125 510.59375 L 244.046875 449.363281 M 244.046875 449.363281 L 239.929688 443.261719 "/>
<path style=" stroke:none;fill-rule:nonzero;fill:rgb(80.778503%,55.688477%,44.709778%);fill-opacity:1;" d="M 250.933594 492.066406 C 247.832031 488.082031 244.847656 484.105469 241.746094 480.125 M 241.746094 480.125 C 238.761719 476.363281 235.773438 472.601562 232.785156 468.84375 C 235.882812 468.179688 241.414062 467.628906 247.5 469.839844 C 256.90625 473.378906 263.992188 482.667969 262.21875 485.765625 C 261.664062 486.757812 260.449219 486.539062 256.796875 488.308594 C 254.253906 489.523438 252.257812 490.960938 250.933594 492.066406 "/>
<path style=" stroke:none;fill-rule:nonzero;fill:rgb(16.079712%,19.60907%,25.489807%);fill-opacity:1;" d="M 381.949219 361.03125 C 381.066406 361.699219 381.839844 363.136719 382.835938 362.472656 C 383.941406 361.699219 385.046875 361.253906 386.265625 361.03125 C 385.160156 361.699219 384.496094 362.910156 384.496094 364.351562 C 384.496094 366.5625 386.265625 368.332031 388.480469 368.332031 C 390.691406 368.332031 392.460938 366.5625 392.460938 364.351562 C 392.460938 363.355469 392.132812 362.472656 391.578125 361.804688 C 391.6875 361.917969 391.800781 361.917969 391.90625 362.03125 C 393.898438 363.136719 395.453125 365.125 397.773438 365.570312 C 399.210938 365.789062 400.207031 364.242188 399.210938 363.136719 C 394.785156 357.9375 387.261719 357.054688 381.949219 361.03125 Z M 400.761719 349.535156 C 394.566406 346.992188 387.375 346.65625 381.289062 349.535156 C 379.847656 350.195312 380.84375 352.300781 382.28125 351.964844 C 388.257812 350.527344 393.792969 352.1875 399.652344 353.292969 C 402.3125 353.84375 403.085938 350.527344 400.761719 349.535156 Z M 362.363281 353.074219 C 363.691406 353.074219 364.023438 351.082031 362.695312 350.75 C 358.824219 349.867188 355.171875 349.644531 351.296875 350.421875 C 348.089844 351.082031 343.664062 352.1875 342.003906 355.285156 C 341.449219 356.277344 342.113281 357.496094 343.332031 357.496094 C 346.316406 357.496094 348.976562 355.394531 351.851562 354.511719 C 355.28125 353.625 358.824219 353.074219 362.363281 353.074219 Z M 351.410156 365.570312 C 351.410156 367.78125 353.175781 369.546875 355.390625 369.546875 C 357.605469 369.546875 359.375 367.78125 359.375 365.570312 C 359.375 364.128906 358.601562 362.804688 357.382812 362.140625 C 358.488281 362.140625 359.488281 362.25 360.484375 362.804688 C 361.148438 363.136719 361.589844 362.25 361.035156 361.804688 C 358.601562 360.039062 355.945312 359.59375 353.070312 360.480469 C 350.636719 361.253906 346.871094 363.355469 346.316406 366.007812 C 346.097656 366.78125 346.871094 367.667969 347.644531 367.335938 C 349.304688 366.894531 350.410156 365.457031 351.628906 364.351562 C 351.519531 364.796875 351.410156 365.125 351.410156 365.570312 Z M 370.773438 378.726562 C 369.667969 379.277344 370.441406 381.269531 371.660156 380.714844 C 374.425781 379.609375 375.976562 377.511719 375.753906 374.414062 C 375.640625 373.089844 374.753906 371.757812 374.425781 370.542969 C 373.980469 368.992188 373.980469 367.335938 373.875 365.789062 C 373.648438 362.910156 373.980469 360.039062 372.988281 357.273438 C 372.542969 356.058594 370.996094 356.058594 370.554688 357.273438 C 369.449219 360.480469 370.109375 364.242188 370.664062 367.558594 C 371.109375 371.097656 374.980469 376.734375 370.773438 378.726562 Z M 364.578125 392.660156 C 364.46875 392.660156 364.46875 392.660156 364.355469 392.660156 C 364.910156 398.742188 371.769531 402.167969 376.640625 398.078125 C 379.292969 395.863281 380.511719 392.546875 381.289062 389.34375 C 375.863281 390.554688 370.222656 392.214844 364.578125 392.660156 Z M 363.25 391.332031 C 363.25 390.667969 363.582031 390.003906 364.242188 389.78125 C 369.886719 388.015625 376.308594 387.464844 382.171875 386.464844 C 383.054688 385.582031 385.046875 386.464844 384.714844 388.015625 C 383.5 394.316406 380.511719 401.726562 373.320312 402.71875 C 367.011719 403.605469 362.144531 398.519531 362.253906 392.4375 C 362.253906 391.773438 362.695312 391.441406 363.25 391.332031 Z M 513.628906 610.050781 C 511.863281 602.203125 512.523438 594.570312 515.289062 587.050781 C 516.070312 584.949219 512.523438 583.402344 511.640625 585.503906 C 508.097656 593.578125 507.769531 602.421875 510.976562 610.714844 C 511.640625 612.375 514.074219 611.710938 513.628906 610.050781 Z M 543.179688 590.8125 C 541.847656 588.378906 541.074219 585.722656 540.855469 583.070312 C 540.632812 580.746094 541.292969 578.429688 541.1875 576.105469 C 541.074219 574.558594 538.972656 573.78125 538.199219 575.332031 C 535.542969 580.414062 537.867188 587.714844 540.632812 592.359375 C 541.628906 593.796875 544.0625 592.359375 543.179688 590.8125 Z M 553.691406 589.484375 C 554.574219 590.257812 555.792969 589.039062 554.90625 588.269531 C 549.375 582.1875 553.027344 573.226562 553.691406 566.039062 C 553.914062 564.054688 550.59375 563.609375 550.148438 565.597656 C 548.820312 573.121094 546.941406 583.957031 553.691406 589.484375 Z M 587.550781 592.46875 C 573.496094 599.878906 559.554688 607.179688 545.613281 614.695312 C 543.839844 615.691406 545.390625 618.457031 547.273438 617.457031 C 561.105469 609.832031 574.824219 601.976562 588.324219 593.796875 C 589.101562 593.242188 588.4375 592.027344 587.550781 592.46875 Z M 530.339844 623.210938 C 519.386719 629.070312 508.652344 635.375 498.03125 641.898438 C 488.179688 647.980469 477.339844 653.726562 468.707031 661.359375 C 467.601562 662.355469 469.039062 664.011719 470.253906 663.347656 C 480.765625 657.929688 490.503906 650.078125 500.578125 643.777344 C 510.757812 637.363281 521.046875 631.058594 531.335938 624.871094 C 532.335938 624.207031 531.449219 622.660156 530.339844 623.210938 Z M 578.808594 590.589844 C 579.582031 590.589844 580.25 590.148438 580.46875 589.484375 C 581.132812 589.039062 581.796875 588.601562 582.460938 588.046875 C 583.675781 587.050781 582.351562 585.0625 581.023438 585.503906 C 580.691406 585.617188 580.25 585.835938 579.917969 585.945312 C 578.257812 579.535156 577.703125 573.121094 578.144531 566.371094 C 578.589844 559.183594 579.363281 549.679688 583.457031 543.484375 C 584.121094 542.492188 582.570312 541.386719 581.910156 542.265625 C 577.148438 548.128906 576.042969 556.640625 575.15625 563.828125 C 574.164062 571.679688 574.382812 579.640625 576.484375 587.273438 C 570.511719 589.925781 564.867188 593.578125 559.226562 596.5625 C 551.367188 600.765625 543.507812 604.964844 535.652344 609.164062 C 519.941406 617.570312 504.222656 625.976562 488.734375 634.597656 C 487.296875 635.375 488.511719 637.472656 489.953125 636.699219 C 505.882812 628.742188 521.601562 620.445312 537.421875 612.152344 C 544.949219 608.171875 552.472656 604.300781 560 600.320312 C 566.085938 597.226562 572.945312 594.347656 578.808594 590.589844 Z M 301.613281 522.914062 C 302.054688 502.902344 299.289062 483.109375 294.089844 463.757812 C 293.648438 462.210938 291.320312 462.875 291.65625 464.421875 C 296.300781 484.105469 298.515625 504.34375 297.742188 524.464844 C 296.96875 543.703125 295.308594 562.835938 296.414062 582.074219 C 297.296875 597.113281 299.289062 612.042969 299.289062 627.191406 C 299.289062 649.195312 297.1875 671.199219 293.648438 692.875 C 293.203125 695.746094 297.519531 696.964844 297.960938 694.089844 C 301.835938 672.527344 303.933594 650.742188 303.828125 628.847656 C 303.828125 613.148438 301.613281 597.777344 300.726562 582.074219 C 299.734375 562.394531 301.28125 542.710938 301.613281 522.914062 Z M 456.640625 588.378906 C 455.316406 568.363281 454.101562 548.347656 453.101562 528.222656 C 452.214844 510.089844 450.449219 490.296875 459.519531 473.707031 C 460.1875 472.601562 458.414062 471.496094 457.75 472.714844 C 449.007812 487.53125 448.34375 504.230469 448.789062 521.035156 C 449.449219 541.824219 450.667969 562.613281 452.109375 583.292969 C 454.875 624.976562 458.527344 666.664062 463.507812 708.242188 C 463.835938 710.675781 467.707031 710.789062 467.378906 708.242188 C 463.171875 668.4375 459.410156 628.515625 456.640625 588.378906 Z M 262.21875 523.800781 C 261.558594 548.679688 255.800781 571.570312 249.492188 595.34375 C 248.832031 598 252.480469 598.886719 253.476562 596.449219 C 262.550781 573.894531 264.875 547.796875 264.765625 523.800781 C 264.875 522.035156 262.21875 522.035156 262.21875 523.800781 Z M 395.226562 536.960938 C 392.792969 513.410156 389.140625 489.96875 383.941406 466.746094 C 383.609375 465.414062 381.726562 465.96875 381.949219 467.296875 C 386.375 491.179688 390.027344 515.175781 392.019531 539.394531 C 393.015625 550.890625 393.679688 562.503906 394.011719 574.113281 C 394.34375 586.054688 393.679688 598.105469 394.34375 610.050781 C 394.453125 612.480469 397.886719 612.480469 398.105469 610.050781 C 399.210938 597.777344 398.328125 585.0625 397.773438 572.785156 C 397.332031 560.84375 396.445312 548.902344 395.226562 536.960938 Z M 411.164062 365.570312 C 410.167969 365.902344 410.5 367.558594 411.605469 367.226562 C 412.710938 366.894531 413.484375 367.886719 413.929688 368.886719 C 414.371094 369.992188 414.039062 371.316406 415.144531 371.984375 C 415.699219 372.3125 416.363281 372.089844 416.699219 371.539062 C 417.691406 370.210938 416.253906 367.667969 415.257812 366.675781 C 414.265625 365.675781 412.492188 365.125 411.164062 365.570312 Z M 324.078125 374.523438 C 324.851562 375.1875 325.738281 374.855469 326.066406 373.96875 C 326.398438 373.089844 325.847656 372.089844 325.847656 371.207031 C 325.847656 370.542969 326.066406 368.441406 327.285156 369.21875 C 328.058594 369.769531 328.726562 368.554688 328.058594 368 C 325.074219 365.789062 321.863281 372.644531 324.078125 374.523438 Z M 389.140625 411.011719 C 377.414062 416.761719 364.355469 418.53125 352.296875 412.785156 C 351.296875 412.339844 350.410156 413.777344 351.410156 414.332031 C 363.800781 420.410156 378.628906 421.410156 390.691406 413.667969 C 392.351562 412.5625 390.914062 410.128906 389.140625 411.011719 Z M 259.453125 481.894531 C 260.449219 482.003906 260.558594 480.457031 259.671875 480.234375 C 253.585938 478.910156 246.285156 478.464844 240.53125 481.121094 C 239.425781 481.671875 239.980469 483.550781 241.195312 483.441406 C 244.292969 483 247.171875 482.113281 250.265625 481.78125 C 253.257812 481.5625 256.351562 481.5625 259.453125 481.894531 Z M 256.246094 476.699219 C 256.90625 476.917969 257.128906 475.921875 256.578125 475.699219 C 248.71875 472.828125 239.535156 472.164062 231.789062 475.59375 C 230.574219 476.144531 231.453125 477.910156 232.675781 477.578125 C 240.753906 475.367188 247.945312 474.375 256.246094 476.699219 Z M 247.28125 470.390625 C 248.054688 470.617188 248.386719 469.398438 247.613281 469.179688 C 242.300781 467.519531 234.886719 465.859375 229.90625 469.398438 C 228.582031 470.285156 229.6875 472.273438 231.125 471.609375 C 236.105469 469.179688 242.078125 469.066406 247.28125 470.390625 Z M 262.109375 487.421875 C 255.359375 488.636719 251.707031 495.382812 245.285156 497.042969 C 243.738281 497.375 243.1875 495.496094 244.292969 494.71875 C 247.058594 492.617188 250.265625 490.628906 253.257812 488.859375 C 255.910156 487.3125 258.679688 486.203125 261.777344 485.984375 C 262.773438 485.765625 262.992188 487.203125 262.109375 487.421875 "/>
</g>
</svg>
