<?xml version="1.0" encoding="UTF-8"?>
<svg xmlns="http://www.w3.org/2000/svg" xmlns:xlink="http://www.w3.org/1999/xlink" width="595.5pt" height="842.249979pt" viewBox="0 0 595.5 842.249979" version="1.2">
<defs>
<clipPath id="clip1">
  <path d="M 41 237 L 554 237 L 554 696.28125 L 41 696.28125 Z M 41 237 "/>
</clipPath>
<clipPath id="clip2">
  <path d="M 106 188.558594 L 166 188.558594 L 166 302 L 106 302 Z M 106 188.558594 "/>
</clipPath>
<clipPath id="clip3">
  <path d="M 429 188.558594 L 489 188.558594 L 489 302 L 429 302 Z M 429 188.558594 "/>
</clipPath>
</defs>
<g id="surface1">
<path style=" stroke:none;fill-rule:nonzero;fill:rgb(100%,100%,100%);fill-opacity:1;" d="M 546.296875 630.234375 C 546.296875 662.53125 520.140625 688.695312 487.878906 688.695312 L 107.179688 688.695312 C 74.921875 688.695312 48.769531 662.53125 48.769531 630.234375 L 48.769531 303.253906 C 48.769531 270.96875 74.921875 244.792969 107.179688 244.792969 L 487.878906 244.792969 C 520.140625 244.792969 546.296875 270.96875 546.296875 303.253906 L 546.296875 630.234375 "/>
<g clip-path="url(#clip1)" clip-rule="nonzero">
<path style=" stroke:none;fill-rule:nonzero;fill:rgb(100%,100%,100%);fill-opacity:1;" d="M 546.296875 630.234375 L 538.726562 630.234375 C 538.726562 644.316406 533.046875 656.988281 523.835938 666.226562 C 514.609375 675.441406 501.945312 681.125 487.878906 681.125 L 107.179688 681.125 C 93.113281 681.125 80.449219 675.441406 71.226562 666.226562 C 62.015625 656.988281 56.339844 644.316406 56.335938 630.234375 L 56.335938 303.253906 C 56.339844 289.179688 62.015625 276.503906 71.226562 267.269531 C 80.449219 258.050781 93.113281 252.371094 107.179688 252.363281 L 487.878906 252.363281 C 501.945312 252.371094 514.609375 258.050781 523.835938 267.269531 C 533.046875 276.503906 538.726562 289.179688 538.726562 303.253906 L 538.726562 630.234375 L 553.863281 630.234375 L 553.863281 303.253906 C 553.867188 285.042969 546.46875 268.488281 534.535156 256.558594 C 522.617188 244.621094 506.078125 237.210938 487.878906 237.21875 L 107.179688 237.21875 C 88.980469 237.210938 72.441406 244.621094 60.527344 256.558594 C 48.597656 268.488281 41.195312 285.042969 41.199219 303.253906 L 41.199219 630.234375 C 41.195312 648.449219 48.597656 665.003906 60.527344 676.933594 C 72.441406 688.875 88.980469 696.277344 107.179688 696.269531 L 487.878906 696.269531 C 506.070312 696.277344 522.617188 688.875 534.535156 676.933594 C 546.46875 665.003906 553.867188 648.449219 553.863281 630.234375 L 546.296875 630.234375 "/>
</g>
<path style=" stroke:none;fill-rule:nonzero;fill:rgb(100%,100%,100%);fill-opacity:1;" d="M 154.335938 476.238281 C 154.335938 480.710938 150.707031 484.347656 146.21875 484.347656 L 93.34375 484.347656 C 88.855469 484.347656 85.226562 480.710938 85.226562 476.238281 L 85.226562 430.820312 C 85.226562 426.328125 88.855469 422.691406 93.34375 422.691406 L 146.21875 422.691406 C 150.707031 422.691406 154.335938 426.328125 154.335938 430.820312 L 154.335938 476.238281 "/>
<path style=" stroke:none;fill-rule:nonzero;fill:rgb(100%,100%,100%);fill-opacity:1;" d="M 243.203125 476.238281 C 243.203125 480.710938 239.574219 484.347656 235.097656 484.347656 L 182.21875 484.347656 C 177.738281 484.347656 174.101562 480.710938 174.101562 476.238281 L 174.101562 430.820312 C 174.101562 426.328125 177.738281 422.691406 182.21875 422.691406 L 235.097656 422.691406 C 239.574219 422.691406 243.203125 426.328125 243.203125 430.820312 L 243.203125 476.238281 "/>
<path style=" stroke:none;fill-rule:nonzero;fill:rgb(100%,100%,100%);fill-opacity:1;" d="M 332.085938 476.238281 C 332.085938 480.710938 328.453125 484.347656 323.972656 484.347656 L 271.089844 484.347656 C 266.609375 484.347656 262.972656 480.710938 262.972656 476.238281 L 262.972656 430.820312 C 262.972656 426.328125 266.609375 422.691406 271.089844 422.691406 L 323.972656 422.691406 C 328.453125 422.691406 332.085938 426.328125 332.085938 430.820312 L 332.085938 476.238281 "/>
<path style=" stroke:none;fill-rule:nonzero;fill:rgb(100%,100%,100%);fill-opacity:1;" d="M 420.964844 476.238281 C 420.964844 480.710938 417.328125 484.347656 412.847656 484.347656 L 359.96875 484.347656 C 355.488281 484.347656 351.851562 480.710938 351.851562 476.238281 L 351.851562 430.820312 C 351.851562 426.328125 355.488281 422.691406 359.96875 422.691406 L 412.847656 422.691406 C 417.328125 422.691406 420.964844 426.328125 420.964844 430.820312 L 420.964844 476.238281 "/>
<path style=" stroke:none;fill-rule:nonzero;fill:rgb(100%,100%,100%);fill-opacity:1;" d="M 509.832031 476.238281 C 509.832031 480.710938 506.207031 484.347656 501.71875 484.347656 L 448.832031 484.347656 C 444.363281 484.347656 440.726562 480.710938 440.726562 476.238281 L 440.726562 430.820312 C 440.726562 426.328125 444.363281 422.691406 448.832031 422.691406 L 501.71875 422.691406 C 506.207031 422.691406 509.832031 426.328125 509.832031 430.820312 L 509.832031 476.238281 "/>
<path style=" stroke:none;fill-rule:nonzero;fill:rgb(100%,100%,100%);fill-opacity:1;" d="M 154.335938 555.582031 C 154.335938 560.070312 150.707031 563.703125 146.21875 563.703125 L 93.34375 563.703125 C 88.855469 563.703125 85.226562 560.070312 85.226562 555.582031 L 85.226562 510.175781 C 85.226562 505.683594 88.855469 502.050781 93.34375 502.050781 L 146.21875 502.050781 C 150.707031 502.050781 154.335938 505.683594 154.335938 510.175781 L 154.335938 555.582031 "/>
<path style=" stroke:none;fill-rule:nonzero;fill:rgb(100%,100%,100%);fill-opacity:1;" d="M 243.203125 555.582031 C 243.203125 560.070312 239.574219 563.703125 235.097656 563.703125 L 182.21875 563.703125 C 177.738281 563.703125 174.101562 560.070312 174.101562 555.582031 L 174.101562 510.175781 C 174.101562 505.683594 177.738281 502.050781 182.21875 502.050781 L 235.097656 502.050781 C 239.574219 502.050781 243.203125 505.683594 243.203125 510.175781 L 243.203125 555.582031 "/>
<path style=" stroke:none;fill-rule:nonzero;fill:rgb(100%,100%,100%);fill-opacity:1;" d="M 332.085938 555.582031 C 332.085938 560.070312 328.453125 563.703125 323.972656 563.703125 L 271.089844 563.703125 C 266.609375 563.703125 262.972656 560.070312 262.972656 555.582031 L 262.972656 510.175781 C 262.972656 505.683594 266.609375 502.050781 271.089844 502.050781 L 323.972656 502.050781 C 328.453125 502.050781 332.085938 505.683594 332.085938 510.175781 L 332.085938 555.582031 "/>
<path style=" stroke:none;fill-rule:nonzero;fill:rgb(100%,100%,100%);fill-opacity:1;" d="M 420.964844 555.582031 C 420.964844 560.070312 417.328125 563.703125 412.847656 563.703125 L 359.96875 563.703125 C 355.488281 563.703125 351.851562 560.070312 351.851562 555.582031 L 351.851562 510.175781 C 351.851562 505.683594 355.488281 502.050781 359.96875 502.050781 L 412.847656 502.050781 C 417.328125 502.050781 420.964844 505.683594 420.964844 510.175781 L 420.964844 555.582031 "/>
<path style=" stroke:none;fill-rule:nonzero;fill:rgb(100%,100%,100%);fill-opacity:1;" d="M 509.832031 555.582031 C 509.832031 560.070312 506.207031 563.703125 501.71875 563.703125 L 448.832031 563.703125 C 444.363281 563.703125 440.726562 560.070312 440.726562 555.582031 L 440.726562 510.175781 C 440.726562 505.683594 444.363281 502.050781 448.832031 502.050781 L 501.71875 502.050781 C 506.207031 502.050781 509.832031 505.683594 509.832031 510.175781 L 509.832031 555.582031 "/>
<path style=" stroke:none;fill-rule:nonzero;fill:rgb(100%,100%,100%);fill-opacity:1;" d="M 154.335938 634.9375 C 154.335938 639.433594 150.707031 643.074219 146.21875 643.074219 L 93.34375 643.074219 C 88.855469 643.074219 85.226562 639.433594 85.226562 634.9375 L 85.226562 589.527344 C 85.226562 585.046875 88.855469 581.40625 93.34375 581.40625 L 146.21875 581.40625 C 150.707031 581.40625 154.335938 585.046875 154.335938 589.527344 L 154.335938 634.9375 "/>
<path style=" stroke:none;fill-rule:nonzero;fill:rgb(100%,100%,100%);fill-opacity:1;" d="M 243.203125 634.9375 C 243.203125 639.433594 239.574219 643.074219 235.097656 643.074219 L 182.21875 643.074219 C 177.738281 643.074219 174.101562 639.433594 174.101562 634.9375 L 174.101562 589.527344 C 174.101562 585.046875 177.738281 581.40625 182.21875 581.40625 L 235.097656 581.40625 C 239.574219 581.40625 243.203125 585.046875 243.203125 589.527344 L 243.203125 634.9375 "/>
<path style=" stroke:none;fill-rule:nonzero;fill:rgb(100%,100%,100%);fill-opacity:1;" d="M 332.085938 634.9375 C 332.085938 639.433594 328.453125 643.074219 323.972656 643.074219 L 271.089844 643.074219 C 266.609375 643.074219 262.972656 639.433594 262.972656 634.9375 L 262.972656 589.527344 C 262.972656 585.046875 266.609375 581.40625 271.089844 581.40625 L 323.972656 581.40625 C 328.453125 581.40625 332.085938 585.046875 332.085938 589.527344 L 332.085938 634.9375 "/>
<path style=" stroke:none;fill-rule:nonzero;fill:rgb(100%,100%,100%);fill-opacity:1;" d="M 420.964844 634.9375 C 420.964844 639.433594 417.328125 643.074219 412.847656 643.074219 L 359.96875 643.074219 C 355.488281 643.074219 351.851562 639.433594 351.851562 634.9375 L 351.851562 589.527344 C 351.851562 585.046875 355.488281 581.40625 359.96875 581.40625 L 412.847656 581.40625 C 417.328125 581.40625 420.964844 585.046875 420.964844 589.527344 L 420.964844 634.9375 "/>
<path style=" stroke:none;fill-rule:nonzero;fill:rgb(100%,100%,100%);fill-opacity:1;" d="M 509.832031 634.9375 C 509.832031 639.433594 506.207031 643.074219 501.71875 643.074219 L 448.832031 643.074219 C 444.363281 643.074219 440.726562 639.433594 440.726562 634.9375 L 440.726562 589.527344 C 440.726562 585.046875 444.363281 581.40625 448.832031 581.40625 L 501.71875 581.40625 C 506.207031 581.40625 509.832031 585.046875 509.832031 589.527344 L 509.832031 634.9375 "/>
<path style=" stroke:none;fill-rule:nonzero;fill:rgb(100%,100%,100%);fill-opacity:1;" d="M 546.296875 374.730469 L 546.296875 303.253906 C 546.296875 270.96875 520.140625 244.792969 487.878906 244.792969 L 107.179688 244.792969 C 74.921875 244.792969 48.769531 270.96875 48.769531 303.253906 L 48.769531 374.730469 L 546.296875 374.730469 "/>
<path style=" stroke:none;fill-rule:nonzero;fill:rgb(100%,100%,100%);fill-opacity:1;" d="M 546.296875 374.730469 L 553.863281 374.730469 L 553.863281 303.253906 C 553.867188 285.042969 546.46875 268.488281 534.535156 256.558594 C 522.617188 244.621094 506.078125 237.210938 487.878906 237.21875 L 107.179688 237.21875 C 88.980469 237.210938 72.441406 244.621094 60.527344 256.558594 C 48.597656 268.488281 41.195312 285.042969 41.199219 303.253906 L 41.199219 382.304688 L 553.863281 382.304688 L 553.863281 374.730469 L 546.296875 374.730469 L 546.296875 367.15625 L 56.335938 367.15625 L 56.335938 303.253906 C 56.339844 289.179688 62.015625 276.503906 71.226562 267.269531 C 80.449219 258.050781 93.113281 252.371094 107.179688 252.363281 L 487.878906 252.363281 C 501.945312 252.371094 514.609375 258.050781 523.835938 267.269531 C 533.046875 276.503906 538.726562 289.179688 538.726562 303.253906 L 538.726562 374.730469 L 546.296875 374.730469 L 546.296875 367.15625 L 546.296875 374.730469 "/>
<path style=" stroke:none;fill-rule:nonzero;fill:rgb(100%,100%,100%);fill-opacity:1;" d="M 158.226562 271.347656 C 158.226562 283.550781 148.335938 293.449219 136.144531 293.449219 C 123.949219 293.449219 114.078125 283.550781 114.078125 271.347656 L 114.078125 218.242188 C 114.078125 206.042969 123.949219 196.144531 136.144531 196.144531 C 148.335938 196.144531 158.226562 206.042969 158.226562 218.242188 L 158.226562 271.347656 "/>
<g clip-path="url(#clip2)" clip-rule="nonzero">
<path style=" stroke:none;fill-rule:nonzero;fill:rgb(100%,100%,100%);fill-opacity:1;" d="M 158.226562 271.347656 L 150.660156 271.347656 C 150.652344 275.382812 149.046875 278.96875 146.410156 281.617188 C 143.753906 284.261719 140.179688 285.871094 136.144531 285.878906 C 132.113281 285.871094 128.539062 284.261719 125.890625 281.625 C 123.253906 278.96875 121.644531 275.382812 121.644531 271.347656 L 121.644531 218.242188 C 121.644531 214.207031 123.253906 210.621094 125.890625 207.972656 C 128.539062 205.332031 132.113281 203.71875 136.144531 203.71875 C 140.179688 203.71875 143.753906 205.332031 146.410156 207.972656 C 149.046875 210.628906 150.652344 214.214844 150.660156 218.242188 L 150.660156 271.347656 L 165.792969 271.347656 L 165.792969 218.242188 C 165.800781 210.078125 162.464844 202.609375 157.109375 197.261719 C 151.769531 191.90625 144.308594 188.566406 136.144531 188.570312 C 127.980469 188.566406 120.519531 191.90625 115.183594 197.261719 C 109.832031 202.609375 106.503906 210.078125 106.511719 218.242188 L 106.511719 271.347656 C 106.503906 279.515625 109.832031 286.976562 115.183594 292.328125 C 120.519531 297.6875 127.980469 301.03125 136.144531 301.023438 C 144.308594 301.023438 151.769531 297.6875 157.109375 292.328125 C 162.464844 286.984375 165.800781 279.515625 165.792969 271.347656 L 158.226562 271.347656 "/>
</g>
<path style=" stroke:none;fill-rule:nonzero;fill:rgb(100%,100%,100%);fill-opacity:1;" d="M 480.988281 271.347656 C 480.988281 283.550781 471.109375 293.449219 458.917969 293.449219 C 446.722656 293.449219 436.847656 283.550781 436.847656 271.347656 L 436.847656 218.242188 C 436.847656 206.042969 446.722656 196.144531 458.917969 196.144531 C 471.109375 196.144531 480.988281 206.042969 480.988281 218.242188 L 480.988281 271.347656 "/>
<g clip-path="url(#clip3)" clip-rule="nonzero">
<path style=" stroke:none;fill-rule:nonzero;fill:rgb(100%,100%,100%);fill-opacity:1;" d="M 480.988281 271.347656 L 473.417969 271.347656 C 473.414062 275.382812 471.804688 278.96875 469.167969 281.625 C 466.519531 284.261719 462.945312 285.871094 458.917969 285.878906 C 454.886719 285.871094 451.316406 284.261719 448.667969 281.625 C 446.03125 278.972656 444.421875 275.382812 444.414062 271.347656 L 444.414062 218.242188 C 444.421875 214.207031 446.03125 210.621094 448.667969 207.972656 C 451.316406 205.328125 454.886719 203.71875 458.917969 203.71875 C 462.945312 203.71875 466.519531 205.328125 469.167969 207.972656 C 471.804688 210.621094 473.414062 214.207031 473.417969 218.242188 L 473.417969 271.347656 L 488.554688 271.347656 L 488.554688 218.242188 C 488.554688 210.078125 485.226562 202.609375 479.875 197.261719 C 474.542969 191.90625 467.082031 188.566406 458.917969 188.570312 C 450.753906 188.566406 443.292969 191.90625 437.953125 197.269531 C 432.605469 202.617188 429.28125 210.078125 429.28125 218.242188 L 429.28125 271.347656 C 429.28125 279.511719 432.605469 286.976562 437.953125 292.328125 C 443.292969 297.6875 450.753906 301.03125 458.917969 301.023438 C 467.082031 301.03125 474.535156 297.6875 479.875 292.328125 C 485.226562 286.976562 488.554688 279.515625 488.554688 271.347656 L 480.988281 271.347656 "/>
</g>
</g>
</svg>
