<?xml version="1.0" encoding="UTF-8"?>
<svg xmlns="http://www.w3.org/2000/svg" xmlns:xlink="http://www.w3.org/1999/xlink" width="595.5pt" height="842.249979pt" viewBox="0 0 595.5 842.249979" version="1.2">
<defs>
<clipPath id="clip1">
  <path d="M 128 724 L 400.191406 724 L 400.191406 782 L 128 782 Z M 128 724 "/>
</clipPath>
<clipPath id="clip2">
  <path d="M 147 735 L 400.191406 735 L 400.191406 771 L 147 771 Z M 147 735 "/>
</clipPath>
<clipPath id="clip3">
  <path d="M 1 627 L 236 627 L 236 841.5 L 1 841.5 Z M 1 627 "/>
</clipPath>
<clipPath id="clip4">
  <path d="M 1 771 L 70 771 L 70 841.5 L 1 841.5 Z M 1 771 "/>
</clipPath>
<clipPath id="clip5">
  <path d="M 401 370.503906 L 504 370.503906 L 504 402 L 401 402 Z M 401 370.503906 "/>
</clipPath>
<clipPath id="clip6">
  <path d="M 401 401 L 468 401 L 468 841.117188 L 401 841.117188 Z M 401 401 "/>
</clipPath>
<clipPath id="clip7">
  <path d="M 467 370.503906 L 506 370.503906 L 506 841.117188 L 467 841.117188 Z M 467 370.503906 "/>
</clipPath>
<clipPath id="clip8">
  <path d="M 496 370.503906 L 594.984375 370.503906 L 594.984375 402 L 496 402 Z M 496 370.503906 "/>
</clipPath>
<clipPath id="clip9">
  <path d="M 496 401 L 563 401 L 563 841.117188 L 496 841.117188 Z M 496 401 "/>
</clipPath>
<clipPath id="clip10">
  <path d="M 562 370.503906 L 594.984375 370.503906 L 594.984375 841.117188 L 562 841.117188 Z M 562 370.503906 "/>
</clipPath>
</defs>
<g id="surface1">
<path style=" stroke:none;fill-rule:nonzero;fill:rgb(97.24884%,63.529968%,16.079712%);fill-opacity:1;" d="M 373.085938 826.394531 C 373.085938 832.847656 371.515625 838.085938 365.089844 838.085938 L 112.714844 838.085938 C 106.277344 838.085938 101.0625 832.847656 101.0625 826.394531 L 101.0625 793.21875 C 101.0625 786.765625 106.277344 781.53125 112.714844 781.53125 L 365.089844 781.53125 C 371.515625 781.53125 373.085938 786.765625 373.085938 793.21875 L 373.085938 826.394531 "/>
<path style=" stroke:none;fill-rule:nonzero;fill:rgb(82.348633%,49.409485%,10.978699%);fill-opacity:1;" d="M 149.324219 781.53125 L 112.714844 781.53125 C 106.277344 781.53125 101.0625 786.765625 101.0625 793.21875 L 101.0625 826.394531 C 101.0625 832.847656 106.277344 838.085938 112.714844 838.085938 L 149.324219 838.085938 L 149.324219 781.53125 "/>
<path style=" stroke:none;fill-rule:nonzero;fill:rgb(68.238831%,83.529663%,89.7995%);fill-opacity:1;" d="M 373.085938 827.253906 L 120.574219 827.253906 L 120.574219 792.234375 L 373.085938 792.234375 L 373.085938 827.253906 "/>
<path style=" stroke:none;fill-rule:nonzero;fill:rgb(7.839966%,70.199585%,94.119263%);fill-opacity:1;" d="M 120.574219 792.34375 L 120.574219 827.347656 C 124.726562 827.300781 128.085938 820.519531 128.085938 812.175781 L 128.085938 807.519531 C 128.085938 799.171875 124.726562 792.390625 120.574219 792.34375 "/>
<path style=" stroke:none;fill-rule:nonzero;fill:rgb(7.839966%,70.199585%,94.119263%);fill-opacity:1;" d="M 143.472656 800.535156 C 143.472656 800.535156 144.34375 800.503906 146.007812 800.425781 C 147.660156 800.378906 150.085938 800.253906 153.195312 800.175781 C 159.375 800.003906 168.210938 799.675781 178.820312 799.472656 C 184.125 799.359375 189.867188 799.265625 195.933594 799.140625 C 202.015625 799.0625 208.425781 798.984375 215.054688 798.890625 C 221.679688 798.84375 228.527344 798.796875 235.480469 798.734375 C 242.433594 798.71875 249.511719 798.703125 256.578125 798.671875 C 263.65625 798.703125 270.734375 798.71875 277.6875 798.734375 C 284.640625 798.734375 291.488281 798.84375 298.113281 798.890625 C 311.386719 799.03125 323.753906 799.21875 334.347656 799.46875 C 344.957031 799.675781 353.796875 800.003906 359.988281 800.175781 C 363.082031 800.253906 365.511719 800.378906 367.175781 800.425781 C 368.824219 800.503906 369.710938 800.535156 369.710938 800.535156 C 369.710938 800.535156 368.824219 800.566406 367.175781 800.628906 C 365.511719 800.691406 363.082031 800.816406 359.988281 800.894531 C 353.796875 801.050781 344.957031 801.394531 334.347656 801.597656 C 323.753906 801.832031 311.386719 802.035156 298.113281 802.160156 C 291.488281 802.207031 284.640625 802.332031 277.6875 802.332031 C 270.734375 802.347656 263.65625 802.363281 256.578125 802.378906 C 249.511719 802.363281 242.433594 802.347656 235.480469 802.316406 C 228.527344 802.269531 221.679688 802.222656 215.054688 802.160156 C 208.425781 802.082031 202.015625 801.988281 195.933594 801.910156 C 189.867188 801.800781 184.125 801.691406 178.820312 801.597656 C 168.210938 801.378906 159.375 801.050781 153.195312 800.894531 C 150.085938 800.816406 147.660156 800.691406 146.007812 800.628906 C 144.34375 800.566406 143.472656 800.535156 143.472656 800.535156 "/>
<path style=" stroke:none;fill-rule:nonzero;fill:rgb(7.839966%,70.199585%,94.119263%);fill-opacity:1;" d="M 143.472656 809.800781 C 143.472656 809.800781 150.410156 809.191406 160.835938 808.753906 C 163.449219 808.628906 166.265625 808.503906 169.253906 808.425781 C 172.238281 808.332031 175.382812 808.222656 178.632812 808.175781 C 181.902344 808.128906 185.261719 808.019531 188.683594 808.019531 C 192.105469 807.988281 195.574219 807.972656 199.042969 807.957031 C 202.53125 807.972656 206 807.988281 209.421875 808.019531 C 212.84375 808.019531 216.203125 808.128906 219.457031 808.175781 C 225.976562 808.300781 232.058594 808.503906 237.269531 808.738281 C 247.691406 809.191406 254.632812 809.800781 254.632812 809.800781 C 254.632812 809.800781 247.691406 810.441406 237.269531 810.878906 C 232.058594 811.113281 225.976562 811.316406 219.457031 811.441406 C 216.203125 811.488281 212.84375 811.597656 209.421875 811.597656 C 206 811.613281 202.53125 811.644531 199.042969 811.660156 C 195.574219 811.644531 192.105469 811.613281 188.683594 811.597656 C 185.261719 811.597656 181.902344 811.488281 178.632812 811.441406 C 175.382812 811.394531 172.238281 811.285156 169.253906 811.191406 C 166.265625 811.113281 163.449219 810.988281 160.835938 810.863281 C 150.410156 810.425781 143.472656 809.800781 143.472656 809.800781 "/>
<path style=" stroke:none;fill-rule:nonzero;fill:rgb(7.839966%,70.199585%,94.119263%);fill-opacity:1;" d="M 268.804688 809.800781 C 268.804688 809.800781 275.105469 809.191406 284.5625 808.753906 C 286.945312 808.628906 289.496094 808.503906 292.203125 808.425781 C 294.910156 808.332031 297.773438 808.222656 300.730469 808.175781 C 303.683594 808.128906 306.734375 808.019531 309.828125 808.019531 C 312.941406 807.988281 316.097656 807.972656 319.257812 807.957031 C 322.398438 807.972656 325.558594 807.988281 328.667969 808.019531 C 331.765625 808.019531 334.816406 808.128906 337.769531 808.175781 C 343.683594 808.300781 349.207031 808.503906 353.933594 808.738281 C 363.394531 809.191406 369.710938 809.800781 369.710938 809.800781 C 369.710938 809.800781 363.394531 810.441406 353.933594 810.878906 C 349.207031 811.113281 343.683594 811.316406 337.769531 811.441406 C 334.816406 811.488281 331.765625 811.597656 328.667969 811.597656 C 325.558594 811.613281 322.398438 811.644531 319.257812 811.660156 C 316.097656 811.644531 312.941406 811.613281 309.828125 811.597656 C 306.734375 811.597656 303.683594 811.488281 300.730469 811.441406 C 297.773438 811.394531 294.910156 811.285156 292.203125 811.191406 C 289.496094 811.113281 286.945312 810.988281 284.5625 810.863281 C 275.105469 810.425781 268.804688 809.800781 268.804688 809.800781 "/>
<path style=" stroke:none;fill-rule:nonzero;fill:rgb(7.839966%,70.199585%,94.119263%);fill-opacity:1;" d="M 143.472656 819.097656 C 143.472656 819.097656 143.597656 818.925781 143.816406 818.722656 C 144.035156 818.503906 144.34375 818.253906 144.71875 818.019531 C 145.464844 817.550781 146.476562 817.238281 147.472656 817.222656 C 148.46875 817.222656 149.464844 817.535156 150.226562 818.003906 C 150.597656 818.253906 150.910156 818.503906 151.128906 818.722656 C 151.34375 818.925781 151.46875 819.097656 151.46875 819.097656 C 151.46875 819.097656 151.34375 819.253906 151.128906 819.457031 C 150.910156 819.675781 150.597656 819.925781 150.226562 820.160156 C 149.464844 820.628906 148.46875 820.941406 147.472656 820.941406 C 146.476562 820.941406 145.464844 820.628906 144.71875 820.160156 C 144.34375 819.925781 144.035156 819.660156 143.816406 819.457031 C 143.597656 819.253906 143.472656 819.097656 143.472656 819.097656 "/>
<path style=" stroke:none;fill-rule:nonzero;fill:rgb(7.839966%,70.199585%,94.119263%);fill-opacity:1;" d="M 166.046875 819.097656 C 166.046875 819.097656 173.808594 818.472656 185.464844 818.035156 C 188.371094 817.910156 191.53125 817.785156 194.875 817.707031 C 198.203125 817.613281 201.734375 817.503906 205.375 817.457031 C 209.015625 817.410156 212.78125 817.316406 216.609375 817.300781 C 220.4375 817.285156 224.308594 817.253906 228.199219 817.238281 C 232.089844 817.253906 235.960938 817.285156 239.789062 817.300781 C 243.617188 817.300781 247.382812 817.410156 251.023438 817.457031 C 258.304688 817.582031 265.101562 817.785156 270.9375 818.019531 C 282.589844 818.457031 290.351562 819.097656 290.351562 819.097656 C 290.351562 819.097656 282.589844 819.707031 270.9375 820.160156 C 265.101562 820.394531 258.304688 820.597656 251.023438 820.722656 C 247.382812 820.769531 243.617188 820.878906 239.789062 820.878906 C 235.960938 820.894531 232.089844 820.925781 228.199219 820.941406 C 224.308594 820.925781 220.4375 820.894531 216.609375 820.878906 C 212.78125 820.878906 209.015625 820.769531 205.375 820.722656 C 201.734375 820.675781 198.203125 820.550781 194.875 820.472656 C 191.53125 820.394531 188.371094 820.269531 185.464844 820.160156 C 173.808594 819.707031 166.046875 819.097656 166.046875 819.097656 "/>
<path style=" stroke:none;fill-rule:nonzero;fill:rgb(7.839966%,70.199585%,94.119263%);fill-opacity:1;" d="M 301.445312 819.097656 C 301.445312 819.097656 305.707031 818.472656 312.117188 818.035156 C 313.71875 817.910156 315.445312 817.785156 317.28125 817.707031 C 319.101562 817.613281 321.046875 817.503906 323.039062 817.457031 C 325.046875 817.410156 327.113281 817.316406 329.214844 817.300781 C 331.316406 817.285156 333.445312 817.253906 335.578125 817.238281 C 337.707031 817.253906 339.839844 817.285156 341.941406 817.300781 C 344.039062 817.300781 346.109375 817.410156 348.101562 817.457031 C 352.113281 817.582031 355.832031 817.785156 359.039062 818.019531 C 365.449219 818.457031 369.710938 819.097656 369.710938 819.097656 C 369.710938 819.097656 365.449219 819.707031 359.039062 820.160156 C 355.832031 820.394531 352.113281 820.597656 348.101562 820.722656 C 346.109375 820.769531 344.039062 820.878906 341.941406 820.878906 C 339.839844 820.894531 337.707031 820.925781 335.578125 820.941406 C 333.445312 820.925781 331.316406 820.894531 329.214844 820.878906 C 327.113281 820.878906 325.046875 820.769531 323.039062 820.722656 C 321.046875 820.675781 319.101562 820.550781 317.28125 820.472656 C 315.445312 820.394531 313.71875 820.269531 312.117188 820.160156 C 305.707031 819.707031 301.445312 819.097656 301.445312 819.097656 "/>
<g clip-path="url(#clip1)" clip-rule="nonzero">
<path style=" stroke:none;fill-rule:nonzero;fill:rgb(10.198975%,12.939453%,25.099182%);fill-opacity:1;" d="M 400.109375 769.828125 C 400.109375 776.296875 398.523438 781.53125 392.097656 781.53125 L 139.722656 781.53125 C 133.296875 781.53125 128.085938 776.296875 128.085938 769.828125 L 128.085938 736.667969 C 128.085938 730.199219 133.300781 724.960938 139.722656 724.960938 L 392.097656 724.960938 C 398.523438 724.960938 400.109375 730.199219 400.109375 736.667969 L 400.109375 769.828125 "/>
</g>
<path style=" stroke:none;fill-rule:nonzero;fill:rgb(8.239746%,10.198975%,20.388794%);fill-opacity:1;" d="M 176.332031 724.960938 L 139.722656 724.960938 C 133.296875 724.960938 128.085938 730.199219 128.085938 736.667969 L 128.085938 769.828125 C 128.085938 776.296875 133.296875 781.53125 139.722656 781.53125 L 176.332031 781.53125 L 176.332031 724.960938 "/>
<g clip-path="url(#clip2)" clip-rule="nonzero">
<path style=" stroke:none;fill-rule:nonzero;fill:rgb(68.238831%,83.529663%,89.7995%);fill-opacity:1;" d="M 400.109375 770.703125 L 147.582031 770.703125 L 147.582031 735.667969 L 400.109375 735.667969 L 400.109375 770.703125 "/>
</g>
<path style=" stroke:none;fill-rule:nonzero;fill:rgb(7.839966%,70.199585%,94.119263%);fill-opacity:1;" d="M 147.582031 735.777344 L 147.582031 770.796875 C 151.734375 770.734375 155.09375 763.964844 155.09375 755.621094 L 155.09375 750.949219 C 155.09375 742.605469 151.734375 735.839844 147.582031 735.777344 "/>
<path style=" stroke:none;fill-rule:nonzero;fill:rgb(7.839966%,70.199585%,94.119263%);fill-opacity:1;" d="M 170.480469 743.964844 C 170.480469 743.964844 171.367188 743.933594 173.015625 743.871094 C 174.683594 743.808594 177.109375 743.683594 180.1875 743.605469 C 186.382812 743.449219 195.21875 743.121094 205.828125 742.917969 C 211.132812 742.808594 216.875 742.699219 222.957031 742.589844 C 229.023438 742.511719 235.433594 742.417969 242.0625 742.339844 C 248.6875 742.292969 255.535156 742.230469 262.488281 742.183594 C 269.457031 742.152344 276.519531 742.136719 283.601562 742.105469 C 290.664062 742.136719 297.726562 742.152344 304.695312 742.167969 C 311.648438 742.183594 318.496094 742.292969 325.136719 742.339844 C 338.394531 742.464844 350.761719 742.667969 361.371094 742.902344 C 371.964844 743.105469 380.820312 743.449219 386.996094 743.605469 C 390.089844 743.683594 392.519531 743.808594 394.167969 743.871094 C 395.832031 743.933594 396.703125 743.964844 396.703125 743.964844 C 396.703125 743.964844 395.832031 744.011719 394.167969 744.074219 C 392.519531 744.121094 390.089844 744.246094 386.996094 744.324219 C 380.820312 744.480469 371.964844 744.824219 361.371094 745.042969 C 350.761719 745.277344 338.394531 745.480469 325.136719 745.605469 C 318.496094 745.652344 311.648438 745.761719 304.695312 745.761719 C 297.726562 745.777344 290.664062 745.808594 283.601562 745.824219 C 276.519531 745.808594 269.457031 745.777344 262.488281 745.761719 C 255.535156 745.699219 248.6875 745.652344 242.0625 745.589844 C 235.433594 745.511719 229.023438 745.433594 222.957031 745.339844 C 216.875 745.230469 211.132812 745.121094 205.828125 745.027344 C 195.21875 744.824219 186.382812 744.480469 180.1875 744.324219 C 177.109375 744.246094 174.683594 744.121094 173.015625 744.058594 C 171.367188 744.011719 170.480469 743.964844 170.480469 743.964844 "/>
<path style=" stroke:none;fill-rule:nonzero;fill:rgb(7.839966%,70.199585%,94.119263%);fill-opacity:1;" d="M 170.480469 753.246094 C 170.480469 753.246094 177.417969 752.621094 187.84375 752.183594 C 190.457031 752.074219 193.273438 751.949219 196.261719 751.871094 C 199.246094 751.777344 202.40625 751.667969 205.65625 751.621094 C 208.910156 751.558594 212.269531 751.464844 215.691406 751.449219 C 219.113281 751.433594 222.582031 751.417969 226.066406 751.402344 C 229.539062 751.417969 233.007812 751.433594 236.429688 751.449219 C 239.851562 751.449219 243.210938 751.558594 246.464844 751.621094 C 252.984375 751.746094 259.066406 751.933594 264.277344 752.183594 C 274.683594 752.621094 281.640625 753.246094 281.640625 753.246094 C 281.640625 753.246094 274.683594 753.871094 264.277344 754.308594 C 259.066406 754.558594 252.984375 754.746094 246.464844 754.886719 C 243.210938 754.933594 239.851562 755.042969 236.429688 755.042969 C 233.007812 755.058594 229.539062 755.089844 226.066406 755.105469 C 222.582031 755.074219 219.113281 755.058594 215.691406 755.042969 C 212.269531 755.027344 208.910156 754.917969 205.65625 754.871094 C 202.40625 754.824219 199.246094 754.714844 196.261719 754.636719 C 193.273438 754.558594 190.457031 754.417969 187.84375 754.308594 C 177.417969 753.871094 170.480469 753.246094 170.480469 753.246094 "/>
<path style=" stroke:none;fill-rule:nonzero;fill:rgb(7.839966%,70.199585%,94.119263%);fill-opacity:1;" d="M 295.8125 753.246094 C 295.8125 753.246094 302.113281 752.621094 311.585938 752.183594 C 313.9375 752.074219 316.503906 751.949219 319.210938 751.871094 C 321.917969 751.777344 324.78125 751.667969 327.738281 751.621094 C 330.691406 751.558594 333.757812 751.464844 336.851562 751.449219 C 339.949219 751.433594 343.105469 751.417969 346.265625 751.402344 C 349.421875 751.417969 352.566406 751.433594 355.675781 751.449219 C 358.773438 751.449219 361.824219 751.558594 364.792969 751.621094 C 370.707031 751.746094 376.214844 751.933594 380.941406 752.183594 C 390.402344 752.621094 396.703125 753.246094 396.703125 753.246094 C 396.703125 753.246094 390.402344 753.871094 380.941406 754.308594 C 376.214844 754.558594 370.707031 754.746094 364.792969 754.886719 C 361.824219 754.933594 358.773438 755.042969 355.675781 755.042969 C 352.566406 755.058594 349.421875 755.089844 346.265625 755.105469 C 343.105469 755.074219 339.949219 755.058594 336.851562 755.042969 C 333.757812 755.027344 330.691406 754.917969 327.738281 754.871094 C 324.78125 754.824219 321.917969 754.714844 319.210938 754.636719 C 316.503906 754.558594 313.9375 754.417969 311.585938 754.308594 C 302.113281 753.871094 295.8125 753.246094 295.8125 753.246094 "/>
<path style=" stroke:none;fill-rule:nonzero;fill:rgb(7.839966%,70.199585%,94.119263%);fill-opacity:1;" d="M 170.480469 762.527344 C 170.480469 762.527344 170.589844 762.371094 170.824219 762.152344 C 171.042969 761.949219 171.351562 761.699219 171.726562 761.449219 C 172.472656 760.980469 173.484375 760.667969 174.480469 760.667969 C 175.476562 760.667969 176.488281 760.964844 177.234375 761.449219 C 177.605469 761.699219 177.917969 761.949219 178.136719 762.152344 C 178.351562 762.371094 178.476562 762.527344 178.476562 762.527344 C 178.476562 762.527344 178.351562 762.683594 178.136719 762.902344 C 177.917969 763.105469 177.605469 763.371094 177.234375 763.605469 C 176.488281 764.074219 175.476562 764.386719 174.480469 764.371094 C 173.484375 764.371094 172.472656 764.074219 171.726562 763.589844 C 171.351562 763.355469 171.042969 763.105469 170.824219 762.902344 C 170.589844 762.683594 170.480469 762.527344 170.480469 762.527344 "/>
<path style=" stroke:none;fill-rule:nonzero;fill:rgb(7.839966%,70.199585%,94.119263%);fill-opacity:1;" d="M 193.039062 762.527344 C 193.039062 762.527344 200.820312 761.902344 212.472656 761.464844 C 215.378906 761.355469 218.539062 761.230469 221.882812 761.152344 C 225.226562 761.058594 228.742188 760.933594 232.382812 760.902344 C 236.023438 760.839844 239.789062 760.746094 243.617188 760.730469 C 247.445312 760.714844 251.316406 760.683594 255.207031 760.667969 C 259.097656 760.683594 262.984375 760.714844 266.796875 760.730469 C 270.625 760.730469 274.390625 760.839844 278.03125 760.886719 C 285.328125 761.027344 292.109375 761.214844 297.945312 761.464844 C 309.597656 761.902344 317.359375 762.527344 317.359375 762.527344 C 317.359375 762.527344 309.597656 763.152344 297.945312 763.589844 C 292.109375 763.839844 285.328125 764.027344 278.03125 764.152344 C 274.390625 764.199219 270.625 764.324219 266.796875 764.324219 C 262.984375 764.339844 259.097656 764.355469 255.207031 764.371094 C 251.316406 764.355469 247.445312 764.339844 243.617188 764.324219 C 239.789062 764.308594 236.023438 764.199219 232.382812 764.152344 C 228.742188 764.105469 225.226562 763.996094 221.882812 763.902344 C 218.539062 763.824219 215.378906 763.699219 212.472656 763.589844 C 200.820312 763.152344 193.039062 762.527344 193.039062 762.527344 "/>
<path style=" stroke:none;fill-rule:nonzero;fill:rgb(7.839966%,70.199585%,94.119263%);fill-opacity:1;" d="M 328.453125 762.527344 C 328.453125 762.527344 332.714844 761.902344 339.109375 761.464844 C 340.726562 761.355469 342.453125 761.230469 344.289062 761.152344 C 346.125 761.058594 348.054688 760.933594 350.0625 760.902344 C 352.054688 760.839844 354.121094 760.746094 356.222656 760.730469 C 358.308594 760.714844 360.453125 760.683594 362.585938 760.667969 C 364.714844 760.683594 366.847656 760.714844 368.949219 760.730469 C 371.046875 760.730469 373.117188 760.839844 375.125 760.886719 C 379.121094 761.027344 382.839844 761.214844 386.046875 761.464844 C 392.457031 761.902344 396.703125 762.527344 396.703125 762.527344 C 396.703125 762.527344 392.457031 763.152344 386.046875 763.589844 C 382.839844 763.839844 379.121094 764.027344 375.125 764.152344 C 373.117188 764.199219 371.046875 764.324219 368.949219 764.324219 C 366.847656 764.339844 364.714844 764.355469 362.585938 764.371094 C 360.453125 764.355469 358.308594 764.339844 356.222656 764.324219 C 354.121094 764.308594 352.054688 764.199219 350.0625 764.152344 C 348.054688 764.105469 346.125 763.996094 344.289062 763.902344 C 342.453125 763.824219 340.726562 763.699219 339.109375 763.589844 C 332.714844 763.152344 328.453125 762.527344 328.453125 762.527344 "/>
<g clip-path="url(#clip3)" clip-rule="nonzero">
<path style=" stroke:none;fill-rule:nonzero;fill:rgb(93.728638%,18.429565%,30.589294%);fill-opacity:1;" d="M 231.542969 658.3125 C 235.746094 663.191406 237.96875 668.191406 233.101562 672.425781 L 69.886719 814.175781 L 42.210938 838.226562 C 37.339844 842.460938 29.996094 841.914062 25.78125 837.039062 L 4.1875 811.941406 C -0.0273438 807.050781 0.507812 799.675781 5.371094 795.4375 L 33.0625 771.390625 L 196.277344 629.640625 C 201.128906 625.402344 205.734375 628.34375 209.933594 633.21875 L 231.542969 658.3125 "/>
</g>
<g clip-path="url(#clip4)" clip-rule="nonzero">
<path style=" stroke:none;fill-rule:nonzero;fill:rgb(73.329163%,10.198975%,20.388794%);fill-opacity:1;" d="M 33.0625 771.390625 L 5.371094 795.4375 C 0.507812 799.675781 -0.0273438 807.050781 4.1875 811.941406 L 25.78125 837.039062 C 29.996094 841.914062 37.339844 842.460938 42.210938 838.226562 L 69.886719 814.175781 L 33.0625 771.390625 "/>
</g>
<path style=" stroke:none;fill-rule:nonzero;fill:rgb(68.238831%,83.529663%,89.7995%);fill-opacity:1;" d="M 232.105469 658.953125 L 41.105469 824.863281 L 18.292969 798.375 L 209.289062 632.46875 L 232.097656 658.953125 "/>
<path style=" stroke:none;fill-rule:nonzero;fill:rgb(7.839966%,70.199585%,94.119263%);fill-opacity:1;" d="M 18.363281 798.453125 L 41.167969 824.941406 C 44.261719 822.175781 42.394531 814.847656 36.964844 808.535156 L 33.917969 805.003906 C 28.488281 798.6875 21.535156 795.765625 18.363281 798.453125 "/>
<path style=" stroke:none;fill-rule:nonzero;fill:rgb(7.839966%,70.199585%,94.119263%);fill-opacity:1;" d="M 41.011719 789.609375 C 41.011719 789.609375 41.648438 789 42.863281 787.875 C 44.078125 786.734375 45.835938 785.046875 48.136719 782.953125 C 52.695312 778.765625 59.167969 772.71875 67.054688 765.59375 C 71.007812 762.027344 75.285156 758.167969 79.796875 754.089844 C 84.339844 750.042969 89.132812 745.761719 94.09375 741.355469 C 99.074219 736.949219 104.222656 732.417969 109.449219 727.804688 C 114.691406 723.210938 120.027344 718.554688 125.363281 713.898438 C 130.730469 709.257812 136.082031 704.632812 141.375 700.085938 C 146.632812 695.507812 151.890625 691.082031 156.929688 686.769531 C 167.042969 678.160156 176.53125 670.175781 184.699219 663.394531 C 192.867188 656.578125 199.761719 651.03125 204.550781 647.09375 C 206.949219 645.109375 208.863281 643.609375 210.152344 642.5625 C 211.445312 641.53125 212.144531 640.984375 212.144531 640.984375 C 212.144531 640.984375 211.492188 641.578125 210.277344 642.71875 C 209.0625 643.859375 207.320312 645.546875 205.019531 647.625 C 200.445312 651.8125 193.988281 657.875 186.101562 665.003906 C 178.230469 672.144531 169.003906 680.441406 159.0625 689.238281 C 154.066406 693.628906 148.964844 698.210938 143.707031 702.789062 C 138.449219 707.367188 133.113281 712.039062 127.777344 716.695312 C 122.425781 721.320312 117.058594 725.945312 111.78125 730.511719 C 106.476562 735.042969 101.265625 739.496094 96.226562 743.808594 C 91.152344 748.105469 86.253906 752.246094 81.601562 756.183594 C 76.933594 760.089844 72.515625 763.777344 68.441406 767.1875 C 60.273438 774 53.378906 779.5625 48.605469 783.5 C 46.207031 785.46875 44.277344 786.96875 42.988281 788.015625 C 41.695312 789.0625 41.011719 789.609375 41.011719 789.609375 "/>
<path style=" stroke:none;fill-rule:nonzero;fill:rgb(7.839966%,70.199585%,94.119263%);fill-opacity:1;" d="M 47.046875 796.625 C 47.046875 796.625 51.902344 791.59375 59.492188 784.40625 C 61.390625 782.625 63.445312 780.671875 65.65625 778.640625 C 67.863281 776.625 70.167969 774.46875 72.59375 772.296875 C 75.019531 770.109375 77.507812 767.828125 80.09375 765.578125 C 82.660156 763.308594 85.273438 761.011719 87.886719 758.714844 C 90.53125 756.449219 93.175781 754.183594 95.773438 751.949219 C 98.355469 749.699219 100.96875 747.574219 103.476562 745.464844 C 108.484375 741.292969 113.214844 737.449219 117.304688 734.199219 C 125.472656 727.679688 131.152344 723.585938 131.136719 723.585938 C 131.136719 723.585938 126.296875 728.632812 118.707031 735.808594 C 114.910156 739.417969 110.445312 743.558594 105.605469 747.933594 C 103.164062 750.121094 100.691406 752.402344 98.109375 754.652344 C 95.523438 756.917969 92.910156 759.214844 90.296875 761.511719 C 87.667969 763.777344 85.023438 766.046875 82.410156 768.28125 C 79.828125 770.515625 77.214844 772.65625 74.726562 774.75 C 72.21875 776.859375 69.777344 778.84375 67.460938 780.734375 C 65.140625 782.640625 62.933594 784.390625 60.878906 786.03125 C 52.710938 792.53125 47.046875 796.625 47.046875 796.625 "/>
<path style=" stroke:none;fill-rule:nonzero;fill:rgb(7.839966%,70.199585%,94.119263%);fill-opacity:1;" d="M 141.855469 714.289062 C 141.855469 714.289062 146.226562 709.679688 153.089844 703.132812 C 154.816406 701.476562 156.667969 699.710938 158.65625 697.867188 C 160.648438 696.023438 162.734375 694.050781 164.941406 692.066406 C 167.152344 690.097656 169.390625 688.019531 171.742188 685.957031 C 174.058594 683.910156 176.441406 681.832031 178.820312 679.738281 C 181.214844 677.675781 183.613281 675.628906 185.976562 673.597656 C 188.308594 671.566406 190.707031 669.644531 192.960938 667.738281 C 197.519531 663.941406 201.828125 660.46875 205.5625 657.546875 C 213 651.671875 218.179688 647.984375 218.179688 647.984375 C 218.179688 647.984375 213.824219 652.609375 206.949219 659.15625 C 203.523438 662.441406 199.480469 666.222656 195.09375 670.207031 C 192.898438 672.175781 190.660156 674.269531 188.292969 676.316406 C 185.976562 678.363281 183.597656 680.457031 181.230469 682.535156 C 178.820312 684.597656 176.425781 686.660156 174.058594 688.675781 C 171.710938 690.707031 169.34375 692.628906 167.058594 694.535156 C 164.804688 696.460938 162.5625 698.242188 160.460938 699.960938 C 158.363281 701.679688 156.339844 703.257812 154.472656 704.726562 C 147.035156 710.617188 141.855469 714.289062 141.855469 714.289062 "/>
<path style=" stroke:none;fill-rule:nonzero;fill:rgb(7.839966%,70.199585%,94.119263%);fill-opacity:1;" d="M 53.101562 803.644531 C 53.101562 803.644531 53.085938 803.441406 53.117188 803.144531 C 53.148438 802.847656 53.207031 802.441406 53.347656 802.019531 C 53.613281 801.175781 54.15625 800.285156 54.921875 799.628906 C 55.667969 798.953125 56.632812 798.53125 57.503906 798.390625 C 57.9375 798.328125 58.34375 798.328125 58.636719 798.328125 C 58.949219 798.34375 59.152344 798.390625 59.152344 798.390625 C 59.152344 798.390625 59.167969 798.59375 59.136719 798.890625 C 59.105469 799.207031 59.027344 799.597656 58.902344 800.035156 C 58.636719 800.878906 58.09375 801.769531 57.332031 802.425781 C 56.570312 803.082031 55.605469 803.503906 54.75 803.644531 C 54.296875 803.707031 53.894531 803.722656 53.597656 803.707031 C 53.300781 803.691406 53.101562 803.644531 53.101562 803.644531 "/>
<path style=" stroke:none;fill-rule:nonzero;fill:rgb(7.839966%,70.199585%,94.119263%);fill-opacity:1;" d="M 70.167969 788.8125 C 70.167969 788.8125 75.644531 783.234375 84.167969 775.25 C 86.300781 773.25 88.617188 771.078125 91.074219 768.828125 C 93.550781 766.578125 96.132812 764.167969 98.855469 761.746094 C 101.59375 759.308594 104.363281 756.761719 107.253906 754.246094 C 110.132812 751.714844 113.058594 749.136719 115.984375 746.574219 C 118.921875 744.042969 121.878906 741.511719 124.789062 739.011719 C 127.683594 736.496094 130.589844 734.105469 133.390625 731.761719 C 138.976562 727.054688 144.25 722.742188 148.808594 719.101562 C 157.925781 711.773438 164.210938 707.148438 164.210938 707.148438 C 164.210938 707.148438 158.734375 712.726562 150.210938 720.710938 C 145.945312 724.726562 140.953125 729.335938 135.523438 734.214844 C 132.800781 736.652344 130.015625 739.199219 127.121094 741.714844 C 124.246094 744.246094 121.320312 746.824219 118.394531 749.386719 C 115.4375 751.917969 112.484375 754.449219 109.589844 756.949219 C 106.679688 759.464844 103.769531 761.855469 100.984375 764.199219 C 98.199219 766.578125 95.464844 768.796875 92.878906 770.921875 C 90.296875 773.0625 87.839844 775.03125 85.554688 776.859375 C 76.453125 784.1875 70.167969 788.8125 70.167969 788.8125 "/>
<path style=" stroke:none;fill-rule:nonzero;fill:rgb(7.839966%,70.199585%,94.119263%);fill-opacity:1;" d="M 172.597656 699.867188 C 172.597656 699.867188 175.414062 696.585938 179.972656 692.050781 C 181.105469 690.910156 182.335938 689.675781 183.675781 688.410156 C 184.996094 687.144531 186.382812 685.785156 187.875 684.441406 C 189.351562 683.082031 190.847656 681.644531 192.433594 680.269531 C 194.003906 678.878906 195.605469 677.457031 197.210938 676.035156 C 198.828125 674.644531 200.460938 673.269531 202.0625 671.894531 C 203.648438 670.519531 205.285156 669.253906 206.824219 667.957031 C 209.933594 665.441406 212.890625 663.128906 215.457031 661.203125 C 220.59375 657.34375 224.230469 655.015625 224.230469 655.015625 C 224.230469 655.015625 221.402344 658.28125 216.859375 662.832031 C 214.585938 665.113281 211.894531 667.707031 208.953125 670.441406 C 207.476562 671.785156 205.984375 673.222656 204.398438 674.613281 C 202.824219 676.003906 201.207031 677.425781 199.621094 678.847656 C 197.988281 680.222656 196.351562 681.613281 194.765625 682.972656 C 193.164062 684.347656 191.53125 685.628906 189.992188 686.894531 C 188.449219 688.175781 186.910156 689.363281 185.464844 690.503906 C 184.03125 691.644531 182.632812 692.691406 181.339844 693.644531 C 176.222656 697.523438 172.597656 699.867188 172.597656 699.867188 "/>
<g clip-path="url(#clip5)" clip-rule="nonzero">
<path style=" stroke:none;fill-rule:nonzero;fill:rgb(99.21875%,89.019775%,71.759033%);fill-opacity:1;" d="M 467.515625 401.082031 L 401.226562 401.082031 L 446.882812 370.496094 L 503.144531 370.496094 L 467.515625 401.082031 "/>
</g>
<g clip-path="url(#clip6)" clip-rule="nonzero">
<path style=" stroke:none;fill-rule:nonzero;fill:rgb(4.708862%,47.839355%,64.709473%);fill-opacity:1;" d="M 467.515625 841.136719 L 401.226562 841.136719 L 401.226562 401.082031 L 467.515625 401.082031 L 467.515625 841.136719 "/>
</g>
<path style=" stroke:none;fill-rule:nonzero;fill:rgb(99.21875%,89.019775%,71.759033%);fill-opacity:1;" d="M 467.515625 456.949219 L 401.226562 456.949219 L 401.226562 434.105469 L 467.515625 434.105469 L 467.515625 456.949219 "/>
<path style=" stroke:none;fill-rule:nonzero;fill:rgb(99.21875%,89.019775%,71.759033%);fill-opacity:1;" d="M 467.515625 810.355469 L 401.226562 810.355469 L 401.226562 787.507812 L 467.515625 787.507812 L 467.515625 810.355469 "/>
<g clip-path="url(#clip7)" clip-rule="nonzero">
<path style=" stroke:none;fill-rule:nonzero;fill:rgb(5.099487%,68.238831%,79.998779%);fill-opacity:1;" d="M 505.515625 808.296875 L 467.515625 841.136719 L 467.515625 401.082031 L 504.550781 370.496094 L 505.515625 808.285156 "/>
</g>
<g clip-path="url(#clip8)" clip-rule="nonzero">
<path style=" stroke:none;fill-rule:nonzero;fill:rgb(99.21875%,89.019775%,71.759033%);fill-opacity:1;" d="M 562.589844 401.082031 L 496.300781 401.082031 L 541.957031 370.496094 L 598.21875 370.496094 L 562.589844 401.082031 "/>
</g>
<g clip-path="url(#clip9)" clip-rule="nonzero">
<path style=" stroke:none;fill-rule:nonzero;fill:rgb(20.388794%,4.309082%,18.818665%);fill-opacity:1;" d="M 562.589844 841.136719 L 496.300781 841.136719 L 496.300781 401.082031 L 562.589844 401.082031 L 562.589844 841.136719 "/>
</g>
<g clip-path="url(#clip10)" clip-rule="nonzero">
<path style=" stroke:none;fill-rule:nonzero;fill:rgb(32.939148%,9.799194%,35.289001%);fill-opacity:1;" d="M 600.609375 808.296875 L 562.589844 841.136719 L 562.589844 401.082031 L 599.644531 370.496094 L 600.609375 808.285156 "/>
</g>
<path style=" stroke:none;fill-rule:nonzero;fill:rgb(99.21875%,89.019775%,71.759033%);fill-opacity:1;" d="M 549.464844 461.140625 C 549.464844 472.210938 540.496094 481.183594 529.445312 481.183594 C 518.378906 481.183594 509.40625 472.210938 509.40625 461.140625 C 509.40625 450.070312 518.378906 441.09375 529.445312 441.09375 C 540.496094 441.09375 549.464844 450.070312 549.464844 461.140625 "/>
<path style=" stroke:none;fill-rule:nonzero;fill:rgb(99.21875%,89.019775%,71.759033%);fill-opacity:1;" d="M 549.464844 775.789062 C 549.464844 786.859375 540.496094 795.835938 529.445312 795.835938 C 518.378906 795.835938 509.40625 786.859375 509.40625 775.789062 C 509.40625 764.722656 518.378906 755.746094 529.445312 755.746094 C 540.496094 755.746094 549.464844 764.722656 549.464844 775.789062 "/>
<path style=" stroke:none;fill-rule:nonzero;fill:rgb(99.21875%,89.019775%,71.759033%);fill-opacity:1;" d="M 546.628906 739.964844 L 512.246094 739.964844 L 512.246094 496.964844 L 546.628906 496.964844 L 546.628906 739.964844 "/>
</g>
</svg>
