<?xml version="1.0" encoding="UTF-8"?>
<svg xmlns="http://www.w3.org/2000/svg" xmlns:xlink="http://www.w3.org/1999/xlink" width="705pt" height="591.000005pt" viewBox="0 0 705 591.000005" version="1.2">
<defs>
<clipPath id="clip1">
  <path d="M 84.761719 27.265625 L 620.109375 27.265625 L 620.109375 562.609375 L 84.761719 562.609375 Z M 84.761719 27.265625 "/>
</clipPath>
</defs>
<g id="surface1">
<g clip-path="url(#clip1)" clip-rule="nonzero">
<path style=" stroke:none;fill-rule:nonzero;fill:rgb(79.60968%,42.349243%,90.19928%);fill-opacity:1;" d="M 352.433594 27.265625 C 204.882812 27.265625 84.761719 147.382812 84.761719 294.9375 C 84.761719 386.613281 130.9375 467.585938 201.871094 515.765625 C 244.699219 545.210938 296.558594 562.609375 352.433594 562.609375 C 408.3125 562.609375 460.171875 545.210938 503 515.765625 C 573.933594 467.585938 620.109375 386.613281 620.109375 294.9375 C 620.109375 147.382812 499.988281 27.265625 352.433594 27.265625 Z M 503 473.539062 L 503 412.042969 C 503 365.199219 436.753906 328.394531 352.433594 328.394531 C 268.117188 328.394531 201.871094 365.199219 201.871094 412.042969 L 201.871094 473.574219 C 149.238281 429.40625 118.222656 364.332031 118.222656 294.9375 C 118.222656 165.785156 223.285156 60.722656 352.433594 60.722656 C 481.585938 60.722656 586.648438 165.785156 586.648438 294.9375 C 586.648438 364.296875 555.699219 429.308594 503 473.539062 Z M 503 473.539062 "/>
</g>
<path style=" stroke:none;fill-rule:nonzero;fill:rgb(79.60968%,42.349243%,90.19928%);fill-opacity:1;" d="M 436.082031 211.289062 C 436.082031 212.65625 436.050781 214.027344 435.980469 215.394531 C 435.914062 216.761719 435.8125 218.125 435.679688 219.488281 C 435.546875 220.851562 435.378906 222.207031 435.175781 223.5625 C 434.976562 224.917969 434.742188 226.265625 434.476562 227.609375 C 434.207031 228.949219 433.910156 230.285156 433.578125 231.613281 C 433.242188 232.941406 432.878906 234.261719 432.480469 235.570312 C 432.082031 236.878906 431.65625 238.179688 431.191406 239.46875 C 430.730469 240.757812 430.238281 242.035156 429.714844 243.300781 C 429.191406 244.5625 428.636719 245.816406 428.050781 247.054688 C 427.464844 248.289062 426.851562 249.511719 426.207031 250.71875 C 425.5625 251.925781 424.886719 253.117188 424.183594 254.292969 C 423.480469 255.464844 422.746094 256.621094 421.984375 257.761719 C 421.226562 258.898438 420.4375 260.019531 419.621094 261.117188 C 418.804688 262.21875 417.964844 263.296875 417.097656 264.355469 C 416.226562 265.414062 415.332031 266.449219 414.414062 267.464844 C 413.496094 268.476562 412.550781 269.46875 411.582031 270.4375 C 410.613281 271.40625 409.625 272.347656 408.609375 273.265625 C 407.59375 274.1875 406.558594 275.082031 405.5 275.949219 C 404.441406 276.816406 403.363281 277.660156 402.265625 278.476562 C 401.164062 279.289062 400.046875 280.078125 398.90625 280.839844 C 397.769531 281.601562 396.613281 282.332031 395.4375 283.035156 C 394.265625 283.738281 393.074219 284.414062 391.867188 285.058594 C 390.660156 285.703125 389.4375 286.320312 388.199219 286.90625 C 386.960938 287.492188 385.710938 288.046875 384.445312 288.570312 C 383.179688 289.09375 381.90625 289.585938 380.617188 290.046875 C 379.328125 290.507812 378.027344 290.9375 376.71875 291.335938 C 375.40625 291.730469 374.089844 292.097656 372.761719 292.429688 C 371.433594 292.761719 370.097656 293.0625 368.753906 293.328125 C 367.410156 293.597656 366.0625 293.832031 364.710938 294.03125 C 363.355469 294.230469 361.996094 294.398438 360.632812 294.535156 C 359.273438 294.667969 357.90625 294.769531 356.539062 294.835938 C 355.171875 294.902344 353.804688 294.9375 352.433594 294.9375 C 351.066406 294.9375 349.699219 294.902344 348.332031 294.835938 C 346.964844 294.769531 345.597656 294.667969 344.238281 294.535156 C 342.875 294.398438 341.515625 294.230469 340.160156 294.03125 C 338.808594 293.832031 337.460938 293.597656 336.117188 293.328125 C 334.773438 293.0625 333.4375 292.761719 332.109375 292.429688 C 330.78125 292.097656 329.464844 291.730469 328.152344 291.335938 C 326.84375 290.9375 325.542969 290.507812 324.253906 290.046875 C 322.964844 289.585938 321.691406 289.09375 320.425781 288.570312 C 319.160156 288.046875 317.910156 287.492188 316.671875 286.90625 C 315.433594 286.320312 314.210938 285.703125 313.003906 285.058594 C 311.796875 284.414062 310.605469 283.738281 309.433594 283.035156 C 308.257812 282.332031 307.101562 281.601562 305.964844 280.839844 C 304.824219 280.078125 303.707031 279.289062 302.605469 278.476562 C 301.507812 277.660156 300.429688 276.816406 299.371094 275.949219 C 298.3125 275.082031 297.277344 274.1875 296.261719 273.265625 C 295.246094 272.347656 294.253906 271.40625 293.289062 270.4375 C 292.320312 269.46875 291.375 268.476562 290.457031 267.464844 C 289.539062 266.449219 288.644531 265.414062 287.773438 264.355469 C 286.90625 263.296875 286.066406 262.21875 285.25 261.117188 C 284.433594 260.019531 283.644531 258.898438 282.886719 257.761719 C 282.125 256.621094 281.390625 255.464844 280.6875 254.292969 C 279.984375 253.117188 279.308594 251.925781 278.664062 250.71875 C 278.019531 249.511719 277.40625 248.289062 276.820312 247.054688 C 276.234375 245.816406 275.679688 244.5625 275.15625 243.300781 C 274.632812 242.035156 274.140625 240.757812 273.675781 239.46875 C 273.214844 238.179688 272.789062 236.878906 272.390625 235.570312 C 271.992188 234.261719 271.628906 232.941406 271.292969 231.613281 C 270.960938 230.285156 270.664062 228.949219 270.394531 227.609375 C 270.128906 226.265625 269.894531 224.917969 269.695312 223.5625 C 269.492188 222.207031 269.324219 220.851562 269.191406 219.488281 C 269.054688 218.125 268.957031 216.761719 268.890625 215.394531 C 268.820312 214.027344 268.789062 212.65625 268.789062 211.289062 C 268.789062 209.917969 268.820312 208.550781 268.890625 207.183594 C 268.957031 205.816406 269.054688 204.453125 269.191406 203.089844 C 269.324219 201.726562 269.492188 200.371094 269.691406 199.015625 C 269.894531 197.660156 270.128906 196.3125 270.394531 194.96875 C 270.664062 193.628906 270.960938 192.292969 271.292969 190.964844 C 271.628906 189.636719 271.992188 188.316406 272.390625 187.007812 C 272.789062 185.695312 273.214844 184.398438 273.675781 183.109375 C 274.140625 181.820312 274.632812 180.542969 275.15625 179.277344 C 275.679688 178.011719 276.234375 176.761719 276.820312 175.523438 C 277.40625 174.289062 278.019531 173.066406 278.664062 171.859375 C 279.308594 170.648438 279.984375 169.460938 280.6875 168.285156 C 281.390625 167.109375 282.125 165.953125 282.886719 164.816406 C 283.644531 163.679688 284.433594 162.558594 285.25 161.460938 C 286.066406 160.359375 286.90625 159.28125 287.773438 158.222656 C 288.644531 157.164062 289.539062 156.128906 290.457031 155.113281 C 291.375 154.101562 292.320312 153.109375 293.289062 152.140625 C 294.253906 151.171875 295.246094 150.230469 296.261719 149.308594 C 297.277344 148.390625 298.3125 147.496094 299.371094 146.628906 C 300.429688 145.761719 301.507812 144.917969 302.605469 144.101562 C 303.707031 143.285156 304.824219 142.5 305.964844 141.738281 C 307.101562 140.976562 308.257812 140.246094 309.433594 139.542969 C 310.605469 138.839844 311.796875 138.164062 313.003906 137.519531 C 314.210938 136.871094 315.433594 136.257812 316.671875 135.671875 C 317.910156 135.085938 319.160156 134.53125 320.425781 134.007812 C 321.691406 133.484375 322.964844 132.992188 324.253906 132.53125 C 325.542969 132.070312 326.84375 131.640625 328.152344 131.242188 C 329.464844 130.847656 330.78125 130.480469 332.109375 130.148438 C 333.4375 129.816406 334.773438 129.515625 336.117188 129.25 C 337.460938 128.980469 338.808594 128.746094 340.160156 128.546875 C 341.515625 128.347656 342.875 128.179688 344.238281 128.042969 C 345.597656 127.910156 346.964844 127.808594 348.332031 127.742188 C 349.699219 127.675781 351.066406 127.640625 352.433594 127.640625 C 353.804688 127.640625 355.171875 127.675781 356.539062 127.742188 C 357.90625 127.808594 359.273438 127.910156 360.632812 128.042969 C 361.996094 128.179688 363.355469 128.347656 364.710938 128.546875 C 366.0625 128.746094 367.410156 128.980469 368.753906 129.25 C 370.097656 129.515625 371.433594 129.816406 372.761719 130.148438 C 374.089844 130.480469 375.40625 130.847656 376.71875 131.242188 C 378.027344 131.640625 379.328125 132.070312 380.617188 132.53125 C 381.90625 132.992188 383.179688 133.484375 384.445312 134.007812 C 385.710938 134.53125 386.960938 135.085938 388.199219 135.671875 C 389.4375 136.257812 390.660156 136.871094 391.867188 137.519531 C 393.074219 138.164062 394.265625 138.839844 395.4375 139.542969 C 396.613281 140.246094 397.769531 140.976562 398.90625 141.738281 C 400.046875 142.5 401.164062 143.285156 402.265625 144.101562 C 403.363281 144.917969 404.441406 145.761719 405.5 146.628906 C 406.558594 147.496094 407.59375 148.390625 408.609375 149.308594 C 409.625 150.230469 410.613281 151.171875 411.582031 152.140625 C 412.550781 153.109375 413.496094 154.101562 414.414062 155.113281 C 415.332031 156.128906 416.226562 157.164062 417.097656 158.222656 C 417.964844 159.28125 418.804688 160.359375 419.621094 161.460938 C 420.4375 162.558594 421.226562 163.679688 421.984375 164.816406 C 422.746094 165.953125 423.480469 167.109375 424.183594 168.285156 C 424.886719 169.460938 425.5625 170.648438 426.207031 171.859375 C 426.851562 173.066406 427.464844 174.289062 428.050781 175.523438 C 428.636719 176.761719 429.191406 178.011719 429.714844 179.277344 C 430.238281 180.542969 430.730469 181.820312 431.191406 183.109375 C 431.65625 184.398438 432.082031 185.699219 432.480469 187.007812 C 432.878906 188.316406 433.242188 189.636719 433.578125 190.964844 C 433.910156 192.292969 434.207031 193.628906 434.476562 194.96875 C 434.742188 196.3125 434.976562 197.660156 435.175781 199.015625 C 435.378906 200.371094 435.546875 201.726562 435.679688 203.089844 C 435.8125 204.453125 435.914062 205.816406 435.980469 207.183594 C 436.050781 208.550781 436.082031 209.917969 436.082031 211.289062 Z M 436.082031 211.289062 "/>
</g>
</svg>
