<?xml version="1.0" encoding="UTF-8"?>
<svg xmlns="http://www.w3.org/2000/svg" xmlns:xlink="http://www.w3.org/1999/xlink" width="705pt" height="591.000005pt" viewBox="0 0 705 591.000005" version="1.2">
<defs>
<clipPath id="clip1">
  <path d="M 112.789062 41.824219 L 592.398438 41.824219 L 592.398438 281.628906 L 112.789062 281.628906 Z M 112.789062 41.824219 "/>
</clipPath>
<clipPath id="clip2">
  <path d="M 112.582031 291.1875 L 592.195312 291.1875 L 592.195312 530.992188 L 112.582031 530.992188 Z M 112.582031 291.1875 "/>
</clipPath>
<clipPath id="clip3">
  <path d="M 153.886719 92.675781 L 550.65625 92.675781 L 550.65625 489.445312 L 153.886719 489.445312 Z M 153.886719 92.675781 "/>
</clipPath>
<clipPath id="clip4">
  <path d="M 191 162 L 513 162 L 513 489.445312 L 191 489.445312 Z M 191 162 "/>
</clipPath>
</defs>
<g id="surface1">
<g clip-path="url(#clip1)" clip-rule="nonzero">
<path style=" stroke:none;fill-rule:nonzero;fill:rgb(43.528748%,26.269531%,50.19989%);fill-opacity:1;" d="M 592.398438 281.628906 L 566.617188 281.628906 C 566.617188 163.617188 470.605469 67.605469 352.59375 67.605469 C 234.578125 67.605469 138.566406 163.617188 138.566406 281.628906 L 112.785156 281.628906 C 112.785156 149.398438 220.363281 41.824219 352.59375 41.824219 C 484.820312 41.824219 592.398438 149.398438 592.398438 281.628906 Z M 592.398438 281.628906 "/>
</g>
<g clip-path="url(#clip2)" clip-rule="nonzero">
<path style=" stroke:none;fill-rule:nonzero;fill:rgb(43.528748%,26.269531%,50.19989%);fill-opacity:1;" d="M 112.585938 291.1875 L 138.367188 291.1875 C 138.367188 409.199219 234.378906 505.210938 352.390625 505.210938 C 470.40625 505.210938 566.417969 409.199219 566.417969 291.1875 L 592.195312 291.1875 C 592.195312 423.417969 484.621094 530.992188 352.390625 530.992188 C 220.164062 530.992188 112.585938 423.417969 112.585938 291.1875 Z M 112.585938 291.1875 "/>
</g>
<g clip-path="url(#clip3)" clip-rule="nonzero">
<path style=" stroke:none;fill-rule:nonzero;fill:rgb(43.528748%,26.269531%,50.19989%);fill-opacity:1;" d="M 153.886719 291.0625 C 153.886719 181.511719 242.722656 92.675781 352.269531 92.675781 C 461.820312 92.675781 550.65625 181.511719 550.65625 291.0625 C 550.65625 400.609375 461.820312 489.445312 352.269531 489.445312 C 242.722656 489.445312 153.886719 400.609375 153.886719 291.0625 Z M 153.886719 291.0625 "/>
</g>
<g clip-path="url(#clip4)" clip-rule="nonzero">
<path style=" stroke:none;fill-rule:nonzero;fill:rgb(31.759644%,7.058716%,50.588989%);fill-opacity:1;" d="M 352.269531 489.445312 C 418 489.445312 476.292969 457.460938 512.355469 408.203125 C 505.636719 398.609375 479.25 370.542969 390.492188 349.113281 C 390.492188 328.960938 388.492188 316.886719 388.492188 316.886719 C 388.492188 316.886719 414.640625 280.585938 416.640625 230.289062 C 416.640625 222.292969 420.558594 165.441406 352.191406 162.882812 L 352.191406 162.800781 L 351.710938 162.800781 C 351.710938 162.800781 351.390625 162.800781 351.230469 162.800781 L 351.230469 162.882812 C 282.785156 165.441406 286.703125 222.214844 286.703125 230.289062 C 288.703125 280.664062 314.929688 316.96875 314.929688 316.96875 C 314.929688 316.96875 312.929688 329.042969 312.929688 349.191406 C 226.492188 369.984375 199.226562 397.171875 191.628906 407.40625 C 227.691406 457.0625 286.144531 489.445312 352.269531 489.445312 "/>
</g>
</g>
</svg>
