<?xml version="1.0" encoding="UTF-8"?>
<svg xmlns="http://www.w3.org/2000/svg" xmlns:xlink="http://www.w3.org/1999/xlink" width="595.5pt" height="842.249979pt" viewBox="0 0 595.5 842.249979" version="1.2">
<defs>
<clipPath id="clip1">
  <path d="M 106 329 L 510 329 L 510 774.804688 L 106 774.804688 Z M 106 329 "/>
</clipPath>
<clipPath id="clip2">
  <path d="M 21.074219 231.832031 L 594.984375 231.832031 L 594.984375 519 L 21.074219 519 Z M 21.074219 231.832031 "/>
</clipPath>
</defs>
<g id="surface1">
<g clip-path="url(#clip1)" clip-rule="nonzero">
<path style=" stroke:none;fill-rule:nonzero;fill:rgb(100%,100%,100%);fill-opacity:1;" d="M 509.847656 507.832031 Z M 509.847656 507.832031 L 308.375 329.453125 L 106.773438 507.90625 L 106.773438 762.902344 C 106.773438 769.488281 112.097656 774.773438 118.6875 774.773438 L 244.675781 774.773438 L 244.675781 662.96875 C 244.675781 656.382812 249.957031 651.058594 256.546875 651.058594 L 360.070312 651.058594 C 366.65625 651.058594 371.941406 656.382812 371.941406 662.96875 L 371.941406 774.773438 L 497.96875 774.773438 C 504.554688 774.773438 509.839844 769.488281 509.839844 762.902344 L 509.839844 507.820312 Z M 106.773438 507.910156 Z M 106.773438 507.910156 "/>
</g>
<g clip-path="url(#clip2)" clip-rule="nonzero">
<path style=" stroke:none;fill-rule:nonzero;fill:rgb(100%,100%,100%);fill-opacity:1;" d="M 307.199219 231.832031 L 21.277344 484.921875 L 51.394531 518.890625 L 308.371094 291.40625 L 565.285156 518.890625 L 595.34375 484.921875 L 309.484375 231.832031 L 308.375 233.117188 L 307.207031 231.832031 Z M 307.199219 231.832031 "/>
</g>
<path style=" stroke:none;fill-rule:nonzero;fill:rgb(100%,100%,100%);fill-opacity:1;" d="M 106.773438 268.265625 L 179.253906 268.265625 L 178.625 311.183594 L 106.773438 376.070312 Z M 106.773438 268.265625 "/>
</g>
</svg>
