<?xml version="1.0" encoding="UTF-8"?>
<svg xmlns="http://www.w3.org/2000/svg" xmlns:xlink="http://www.w3.org/1999/xlink" width="1440pt" height="809.999993pt" viewBox="0 0 1440 809.999993" version="1.2">
<defs>
<clipPath id="clip1">
  <path d="M 351.160156 431 L 698.410156 431 L 698.410156 729.21875 L 351.160156 729.21875 Z M 351.160156 431 "/>
</clipPath>
<clipPath id="clip2">
  <path d="M 351.160156 431 L 477 431 L 477 729.21875 L 351.160156 729.21875 Z M 351.160156 431 "/>
</clipPath>
<clipPath id="clip3">
  <path d="M 572 431 L 698.410156 431 L 698.410156 729.21875 L 572 729.21875 Z M 572 431 "/>
</clipPath>
<clipPath id="clip4">
  <path d="M 711 414 L 1050 414 L 1050 728.738281 L 711 728.738281 Z M 711 414 "/>
</clipPath>
</defs>
<g id="surface1">
<path style=" stroke:none;fill-rule:nonzero;fill:rgb(96.078491%,67.449951%,62.348938%);fill-opacity:1;" d="M 445.773438 273.378906 C 454.351562 311.308594 484.398438 337.6875 496.15625 350.449219 C 509.292969 364.746094 505.863281 352.992188 522.878906 357.8125 C 544.980469 364.046875 596.371094 384.621094 604.273438 379.660156 C 604.273438 379.660156 609.898438 371.824219 615.707031 344.5 C 602.613281 342.34375 588.492188 334.160156 588.492188 334.160156 C 599.203125 333.789062 612.378906 331.757812 618.351562 330.753906 C 620.753906 316.785156 623.054688 299.101562 624.859375 276.886719 C 630.339844 209.171875 585.167969 176.289062 555.898438 169.847656 C 495.191406 156.492188 420.957031 163.652344 445.773438 273.378906 Z M 445.773438 273.378906 "/>
<path style=" stroke:none;fill-rule:nonzero;fill:rgb(19.999695%,5.879211%,17.649841%);fill-opacity:1;" d="M 446.078125 279.367188 C 446.078125 279.367188 472.945312 252.824219 529.21875 266.320312 C 529.21875 266.320312 528.523438 215.121094 615.417969 219.367188 C 615.417969 219.367188 604.335938 166.933594 540.40625 164.472656 C 476.476562 162.011719 361.152344 176.042969 446.078125 279.367188 Z M 446.078125 279.367188 "/>
<path style=" stroke:none;fill-rule:nonzero;fill:rgb(96.078491%,67.449951%,62.348938%);fill-opacity:1;" d="M 561.320312 436.558594 L 488.253906 436.558594 L 488.253906 337.621094 L 561.320312 337.621094 Z M 561.320312 436.558594 "/>
<path style=" stroke:none;fill-rule:nonzero;fill:rgb(96.078491%,67.449951%,62.348938%);fill-opacity:1;" d="M 620.632812 315.984375 C 620.632812 315.984375 630.378906 317.214844 636.289062 310.816406 C 636.289062 310.816406 628.636719 293.644531 624.839844 276.90625 C 621.0625 260.167969 608.195312 308.519531 608.195312 308.519531 Z M 620.632812 315.984375 "/>
<path style=" stroke:none;fill-rule:nonzero;fill:rgb(96.078491%,67.449951%,62.348938%);fill-opacity:1;" d="M 516.886719 285.5625 C 516.886719 286.28125 516.851562 287 516.78125 287.714844 C 516.710938 288.429688 516.605469 289.140625 516.464844 289.84375 C 516.324219 290.550781 516.148438 291.246094 515.941406 291.933594 C 515.730469 292.621094 515.488281 293.300781 515.214844 293.964844 C 514.9375 294.628906 514.632812 295.277344 514.292969 295.910156 C 513.953125 296.542969 513.582031 297.160156 513.183594 297.757812 C 512.785156 298.355469 512.355469 298.933594 511.902344 299.488281 C 511.445312 300.042969 510.960938 300.574219 510.453125 301.085938 C 509.945312 301.59375 509.414062 302.074219 508.855469 302.53125 C 508.300781 302.988281 507.722656 303.414062 507.125 303.8125 C 506.527344 304.214844 505.910156 304.582031 505.277344 304.921875 C 504.644531 305.261719 503.992188 305.566406 503.328125 305.84375 C 502.664062 306.117188 501.988281 306.359375 501.300781 306.566406 C 500.613281 306.777344 499.914062 306.949219 499.210938 307.089844 C 498.503906 307.230469 497.792969 307.335938 497.078125 307.40625 C 496.363281 307.476562 495.644531 307.511719 494.925781 307.511719 C 494.207031 307.511719 493.488281 307.476562 492.773438 307.40625 C 492.058594 307.335938 491.347656 307.230469 490.640625 307.089844 C 489.9375 306.949219 489.238281 306.777344 488.550781 306.566406 C 487.863281 306.359375 487.1875 306.117188 486.519531 305.84375 C 485.855469 305.566406 485.207031 305.261719 484.574219 304.921875 C 483.9375 304.582031 483.324219 304.214844 482.726562 303.8125 C 482.125 303.414062 481.550781 302.988281 480.992188 302.53125 C 480.4375 302.074219 479.90625 301.59375 479.398438 301.085938 C 478.886719 300.574219 478.40625 300.042969 477.949219 299.488281 C 477.492188 298.933594 477.066406 298.355469 476.667969 297.757812 C 476.265625 297.160156 475.898438 296.542969 475.558594 295.910156 C 475.21875 295.277344 474.910156 294.628906 474.636719 293.964844 C 474.363281 293.300781 474.121094 292.621094 473.910156 291.933594 C 473.703125 291.246094 473.527344 290.550781 473.386719 289.84375 C 473.246094 289.140625 473.140625 288.429688 473.070312 287.714844 C 473 287 472.964844 286.28125 472.964844 285.5625 C 472.964844 284.84375 473 284.128906 473.070312 283.414062 C 473.140625 282.695312 473.246094 281.988281 473.386719 281.28125 C 473.527344 280.578125 473.703125 279.878906 473.910156 279.191406 C 474.121094 278.503906 474.363281 277.828125 474.636719 277.164062 C 474.910156 276.5 475.21875 275.851562 475.558594 275.214844 C 475.898438 274.582031 476.265625 273.96875 476.667969 273.367188 C 477.066406 272.769531 477.492188 272.195312 477.949219 271.640625 C 478.40625 271.082031 478.886719 270.550781 479.398438 270.042969 C 479.90625 269.535156 480.4375 269.050781 480.992188 268.597656 C 481.550781 268.140625 482.125 267.710938 482.726562 267.3125 C 483.324219 266.914062 483.9375 266.542969 484.574219 266.207031 C 485.207031 265.867188 485.855469 265.558594 486.519531 265.285156 C 487.1875 265.011719 487.863281 264.769531 488.550781 264.558594 C 489.238281 264.351562 489.9375 264.175781 490.640625 264.035156 C 491.347656 263.894531 492.058594 263.789062 492.773438 263.71875 C 493.488281 263.648438 494.207031 263.613281 494.925781 263.613281 C 495.644531 263.613281 496.363281 263.648438 497.078125 263.71875 C 497.792969 263.789062 498.503906 263.894531 499.210938 264.035156 C 499.914062 264.175781 500.613281 264.351562 501.300781 264.558594 C 501.988281 264.769531 502.664062 265.011719 503.328125 265.285156 C 503.992188 265.558594 504.644531 265.867188 505.277344 266.207031 C 505.910156 266.542969 506.527344 266.914062 507.125 267.3125 C 507.722656 267.710938 508.300781 268.140625 508.855469 268.597656 C 509.414062 269.050781 509.945312 269.535156 510.453125 270.042969 C 510.960938 270.550781 511.445312 271.082031 511.902344 271.640625 C 512.355469 272.195312 512.785156 272.769531 513.183594 273.367188 C 513.582031 273.96875 513.953125 274.582031 514.292969 275.214844 C 514.632812 275.851562 514.9375 276.5 515.214844 277.164062 C 515.488281 277.828125 515.730469 278.503906 515.941406 279.191406 C 516.148438 279.878906 516.324219 280.578125 516.464844 281.28125 C 516.605469 281.988281 516.710938 282.695312 516.78125 283.414062 C 516.851562 284.128906 516.886719 284.84375 516.886719 285.5625 Z M 516.886719 285.5625 "/>
<g clip-path="url(#clip1)" clip-rule="nonzero">
<path style=" stroke:none;fill-rule:nonzero;fill:rgb(68.629456%,45.098877%,68.238831%);fill-opacity:1;" d="M 698.476562 535.992188 L 698.476562 729.410156 L 351.117188 729.410156 L 351.117188 535.992188 C 351.117188 533.304688 351.199219 530.617188 351.425781 527.992188 C 352.328125 516.238281 355.179688 505.035156 359.65625 494.675781 C 367.804688 475.90625 381.308594 459.949219 398.21875 448.726562 C 414.742188 437.773438 434.523438 431.394531 455.765625 431.394531 L 593.808594 431.394531 C 615.046875 431.394531 634.832031 437.773438 651.355469 448.726562 C 668.265625 459.949219 681.769531 475.90625 689.917969 494.675781 C 694.390625 505.035156 697.246094 516.238281 698.148438 527.992188 C 698.375 530.617188 698.476562 533.304688 698.476562 535.992188 Z M 698.476562 535.992188 "/>
</g>
<path style=" stroke:none;fill-rule:nonzero;fill:rgb(68.629456%,45.098877%,68.238831%);fill-opacity:1;" d="M 470.480469 416.972656 L 579.089844 416.972656 C 583.195312 416.972656 586.5625 413.609375 586.5625 409.503906 L 586.5625 403.332031 C 586.5625 399.226562 583.195312 395.863281 579.089844 395.863281 L 470.480469 395.863281 C 466.378906 395.863281 463.011719 399.226562 463.011719 403.332031 L 463.011719 409.503906 C 463.011719 413.609375 466.378906 416.972656 470.480469 416.972656 Z M 470.480469 416.972656 "/>
<path style=" stroke:none;fill-rule:nonzero;fill:rgb(68.629456%,45.098877%,68.238831%);fill-opacity:1;" d="M 476.90625 412.355469 L 572.542969 412.355469 L 572.542969 456.378906 L 476.90625 456.378906 Z M 476.90625 412.355469 "/>
<path style=" stroke:none;fill-rule:nonzero;fill:rgb(19.999695%,5.879211%,17.649841%);fill-opacity:1;" d="M 610.574219 173.171875 L 610.574219 118.75 C 632.207031 122.789062 656.484375 151.160156 656.484375 173.171875 C 656.484375 198.339844 635.757812 219.058594 610.574219 219.058594 C 586.683594 219.058594 566.574219 200.433594 564.785156 176.617188 Z M 610.574219 173.171875 "/>
<path style=" stroke:none;fill-rule:nonzero;fill:rgb(19.999695%,5.879211%,17.649841%);fill-opacity:1;" d="M 563.1875 183.941406 L 507.566406 203.796875 C 496.667969 173.292969 512.800781 139.242188 543.320312 128.347656 C 573.835938 117.457031 607.90625 133.578125 618.804688 164.082031 C 622.847656 175.386719 623.339844 187.652344 620.21875 199.242188 Z M 563.1875 183.941406 "/>
<path style=" stroke:none;fill-rule:nonzero;fill:rgb(19.999695%,5.879211%,17.649841%);fill-opacity:1;" d="M 444.292969 266.320312 C 444.292969 266.320312 403.902344 226.894531 416.21875 180.023438 L 421.453125 185.519531 C 421.453125 185.519531 436.84375 119.710938 540.488281 129.4375 L 510.789062 194.6875 L 446.59375 215.347656 L 452.09375 243.386719 Z M 444.292969 266.320312 "/>
<g clip-path="url(#clip2)" clip-rule="nonzero">
<path style=" stroke:none;fill-rule:nonzero;fill:rgb(19.999695%,5.879211%,17.649841%);fill-opacity:1;" d="M 476.90625 431.394531 L 476.90625 729.410156 L 351.117188 729.410156 L 351.117188 535.992188 C 351.117188 533.304688 351.199219 530.617188 351.425781 527.992188 C 352.328125 516.238281 355.179688 505.035156 359.65625 494.675781 C 367.804688 475.90625 381.308594 459.949219 398.21875 448.726562 C 414.742188 437.773438 434.523438 431.394531 455.765625 431.394531 Z M 476.90625 431.394531 "/>
</g>
<g clip-path="url(#clip3)" clip-rule="nonzero">
<path style=" stroke:none;fill-rule:nonzero;fill:rgb(19.999695%,5.879211%,17.649841%);fill-opacity:1;" d="M 698.476562 535.992188 L 698.476562 729.410156 L 572.542969 729.410156 L 572.542969 431.394531 L 593.808594 431.394531 C 615.046875 431.394531 634.832031 437.773438 651.355469 448.726562 C 668.265625 459.949219 681.769531 475.90625 689.917969 494.675781 C 694.390625 505.035156 697.246094 516.238281 698.148438 527.992188 C 698.375 530.617188 698.476562 533.304688 698.476562 535.992188 Z M 698.476562 535.992188 "/>
</g>
<path style=" stroke:none;fill-rule:nonzero;fill:rgb(90.589905%,19.999695%,23.139954%);fill-opacity:1;" d="M 787.46875 183.066406 C 787.46875 183.066406 698.140625 273.21875 763.636719 392.671875 C 854.925781 559.152344 931.265625 357.707031 911.886719 387.007812 L 923.054688 201.710938 Z M 787.46875 183.066406 "/>
<path style=" stroke:none;fill-rule:nonzero;fill:rgb(96.078491%,69.40918%,69.40918%);fill-opacity:1;" d="M 961.527344 246.828125 C 951.816406 286.828125 935.871094 298.765625 923.445312 312.261719 C 921.097656 314.824219 918.816406 317.039062 916.558594 319.011719 C 916.015625 319.488281 915.449219 319.96875 914.90625 320.402344 C 908.824219 325.371094 902.851562 328.496094 896.136719 331.035156 C 891.226562 332.921875 885.925781 334.464844 879.910156 336.15625 C 870.109375 338.914062 854.46875 342.929688 839.21875 346.703125 C 832.917969 348.265625 826.683594 349.785156 820.96875 351.175781 C 807.5 354.429688 796.898438 356.882812 795.007812 357.1875 C 795.007812 357.1875 790.1875 348.875 782.5625 322.746094 C 793.945312 319.078125 802.65625 311.808594 802.65625 311.808594 C 791.292969 311.394531 783.148438 311.785156 779.476562 311.394531 C 778.800781 307.464844 778.085938 302.996094 777.367188 298.089844 C 776 288.824219 774.632812 278.039062 773.480469 266.601562 C 772.914062 261.371094 772.414062 255.988281 771.980469 250.5625 C 767.917969 200.363281 790.144531 168.09375 814.472656 151.054688 C 824.878906 143.761719 835.675781 139.25 844.976562 137.316406 C 909.0625 123.949219 981.339844 164.988281 961.527344 246.828125 Z M 961.527344 246.828125 "/>
<path style=" stroke:none;fill-rule:nonzero;fill:rgb(96.078491%,69.40918%,69.40918%);fill-opacity:1;" d="M 839.21875 314.800781 L 916.558594 314.800781 L 916.558594 419.472656 L 839.21875 419.472656 Z M 839.21875 314.800781 "/>
<path style=" stroke:none;fill-rule:nonzero;fill:rgb(96.078491%,69.40918%,69.40918%);fill-opacity:1;" d="M 791.335938 294.097656 C 791.335938 294.097656 760.878906 304.796875 755.425781 297.332031 C 755.425781 297.332031 771.089844 281.335938 778.800781 249.605469 C 783.105469 231.964844 792.402344 284.875 792.402344 284.875 Z M 791.335938 294.097656 "/>
<path style=" stroke:none;fill-rule:nonzero;fill:rgb(90.589905%,19.999695%,23.139954%);fill-opacity:1;" d="M 895.074219 224.648438 L 811.128906 154.875 C 849.449219 108.867188 918.882812 102.507812 964.9375 140.789062 C 1010.996094 179.074219 1017.359375 248.433594 979.039062 294.445312 C 963.222656 313.433594 941.410156 326.5 917.210938 331.511719 Z M 895.074219 224.648438 "/>
<path style=" stroke:none;fill-rule:nonzero;fill:rgb(96.078491%,69.40918%,69.40918%);fill-opacity:1;" d="M 932.742188 259.722656 C 932.742188 260.480469 932.707031 261.238281 932.628906 261.996094 C 932.554688 262.753906 932.445312 263.503906 932.296875 264.25 C 932.148438 264.996094 931.960938 265.734375 931.742188 266.460938 C 931.519531 267.191406 931.265625 267.90625 930.972656 268.605469 C 930.683594 269.308594 930.355469 269.996094 929.996094 270.667969 C 929.640625 271.339844 929.25 271.988281 928.824219 272.621094 C 928.402344 273.253906 927.949219 273.863281 927.464844 274.453125 C 926.984375 275.039062 926.472656 275.601562 925.933594 276.140625 C 925.394531 276.679688 924.832031 277.1875 924.242188 277.671875 C 923.65625 278.152344 923.042969 278.605469 922.410156 279.027344 C 921.777344 279.453125 921.125 279.84375 920.457031 280.199219 C 919.785156 280.558594 919.097656 280.882812 918.394531 281.175781 C 917.691406 281.464844 916.972656 281.722656 916.246094 281.941406 C 915.515625 282.164062 914.777344 282.347656 914.03125 282.496094 C 913.285156 282.644531 912.535156 282.757812 911.777344 282.832031 C 911.019531 282.90625 910.257812 282.941406 909.496094 282.941406 C 908.734375 282.941406 907.976562 282.90625 907.21875 282.832031 C 906.460938 282.757812 905.710938 282.644531 904.960938 282.496094 C 904.214844 282.347656 903.476562 282.164062 902.75 281.941406 C 902.019531 281.722656 901.304688 281.464844 900.601562 281.175781 C 899.898438 280.882812 899.210938 280.558594 898.539062 280.199219 C 897.867188 279.84375 897.214844 279.453125 896.582031 279.027344 C 895.949219 278.605469 895.339844 278.152344 894.75 277.671875 C 894.164062 277.1875 893.597656 276.679688 893.058594 276.140625 C 892.523438 275.601562 892.011719 275.039062 891.527344 274.453125 C 891.046875 273.863281 890.59375 273.253906 890.167969 272.621094 C 889.746094 271.988281 889.355469 271.339844 888.996094 270.667969 C 888.636719 269.996094 888.3125 269.308594 888.023438 268.605469 C 887.730469 267.90625 887.472656 267.191406 887.253906 266.460938 C 887.03125 265.734375 886.847656 264.996094 886.699219 264.25 C 886.550781 263.503906 886.4375 262.753906 886.363281 261.996094 C 886.289062 261.238281 886.253906 260.480469 886.253906 259.722656 C 886.253906 258.960938 886.289062 258.203125 886.363281 257.445312 C 886.4375 256.6875 886.550781 255.9375 886.699219 255.191406 C 886.847656 254.445312 887.03125 253.707031 887.253906 252.980469 C 887.472656 252.253906 887.730469 251.535156 888.023438 250.835938 C 888.3125 250.132812 888.636719 249.445312 888.996094 248.773438 C 889.355469 248.101562 889.746094 247.453125 890.167969 246.820312 C 890.59375 246.1875 891.046875 245.578125 891.527344 244.988281 C 892.011719 244.402344 892.523438 243.839844 893.058594 243.300781 C 893.597656 242.761719 894.164062 242.253906 894.75 241.769531 C 895.339844 241.289062 895.949219 240.835938 896.582031 240.414062 C 897.214844 239.988281 897.867188 239.597656 898.539062 239.242188 C 899.210938 238.882812 899.898438 238.558594 900.601562 238.265625 C 901.304688 237.976562 902.019531 237.71875 902.75 237.5 C 903.476562 237.277344 904.214844 237.09375 904.960938 236.945312 C 905.710938 236.796875 906.460938 236.683594 907.21875 236.609375 C 907.976562 236.535156 908.734375 236.5 909.496094 236.5 C 910.257812 236.5 911.019531 236.535156 911.777344 236.609375 C 912.535156 236.683594 913.285156 236.796875 914.03125 236.945312 C 914.777344 237.09375 915.515625 237.277344 916.246094 237.5 C 916.972656 237.71875 917.691406 237.976562 918.394531 238.265625 C 919.097656 238.558594 919.785156 238.882812 920.457031 239.242188 C 921.125 239.597656 921.777344 239.988281 922.410156 240.414062 C 923.042969 240.835938 923.65625 241.289062 924.242188 241.769531 C 924.832031 242.253906 925.394531 242.761719 925.933594 243.300781 C 926.472656 243.839844 926.984375 244.402344 927.464844 244.988281 C 927.949219 245.578125 928.402344 246.1875 928.824219 246.820312 C 929.25 247.453125 929.640625 248.101562 929.996094 248.773438 C 930.355469 249.445312 930.683594 250.132812 930.972656 250.835938 C 931.265625 251.535156 931.519531 252.253906 931.742188 252.980469 C 931.960938 253.707031 932.148438 254.445312 932.296875 255.191406 C 932.445312 255.9375 932.554688 256.6875 932.628906 257.445312 C 932.707031 258.203125 932.742188 258.960938 932.742188 259.722656 Z M 932.742188 259.722656 "/>
<g clip-path="url(#clip4)" clip-rule="nonzero">
<path style=" stroke:none;fill-rule:nonzero;fill:rgb(19.999695%,5.879211%,17.649841%);fill-opacity:1;" d="M 1049.839844 494.238281 C 1046.949219 571.390625 1024.636719 728.542969 1024.636719 728.542969 L 728.054688 728.542969 C 728.054688 728.542969 710.542969 510.992188 711.824219 499.121094 C 715.496094 465.136719 726.011719 444.214844 743.914062 432.34375 C 758.46875 422.707031 775.390625 416.414062 793.640625 414.570312 C 797.3125 414.199219 801.046875 414.003906 804.828125 414.003906 L 950.949219 414.003906 C 954.726562 414.003906 958.464844 414.199219 962.136719 414.570312 C 980.386719 416.414062 997.308594 422.707031 1011.863281 432.34375 C 1029.765625 444.214844 1050.664062 472.601562 1049.839844 494.238281 Z M 1049.839844 494.238281 "/>
</g>
<path style=" stroke:none;fill-rule:nonzero;fill:rgb(96.078491%,69.40918%,69.40918%);fill-opacity:1;" d="M 962.15625 413.246094 C 962.15625 413.679688 962.15625 414.136719 962.136719 414.570312 C 961.441406 460.449219 923.988281 497.429688 877.886719 497.429688 C 831.789062 497.429688 794.335938 460.449219 793.640625 414.570312 C 797.3125 414.199219 801.046875 414.003906 804.828125 414.003906 L 839.21875 414.003906 L 839.21875 346.703125 C 832.917969 348.269531 826.683594 349.785156 820.96875 351.175781 C 826.421875 346.164062 832.570312 341.867188 839.21875 338.414062 C 850.796875 332.445312 863.941406 329.0625 877.886719 329.0625 C 884.144531 329.0625 890.25 329.734375 896.136719 331.035156 C 903.328125 332.621094 910.191406 335.136719 916.558594 338.414062 C 943.648438 352.433594 962.15625 380.691406 962.15625 413.246094 Z M 962.15625 413.246094 "/>
<path style=" stroke:none;fill-rule:nonzero;fill:rgb(90.589905%,19.999695%,23.139954%);fill-opacity:1;" d="M 751.734375 127.050781 C 751.734375 127.050781 746.5625 282.964844 917.1875 331.492188 C 917.1875 331.492188 782.777344 410.035156 858.226562 562.972656 C 858.226562 562.972656 941.042969 462.054688 1035.347656 452.570312 C 1035.347656 452.570312 1088.984375 350.070312 989.921875 170.738281 L 899.65625 115.855469 Z M 751.734375 127.050781 "/>
</g>
</svg>
