<?xml version="1.0" encoding="UTF-8"?>
<svg xmlns="http://www.w3.org/2000/svg" xmlns:xlink="http://www.w3.org/1999/xlink" width="595.5pt" height="842.249979pt" viewBox="0 0 595.5 842.249979" version="1.2">
<defs>
<clipPath id="clip1">
  <path d="M 25.890625 102 L 277 102 L 277 780 L 25.890625 780 Z M 25.890625 102 "/>
</clipPath>
<clipPath id="clip2">
  <path d="M 338 361 L 569.613281 361 L 569.613281 521 L 338 521 Z M 338 361 "/>
</clipPath>
</defs>
<g id="surface1">
<g clip-path="url(#clip1)" clip-rule="nonzero">
<path style=" stroke:none;fill-rule:nonzero;fill:rgb(100%,100%,100%);fill-opacity:1;" d="M 247.488281 460.046875 C 240.988281 466.664062 231.480469 466.242188 225.644531 458.605469 C 218.96875 449.886719 218.003906 440.082031 222.335938 429.980469 C 225.105469 423.667969 229.4375 418.917969 239.183594 418.496094 C 240.988281 419.519531 244.839844 420.78125 247.488281 423.304688 C 256.753906 432.207031 256.511719 450.96875 247.488281 459.988281 Z M 235.453125 113.019531 C 168.066406 129.554688 100.617188 145.972656 33.109375 162.265625 C 27.273438 163.710938 26.972656 167.136719 26.972656 171.828125 C 26.851562 242.246094 26.730469 312.722656 26.492188 383.136719 C 26.3125 485.183594 26.070312 587.289062 25.890625 689.277344 C 25.890625 695.410156 27.273438 698.417969 33.53125 700.519531 C 109.644531 726.078125 185.632812 751.753906 261.566406 777.613281 C 263.613281 778.332031 265.777344 778.816406 268.847656 779.65625 C 269.085938 774.726562 269.507812 770.394531 269.566406 766.125 C 270.289062 693.0625 270.953125 619.941406 271.675781 546.820312 C 272.9375 422.703125 274.261719 298.589844 275.644531 174.472656 C 275.886719 150.421875 276.367188 126.367188 276.726562 102.3125 L 275.464844 102.3125 C 262.167969 105.863281 248.871094 109.710938 235.453125 113.019531 "/>
</g>
<path style=" stroke:none;fill-rule:nonzero;fill:rgb(100%,100%,100%);fill-opacity:1;" d="M 397.964844 180.246094 C 403.863281 180.246094 406.027344 181.628906 405.90625 187.945312 C 405.667969 228.113281 405.847656 268.34375 405.847656 308.570312 L 405.847656 322.101562 C 416.4375 322.101562 427.148438 322.28125 437.617188 321.859375 C 438.640625 321.859375 440.265625 317.773438 440.265625 315.546875 C 440.445312 290.589844 440.382812 265.636719 440.382812 240.679688 L 440.382812 153.246094 C 440.382812 149.277344 440.382812 146.152344 434.667969 146.210938 C 394.417969 146.390625 354.222656 146.332031 313.972656 146.332031 C 312.828125 146.390625 311.746094 146.511719 310.601562 146.691406 L 310.601562 180.367188 L 318.542969 180.367188 C 344.957031 180.367188 371.433594 180.546875 397.964844 180.246094 "/>
<path style=" stroke:none;fill-rule:nonzero;fill:rgb(100%,100%,100%);fill-opacity:1;" d="M 433.285156 560.050781 C 424.320312 560.410156 415.113281 560.167969 405.847656 560.167969 L 405.847656 680.4375 L 305.246094 680.4375 L 305.246094 715.195312 C 307.894531 715.375 309.339844 715.554688 311.265625 715.554688 C 351.878906 715.554688 392.429688 715.433594 433.042969 715.734375 C 439 715.734375 440.382812 713.929688 440.382812 708.277344 C 440.203125 661.253906 440.203125 614.230469 440.382812 567.265625 C 440.503906 561.671875 438.757812 559.867188 433.285156 560.050781 "/>
<g clip-path="url(#clip2)" clip-rule="nonzero">
<path style=" stroke:none;fill-rule:nonzero;fill:rgb(100%,100%,100%);fill-opacity:1;" d="M 432.742188 520.179688 L 569.863281 440.984375 L 432.742188 361.851562 L 432.742188 414.527344 L 338.761719 414.527344 L 338.761719 467.445312 L 432.742188 467.445312 L 432.742188 520.179688 "/>
</g>
</g>
</svg>
