<?xml version="1.0" encoding="UTF-8"?>
<svg xmlns="http://www.w3.org/2000/svg" xmlns:xlink="http://www.w3.org/1999/xlink" width="705pt" height="591.000005pt" viewBox="0 0 705 591.000005" version="1.2">
<defs>
<clipPath id="clip1">
  <path d="M 59.59375 59 L 666.816406 59 L 666.816406 589.851562 L 59.59375 589.851562 Z M 59.59375 59 "/>
</clipPath>
</defs>
<g id="surface1">
<g clip-path="url(#clip1)" clip-rule="nonzero">
<path style=" stroke:none;fill-rule:nonzero;fill:rgb(100%,100%,100%);fill-opacity:1;" d="M 363.207031 59 C 361.757812 59 360.308594 59.035156 358.863281 59.105469 C 357.414062 59.179688 355.96875 59.285156 354.527344 59.425781 C 353.085938 59.566406 351.648438 59.746094 350.214844 59.957031 C 348.78125 60.171875 347.351562 60.417969 345.929688 60.699219 C 344.507812 60.984375 343.097656 61.300781 341.691406 61.652344 C 340.285156 62.003906 338.886719 62.390625 337.5 62.808594 C 336.113281 63.230469 334.738281 63.683594 333.375 64.171875 C 332.007812 64.660156 330.65625 65.179688 329.320312 65.734375 C 327.980469 66.289062 326.65625 66.875 325.34375 67.496094 C 324.035156 68.113281 322.742188 68.765625 321.464844 69.445312 C 320.183594 70.128906 318.925781 70.84375 317.679688 71.585938 C 316.4375 72.332031 315.214844 73.105469 314.007812 73.910156 C 312.804688 74.714844 311.621094 75.550781 310.457031 76.410156 C 309.292969 77.273438 308.148438 78.164062 307.03125 79.082031 C 305.910156 80 304.8125 80.945312 303.738281 81.917969 C 302.664062 82.890625 301.613281 83.890625 300.589844 84.914062 C 299.566406 85.9375 298.566406 86.984375 297.59375 88.058594 C 296.621094 89.132812 295.671875 90.226562 294.753906 91.347656 C 293.835938 92.464844 292.945312 93.609375 292.082031 94.769531 C 291.21875 95.933594 290.382812 97.117188 289.578125 98.320312 C 288.773438 99.523438 287.996094 100.75 287.253906 101.988281 C 286.507812 103.230469 285.792969 104.492188 285.109375 105.769531 C 284.425781 107.046875 283.773438 108.339844 283.15625 109.648438 C 282.535156 110.957031 281.949219 112.28125 281.394531 113.617188 C 280.839844 114.957031 280.316406 116.304688 279.828125 117.667969 C 279.34375 119.03125 278.886719 120.40625 278.464844 121.792969 C 278.046875 123.179688 277.660156 124.574219 277.308594 125.976562 C 276.957031 127.382812 276.636719 128.792969 276.355469 130.214844 C 276.074219 131.636719 275.824219 133.0625 275.613281 134.492188 C 275.398438 135.925781 275.222656 137.363281 275.078125 138.804688 C 274.9375 140.246094 274.832031 141.6875 274.761719 143.132812 C 274.6875 144.582031 274.652344 146.027344 274.652344 147.476562 C 274.652344 148.921875 274.6875 150.371094 274.761719 151.816406 C 274.832031 153.261719 274.9375 154.707031 275.078125 156.148438 C 275.222656 157.589844 275.398438 159.023438 275.613281 160.457031 C 275.824219 161.890625 276.074219 163.316406 276.355469 164.734375 C 276.636719 166.15625 276.957031 167.570312 277.308594 168.972656 C 277.660156 170.378906 278.046875 171.773438 278.464844 173.160156 C 278.886719 174.542969 279.34375 175.917969 279.828125 177.28125 C 280.316406 178.644531 280.839844 179.996094 281.394531 181.332031 C 281.949219 182.671875 282.535156 183.996094 283.15625 185.304688 C 283.773438 186.613281 284.425781 187.90625 285.109375 189.183594 C 285.792969 190.460938 286.507812 191.71875 287.253906 192.960938 C 287.996094 194.203125 288.773438 195.425781 289.578125 196.628906 C 290.382812 197.832031 291.21875 199.015625 292.082031 200.179688 C 292.945312 201.34375 293.835938 202.484375 294.753906 203.605469 C 295.671875 204.722656 296.621094 205.820312 297.59375 206.890625 C 298.566406 207.964844 299.566406 209.011719 300.589844 210.035156 C 301.613281 211.0625 302.664062 212.058594 303.738281 213.03125 C 304.8125 214.003906 305.910156 214.949219 307.027344 215.867188 C 308.148438 216.785156 309.292969 217.675781 310.457031 218.539062 C 311.621094 219.402344 312.804688 220.234375 314.007812 221.039062 C 315.214844 221.84375 316.4375 222.617188 317.679688 223.363281 C 318.925781 224.109375 320.183594 224.820312 321.464844 225.503906 C 322.742188 226.1875 324.035156 226.835938 325.34375 227.457031 C 326.65625 228.074219 327.980469 228.660156 329.320312 229.214844 C 330.65625 229.769531 332.007812 230.292969 333.375 230.777344 C 334.738281 231.265625 336.113281 231.722656 337.5 232.140625 C 338.886719 232.5625 340.285156 232.949219 341.691406 233.300781 C 343.097656 233.652344 344.507812 233.96875 345.929688 234.25 C 347.351562 234.535156 348.78125 234.78125 350.214844 234.992188 C 351.648438 235.207031 353.085938 235.382812 354.527344 235.523438 C 355.96875 235.667969 357.414062 235.773438 358.863281 235.84375 C 360.308594 235.914062 361.757812 235.949219 363.207031 235.949219 C 364.65625 235.949219 366.105469 235.914062 367.550781 235.84375 C 369 235.773438 370.445312 235.667969 371.886719 235.523438 C 373.328125 235.382812 374.765625 235.207031 376.199219 234.992188 C 377.632812 234.78125 379.0625 234.535156 380.484375 234.25 C 381.902344 233.96875 383.316406 233.652344 384.722656 233.300781 C 386.128906 232.949219 387.527344 232.5625 388.914062 232.140625 C 390.300781 231.722656 391.675781 231.265625 393.039062 230.777344 C 394.402344 230.292969 395.753906 229.769531 397.09375 229.214844 C 398.433594 228.660156 399.757812 228.074219 401.066406 227.457031 C 402.378906 226.835938 403.671875 226.1875 404.949219 225.503906 C 406.230469 224.820312 407.488281 224.109375 408.730469 223.363281 C 409.976562 222.617188 411.199219 221.84375 412.40625 221.039062 C 413.609375 220.234375 414.792969 219.402344 415.957031 218.539062 C 417.121094 217.675781 418.265625 216.785156 419.382812 215.867188 C 420.503906 214.949219 421.601562 214.003906 422.675781 213.03125 C 423.75 212.058594 424.796875 211.0625 425.824219 210.035156 C 426.847656 209.011719 427.847656 207.964844 428.820312 206.890625 C 429.792969 205.820312 430.738281 204.722656 431.660156 203.605469 C 432.578125 202.484375 433.46875 201.34375 434.332031 200.179688 C 435.195312 199.015625 436.03125 197.832031 436.835938 196.628906 C 437.640625 195.425781 438.417969 194.203125 439.160156 192.960938 C 439.90625 191.71875 440.621094 190.460938 441.304688 189.183594 C 441.988281 187.90625 442.636719 186.613281 443.257812 185.304688 C 443.878906 183.996094 444.464844 182.671875 445.019531 181.332031 C 445.574219 179.996094 446.09375 178.644531 446.582031 177.28125 C 447.070312 175.917969 447.527344 174.542969 447.945312 173.160156 C 448.367188 171.773438 448.753906 170.378906 449.105469 168.972656 C 449.457031 167.570312 449.777344 166.15625 450.058594 164.734375 C 450.339844 163.316406 450.589844 161.890625 450.800781 160.457031 C 451.015625 159.023438 451.191406 157.589844 451.332031 156.148438 C 451.476562 154.707031 451.582031 153.261719 451.652344 151.816406 C 451.726562 150.371094 451.761719 148.921875 451.761719 147.476562 C 451.761719 146.027344 451.726562 144.582031 451.652344 143.132812 C 451.582031 141.6875 451.476562 140.246094 451.332031 138.804688 C 451.191406 137.363281 451.015625 135.925781 450.800781 134.492188 C 450.589844 133.0625 450.339844 131.636719 450.058594 130.214844 C 449.777344 128.792969 449.457031 127.382812 449.105469 125.976562 C 448.753906 124.574219 448.367188 123.179688 447.945312 121.792969 C 447.527344 120.40625 447.070312 119.03125 446.582031 117.667969 C 446.09375 116.304688 445.574219 114.957031 445.019531 113.617188 C 444.464844 112.28125 443.878906 110.957031 443.257812 109.648438 C 442.636719 108.339844 441.988281 107.046875 441.304688 105.769531 C 440.621094 104.492188 439.90625 103.230469 439.160156 101.988281 C 438.417969 100.75 437.640625 99.523438 436.835938 98.320312 C 436.03125 97.117188 435.195312 95.933594 434.332031 94.769531 C 433.46875 93.609375 432.578125 92.464844 431.660156 91.347656 C 430.738281 90.226562 429.792969 89.132812 428.820312 88.058594 C 427.847656 86.984375 426.847656 85.9375 425.824219 84.914062 C 424.796875 83.890625 423.75 82.890625 422.675781 81.917969 C 421.601562 80.945312 420.503906 80 419.382812 79.082031 C 418.265625 78.164062 417.121094 77.273438 415.957031 76.410156 C 414.792969 75.550781 413.609375 74.714844 412.40625 73.910156 C 411.199219 73.105469 409.976562 72.332031 408.730469 71.585938 C 407.488281 70.84375 406.230469 70.128906 404.949219 69.445312 C 403.671875 68.765625 402.378906 68.113281 401.066406 67.496094 C 399.757812 66.875 398.433594 66.289062 397.09375 65.734375 C 395.753906 65.179688 394.402344 64.660156 393.039062 64.171875 C 391.675781 63.683594 390.300781 63.230469 388.914062 62.808594 C 387.527344 62.390625 386.128906 62.003906 384.722656 61.652344 C 383.316406 61.300781 381.902344 60.984375 380.484375 60.699219 C 379.0625 60.417969 377.632812 60.171875 376.199219 59.957031 C 374.765625 59.746094 373.328125 59.566406 371.886719 59.425781 C 370.445312 59.285156 369 59.179688 367.550781 59.105469 C 366.105469 59.035156 364.65625 59 363.207031 59 Z M 173.449219 134.835938 C 172.414062 134.835938 171.378906 134.863281 170.347656 134.914062 C 169.3125 134.964844 168.28125 135.039062 167.25 135.140625 C 166.21875 135.242188 165.191406 135.367188 164.167969 135.519531 C 163.144531 135.671875 162.125 135.847656 161.109375 136.050781 C 160.09375 136.253906 159.085938 136.480469 158.082031 136.730469 C 157.078125 136.980469 156.078125 137.257812 155.089844 137.558594 C 154.097656 137.859375 153.117188 138.183594 152.140625 138.53125 C 151.167969 138.878906 150.199219 139.25 149.246094 139.648438 C 148.289062 140.042969 147.339844 140.460938 146.40625 140.902344 C 145.46875 141.347656 144.546875 141.8125 143.632812 142.296875 C 142.71875 142.785156 141.820312 143.296875 140.929688 143.828125 C 140.042969 144.359375 139.167969 144.914062 138.308594 145.488281 C 137.449219 146.0625 136.601562 146.65625 135.769531 147.273438 C 134.9375 147.890625 134.125 148.523438 133.324219 149.179688 C 132.523438 149.835938 131.738281 150.511719 130.972656 151.207031 C 130.207031 151.902344 129.457031 152.613281 128.722656 153.347656 C 127.992188 154.078125 127.277344 154.828125 126.582031 155.59375 C 125.886719 156.359375 125.210938 157.140625 124.554688 157.941406 C 123.898438 158.742188 123.261719 159.554688 122.644531 160.386719 C 122.027344 161.21875 121.433594 162.0625 120.859375 162.921875 C 120.28125 163.78125 119.730469 164.65625 119.195312 165.542969 C 118.664062 166.429688 118.152344 167.328125 117.667969 168.242188 C 117.179688 169.152344 116.714844 170.078125 116.269531 171.011719 C 115.828125 171.949219 115.410156 172.894531 115.011719 173.847656 C 114.617188 174.804688 114.242188 175.769531 113.894531 176.742188 C 113.546875 177.714844 113.222656 178.699219 112.921875 179.6875 C 112.621094 180.675781 112.34375 181.675781 112.09375 182.675781 C 111.839844 183.679688 111.613281 184.6875 111.414062 185.703125 C 111.210938 186.71875 111.035156 187.738281 110.882812 188.761719 C 110.730469 189.78125 110.605469 190.808594 110.503906 191.839844 C 110.402344 192.867188 110.324219 193.898438 110.273438 194.933594 C 110.222656 195.964844 110.199219 197 110.199219 198.03125 C 110.199219 199.066406 110.222656 200.101562 110.273438 201.132812 C 110.324219 202.167969 110.402344 203.199219 110.503906 204.226562 C 110.605469 205.257812 110.730469 206.28125 110.882812 207.304688 C 111.035156 208.328125 111.210938 209.347656 111.414062 210.363281 C 111.613281 211.375 111.839844 212.386719 112.09375 213.386719 C 112.34375 214.390625 112.621094 215.386719 112.921875 216.378906 C 113.222656 217.367188 113.546875 218.347656 113.894531 219.324219 C 114.242188 220.296875 114.617188 221.261719 115.011719 222.21875 C 115.410156 223.171875 115.828125 224.117188 116.269531 225.054688 C 116.714844 225.988281 117.179688 226.910156 117.667969 227.824219 C 118.152344 228.734375 118.664062 229.636719 119.195312 230.523438 C 119.730469 231.410156 120.28125 232.28125 120.859375 233.144531 C 121.433594 234.003906 122.027344 234.847656 122.644531 235.679688 C 123.261719 236.507812 123.898438 237.324219 124.554688 238.125 C 125.210938 238.921875 125.886719 239.707031 126.582031 240.472656 C 127.277344 241.238281 127.992188 241.988281 128.722656 242.71875 C 129.457031 243.449219 130.207031 244.164062 130.972656 244.859375 C 131.738281 245.554688 132.523438 246.226562 133.324219 246.882812 C 134.125 247.539062 134.9375 248.175781 135.769531 248.792969 C 136.601562 249.410156 137.449219 250.003906 138.308594 250.578125 C 139.167969 251.152344 140.042969 251.707031 140.929688 252.238281 C 141.820312 252.769531 142.71875 253.28125 143.632812 253.765625 C 144.546875 254.253906 145.46875 254.71875 146.40625 255.160156 C 147.339844 255.605469 148.289062 256.023438 149.246094 256.417969 C 150.199219 256.816406 151.167969 257.1875 152.140625 257.535156 C 153.117188 257.882812 154.097656 258.207031 155.089844 258.507812 C 156.078125 258.808594 157.078125 259.085938 158.082031 259.335938 C 159.085938 259.585938 160.09375 259.8125 161.109375 260.015625 C 162.125 260.21875 163.144531 260.394531 164.167969 260.546875 C 165.191406 260.695312 166.21875 260.824219 167.25 260.925781 C 168.28125 261.027344 169.3125 261.101562 170.347656 261.152344 C 171.378906 261.203125 172.414062 261.230469 173.449219 261.230469 C 174.484375 261.230469 175.519531 261.203125 176.554688 261.152344 C 177.585938 261.101562 178.621094 261.027344 179.648438 260.925781 C 180.679688 260.824219 181.707031 260.695312 182.730469 260.546875 C 183.753906 260.394531 184.773438 260.21875 185.789062 260.015625 C 186.804688 259.8125 187.816406 259.585938 188.820312 259.335938 C 189.824219 259.085938 190.820312 258.808594 191.8125 258.507812 C 192.800781 258.207031 193.785156 257.882812 194.757812 257.535156 C 195.734375 257.1875 196.699219 256.816406 197.65625 256.417969 C 198.613281 256.023438 199.558594 255.605469 200.492188 255.160156 C 201.429688 254.71875 202.355469 254.253906 203.265625 253.765625 C 204.179688 253.28125 205.082031 252.769531 205.96875 252.238281 C 206.855469 251.707031 207.730469 251.152344 208.589844 250.578125 C 209.453125 250.003906 210.296875 249.410156 211.128906 248.792969 C 211.960938 248.175781 212.777344 247.539062 213.578125 246.882812 C 214.375 246.226562 215.160156 245.554688 215.925781 244.859375 C 216.695312 244.164062 217.445312 243.449219 218.175781 242.71875 C 218.90625 241.988281 219.621094 241.238281 220.316406 240.472656 C 221.011719 239.707031 221.6875 238.921875 222.34375 238.125 C 223 237.324219 223.636719 236.507812 224.253906 235.679688 C 224.871094 234.847656 225.46875 234.003906 226.042969 233.144531 C 226.617188 232.28125 227.171875 231.410156 227.703125 230.523438 C 228.234375 229.636719 228.746094 228.734375 229.234375 227.824219 C 229.722656 226.910156 230.1875 225.988281 230.628906 225.054688 C 231.070312 224.117188 231.492188 223.171875 231.886719 222.21875 C 232.285156 221.261719 232.65625 220.296875 233.003906 219.324219 C 233.351562 218.347656 233.679688 217.367188 233.980469 216.378906 C 234.277344 215.386719 234.554688 214.390625 234.804688 213.386719 C 235.058594 212.386719 235.285156 211.375 235.488281 210.363281 C 235.6875 209.347656 235.867188 208.328125 236.015625 207.304688 C 236.167969 206.28125 236.296875 205.257812 236.398438 204.226562 C 236.5 203.199219 236.574219 202.167969 236.625 201.132812 C 236.675781 200.101562 236.703125 199.066406 236.703125 198.03125 C 236.703125 197 236.675781 195.964844 236.625 194.933594 C 236.574219 193.898438 236.5 192.867188 236.398438 191.839844 C 236.296875 190.808594 236.167969 189.78125 236.015625 188.761719 C 235.867188 187.738281 235.6875 186.71875 235.488281 185.703125 C 235.285156 184.6875 235.058594 183.679688 234.804688 182.675781 C 234.554688 181.675781 234.277344 180.675781 233.980469 179.6875 C 233.679688 178.699219 233.351562 177.714844 233.003906 176.742188 C 232.65625 175.769531 232.285156 174.804688 231.886719 173.847656 C 231.492188 172.894531 231.070312 171.949219 230.628906 171.011719 C 230.1875 170.078125 229.722656 169.152344 229.234375 168.242188 C 228.746094 167.328125 228.234375 166.429688 227.703125 165.542969 C 227.171875 164.65625 226.617188 163.78125 226.042969 162.921875 C 225.46875 162.0625 224.871094 161.21875 224.253906 160.386719 C 223.636719 159.554688 223 158.742188 222.34375 157.941406 C 221.6875 157.140625 221.011719 156.359375 220.316406 155.59375 C 219.621094 154.828125 218.90625 154.078125 218.175781 153.347656 C 217.445312 152.613281 216.695312 151.902344 215.925781 151.207031 C 215.160156 150.511719 214.375 149.835938 213.578125 149.179688 C 212.777344 148.523438 211.960938 147.890625 211.128906 147.273438 C 210.296875 146.65625 209.453125 146.0625 208.589844 145.488281 C 207.730469 144.910156 206.855469 144.359375 205.96875 143.828125 C 205.082031 143.296875 204.179688 142.785156 203.265625 142.296875 C 202.355469 141.8125 201.429688 141.347656 200.492188 140.902344 C 199.558594 140.460938 198.613281 140.042969 197.65625 139.648438 C 196.699219 139.25 195.734375 138.878906 194.757812 138.53125 C 193.785156 138.183594 192.800781 137.859375 191.8125 137.558594 C 190.820312 137.257812 189.824219 136.980469 188.820312 136.730469 C 187.816406 136.480469 186.804688 136.253906 185.789062 136.050781 C 184.773438 135.847656 183.753906 135.671875 182.730469 135.519531 C 181.707031 135.367188 180.679688 135.242188 179.648438 135.140625 C 178.621094 135.039062 177.585938 134.964844 176.554688 134.914062 C 175.519531 134.863281 174.484375 134.835938 173.449219 134.835938 Z M 363.207031 286.507812 C 304.105469 286.507812 186.101562 316.132812 186.101562 374.984375 L 186.101562 438.179688 C 186.101562 452.132812 197.433594 463.457031 211.402344 463.457031 L 365.53125 463.457031 C 377.6875 534.929688 440.152344 589.851562 515.011719 589.851562 C 598.503906 589.851562 666.816406 521.597656 666.816406 438.179688 C 666.816406 354.761719 598.503906 286.507812 515.011719 286.507812 C 492.117188 286.507812 470.4375 291.753906 450.921875 300.925781 C 419.789062 291.488281 386.8125 286.507812 363.207031 286.507812 Z M 158.230469 313.121094 C 118.230469 319.289062 59.59375 346.902344 59.59375 380.167969 L 59.59375 438.179688 C 59.59375 452.132812 70.929688 463.457031 84.898438 463.457031 L 110.199219 463.457031 C 124.164062 463.457031 135.5 452.132812 135.5 438.179688 L 135.5 374.984375 C 135.5 350.691406 144.238281 330.308594 158.230469 313.121094 Z M 515.011719 337.066406 C 570.675781 337.066406 616.214844 382.566406 616.214844 438.179688 C 616.214844 493.792969 570.675781 539.292969 515.011719 539.292969 C 459.351562 539.292969 413.808594 493.792969 413.808594 438.179688 C 413.808594 382.566406 459.351562 337.066406 515.011719 337.066406 Z M 545.15625 372.121094 C 538.304688 371.277344 531.277344 374.507812 527.613281 380.859375 L 499.695312 429.34375 C 495.644531 436.371094 496.890625 445.230469 502.707031 450.867188 L 536.953125 484.046875 C 540.394531 487.382812 544.804688 489.082031 549.257812 489.082031 C 553.886719 489.082031 558.492188 487.242188 561.957031 483.652344 C 568.761719 476.625 568.621094 465.421875 561.613281 458.621094 L 537.25 435.070312 L 558.300781 398.535156 C 563.183594 390.066406 560.253906 379.269531 551.777344 374.390625 C 549.660156 373.171875 547.441406 372.402344 545.15625 372.121094 Z M 545.15625 372.121094 "/>
</g>
</g>
</svg>
