<?xml version="1.0" encoding="UTF-8"?>
<svg xmlns="http://www.w3.org/2000/svg" xmlns:xlink="http://www.w3.org/1999/xlink" width="705pt" height="591.000005pt" viewBox="0 0 705 591.000005" version="1.2">
<defs>
<clipPath id="clip1">
  <path d="M 66 16.941406 L 638.75 16.941406 L 638.75 589.722656 L 66 589.722656 Z M 66 16.941406 "/>
</clipPath>
</defs>
<g id="surface1">
<g clip-path="url(#clip1)" clip-rule="nonzero">
<path style=" stroke:none;fill-rule:nonzero;fill:rgb(100%,100%,100%);fill-opacity:1;" d="M 116.542969 451.421875 C 86.421875 461.503906 66.175781 489.71875 66.175781 521.585938 L 66.175781 589.722656 L 638.65625 589.722656 L 638.65625 521.585938 C 638.65625 489.71875 618.410156 461.503906 588.273438 451.421875 L 586.3125 450.847656 C 552.910156 441.777344 528.398438 433.148438 513.652344 427.453125 C 461.417969 407.378906 447.804688 392.878906 444.347656 386.011719 C 439.382812 376.160156 442.078125 361.011719 451.910156 343.367188 C 456.191406 337.476562 459.929688 332.007812 463.425781 326.4375 L 465.90625 322.367188 C 476.914062 304.003906 485.789062 284.070312 492.269531 263.121094 C 500.078125 237.894531 504.484375 210.953125 505.320312 183.070312 C 506 160.234375 502.140625 138.011719 493.894531 116.996094 C 485.980469 96.902344 474.398438 78.890625 459.476562 63.429688 C 430.542969 33.574219 392.578125 17.0625 352.589844 16.941406 C 312.25 17.0625 274.285156 33.574219 245.355469 63.429688 C 230.433594 78.894531 218.851562 96.90625 210.9375 116.996094 C 202.691406 138.015625 198.828125 160.238281 199.511719 183.070312 C 200.347656 210.953125 204.753906 237.894531 212.5625 263.121094 C 219.042969 284.070312 227.917969 304.003906 238.925781 322.367188 L 241.40625 326.4375 C 244.898438 332.007812 248.636719 337.480469 252.480469 342.683594 C 262.753906 361.027344 265.445312 376.160156 260.484375 386.011719 C 257.023438 392.878906 243.414062 407.378906 191.15625 427.488281 C 176.429688 433.148438 151.917969 441.777344 118.828125 450.757812 Z M 198.464844 446.476562 C 217.734375 439.089844 233.859375 431.628906 246.402344 424.34375 C 263.140625 414.558594 273.710938 405.039062 278.671875 395.199219 C 287.007812 378.621094 284.035156 356.921875 270.128906 332.410156 C 266.042969 326.785156 262.722656 321.984375 259.59375 317.089844 L 258.632812 315.550781 C 234.382812 276.765625 221.351562 231.988281 219.882812 182.476562 C 219.269531 162.421875 222.644531 142.90625 229.875 124.492188 C 236.828125 106.863281 246.960938 91.105469 259.996094 77.632812 C 285.050781 51.742188 317.824219 37.433594 352.261719 37.347656 L 352.414062 37.347656 C 387.007812 37.433594 419.785156 51.742188 444.835938 77.632812 C 457.871094 91.105469 468.003906 106.863281 474.957031 124.492188 C 482.1875 142.90625 485.5625 162.421875 484.949219 182.476562 C 483.480469 231.957031 470.449219 276.765625 446.183594 315.570312 L 445.292969 317.019531 C 442.109375 321.984375 438.792969 326.785156 435.386719 331.382812 C 420.796875 356.925781 417.828125 378.621094 426.179688 395.203125 C 431.121094 405.039062 441.695312 414.5625 458.429688 424.34375 C 470.976562 431.632812 487.101562 439.089844 506.371094 446.480469 C 521.589844 452.332031 546.832031 461.261719 580.675781 470.433594 C 603.789062 478.261719 618.289062 498.664062 618.289062 521.585938 L 618.289062 569.335938 L 86.546875 569.335938 L 86.546875 521.585938 C 86.546875 498.667969 101.046875 478.261719 122.675781 470.851562 C 158 461.261719 183.246094 452.332031 198.464844 446.476562 Z M 198.464844 446.476562 "/>
</g>
</g>
</svg>
