<?xml version="1.0" encoding="UTF-8"?>
<svg xmlns="http://www.w3.org/2000/svg" xmlns:xlink="http://www.w3.org/1999/xlink" width="1440pt" height="809.999993pt" viewBox="0 0 1440 809.999993" version="1.2">
<defs>
<clipPath id="clip1">
  <path d="M 665 203 L 1138.671875 203 L 1138.671875 393 L 665 393 Z M 665 203 "/>
</clipPath>
<clipPath id="clip2">
  <path d="M 361 82 L 1036.835938 82 L 1036.835938 773.992188 L 361 773.992188 Z M 361 82 "/>
</clipPath>
</defs>
<g id="surface1">
<path style=" stroke:none;fill-rule:nonzero;fill:rgb(96.469116%,83.139038%,82.348633%);fill-opacity:1;" d="M 697.277344 617.765625 L 715.980469 750.285156 C 718.027344 752.054688 721.132812 754.410156 724.960938 757.058594 C 738.507812 766.042969 756.027344 772.960938 757.941406 769.871094 C 759.121094 768.101562 755 763.683594 751.757812 760.296875 C 746.164062 754.113281 740.113281 750.875 736.296875 749.253906 C 738.066406 704.050781 739.980469 658.992188 741.746094 613.789062 C 735.269531 614.230469 728.789062 614.820312 722.308594 615.40625 C 713.917969 616.144531 705.511719 616.878906 697.277344 617.765625 Z M 630.28125 588.316406 C 603.910156 625.125 577.570312 661.9375 551.214844 698.75 C 552.6875 702.285156 554.746094 707.585938 557.101562 713.914062 C 563.289062 731.585938 564.757812 741.007812 566.230469 740.863281 C 567.558594 740.714844 568.734375 733.648438 568.441406 702.726562 C 604.957031 670.035156 641.457031 637.347656 677.988281 604.660156 C 672.835938 605.246094 662.675781 605.835938 650.898438 601.417969 C 640.722656 597.886719 633.964844 591.996094 630.28125 588.316406 Z M 997.949219 718.480469 C 1000.160156 720.246094 1005.460938 725.105469 1007.667969 733.351562 C 1011.039062 746.015625 1004.28125 756.324219 1003.25 757.941406 C 1012.511719 745.722656 1021.953125 733.351562 1031.226562 721.132812 L 1014.292969 702.429688 Z M 885.882812 730.996094 C 886.046875 738.359375 886.191406 745.867188 886.339844 753.230469 C 873.367188 759.121094 860.425781 764.863281 847.46875 770.753906 C 851.886719 766.777344 858.070312 760.152344 863.0625 750.582031 C 866.902344 743.070312 868.671875 736.296875 869.6875 731.144531 L 885.882812 730.996094 "/>
<path style=" stroke:none;fill-rule:nonzero;fill:rgb(23.139954%,33.729553%,44.709778%);fill-opacity:1;" d="M 483.175781 63.230469 L 480.382812 43.796875 C 473.757812 42.910156 461.976562 42.175781 448.875 47.035156 C 423.402344 56.460938 412.945312 79.136719 410.734375 83.996094 C 409.707031 84.289062 391.007812 89.441406 389.679688 100.191406 C 388.503906 109.90625 402.34375 118.890625 412.207031 125.367188 C 415.890625 127.726562 420.75 130.820312 427.527344 133.171875 C 444.15625 138.769531 459.324219 135.675781 466.980469 133.324219 C 468.015625 131.703125 469.191406 129.347656 469.925781 126.253906 C 471.398438 120.070312 469.78125 114.917969 468.898438 112.707031 C 473.757812 96.21875 478.46875 79.722656 483.175781 63.230469 Z M 573.300781 345.0625 L 694.777344 319 L 673.574219 450.046875 L 673.574219 594.792969 L 647.953125 594.792969 C 642.796875 568.433594 635.878906 548.410156 630.414062 534.714844 C 626 523.820312 618.210938 506.148438 615.851562 483.914062 C 615.558594 480.96875 614.953125 474.933594 614.675781 467.570312 C 613.9375 454.023438 614.378906 442.832031 614.675781 434.882812 L 600.6875 470.515625 L 622.921875 579.183594 C 621.890625 579.332031 621.007812 579.625 619.976562 579.773438 C 621.449219 584.777344 623.054688 589.933594 624.527344 594.9375 C 612.464844 600.976562 600.390625 607.011719 588.449219 613.050781 C 587.433594 612.460938 586.109375 611.578125 585.507812 610.105469 C 584.34375 606.867188 588.320312 603.183594 592 598.472656 C 594.503906 595.234375 597.742188 590.375 600.6875 583.894531 C 604.074219 583.160156 607.59375 582.421875 610.992188 581.6875 C 612.910156 581.246094 614.675781 580.949219 616.589844 580.507812 C 610.257812 581.835938 604.074219 583.160156 597.742188 584.484375 C 584.195312 551.207031 574.773438 528.238281 569.175781 514.394531 C 560.785156 494.074219 556.957031 484.945312 555.1875 470.664062 C 553.273438 455.496094 554.746094 444.011719 559.3125 418.097656 C 562.683594 398.070312 567.261719 373.480469 573.300781 345.0625 "/>
<path style=" stroke:none;fill-rule:nonzero;fill:rgb(100%,89.019775%,99.609375%);fill-opacity:1;" d="M 406.175781 466.984375 C 395.132812 465.804688 385.5625 463.007812 377.753906 460.0625 C 378.933594 468.601562 379.964844 477.144531 381.144531 485.683594 C 377.3125 496.875 373.632812 509.980469 371.273438 524.851562 C 366.417969 555.035156 368.183594 581.097656 371.273438 600.242188 L 387.621094 600.242188 C 391.148438 578.890625 395.132812 561.808594 398.078125 550.03125 C 402.785156 531.476562 406.316406 521.316406 409.707031 502.765625 C 412.5 488.039062 413.679688 475.816406 414.417969 467.71875 C 411.765625 467.425781 409.121094 467.277344 406.175781 466.984375 Z M 455.9375 458.148438 C 445.929688 458.738281 437.976562 461.386719 432.820312 463.597656 C 433.851562 470.515625 435.03125 477.585938 436.058594 484.503906 C 431.347656 496.875 426.640625 511.304688 423.109375 527.648438 C 417.066406 555.773438 416.332031 580.65625 417.21875 600.09375 L 432.378906 600.09375 C 440.628906 573.882812 449.019531 553.417969 455.351562 539.132812 C 461.828125 524.558594 468.160156 511.894531 472.132812 492.605469 C 474.785156 479.058594 475.230469 467.574219 475.230469 459.769531 C 470.519531 458.738281 463.894531 457.707031 455.9375 458.148438 Z M 451.820312 136.121094 C 457.851562 135.675781 463.15625 134.648438 467.132812 133.324219 C 469.488281 134.355469 471.992188 135.238281 474.34375 136.269531 C 477.882812 138.328125 482.589844 141.71875 486.859375 146.871094 C 497.027344 159.535156 496.421875 173.667969 497.320312 197.082031 C 497.761719 209.007812 498.632812 226.238281 500.839844 247.292969 L 545.75 164.980469 C 551.640625 149.371094 555.320312 141.867188 556.792969 142.160156 C 557.839844 142.453125 557.839844 146.28125 556.792969 153.789062 C 575.359375 139.359375 579.191406 139.949219 580.21875 140.980469 C 582.722656 143.339844 577.40625 154.675781 569.765625 162.035156 C 563.140625 168.371094 555.628906 170.871094 551.066406 171.902344 C 551.066406 171.902344 526.476562 243.757812 511.605469 277.035156 C 496.734375 310.3125 483.175781 288.667969 483.175781 288.667969 C 447.695312 289.40625 412.066406 290.289062 376.574219 291.023438 C 378.632812 268.789062 379.964844 251.414062 380.699219 240.8125 C 383.789062 196.933594 383.9375 175.582031 398.8125 154.382812 C 402.050781 149.816406 405.136719 146.425781 407.054688 144.511719 C 413.972656 140.6875 420.898438 136.855469 427.820312 133.03125 C 433.113281 134.941406 441.511719 136.710938 451.820312 136.121094 "/>
<path style=" stroke:none;fill-rule:nonzero;fill:rgb(36.859131%,13.328552%,49.798584%);fill-opacity:1;" d="M 648.542969 104.902344 C 652.664062 100.929688 659.863281 93.125 663.707031 80.902344 C 665.621094 75.011719 667.683594 68.09375 665.472656 60.433594 C 661.792969 47.769531 647.953125 40.410156 637.496094 38.199219 C 626.453125 35.992188 625.128906 40.851562 600.6875 43.503906 C 581.824219 45.417969 573.445312 44.238281 571.519531 48.800781 C 570.503906 51.308594 571.089844 55.871094 580.957031 65.296875 C 586.242188 67.941406 591.558594 70.59375 596.859375 73.394531 Z M 791.808594 582.71875 C 789.304688 585.515625 786.949219 588.019531 784.59375 590.230469 C 770.902344 603.332031 758.238281 609.078125 749.257812 611.875 C 738.359375 615.261719 736.296875 613.347656 697.277344 617.765625 C 669.300781 620.855469 669.007812 622.035156 662.808594 620.707031 C 643.386719 616.585938 640.722656 604.363281 619.679688 600.242188 C 607.753906 598.03125 605.546875 601.273438 591.707031 600.242188 C 578.453125 599.359375 563.289062 595.089844 546.796875 584.484375 C 559.738281 554.300781 576.246094 521.023438 597.449219 486.417969 C 600.964844 480.675781 604.648438 474.789062 608.492188 468.898438 C 613.203125 461.683594 618.0625 454.46875 623.214844 447.253906 C 637.351562 427.226562 651.632812 409.117188 665.621094 392.769531 L 740.421875 390.414062 C 756.472656 450.195312 772.503906 509.980469 788.421875 569.761719 C 789.4375 574.03125 790.632812 578.449219 791.808594 582.71875 Z M 914.023438 451.226562 C 905.480469 461.976562 896.792969 474.34375 888.828125 488.777344 C 860.851562 539.132812 854.960938 588.316406 854.226562 620.121094 C 858.214844 656.488281 862.042969 692.859375 866.003906 729.375 C 867.640625 730.40625 869.996094 731.585938 873.089844 732.320312 C 881.039062 734.089844 887.519531 730.554688 889.433594 729.375 C 897.664062 679.3125 905.761719 629.394531 914.023438 579.332031 L 927.421875 634.84375 L 992.796875 719.511719 C 994.84375 719.363281 1001.925781 718.773438 1007.964844 713.03125 C 1012.085938 709.203125 1013.707031 704.785156 1014.441406 702.578125 C 1011.203125 693.007812 1005.605469 678.136719 996.183594 661.203125 C 984.257812 639.851562 978.515625 637.054688 975.863281 625.421875 C 971.445312 605.542969 982.488281 590.523438 996.921875 563.871094 C 1005.753906 547.378906 1016.929688 522.496094 1024.292969 488.1875 C 1017.828125 472.429688 1011.496094 456.824219 1005.019531 441.066406 C 993.535156 445.339844 977.777344 449.902344 958.636719 451.816406 C 940.96875 453.730469 925.640625 452.847656 914.023438 451.226562 Z M 416.175781 139.507812 C 412.796875 154.378906 413.53125 166.453125 414.5625 174.109375 C 415.882812 183.972656 417.355469 193.695312 425.011719 198.40625 C 429.429688 201.054688 434.730469 201.203125 436.496094 201.351562 C 437.234375 201.351562 444.886719 201.496094 450.777344 197.816406 C 456.523438 194.136719 458.875 187.804688 462.414062 167.484375 C 464.03125 158.5 465.804688 146.871094 467.273438 133.46875 C 471.097656 135.382812 474.929688 137.296875 478.753906 139.210938 C 477.28125 210.332031 481.554688 267.464844 485.679688 306.484375 C 491.421875 360.523438 504.679688 452.554688 483.171875 460.0625 C 476.546875 462.417969 469.777344 455.644531 451.816406 458.886719 C 446.066406 459.914062 444.746094 460.945312 428.398438 464.773438 C 416.476562 467.574219 413.53125 467.867188 410.285156 467.71875 C 408.378906 467.71875 406.167969 467.425781 391 463.597656 C 377.75 460.210938 377.890625 460.0625 374.65625 459.472656 C 361.550781 457.414062 354.925781 461.09375 351.832031 460.0625 C 343.589844 457.265625 345.207031 416.773438 380.988281 266.726562 L 406.753906 144.660156 L 416.175781 139.507812 "/>
<path style=" stroke:none;fill-rule:nonzero;fill:rgb(97.24884%,70.979309%,0%);fill-opacity:1;" d="M 593.765625 151.285156 C 601.863281 141.566406 610.539062 134.351562 618.355469 129.050781 C 629.546875 128.90625 640.722656 128.90625 652.074219 128.90625 C 657.523438 131.996094 667.683594 138.769531 676.0625 151.136719 C 684.894531 164.246094 687.105469 176.90625 687.707031 183.238281 C 691.390625 227.855469 695.070312 272.324219 698.75 316.9375 L 677.105469 328.570312 L 647.347656 382.90625 L 622.773438 372.449219 L 641.03125 339.171875 C 614.824219 341.527344 588.449219 343.886719 562.257812 346.242188 C 560.34375 300.890625 563.140625 263.046875 566.363281 235.363281 C 571.386719 192.222656 578.144531 170.277344 593.765625 151.285156 "/>
<path style=" stroke:none;fill-rule:nonzero;fill:rgb(100%,89.019775%,99.609375%);fill-opacity:1;" d="M 626.308594 373.777344 C 618.796875 381.136719 615.558594 385.703125 616.738281 387.46875 C 617.472656 388.648438 620.109375 388.648438 624.6875 387.46875 C 613.792969 404.992188 614.21875 408.378906 615.265625 409.261719 C 617.472656 411.175781 627.191406 403.960938 633.226562 397.925781 C 639.25 391.886719 642.796875 385.851562 644.859375 381.582031 C 638.515625 379.078125 632.34375 376.425781 626.308594 373.777344 Z M 600.6875 66.324219 C 598.183594 70.007812 594.648438 76.191406 593.605469 84.4375 C 592.292969 95.480469 595.386719 112.265625 606.429688 116.535156 C 610.699219 118.15625 614.953125 117.570312 618.0625 116.535156 L 618.0625 128.757812 C 620.417969 130.378906 625.570312 133.617188 632.933594 134.058594 C 642.652344 134.796875 649.71875 130.230469 651.929688 128.757812 C 652.074219 122.128906 651.339844 116.535156 650.457031 112.707031 C 649.867188 110.207031 649.277344 107.554688 648.394531 104.753906 C 647.070312 100.488281 645.300781 96.804688 643.667969 93.710938 C 645.742188 89.148438 644.402344 83.847656 640.722656 80.902344 C 637.496094 78.25 632.933594 77.8125 629.105469 79.722656 C 628.207031 77.664062 625.71875 72.359375 619.828125 68.679688 C 611.273438 63.378906 602.160156 65.882812 600.6875 66.324219 Z M 480.96875 55.871094 C 482.441406 60.285156 484.214844 66.769531 485.09375 74.566406 C 485.980469 83.109375 488.1875 104.609375 477.289062 110.941406 C 475.523438 111.972656 472.433594 113.152344 467.71875 112.558594 C 466.101562 113.886719 464.480469 115.210938 462.863281 116.535156 C 463.742188 114.769531 464.628906 112.117188 465.074219 108.734375 C 465.660156 103.136719 463.894531 98.71875 462.863281 96.65625 C 464.773438 95.039062 468.308594 91.652344 470.519531 86.203125 C 473.171875 79.429688 472.433594 73.539062 471.992188 71.039062 C 473.171875 70.449219 474.492188 69.566406 475.816406 68.242188 C 480.382812 63.824219 480.828125 57.933594 480.96875 55.871094 "/>
<path style=" stroke:none;fill-rule:nonzero;fill:rgb(23.139954%,33.729553%,44.709778%);fill-opacity:1;" d="M 686.089844 240.960938 C 674.457031 237.867188 665.621094 228.738281 663.265625 217.253906 C 660.761719 204.589844 666.492188 191.484375 677.84375 184.566406 C 666.945312 185.59375 657.65625 178.820312 656.183594 170.578125 C 654.710938 161.445312 662.972656 154.082031 668.417969 151.136719 C 669.597656 150.550781 679.460938 145.398438 689.035156 150.699219 C 696.984375 155.117188 701.253906 164.6875 699.488281 174.695312 C 707.71875 169.398438 717.894531 169.25 725.550781 174.109375 C 733.484375 179.261719 735.269531 187.949219 735.5625 189.570312 C 730.410156 204.296875 725.109375 218.871094 719.953125 233.597656 Z M 1053.609375 430.90625 C 1053.609375 429.433594 1051.53125 421.632812 1047.425781 406.023438 C 1046.097656 401.3125 1042.417969 387.175781 1032.257812 354.191406 C 1022.6875 323.269531 1021.214844 320.03125 1017.535156 316.054688 C 1006.195312 303.835938 989.691406 301.035156 979.382812 300.449219 C 974.539062 301.625 968.945312 302.804688 962.613281 303.390625 C 955.25 304.128906 948.625 303.980469 943.175781 303.539062 C 939.496094 271.144531 935.8125 238.898438 932.132812 206.503906 C 933.605469 182.945312 934.046875 157.46875 933 130.230469 C 932.425781 115.652344 931.527344 101.664062 930.21875 88.121094 C 926.683594 87.382812 922.265625 86.648438 916.964844 86.5 C 911.371094 86.5 906.660156 87.234375 902.976562 88.121094 C 900.035156 122.574219 898.265625 160.121094 898.265625 200.171875 C 898.398438 247.144531 901.0625 290.433594 905.335938 329.75 C 906.953125 356.84375 905.628906 378.78125 903.714844 394.390625 C 901.652344 411.765625 899.445312 420.011719 904.890625 426.34375 C 909.75 431.9375 918.585938 433.410156 960.109375 427.964844 C 978.367188 425.605469 993.535156 422.957031 1004.871094 420.894531 L 1004.871094 407.203125 L 1019.300781 430.613281 L 971.742188 525.144531 L 985.730469 534.128906 C 991.898438 527.058594 1000.304688 517.34375 1009.878906 505.710938 C 1049.925781 457.265625 1054.050781 443.277344 1053.609375 430.90625 "/>
<path style=" stroke:none;fill-rule:nonzero;fill:rgb(96.469116%,83.139038%,82.348633%);fill-opacity:1;" d="M 976.011719 528.089844 C 973.066406 530.003906 967.765625 533.980469 963.789062 541.046875 C 961.140625 545.90625 959.960938 550.472656 959.503906 553.5625 C 958.769531 556.363281 959.078125 557.246094 959.503906 557.394531 C 961.140625 558.277344 966 549.148438 975.703125 541.195312 C 979.691406 537.957031 983.375 535.746094 986.007812 534.421875 C 982.636719 532.359375 979.25 530.300781 976.011719 528.089844 Z M 907.394531 87.527344 C 904.007812 83.847656 899.445312 78.25 895.175781 70.746094 C 890.300781 62.203125 883.675781 47.628906 886.488281 45.5625 C 888.253906 44.382812 894.292969 47.628906 914.023438 68.980469 C 915.496094 62.351562 916.804688 58.964844 917.996094 59.109375 C 919.910156 59.257812 921.222656 68.535156 922.121094 86.941406 C 917.261719 87.085938 912.253906 87.234375 907.394531 87.527344 "/>
<g clip-path="url(#clip1)" clip-rule="nonzero">
<path style=" stroke:none;fill-rule:nonzero;fill:rgb(97.24884%,70.979309%,0%);fill-opacity:1;" d="M 935.371094 266.433594 C 950.097656 273.796875 964.660156 281.15625 979.382812 288.519531 C 995.449219 291.761719 1008.257812 290.875 1017.976562 288.960938 C 1031.375 286.3125 1034.46875 282.484375 1045.644531 281.894531 C 1063.179688 281.15625 1067.730469 289.992188 1082.320312 291.613281 C 1110.886719 294.703125 1141.808594 265.84375 1138.40625 254.210938 C 1137.242188 250.238281 1131.941406 248.46875 1121.339844 244.933594 C 1109.265625 240.960938 1098.652344 240.371094 1091.746094 240.664062 C 1077.902344 226.382812 1065.386719 221.816406 1056.6875 220.050781 C 1035.941406 215.929688 1023.71875 225.941406 1001.042969 221.230469 C 987.9375 218.429688 978.21875 212.246094 972.332031 207.828125 C 969.238281 206.503906 949.199219 197.964844 929.777344 208.125 C 921.957031 212.246094 917.113281 217.84375 914.316406 221.816406 L 916.523438 236.246094 Z M 665.472656 392.769531 C 666.652344 367.148438 667.832031 341.675781 669.007812 316.054688 C 682.261719 311.492188 698.308594 307.222656 716.863281 304.128906 C 734.679688 301.332031 750.726562 300.300781 764.40625 300.449219 C 764.273438 313.40625 762.800781 331.074219 757.046875 351.101562 C 752.347656 367.296875 746 380.550781 740.421875 390.414062 L 665.472656 392.769531 "/>
</g>
<path style=" stroke:none;fill-rule:nonzero;fill:rgb(96.469116%,83.139038%,82.348633%);fill-opacity:1;" d="M 846.863281 245.671875 C 844.816406 255.980469 841.136719 264.078125 838.339844 269.378906 C 836.558594 282.335938 833.773438 300.742188 829.796875 323.125 C 821.699219 369.0625 817.578125 380.109375 809.183594 382.757812 C 800.054688 385.703125 789.160156 377.164062 780.324219 370.242188 C 768.398438 360.964844 762.066406 350.214844 758.972656 343.738281 C 760.726562 329.308594 762.65625 314.878906 764.40625 300.59375 L 669.007812 316.054688 L 667.386719 392.769531 C 686.089844 377.605469 704.773438 362.4375 723.488281 347.273438 C 731.882812 330.925781 737.035156 323.125 739.097656 323.859375 C 740.113281 324.300781 740.273438 327.246094 739.539062 332.839844 C 755.144531 316.792969 758.386719 316.9375 759.414062 317.675781 C 761.917969 319.441406 757.648438 331.664062 750.140625 340.203125 C 743.058594 348.15625 734.53125 351.542969 729.523438 353.015625 C 726.433594 360.230469 721.28125 370.390625 713.179688 381.433594 C 703.167969 394.832031 689.179688 408.671875 675.929688 417.65625 C 669.890625 421.777344 664.148438 424.871094 658.847656 426.636719 C 652.664062 428.699219 647.214844 428.847656 643.242188 426.492188 C 637.941406 423.398438 636.613281 416.035156 633.816406 401.3125 C 631.886719 391.296875 631.019531 379.371094 633.359375 357.726562 C 634.699219 345.210938 637.351562 328.128906 642.652344 308.25 C 648.394531 300.449219 655.316406 291.761719 663.707031 282.925781 C 671.363281 274.828125 678.875 268.054688 685.941406 262.3125 C 686.089844 255.242188 686.234375 248.027344 686.367188 240.960938 L 692.566406 232.417969 C 690.785156 228.589844 691.832031 224.027344 694.921875 221.523438 C 697.410156 219.460938 701.09375 219.019531 704.199219 220.34375 C 707.878906 218.136719 711.855469 215.484375 715.816406 212.246094 C 725.253906 204.589844 731.585938 196.34375 735.695312 189.71875 C 737.476562 195.3125 739.683594 203.707031 739.980469 213.867188 C 740.421875 225.644531 740.847656 238.898438 732.617188 244.640625 C 730.851562 245.820312 725.84375 248.765625 716.273438 246.554688 C 715.390625 248.027344 713.769531 251.414062 713.917969 255.832031 C 714.066406 258.777344 714.800781 260.984375 715.539062 262.457031 C 724.8125 264.078125 734.222656 265.695312 743.511719 267.167969 C 747.195312 267.757812 750.875 268.347656 754.558594 269.082031 C 757.941406 273.058594 761.328125 277.183594 764.714844 281.601562 C 781.339844 303.390625 792.988281 325.183594 801.21875 345.0625 C 809.773438 319.148438 818.3125 293.230469 826.984375 267.316406 C 827.882812 262.753906 829.0625 255.980469 829.355469 247.734375 C 829.796875 236.542969 828.621094 228.445312 829.796875 228.296875 C 830.386719 228.148438 831.402344 230.0625 834.066406 239.191406 C 841.429688 218.578125 844.816406 214.75 846.585938 215.042969 C 849.382812 215.484375 849.675781 231.976562 846.863281 245.671875 Z M 1005.019531 421.191406 C 987.644531 425.164062 967.765625 428.40625 945.972656 430.023438 C 934.78125 430.90625 924.167969 431.203125 914.023438 431.203125 C 914.90625 433.558594 916.230469 437.828125 915.9375 443.128906 C 915.640625 446.515625 914.90625 449.3125 914.023438 451.375 C 925.640625 452.996094 940.96875 454.027344 958.636719 452.113281 C 977.632812 450.195312 993.371094 445.632812 1005.019531 441.363281 C 1004.28125 439.007812 1003.546875 435.621094 1003.398438 431.496094 C 1003.398438 427.078125 1004.28125 423.546875 1005.019531 421.191406 Z M 965.558594 278.214844 C 954.808594 267.757812 950.539062 255.832031 948.625 249.351562 C 946.253906 249.648438 937.875 250.234375 929.628906 244.640625 C 921.382812 239.046875 918.585938 231.09375 917.996094 228.886719 C 916.523438 233.890625 915.050781 240.371094 914.464844 248.175781 C 913.726562 258.1875 912.253906 279.390625 923.296875 286.753906 C 927.113281 289.402344 929.925781 288.519531 934.929688 292.644531 C 939.347656 296.175781 941.703125 300.59375 943.027344 303.6875 C 947.886719 304.128906 953.617188 304.128906 959.960938 303.6875 C 967.324219 303.097656 973.804688 301.917969 979.25 300.59375 L 979.25 288.519531 C 975.273438 286.164062 970.417969 282.925781 965.558594 278.214844 "/>
<path style=" stroke:none;fill-rule:nonzero;fill:rgb(97.24884%,70.979309%,0%);fill-opacity:1;" d="M 727.757812 405.875 C 721.867188 405.875 717.15625 410.734375 717.15625 416.625 C 717.15625 422.515625 721.867188 427.226562 727.757812 427.226562 C 733.648438 427.226562 738.359375 422.515625 738.359375 416.625 C 738.359375 410.734375 733.648438 405.875 727.757812 405.875 Z M 705.671875 573.441406 C 699.78125 573.441406 695.070312 578.15625 695.070312 584.042969 C 695.070312 589.933594 699.78125 594.792969 705.671875 594.792969 C 711.5625 594.792969 716.421875 589.933594 716.421875 584.042969 C 716.421875 578.15625 711.5625 573.441406 705.671875 573.441406 Z M 588.023438 569.023438 C 582.132812 569.023438 577.40625 573.882812 577.40625 579.773438 C 577.40625 585.664062 582.132812 590.375 588.023438 590.375 C 593.914062 590.375 598.757812 585.664062 598.757812 579.773438 C 598.757812 573.882812 593.914062 569.023438 588.023438 569.023438 Z M 727.757812 468.308594 C 721.867188 468.308594 717.15625 473.019531 717.15625 478.910156 C 717.15625 484.800781 721.867188 489.660156 727.757812 489.660156 C 733.648438 489.660156 738.359375 484.800781 738.359375 478.910156 C 738.359375 473.019531 733.648438 468.308594 727.757812 468.308594 Z M 788.421875 569.761719 C 787.230469 569.320312 785.917969 569.023438 784.59375 569.023438 C 778.703125 569.023438 773.976562 573.882812 773.976562 579.773438 C 773.976562 585.664062 778.703125 590.375 784.59375 590.375 L 784.742188 590.375 C 787.097656 588.019531 789.601562 585.515625 791.957031 582.867188 C 790.632812 578.449219 789.4375 574.03125 788.421875 569.761719 Z M 658.554688 516.457031 C 652.664062 516.457031 647.804688 521.171875 647.804688 527.058594 C 647.804688 532.949219 652.503906 537.808594 658.554688 537.808594 C 664.445312 537.808594 669.15625 532.949219 669.15625 527.058594 C 669.15625 521.171875 664.445312 516.457031 658.554688 516.457031 Z M 608.492188 468.898438 L 597.449219 486.417969 C 599.363281 488.335938 602.011719 489.660156 605.105469 489.660156 C 610.992188 489.660156 615.851562 484.800781 615.851562 478.910156 C 615.558594 474.199219 612.613281 470.371094 608.492188 468.898438 Z M 931.398438 147.605469 C 931.25 147.457031 931.101562 147.3125 930.953125 147.3125 L 930.792969 147.3125 C 930.660156 147.3125 930.660156 147.457031 930.511719 147.457031 C 929.320312 146.871094 926.683594 145.984375 926.375 145.984375 C 923.59375 145.546875 920.796875 145.246094 917.996094 145.101562 C 912.253906 144.660156 906.070312 143.925781 900.476562 145.398438 C 899.296875 145.691406 899.136719 147.753906 900.476562 148.046875 C 908.277344 149.371094 916.964844 148.492188 924.902344 148.929688 C 925.210938 149.078125 932.425781 150.257812 931.398438 147.605469 Z M 933.164062 136.710938 C 926.242188 133.910156 919.617188 132.144531 912.109375 132.144531 C 909.164062 132.144531 900.476562 131.703125 898.855469 134.796875 C 898.265625 135.824219 899.296875 137.445312 900.476562 137.003906 L 900.609375 137.003906 C 900.769531 137.003906 900.769531 137.003906 900.917969 136.855469 C 903.554688 135.53125 907.101562 135.238281 910.488281 135.238281 C 912.695312 135.238281 914.90625 135.382812 916.804688 135.53125 C 922.121094 135.824219 927.566406 136.5625 932.722656 138.183594 C 933.738281 138.328125 934.046875 137.003906 933.164062 136.710938 Z M 930.660156 121.984375 C 921.679688 119.042969 910.488281 120.65625 901.507812 122.722656 C 899.59375 123.160156 900.328125 126.105469 902.390625 125.8125 C 911.8125 124.046875 921.382812 124.632812 930.792969 123.015625 C 931.101562 122.867188 930.953125 122.128906 930.660156 121.984375 Z M 931.839844 110.351562 C 922.265625 108.140625 912.695312 107.847656 902.976562 108.585938 C 900.769531 108.734375 900.769531 112.117188 902.976562 111.972656 C 912.550781 111.234375 922.121094 111.53125 931.691406 111.972656 C 932.425781 111.972656 932.722656 110.5 931.839844 110.351562 Z M 930.21875 100.042969 C 921.382812 97.691406 911.519531 95.917969 902.535156 97.984375 C 901.0625 98.277344 901.507812 100.488281 902.816406 100.488281 C 911.960938 100.636719 920.648438 99.75 929.925781 101.222656 C 930.660156 101.371094 931.101562 100.191406 930.21875 100.042969 Z M 930.660156 87.234375 C 927.714844 84.4375 922.695312 84.289062 918.734375 84.289062 C 913.433594 84.140625 908.132812 84.730469 902.976562 86.054688 C 899.445312 86.941406 901.800781 91.945312 904.449219 90.914062 C 909.164062 90.027344 913.859375 89.148438 918.734375 89.148438 C 922.5625 89.148438 926.832031 90.027344 930.21875 88.554688 C 930.792969 88.261719 931.101562 87.675781 930.660156 87.234375 Z M 1017.09375 494.8125 C 1009.4375 491.277344 1002.367188 485.976562 995.300781 481.265625 C 993.679688 480.234375 992.0625 482.886719 993.679688 483.917969 C 998.246094 486.714844 1002.664062 489.660156 1007.226562 492.308594 C 1010.171875 494.078125 1013.117188 496.136719 1016.796875 495.992188 C 1017.386719 496.136719 1017.667969 495.105469 1017.09375 494.8125 Z M 1010.304688 504.824219 C 1003.988281 499.671875 997.789062 494.222656 991.472656 489.070312 C 989.851562 487.597656 987.347656 490.101562 988.953125 491.425781 C 995.300781 496.875 1002.074219 501.734375 1009.289062 506.152344 C 1010.023438 506.59375 1011.039062 505.414062 1010.304688 504.824219 Z M 1004.28125 512.1875 C 1001.46875 509.097656 998.390625 506.152344 995.300781 503.207031 C 992.796875 500.851562 990.292969 497.757812 987.054688 496.578125 C 986.171875 496.285156 985.582031 497.316406 985.875 498.050781 C 987.480469 501.292969 991.472656 503.792969 994.269531 506.152344 C 997.214844 508.652344 1000.304688 511.15625 1003.398438 513.367188 C 1004.136719 513.808594 1004.722656 512.777344 1004.28125 512.1875 Z M 998.390625 519.402344 C 996.476562 517.195312 993.535156 515.722656 991.03125 514.101562 C 988.21875 512.335938 985.273438 510.566406 982.328125 508.949219 C 980.855469 508.210938 979.691406 510.273438 981.019531 511.15625 L 989.851562 516.015625 C 992.503906 517.488281 995.003906 519.550781 997.789062 520.433594 C 998.523438 520.433594 998.835938 519.84375 998.390625 519.402344 Z M 992.796875 524.703125 C 987.203125 521.90625 981.460938 519.550781 975.570312 517.195312 C 974.230469 516.605469 973.65625 518.960938 974.964844 519.402344 C 980.722656 521.464844 986.320312 523.671875 991.898438 526.175781 C 992.945312 526.617188 993.828125 525.144531 992.796875 524.703125 Z M 985.875 533.390625 C 984.699219 531.476562 982.328125 530.152344 980.429688 529.121094 C 978.21875 527.796875 975.703125 526.914062 973.65625 525.441406 C 971.285156 523.671875 968.796875 527.796875 971.285156 529.5625 C 973.359375 530.886719 976.011719 531.917969 978.367188 532.949219 C 980.429688 533.832031 982.933594 535.160156 985.140625 535.011719 C 985.730469 534.714844 986.320312 533.980469 985.875 533.390625 Z M 1003.839844 418.539062 C 996.921875 420.601562 990.734375 423.105469 983.667969 424.28125 C 974.832031 425.753906 965.851562 426.636719 956.871094 427.375 C 948.917969 428.109375 941.101562 428.550781 933.164062 428.699219 C 926.539062 428.847656 919.324219 427.816406 913.285156 430.464844 C 912.84375 430.613281 912.84375 431.496094 913.285156 431.792969 C 919.617188 434.882812 927.714844 433.851562 934.636719 433.851562 C 943.46875 433.707031 952.304688 433.265625 961.140625 432.527344 C 975.703125 431.347656 993.089844 430.761719 1005.753906 422.660156 C 1007.667969 421.484375 1006.34375 417.804688 1003.839844 418.539062 Z M 978.21875 300.152344 C 966.867188 300.742188 955.984375 305.601562 944.5 302.066406 C 943.027344 301.625 942.292969 303.6875 943.46875 304.570312 C 952.011719 310.605469 970.269531 308.691406 979.25 304.128906 C 981.164062 303.097656 980.28125 300.003906 978.21875 300.152344 Z M 925.359375 300.742188 C 923.003906 304.128906 920.648438 307.367188 918.277344 310.605469 C 915.9375 313.847656 912.992188 316.9375 911.078125 320.324219 C 910.339844 321.652344 912.109375 322.976562 913.125 321.945312 C 918.878906 316.644531 923.152344 308.398438 926.980469 301.625 C 927.566406 300.59375 925.949219 299.710938 925.359375 300.742188 Z M 1006.050781 405.433594 C 1001.191406 385.996094 998.980469 366.414062 995.890625 346.683594 C 995.742188 345.945312 994.417969 346.09375 994.5625 346.828125 C 995.300781 357.726562 996.316406 368.621094 997.214844 379.519531 C 998.097656 388.648438 998.6875 398.511719 1003.398438 406.464844 C 1004.28125 407.9375 1006.492188 407.054688 1006.050781 405.433594 Z M 675.78125 417.65625 C 669.746094 421.777344 664 424.871094 658.699219 426.636719 C 658.996094 432.234375 663.546875 436.796875 669.300781 436.796875 C 675.191406 436.796875 679.902344 432.085938 679.902344 426.195312 C 679.902344 422.660156 678.269531 419.570312 675.78125 417.65625 "/>
<g clip-path="url(#clip2)" clip-rule="nonzero">
<path style=" stroke:none;fill-rule:nonzero;fill:rgb(23.139954%,33.729553%,44.709778%);fill-opacity:1;" d="M 462.863281 325.039062 C 463.894531 324.007812 462.421875 322.535156 461.242188 323.417969 C 459.476562 324.890625 458.003906 326.511719 456.671875 328.425781 C 455.644531 330.042969 454.171875 332.253906 454.617188 334.167969 C 454.765625 335.199219 456.085938 335.34375 456.824219 334.753906 C 458.144531 333.578125 458.445312 331.371094 459.324219 329.898438 C 460.210938 328.128906 461.390625 326.511719 462.863281 325.039062 Z M 384.089844 332.105469 C 385.117188 333.726562 386.589844 336.375 388.648438 336.226562 C 389.535156 336.226562 390.121094 335.640625 390.121094 334.757812 C 390.269531 332.839844 388.207031 331.371094 387.328125 329.898438 C 386.148438 328.128906 385.117188 326.363281 384.382812 324.597656 C 383.496094 322.683594 380.40625 324.007812 381.144531 325.921875 C 381.878906 327.984375 382.757812 330.042969 384.089844 332.105469 Z M 368.769531 430.90625 C 365.976562 433.558594 362.738281 437.09375 361.851562 441.066406 C 361.410156 442.835938 363.765625 444.011719 364.945312 442.394531 C 367.003906 439.300781 368.328125 435.914062 370.980469 433.117188 C 372.308594 431.644531 370.242188 429.582031 368.769531 430.90625 Z M 421.929688 446.367188 C 423.988281 444.601562 424.875 441.65625 426.054688 439.300781 C 427.375 436.652344 428.699219 433.851562 430.027344 431.203125 C 430.90625 429.582031 428.40625 428.109375 427.527344 429.730469 C 426.054688 432.527344 424.429688 435.324219 422.808594 437.976562 C 421.484375 440.332031 419.71875 442.6875 419.425781 445.339844 C 419.277344 446.664062 421.042969 447.105469 421.929688 446.367188 Z M 471.398438 420.304688 C 470.519531 418.390625 467.28125 419.71875 468.015625 421.777344 C 469.78125 426.933594 471.398438 432.675781 474.050781 437.535156 C 475.230469 439.742188 478.910156 438.269531 478.175781 435.765625 C 476.703125 430.464844 473.757812 425.164062 471.398438 420.304688 Z M 438.125 396.304688 C 439.890625 394.683594 440.777344 391.59375 441.949219 389.53125 C 443.277344 387.027344 444.75 384.671875 446.367188 382.316406 C 447.253906 381.136719 445.195312 379.519531 444.308594 380.695312 C 442.542969 383.050781 440.777344 385.410156 439.15625 387.910156 C 437.832031 390.121094 435.917969 392.769531 435.917969 395.421875 C 435.917969 396.597656 437.238281 397.042969 438.125 396.304688 Z M 404.257812 403.816406 C 403.667969 402.636719 401.757812 403.519531 402.050781 404.699219 C 403.078125 408.378906 403.667969 412.796875 405.730469 416.035156 C 406.910156 417.949219 409.554688 416.625 409.261719 414.5625 C 408.527344 410.734375 406.023438 407.203125 404.257812 403.816406 Z M 371.128906 405.582031 C 373.339844 404.109375 374.074219 401.3125 375.253906 399.101562 C 376.574219 396.304688 378.046875 393.507812 379.371094 390.710938 C 380.105469 389.382812 378.046875 388.207031 377.3125 389.53125 C 375.691406 392.183594 374.074219 394.832031 372.601562 397.484375 C 371.273438 399.691406 369.363281 401.898438 369.363281 404.550781 C 369.214844 405.433594 370.242188 406.171875 371.128906 405.582031 Z M 468.308594 370.390625 C 466.839844 364.792969 463.007812 359.640625 459.917969 354.929688 C 458.882812 353.457031 456.824219 354.78125 457.558594 356.253906 C 460.0625 361.261719 461.828125 367.003906 464.773438 371.714844 C 465.953125 373.777344 468.898438 372.597656 468.308594 370.390625 Z M 416.625 350.363281 C 414.859375 353.457031 412.945312 356.402344 411.179688 359.492188 C 409.554688 362.144531 407.496094 364.941406 406.761719 368.035156 C 406.46875 369.359375 408.082031 370.390625 409.121094 369.359375 C 411.328125 367.148438 412.652344 363.910156 414.125 361.113281 C 415.746094 358.019531 417.359375 354.78125 418.984375 351.6875 C 419.71875 350.214844 417.511719 348.890625 416.625 350.363281 Z M 463.894531 222.996094 C 464.773438 224.761719 465.367188 226.972656 467.132812 228.003906 C 467.867188 228.445312 469.046875 228.003906 469.191406 227.117188 C 469.632812 225.058594 468.308594 223.144531 467.28125 221.375 C 466.101562 219.316406 464.773438 217.253906 463.449219 215.339844 C 462.269531 213.71875 459.617188 215.191406 460.65625 216.957031 C 461.828125 219.019531 462.863281 220.933594 463.894531 222.996094 Z M 448.140625 295.589844 C 446.367188 298.238281 444.457031 300.890625 442.394531 303.390625 C 440.921875 305.304688 438.710938 307.074219 438.417969 309.429688 C 438.269531 310.164062 439.304688 310.753906 439.890625 310.609375 C 442.25 309.871094 443.863281 306.925781 445.195312 305.011719 C 447.101562 302.363281 448.726562 299.710938 450.492188 296.914062 C 451.671875 295.441406 449.167969 294.117188 448.140625 295.589844 Z M 398.078125 298.089844 C 399.398438 300.300781 400.578125 303.097656 403.078125 304.128906 C 403.816406 304.421875 404.703125 303.6875 404.550781 302.949219 C 404.402344 300.300781 402.050781 298.089844 400.722656 295.882812 C 398.957031 293.230469 397.339844 290.433594 395.867188 287.488281 C 394.980469 285.871094 392.773438 287.34375 393.507812 288.960938 C 394.832031 292.054688 396.304688 295.148438 398.078125 298.089844 Z M 433.414062 262.308594 C 435.765625 261.132812 436.796875 257.746094 438.269531 255.683594 C 440.183594 253.035156 442.394531 250.679688 444.894531 248.46875 C 445.929688 247.585938 444.457031 245.671875 443.421875 246.554688 C 440.777344 248.617188 438.125 250.824219 435.917969 253.476562 C 434.152344 255.539062 431.207031 258.628906 431.5 261.425781 C 431.640625 262.164062 432.527344 262.753906 433.414062 262.308594 Z M 406.761719 226.382812 C 408.527344 225.792969 409.707031 224.171875 410.734375 222.703125 C 412.066406 221.082031 413.238281 219.316406 414.417969 217.546875 C 415.304688 216.371094 413.386719 214.898438 412.359375 215.929688 C 410.886719 217.398438 409.414062 219.019531 407.941406 220.640625 C 406.761719 222.113281 405.4375 223.4375 405.136719 225.351562 C 405.136719 225.941406 406.023438 226.53125 406.761719 226.382812 Z M 962.445312 286.457031 C 957.746094 289.992188 952.003906 290.582031 946.851562 292.9375 C 946.113281 293.230469 946.703125 294.261719 947.441406 294.261719 C 950.664062 293.820312 953.773438 292.644531 956.863281 291.761719 C 959.367188 291.023438 961.707031 290.289062 963.917969 288.960938 C 965.390625 287.929688 963.785156 285.429688 962.445312 286.457031 Z M 628.804688 113.589844 C 632.339844 113.296875 639.113281 112.5625 640.585938 108.4375 C 640.878906 107.703125 639.847656 106.964844 639.246094 107.410156 C 637.640625 108.589844 636.300781 109.472656 634.253906 110.058594 C 632.191406 110.648438 630.277344 111.238281 628.363281 112.117188 C 627.773438 112.417969 628.070312 113.589844 628.804688 113.589844 Z M 630.867188 85.320312 C 633.074219 84.734375 635.5625 83.703125 637.492188 85.46875 C 636.902344 85.914062 636.609375 86.648438 636.300781 87.238281 C 636.019531 87.972656 635.429688 88.558594 634.988281 89.152344 C 634.695312 89.445312 635.285156 89.886719 635.5625 89.738281 C 636.300781 89.296875 636.902344 88.859375 637.492188 88.265625 C 637.773438 87.972656 638.226562 87.679688 638.507812 87.386719 C 638.816406 88.710938 638.671875 90.183594 638.507812 91.503906 C 638.375 93.128906 641.171875 93.277344 641.171875 91.503906 C 641.171875 88.710938 640.585938 85.320312 637.933594 83.847656 C 635.871094 82.667969 631.882812 82.375 629.984375 83.847656 C 629.394531 84.585938 630.128906 85.46875 630.867188 85.320312 Z M 570.039062 226.53125 C 585.5 224.175781 594.9375 194.875 578.136719 188.101562 C 577.269531 187.660156 576.664062 189.132812 577.402344 189.722656 C 585.664062 195.023438 584.765625 204.738281 580.804688 212.398438 C 578.003906 217.992188 574.175781 220.789062 568.566406 223.441406 C 566.960938 224.324219 568.433594 226.828125 570.039062 226.53125 Z M 568.730469 250.679688 C 586.839844 250.535156 597.734375 228.742188 601.269531 213.871094 C 604.953125 198.554688 603.332031 176.46875 585.957031 169.988281 C 584.765625 169.546875 584.335938 171.167969 585.21875 171.902344 C 600.828125 182.210938 601.269531 199.882812 596.117188 216.371094 C 593.90625 223.585938 590.652344 230.507812 585.5 236.25 C 580.347656 241.992188 574.457031 244.054688 567.832031 247.148438 C 565.933594 247.882812 566.960938 250.679688 568.730469 250.679688 Z M 635.871094 328.574219 C 610.988281 329.015625 585.367188 333.726562 561.074219 338.585938 C 558.128906 339.175781 559.304688 343.742188 562.398438 343.152344 C 586.839844 338.441406 611.722656 335.347656 636.167969 330.488281 C 637.199219 330.195312 636.902344 328.574219 635.871094 328.574219 Z M 632.925781 134.0625 C 639.554688 133.914062 645.589844 129.644531 651.921875 129.789062 C 653.234375 129.789062 654.128906 127.878906 653.101562 126.992188 C 649.714844 124.050781 646.472656 126.550781 642.792969 127.730469 C 634.695312 130.523438 627.332031 130.96875 619.367188 127.285156 C 618.203125 126.699219 616.730469 128.171875 617.894531 129.203125 C 621.882812 132.882812 627.464844 134.207031 632.925781 134.0625 Z M 644.558594 200.765625 C 644.398438 199.734375 642.925781 200.175781 643.085938 201.207031 C 645.738281 215.488281 648.242188 229.625 650.289062 244.054688 C 652.363281 258.335938 653.234375 273.0625 656.488281 287.050781 C 656.78125 288.671875 659.429688 288.375 659.429688 286.609375 C 658.988281 272.769531 655.75 258.335938 653.234375 244.644531 C 650.597656 230.066406 647.652344 215.339844 644.558594 200.765625 Z M 700.953125 276.15625 C 708.023438 276.742188 716.710938 271.296875 717.152344 263.785156 C 717.285156 262.3125 715.074219 262.167969 714.796875 263.492188 C 710.523438 277.039062 691.679688 275.417969 685.492188 264.667969 C 685.199219 264.226562 684.316406 264.375 684.460938 264.964844 C 685.199219 272.03125 694.769531 275.714844 700.953125 276.15625 Z M 762.058594 300.746094 C 757.347656 300.890625 752.488281 301.628906 747.777344 302.511719 C 747.335938 301.480469 746.730469 300.449219 746.304688 299.417969 C 745.570312 297.652344 745.128906 295.738281 744.683594 293.824219 C 744.523438 293.234375 743.507812 293.382812 743.507812 293.972656 C 743.789062 296.769531 744.390625 300.15625 745.570312 303.101562 C 736.292969 305.015625 726.855469 307.519531 717.738281 309.136719 C 701.542969 311.933594 685.347656 314.144531 669.148438 315.910156 C 669.003906 312.230469 668.691406 308.695312 668.265625 305.457031 C 668.265625 305.015625 667.53125 304.867188 667.53125 305.308594 C 666.484375 313.113281 665.320312 322.242188 666.484375 330.046875 C 666.644531 330.929688 667.957031 330.78125 668.117188 330.046875 C 668.855469 326.953125 669.148438 323.566406 669.296875 320.035156 C 685.050781 318.265625 700.660156 316.058594 716.121094 313.113281 C 731.140625 310.316406 748.515625 308.253906 762.503906 301.777344 C 762.648438 301.332031 762.503906 300.746094 762.058594 300.746094 Z M 1007.074219 713.476562 C 1010.164062 710.828125 1013.109375 707.144531 1013.550781 702.875 C 1013.699219 701.992188 1012.375 701.402344 1011.636719 702.140625 C 1008.988281 704.9375 1006.925781 708.027344 1003.980469 710.238281 C 1002.363281 711.414062 1000.726562 712.300781 998.828125 713.035156 C 997.355469 713.625 996.179688 713.769531 995.441406 715.390625 C 995 716.128906 995.292969 717.011719 996.03125 717.453125 C 999.417969 719.660156 1004.570312 715.539062 1007.074219 713.476562 Z M 866.308594 730.558594 C 873.082031 734.679688 883.535156 735.5625 890.015625 730.117188 C 891.191406 729.085938 889.867188 727.464844 888.542969 727.761719 C 881.179688 729.527344 875.570312 730.261719 868.8125 726.433594 C 866 724.816406 863.660156 728.789062 866.308594 730.558594 Z M 946.984375 473.171875 C 945.671875 473.464844 945.085938 474.789062 944.9375 475.96875 C 944.773438 476.851562 945.511719 477.292969 946.246094 477.441406 C 946.558594 477.882812 947.144531 478.175781 947.71875 478.175781 C 948.457031 478.175781 949.5 477.589844 949.648438 476.703125 C 949.796875 475.820312 949.796875 475.230469 949.648438 474.347656 C 949.191406 473.464844 948.027344 472.875 946.984375 473.171875 Z M 949.191406 458.742188 C 947.882812 458.742188 946.851562 460.65625 948.027344 461.539062 L 948.175781 461.683594 C 948.765625 462.273438 949.648438 462.273438 950.238281 461.683594 L 950.386719 461.539062 C 951.402344 460.507812 950.53125 458.742188 949.191406 458.742188 Z M 1005.308594 467.28125 C 1001.625 464.042969 996.179688 462.714844 991.894531 459.917969 C 986.902344 456.679688 982.320312 452.703125 978.363281 448.285156 C 977.773438 447.550781 976.433594 448.582031 977.035156 449.316406 C 980.277344 454.175781 984.105469 458.445312 988.816406 461.980469 C 992.9375 465.070312 998.976562 469.636719 1004.410156 469.488281 C 1005.453125 469.636719 1006.335938 468.164062 1005.308594 467.28125 Z M 930.210938 454.027344 C 930.65625 453.144531 929.476562 452.554688 929.035156 453.292969 C 924.898438 459.328125 921.214844 465.515625 915.78125 470.371094 C 909.746094 475.820312 902.074219 479.058594 894.578125 481.859375 C 892.664062 482.59375 893.550781 485.6875 895.449219 484.949219 C 910.910156 478.765625 922.6875 469.195312 930.210938 454.027344 Z M 947.441406 502.324219 C 945.085938 501.589844 942.566406 501.589844 940.226562 501 C 940.078125 500.851562 939.785156 500.851562 939.621094 500.851562 C 939.488281 500.851562 939.339844 500.707031 939.195312 500.707031 C 936.25 499.527344 933.894531 497.613281 931.523438 495.40625 C 930.785156 494.667969 929.316406 495.699219 929.917969 496.582031 C 931.683594 499.085938 934.628906 501.734375 938.015625 503.503906 C 932.421875 517.933594 927.414062 532.511719 922.261719 546.941406 C 917.695312 559.605469 910.335938 573.59375 914.308594 587.285156 C 914.898438 589.496094 918.140625 588.613281 917.84375 586.253906 C 915.195312 571.679688 922.996094 555.921875 927.414062 542.375 C 931.523438 529.714844 935.941406 517.050781 939.785156 504.238281 C 942.433594 505.269531 945.085938 505.566406 947.585938 504.828125 C 948.617188 504.386719 948.617188 502.621094 947.441406 502.324219 Z M 739.53125 388.210938 C 728.195312 390.125 716.710938 389.386719 705.503906 390.859375 C 704.636719 391.007812 704.636719 392.480469 705.503906 392.625 C 716.710938 394.984375 729.519531 394.539062 740.710938 392.332031 C 743.359375 391.890625 742.183594 387.765625 739.53125 388.210938 Z M 698.746094 238.3125 C 700.808594 242.140625 706.550781 243.90625 710.378906 245.378906 C 710.65625 245.527344 710.964844 244.9375 710.65625 244.792969 C 708.757812 243.613281 706.84375 242.582031 704.929688 241.40625 C 703.015625 240.226562 701.542969 238.605469 699.777344 237.28125 C 699.039062 236.839844 698.449219 237.722656 698.746094 238.3125 Z M 695.800781 228.445312 C 695.800781 227.5625 695.933594 226.679688 696.242188 225.945312 C 696.667969 226.386719 697.125 226.53125 697.714844 226.828125 C 698.140625 227.121094 698.449219 227.269531 699.039062 227.269531 C 699.335938 227.269531 699.480469 226.828125 699.480469 226.679688 C 699.335938 226.238281 699.039062 225.945312 698.597656 225.648438 C 698.140625 225.355469 697.863281 224.914062 697.40625 224.617188 C 698.304688 224.027344 699.613281 223.292969 700.511719 223.734375 C 701.085938 224.027344 701.691406 223.441406 701.394531 222.851562 C 700.511719 221.230469 697.566406 222.410156 696.535156 223.144531 C 694.917969 224.324219 693.722656 226.53125 694.035156 228.742188 C 694.179688 229.773438 695.800781 229.476562 695.800781 228.445312 Z M 396.011719 604.808594 C 393.953125 604.074219 390.859375 602.746094 387.472656 600.097656 L 371.273438 600.097656 L 368.1875 614.085938 C 381.882812 614.378906 395.570312 614.675781 409.121094 614.96875 C 408.972656 613.203125 408.527344 610.699219 406.761719 608.785156 C 404.402344 606.132812 401.164062 606.574219 396.011719 604.808594 Z M 440.628906 603.925781 C 438.570312 603.1875 435.769531 602.160156 432.378906 600.097656 L 417.363281 600.097656 C 417.21875 604.21875 416.917969 608.488281 416.777344 612.613281 C 427.820312 612.761719 438.714844 612.761719 449.757812 612.90625 C 450.199219 611.433594 450.492188 609.375 449.464844 607.605469 C 448.140625 605.398438 445.195312 605.398438 440.628906 603.925781 Z M 1032.992188 716.128906 C 1029.605469 713.917969 1026.070312 714.214844 1025.023438 714.359375 C 1017.972656 732.324219 1013.113281 741.011719 1010.300781 740.421875 C 1009.136719 740.128906 1008.402344 738.363281 1008.089844 735.121094 C 1005.308594 740.71875 1002.65625 744.988281 1000.730469 747.933594 C 998.519531 751.320312 997.046875 753.085938 997.046875 755.738281 C 997.210938 759.566406 1000.449219 762.511719 1002.511719 764.128906 C 1013.980469 749.40625 1025.332031 734.828125 1036.804688 720.101562 C 1036.066406 719.074219 1035.050781 717.453125 1032.992188 716.128906 Z M 886.1875 745.871094 C 887.808594 751.023438 889.558594 756.03125 891.195312 761.183594 C 874.554688 765.453125 857.902344 769.726562 841.277344 773.996094 C 841.132812 772.082031 841.132812 769.578125 842.308594 767.074219 C 844.652344 761.480469 850.996094 758.09375 858.507812 757.945312 C 860.113281 758.535156 861.746094 758.828125 863.054688 758.976562 C 875.292969 760.007812 884.714844 747.933594 886.1875 745.871094 "/>
</g>
</g>
</svg>
