<?xml version="1.0" encoding="UTF-8"?>
<svg xmlns="http://www.w3.org/2000/svg" xmlns:xlink="http://www.w3.org/1999/xlink" width="595.5pt" height="842.249979pt" viewBox="0 0 595.5 842.249979" version="1.2">
<defs>
<clipPath id="clip1">
  <path d="M 190.816406 207.28125 L 409.804688 207.28125 L 409.804688 426.269531 L 190.816406 426.269531 Z M 190.816406 207.28125 "/>
</clipPath>
<clipPath id="clip2">
  <path d="M 245 324 L 356 324 L 356 426.269531 L 245 426.269531 Z M 245 324 "/>
</clipPath>
<clipPath id="clip3">
  <path d="M 245 416 L 356 416 L 356 426.269531 L 245 426.269531 Z M 245 416 "/>
</clipPath>
<clipPath id="clip4">
  <path d="M 190.816406 426.167969 L 409.804688 426.167969 L 409.804688 645 L 190.816406 645 Z M 190.816406 426.167969 "/>
</clipPath>
<clipPath id="clip5">
  <path d="M 240 543 L 360 543 L 360 645.15625 L 240 645.15625 Z M 240 543 "/>
</clipPath>
<clipPath id="clip6">
  <path d="M 240 543 L 284 543 L 284 645.15625 L 240 645.15625 Z M 240 543 "/>
</clipPath>
<clipPath id="clip7">
  <path d="M 316 543 L 360 543 L 360 645.15625 L 316 645.15625 Z M 316 543 "/>
</clipPath>
</defs>
<g id="surface1">
<path style=" stroke:none;fill-rule:nonzero;fill:rgb(54.899597%,32.159424%,100%);fill-opacity:1;" d="M 297.636719 152.984375 C 293.253906 152.984375 288.871094 153.089844 284.492188 153.304688 C 280.109375 153.519531 275.738281 153.84375 271.375 154.273438 C 267.011719 154.703125 262.660156 155.238281 258.324219 155.882812 C 253.984375 156.527344 249.664062 157.277344 245.363281 158.132812 C 241.0625 158.988281 236.789062 159.949219 232.535156 161.011719 C 228.28125 162.078125 224.054688 163.246094 219.859375 164.519531 C 215.664062 165.792969 211.5 167.167969 207.371094 168.644531 C 203.242188 170.125 199.152344 171.699219 195.101562 173.378906 C 191.050781 175.058594 187.042969 176.832031 183.078125 178.707031 C 179.113281 180.582031 175.199219 182.554688 171.332031 184.621094 C 167.464844 186.6875 163.648438 188.847656 159.890625 191.101562 C 156.128906 193.359375 152.425781 195.703125 148.777344 198.140625 C 145.132812 200.574219 141.546875 203.101562 138.027344 205.710938 C 134.503906 208.324219 131.046875 211.019531 127.660156 213.804688 C 124.269531 216.585938 120.949219 219.449219 117.699219 222.394531 C 114.449219 225.335938 111.277344 228.359375 108.175781 231.460938 C 105.074219 234.5625 102.050781 237.738281 99.105469 240.984375 C 96.164062 244.234375 93.300781 247.554688 90.515625 250.945312 C 87.734375 254.332031 85.039062 257.789062 82.425781 261.3125 C 79.8125 264.832031 77.289062 268.417969 74.855469 272.0625 C 72.417969 275.710938 70.070312 279.414062 67.816406 283.175781 C 65.5625 286.9375 63.402344 290.75 61.335938 294.617188 C 59.269531 298.484375 57.296875 302.398438 55.421875 306.363281 C 53.546875 310.328125 51.769531 314.335938 50.09375 318.386719 C 48.414062 322.4375 46.835938 326.527344 45.359375 330.65625 C 43.882812 334.785156 42.507812 338.949219 41.234375 343.144531 C 39.960938 347.339844 38.792969 351.566406 37.726562 355.820312 C 36.660156 360.074219 35.703125 364.351562 34.847656 368.652344 C 33.992188 372.953125 33.242188 377.269531 32.597656 381.609375 C 31.953125 385.945312 31.417969 390.296875 30.988281 394.660156 C 30.558594 399.023438 30.234375 403.398438 30.019531 407.777344 C 29.804688 412.15625 29.699219 416.539062 29.699219 420.921875 C 29.699219 425.308594 29.804688 429.691406 30.019531 434.070312 C 30.234375 438.449219 30.558594 442.824219 30.988281 447.1875 C 31.417969 451.550781 31.953125 455.902344 32.597656 460.238281 C 33.242188 464.574219 33.992188 468.894531 34.847656 473.195312 C 35.703125 477.496094 36.660156 481.773438 37.726562 486.027344 C 38.792969 490.28125 39.960938 494.507812 41.234375 498.703125 C 42.507812 502.898438 43.882812 507.0625 45.359375 511.191406 C 46.835938 515.320312 48.414062 519.410156 50.09375 523.460938 C 51.769531 527.511719 53.546875 531.519531 55.421875 535.484375 C 57.296875 539.445312 59.269531 543.363281 61.335938 547.230469 C 63.402344 551.097656 65.5625 554.910156 67.816406 558.671875 C 70.070312 562.433594 72.417969 566.136719 74.855469 569.78125 C 77.289062 573.429688 79.8125 577.011719 82.425781 580.535156 C 85.039062 584.058594 87.734375 587.511719 90.515625 590.902344 C 93.300781 594.292969 96.164062 597.613281 99.105469 600.859375 C 102.050781 604.109375 105.074219 607.285156 108.175781 610.386719 C 111.277344 613.488281 114.449219 616.507812 117.699219 619.453125 C 120.949219 622.398438 124.269531 625.261719 127.660156 628.042969 C 131.046875 630.824219 134.503906 633.523438 138.027344 636.136719 C 141.546875 638.746094 145.132812 641.269531 148.777344 643.707031 C 152.425781 646.144531 156.128906 648.488281 159.890625 650.742188 C 163.648438 652.996094 167.464844 655.160156 171.332031 657.226562 C 175.199219 659.292969 179.113281 661.265625 183.078125 663.136719 C 187.042969 665.011719 191.050781 666.789062 195.101562 668.46875 C 199.152344 670.144531 203.242188 671.722656 207.371094 673.199219 C 211.5 674.679688 215.664062 676.054688 219.859375 677.328125 C 224.054688 678.597656 228.28125 679.769531 232.535156 680.832031 C 236.789062 681.898438 241.0625 682.859375 245.363281 683.714844 C 249.664062 684.570312 253.984375 685.320312 258.324219 685.964844 C 262.660156 686.605469 267.011719 687.144531 271.375 687.574219 C 275.738281 688.003906 280.109375 688.324219 284.492188 688.539062 C 288.871094 688.757812 293.253906 688.863281 297.636719 688.863281 C 302.023438 688.863281 306.40625 688.757812 310.785156 688.539062 C 315.164062 688.324219 319.535156 688.003906 323.902344 687.574219 C 328.265625 687.144531 332.613281 686.605469 336.953125 685.964844 C 341.289062 685.320312 345.609375 684.570312 349.910156 683.714844 C 354.210938 682.859375 358.488281 681.898438 362.742188 680.832031 C 366.996094 679.769531 371.21875 678.597656 375.417969 677.328125 C 379.613281 676.054688 383.773438 674.679688 387.902344 673.199219 C 392.03125 671.722656 396.121094 670.144531 400.175781 668.46875 C 404.226562 666.789062 408.234375 665.011719 412.195312 663.136719 C 416.160156 661.265625 420.078125 659.292969 423.945312 657.226562 C 427.8125 655.160156 431.625 652.996094 435.386719 650.742188 C 439.148438 648.488281 442.851562 646.144531 446.496094 643.707031 C 450.144531 641.269531 453.726562 638.746094 457.25 636.136719 C 460.773438 633.523438 464.226562 630.824219 467.617188 628.042969 C 471.007812 625.261719 474.328125 622.398438 477.574219 619.453125 C 480.824219 616.507812 484 613.488281 487.101562 610.386719 C 490.199219 607.285156 493.222656 604.109375 496.167969 600.859375 C 499.113281 597.613281 501.976562 594.292969 504.757812 590.902344 C 507.539062 587.511719 510.238281 584.058594 512.847656 580.535156 C 515.460938 577.011719 517.984375 573.429688 520.421875 569.78125 C 522.859375 566.136719 525.203125 562.433594 527.457031 558.671875 C 529.710938 554.910156 531.871094 551.097656 533.941406 547.230469 C 536.007812 543.363281 537.976562 539.445312 539.851562 535.484375 C 541.726562 531.519531 543.503906 527.511719 545.183594 523.460938 C 546.859375 519.410156 548.4375 515.320312 549.914062 511.191406 C 551.390625 507.0625 552.769531 502.898438 554.039062 498.703125 C 555.3125 494.507812 556.484375 490.28125 557.546875 486.027344 C 558.613281 481.773438 559.574219 477.496094 560.429688 473.195312 C 561.285156 468.894531 562.035156 464.574219 562.679688 460.238281 C 563.320312 455.902344 563.859375 451.550781 564.289062 447.1875 C 564.71875 442.824219 565.039062 438.449219 565.253906 434.070312 C 565.46875 429.691406 565.578125 425.308594 565.578125 420.921875 C 565.578125 416.539062 565.46875 412.15625 565.253906 407.777344 C 565.039062 403.398438 564.71875 399.023438 564.289062 394.660156 C 563.859375 390.296875 563.320312 385.945312 562.679688 381.609375 C 562.035156 377.269531 561.285156 372.953125 560.429688 368.652344 C 559.574219 364.351562 558.613281 360.074219 557.546875 355.820312 C 556.484375 351.566406 555.3125 347.339844 554.039062 343.144531 C 552.769531 338.949219 551.390625 334.785156 549.914062 330.65625 C 548.4375 326.527344 546.859375 322.4375 545.183594 318.386719 C 543.503906 314.335938 541.726562 310.328125 539.851562 306.363281 C 537.976562 302.398438 536.007812 298.484375 533.941406 294.617188 C 531.871094 290.75 529.710938 286.9375 527.457031 283.175781 C 525.203125 279.414062 522.859375 275.710938 520.421875 272.0625 C 517.984375 268.417969 515.460938 264.832031 512.847656 261.3125 C 510.238281 257.789062 507.539062 254.332031 504.757812 250.945312 C 501.976562 247.554688 499.113281 244.234375 496.167969 240.984375 C 493.222656 237.738281 490.199219 234.5625 487.101562 231.460938 C 484 228.359375 480.824219 225.335938 477.574219 222.394531 C 474.328125 219.449219 471.007812 216.585938 467.617188 213.804688 C 464.226562 211.019531 460.773438 208.324219 457.25 205.710938 C 453.726562 203.101562 450.144531 200.574219 446.496094 198.140625 C 442.851562 195.703125 439.148438 193.359375 435.386719 191.101562 C 431.625 188.847656 427.8125 186.6875 423.945312 184.621094 C 420.078125 182.554688 416.160156 180.582031 412.195312 178.707031 C 408.234375 176.832031 404.226562 175.058594 400.175781 173.378906 C 396.121094 171.699219 392.03125 170.125 387.902344 168.644531 C 383.777344 167.167969 379.613281 165.792969 375.417969 164.519531 C 371.21875 163.246094 366.996094 162.078125 362.742188 161.011719 C 358.488281 159.949219 354.210938 158.988281 349.910156 158.132812 C 345.609375 157.277344 341.289062 156.527344 336.953125 155.882812 C 332.613281 155.238281 328.265625 154.703125 323.902344 154.273438 C 319.535156 153.84375 315.164062 153.519531 310.785156 153.304688 C 306.40625 153.089844 302.023438 152.984375 297.636719 152.984375 Z M 297.636719 152.984375 "/>
<g clip-path="url(#clip1)" clip-rule="nonzero">
<path style=" stroke:none;fill-rule:nonzero;fill:rgb(68.629456%,45.098877%,68.238831%);fill-opacity:1;" d="M 190.808594 207.277344 L 409.910156 207.277344 L 409.910156 426.375 L 190.808594 426.375 Z M 190.808594 207.277344 "/>
</g>
<path style=" stroke:none;fill-rule:nonzero;fill:rgb(19.999695%,5.879211%,17.649841%);fill-opacity:1;" d="M 274.230469 238.507812 C 274.230469 238.507812 258.34375 238.820312 257.984375 270.152344 C 257.628906 301.484375 257.984375 370.378906 257.984375 370.378906 L 297.222656 368.945312 L 310.589844 343.832031 L 304.996094 294.675781 Z M 274.230469 238.507812 "/>
<path style=" stroke:none;fill-rule:nonzero;fill:rgb(96.078491%,67.449951%,62.348938%);fill-opacity:1;" d="M 327.417969 270.417969 C 324.277344 283.367188 319.117188 287.234375 315.101562 291.605469 C 314.339844 292.433594 313.601562 293.148438 312.871094 293.789062 C 312.695312 293.945312 312.515625 294.097656 312.339844 294.238281 C 310.371094 295.847656 314.015625 291.605469 311.847656 292.425781 C 310.257812 293.035156 307.699219 295.925781 305.753906 296.472656 C 302.585938 297.367188 302.164062 296.601562 297.230469 297.824219 C 295.191406 298.328125 288.441406 301.875 286.59375 302.328125 C 282.234375 303.378906 274.175781 306.050781 273.566406 306.148438 C 273.566406 306.148438 272.003906 303.457031 269.539062 294.996094 C 273.21875 293.808594 276.039062 291.457031 276.039062 291.457031 C 272.363281 291.324219 269.726562 291.449219 268.539062 291.324219 C 268.324219 290.050781 268.089844 288.601562 267.859375 287.015625 C 267.417969 284.015625 266.972656 280.523438 266.601562 276.820312 C 266.417969 275.125 266.257812 273.382812 266.117188 271.625 C 264.800781 255.375 271.992188 244.925781 279.859375 239.410156 C 283.226562 237.046875 286.71875 235.585938 289.726562 234.960938 C 310.449219 230.632812 333.824219 243.921875 327.417969 270.417969 Z M 327.417969 270.417969 "/>
<path style=" stroke:none;fill-rule:nonzero;fill:rgb(96.078491%,67.449951%,62.348938%);fill-opacity:1;" d="M 290.140625 292.425781 L 310.59375 292.425781 L 310.59375 326.316406 L 290.140625 326.316406 Z M 290.140625 292.425781 "/>
<path style=" stroke:none;fill-rule:nonzero;fill:rgb(96.078491%,67.449951%,62.348938%);fill-opacity:1;" d="M 272.371094 285.722656 C 272.371094 285.722656 264.578125 288.476562 262.820312 286.058594 C 262.820312 286.058594 264.625 283.410156 267.128906 273.144531 C 268.519531 267.429688 272.722656 282.742188 272.722656 282.742188 Z M 272.371094 285.722656 "/>
<path style=" stroke:none;fill-rule:nonzero;fill:rgb(19.999695%,5.879211%,17.649841%);fill-opacity:1;" d="M 311.847656 292.425781 C 270.480469 293.550781 273.113281 239.773438 273.113281 239.773438 C 285.511719 224.878906 313.625 223.691406 328.519531 236.085938 C 343.417969 248.480469 345.476562 270.9375 333.082031 285.835938 C 327.964844 291.984375 320.910156 296.214844 313.082031 297.835938 C 313.082031 297.828125 317.503906 292.269531 311.847656 292.425781 Z M 311.847656 292.425781 "/>
<path style=" stroke:none;fill-rule:nonzero;fill:rgb(96.078491%,67.449951%,62.348938%);fill-opacity:1;" d="M 318.113281 274.59375 C 318.113281 278.746094 314.136719 287.621094 309.976562 287.621094 C 305.824219 287.621094 303.070312 278.746094 303.070312 274.59375 C 303.070312 270.4375 306.4375 267.074219 310.589844 267.074219 C 314.742188 267.074219 318.113281 270.4375 318.113281 274.59375 Z M 318.113281 274.59375 "/>
<g clip-path="url(#clip2)" clip-rule="nonzero">
<path style=" stroke:none;fill-rule:nonzero;fill:rgb(90.589905%,19.999695%,23.139954%);fill-opacity:1;" d="M 355.988281 426.382812 L 245.128906 426.382812 C 245.128906 426.382812 245.183594 422.570312 245.289062 416.664062 C 245.339844 413.441406 245.402344 409.582031 245.472656 405.382812 C 245.527344 402.289062 245.582031 399.015625 245.640625 395.664062 C 245.710938 391.9375 245.78125 388.117188 245.851562 384.371094 C 245.914062 381.046875 245.976562 377.773438 246.039062 374.660156 C 246.117188 370.527344 246.203125 366.675781 246.28125 363.367188 C 246.386719 359.003906 246.484375 355.566406 246.5625 353.648438 C 246.597656 352.878906 246.625 352.351562 246.652344 352.105469 C 247.050781 348.394531 247.707031 345.160156 248.621094 342.363281 C 249.953125 338.246094 251.859375 335.058594 254.347656 332.648438 C 255.175781 331.839844 256.066406 331.121094 257.03125 330.484375 C 261.738281 327.363281 267.210938 325.324219 273.113281 324.726562 C 274.300781 324.609375 275.511719 324.546875 276.734375 324.546875 L 323.996094 324.546875 C 325.21875 324.546875 326.425781 324.609375 327.613281 324.726562 C 333.515625 325.324219 338.992188 327.363281 343.699219 330.484375 C 344.605469 331.078125 345.53125 331.8125 346.453125 332.648438 C 348.496094 334.496094 350.5 336.84375 352.144531 339.378906 C 352.777344 340.355469 353.359375 341.351562 353.859375 342.363281 C 355.242188 345.132812 356.078125 347.972656 355.980469 350.523438 C 355.945312 351.527344 355.910156 352.566406 355.875 353.648438 C 355.792969 356.644531 355.722656 359.917969 355.679688 363.367188 C 355.621094 366.980469 355.59375 370.78125 355.582031 374.660156 C 355.566406 377.871094 355.566406 381.132812 355.574219 384.371094 C 355.574219 388.199219 355.59375 392.003906 355.617188 395.664062 C 355.621094 396.511719 355.628906 397.347656 355.636719 398.1875 L 355.65625 400.644531 C 355.664062 401.460938 355.671875 402.261719 355.679688 403.046875 L 355.699219 405.382812 C 355.742188 409.625 355.792969 413.46875 355.832031 416.664062 C 355.917969 422.632812 355.988281 426.382812 355.988281 426.382812 Z M 355.988281 426.382812 "/>
</g>
<g clip-path="url(#clip3)" clip-rule="nonzero">
<path style=" stroke:none;fill-rule:nonzero;fill:rgb(19.999695%,5.879211%,17.649841%);fill-opacity:1;" d="M 245.128906 426.382812 L 355.988281 426.382812 L 355.9375 423.441406 L 355.925781 422.476562 L 355.875 419.265625 L 355.847656 417.753906 L 355.832031 416.664062 L 245.289062 416.664062 Z M 245.128906 426.382812 "/>
</g>
<path style=" stroke:none;fill-rule:nonzero;fill:rgb(19.999695%,5.879211%,17.649841%);fill-opacity:1;" d="M 355.617188 395.664062 L 245.640625 395.664062 C 245.582031 399.015625 245.527344 402.289062 245.472656 405.382812 L 355.699219 405.382812 Z M 355.617188 395.664062 "/>
<path style=" stroke:none;fill-rule:nonzero;fill:rgb(19.999695%,5.879211%,17.649841%);fill-opacity:1;" d="M 355.574219 384.371094 L 245.851562 384.371094 C 245.914062 381.046875 245.976562 377.773438 246.039062 374.660156 L 355.582031 374.660156 C 355.566406 377.871094 355.566406 381.132812 355.574219 384.371094 Z M 355.574219 384.371094 "/>
<path style=" stroke:none;fill-rule:nonzero;fill:rgb(19.999695%,5.879211%,17.649841%);fill-opacity:1;" d="M 355.875 353.648438 L 246.5625 353.648438 C 246.484375 355.566406 246.386719 359.003906 246.28125 363.367188 L 355.679688 363.367188 Z M 355.875 353.648438 "/>
<path style=" stroke:none;fill-rule:nonzero;fill:rgb(19.999695%,5.879211%,17.649841%);fill-opacity:1;" d="M 353.859375 342.363281 L 248.621094 342.363281 C 249.953125 338.246094 251.859375 335.058594 254.347656 332.648438 L 346.453125 332.648438 C 348.496094 334.496094 350.5 336.84375 352.144531 339.378906 C 352.777344 340.355469 353.359375 341.351562 353.859375 342.363281 Z M 353.859375 342.363281 "/>
<path style=" stroke:none;fill-rule:nonzero;fill:rgb(100%,100%,100%);fill-opacity:1;" d="M 316.449219 324.546875 L 316.449219 310.386719 L 284.152344 310.386719 L 284.152344 324.546875 L 276.734375 324.546875 C 275.511719 324.546875 274.300781 324.609375 273.113281 324.726562 C 273.339844 339.582031 285.453125 351.554688 300.363281 351.554688 C 315.273438 351.554688 327.390625 339.582031 327.613281 324.726562 C 326.425781 324.609375 325.21875 324.546875 323.996094 324.546875 Z M 316.449219 324.546875 "/>
<path style=" stroke:none;fill-rule:nonzero;fill:rgb(19.999695%,5.879211%,17.649841%);fill-opacity:1;" d="M 316 258.429688 L 300.5625 255.921875 L 300.5625 384.378906 C 300.5625 384.378906 341.191406 380.789062 341.191406 342.757812 C 341.191406 322.660156 341.191406 260.585938 341.191406 260.585938 Z M 316 258.429688 "/>
<g clip-path="url(#clip4)" clip-rule="nonzero">
<path style=" stroke:none;fill-rule:nonzero;fill:rgb(61.569214%,16.468811%,52.938843%);fill-opacity:1;" d="M 190.949219 426.160156 L 409.664062 426.160156 L 409.664062 644.875 L 190.949219 644.875 Z M 190.949219 426.160156 "/>
</g>
<path style=" stroke:none;fill-rule:nonzero;fill:rgb(96.078491%,67.449951%,62.348938%);fill-opacity:1;" d="M 273.304688 489.191406 C 276.238281 502.164062 286.507812 511.183594 290.527344 515.546875 C 295.015625 520.433594 293.84375 516.414062 299.660156 518.0625 C 307.214844 520.195312 324.777344 527.230469 327.476562 525.535156 C 327.476562 525.535156 329.398438 522.855469 331.386719 513.511719 C 326.910156 512.773438 322.085938 509.976562 322.085938 509.976562 C 325.746094 509.851562 330.25 509.15625 332.289062 508.8125 C 333.109375 504.035156 333.898438 497.988281 334.515625 490.390625 C 336.386719 467.238281 320.949219 455.992188 310.945312 453.792969 C 290.195312 449.226562 264.824219 451.671875 273.304688 489.191406 Z M 273.304688 489.191406 "/>
<path style=" stroke:none;fill-rule:nonzero;fill:rgb(19.999695%,5.879211%,17.649841%);fill-opacity:1;" d="M 273.410156 491.242188 C 273.410156 491.242188 282.59375 482.164062 301.828125 486.78125 C 301.828125 486.78125 301.589844 469.273438 331.289062 470.722656 C 331.289062 470.722656 327.5 452.796875 305.648438 451.953125 C 283.800781 451.113281 244.386719 455.910156 273.410156 491.242188 Z M 273.410156 491.242188 "/>
<path style=" stroke:none;fill-rule:nonzero;fill:rgb(96.078491%,67.449951%,62.348938%);fill-opacity:1;" d="M 312.796875 544.992188 L 287.828125 544.992188 L 287.828125 511.160156 L 312.796875 511.160156 Z M 312.796875 544.992188 "/>
<path style=" stroke:none;fill-rule:nonzero;fill:rgb(96.078491%,67.449951%,62.348938%);fill-opacity:1;" d="M 333.070312 503.761719 C 333.070312 503.761719 336.402344 504.183594 338.421875 501.992188 C 338.421875 501.992188 335.804688 496.125 334.507812 490.398438 C 333.214844 484.675781 328.816406 501.207031 328.816406 501.207031 Z M 333.070312 503.761719 "/>
<path style=" stroke:none;fill-rule:nonzero;fill:rgb(96.078491%,67.449951%,62.348938%);fill-opacity:1;" d="M 297.609375 493.359375 C 297.609375 493.851562 297.5625 494.339844 297.46875 494.824219 C 297.371094 495.308594 297.226562 495.777344 297.039062 496.230469 C 296.851562 496.6875 296.621094 497.121094 296.347656 497.527344 C 296.074219 497.9375 295.761719 498.316406 295.414062 498.667969 C 295.0625 499.015625 294.683594 499.324219 294.277344 499.601562 C 293.867188 499.875 293.433594 500.105469 292.976562 500.292969 C 292.523438 500.480469 292.054688 500.625 291.570312 500.71875 C 291.085938 500.816406 290.597656 500.863281 290.105469 500.863281 C 289.613281 500.863281 289.125 500.816406 288.640625 500.71875 C 288.160156 500.625 287.6875 500.480469 287.234375 500.292969 C 286.777344 500.105469 286.347656 499.875 285.9375 499.601562 C 285.527344 499.324219 285.148438 499.015625 284.796875 498.667969 C 284.449219 498.316406 284.140625 497.9375 283.867188 497.527344 C 283.589844 497.121094 283.359375 496.6875 283.171875 496.230469 C 282.984375 495.777344 282.839844 495.308594 282.746094 494.824219 C 282.648438 494.339844 282.601562 493.851562 282.601562 493.359375 C 282.601562 492.867188 282.648438 492.378906 282.746094 491.894531 C 282.839844 491.410156 282.984375 490.941406 283.171875 490.488281 C 283.359375 490.03125 283.589844 489.597656 283.867188 489.191406 C 284.140625 488.78125 284.449219 488.402344 284.796875 488.050781 C 285.148438 487.703125 285.527344 487.394531 285.9375 487.117188 C 286.347656 486.84375 286.777344 486.613281 287.234375 486.425781 C 287.6875 486.238281 288.160156 486.09375 288.640625 486 C 289.125 485.902344 289.613281 485.855469 290.105469 485.855469 C 290.597656 485.855469 291.085938 485.902344 291.570312 486 C 292.054688 486.09375 292.523438 486.238281 292.976562 486.425781 C 293.433594 486.613281 293.867188 486.84375 294.277344 487.117188 C 294.683594 487.394531 295.0625 487.703125 295.414062 488.050781 C 295.761719 488.402344 296.074219 488.78125 296.347656 489.191406 C 296.621094 489.597656 296.851562 490.03125 297.039062 490.488281 C 297.226562 490.941406 297.371094 491.410156 297.46875 491.894531 C 297.5625 492.378906 297.609375 492.867188 297.609375 493.359375 Z M 297.609375 493.359375 "/>
<g clip-path="url(#clip5)" clip-rule="nonzero">
<path style=" stroke:none;fill-rule:nonzero;fill:rgb(100%,100%,100%);fill-opacity:1;" d="M 359.675781 578.992188 L 359.675781 645.128906 L 240.957031 645.128906 L 240.957031 578.992188 C 240.957031 578.070312 240.984375 577.152344 241.0625 576.253906 C 241.371094 572.234375 242.34375 568.40625 243.875 564.863281 C 246.660156 558.445312 251.273438 552.988281 257.054688 549.152344 C 262.699219 545.40625 269.460938 543.222656 276.722656 543.222656 L 323.902344 543.222656 C 331.160156 543.222656 337.921875 545.40625 343.570312 549.152344 C 349.347656 552.988281 353.964844 558.445312 356.75 564.863281 C 358.277344 568.40625 359.253906 572.234375 359.5625 576.253906 C 359.640625 577.152344 359.675781 578.070312 359.675781 578.992188 Z M 359.675781 578.992188 "/>
</g>
<path style=" stroke:none;fill-rule:nonzero;fill:rgb(100%,100%,100%);fill-opacity:1;" d="M 281.75 538.292969 L 318.871094 538.292969 C 320.273438 538.292969 321.425781 537.144531 321.425781 535.742188 L 321.425781 533.628906 C 321.425781 532.226562 320.273438 531.074219 318.871094 531.074219 L 281.75 531.074219 C 280.347656 531.074219 279.199219 532.226562 279.199219 533.628906 L 279.199219 535.742188 C 279.199219 537.144531 280.347656 538.292969 281.75 538.292969 Z M 281.75 538.292969 "/>
<path style=" stroke:none;fill-rule:nonzero;fill:rgb(100%,100%,100%);fill-opacity:1;" d="M 283.945312 536.714844 L 316.632812 536.714844 L 316.632812 551.769531 L 283.945312 551.769531 Z M 283.945312 536.714844 "/>
<path style=" stroke:none;fill-rule:nonzero;fill:rgb(19.999695%,5.879211%,17.649841%);fill-opacity:1;" d="M 329.632812 454.925781 L 329.632812 436.320312 C 337.023438 437.699219 345.324219 447.402344 345.324219 454.925781 C 345.324219 463.535156 338.238281 470.617188 329.632812 470.617188 C 321.46875 470.617188 314.59375 464.25 313.984375 456.105469 Z M 329.632812 454.925781 "/>
<path style=" stroke:none;fill-rule:nonzero;fill:rgb(19.999695%,5.879211%,17.649841%);fill-opacity:1;" d="M 313.4375 458.609375 L 294.425781 465.398438 C 290.703125 454.96875 296.214844 443.324219 306.644531 439.601562 C 317.074219 435.875 328.71875 441.390625 332.445312 451.820312 C 333.828125 455.683594 333.996094 459.878906 332.929688 463.84375 Z M 313.4375 458.609375 "/>
<path style=" stroke:none;fill-rule:nonzero;fill:rgb(19.999695%,5.879211%,17.649841%);fill-opacity:1;" d="M 272.800781 486.78125 C 272.800781 486.78125 258.996094 473.296875 263.207031 457.269531 L 264.996094 459.148438 C 264.996094 459.148438 270.253906 436.648438 305.679688 439.972656 L 295.527344 462.285156 L 273.585938 469.347656 L 275.46875 478.9375 Z M 272.800781 486.78125 "/>
<g clip-path="url(#clip6)" clip-rule="nonzero">
<path style=" stroke:none;fill-rule:nonzero;fill:rgb(19.999695%,5.879211%,17.649841%);fill-opacity:1;" d="M 283.945312 543.222656 L 283.945312 645.128906 L 240.957031 645.128906 L 240.957031 578.992188 C 240.957031 578.070312 240.984375 577.152344 241.0625 576.253906 C 241.371094 572.234375 242.34375 568.40625 243.875 564.863281 C 246.660156 558.445312 251.273438 552.988281 257.054688 549.152344 C 262.699219 545.40625 269.460938 543.222656 276.722656 543.222656 Z M 283.945312 543.222656 "/>
</g>
<g clip-path="url(#clip7)" clip-rule="nonzero">
<path style=" stroke:none;fill-rule:nonzero;fill:rgb(19.999695%,5.879211%,17.649841%);fill-opacity:1;" d="M 359.675781 578.992188 L 359.675781 645.128906 L 316.632812 645.128906 L 316.632812 543.222656 L 323.902344 543.222656 C 331.160156 543.222656 337.921875 545.40625 343.570312 549.152344 C 349.347656 552.988281 353.964844 558.445312 356.75 564.863281 C 358.277344 568.40625 359.253906 572.234375 359.5625 576.253906 C 359.640625 577.152344 359.675781 578.070312 359.675781 578.992188 Z M 359.675781 578.992188 "/>
</g>
</g>
</svg>
