<?xml version="1.0" encoding="UTF-8"?>
<svg xmlns="http://www.w3.org/2000/svg" xmlns:xlink="http://www.w3.org/1999/xlink" width="1440pt" height="809.999993pt" viewBox="0 0 1440 809.999993" version="1.2">
<defs>
<clipPath id="clip1">
  <path d="M 353.230469 59 L 1037.101562 59 L 1037.101562 743 L 353.230469 743 Z M 353.230469 59 "/>
</clipPath>
<clipPath id="clip2">
  <path d="M 495 553 L 895 553 L 895 809.425781 L 495 809.425781 Z M 495 553 "/>
</clipPath>
</defs>
<g id="surface1">
<g clip-path="url(#clip1)" clip-rule="nonzero">
<path style=" stroke:none;fill-rule:nonzero;fill:rgb(47.059631%,81.959534%,79.998779%);fill-opacity:1;" d="M 1037.128906 400.792969 C 1037.128906 589.53125 884.085938 742.519531 695.277344 742.519531 C 506.46875 742.519531 353.421875 589.53125 353.421875 400.792969 C 353.417969 212.054688 506.46875 59.066406 695.277344 59.066406 C 884.085938 59.058594 1037.128906 212.054688 1037.128906 400.792969 "/>
</g>
<path style=" stroke:none;fill-rule:nonzero;fill:rgb(98.039246%,77.249146%,39.608765%);fill-opacity:1;" d="M 828.402344 222.957031 C 828.402344 271.933594 788.699219 311.625 739.703125 311.625 C 690.726562 311.625 651 271.933594 651 222.957031 C 651 173.976562 690.726562 134.289062 739.703125 134.289062 C 788.699219 134.289062 828.402344 173.976562 828.402344 222.957031 "/>
<path style=" stroke:none;fill-rule:nonzero;fill:rgb(98.039246%,77.249146%,39.608765%);fill-opacity:1;" d="M 666.695312 222.957031 L 651 222.957031 C 651 222.957031 631.347656 487.457031 682.5 571.230469 C 733.652344 655.003906 876.75 653.023438 895.25 558.371094 C 895.25 558.371094 802.914062 596.1875 828.402344 222.957031 L 666.695312 222.957031 "/>
<g clip-path="url(#clip2)" clip-rule="nonzero">
<path style=" stroke:none;fill-rule:nonzero;fill:rgb(100%,100%,100%);fill-opacity:1;" d="M 894.183594 743.453125 C 877.269531 756.074219 859.117188 767.128906 839.941406 776.375 C 837.046875 777.789062 834.105469 779.136719 831.144531 780.464844 C 789.507812 799.132812 743.335938 809.515625 694.753906 809.515625 C 646.148438 809.515625 599.980469 799.132812 558.339844 780.464844 C 555.378906 779.136719 552.441406 777.789062 549.523438 776.375 C 530.347656 767.105469 512.214844 756.074219 495.300781 743.453125 C 498.261719 677.394531 533.394531 619.6875 585.375 585.613281 C 616.804688 565.007812 654.375 553.039062 694.753906 553.039062 C 700.890625 553.039062 706.988281 553.324219 712.996094 553.867188 C 746.429688 556.890625 777.46875 568.140625 804.113281 585.613281 C 828.035156 601.300781 848.40625 621.996094 863.667969 646.191406 C 881.601562 674.585938 892.574219 707.8125 894.183594 743.453125 "/>
</g>
<path style=" stroke:none;fill-rule:nonzero;fill:rgb(98.429871%,83.529663%,75.289917%);fill-opacity:1;" d="M 804.089844 585.613281 C 801.042969 608.65625 790.878906 629.480469 775.835938 645.753906 C 755.703125 667.578125 726.816406 681.265625 694.753906 681.265625 C 643.339844 681.265625 600.152344 646.125 587.898438 598.558594 C 586.808594 594.339844 585.960938 590.007812 585.375 585.613281 C 616.785156 565.007812 654.355469 553.039062 694.753906 553.039062 C 700.890625 553.039062 706.988281 553.300781 712.996094 553.867188 C 714.039062 553.953125 715.085938 554.0625 716.128906 554.171875 C 716.761719 554.238281 717.414062 554.300781 718.042969 554.390625 C 718.761719 554.453125 719.480469 554.5625 720.175781 554.648438 C 720.613281 554.695312 721.070312 554.757812 721.503906 554.824219 C 722.136719 554.890625 722.789062 555 723.441406 555.085938 C 723.941406 555.152344 724.445312 555.238281 724.964844 555.304688 C 725.402344 555.367188 725.835938 555.433594 726.273438 555.519531 C 727.011719 555.628906 727.753906 555.761719 728.492188 555.867188 C 731.648438 556.414062 734.828125 557.023438 737.917969 557.71875 C 738.636719 557.871094 739.332031 558.023438 740.007812 558.175781 C 740.421875 558.285156 740.8125 558.371094 741.203125 558.480469 C 741.945312 558.652344 742.707031 558.828125 743.425781 559.023438 C 743.578125 559.046875 743.6875 559.066406 743.773438 559.089844 C 744.6875 559.328125 745.625 559.566406 746.539062 559.828125 C 747.539062 560.066406 748.519531 560.351562 749.476562 560.632812 C 750.609375 560.9375 751.695312 561.265625 752.785156 561.589844 C 753.632812 561.851562 754.484375 562.113281 755.332031 562.398438 C 755.875 562.570312 756.441406 562.746094 756.964844 562.917969 C 757.878906 563.203125 758.769531 563.507812 759.621094 563.8125 C 760.707031 564.179688 761.773438 564.550781 762.839844 564.941406 C 762.929688 564.984375 762.992188 565.007812 763.058594 565.03125 C 764.167969 565.421875 765.257812 565.835938 766.347656 566.246094 C 767.152344 566.574219 767.976562 566.878906 768.804688 567.226562 C 770.980469 568.074219 773.070312 568.96875 775.160156 569.882812 L 777.902344 571.121094 C 778.730469 571.492188 779.558594 571.882812 780.386719 572.273438 C 781.148438 572.644531 781.886719 572.992188 782.628906 573.363281 C 783.324219 573.691406 784 574.039062 784.695312 574.386719 C 785.128906 574.601562 785.589844 574.820312 786.023438 575.058594 C 787.808594 575.972656 789.59375 576.929688 791.3125 577.890625 C 791.964844 578.238281 792.597656 578.605469 793.207031 578.957031 C 793.640625 579.195312 794.011719 579.410156 794.402344 579.628906 L 795.882812 580.5 C 796.382812 580.804688 796.90625 581.109375 797.40625 581.414062 C 797.710938 581.609375 798.039062 581.804688 798.363281 582 C 799.300781 582.546875 800.214844 583.109375 801.128906 583.699219 C 802.132812 584.328125 803.109375 584.960938 804.089844 585.613281 "/>
<path style=" stroke:none;fill-rule:nonzero;fill:rgb(98.429871%,83.529663%,75.289917%);fill-opacity:1;" d="M 733.195312 508.324219 L 733.195312 583.917969 C 733.195312 603.042969 717.542969 618.707031 698.410156 618.707031 L 691.074219 618.707031 C 671.941406 618.707031 656.3125 603.042969 656.3125 583.917969 L 656.3125 508.324219 C 656.3125 489.199219 671.941406 473.554688 691.074219 473.554688 L 698.410156 473.554688 C 717.542969 473.554688 733.195312 489.199219 733.195312 508.324219 "/>
<path style=" stroke:none;fill-rule:nonzero;fill:rgb(97.24884%,63.529968%,61.959839%);fill-opacity:1;" d="M 733.195312 508.324219 L 733.195312 548.320312 C 721.765625 554.671875 709.640625 558.371094 697.320312 558.371094 C 682.824219 558.371094 668.980469 554.324219 656.3125 547.296875 L 656.3125 508.324219 C 656.3125 489.199219 671.941406 473.554688 691.074219 473.554688 L 698.410156 473.554688 C 717.542969 473.554688 733.195312 489.199219 733.195312 508.324219 "/>
<path style=" stroke:none;fill-rule:nonzero;fill:rgb(98.429871%,83.529663%,75.289917%);fill-opacity:1;" d="M 813.253906 461.457031 C 813.253906 461.457031 836.023438 453.710938 850.585938 428.339844 C 866.386719 400.792969 856.460938 383.625 853.328125 379.902344 C 844.773438 369.742188 831.558594 376.269531 829.382812 379.902344 C 827.207031 383.539062 795.6875 440.761719 813.253906 461.457031 "/>
<path style=" stroke:none;fill-rule:nonzero;fill:rgb(97.24884%,63.529968%,61.959839%);fill-opacity:1;" d="M 835.585938 388.933594 C 835.585938 388.933594 850.019531 390.78125 844.945312 411.085938 C 839.851562 431.40625 826.511719 439.4375 808.378906 449.816406 C 790.246094 460.195312 817.453125 393.066406 835.585938 388.933594 "/>
<path style=" stroke:none;fill-rule:nonzero;fill:rgb(98.429871%,83.529663%,75.289917%);fill-opacity:1;" d="M 582.128906 461.457031 C 582.128906 461.457031 559.363281 453.710938 544.820312 428.339844 C 529.019531 400.792969 538.945312 383.625 542.078125 379.902344 C 550.632812 369.742188 563.847656 376.269531 566.023438 379.902344 C 568.199219 383.539062 599.71875 440.761719 582.128906 461.457031 "/>
<path style=" stroke:none;fill-rule:nonzero;fill:rgb(97.24884%,63.529968%,61.959839%);fill-opacity:1;" d="M 559.820312 388.933594 C 559.820312 388.933594 545.367188 390.78125 550.460938 411.085938 C 555.53125 431.40625 568.894531 439.4375 587.027344 449.816406 C 605.160156 460.195312 577.953125 393.066406 559.820312 388.933594 "/>
<path style=" stroke:none;fill-rule:nonzero;fill:rgb(98.429871%,83.529663%,75.289917%);fill-opacity:1;" d="M 835.585938 375.53125 C 835.585938 292.128906 773.984375 224.5 698.019531 224.5 C 622.03125 224.5 560.429688 292.128906 560.429688 375.53125 C 560.429688 458.933594 622.03125 546.121094 698.019531 546.121094 C 769.414062 546.121094 835.585938 458.234375 835.585938 375.53125 "/>
<path style=" stroke:none;fill-rule:nonzero;fill:rgb(98.039246%,77.249146%,39.608765%);fill-opacity:1;" d="M 710.382812 314.625 C 710.382812 314.625 736.285156 397.855469 833.628906 389.609375 C 833.628906 389.609375 850.605469 365.042969 844.859375 311.625 C 838.375 251.417969 785.042969 200.761719 698.019531 218.886719 C 698.019531 218.886719 690.074219 261.6875 710.382812 314.625 "/>
<path style=" stroke:none;fill-rule:nonzero;fill:rgb(98.039246%,77.249146%,39.608765%);fill-opacity:1;" d="M 714.734375 224.5 C 714.734375 224.5 718.371094 208.746094 705.3125 196.410156 C 692.25 184.074219 519.3125 209.398438 560.429688 375.53125 C 560.429688 375.53125 600.71875 276.179688 707.488281 267.476562 L 714.734375 224.5 "/>
</g>
</svg>
