<?xml version="1.0" encoding="UTF-8"?>
<svg xmlns="http://www.w3.org/2000/svg" xmlns:xlink="http://www.w3.org/1999/xlink" width="1440pt" height="809.999993pt" viewBox="0 0 1440 809.999993" version="1.2">
<g id="surface1">
<path style=" stroke:none;fill-rule:nonzero;fill:rgb(93.328857%,75.689697%,14.118958%);fill-opacity:1;" d="M 694.789062 83.046875 C 499.632812 81.058594 339.800781 237.75 337.796875 433.050781 C 335.804688 628.34375 492.410156 788.28125 687.566406 790.261719 C 882.75 792.265625 1042.558594 635.570312 1044.5625 440.28125 C 1046.5625 244.964844 889.972656 85.027344 694.789062 83.023438 "/>
<path style=" stroke:none;fill-rule:nonzero;fill:rgb(100%,100%,100%);fill-opacity:1;" d="M 893.730469 793.359375 C 876.113281 806.238281 857.230469 817.472656 837.316406 826.839844 C 834.304688 828.28125 831.242188 829.65625 828.183594 830.984375 C 784.933594 849.851562 737.09375 860.121094 686.871094 859.601562 C 636.625 859.085938 589.03125 847.847656 546.164062 828.101562 C 543.128906 826.707031 540.089844 825.265625 537.121094 823.777344 C 517.386719 813.984375 498.730469 802.363281 481.40625 789.148438 C 485.164062 720.808594 522.089844 661.476562 576.183594 626.753906 C 608.878906 605.769531 647.851562 593.789062 689.570312 594.195312 C 695.9375 594.261719 702.238281 594.621094 708.449219 595.253906 C 742.96875 598.71875 774.941406 610.722656 802.28125 629.074219 C 826.855469 645.554688 847.667969 667.195312 863.21875 692.390625 C 881.46875 721.957031 892.449219 756.453125 893.730469 793.359375 "/>
<path style=" stroke:none;fill-rule:nonzero;fill:rgb(72.938538%,36.079407%,12.939453%);fill-opacity:1;" d="M 802.261719 629.074219 C 798.886719 652.875 788.152344 674.332031 772.421875 690.996094 C 751.359375 713.378906 721.386719 727.226562 688.21875 726.886719 C 635.09375 726.347656 590.832031 689.53125 578.660156 640.175781 C 577.578125 635.804688 576.746094 631.324219 576.183594 626.753906 C 608.878906 605.769531 647.828125 593.789062 689.570312 594.21875 C 695.9375 594.285156 702.238281 594.621094 708.449219 595.253906 C 709.53125 595.367188 710.609375 595.476562 711.667969 595.613281 C 712.34375 595.679688 712.996094 595.75 713.648438 595.859375 C 714.390625 595.929688 715.132812 596.039062 715.851562 596.152344 C 716.304688 596.199219 716.773438 596.265625 717.226562 596.332031 C 717.878906 596.421875 718.554688 596.535156 719.226562 596.625 C 719.746094 596.714844 720.261719 596.804688 720.804688 596.875 C 721.253906 596.941406 721.703125 597.007812 722.152344 597.121094 C 722.917969 597.234375 723.660156 597.371094 724.425781 597.480469 C 727.6875 598.089844 730.953125 598.765625 734.167969 599.507812 C 734.890625 599.667969 735.609375 599.847656 736.328125 600.003906 C 736.734375 600.117188 737.140625 600.207031 737.542969 600.339844 C 738.308594 600.523438 739.097656 600.703125 739.839844 600.925781 C 739.976562 600.925781 740.085938 600.972656 740.175781 600.996094 C 741.144531 601.242188 742.113281 601.488281 743.058594 601.78125 C 744.09375 602.054688 745.082031 602.34375 746.074219 602.636719 C 747.21875 602.976562 748.34375 603.3125 749.492188 603.675781 C 750.371094 603.945312 751.25 604.238281 752.125 604.53125 C 752.6875 604.710938 753.25 604.914062 753.789062 605.09375 C 754.714844 605.40625 755.636719 605.722656 756.535156 606.039062 C 757.660156 606.445312 758.765625 606.828125 759.84375 607.253906 C 759.933594 607.300781 760 607.320312 760.070312 607.34375 C 761.214844 607.75 762.339844 608.199219 763.46875 608.628906 C 764.300781 608.988281 765.132812 609.304688 765.988281 609.664062 C 768.214844 610.585938 770.375 611.511719 772.535156 612.476562 C 773.480469 612.929688 774.425781 613.355469 775.347656 613.808594 C 776.203125 614.191406 777.058594 614.59375 777.914062 615.023438 C 778.679688 615.40625 779.441406 615.765625 780.207031 616.171875 C 780.929688 616.507812 781.625 616.890625 782.324219 617.253906 C 782.773438 617.476562 783.222656 617.703125 783.671875 617.949219 C 785.542969 618.917969 787.363281 619.933594 789.140625 620.945312 C 789.792969 621.304688 790.46875 621.710938 791.097656 622.070312 C 791.503906 622.320312 791.910156 622.542969 792.3125 622.769531 L 793.84375 623.691406 C 794.363281 624.007812 794.878906 624.34375 795.398438 624.660156 C 795.710938 624.863281 796.050781 625.066406 796.386719 625.269531 C 797.355469 625.855469 798.300781 626.4375 799.222656 627.070312 C 800.257812 627.722656 801.269531 628.398438 802.261719 629.074219 "/>
<path style=" stroke:none;fill-rule:nonzero;fill:rgb(72.938538%,36.079407%,12.939453%);fill-opacity:1;" d="M 740.402344 538.082031 L 739.390625 637 C 739.121094 662.015625 718.464844 682.304688 693.464844 682.054688 L 683.878906 681.945312 C 658.878906 681.695312 638.648438 661.003906 638.917969 635.988281 L 639.929688 537.070312 C 640.179688 512.050781 660.835938 491.808594 685.835938 492.078125 L 695.398438 492.171875 C 720.398438 492.417969 740.648438 513.089844 740.402344 538.082031 "/>
<path style=" stroke:none;fill-rule:nonzero;fill:rgb(61.959839%,22.349548%,16.859436%);fill-opacity:1;" d="M 740.402344 538.082031 L 739.863281 590.433594 C 724.832031 598.609375 708.945312 603.269531 692.855469 603.089844 C 673.886719 602.910156 655.839844 597.4375 639.414062 588.070312 L 639.929688 537.070312 C 640.179688 512.050781 660.835938 491.808594 685.835938 492.078125 L 695.398438 492.167969 C 720.398438 492.417969 740.648438 513.089844 740.402344 538.082031 "/>
<path style=" stroke:none;fill-rule:nonzero;fill:rgb(72.938538%,36.079407%,12.939453%);fill-opacity:1;" d="M 813.039062 500.703125 C 813.039062 500.703125 836.664062 492.914062 851.988281 466.839844 C 868.617188 438.488281 858.539062 420.609375 855.34375 416.738281 C 846.589844 406.132812 832.863281 412.753906 830.589844 416.46875 C 828.296875 420.207031 795.105469 479.085938 813.039062 500.703125 "/>
<path style=" stroke:none;fill-rule:nonzero;fill:rgb(61.959839%,22.349548%,16.859436%);fill-opacity:1;" d="M 836.914062 425.878906 C 836.914062 425.878906 851.808594 427.953125 846.339844 448.914062 C 840.875 469.878906 826.988281 478.050781 808.132812 488.613281 C 789.277344 499.148438 818.101562 429.957031 836.914062 425.878906 "/>
<path style=" stroke:none;fill-rule:nonzero;fill:rgb(72.938538%,36.079407%,12.939453%);fill-opacity:1;" d="M 574.15625 498.25 C 574.15625 498.25 550.6875 489.984375 535.925781 463.597656 C 519.859375 434.910156 530.300781 417.253906 533.585938 413.449219 C 542.542969 403.023438 556.132812 409.914062 558.339844 413.699219 C 560.542969 417.457031 592.542969 477.015625 574.15625 498.25 "/>
<path style=" stroke:none;fill-rule:nonzero;fill:rgb(61.959839%,22.349548%,16.859436%);fill-opacity:1;" d="M 551.835938 422.976562 C 551.835938 422.976562 536.894531 424.730469 541.933594 445.808594 C 546.953125 466.859375 560.679688 475.328125 579.3125 486.269531 C 597.964844 497.191406 570.535156 427.433594 551.835938 422.976562 "/>
<path style=" stroke:none;fill-rule:nonzero;fill:rgb(20.779419%,12.159729%,8.628845%);fill-opacity:1;" d="M 554.175781 242.523438 C 555.1875 258.824219 552.625 409.105469 552.625 409.105469 L 837.046875 412.007812 C 837.046875 412.007812 853.40625 281.589844 838.734375 246.554688 C 824.066406 211.496094 810.179688 245.136719 810.179688 245.136719 C 810.179688 245.136719 790.582031 214.332031 743.507812 234.304688 C 743.507812 234.304688 736.261719 214.714844 705.839844 220.792969 C 705.839844 220.792969 670.195312 185.148438 648.503906 214.195312 C 648.503906 214.195312 616.148438 189.089844 602.375 215.976562 C 602.375 215.976562 551.386719 198.570312 554.175781 242.523438 "/>
<path style=" stroke:none;fill-rule:nonzero;fill:rgb(72.938538%,36.079407%,12.939453%);fill-opacity:1;" d="M 837.046875 412.007812 C 837.925781 325.703125 774.964844 255.085938 696.433594 254.300781 C 617.878906 253.488281 553.5 322.796875 552.625 409.105469 C 551.746094 495.414062 614.480469 586.292969 693.011719 587.078125 C 766.84375 587.84375 836.171875 497.597656 837.046875 412.007812 "/>
<path style=" stroke:none;fill-rule:nonzero;fill:rgb(20.779419%,12.159729%,8.628845%);fill-opacity:1;" d="M 836.351562 280.308594 L 712.410156 237.367188 L 699.675781 237.253906 L 693.238281 237.164062 L 680.503906 237.050781 L 555.707031 277.425781 L 552.332031 409.105469 C 555.59375 379.832031 581.921875 303.589844 606.539062 316.222656 C 626.542969 326.488281 674.808594 331.105469 692.25 332.480469 L 692.25 332.863281 C 692.25 332.863281 693.417969 332.816406 695.464844 332.703125 C 697.511719 332.863281 698.683594 332.929688 698.683594 332.929688 L 698.707031 332.546875 C 716.167969 331.535156 764.523438 327.90625 784.707031 318.046875 C 809.597656 305.929688 834.371094 382.667969 837.046875 412.007812 L 836.351562 280.308594 "/>
</g>
</svg>
