<?xml version="1.0" encoding="UTF-8"?>
<svg xmlns="http://www.w3.org/2000/svg" xmlns:xlink="http://www.w3.org/1999/xlink" width="1440pt" height="809.999993pt" viewBox="0 0 1440 809.999993" version="1.2">
<defs>
<clipPath id="clip1">
  <path d="M 388.164062 43.375 L 1075.832031 43.375 L 1075.832031 732 L 388.164062 732 Z M 388.164062 43.375 "/>
</clipPath>
<clipPath id="clip2">
  <path d="M 531 540 L 933 540 L 933 798.625 L 531 798.625 Z M 531 540 "/>
</clipPath>
</defs>
<g id="surface1">
<g clip-path="url(#clip1)" clip-rule="nonzero">
<path style=" stroke:none;fill-rule:nonzero;fill:rgb(46.269226%,25.099182%,63.919067%);fill-opacity:1;" d="M 1075.859375 387.238281 C 1075.859375 577.21875 921.964844 731.210938 732.109375 731.210938 C 542.25 731.210938 388.355469 577.21875 388.355469 387.238281 C 388.359375 197.261719 542.25 43.265625 732.109375 43.265625 C 904.390625 43.269531 1047.054688 170.058594 1071.984375 335.484375 C 1074.546875 352.371094 1075.859375 369.652344 1075.859375 387.238281 "/>
</g>
<g clip-path="url(#clip2)" clip-rule="nonzero">
<path style=" stroke:none;fill-rule:nonzero;fill:rgb(100%,100%,100%);fill-opacity:1;" d="M 932.644531 732.152344 C 915.660156 744.855469 897.40625 755.980469 878.125 765.289062 C 875.191406 766.714844 872.234375 768.070312 869.28125 769.40625 C 827.386719 788.199219 780.984375 798.648438 732.109375 798.648438 C 683.230469 798.648438 636.828125 788.199219 594.957031 769.40625 C 591.960938 768.070312 589.003906 766.714844 586.09375 765.289062 C 566.808594 755.960938 548.554688 744.855469 531.570312 732.152344 C 534.546875 665.65625 569.851562 607.574219 622.144531 573.273438 C 653.726562 552.535156 691.507812 540.488281 732.109375 540.488281 C 738.300781 540.488281 744.429688 540.773438 750.449219 541.320312 C 784.09375 544.363281 815.304688 555.6875 842.074219 573.273438 C 866.152344 589.066406 886.617188 609.894531 901.980469 634.25 C 920.015625 662.832031 931.027344 696.277344 932.644531 732.152344 "/>
</g>
<path style=" stroke:none;fill-rule:nonzero;fill:rgb(98.429871%,83.529663%,75.289917%);fill-opacity:1;" d="M 842.074219 573.273438 C 839.007812 596.46875 828.789062 617.429688 813.664062 633.8125 C 793.394531 655.78125 764.371094 669.554688 732.109375 669.554688 C 680.429688 669.554688 637.003906 634.183594 624.683594 586.308594 C 623.585938 582.058594 622.734375 577.699219 622.144531 573.273438 C 653.726562 552.535156 691.507812 540.488281 732.109375 540.488281 C 738.300781 540.488281 744.429688 540.75 750.472656 541.320312 C 751.523438 541.40625 752.574219 541.515625 753.601562 541.625 C 754.257812 541.691406 754.914062 541.757812 755.550781 541.84375 C 756.273438 541.910156 756.996094 542.019531 757.695312 542.109375 C 758.132812 542.152344 758.59375 542.21875 759.03125 542.285156 C 759.664062 542.347656 760.320312 542.457031 760.980469 542.546875 C 761.480469 542.613281 761.984375 542.699219 762.511719 542.765625 C 762.949219 542.832031 763.386719 542.898438 763.824219 542.984375 C 764.566406 543.09375 765.289062 543.226562 766.035156 543.335938 C 769.230469 543.882812 772.402344 544.496094 775.535156 545.195312 L 777.636719 545.65625 C 778.03125 545.765625 778.445312 545.855469 778.839844 545.964844 C 779.582031 546.136719 780.347656 546.3125 781.070312 546.511719 C 781.203125 546.53125 781.3125 546.554688 781.398438 546.578125 C 782.339844 546.816406 783.28125 547.058594 784.203125 547.320312 C 785.207031 547.5625 786.195312 547.847656 787.15625 548.132812 C 788.273438 548.4375 789.367188 548.765625 790.484375 549.09375 C 791.335938 549.359375 792.191406 549.621094 793.042969 549.90625 C 793.589844 550.082031 794.160156 550.257812 794.6875 550.429688 C 795.582031 550.714844 796.480469 551.023438 797.355469 551.328125 C 798.449219 551.703125 799.523438 552.074219 800.597656 552.46875 C 800.683594 552.511719 800.75 552.535156 800.816406 552.554688 C 801.929688 552.949219 803.027344 553.367188 804.121094 553.78125 C 804.929688 554.109375 805.761719 554.417969 806.59375 554.769531 C 808.761719 555.621094 810.882812 556.519531 812.984375 557.441406 L 815.742188 558.6875 C 816.574219 559.0625 817.40625 559.453125 818.238281 559.847656 C 819.003906 560.222656 819.746094 560.570312 820.492188 560.945312 C 821.191406 561.273438 821.871094 561.625 822.550781 561.972656 C 822.988281 562.191406 823.445312 562.410156 823.886719 562.652344 C 825.703125 563.574219 827.472656 564.535156 829.226562 565.5 C 829.859375 565.851562 830.515625 566.222656 831.128906 566.574219 C 831.546875 566.8125 831.941406 567.03125 832.332031 567.253906 L 833.820312 568.128906 L 835.332031 569.046875 L 836.316406 569.640625 C 837.257812 570.1875 838.175781 570.757812 839.097656 571.347656 C 840.105469 571.984375 841.089844 572.617188 842.074219 573.273438 "/>
<path style=" stroke:none;fill-rule:nonzero;fill:rgb(98.429871%,83.529663%,75.289917%);fill-opacity:1;" d="M 780.984375 485.402344 L 780.984375 581.621094 C 780.984375 605.953125 761.089844 625.882812 736.769531 625.882812 L 727.445312 625.882812 C 703.128906 625.882812 683.253906 605.953125 683.253906 581.621094 L 683.253906 485.402344 C 683.253906 461.070312 703.128906 441.183594 727.445312 441.183594 L 736.769531 441.183594 C 761.089844 441.183594 780.984375 461.070312 780.984375 485.402344 "/>
<path style=" stroke:none;fill-rule:nonzero;fill:rgb(97.24884%,63.529968%,61.959839%);fill-opacity:1;" d="M 780.984375 485.402344 L 780.984375 536.328125 C 766.449219 544.410156 751.042969 549.09375 735.390625 549.09375 C 716.941406 549.09375 699.34375 543.96875 683.253906 535.011719 L 683.253906 485.402344 C 683.253906 461.070312 703.128906 441.183594 727.445312 441.183594 L 736.769531 441.183594 C 761.089844 441.183594 780.984375 461.070312 780.984375 485.402344 "/>
<path style=" stroke:none;fill-rule:nonzero;fill:rgb(98.429871%,83.529663%,75.289917%);fill-opacity:1;" d="M 851.289062 448.300781 C 851.289062 448.300781 874.183594 440.503906 888.804688 414.96875 C 904.695312 387.238281 894.714844 369.957031 891.5625 366.214844 C 882.960938 355.984375 869.675781 362.554688 867.484375 366.214844 C 865.296875 369.871094 833.601562 427.472656 851.289062 448.300781 "/>
<path style=" stroke:none;fill-rule:nonzero;fill:rgb(97.24884%,63.529968%,61.959839%);fill-opacity:1;" d="M 873.722656 375.300781 C 873.722656 375.300781 888.257812 377.164062 883.15625 397.597656 C 878.035156 418.054688 864.617188 426.136719 846.363281 436.585938 C 828.132812 447.03125 855.492188 379.464844 873.722656 375.300781 "/>
<path style=" stroke:none;fill-rule:nonzero;fill:rgb(98.429871%,83.529663%,75.289917%);fill-opacity:1;" d="M 618.882812 448.300781 C 618.882812 448.300781 595.988281 440.503906 581.367188 414.96875 C 565.453125 387.238281 575.433594 369.957031 578.585938 366.214844 C 587.1875 355.984375 600.472656 362.554688 602.664062 366.214844 C 604.851562 369.871094 636.566406 427.472656 618.882812 448.300781 "/>
<path style=" stroke:none;fill-rule:nonzero;fill:rgb(97.24884%,63.529968%,61.959839%);fill-opacity:1;" d="M 596.425781 375.300781 C 596.425781 375.300781 581.914062 377.164062 587.011719 397.597656 C 592.113281 418.054688 605.550781 426.136719 623.785156 436.585938 C 642.039062 447.03125 614.679688 379.464844 596.425781 375.300781 "/>
<path style=" stroke:none;fill-rule:nonzero;fill:rgb(98.429871%,83.529663%,75.289917%);fill-opacity:1;" d="M 873.722656 361.8125 C 873.722656 277.859375 811.800781 209.789062 735.390625 209.789062 C 659.003906 209.789062 597.039062 277.859375 597.039062 361.8125 C 597.039062 445.761719 659.003906 533.523438 735.390625 533.523438 C 807.183594 533.523438 873.722656 445.058594 873.722656 361.8125 "/>
<path style=" stroke:none;fill-rule:nonzero;fill:rgb(13.729858%,14.509583%,36.468506%);fill-opacity:1;" d="M 884.230469 310.363281 C 878.34375 255.671875 842.425781 194.433594 761.589844 191.105469 C 718.210938 176.605469 585.941406 189.246094 585.941406 360.738281 C 585.941406 360.738281 610.433594 380.472656 665.960938 390.898438 C 668.5 351.582031 687.699219 302.695312 687.699219 302.695312 C 682.050781 334.191406 682.3125 374.578125 682.839844 393.632812 C 729.570312 399.984375 794.554688 399.394531 880.683594 379.15625 C 880.683594 379.15625 890.03125 364.132812 884.230469 310.363281 "/>
</g>
</svg>
