<?xml version="1.0" encoding="utf-8"?>
<!-- Generator: Adobe Illustrator 24.0.1, SVG Export Plug-In . SVG Version: 6.00 Build 0)  -->
<svg version="1.1" id="Layer_1" xmlns="http://www.w3.org/2000/svg" xmlns:xlink="http://www.w3.org/1999/xlink" x="0px" y="0px"
	 viewBox="0 0 24 22" style="enable-background:new 0 0 24 22;" xml:space="preserve">
<style type="text/css">
	.st0{fill:none;}
	.st1{fill-rule:evenodd;clip-rule:evenodd;fill:#F90000;}
</style>
<title>phonelink_off</title>
<desc>Created with Sketch.</desc>
<g id="Icons">
	<g id="Outlined-_x2F_-Hardware-_x2F_-phonelink_x5F_off" transform="translate(544.000000, 98.000000)">
		<g>
			<path id="Shape" class="st0" d="M-544-99h24v24h-24V-99z M-544-99h24v24h-24V-99z"/>
			<path id="_xD83D__xDD39_-Icon-Color" class="st1" d="M-522-93v-2h-14.6l2,2H-522z M-520-80v-10c0-0.6-0.5-1-1-1h-6
				c-0.5,0-1,0.4-1,1v3.6l2,2V-89h4v7h-1.6l2.9,2.9C-520.3-79.2-520-79.6-520-80z M-541.9-97.5l-1.4,1.4l1.8,1.8
				c-0.3,0.3-0.5,0.8-0.5,1.3v11h-2v3h17.7l2.4,2.3l1.4-1.4L-541.9-97.5z M-540-82v-10.7l10.7,10.7H-540z"/>
		</g>
	</g>
</g>
</svg>
