<?xml version="1.0" encoding="UTF-8"?>
<svg xmlns="http://www.w3.org/2000/svg" xmlns:xlink="http://www.w3.org/1999/xlink" width="595.5pt" height="842.249979pt" viewBox="0 0 595.5 842.249979" version="1.2">
<defs>
<clipPath id="clip1">
  <path d="M 105.15625 225.820312 L 510.136719 225.820312 L 510.136719 630.796875 L 105.15625 630.796875 Z M 105.15625 225.820312 "/>
</clipPath>
</defs>
<g id="surface1">
<g clip-path="url(#clip1)" clip-rule="nonzero">
<path style=" stroke:none;fill-rule:nonzero;fill:rgb(54.899597%,32.159424%,100%);fill-opacity:1;" d="M 143.726562 225.820312 C 122.453125 225.820312 105.15625 243.117188 105.15625 264.390625 L 105.15625 534.375 C 105.15625 555.644531 122.453125 572.945312 143.726562 572.945312 L 251.488281 572.945312 C 246.550781 560.777344 243.144531 547.855469 241.46875 534.375 L 143.726562 534.375 L 143.726562 264.390625 L 224.179688 264.390625 C 232.144531 286.835938 253.570312 302.957031 278.71875 302.957031 C 303.867188 302.957031 325.292969 286.835938 333.257812 264.390625 L 413.710938 264.390625 L 413.710938 362.128906 C 427.191406 363.808594 440.113281 367.214844 452.28125 372.148438 L 452.28125 264.390625 C 452.28125 243.117188 434.984375 225.820312 413.710938 225.820312 L 298.003906 225.820312 L 298.003906 245.105469 C 298.003906 255.730469 289.34375 264.390625 278.71875 264.390625 C 268.09375 264.390625 259.433594 255.730469 259.433594 245.105469 L 259.433594 225.820312 Z M 394.425781 399.382812 C 330.789062 399.382812 278.71875 451.449219 278.71875 515.089844 C 278.71875 578.730469 330.789062 630.796875 394.425781 630.796875 C 458.066406 630.796875 510.136719 578.730469 510.136719 515.089844 C 510.136719 451.449219 458.066406 399.382812 394.425781 399.382812 Z M 394.425781 437.953125 C 436.855469 437.953125 471.566406 472.664062 471.566406 515.089844 C 471.566406 557.515625 436.855469 592.230469 394.425781 592.230469 C 352 592.230469 317.289062 557.515625 317.289062 515.089844 C 317.289062 472.664062 352 437.953125 394.425781 437.953125 Z M 402.675781 459.496094 L 371.828125 517.765625 L 412.28125 558.21875 L 432.734375 537.765625 L 407.382812 512.417969 L 428.25 473.019531 Z M 402.675781 459.496094 "/>
</g>
</g>
</svg>
