<?xml version="1.0" encoding="UTF-8"?>
<svg xmlns="http://www.w3.org/2000/svg" xmlns:xlink="http://www.w3.org/1999/xlink" width="1440pt" height="809.999993pt" viewBox="0 0 1440 809.999993" version="1.2">
<defs>
<clipPath id="clip1">
  <path d="M 414 259 L 606 259 L 606 532 L 414 532 Z M 414 259 "/>
</clipPath>
<clipPath id="clip2">
  <path d="M 600.691406 254.011719 L 666.085938 326.324219 L 425.777344 543.644531 L 360.382812 471.328125 Z M 600.691406 254.011719 "/>
</clipPath>
<clipPath id="clip3">
  <path d="M 600.691406 254.011719 L 666.085938 326.324219 L 425.777344 543.644531 L 360.382812 471.328125 Z M 600.691406 254.011719 "/>
</clipPath>
<clipPath id="clip4">
  <path d="M 600.691406 254.011719 L 666.292969 326.550781 L 425.984375 543.871094 L 360.382812 471.328125 Z M 600.691406 254.011719 "/>
</clipPath>
<clipPath id="clip5">
  <path d="M 798 262 L 1017 262 L 1017 513 L 798 513 Z M 798 262 "/>
</clipPath>
<clipPath id="clip6">
  <path d="M 792.371094 265.414062 L 878.363281 219.464844 L 1031.0625 505.226562 L 945.066406 551.175781 Z M 792.371094 265.414062 "/>
</clipPath>
<clipPath id="clip7">
  <path d="M 792.371094 265.414062 L 878.363281 219.464844 L 1031.0625 505.226562 L 945.066406 551.175781 Z M 792.371094 265.414062 "/>
</clipPath>
<clipPath id="clip8">
  <path d="M 792.371094 265.414062 L 878.632812 219.320312 L 1031.332031 505.082031 L 945.066406 551.175781 Z M 792.371094 265.414062 "/>
</clipPath>
<clipPath id="clip9">
  <path d="M 667 158.054688 L 766 158.054688 L 766 242 L 667 242 Z M 667 158.054688 "/>
</clipPath>
<clipPath id="clip10">
  <path d="M 372 613 L 912 613 L 912 764 L 372 764 Z M 372 613 "/>
</clipPath>
<clipPath id="clip11">
  <path d="M 911.574219 608.746094 L 908.730469 769.222656 L 372.566406 759.71875 L 375.410156 599.246094 Z M 911.574219 608.746094 "/>
</clipPath>
<clipPath id="clip12">
  <path d="M 911.574219 608.746094 L 908.730469 769.222656 L 372.566406 759.71875 L 375.410156 599.246094 Z M 911.574219 608.746094 "/>
</clipPath>
<clipPath id="clip13">
  <path d="M 911.574219 608.746094 L 908.738281 768.953125 L 372.230469 759.445312 L 375.070312 599.238281 Z M 911.574219 608.746094 "/>
</clipPath>
<clipPath id="clip14">
  <path d="M 1116 722 L 1144 722 L 1144 727.574219 L 1116 727.574219 Z M 1116 722 "/>
</clipPath>
<clipPath id="clip15">
  <path d="M 256 729 L 445 729 L 445 769.5 L 256 769.5 Z M 256 729 "/>
</clipPath>
<clipPath id="clip16">
  <path d="M 195.941406 601 L 279 601 L 279 748 L 195.941406 748 Z M 195.941406 601 "/>
</clipPath>
<clipPath id="clip17">
  <path d="M 196 650 L 395 650 L 395 769.5 L 196 769.5 Z M 196 650 "/>
</clipPath>
<clipPath id="clip18">
  <path d="M 456 736 L 475.519531 736 L 475.519531 769 L 456 769 Z M 456 736 "/>
</clipPath>
</defs>
<g id="surface1">
<g clip-path="url(#clip1)" clip-rule="nonzero">
<g clip-path="url(#clip2)" clip-rule="nonzero">
<g clip-path="url(#clip3)" clip-rule="nonzero">
<g clip-path="url(#clip4)" clip-rule="nonzero">
<path style=" stroke:none;fill-rule:nonzero;fill:rgb(0%,0%,0%);fill-opacity:1;" d="M 605.171875 259.425781 C 577.542969 275.105469 553.125 299.90625 546.730469 332.023438 C 543.710938 347.351562 546.421875 363.03125 552.5625 377.226562 C 555.175781 383.25 561.558594 396.21875 569.988281 391.886719 C 579.613281 386.957031 574.800781 375.3125 565.429688 375.203125 C 556.0625 375.09375 551.785156 385.699219 553.269531 393.660156 C 554.722656 401.128906 565.800781 413.230469 559.175781 420.011719 C 553.742188 425.558594 542.171875 425.6875 535.050781 426.882812 C 524.921875 428.308594 515.113281 430.910156 505.621094 434.6875 C 496.359375 438.675781 485.828125 446.007812 483.554688 456.421875 C 481.503906 466.066406 489.832031 476.820312 481.890625 485.183594 C 473.707031 493.8125 459.25 497.363281 448.964844 502.867188 C 436.121094 509.742188 424.378906 520.515625 414.929688 531.453125 C 414.820312 531.550781 414.984375 531.734375 415.082031 531.625 C 429.652344 515.417969 446.757812 504.625 466.246094 495.449219 C 477.273438 490.257812 487.703125 485.414062 486.078125 471.675781 C 484.996094 462.449219 482.710938 455.34375 489.433594 447.441406 C 497.699219 437.769531 510.957031 433.398438 522.90625 430.625 C 532.3125 428.4375 542 427.621094 551.378906 425.285156 C 555.402344 424.28125 559.789062 422.527344 561.996094 418.886719 C 565.605469 412.96875 558.785156 403.882812 556.550781 398.683594 C 554.054688 392.886719 553.511719 387.054688 556.953125 381.550781 C 560.207031 376.417969 569.386719 374.367188 573.222656 380.25 C 575.933594 384.378906 570.648438 391.222656 566.496094 391.355469 C 563.804688 391.441406 561.445312 388.59375 559.855469 386.761719 C 548.980469 374.300781 545.875 353.890625 547.167969 338.125 C 548.652344 319.511719 558.070312 302.480469 569.957031 288.589844 C 580.109375 276.96875 591.910156 267.375 605.359375 259.800781 C 605.550781 259.628906 605.40625 259.300781 605.183594 259.4375 Z M 605.171875 259.425781 "/>
</g>
</g>
</g>
</g>
<g clip-path="url(#clip5)" clip-rule="nonzero">
<g clip-path="url(#clip6)" clip-rule="nonzero">
<g clip-path="url(#clip7)" clip-rule="nonzero">
<g clip-path="url(#clip8)" clip-rule="nonzero">
<path style=" stroke:none;fill-rule:nonzero;fill:rgb(0%,0%,0%);fill-opacity:1;" d="M 798.710938 262.378906 C 807.234375 292.980469 825.390625 322.671875 855.007812 336.652344 C 869.148438 343.289062 885.015625 344.457031 900.277344 341.933594 C 906.75 340.859375 920.878906 337.800781 918.71875 328.574219 C 916.261719 318.039062 903.800781 319.894531 901.425781 328.957031 C 899.054688 338.019531 908.308594 344.738281 916.394531 345.222656 C 923.988281 345.621094 938.414062 337.804688 943.390625 345.875 C 947.457031 352.484375 944.78125 363.746094 944.21875 370.941406 C 943.152344 381.113281 943.300781 391.261719 944.667969 401.386719 C 946.296875 411.335938 950.859375 423.332031 960.414062 428.054688 C 969.277344 432.382812 981.722656 426.902344 987.917969 436.632812 C 994.3125 446.660156 994.253906 461.546875 997.109375 472.859375 C 1000.671875 486.988281 1008.28125 500.984375 1016.605469 512.804688 C 1016.675781 512.933594 1016.890625 512.816406 1016.808594 512.695312 C 1004.609375 494.636719 998.277344 475.425781 994.089844 454.296875 C 991.726562 442.339844 989.550781 431.050781 975.828125 429.304688 C 966.613281 428.121094 959.164062 428.613281 953.125 420.179688 C 945.742188 409.816406 944.707031 395.898438 944.90625 383.632812 C 945.0625 373.976562 946.617188 364.378906 946.617188 354.714844 C 946.617188 350.566406 945.980469 345.882812 942.980469 342.863281 C 938.113281 337.929688 927.644531 342.347656 922.0625 343.257812 C 915.832031 344.277344 910.042969 343.390625 905.535156 338.71875 C 901.339844 334.320312 901.574219 324.917969 908.207031 322.621094 C 912.875 320.988281 918.234375 327.773438 917.359375 331.832031 C 916.789062 334.464844 913.457031 336.066406 911.292969 337.164062 C 896.570312 344.703125 876.015625 342.773438 861.03125 337.703125 C 843.332031 331.757812 829.085938 318.5 818.484375 303.601562 C 809.667969 290.941406 803.210938 277.167969 799.121094 262.285156 C 799 262.058594 798.644531 262.117188 798.722656 262.371094 Z M 798.710938 262.378906 "/>
</g>
</g>
</g>
</g>
<path style=" stroke:none;fill-rule:nonzero;fill:rgb(94.509888%,84.709167%,97.24884%);fill-opacity:1;" d="M 720.3125 40.5 C 717.605469 40.5 714.898438 40.566406 712.195312 40.699219 C 709.492188 40.832031 706.792969 41.03125 704.097656 41.296875 C 701.402344 41.5625 698.714844 41.894531 696.035156 42.289062 C 693.359375 42.6875 690.691406 43.152344 688.035156 43.679688 C 685.378906 44.207031 682.738281 44.800781 680.113281 45.457031 C 677.484375 46.117188 674.875 46.839844 672.285156 47.625 C 669.695312 48.410156 667.125 49.257812 664.574219 50.171875 C 662.023438 51.085938 659.5 52.058594 656.996094 53.09375 C 654.496094 54.128906 652.019531 55.226562 649.574219 56.386719 C 647.125 57.542969 644.707031 58.761719 642.320312 60.035156 C 639.929688 61.3125 637.574219 62.648438 635.253906 64.039062 C 632.929688 65.429688 630.644531 66.878906 628.390625 68.382812 C 626.140625 69.886719 623.925781 71.449219 621.753906 73.058594 C 619.578125 74.671875 617.445312 76.339844 615.351562 78.054688 C 613.257812 79.773438 611.207031 81.542969 609.203125 83.359375 C 607.195312 85.179688 605.234375 87.046875 603.320312 88.960938 C 601.40625 90.875 599.539062 92.835938 597.71875 94.84375 C 595.902344 96.847656 594.132812 98.898438 592.414062 100.992188 C 590.699219 103.085938 589.03125 105.21875 587.417969 107.394531 C 585.804688 109.570312 584.246094 111.78125 582.742188 114.03125 C 581.238281 116.285156 579.789062 118.570312 578.398438 120.894531 C 577.007812 123.214844 575.671875 125.570312 574.394531 127.960938 C 573.121094 130.347656 571.902344 132.765625 570.746094 135.214844 C 569.585938 137.660156 568.488281 140.136719 567.453125 142.636719 C 566.417969 145.140625 565.441406 147.664062 564.53125 150.214844 C 563.617188 152.765625 562.769531 155.335938 561.984375 157.925781 C 561.199219 160.515625 560.476562 163.125 559.816406 165.753906 C 559.160156 168.378906 558.566406 171.019531 558.039062 173.675781 C 557.511719 176.332031 557.046875 179 556.648438 181.679688 C 556.253906 184.355469 555.921875 187.042969 555.65625 189.738281 C 555.390625 192.433594 555.191406 195.132812 555.058594 197.835938 C 554.925781 200.542969 554.859375 203.246094 554.859375 205.953125 C 554.859375 208.664062 554.925781 211.367188 555.058594 214.074219 C 555.191406 216.777344 555.390625 219.476562 555.65625 222.171875 C 555.921875 224.867188 556.253906 227.554688 556.648438 230.230469 C 557.046875 232.910156 557.511719 235.578125 558.039062 238.234375 C 558.566406 240.890625 559.160156 243.53125 559.816406 246.15625 C 560.476562 248.785156 561.199219 251.394531 561.984375 253.984375 C 562.769531 256.574219 563.617188 259.144531 564.53125 261.695312 C 565.441406 264.246094 566.417969 266.769531 567.453125 269.273438 C 568.488281 271.773438 569.585938 274.25 570.746094 276.695312 C 571.902344 279.144531 573.121094 281.5625 574.394531 283.949219 C 575.671875 286.339844 577.007812 288.695312 578.398438 291.015625 C 579.789062 293.339844 581.238281 295.625 582.742188 297.875 C 584.246094 300.128906 585.804688 302.339844 587.417969 304.515625 C 589.03125 306.691406 590.699219 308.824219 592.414062 310.917969 C 594.132812 313.011719 595.902344 315.0625 597.71875 317.066406 C 599.539062 319.074219 601.40625 321.035156 603.320312 322.949219 C 605.234375 324.863281 607.195312 326.730469 609.203125 328.550781 C 611.207031 330.367188 613.257812 332.136719 615.351562 333.851562 C 617.445312 335.570312 619.578125 337.238281 621.753906 338.851562 C 623.925781 340.460938 626.140625 342.019531 628.390625 343.527344 C 630.644531 345.03125 632.929688 346.476562 635.253906 347.871094 C 637.574219 349.261719 639.929688 350.597656 642.320312 351.875 C 644.707031 353.148438 647.125 354.367188 649.574219 355.523438 C 652.019531 356.683594 654.496094 357.78125 656.996094 358.816406 C 659.5 359.851562 662.023438 360.824219 664.574219 361.738281 C 667.125 362.652344 669.695312 363.5 672.285156 364.285156 C 674.875 365.070312 677.484375 365.792969 680.113281 366.453125 C 682.738281 367.109375 685.378906 367.703125 688.035156 368.230469 C 690.691406 368.757812 693.359375 369.222656 696.035156 369.621094 C 698.714844 370.015625 701.402344 370.347656 704.097656 370.613281 C 706.792969 370.878906 709.492188 371.078125 712.195312 371.210938 C 714.898438 371.34375 717.605469 371.410156 720.3125 371.410156 C 723.023438 371.410156 725.726562 371.34375 728.433594 371.210938 C 731.136719 371.078125 733.835938 370.878906 736.53125 370.613281 C 739.226562 370.347656 741.914062 370.015625 744.589844 369.621094 C 747.269531 369.222656 749.9375 368.757812 752.59375 368.230469 C 755.25 367.703125 757.890625 367.109375 760.515625 366.453125 C 763.144531 365.792969 765.75 365.070312 768.34375 364.285156 C 770.933594 363.5 773.503906 362.652344 776.054688 361.738281 C 778.605469 360.824219 781.128906 359.851562 783.632812 358.816406 C 786.132812 357.777344 788.605469 356.683594 791.054688 355.523438 C 793.503906 354.367188 795.921875 353.148438 798.308594 351.875 C 800.695312 350.597656 803.050781 349.261719 805.375 347.871094 C 807.699219 346.476562 809.984375 345.03125 812.234375 343.527344 C 814.488281 342.019531 816.699219 340.460938 818.875 338.851562 C 821.050781 337.238281 823.183594 335.570312 825.277344 333.851562 C 827.371094 332.136719 829.421875 330.367188 831.425781 328.550781 C 833.433594 326.730469 835.394531 324.863281 837.308594 322.949219 C 839.222656 321.035156 841.089844 319.074219 842.90625 317.066406 C 844.726562 315.0625 846.496094 313.011719 848.210938 310.917969 C 849.929688 308.824219 851.59375 306.691406 853.207031 304.515625 C 854.820312 302.339844 856.378906 300.128906 857.886719 297.875 C 859.390625 295.625 860.835938 293.339844 862.230469 291.015625 C 863.621094 288.695312 864.957031 286.339844 866.230469 283.949219 C 867.507812 281.5625 868.726562 279.144531 869.882812 276.695312 C 871.042969 274.25 872.136719 271.773438 873.175781 269.273438 C 874.210938 266.769531 875.183594 264.246094 876.097656 261.695312 C 877.007812 259.144531 877.859375 256.574219 878.644531 253.984375 C 879.429688 251.394531 880.152344 248.785156 880.8125 246.15625 C 881.46875 243.53125 882.0625 240.890625 882.589844 238.234375 C 883.117188 235.578125 883.582031 232.910156 883.976562 230.230469 C 884.375 227.554688 884.707031 224.867188 884.972656 222.171875 C 885.238281 219.476562 885.4375 216.777344 885.570312 214.074219 C 885.703125 211.367188 885.769531 208.664062 885.769531 205.953125 C 885.769531 203.246094 885.703125 200.542969 885.570312 197.835938 C 885.4375 195.132812 885.238281 192.433594 884.972656 189.738281 C 884.707031 187.042969 884.375 184.355469 883.976562 181.679688 C 883.582031 179 883.117188 176.332031 882.589844 173.675781 C 882.0625 171.019531 881.46875 168.378906 880.808594 165.753906 C 880.152344 163.125 879.429688 160.515625 878.644531 157.925781 C 877.859375 155.335938 877.007812 152.765625 876.097656 150.214844 C 875.183594 147.664062 874.210938 145.140625 873.175781 142.636719 C 872.136719 140.136719 871.042969 137.660156 869.882812 135.214844 C 868.726562 132.765625 867.507812 130.347656 866.230469 127.960938 C 864.957031 125.570312 863.621094 123.214844 862.230469 120.894531 C 860.835938 118.570312 859.390625 116.285156 857.886719 114.03125 C 856.378906 111.78125 854.820312 109.570312 853.207031 107.394531 C 851.59375 105.21875 849.929688 103.085938 848.210938 100.992188 C 846.496094 98.898438 844.726562 96.847656 842.90625 94.84375 C 841.089844 92.835938 839.222656 90.875 837.308594 88.960938 C 835.394531 87.046875 833.433594 85.179688 831.425781 83.359375 C 829.421875 81.542969 827.371094 79.773438 825.277344 78.054688 C 823.183594 76.339844 821.050781 74.671875 818.875 73.058594 C 816.699219 71.449219 814.488281 69.886719 812.234375 68.382812 C 809.984375 66.878906 807.699219 65.429688 805.375 64.039062 C 803.050781 62.648438 800.695312 61.3125 798.308594 60.035156 C 795.921875 58.761719 793.503906 57.542969 791.054688 56.386719 C 788.605469 55.226562 786.132812 54.128906 783.632812 53.09375 C 781.128906 52.058594 778.605469 51.085938 776.054688 50.171875 C 773.503906 49.257812 770.933594 48.410156 768.34375 47.625 C 765.75 46.839844 763.144531 46.117188 760.515625 45.457031 C 757.890625 44.800781 755.25 44.207031 752.59375 43.679688 C 749.9375 43.152344 747.269531 42.6875 744.589844 42.289062 C 741.914062 41.894531 739.226562 41.5625 736.53125 41.296875 C 733.835938 41.03125 731.136719 40.832031 728.433594 40.699219 C 725.726562 40.566406 723.023438 40.5 720.3125 40.5 Z M 720.3125 40.5 "/>
<g clip-path="url(#clip9)" clip-rule="nonzero">
<path style=" stroke:none;fill-rule:nonzero;fill:rgb(100%,43.139648%,54.508972%);fill-opacity:1;" d="M 761.789062 203.71875 C 757.585938 197.613281 745.359375 192.523438 743.320312 185.65625 C 737.84375 172.679688 730.585938 158.054688 714.410156 158.6875 C 688.042969 159.832031 699.761719 187.308594 683.96875 199.265625 C 679.507812 202.699219 673.523438 204.226562 669.957031 208.679688 C 665.878906 214.019531 666.898438 222.035156 670.847656 227.375 C 674.796875 232.71875 681.292969 235.898438 687.660156 237.808594 C 701.925781 242.132812 717.082031 241.496094 731.859375 240.476562 C 738.738281 239.96875 745.613281 239.460938 751.855469 236.664062 C 760.136719 232.972656 763.191406 227.375 763.320312 221.015625 C 763.445312 220.761719 763.574219 220.636719 763.703125 220.378906 C 767.394531 215.164062 765.484375 209.058594 761.789062 203.71875 Z M 761.789062 203.71875 "/>
</g>
<path style=" stroke:none;fill-rule:nonzero;fill:rgb(100%,43.139648%,54.508972%);fill-opacity:1;" d="M 742.429688 182.476562 C 742.558594 182.855469 742.683594 183.367188 742.8125 183.746094 C 742.941406 184.382812 743.195312 185.019531 743.320312 185.65625 C 743.578125 186.164062 743.703125 186.671875 743.957031 187.054688 Z M 742.429688 182.476562 "/>
<path style=" stroke:none;fill-rule:nonzero;fill:rgb(100%,67.449951%,91.758728%);fill-opacity:1;" d="M 641.679688 244.675781 C 641.425781 244.546875 638.878906 246.710938 638.621094 246.582031 C 621.171875 267.316406 597.863281 309.167969 602.066406 337.277344 C 602.703125 341.601562 657.347656 322.777344 665.625 296.191406 C 672.121094 274.949219 657.855469 255.488281 641.679688 244.675781 Z M 641.679688 244.675781 "/>
<path style=" stroke:none;fill-rule:nonzero;fill:rgb(100%,67.449951%,91.758728%);fill-opacity:1;" d="M 829.933594 315.273438 C 821.78125 287.921875 810.574219 263.882812 790.449219 241.878906 L 762.300781 262.230469 C 766.503906 277.621094 772.234375 293.519531 783.0625 306.242188 C 793.886719 319.085938 810.957031 328.117188 825.859375 325.320312 C 827.261719 325.066406 828.789062 324.558594 829.808594 323.539062 C 831.464844 321.503906 830.699219 318.070312 829.933594 315.273438 Z M 829.933594 315.273438 "/>
<path style=" stroke:none;fill-rule:nonzero;fill:rgb(18.818665%,57.649231%,81.568909%);fill-opacity:1;" d="M 740.011719 320.359375 C 739.375 320.488281 738.609375 320.613281 737.972656 320.742188 C 691.992188 327.355469 649.066406 310.691406 602.066406 311.074219 C 589.328125 311.203125 569.332031 314.761719 567.421875 327.226562 C 566.019531 336.515625 575.957031 347.960938 583.597656 353.429688 C 625.628906 383.832031 673.523438 398.714844 725.363281 395.789062 C 777.203125 392.863281 827.640625 371.492188 865.980469 336.515625 C 869.039062 333.714844 872.222656 330.535156 872.984375 326.464844 C 875.023438 316.160156 861.90625 309.929688 851.460938 308.277344 C 831.082031 305.09375 810.320312 304.839844 789.8125 307.257812 C 771.980469 309.421875 757.332031 317.433594 740.011719 320.359375 Z M 740.011719 320.359375 "/>
<path style=" stroke:none;fill-rule:nonzero;fill:rgb(42.349243%,80.778503%,100%);fill-opacity:1;" d="M 770.199219 221.015625 C 767.394531 218.980469 764.339844 217.074219 761.027344 216.183594 C 757.96875 214.273438 754.277344 212.75 750.453125 211.222656 C 739.628906 206.898438 726.636719 203.84375 714.789062 203.84375 C 705.746094 203.84375 692.882812 206.769531 684.347656 211.984375 C 682.566406 212.621094 680.78125 213.382812 679.382812 214.019531 C 672.121094 217.453125 665.496094 222.035156 659.257812 226.996094 C 652.507812 232.464844 646.265625 238.441406 640.40625 244.929688 C 643.335938 250.144531 647.15625 254.851562 651.742188 258.796875 C 656.328125 262.867188 661.675781 266.046875 667.152344 268.714844 C 669.445312 267.570312 671.738281 266.300781 674.03125 265.027344 C 676.070312 270.878906 678.488281 276.601562 681.039062 282.074219 C 684.09375 288.8125 685.878906 294.539062 686.132812 302.042969 C 686.257812 305.984375 686.132812 310.183594 688.425781 313.492188 C 691.226562 317.6875 695.683594 317.6875 700.269531 317.6875 C 707.019531 317.5625 713.773438 318.070312 720.523438 318.324219 C 729.691406 318.707031 742.304688 316.796875 750.835938 312.347656 C 751.472656 312.089844 751.984375 311.582031 752.367188 311.203125 C 753.382812 310.820312 754.277344 310.054688 754.53125 308.785156 C 756.824219 296.191406 758.734375 283.980469 761.664062 271.386719 C 762.171875 269.226562 762.808594 267.191406 763.445312 265.027344 C 764.71875 266.171875 765.992188 267.316406 767.269531 268.589844 C 777.96875 262.738281 787.648438 254.722656 795.164062 245.183594 C 787.648438 236.535156 779.75 227.886719 770.199219 221.015625 Z M 770.199219 221.015625 "/>
<path style=" stroke:none;fill-rule:nonzero;fill:rgb(89.408875%,91.369629%,100%);fill-opacity:1;" d="M 771.980469 385.359375 C 753.382812 378.234375 734.535156 371.875 715.300781 366.152344 C 713.136719 373.910156 710.84375 381.667969 708.675781 389.554688 C 710.585938 390.445312 712.371094 391.464844 714.027344 392.480469 C 719.757812 396.171875 726.382812 398.078125 733.132812 397.824219 C 745.871094 397.441406 758.605469 396.425781 771.214844 394.644531 C 773.765625 394.261719 776.820312 393.5 777.457031 391.082031 C 778.222656 388.539062 774.78125 386.503906 771.980469 385.359375 Z M 771.980469 385.359375 "/>
<path style=" stroke:none;fill-rule:nonzero;fill:rgb(43.528748%,14.898682%,46.669006%);fill-opacity:1;" d="M 780.386719 329.644531 C 773 333.078125 759.371094 330.535156 751.726562 330.027344 C 738.480469 329.261719 729.183594 330.28125 715.9375 331.042969 C 703.199219 331.808594 690.335938 332.316406 677.597656 332.0625 C 671.613281 331.933594 659.382812 335.242188 654.035156 332.445312 C 641.042969 325.574219 647.539062 298.609375 646.902344 287.289062 C 646.390625 280.164062 644.226562 273.167969 643.082031 266.046875 C 642.1875 260.449219 640.53125 241.878906 650.339844 241.878906 C 679.507812 241.621094 708.550781 239.585938 737.84375 240.097656 C 749.691406 240.351562 779.621094 235.007812 784.589844 247.472656 C 788.539062 257.140625 785.101562 272.914062 786.117188 283.472656 C 787.390625 296.066406 795.289062 317.5625 783.699219 327.484375 C 782.679688 328.375 781.660156 329.007812 780.386719 329.644531 Z M 780.386719 329.644531 "/>
<path style=" stroke:none;fill-rule:nonzero;fill:rgb(89.408875%,91.369629%,100%);fill-opacity:1;" d="M 719.886719 285.507812 C 719.886719 285.800781 719.855469 286.089844 719.800781 286.375 C 719.742188 286.660156 719.660156 286.941406 719.546875 287.210938 C 719.433594 287.480469 719.296875 287.738281 719.132812 287.980469 C 718.972656 288.222656 718.785156 288.449219 718.578125 288.65625 C 718.371094 288.863281 718.148438 289.046875 717.90625 289.207031 C 717.660156 289.371094 717.402344 289.507812 717.132812 289.621094 C 716.863281 289.730469 716.585938 289.816406 716.296875 289.875 C 716.011719 289.929688 715.71875 289.957031 715.425781 289.957031 C 715.136719 289.957031 714.84375 289.929688 714.558594 289.875 C 714.269531 289.816406 713.992188 289.730469 713.722656 289.621094 C 713.449219 289.507812 713.195312 289.371094 712.949219 289.207031 C 712.707031 289.046875 712.480469 288.863281 712.273438 288.65625 C 712.066406 288.449219 711.882812 288.222656 711.722656 287.980469 C 711.558594 287.738281 711.421875 287.480469 711.308594 287.210938 C 711.195312 286.941406 711.113281 286.660156 711.054688 286.375 C 711 286.089844 710.96875 285.800781 710.96875 285.507812 C 710.96875 285.214844 711 284.925781 711.054688 284.636719 C 711.113281 284.351562 711.195312 284.074219 711.308594 283.804688 C 711.421875 283.53125 711.558594 283.277344 711.722656 283.035156 C 711.882812 282.789062 712.066406 282.566406 712.273438 282.359375 C 712.480469 282.152344 712.707031 281.96875 712.949219 281.804688 C 713.195312 281.644531 713.449219 281.503906 713.722656 281.394531 C 713.992188 281.28125 714.269531 281.199219 714.558594 281.140625 C 714.84375 281.082031 715.136719 281.054688 715.425781 281.054688 C 715.71875 281.054688 716.011719 281.082031 716.296875 281.140625 C 716.585938 281.199219 716.863281 281.28125 717.132812 281.394531 C 717.402344 281.503906 717.660156 281.644531 717.90625 281.804688 C 718.148438 281.96875 718.371094 282.152344 718.578125 282.359375 C 718.785156 282.566406 718.972656 282.789062 719.132812 283.035156 C 719.296875 283.277344 719.433594 283.53125 719.546875 283.804688 C 719.660156 284.074219 719.742188 284.351562 719.800781 284.636719 C 719.855469 284.925781 719.886719 285.214844 719.886719 285.507812 Z M 719.886719 285.507812 "/>
<path style=" stroke:none;fill-rule:nonzero;fill:rgb(43.528748%,14.898682%,46.669006%);fill-opacity:1;" d="M 721.285156 388.410156 C 722.304688 383.703125 724.597656 379.378906 728.039062 376.074219 "/>
<path style=" stroke:none;fill-rule:nonzero;fill:rgb(43.528748%,14.898682%,46.669006%);fill-opacity:1;" d="M 731.730469 390.574219 C 732.75 385.867188 735.042969 381.542969 738.480469 378.234375 "/>
<path style=" stroke:none;fill-rule:nonzero;fill:rgb(100%,67.449951%,91.758728%);fill-opacity:1;" d="M 728.929688 180.820312 C 728.929688 180.183594 728.929688 179.421875 728.800781 178.785156 L 702.5625 178.785156 C 702.5625 179.421875 702.4375 180.183594 702.4375 180.820312 C 702.4375 188.582031 705.746094 195.324219 710.460938 198.121094 C 710.078125 201.554688 709.824219 204.863281 709.824219 208.296875 C 709.824219 216.691406 723.453125 217.199219 724.472656 209.441406 C 725.109375 204.988281 724.851562 200.027344 724.980469 195.578125 C 724.980469 195.066406 725.109375 194.433594 725.109375 193.796875 C 727.527344 190.488281 728.929688 185.910156 728.929688 180.820312 Z M 728.929688 180.820312 "/>
<g clip-path="url(#clip10)" clip-rule="nonzero">
<g clip-path="url(#clip11)" clip-rule="nonzero">
<g clip-path="url(#clip12)" clip-rule="nonzero">
<g clip-path="url(#clip13)" clip-rule="nonzero">
<path style=" stroke:none;fill-rule:nonzero;fill:rgb(0%,0%,0%);fill-opacity:1;" d="M 910.863281 620.242188 C 859.714844 608.027344 802.121094 610.3125 758.03125 641.535156 C 737.027344 656.472656 722.546875 678.246094 713.898438 702.09375 C 710.238281 712.21875 703.269531 734.871094 718.359375 739.136719 C 735.582031 744.03125 742.945312 724.71875 731.746094 714.089844 C 720.546875 703.464844 703.367188 711.347656 696.148438 722.527344 C 689.449219 733.078125 689.136719 759.957031 673.449219 760.636719 C 660.605469 761.183594 646.472656 748.371094 636.511719 741.820312 C 622.65625 732.179688 607.855469 724.296875 592.105469 718.179688 C 576.398438 712.566406 555.363281 709.527344 540.828125 719.429688 C 527.429688 728.660156 525.320312 750.839844 506.25 751.941406 C 486.589844 753.085938 465.101562 741.128906 446.433594 736.1875 C 423.125 730.011719 396.738281 729.730469 372.925781 732.214844 C 372.6875 732.210938 372.679688 732.613281 372.921875 732.589844 C 408.878906 729.546875 441.777344 735.808594 475.71875 746.679688 C 494.929688 752.832031 513.015625 758.726562 526.601562 740.488281 C 535.742188 728.246094 541.027344 717.191406 558.101562 715.28125 C 579.042969 712.984375 600.011719 722.613281 617.597656 732.683594 C 631.441406 740.609375 644.074219 750.488281 658.058594 758.203125 C 664.054688 761.511719 671.347656 764.335938 678.132812 762.453125 C 689.199219 759.421875 691.242188 740.925781 694.421875 732.207031 C 697.972656 722.480469 703.917969 714.90625 714.308594 712.183594 C 724.054688 709.6875 737.472656 717.527344 735.449219 728.851562 C 734.050781 736.828125 719.914062 739.085938 714.742188 734.59375 C 711.394531 731.679688 711.769531 725.632812 711.917969 721.660156 C 712.878906 694.582031 732.238281 666.707031 751.648438 649.316406 C 774.519531 628.734375 805.183594 618.929688 835.277344 615.648438 C 847.902344 614.398438 860.539062 614.214844 873.195312 615.097656 C 885.847656 615.980469 898.339844 617.914062 910.664062 620.902344 C 911.089844 620.910156 911.289062 620.355469 910.863281 620.265625 Z M 910.863281 620.242188 "/>
</g>
</g>
</g>
</g>
<path style=" stroke:none;fill-rule:nonzero;fill:rgb(94.509888%,84.709167%,97.24884%);fill-opacity:1;" d="M 1002.390625 445.5 C 1000.082031 445.5 997.777344 445.554688 995.46875 445.667969 C 993.164062 445.78125 990.863281 445.953125 988.566406 446.179688 C 986.269531 446.40625 983.980469 446.6875 981.695312 447.027344 C 979.414062 447.363281 977.140625 447.757812 974.875 448.210938 C 972.613281 448.660156 970.359375 449.164062 968.121094 449.726562 C 965.882812 450.289062 963.660156 450.902344 961.449219 451.574219 C 959.242188 452.242188 957.050781 452.96875 954.875 453.746094 C 952.703125 454.523438 950.550781 455.351562 948.417969 456.234375 C 946.285156 457.121094 944.175781 458.054688 942.089844 459.042969 C 940.003906 460.027344 937.941406 461.066406 935.90625 462.152344 C 933.871094 463.242188 931.863281 464.378906 929.882812 465.566406 C 927.902344 466.753906 925.953125 467.988281 924.035156 469.269531 C 922.117188 470.550781 920.230469 471.878906 918.375 473.253906 C 916.519531 474.628906 914.703125 476.050781 912.917969 477.515625 C 911.132812 478.976562 909.386719 480.484375 907.675781 482.035156 C 905.964844 483.585938 904.292969 485.175781 902.664062 486.808594 C 901.03125 488.441406 899.4375 490.113281 897.890625 491.824219 C 896.339844 493.53125 894.832031 495.28125 893.367188 497.0625 C 891.902344 498.847656 890.484375 500.667969 889.109375 502.523438 C 887.734375 504.375 886.40625 506.261719 885.121094 508.179688 C 883.839844 510.101562 882.605469 512.050781 881.417969 514.03125 C 880.230469 516.007812 879.09375 518.015625 878.007812 520.054688 C 876.917969 522.089844 875.882812 524.148438 874.894531 526.234375 C 873.90625 528.324219 872.972656 530.433594 872.089844 532.566406 C 871.207031 534.699219 870.375 536.851562 869.597656 539.023438 C 868.820312 541.195312 868.097656 543.386719 867.425781 545.597656 C 866.757812 547.804688 866.140625 550.027344 865.578125 552.269531 C 865.019531 554.507812 864.511719 556.757812 864.0625 559.023438 C 863.613281 561.285156 863.21875 563.558594 862.878906 565.84375 C 862.542969 568.125 862.257812 570.417969 862.03125 572.714844 C 861.804688 575.011719 861.636719 577.3125 861.523438 579.617188 C 861.410156 581.921875 861.351562 584.230469 861.351562 586.539062 C 861.351562 588.847656 861.410156 591.152344 861.523438 593.457031 C 861.636719 595.761719 861.804688 598.066406 862.03125 600.363281 C 862.257812 602.660156 862.542969 604.949219 862.878906 607.230469 C 863.21875 609.515625 863.613281 611.789062 864.0625 614.050781 C 864.511719 616.316406 865.019531 618.566406 865.578125 620.808594 C 866.140625 623.046875 866.757812 625.269531 867.425781 627.480469 C 868.097656 629.6875 868.820312 631.878906 869.597656 634.050781 C 870.375 636.226562 871.207031 638.378906 872.089844 640.511719 C 872.972656 642.644531 873.90625 644.753906 874.894531 646.839844 C 875.882812 648.925781 876.917969 650.988281 878.007812 653.023438 C 879.09375 655.058594 880.230469 657.066406 881.417969 659.046875 C 882.605469 661.023438 883.839844 662.976562 885.121094 664.894531 C 886.40625 666.8125 887.734375 668.699219 889.109375 670.554688 C 890.484375 672.40625 891.902344 674.226562 893.367188 676.011719 C 894.832031 677.796875 896.339844 679.542969 897.890625 681.253906 C 899.4375 682.960938 901.03125 684.632812 902.664062 686.265625 C 904.292969 687.898438 905.964844 689.488281 907.675781 691.039062 C 909.386719 692.589844 911.132812 694.097656 912.917969 695.5625 C 914.703125 697.023438 916.519531 698.445312 918.375 699.820312 C 920.230469 701.195312 922.117188 702.523438 924.035156 703.804688 C 925.953125 705.089844 927.902344 706.324219 929.882812 707.507812 C 931.863281 708.695312 933.871094 709.832031 935.90625 710.921875 C 937.941406 712.007812 940.003906 713.046875 942.089844 714.035156 C 944.175781 715.019531 946.285156 715.957031 948.417969 716.839844 C 950.550781 717.722656 952.703125 718.554688 954.875 719.332031 C 957.050781 720.109375 959.242188 720.832031 961.449219 721.503906 C 963.660156 722.171875 965.882812 722.789062 968.121094 723.347656 C 970.359375 723.910156 972.613281 724.414062 974.875 724.863281 C 977.140625 725.316406 979.414062 725.710938 981.695312 726.046875 C 983.980469 726.386719 986.269531 726.667969 988.566406 726.894531 C 990.863281 727.121094 993.164062 727.292969 995.46875 727.40625 C 997.777344 727.519531 1000.082031 727.574219 1002.390625 727.574219 C 1004.699219 727.574219 1007.003906 727.519531 1009.3125 727.40625 C 1011.617188 727.292969 1013.917969 727.121094 1016.214844 726.894531 C 1018.511719 726.667969 1020.800781 726.386719 1023.085938 726.046875 C 1025.367188 725.710938 1027.640625 725.316406 1029.90625 724.863281 C 1032.167969 724.414062 1034.421875 723.910156 1036.660156 723.347656 C 1038.898438 722.789062 1041.125 722.171875 1043.332031 721.503906 C 1045.539062 720.832031 1047.730469 720.109375 1049.90625 719.332031 C 1052.078125 718.554688 1054.230469 717.722656 1056.363281 716.839844 C 1058.496094 715.957031 1060.605469 715.019531 1062.691406 714.035156 C 1064.777344 713.046875 1066.839844 712.007812 1068.875 710.921875 C 1070.910156 709.832031 1072.917969 708.695312 1074.898438 707.507812 C 1076.878906 706.324219 1078.828125 705.089844 1080.746094 703.804688 C 1082.667969 702.523438 1084.554688 701.195312 1086.40625 699.820312 C 1088.261719 698.445312 1090.078125 697.023438 1091.863281 695.5625 C 1093.648438 694.097656 1095.394531 692.589844 1097.105469 691.039062 C 1098.816406 689.488281 1100.488281 687.898438 1102.121094 686.265625 C 1103.75 684.632812 1105.34375 682.960938 1106.894531 681.253906 C 1108.441406 679.542969 1109.949219 677.796875 1111.414062 676.011719 C 1112.878906 674.226562 1114.296875 672.40625 1115.671875 670.554688 C 1117.046875 668.699219 1118.375 666.8125 1119.660156 664.894531 C 1120.941406 662.976562 1122.175781 661.023438 1123.363281 659.046875 C 1124.550781 657.066406 1125.6875 655.058594 1126.773438 653.023438 C 1127.863281 650.988281 1128.898438 648.925781 1129.886719 646.839844 C 1130.875 644.753906 1131.808594 642.644531 1132.691406 640.511719 C 1133.574219 638.378906 1134.40625 636.226562 1135.183594 634.050781 C 1135.960938 631.878906 1136.683594 629.6875 1137.355469 627.480469 C 1138.023438 625.269531 1138.640625 623.046875 1139.203125 620.808594 C 1139.761719 618.566406 1140.269531 616.316406 1140.71875 614.050781 C 1141.167969 611.789062 1141.5625 609.515625 1141.902344 607.230469 C 1142.242188 604.949219 1142.523438 602.660156 1142.75 600.363281 C 1142.976562 598.066406 1143.144531 595.761719 1143.257812 593.457031 C 1143.371094 591.152344 1143.429688 588.847656 1143.429688 586.539062 C 1143.429688 584.230469 1143.371094 581.921875 1143.257812 579.617188 C 1143.144531 577.3125 1142.976562 575.011719 1142.75 572.714844 C 1142.523438 570.417969 1142.242188 568.125 1141.902344 565.84375 C 1141.5625 563.558594 1141.167969 561.285156 1140.71875 559.023438 C 1140.269531 556.757812 1139.761719 554.507812 1139.203125 552.269531 C 1138.640625 550.027344 1138.023438 547.804688 1137.355469 545.597656 C 1136.683594 543.386719 1135.960938 541.195312 1135.183594 539.023438 C 1134.40625 536.851562 1133.574219 534.699219 1132.691406 532.566406 C 1131.808594 530.433594 1130.875 528.324219 1129.886719 526.234375 C 1128.898438 524.148438 1127.863281 522.089844 1126.773438 520.054688 C 1125.6875 518.015625 1124.550781 516.007812 1123.363281 514.03125 C 1122.175781 512.050781 1120.941406 510.101562 1119.660156 508.179688 C 1118.375 506.261719 1117.046875 504.375 1115.671875 502.523438 C 1114.296875 500.667969 1112.878906 498.847656 1111.414062 497.0625 C 1109.949219 495.28125 1108.441406 493.53125 1106.894531 491.824219 C 1105.34375 490.113281 1103.75 488.441406 1102.121094 486.808594 C 1100.488281 485.175781 1098.816406 483.585938 1097.105469 482.035156 C 1095.394531 480.484375 1093.648438 478.976562 1091.863281 477.515625 C 1090.078125 476.050781 1088.261719 474.628906 1086.40625 473.253906 C 1084.554688 471.878906 1082.667969 470.550781 1080.746094 469.269531 C 1078.828125 467.988281 1076.878906 466.753906 1074.898438 465.566406 C 1072.917969 464.378906 1070.910156 463.242188 1068.875 462.152344 C 1066.839844 461.066406 1064.777344 460.027344 1062.691406 459.042969 C 1060.605469 458.054688 1058.496094 457.121094 1056.363281 456.234375 C 1054.230469 455.351562 1052.078125 454.523438 1049.90625 453.746094 C 1047.730469 452.96875 1045.539062 452.242188 1043.332031 451.574219 C 1041.125 450.902344 1038.898438 450.289062 1036.660156 449.726562 C 1034.421875 449.164062 1032.167969 448.660156 1029.90625 448.210938 C 1027.640625 447.757812 1025.367188 447.363281 1023.085938 447.027344 C 1020.800781 446.6875 1018.511719 446.40625 1016.214844 446.179688 C 1013.917969 445.953125 1011.617188 445.78125 1009.3125 445.667969 C 1007.003906 445.554688 1004.699219 445.5 1002.390625 445.5 Z M 1002.390625 445.5 "/>
<path style=" stroke:none;fill-rule:nonzero;fill:rgb(18.818665%,57.649231%,81.568909%);fill-opacity:1;" d="M 1186.644531 691.5 C 1182.304688 683.046875 1179.730469 673.789062 1175.832031 665.195312 C 1170.753906 654.023438 1165.164062 640.726562 1157.882812 629.925781 C 1156.117188 627.207031 1154.5 624.414062 1152.953125 621.621094 C 1148.910156 614.128906 1141.257812 612.953125 1133.535156 615.007812 C 1123.238281 615.375 1111.984375 620.226562 1102.714844 623.09375 C 1085.796875 628.382812 1071.894531 638.449219 1055.785156 644.695312 C 1051.8125 646.238281 1047.546875 647.265625 1043.132812 648 C 1034.527344 647.265625 1025.917969 646.53125 1017.238281 645.796875 C 1010.914062 645.28125 1008.265625 644.695312 1005.617188 650.5 C 1002.453125 657.480469 1002.96875 669.457031 1003.484375 676.949219 C 1005.101562 699.359375 1018.269531 710.601562 1040.484375 704.945312 C 1061.226562 699.652344 1075.277344 689.292969 1092.5625 677.316406 C 1092.5625 677.316406 1092.195312 677.683594 1092.269531 677.609375 C 1101.609375 672.027344 1110.953125 663.429688 1120.515625 658.066406 C 1119.851562 662.988281 1119.117188 667.839844 1118.75 672.46875 C 1117.941406 683.710938 1117.277344 695.246094 1116.910156 706.78125 C 1120.441406 705.53125 1125.957031 705.605469 1131.179688 705.898438 C 1132.359375 700.167969 1134.640625 694.363281 1136.332031 689 C 1138.980469 680.476562 1142.214844 672.175781 1145.597656 663.945312 C 1156.191406 675.261719 1168.109375 690.46875 1177.375 702.886719 C 1181.570312 701.5625 1184.289062 696.566406 1188.335938 694.878906 C 1187.820312 693.703125 1187.234375 692.601562 1186.644531 691.5 Z M 1186.644531 691.5 "/>
<path style=" stroke:none;fill-rule:nonzero;fill:rgb(79.998779%,94.509888%,100%);fill-opacity:1;" d="M 1015.105469 661.886719 C 1022.09375 660.566406 1029.304688 658.433594 1034.820312 656.816406 C 1044.53125 653.953125 1053.945312 650.5 1063.214844 646.382812 C 1065.566406 645.0625 1075.054688 641.679688 1075.054688 641.679688 C 1075.054688 641.679688 1090.578125 599.507812 1087.855469 573.273438 C 1087.78125 572.46875 1087.707031 571.660156 1087.5625 570.921875 C 1086.753906 564.53125 1084.988281 557.773438 1079.46875 554.832031 C 1074.394531 552.113281 1068.070312 553.804688 1062.699219 556.007812 C 1034.011719 568.132812 1020.992188 589.585938 1012.164062 617.65625 C 1007.53125 632.421875 1004.660156 647.558594 1002.75 662.914062 C 1006.574219 663.285156 1010.398438 662.769531 1015.105469 661.886719 Z M 1015.105469 661.886719 "/>
<path style=" stroke:none;fill-rule:nonzero;fill:rgb(43.528748%,14.898682%,46.669006%);fill-opacity:1;" d="M 1148.984375 566.589844 C 1149.054688 566.589844 1149.054688 566.664062 1148.984375 566.589844 C 1150.96875 567.175781 1151.925781 569.308594 1150.894531 571.070312 C 1141.625 586.867188 1124.707031 622.945312 1121.324219 623.386719 C 1121.105469 623.386719 1120.074219 623.019531 1118.972656 622.652344 C 1117.132812 622.0625 1116.324219 619.933594 1117.277344 618.242188 C 1121.914062 610.234375 1127.871094 603.472656 1132.0625 595.023438 C 1136.550781 585.988281 1140.15625 576.582031 1145.378906 567.910156 C 1146.1875 566.734375 1147.660156 566.222656 1148.984375 566.589844 Z M 1148.984375 566.589844 "/>
<path style=" stroke:none;fill-rule:nonzero;fill:rgb(43.528748%,14.898682%,46.669006%);fill-opacity:1;" d="M 1125.515625 615.449219 C 1125.515625 615.449219 1125.515625 615.523438 1125.515625 615.449219 C 1126.179688 617.066406 1125.148438 618.832031 1123.382812 619.199219 C 1107.421875 621.988281 1073.21875 630.953125 1071.15625 629.042969 C 1071.011719 628.898438 1070.789062 628.089844 1070.421875 627.132812 C 1069.90625 625.664062 1071.011719 623.972656 1072.628906 623.679688 C 1080.648438 622.285156 1088.589844 622.355469 1096.683594 620.375 C 1105.363281 618.242188 1113.894531 615.375 1122.722656 613.980469 C 1123.972656 613.6875 1125.074219 614.347656 1125.515625 615.449219 Z M 1125.515625 615.449219 "/>
<path style=" stroke:none;fill-rule:nonzero;fill:rgb(100%,67.449951%,91.758728%);fill-opacity:1;" d="M 1074.542969 546.601562 C 1073.660156 548.882812 1072.996094 551.230469 1072.335938 553.582031 C 1073.4375 555.492188 1074.542969 557.332031 1076.085938 558.652344 C 1076.894531 559.386719 1078 559.753906 1079.175781 560.050781 C 1080.425781 559.828125 1081.53125 559.019531 1082.117188 557.625 C 1082.632812 556.300781 1083.074219 554.832031 1083.367188 553.363281 C 1085.28125 553.4375 1087.265625 552.480469 1088.738281 550.644531 C 1091.164062 547.632812 1091.460938 542.339844 1090.28125 538.816406 C 1089.03125 535.066406 1086.457031 531.761719 1082.414062 531.90625 C 1078.734375 532.054688 1075.867188 534.113281 1074.835938 538.078125 C 1074.246094 540.429688 1074.246094 543.003906 1074.910156 545.355469 C 1074.835938 545.867188 1074.6875 546.234375 1074.542969 546.601562 Z M 1074.542969 546.601562 "/>
<path style=" stroke:none;fill-rule:nonzero;fill:rgb(96.859741%,91.369629%,70.199585%);fill-opacity:1;" d="M 1071.96875 539.769531 C 1072.335938 537.640625 1072.921875 535.507812 1073.363281 534.480469 C 1078.585938 522.429688 1086.898438 536.609375 1094.476562 532.273438 C 1096.167969 531.246094 1097.640625 529.851562 1099.550781 529.117188 C 1100.949219 528.601562 1102.421875 528.527344 1103.890625 528.527344 C 1105.214844 528.527344 1106.539062 528.675781 1107.714844 529.261719 C 1109.847656 530.21875 1111.246094 532.570312 1111.171875 534.921875 C 1110.953125 540.285156 1104.039062 543.515625 1099.402344 543.515625 C 1095.285156 543.515625 1091.535156 541.164062 1087.707031 541.09375 C 1084.324219 541.019531 1083.367188 543.664062 1080.648438 545.28125 C 1075.570312 548.21875 1071.011719 545.648438 1071.96875 539.769531 Z M 1071.96875 539.769531 "/>
<path style=" stroke:none;fill-rule:nonzero;fill:rgb(100%,67.449951%,91.758728%);fill-opacity:1;" d="M 1081.089844 541.164062 C 1082.265625 541.460938 1083.074219 542.855469 1082.707031 544.03125 C 1082.339844 545.28125 1081.089844 546.089844 1079.835938 545.722656 C 1078.660156 545.425781 1077.851562 544.03125 1078.21875 542.855469 C 1078.660156 541.605469 1079.835938 540.796875 1081.089844 541.164062 Z M 1081.089844 541.164062 "/>
<path style=" stroke:none;fill-rule:nonzero;fill:rgb(100%,67.449951%,91.758728%);fill-opacity:1;" d="M 1131.109375 615.304688 C 1126.988281 615.082031 1122.871094 615.304688 1118.75 615.816406 C 1119.484375 614.347656 1120.292969 612.953125 1121.105469 611.554688 C 1120.515625 610.96875 1119.414062 611.484375 1118.75 611.921875 C 1116.765625 613.246094 1110.953125 615.671875 1107.496094 617.949219 C 1096.683594 620.59375 1086.089844 624.929688 1075.792969 629.191406 C 1063.875 634.113281 1062.332031 633.304688 1050.414062 638.226562 C 1051.886719 634.554688 1054.605469 625.589844 1061.890625 608.835938 C 1060.640625 608.765625 1054.605469 607.148438 1053.355469 607 C 1049.382812 606.558594 1045.339844 605.898438 1041.441406 605.238281 C 1038.644531 604.722656 1031.214844 603.105469 1031.214844 603.105469 C 1031.214844 603.105469 1027.023438 610.675781 1025.992188 613.539062 C 1022.828125 622.285156 1021.652344 631.6875 1021.136719 640.945312 C 1020.769531 647.117188 1020.769531 653.511719 1023.566406 659.023438 C 1029.304688 670.484375 1040.632812 667.105469 1050.195312 663.136719 C 1070.273438 654.761719 1094.328125 641.828125 1109.335938 626.03125 C 1115.441406 626.25 1115.882812 627.722656 1121.472656 625.371094 C 1122.429688 625.003906 1131.84375 615.375 1131.109375 615.304688 Z M 1131.109375 615.304688 "/>
<path style=" stroke:none;fill-rule:nonzero;fill:rgb(100%,43.139648%,54.508972%);fill-opacity:1;" d="M 1206.0625 705.679688 C 1206.136719 704.722656 1205.179688 703.695312 1204.296875 702.667969 C 1200.769531 703.914062 1198.339844 704.28125 1196.355469 703.914062 C 1193.851562 700.683594 1190.394531 695.980469 1189.441406 694.804688 C 1186.9375 691.71875 1185.613281 687.972656 1183.40625 684.8125 C 1179.363281 687.015625 1181.714844 693.410156 1182.597656 696.789062 C 1182.746094 697.375 1182.964844 698.039062 1183.1875 698.625 C 1181.570312 699.652344 1179.582031 700.902344 1177.300781 702.371094 C 1181.054688 707.367188 1183.113281 709.207031 1186.421875 714.421875 C 1186.71875 714.789062 1187.011719 715.085938 1187.304688 715.378906 C 1193.632812 713.101562 1200.105469 709.574219 1205.253906 706.488281 C 1205.621094 706.339844 1205.992188 706.046875 1206.0625 705.679688 Z M 1206.0625 705.679688 "/>
<path style=" stroke:none;fill-rule:nonzero;fill:rgb(79.998779%,94.509888%,100%);fill-opacity:1;" d="M 1208.785156 702.003906 C 1207.976562 701.34375 1206.800781 701.710938 1205.769531 702.078125 C 1205.253906 702.300781 1204.738281 702.445312 1204.226562 702.667969 C 1205.109375 703.695312 1206.0625 704.722656 1205.992188 705.679688 C 1205.992188 706.046875 1205.621094 706.339844 1205.253906 706.488281 C 1200.03125 709.574219 1193.632812 713.101562 1187.304688 715.378906 C 1188.777344 716.699219 1188.484375 718.316406 1190.46875 717.65625 C 1196.425781 715.671875 1204.296875 710.824219 1208.195312 705.898438 C 1209.152344 704.796875 1209.960938 702.960938 1208.785156 702.003906 Z M 1208.785156 702.003906 "/>
<path style=" stroke:none;fill-rule:nonzero;fill:rgb(100%,43.139648%,54.508972%);fill-opacity:1;" d="M 1135.960938 724.636719 C 1136.183594 724.488281 1136.183594 724.195312 1136.257812 723.976562 C 1136.332031 723.3125 1136.332031 722.726562 1136.332031 722.210938 C 1134.859375 721.769531 1133.535156 721.402344 1132.945312 720.816406 C 1131.621094 719.566406 1130.960938 718.316406 1130.667969 716.921875 C 1131.328125 713.171875 1132.0625 708.914062 1132.285156 707.664062 C 1132.800781 703.769531 1134.640625 700.242188 1135.449219 696.421875 C 1131.109375 694.953125 1128.019531 701.050781 1126.179688 704.0625 C 1125.886719 704.578125 1125.589844 705.019531 1125.296875 705.53125 C 1122.132812 705.53125 1119.117188 705.824219 1116.984375 706.5625 C 1116.765625 712.070312 1116.691406 717.507812 1116.542969 722.871094 C 1116.542969 723.238281 1116.617188 723.605469 1116.691406 723.976562 C 1122.941406 724.195312 1129.121094 724.488281 1135.375 724.710938 C 1135.59375 724.78125 1135.816406 724.78125 1135.960938 724.636719 Z M 1135.960938 724.636719 "/>
<g clip-path="url(#clip14)" clip-rule="nonzero">
<path style=" stroke:none;fill-rule:nonzero;fill:rgb(79.998779%,94.509888%,100%);fill-opacity:1;" d="M 1136.332031 722.210938 C 1136.332031 722.800781 1136.257812 723.386719 1136.257812 723.976562 C 1136.257812 724.195312 1136.183594 724.488281 1135.960938 724.636719 C 1135.816406 724.78125 1135.59375 724.78125 1135.375 724.78125 C 1129.121094 724.5625 1122.941406 724.269531 1116.691406 724.046875 C 1117.132812 725.664062 1118.601562 726.914062 1120.367188 726.988281 C 1127.578125 727.207031 1134.710938 727.429688 1141.847656 727.574219 C 1142.730469 727.574219 1143.539062 726.988281 1143.539062 726.105469 C 1143.6875 723.976562 1139.566406 723.09375 1136.332031 722.210938 Z M 1136.332031 722.210938 "/>
</g>
<path style=" stroke:none;fill-rule:nonzero;fill:rgb(43.528748%,14.898682%,46.669006%);fill-opacity:1;" d="M 946.109375 582.753906 C 948.902344 582.460938 953.097656 581.871094 954.566406 578.050781 C 955.964844 574.449219 955.816406 570.996094 954.496094 567.324219 C 954.347656 566.957031 954.199219 566.515625 954.273438 566.148438 C 954.421875 565.558594 955.007812 565.265625 955.523438 565.046875 C 958.320312 563.871094 961.113281 562.472656 963.246094 560.121094 C 965.382812 557.84375 966.777344 554.613281 966.261719 551.453125 C 965.820312 548.292969 963.246094 545.425781 960.230469 545.425781 C 958.761719 545.425781 957.4375 546.089844 956.113281 546.824219 C 952.214844 549.027344 948.460938 553.363281 949.566406 557.917969 C 949.785156 558.800781 950.226562 559.683594 950.300781 560.636719 C 950.375 561.59375 950.082031 562.695312 949.273438 563.0625 C 948.832031 563.28125 948.316406 563.207031 947.800781 563.136719 C 943.976562 562.621094 939.855469 562.914062 936.621094 565.121094 C 931.910156 568.351562 930.734375 570.996094 934.117188 575.257812 C 937.355469 579.300781 941.472656 583.269531 946.109375 582.753906 Z M 946.109375 582.753906 "/>
<path style=" stroke:none;fill-rule:nonzero;fill:rgb(100%,67.449951%,91.758728%);fill-opacity:1;" d="M 933.089844 574.964844 C 933.308594 574.597656 933.53125 574.304688 933.898438 574.15625 C 935.515625 573.273438 938.679688 574.816406 940.003906 575.625 C 942.652344 577.167969 941.988281 575.699219 944.34375 575.699219 C 945.445312 575.699219 946.183594 576.507812 946.253906 577.464844 C 946.253906 577.832031 946.109375 578.199219 945.886719 578.492188 C 947.285156 581.726562 951.035156 586.5 952.214844 589.808594 C 952.730469 591.203125 949.933594 590.46875 949.050781 590.617188 C 947.800781 592.671875 945.300781 596.566406 943.753906 593.554688 C 942.796875 591.570312 939.339844 585.25 939.195312 582.972656 C 938.898438 583.046875 938.605469 583.046875 938.238281 583.046875 C 936.179688 583.269531 934.046875 582.238281 933.015625 580.402344 C 932.5 579.007812 932.28125 576.433594 933.089844 574.964844 Z M 933.089844 574.964844 "/>
<path style=" stroke:none;fill-rule:nonzero;fill:rgb(42.349243%,80.778503%,100%);fill-opacity:1;" d="M 852.761719 687.75 C 853.351562 684.003906 857.101562 679.960938 860.78125 678.714844 C 887.042969 669.75 916.90625 672.246094 949.34375 665.855469 C 950.816406 665.5625 951.40625 663.285156 951.476562 659.757812 C 958.464844 662.914062 967 663.652344 974.796875 663.210938 C 984.285156 662.621094 993.699219 660.785156 1002.675781 657.625 C 1003.191406 662.476562 1003.261719 667.324219 1002.894531 672.175781 C 1002.308594 680.625 1000.46875 689.148438 995.980469 696.421875 C 989.507812 706.929688 980.753906 709.425781 969.351562 711.484375 C 955.082031 714.054688 940.519531 716.1875 926.027344 715.964844 C 899.472656 715.671875 872.550781 709.71875 860.265625 700.242188 C 854.234375 695.539062 852.027344 692.011719 852.761719 687.75 Z M 852.761719 687.75 "/>
<path style=" stroke:none;fill-rule:nonzero;fill:rgb(96.859741%,91.369629%,70.199585%);fill-opacity:1;" d="M 951.40625 659.828125 C 951.699219 645.429688 942.871094 610.085938 942.503906 605.015625 C 941.988281 597.523438 941.328125 582.902344 953.171875 584.074219 C 958.023438 584.589844 963.6875 588.777344 968.617188 593.40625 C 972.222656 596.789062 975.457031 600.386719 977.738281 602.8125 C 984.949219 610.675781 990.757812 619.636719 995.097656 629.265625 C 999.070312 638.300781 1001.71875 647.925781 1002.675781 657.699219 C 993.699219 660.859375 984.285156 662.769531 974.796875 663.285156 C 966.925781 663.722656 958.464844 662.988281 951.40625 659.828125 Z M 951.40625 659.828125 "/>
<path style=" stroke:none;fill-rule:nonzero;fill:rgb(18.818665%,57.649231%,81.568909%);fill-opacity:1;" d="M 903.152344 611.261719 C 902.121094 610.085938 901.015625 608.910156 899.546875 608.46875 C 898 608.101562 896.382812 608.691406 894.910156 609.277344 C 890.277344 611.042969 885.71875 612.878906 881.082031 614.640625 C 880.566406 614.863281 880.054688 615.082031 879.832031 615.523438 C 879.390625 616.257812 879.90625 617.140625 880.347656 617.800781 C 885.644531 625.515625 891.527344 632.9375 897.855469 639.84375 C 899.03125 641.167969 900.503906 642.488281 902.269531 642.34375 C 903.960938 642.195312 905.136719 640.726562 906.167969 639.402344 C 909.035156 635.804688 916.683594 631.835938 916.464844 627.355469 C 916.242188 622.945312 906.019531 614.570312 903.152344 611.261719 Z M 903.152344 611.261719 "/>
<path style=" stroke:none;fill-rule:nonzero;fill:rgb(89.408875%,91.369629%,100%);fill-opacity:1;" d="M 905.210938 609.941406 C 904.179688 608.765625 903.078125 607.589844 901.605469 607.148438 C 900.0625 606.78125 898.441406 607.367188 896.972656 607.957031 C 892.335938 609.71875 887.777344 611.554688 883.144531 613.320312 C 882.628906 613.539062 882.113281 613.761719 881.890625 614.203125 C 881.449219 614.9375 881.964844 615.816406 882.40625 616.480469 C 887.703125 624.195312 893.589844 631.613281 899.914062 638.523438 C 901.089844 639.84375 902.5625 641.167969 904.328125 641.019531 C 906.019531 640.875 907.195312 639.402344 908.226562 638.082031 C 911.09375 634.480469 918.746094 630.511719 918.523438 626.03125 C 918.304688 621.550781 908.078125 613.246094 905.210938 609.941406 Z M 905.210938 609.941406 "/>
<path style=" stroke:none;fill-rule:nonzero;fill:rgb(100%,67.449951%,91.758728%);fill-opacity:1;" d="M 906.535156 634.332031 C 905.652344 631.984375 904.328125 629.042969 906.09375 627.132812 C 908.078125 629.632812 909.476562 632.203125 910.875 634.554688 C 913.449219 638.816406 917.566406 642.046875 922.347656 643.445312 L 944.269531 649.910156 C 944.121094 635.65625 943.609375 630.660156 942.652344 608.835938 C 942.652344 608.398438 942.578125 607.882812 942.578125 607.441406 L 963.394531 607.441406 C 965.96875 617.289062 966.117188 627.867188 966.042969 638.082031 C 965.96875 644.914062 965.75 652.042969 963.027344 658.359375 C 961.410156 662.109375 959.347656 664.753906 956.996094 666.441406 C 947.578125 673.421875 933.605469 665.929688 923.671875 658.726562 C 916.980469 653.878906 911.976562 644.398438 904.988281 640.726562 C 907.121094 639.109375 907.492188 636.832031 906.535156 634.332031 Z M 906.535156 634.332031 "/>
<path style=" stroke:none;fill-rule:nonzero;fill:rgb(100%,67.449951%,91.758728%);fill-opacity:1;" d="M 945.445312 649.910156 C 945.445312 649.910156 945.371094 649.910156 945.371094 649.984375 C 945.371094 649.910156 945.371094 649.910156 945.445312 649.910156 Z M 945.445312 649.910156 "/>
<path style=" stroke:none;fill-rule:nonzero;fill:rgb(100%,67.449951%,91.758728%);fill-opacity:1;" d="M 945.667969 649.691406 C 945.667969 649.691406 945.59375 649.691406 945.59375 649.765625 C 945.667969 649.765625 945.667969 649.691406 945.667969 649.691406 C 945.742188 649.691406 945.742188 649.691406 945.667969 649.691406 Z M 945.667969 649.691406 "/>
<path style=" stroke:none;fill-rule:nonzero;fill:rgb(100%,67.449951%,91.758728%);fill-opacity:1;" d="M 1001.351562 724.34375 C 1000.835938 726.105469 998.410156 726.179688 996.644531 725.738281 C 993.1875 725.003906 989.65625 723.535156 986.050781 721.84375 C 977.371094 717.949219 968.324219 713.027344 959.71875 714.347656 C 952.582031 715.378906 945.371094 715.597656 938.605469 715.523438 C 938.679688 709.425781 938.753906 703.328125 938.753906 697.230469 C 949.417969 698.699219 960.230469 699.433594 970.382812 703.109375 C 971.042969 703.328125 971.632812 703.476562 972.222656 703.546875 C 975.898438 704.871094 979.652344 706.265625 983.253906 708.03125 C 989.949219 711.191406 996.277344 715.378906 1000.46875 721.476562 C 1001.128906 722.359375 1001.644531 723.386719 1001.351562 724.34375 Z M 1001.351562 724.34375 "/>
<path style=" stroke:none;fill-rule:nonzero;fill:rgb(18.818665%,57.649231%,81.568909%);fill-opacity:1;" d="M 1001.351562 724.34375 C 1000.835938 726.105469 998.410156 726.179688 996.644531 725.738281 C 993.1875 725.003906 989.65625 723.535156 986.050781 721.84375 C 987.742188 720.375 988.917969 718.539062 988.109375 715.820312 C 987.523438 713.835938 986.050781 712.292969 984.875 710.601562 C 984.285156 709.792969 983.769531 708.839844 983.328125 707.957031 C 990.023438 711.117188 996.347656 715.304688 1000.542969 721.402344 C 1001.128906 722.359375 1001.644531 723.386719 1001.351562 724.34375 Z M 1001.351562 724.34375 "/>
<path style=" stroke:none;fill-rule:nonzero;fill:rgb(94.509888%,84.709167%,97.24884%);fill-opacity:1;" d="M 323.070312 464.085938 C 320.570312 464.085938 318.074219 464.148438 315.578125 464.269531 C 313.082031 464.390625 310.589844 464.574219 308.101562 464.820312 C 305.613281 465.066406 303.136719 465.371094 300.664062 465.738281 C 298.191406 466.105469 295.730469 466.53125 293.277344 467.019531 C 290.828125 467.507812 288.390625 468.054688 285.964844 468.660156 C 283.539062 469.269531 281.132812 469.9375 278.742188 470.660156 C 276.347656 471.386719 273.976562 472.171875 271.625 473.011719 C 269.269531 473.855469 266.941406 474.753906 264.632812 475.710938 C 262.320312 476.667969 260.039062 477.679688 257.777344 478.746094 C 255.519531 479.816406 253.289062 480.9375 251.082031 482.117188 C 248.878906 483.296875 246.707031 484.527344 244.5625 485.8125 C 242.417969 487.097656 240.308594 488.433594 238.230469 489.820312 C 236.152344 491.210938 234.109375 492.648438 232.101562 494.136719 C 230.09375 495.625 228.125 497.164062 226.191406 498.75 C 224.261719 500.332031 222.371094 501.964844 220.519531 503.644531 C 218.664062 505.324219 216.855469 507.046875 215.089844 508.8125 C 213.320312 510.578125 211.597656 512.390625 209.921875 514.242188 C 208.242188 516.09375 206.609375 517.984375 205.023438 519.917969 C 203.441406 521.847656 201.902344 523.816406 200.414062 525.824219 C 198.925781 527.832031 197.488281 529.875 196.097656 531.953125 C 194.710938 534.03125 193.371094 536.140625 192.089844 538.285156 C 190.804688 540.429688 189.570312 542.601562 188.394531 544.808594 C 187.214844 547.011719 186.09375 549.242188 185.023438 551.503906 C 183.957031 553.761719 182.941406 556.046875 181.988281 558.355469 C 181.03125 560.664062 180.132812 562.996094 179.289062 565.347656 C 178.445312 567.699219 177.664062 570.074219 176.9375 572.464844 C 176.210938 574.855469 175.546875 577.261719 174.9375 579.6875 C 174.332031 582.113281 173.785156 584.550781 173.296875 587 C 172.808594 589.453125 172.382812 591.914062 172.015625 594.386719 C 171.648438 596.859375 171.34375 599.335938 171.097656 601.824219 C 170.851562 604.3125 170.667969 606.804688 170.546875 609.300781 C 170.421875 611.796875 170.363281 614.292969 170.363281 616.792969 C 170.363281 619.292969 170.421875 621.789062 170.546875 624.285156 C 170.667969 626.78125 170.851562 629.273438 171.097656 631.761719 C 171.34375 634.246094 171.648438 636.726562 172.015625 639.199219 C 172.382812 641.671875 172.808594 644.132812 173.296875 646.585938 C 173.785156 649.035156 174.332031 651.472656 174.9375 653.898438 C 175.546875 656.320312 176.210938 658.730469 176.9375 661.121094 C 177.664062 663.511719 178.445312 665.886719 179.289062 668.238281 C 180.132812 670.589844 181.03125 672.921875 181.988281 675.230469 C 182.941406 677.539062 183.957031 679.824219 185.023438 682.082031 C 186.09375 684.34375 187.214844 686.574219 188.394531 688.777344 C 189.570312 690.984375 190.804688 693.15625 192.089844 695.300781 C 193.371094 697.445312 194.710938 699.554688 196.097656 701.632812 C 197.488281 703.710938 198.925781 705.753906 200.414062 707.761719 C 201.902344 709.769531 203.441406 711.738281 205.023438 713.667969 C 206.609375 715.601562 208.242188 717.492188 209.921875 719.34375 C 211.597656 721.195312 213.320312 723.003906 215.089844 724.773438 C 216.855469 726.539062 218.664062 728.261719 220.519531 729.941406 C 222.371094 731.621094 224.261719 733.25 226.191406 734.835938 C 228.125 736.421875 230.09375 737.960938 232.101562 739.449219 C 234.109375 740.9375 236.152344 742.375 238.230469 743.765625 C 240.308594 745.152344 242.417969 746.488281 244.5625 747.773438 C 246.707031 749.058594 248.878906 750.289062 251.082031 751.46875 C 253.289062 752.648438 255.519531 753.769531 257.777344 754.839844 C 260.039062 755.90625 262.320312 756.917969 264.632812 757.875 C 266.941406 758.832031 269.269531 759.730469 271.625 760.574219 C 273.976562 761.414062 276.347656 762.199219 278.742188 762.925781 C 281.132812 763.648438 283.539062 764.316406 285.964844 764.921875 C 288.390625 765.53125 290.828125 766.078125 293.277344 766.566406 C 295.730469 767.054688 298.191406 767.480469 300.664062 767.847656 C 303.136719 768.214844 305.613281 768.519531 308.101562 768.765625 C 310.589844 769.007812 313.082031 769.195312 315.578125 769.316406 C 318.074219 769.4375 320.570312 769.5 323.070312 769.5 C 325.570312 769.5 328.066406 769.4375 330.5625 769.316406 C 333.058594 769.195312 335.550781 769.007812 338.039062 768.765625 C 340.523438 768.519531 343.003906 768.214844 345.476562 767.847656 C 347.949219 767.480469 350.410156 767.054688 352.859375 766.566406 C 355.3125 766.078125 357.75 765.53125 360.175781 764.921875 C 362.597656 764.316406 365.007812 763.648438 367.398438 762.925781 C 369.789062 762.199219 372.160156 761.414062 374.515625 760.574219 C 376.867188 759.730469 379.199219 758.832031 381.507812 757.875 C 383.816406 756.917969 386.101562 755.90625 388.359375 754.839844 C 390.621094 753.769531 392.851562 752.648438 395.054688 751.46875 C 397.257812 750.289062 399.433594 749.058594 401.578125 747.773438 C 403.71875 746.488281 405.832031 745.152344 407.910156 743.765625 C 409.988281 742.375 412.03125 740.9375 414.035156 739.449219 C 416.042969 737.960938 418.015625 736.421875 419.945312 734.835938 C 421.878906 733.25 423.769531 731.621094 425.621094 729.941406 C 427.472656 728.261719 429.28125 726.539062 431.050781 724.773438 C 432.816406 723.003906 434.539062 721.195312 436.21875 719.34375 C 437.894531 717.492188 439.527344 715.601562 441.113281 713.667969 C 442.699219 711.738281 444.234375 709.769531 445.726562 707.761719 C 447.214844 705.753906 448.652344 703.710938 450.039062 701.632812 C 451.429688 699.554688 452.765625 697.445312 454.050781 695.300781 C 455.335938 693.15625 456.566406 690.984375 457.746094 688.777344 C 458.921875 686.574219 460.046875 684.34375 461.113281 682.082031 C 462.183594 679.824219 463.195312 677.539062 464.152344 675.230469 C 465.109375 672.921875 466.007812 670.589844 466.851562 668.238281 C 467.691406 665.886719 468.476562 663.511719 469.199219 661.121094 C 469.925781 658.730469 470.59375 656.320312 471.199219 653.898438 C 471.808594 651.472656 472.355469 649.035156 472.84375 646.585938 C 473.328125 644.132812 473.757812 641.671875 474.125 639.199219 C 474.492188 636.726562 474.796875 634.246094 475.042969 631.761719 C 475.285156 629.273438 475.46875 626.78125 475.59375 624.285156 C 475.714844 621.789062 475.777344 619.292969 475.777344 616.792969 C 475.777344 614.292969 475.714844 611.796875 475.59375 609.300781 C 475.46875 606.804688 475.285156 604.3125 475.042969 601.824219 C 474.796875 599.335938 474.492188 596.859375 474.125 594.386719 C 473.757812 591.914062 473.328125 589.453125 472.84375 587 C 472.355469 584.550781 471.808594 582.113281 471.199219 579.6875 C 470.59375 577.261719 469.925781 574.855469 469.199219 572.464844 C 468.476562 570.074219 467.691406 567.699219 466.851562 565.347656 C 466.007812 562.996094 465.109375 560.664062 464.152344 558.355469 C 463.195312 556.046875 462.183594 553.761719 461.113281 551.503906 C 460.046875 549.242188 458.921875 547.011719 457.746094 544.808594 C 456.566406 542.601562 455.335938 540.429688 454.050781 538.285156 C 452.765625 536.140625 451.429688 534.03125 450.039062 531.953125 C 448.652344 529.875 447.214844 527.832031 445.726562 525.824219 C 444.234375 523.816406 442.699219 521.847656 441.113281 519.917969 C 439.527344 517.984375 437.894531 516.09375 436.21875 514.242188 C 434.539062 512.390625 432.816406 510.578125 431.050781 508.8125 C 429.28125 507.046875 427.472656 505.324219 425.621094 503.644531 C 423.769531 501.964844 421.878906 500.332031 419.945312 498.75 C 418.015625 497.164062 416.042969 495.625 414.035156 494.136719 C 412.03125 492.648438 409.988281 491.210938 407.910156 489.820312 C 405.832031 488.433594 403.71875 487.097656 401.578125 485.8125 C 399.433594 484.527344 397.257812 483.296875 395.054688 482.117188 C 392.851562 480.9375 390.621094 479.816406 388.359375 478.746094 C 386.101562 477.679688 383.816406 476.667969 381.507812 475.710938 C 379.199219 474.753906 376.867188 473.855469 374.515625 473.011719 C 372.160156 472.171875 369.789062 471.386719 367.398438 470.660156 C 365.007812 469.9375 362.597656 469.269531 360.175781 468.660156 C 357.75 468.054688 355.3125 467.507812 352.859375 467.019531 C 350.410156 466.53125 347.949219 466.105469 345.476562 465.738281 C 343.003906 465.371094 340.523438 465.066406 338.039062 464.820312 C 335.550781 464.574219 333.058594 464.390625 330.5625 464.269531 C 328.066406 464.148438 325.570312 464.085938 323.070312 464.085938 Z M 323.070312 464.085938 "/>
<g clip-path="url(#clip15)" clip-rule="nonzero">
<path style=" stroke:none;fill-rule:nonzero;fill:rgb(12.548828%,38.42926%,66.268921%);fill-opacity:1;" d="M 444.683594 746.941406 L 444.5625 746.941406 L 260.289062 729.253906 C 249.199219 728.15625 263.945312 752.0625 278.570312 769.019531 L 439.808594 768.289062 L 444.441406 746.820312 Z M 444.683594 746.941406 "/>
</g>
<path style=" stroke:none;fill-rule:nonzero;fill:rgb(100%,67.449951%,91.758728%);fill-opacity:1;" d="M 223.726562 585.1875 L 244.324219 585.1875 L 244.324219 613.976562 L 223.726562 613.976562 Z M 223.726562 585.1875 "/>
<path style=" stroke:none;fill-rule:nonzero;fill:rgb(100%,67.449951%,91.758728%);fill-opacity:1;" d="M 261.628906 579.332031 C 260.777344 590.433594 251.027344 598.605469 240.058594 597.628906 C 235.671875 597.265625 231.773438 595.558594 228.601562 592.871094 C 227.75 592.140625 227.019531 591.410156 226.289062 590.554688 C 222.996094 586.652344 221.167969 581.527344 221.65625 576.039062 C 222.265625 568.109375 227.628906 561.523438 234.695312 558.960938 C 235.792969 558.472656 237.011719 558.230469 238.230469 557.984375 C 239.9375 557.742188 241.523438 557.621094 243.226562 557.742188 C 243.59375 557.742188 244.082031 557.863281 244.445312 557.863281 C 247.980469 558.351562 251.148438 559.816406 253.832031 561.765625 C 259.070312 565.914062 262.238281 572.378906 261.628906 579.332031 Z M 261.628906 579.332031 "/>
<path style=" stroke:none;fill-rule:nonzero;fill:rgb(43.528748%,14.898682%,46.669006%);fill-opacity:1;" d="M 258.828125 548.105469 C 256.269531 547.738281 253.710938 548.46875 252.003906 550.421875 C 251.148438 551.277344 250.539062 552.25 250.175781 553.226562 C 249.566406 554.691406 248.101562 555.667969 246.398438 555.789062 C 243.472656 555.910156 240.425781 556.035156 237.5 556.519531 C 237.257812 556.519531 236.890625 556.644531 236.648438 556.644531 C 235.429688 556.886719 234.210938 557.132812 233.113281 557.621094 C 226.042969 560.179688 220.804688 566.769531 220.070312 574.820312 C 219.585938 580.308594 221.414062 585.433594 224.703125 589.335938 C 224.824219 589.457031 224.945312 589.578125 224.945312 589.703125 L 239.207031 575.550781 L 239.695312 577.015625 C 239.695312 577.015625 239.695312 577.136719 239.695312 577.136719 L 239.816406 577.378906 C 240.179688 578.355469 241.035156 578.964844 242.007812 578.964844 C 243.472656 578.964844 244.570312 577.867188 244.570312 576.40625 L 244.324219 569.328125 L 244.324219 568.964844 C 244.570312 566.769531 246.519531 565.058594 248.710938 565.183594 C 251.148438 565.425781 254.074219 566.035156 256.511719 565.183594 C 256.757812 565.058594 256.757812 565.058594 256.757812 565.183594 C 265.042969 563.839844 268.332031 549.566406 258.828125 548.105469 Z M 258.828125 548.105469 "/>
<path style=" stroke:none;fill-rule:nonzero;fill:rgb(43.528748%,14.898682%,46.669006%);fill-opacity:1;" d="M 256.878906 564.9375 C 256.757812 564.9375 256.757812 564.9375 256.632812 564.9375 C 256.269531 565.183594 256.757812 564.9375 256.878906 564.9375 Z M 256.878906 564.9375 "/>
<path style=" stroke:none;fill-rule:nonzero;fill:rgb(100%,67.449951%,91.758728%);fill-opacity:1;" d="M 235.539062 570.515625 C 235.875 570.546875 236.203125 570.605469 236.527344 570.699219 C 236.851562 570.789062 237.160156 570.914062 237.460938 571.066406 C 237.757812 571.222656 238.039062 571.402344 238.304688 571.613281 C 238.566406 571.820312 238.808594 572.054688 239.023438 572.308594 C 239.242188 572.566406 239.433594 572.84375 239.59375 573.136719 C 239.757812 573.429688 239.890625 573.738281 239.992188 574.058594 C 240.097656 574.378906 240.167969 574.707031 240.207031 575.039062 C 240.242188 575.375 240.25 575.707031 240.222656 576.042969 C 240.195312 576.378906 240.132812 576.707031 240.042969 577.03125 C 239.949219 577.355469 239.828125 577.667969 239.671875 577.964844 C 239.519531 578.265625 239.335938 578.546875 239.128906 578.808594 C 238.917969 579.074219 238.6875 579.3125 238.429688 579.53125 C 238.175781 579.75 237.898438 579.9375 237.605469 580.101562 C 237.3125 580.265625 237.003906 580.398438 236.683594 580.5 C 236.363281 580.605469 236.039062 580.675781 235.703125 580.714844 C 235.371094 580.75 235.035156 580.757812 234.699219 580.730469 C 234.367188 580.703125 234.035156 580.640625 233.714844 580.550781 C 233.390625 580.457031 233.078125 580.332031 232.78125 580.179688 C 232.480469 580.027344 232.199219 579.84375 231.9375 579.636719 C 231.671875 579.425781 231.433594 579.191406 231.214844 578.9375 C 231 578.679688 230.808594 578.40625 230.644531 578.109375 C 230.480469 577.816406 230.347656 577.507812 230.246094 577.1875 C 230.144531 576.867188 230.074219 576.542969 230.035156 576.207031 C 229.996094 575.871094 229.992188 575.539062 230.019531 575.203125 C 230.046875 574.867188 230.105469 574.539062 230.199219 574.214844 C 230.292969 573.890625 230.414062 573.582031 230.566406 573.28125 C 230.722656 572.980469 230.902344 572.699219 231.113281 572.4375 C 231.320312 572.171875 231.554688 571.933594 231.808594 571.714844 C 232.066406 571.5 232.339844 571.308594 232.636719 571.144531 C 232.929688 570.980469 233.238281 570.847656 233.554688 570.746094 C 233.875 570.640625 234.203125 570.570312 234.539062 570.535156 C 234.871094 570.496094 235.207031 570.488281 235.539062 570.515625 Z M 235.539062 570.515625 "/>
<g clip-path="url(#clip16)" clip-rule="nonzero">
<path style=" stroke:none;fill-rule:nonzero;fill:rgb(89.408875%,91.369629%,100%);fill-opacity:1;" d="M 278.207031 747.304688 L 234.332031 747.304688 C 213.125 747.304688 195.941406 730.105469 195.941406 709.003906 L 195.941406 643.007812 C 195.941406 620.320312 214.34375 601.898438 237.011719 601.898438 C 259.679688 601.898438 278.082031 620.320312 278.082031 643.007812 L 278.082031 747.304688 Z M 278.207031 747.304688 "/>
</g>
<path style=" stroke:none;fill-rule:nonzero;fill:rgb(100%,67.449951%,91.758728%);fill-opacity:1;" d="M 399.714844 764.261719 L 399.105469 764.507812 L 379.238281 764.507812 L 374.242188 743.035156 L 394.714844 738.402344 L 397.640625 763.773438 Z M 399.714844 764.261719 "/>
<path style=" stroke:none;fill-rule:nonzero;fill:rgb(100%,67.449951%,91.758728%);fill-opacity:1;" d="M 378.628906 761.699219 C 384.964844 761.457031 391.304688 761.945312 397.519531 762.554688 L 396.910156 756.699219 L 394.472656 735.109375 L 372.535156 735.109375 L 377.53125 756.699219 Z M 378.628906 761.699219 "/>
<path style=" stroke:none;fill-rule:nonzero;fill:rgb(100%,67.449951%,91.758728%);fill-opacity:1;" d="M 348.769531 631.785156 C 341.703125 627.761719 332.804688 628.613281 326.710938 633.980469 L 294.902344 661.183594 C 289.90625 665.453125 282.347656 665.089844 277.839844 660.207031 L 268.210938 649.839844 L 248.101562 669.96875 L 276.011719 694.609375 C 281.128906 699.246094 289.175781 698.632812 293.5625 693.265625 L 337.4375 640.933594 C 342.921875 644.105469 349.867188 642.886719 354.011719 638.007812 L 355.960938 635.691406 Z M 348.769531 631.785156 "/>
<path style=" stroke:none;fill-rule:nonzero;fill:rgb(12.548828%,38.42926%,66.268921%);fill-opacity:1;" d="M 329.757812 643.742188 L 329.878906 643.863281 L 329.878906 650.085938 L 390.9375 650.085938 L 407.636719 587.019531 L 400.808594 585.675781 L 385.941406 642.519531 L 329.757812 642.519531 Z M 329.757812 643.742188 "/>
<g clip-path="url(#clip17)" clip-rule="nonzero">
<path style=" stroke:none;fill-rule:nonzero;fill:rgb(18.818665%,57.649231%,81.568909%);fill-opacity:1;" d="M 387.527344 674.847656 L 386.550781 666.550781 C 384.113281 653.132812 369.125 646.058594 357.179688 653.132812 L 279.179688 712.054688 L 196.308594 712.296875 L 196.792969 733.035156 C 197.523438 753.160156 212.027344 769.140625 232.136719 769.140625 L 272.84375 769.140625 C 292.097656 769.140625 300.996094 763.042969 312.816406 751.820312 C 315.5 749.257812 318.300781 746.453125 321.46875 743.402344 L 330.855469 735.109375 L 365.34375 704.367188 L 372.535156 735.109375 C 372.65625 735.109375 388.011719 734.132812 394.351562 733.644531 Z M 387.527344 674.847656 "/>
</g>
<path style=" stroke:none;fill-rule:nonzero;fill:rgb(35.688782%,77.249146%,78.819275%);fill-opacity:1;" d="M 408.367188 757.675781 L 397.761719 756.699219 L 396.910156 751.941406 L 376.191406 754.746094 C 376.3125 755.722656 376.4375 756.578125 376.558594 757.554688 L 377.289062 763.652344 C 377.53125 765.359375 377.65625 766.945312 377.898438 768.652344 L 406.78125 764.75 C 408.121094 765.117188 407.269531 765.238281 408.367188 764.261719 C 408.609375 764.019531 408.730469 763.898438 408.976562 763.53125 C 410.074219 762.066406 410.074219 759.992188 409.097656 758.40625 C 408.730469 758.164062 408.488281 757.917969 408.367188 757.675781 Z M 408.367188 757.675781 "/>
<path style=" stroke:none;fill-rule:nonzero;fill:rgb(100%,67.449951%,91.758728%);fill-opacity:1;" d="M 396.910156 751.941406 L 396.910156 750.964844 L 394.714844 733.644531 C 394.472656 733.644531 394.351562 733.644531 394.105469 733.644531 C 387.769531 734.011719 372.414062 735.109375 372.292969 735.109375 L 375.949219 754.871094 L 396.667969 752.0625 Z M 396.910156 751.941406 "/>
<path style=" stroke:none;fill-rule:nonzero;fill:rgb(100%,67.449951%,91.758728%);fill-opacity:1;" d="M 459.308594 751.820312 C 459.554688 750.722656 459.675781 749.503906 459.917969 748.40625 L 444.5625 746.941406 L 439.929688 768.410156 L 456.871094 768.042969 Z M 459.308594 751.820312 "/>
<g clip-path="url(#clip18)" clip-rule="nonzero">
<path style=" stroke:none;fill-rule:nonzero;fill:rgb(35.688782%,77.249146%,78.819275%);fill-opacity:1;" d="M 474.789062 739.011719 C 474.664062 738.769531 474.421875 738.523438 474.300781 738.28125 C 473.082031 736.816406 471.007812 736.449219 469.304688 737.183594 C 469.058594 737.304688 468.816406 737.425781 468.570312 737.546875 L 464.914062 749.015625 L 464.914062 749.257812 C 464.429688 749.136719 463.820312 749.015625 463.332031 748.890625 C 462.234375 748.648438 461.136719 748.40625 460.039062 748.160156 C 460.039062 748.28125 460.039062 748.40625 459.917969 748.527344 C 459.675781 749.625 459.554688 750.722656 459.308594 751.941406 L 456.871094 768.289062 L 456.871094 768.53125 L 472.960938 768.53125 L 474.421875 748.039062 L 474.421875 747.304688 L 474.910156 740.71875 C 475.519531 739.378906 475.519531 740.230469 474.789062 739.011719 Z M 474.789062 739.011719 "/>
</g>
</g>
</svg>
