<?xml version="1.0" encoding="UTF-8"?>
<svg xmlns="http://www.w3.org/2000/svg" xmlns:xlink="http://www.w3.org/1999/xlink" width="1440pt" height="809.999993pt" viewBox="0 0 1440 809.999993" version="1.2">
<defs>
<clipPath id="clip1">
  <path d="M 391.089844 81 L 1048.78125 81 L 1048.78125 739 L 391.089844 739 Z M 391.089844 81 "/>
</clipPath>
<clipPath id="clip2">
  <path d="M 528 556 L 912 556 L 912 803.25 L 528 803.25 Z M 528 556 "/>
</clipPath>
</defs>
<g id="surface1">
<g clip-path="url(#clip1)" clip-rule="nonzero">
<path style=" stroke:none;fill-rule:nonzero;fill:rgb(93.328857%,75.689697%,14.118958%);fill-opacity:1;" d="M 1048.8125 410.027344 C 1048.8125 591.695312 901.625 738.953125 720.042969 738.953125 C 538.460938 738.953125 391.273438 591.695312 391.273438 410.027344 C 391.265625 228.363281 538.460938 81.105469 720.042969 81.105469 C 901.625 81.097656 1048.8125 228.363281 1048.8125 410.027344 "/>
</g>
<g clip-path="url(#clip2)" clip-rule="nonzero">
<path style=" stroke:none;fill-rule:nonzero;fill:rgb(100%,100%,100%);fill-opacity:1;" d="M 911.859375 739.851562 C 895.59375 752 878.136719 762.640625 859.691406 771.542969 C 856.886719 772.902344 854.082031 774.203125 851.234375 775.480469 C 811.1875 793.449219 766.785156 803.4375 720.042969 803.4375 C 673.296875 803.4375 628.914062 793.449219 588.867188 775.480469 C 586 774.203125 583.175781 772.902344 580.390625 771.542969 C 561.945312 762.621094 544.488281 752 528.242188 739.851562 C 531.089844 676.269531 564.855469 620.722656 614.867188 587.925781 C 645.078125 568.09375 681.207031 556.574219 720.042969 556.574219 C 725.964844 556.574219 731.828125 556.84375 737.582031 557.371094 C 769.757812 560.28125 799.613281 571.109375 825.214844 587.925781 C 848.242188 603.027344 867.816406 622.945312 882.511719 646.234375 C 899.761719 673.566406 910.289062 705.546875 911.859375 739.851562 "/>
</g>
<path style=" stroke:none;fill-rule:nonzero;fill:rgb(96.859741%,60.778809%,40.779114%);fill-opacity:1;" d="M 825.214844 587.925781 C 822.28125 610.105469 812.507812 630.148438 798.042969 645.816406 C 778.65625 666.820312 750.898438 679.996094 720.042969 679.996094 C 670.617188 679.996094 629.082031 646.171875 617.296875 600.386719 C 616.25 596.324219 615.433594 592.15625 614.867188 587.925781 C 645.078125 568.09375 681.207031 556.574219 720.042969 556.574219 C 725.964844 556.574219 731.828125 556.824219 737.605469 557.371094 C 738.609375 557.453125 739.613281 557.558594 740.597656 557.664062 C 741.226562 557.726562 741.855469 557.789062 742.460938 557.871094 C 743.152344 557.933594 743.84375 558.039062 744.511719 558.125 C 744.933594 558.164062 745.371094 558.226562 745.789062 558.289062 C 746.398438 558.355469 747.023438 558.457031 747.652344 558.542969 C 748.132812 558.605469 748.617188 558.6875 749.117188 558.75 C 749.539062 558.8125 749.957031 558.878906 750.375 558.960938 C 751.085938 559.066406 751.777344 559.191406 752.488281 559.296875 C 755.546875 559.820312 758.582031 560.40625 761.574219 561.078125 L 763.585938 561.515625 C 763.960938 561.621094 764.359375 561.703125 764.734375 561.808594 C 765.445312 561.976562 766.179688 562.144531 766.871094 562.332031 C 766.996094 562.355469 767.101562 562.375 767.183594 562.394531 C 768.085938 562.625 768.984375 562.855469 769.863281 563.109375 C 770.828125 563.339844 771.769531 563.609375 772.691406 563.882812 C 773.757812 564.175781 774.804688 564.488281 775.871094 564.804688 C 776.6875 565.054688 777.503906 565.308594 778.320312 565.578125 C 778.84375 565.746094 779.390625 565.914062 779.890625 566.082031 C 780.75 566.355469 781.609375 566.648438 782.445312 566.941406 C 783.492188 567.296875 784.519531 567.652344 785.542969 568.03125 C 785.628906 568.070312 785.691406 568.09375 785.753906 568.113281 C 786.820312 568.492188 787.867188 568.886719 788.914062 569.285156 C 789.6875 569.601562 790.484375 569.894531 791.28125 570.230469 C 793.351562 571.046875 795.382812 571.902344 797.390625 572.785156 L 800.03125 573.976562 C 800.824219 574.332031 801.621094 574.710938 802.417969 575.085938 C 803.148438 575.445312 803.859375 575.777344 804.574219 576.136719 C 805.242188 576.449219 805.890625 576.785156 806.539062 577.121094 C 806.960938 577.328125 807.398438 577.539062 807.816406 577.769531 C 809.554688 578.648438 811.25 579.570312 812.925781 580.492188 C 813.53125 580.828125 814.160156 581.183594 814.746094 581.515625 C 815.144531 581.746094 815.519531 581.957031 815.898438 582.167969 L 817.320312 583.003906 L 818.765625 583.882812 L 819.707031 584.449219 C 820.609375 584.972656 821.488281 585.519531 822.367188 586.082031 C 823.328125 586.691406 824.273438 587.296875 825.214844 587.925781 "/>
<path style=" stroke:none;fill-rule:nonzero;fill:rgb(96.859741%,60.778809%,40.779114%);fill-opacity:1;" d="M 766.785156 503.898438 L 766.785156 595.90625 C 766.785156 619.175781 747.757812 638.234375 724.5 638.234375 L 715.582031 638.234375 C 692.324219 638.234375 673.316406 619.175781 673.316406 595.90625 L 673.316406 503.898438 C 673.316406 480.628906 692.324219 461.613281 715.582031 461.613281 L 724.5 461.613281 C 747.757812 461.613281 766.785156 480.628906 766.785156 503.898438 "/>
<path style=" stroke:none;fill-rule:nonzero;fill:rgb(95.689392%,44.309998%,42.749023%);fill-opacity:1;" d="M 766.785156 503.898438 L 766.785156 552.59375 C 752.886719 560.324219 738.148438 564.804688 723.179688 564.804688 C 705.535156 564.804688 688.703125 559.902344 673.316406 551.335938 L 673.316406 503.898438 C 673.316406 480.628906 692.324219 461.613281 715.582031 461.613281 L 724.5 461.613281 C 747.757812 461.613281 766.785156 480.628906 766.785156 503.898438 "/>
<path style=" stroke:none;fill-rule:nonzero;fill:rgb(96.859741%,60.778809%,40.779114%);fill-opacity:1;" d="M 834.027344 468.421875 C 834.027344 468.421875 855.925781 460.964844 869.90625 436.542969 C 885.105469 410.027344 875.558594 393.503906 872.546875 389.921875 C 864.320312 380.140625 851.613281 386.425781 849.519531 389.921875 C 847.425781 393.421875 817.113281 448.503906 834.027344 468.421875 "/>
<path style=" stroke:none;fill-rule:nonzero;fill:rgb(95.689392%,44.309998%,42.749023%);fill-opacity:1;" d="M 855.484375 398.613281 C 855.484375 398.613281 869.386719 400.394531 864.507812 419.933594 C 859.609375 439.496094 846.777344 447.226562 829.316406 457.214844 C 811.878906 467.207031 838.046875 402.59375 855.484375 398.613281 "/>
<path style=" stroke:none;fill-rule:nonzero;fill:rgb(96.859741%,60.778809%,40.779114%);fill-opacity:1;" d="M 611.75 468.421875 C 611.75 468.421875 589.851562 460.964844 575.867188 436.542969 C 560.648438 410.027344 570.195312 393.503906 573.210938 389.921875 C 581.4375 380.140625 594.144531 386.425781 596.238281 389.921875 C 598.332031 393.421875 628.664062 448.503906 611.75 468.421875 "/>
<path style=" stroke:none;fill-rule:nonzero;fill:rgb(95.689392%,44.309998%,42.749023%);fill-opacity:1;" d="M 590.269531 398.613281 C 590.269531 398.613281 576.390625 400.394531 581.269531 419.933594 C 586.148438 439.496094 599 447.226562 616.4375 457.214844 C 633.898438 467.207031 607.730469 402.59375 590.269531 398.613281 "/>
<path style=" stroke:none;fill-rule:nonzero;fill:rgb(24.708557%,14.118958%,38.819885%);fill-opacity:1;" d="M 735.09375 327.089844 C 735.09375 327.089844 759.984375 407.203125 853.601562 399.261719 C 853.601562 399.261719 869.949219 375.617188 864.421875 324.199219 C 858.183594 266.25 806.875 217.492188 723.179688 234.9375 C 723.179688 234.9375 715.539062 276.132812 735.09375 327.089844 "/>
<path style=" stroke:none;fill-rule:nonzero;fill:rgb(24.708557%,14.118958%,38.819885%);fill-opacity:1;" d="M 739.28125 240.339844 C 739.28125 240.339844 742.753906 225.179688 730.195312 213.300781 C 717.632812 201.425781 551.332031 225.804688 590.855469 385.714844 C 590.855469 385.714844 629.628906 290.082031 732.289062 281.707031 L 739.28125 240.339844 "/>
<path style=" stroke:none;fill-rule:nonzero;fill:rgb(96.859741%,60.778809%,40.779114%);fill-opacity:1;" d="M 855.484375 385.714844 C 855.484375 305.433594 796.261719 240.339844 723.179688 240.339844 C 650.121094 240.339844 590.855469 305.433594 590.855469 385.714844 C 590.855469 465.992188 650.121094 549.914062 723.179688 549.914062 C 791.84375 549.914062 855.484375 465.320312 855.484375 385.714844 "/>
<path style=" stroke:none;fill-rule:nonzero;fill:rgb(24.708557%,14.118958%,38.819885%);fill-opacity:1;" d="M 584.808594 294.628906 C 584.808594 294.628906 570.132812 347.09375 582.691406 398.613281 C 582.691406 398.613281 677.523438 408.226562 715.414062 395.136719 C 715.414062 395.136719 735.511719 355.890625 735.511719 305.101562 C 735.511719 305.101562 741.269531 366.820312 730.277344 395.136719 C 730.277344 395.136719 741.269531 397.777344 745.457031 392.015625 C 749.640625 386.257812 779.996094 336.515625 770.574219 272.636719 C 770.574219 272.636719 819.246094 347.449219 817.15625 395.136719 C 817.15625 395.136719 833.378906 390.445312 836.519531 365.835938 C 836.519531 365.835938 845.269531 387.617188 844.558594 398.613281 C 844.558594 398.613281 848.640625 402.613281 863.210938 395.136719 C 863.210938 395.136719 886.824219 243.839844 739.71875 235.984375 C 739.71875 235.984375 608.921875 206.140625 584.808594 294.628906 "/>
</g>
</svg>
