<?xml version="1.0" encoding="UTF-8"?>
<svg xmlns="http://www.w3.org/2000/svg" xmlns:xlink="http://www.w3.org/1999/xlink" width="1440pt" height="809.999993pt" viewBox="0 0 1440 809.999993" version="1.2">
<defs>
<clipPath id="clip1">
  <path d="M 370.851562 55.851562 L 1069.066406 55.851562 L 1069.066406 754.066406 L 370.851562 754.066406 Z M 370.851562 55.851562 "/>
</clipPath>
<clipPath id="clip2">
  <path d="M 614 85 L 829.882812 85 L 829.882812 301.484375 L 614 301.484375 Z M 614 85 "/>
</clipPath>
<clipPath id="clip3">
  <path d="M 370.957031 405.070312 C 370.957031 597.886719 527.257812 754.179688 720.066406 754.179688 C 912.878906 754.179688 1069.171875 597.886719 1069.171875 405.070312 C 1069.171875 212.257812 912.878906 55.964844 720.066406 55.964844 C 527.25 55.957031 370.957031 212.257812 370.957031 405.070312 Z M 370.957031 405.070312 "/>
</clipPath>
<clipPath id="clip4">
  <path d="M 794.316406 173 L 889 173 L 889 237 L 794.316406 237 Z M 794.316406 173 "/>
</clipPath>
<clipPath id="clip5">
  <path d="M 370.957031 405.070312 C 370.957031 597.886719 527.257812 754.179688 720.066406 754.179688 C 912.878906 754.179688 1069.171875 597.886719 1069.171875 405.070312 C 1069.171875 212.257812 912.878906 55.964844 720.066406 55.964844 C 527.25 55.957031 370.957031 212.257812 370.957031 405.070312 Z M 370.957031 405.070312 "/>
</clipPath>
<clipPath id="clip6">
  <path d="M 516 560 L 924 560 L 924 754.066406 L 516 754.066406 Z M 516 560 "/>
</clipPath>
<clipPath id="clip7">
  <path d="M 370.957031 405.070312 C 370.957031 597.886719 527.257812 754.179688 720.066406 754.179688 C 912.878906 754.179688 1069.171875 597.886719 1069.171875 405.070312 C 1069.171875 212.257812 912.878906 55.964844 720.066406 55.964844 C 527.25 55.957031 370.957031 212.257812 370.957031 405.070312 Z M 370.957031 405.070312 "/>
</clipPath>
<clipPath id="clip8">
  <path d="M 608 560 L 832 560 L 832 692 L 608 692 Z M 608 560 "/>
</clipPath>
<clipPath id="clip9">
  <path d="M 370.957031 405.070312 C 370.957031 597.886719 527.257812 754.179688 720.066406 754.179688 C 912.878906 754.179688 1069.171875 597.886719 1069.171875 405.070312 C 1069.171875 212.257812 912.878906 55.964844 720.066406 55.964844 C 527.25 55.957031 370.957031 212.257812 370.957031 405.070312 Z M 370.957031 405.070312 "/>
</clipPath>
<clipPath id="clip10">
  <path d="M 680 479.316406 L 760 479.316406 L 760 628 L 680 628 Z M 680 479.316406 "/>
</clipPath>
<clipPath id="clip11">
  <path d="M 370.957031 405.070312 C 370.957031 597.886719 527.257812 754.179688 720.066406 754.179688 C 912.878906 754.179688 1069.171875 597.886719 1069.171875 405.070312 C 1069.171875 212.257812 912.878906 55.964844 720.066406 55.964844 C 527.25 55.957031 370.957031 212.257812 370.957031 405.070312 Z M 370.957031 405.070312 "/>
</clipPath>
<clipPath id="clip12">
  <path d="M 680 479.316406 L 760 479.316406 L 760 567 L 680 567 Z M 680 479.316406 "/>
</clipPath>
<clipPath id="clip13">
  <path d="M 370.957031 405.070312 C 370.957031 597.886719 527.257812 754.179688 720.066406 754.179688 C 912.878906 754.179688 1069.171875 597.886719 1069.171875 405.070312 C 1069.171875 212.257812 912.878906 55.964844 720.066406 55.964844 C 527.25 55.957031 370.957031 212.257812 370.957031 405.070312 Z M 370.957031 405.070312 "/>
</clipPath>
<clipPath id="clip14">
  <path d="M 835 378 L 889 378 L 889 468 L 835 468 Z M 835 378 "/>
</clipPath>
<clipPath id="clip15">
  <path d="M 370.957031 405.070312 C 370.957031 597.886719 527.257812 754.179688 720.066406 754.179688 C 912.878906 754.179688 1069.171875 597.886719 1069.171875 405.070312 C 1069.171875 212.257812 912.878906 55.964844 720.066406 55.964844 C 527.25 55.957031 370.957031 212.257812 370.957031 405.070312 Z M 370.957031 405.070312 "/>
</clipPath>
<clipPath id="clip16">
  <path d="M 830 392.625 L 875 392.625 L 875 457 L 830 457 Z M 830 392.625 "/>
</clipPath>
<clipPath id="clip17">
  <path d="M 370.957031 405.070312 C 370.957031 597.886719 527.257812 754.179688 720.066406 754.179688 C 912.878906 754.179688 1069.171875 597.886719 1069.171875 405.070312 C 1069.171875 212.257812 912.878906 55.964844 720.066406 55.964844 C 527.25 55.957031 370.957031 212.257812 370.957031 405.070312 Z M 370.957031 405.070312 "/>
</clipPath>
<clipPath id="clip18">
  <path d="M 558 378 L 611 378 L 611 468 L 558 468 Z M 558 378 "/>
</clipPath>
<clipPath id="clip19">
  <path d="M 370.957031 405.070312 C 370.957031 597.886719 527.257812 754.179688 720.066406 754.179688 C 912.878906 754.179688 1069.171875 597.886719 1069.171875 405.070312 C 1069.171875 212.257812 912.878906 55.964844 720.066406 55.964844 C 527.25 55.957031 370.957031 212.257812 370.957031 405.070312 Z M 370.957031 405.070312 "/>
</clipPath>
<clipPath id="clip20">
  <path d="M 571 392.625 L 616.484375 392.625 L 616.484375 457 L 571 457 Z M 571 392.625 "/>
</clipPath>
<clipPath id="clip21">
  <path d="M 370.957031 405.070312 C 370.957031 597.886719 527.257812 754.179688 720.066406 754.179688 C 912.878906 754.179688 1069.171875 597.886719 1069.171875 405.070312 C 1069.171875 212.257812 912.878906 55.964844 720.066406 55.964844 C 527.25 55.957031 370.957031 212.257812 370.957031 405.070312 Z M 370.957031 405.070312 "/>
</clipPath>
<clipPath id="clip22">
  <path d="M 582 224 L 864 224 L 864 554 L 582 554 Z M 582 224 "/>
</clipPath>
<clipPath id="clip23">
  <path d="M 370.957031 405.070312 C 370.957031 597.886719 527.257812 754.179688 720.066406 754.179688 C 912.878906 754.179688 1069.171875 597.886719 1069.171875 405.070312 C 1069.171875 212.257812 912.878906 55.964844 720.066406 55.964844 C 527.25 55.957031 370.957031 212.257812 370.957031 405.070312 Z M 370.957031 405.070312 "/>
</clipPath>
<clipPath id="clip24">
  <path d="M 721 215 L 875 215 L 875 394.847656 L 721 394.847656 Z M 721 215 "/>
</clipPath>
<clipPath id="clip25">
  <path d="M 370.957031 405.070312 C 370.957031 597.886719 527.257812 754.179688 720.066406 754.179688 C 912.878906 754.179688 1069.171875 597.886719 1069.171875 405.070312 C 1069.171875 212.257812 912.878906 55.964844 720.066406 55.964844 C 527.25 55.957031 370.957031 212.257812 370.957031 405.070312 Z M 370.957031 405.070312 "/>
</clipPath>
<clipPath id="clip26">
  <path d="M 576.472656 193 L 740.96875 193 L 740.96875 379.285156 L 576.472656 379.285156 Z M 576.472656 193 "/>
</clipPath>
<clipPath id="clip27">
  <path d="M 370.957031 405.070312 C 370.957031 597.886719 527.257812 754.179688 720.066406 754.179688 C 912.878906 754.179688 1069.171875 597.886719 1069.171875 405.070312 C 1069.171875 212.257812 912.878906 55.964844 720.066406 55.964844 C 527.25 55.957031 370.957031 212.257812 370.957031 405.070312 Z M 370.957031 405.070312 "/>
</clipPath>
<clipPath id="clip28">
  <path d="M 743.191406 376 L 854.335938 376 L 854.335938 443.75 L 743.191406 443.75 Z M 743.191406 376 "/>
</clipPath>
<clipPath id="clip29">
  <path d="M 370.957031 405.070312 C 370.957031 597.886719 527.257812 754.179688 720.066406 754.179688 C 912.878906 754.179688 1069.171875 597.886719 1069.171875 405.070312 C 1069.171875 212.257812 912.878906 55.964844 720.066406 55.964844 C 527.25 55.957031 370.957031 212.257812 370.957031 405.070312 Z M 370.957031 405.070312 "/>
</clipPath>
<clipPath id="clip30">
  <path d="M 695 401.515625 L 747 401.515625 L 747 412.628906 L 695 412.628906 Z M 695 401.515625 "/>
</clipPath>
<clipPath id="clip31">
  <path d="M 370.957031 405.070312 C 370.957031 597.886719 527.257812 754.179688 720.066406 754.179688 C 912.878906 754.179688 1069.171875 597.886719 1069.171875 405.070312 C 1069.171875 212.257812 912.878906 55.964844 720.066406 55.964844 C 527.25 55.957031 370.957031 212.257812 370.957031 405.070312 Z M 370.957031 405.070312 "/>
</clipPath>
<clipPath id="clip32">
  <path d="M 592.03125 376 L 703.175781 376 L 703.175781 443.75 L 592.03125 443.75 Z M 592.03125 376 "/>
</clipPath>
<clipPath id="clip33">
  <path d="M 370.957031 405.070312 C 370.957031 597.886719 527.257812 754.179688 720.066406 754.179688 C 912.878906 754.179688 1069.171875 597.886719 1069.171875 405.070312 C 1069.171875 212.257812 912.878906 55.964844 720.066406 55.964844 C 527.25 55.957031 370.957031 212.257812 370.957031 405.070312 Z M 370.957031 405.070312 "/>
</clipPath>
<clipPath id="clip34">
  <path d="M 842 373 L 872 373 L 872 412.628906 L 842 412.628906 Z M 842 373 "/>
</clipPath>
<clipPath id="clip35">
  <path d="M 370.957031 405.070312 C 370.957031 597.886719 527.257812 754.179688 720.066406 754.179688 C 912.878906 754.179688 1069.171875 597.886719 1069.171875 405.070312 C 1069.171875 212.257812 912.878906 55.964844 720.066406 55.964844 C 527.25 55.957031 370.957031 212.257812 370.957031 405.070312 Z M 370.957031 405.070312 "/>
</clipPath>
<clipPath id="clip36">
  <path d="M 576.472656 373 L 605 373 L 605 412.628906 L 576.472656 412.628906 Z M 576.472656 373 "/>
</clipPath>
<clipPath id="clip37">
  <path d="M 370.957031 405.070312 C 370.957031 597.886719 527.257812 754.179688 720.066406 754.179688 C 912.878906 754.179688 1069.171875 597.886719 1069.171875 405.070312 C 1069.171875 212.257812 912.878906 55.964844 720.066406 55.964844 C 527.25 55.957031 370.957031 212.257812 370.957031 405.070312 Z M 370.957031 405.070312 "/>
</clipPath>
</defs>
<g id="surface1">
<g clip-path="url(#clip1)" clip-rule="nonzero">
<path style=" stroke:none;fill-rule:nonzero;fill:rgb(93.328857%,75.689697%,14.118958%);fill-opacity:1;" d="M 370.957031 405.070312 C 370.957031 597.886719 527.257812 754.179688 720.066406 754.179688 C 912.878906 754.179688 1069.171875 597.886719 1069.171875 405.070312 C 1069.171875 212.257812 912.878906 55.964844 720.066406 55.964844 C 527.25 55.957031 370.957031 212.257812 370.957031 405.070312 "/>
</g>
<g clip-path="url(#clip2)" clip-rule="nonzero">
<g clip-path="url(#clip3)" clip-rule="nonzero">
<path style=" stroke:none;fill-rule:nonzero;fill:rgb(19.999695%,8.239746%,12.548828%);fill-opacity:1;" d="M 829.683594 193.519531 C 829.683594 253.070312 781.402344 301.351562 721.851562 301.351562 C 662.296875 301.351562 614.015625 253.070312 614.015625 193.519531 C 614.015625 133.976562 662.296875 85.707031 721.851562 85.707031 C 781.402344 85.707031 829.683594 133.976562 829.683594 193.519531 "/>
</g>
</g>
<g clip-path="url(#clip4)" clip-rule="nonzero">
<g clip-path="url(#clip5)" clip-rule="nonzero">
<path style=" stroke:none;fill-rule:nonzero;fill:rgb(100%,100%,100%);fill-opacity:1;" d="M 794.605469 230.195312 C 794.605469 230.195312 879.632812 174.066406 882.410156 173.511719 C 885.1875 172.957031 888.125 182.957031 888.125 182.957031 L 800.71875 236.308594 L 794.605469 230.195312 "/>
</g>
</g>
<g clip-path="url(#clip6)" clip-rule="nonzero">
<g clip-path="url(#clip7)" clip-rule="nonzero">
<path style=" stroke:none;fill-rule:nonzero;fill:rgb(47.059631%,81.959534%,79.998779%);fill-opacity:1;" d="M 923.757812 755.136719 C 906.484375 768.027344 887.945312 779.320312 868.363281 788.765625 C 865.382812 790.210938 862.402344 791.589844 859.382812 792.945312 C 816.855469 812.019531 769.710938 822.621094 720.070312 822.621094 C 670.433594 822.621094 623.308594 812.019531 580.785156 792.945312 C 577.738281 791.589844 574.738281 790.210938 571.78125 788.765625 C 552.199219 779.296875 533.660156 768.027344 516.410156 755.136719 C 519.433594 687.648438 555.289062 628.695312 608.394531 593.886719 C 640.46875 572.835938 678.835938 560.609375 720.070312 560.609375 C 726.363281 560.609375 732.585938 560.898438 738.699219 561.453125 C 772.867188 564.542969 804.5625 576.035156 831.75 593.886719 C 856.203125 609.914062 876.988281 631.050781 892.589844 655.769531 C 910.90625 684.78125 922.089844 718.722656 923.757812 755.136719 "/>
</g>
</g>
<g clip-path="url(#clip8)" clip-rule="nonzero">
<g clip-path="url(#clip9)" clip-rule="nonzero">
<path style=" stroke:none;fill-rule:nonzero;fill:rgb(72.938538%,36.079407%,12.939453%);fill-opacity:1;" d="M 831.75 593.886719 C 828.636719 617.425781 818.257812 638.699219 802.898438 655.328125 C 782.3125 677.621094 752.835938 691.605469 720.070312 691.605469 C 667.589844 691.605469 623.484375 655.703125 610.972656 607.113281 C 609.859375 602.800781 608.992188 598.375 608.394531 593.886719 C 640.46875 572.835938 678.835938 560.609375 720.070312 560.609375 C 726.363281 560.609375 732.585938 560.875 738.722656 561.453125 C 739.789062 561.542969 740.855469 561.652344 741.902344 561.765625 C 742.566406 561.832031 743.234375 561.898438 743.878906 561.988281 C 744.613281 562.054688 745.347656 562.164062 746.058594 562.253906 C 746.5 562.296875 746.96875 562.363281 747.414062 562.429688 C 748.058594 562.496094 748.726562 562.609375 749.390625 562.699219 C 749.902344 562.765625 750.414062 562.851562 750.949219 562.921875 C 751.390625 562.988281 751.835938 563.054688 752.28125 563.140625 C 753.039062 563.253906 753.769531 563.386719 754.527344 563.5 C 757.773438 564.054688 760.996094 564.675781 764.175781 565.386719 L 766.308594 565.855469 C 766.707031 565.964844 767.128906 566.054688 767.53125 566.164062 C 768.285156 566.34375 769.0625 566.519531 769.796875 566.722656 C 769.929688 566.742188 770.042969 566.765625 770.132812 566.789062 C 771.085938 567.03125 772.042969 567.277344 772.976562 567.542969 C 774 567.789062 775 568.078125 775.976562 568.367188 C 777.109375 568.675781 778.222656 569.011719 779.355469 569.34375 C 780.222656 569.609375 781.089844 569.878906 781.957031 570.167969 C 782.511719 570.34375 783.089844 570.523438 783.625 570.699219 C 784.535156 570.988281 785.445312 571.300781 786.335938 571.613281 C 787.449219 571.988281 788.535156 572.367188 789.625 572.765625 C 789.714844 572.8125 789.78125 572.835938 789.847656 572.855469 C 790.980469 573.257812 792.09375 573.679688 793.207031 574.101562 C 794.027344 574.433594 794.871094 574.746094 795.71875 575.101562 C 797.917969 575.96875 800.074219 576.878906 802.207031 577.8125 L 805.007812 579.082031 C 805.851562 579.457031 806.699219 579.859375 807.542969 580.257812 C 808.320312 580.636719 809.078125 580.992188 809.832031 581.371094 C 810.542969 581.703125 811.234375 582.058594 811.921875 582.414062 C 812.367188 582.636719 812.832031 582.859375 813.277344 583.105469 C 815.121094 584.039062 816.921875 585.015625 818.703125 585.992188 C 819.347656 586.347656 820.011719 586.726562 820.636719 587.082031 C 821.058594 587.328125 821.457031 587.550781 821.859375 587.773438 L 823.371094 588.660156 L 824.902344 589.59375 L 825.902344 590.195312 C 826.859375 590.75 827.792969 591.328125 828.726562 591.929688 C 829.75 592.574219 830.75 593.21875 831.75 593.886719 "/>
</g>
</g>
<g clip-path="url(#clip10)" clip-rule="nonzero">
<g clip-path="url(#clip11)" clip-rule="nonzero">
<path style=" stroke:none;fill-rule:nonzero;fill:rgb(72.938538%,36.079407%,12.939453%);fill-opacity:1;" d="M 759.328125 514.925781 L 759.328125 592.152344 C 759.328125 611.691406 743.34375 627.695312 723.828125 627.695312 L 716.316406 627.695312 C 696.796875 627.695312 680.835938 611.691406 680.835938 592.152344 L 680.835938 514.925781 C 680.835938 495.386719 696.796875 479.40625 716.316406 479.40625 L 723.828125 479.40625 C 743.34375 479.40625 759.328125 495.386719 759.328125 514.925781 "/>
</g>
</g>
<g clip-path="url(#clip12)" clip-rule="nonzero">
<g clip-path="url(#clip13)" clip-rule="nonzero">
<path style=" stroke:none;fill-rule:nonzero;fill:rgb(61.959839%,22.349548%,16.859436%);fill-opacity:1;" d="M 759.328125 514.925781 L 759.328125 555.785156 C 747.65625 562.277344 735.277344 566.054688 722.714844 566.054688 C 707.890625 566.054688 693.753906 561.917969 680.835938 554.738281 L 680.835938 514.925781 C 680.835938 495.386719 696.796875 479.40625 716.316406 479.40625 L 723.828125 479.40625 C 743.34375 479.40625 759.328125 495.386719 759.328125 514.925781 "/>
</g>
</g>
<g clip-path="url(#clip14)" clip-rule="nonzero">
<g clip-path="url(#clip15)" clip-rule="nonzero">
<path style=" stroke:none;fill-rule:nonzero;fill:rgb(72.938538%,36.079407%,12.939453%);fill-opacity:1;" d="M 841.109375 467.046875 C 841.109375 467.046875 864.359375 459.132812 879.210938 433.214844 C 895.347656 405.070312 885.210938 387.53125 882.011719 383.730469 C 873.273438 373.351562 859.78125 380.019531 857.558594 383.730469 C 855.335938 387.445312 823.148438 445.90625 841.109375 467.046875 "/>
</g>
</g>
<g clip-path="url(#clip16)" clip-rule="nonzero">
<g clip-path="url(#clip17)" clip-rule="nonzero">
<path style=" stroke:none;fill-rule:nonzero;fill:rgb(61.959839%,22.349548%,16.859436%);fill-opacity:1;" d="M 863.894531 392.957031 C 863.894531 392.957031 878.652344 394.847656 873.472656 415.585938 C 868.273438 436.347656 854.644531 444.550781 836.105469 455.152344 C 817.589844 465.757812 845.375 397.179688 863.894531 392.957031 "/>
</g>
</g>
<g clip-path="url(#clip18)" clip-rule="nonzero">
<g clip-path="url(#clip19)" clip-rule="nonzero">
<path style=" stroke:none;fill-rule:nonzero;fill:rgb(72.938538%,36.079407%,12.939453%);fill-opacity:1;" d="M 605.082031 467.046875 C 605.082031 467.046875 581.828125 459.132812 566.980469 433.214844 C 550.820312 405.070312 560.957031 387.53125 564.15625 383.730469 C 572.894531 373.351562 586.386719 380.019531 588.609375 383.730469 C 590.832031 387.445312 623.042969 445.90625 605.082031 467.046875 "/>
</g>
</g>
<g clip-path="url(#clip20)" clip-rule="nonzero">
<g clip-path="url(#clip21)" clip-rule="nonzero">
<path style=" stroke:none;fill-rule:nonzero;fill:rgb(61.959839%,22.349548%,16.859436%);fill-opacity:1;" d="M 582.273438 392.957031 C 582.273438 392.957031 567.535156 394.847656 572.714844 415.585938 C 577.894531 436.347656 591.542969 444.550781 610.058594 455.152344 C 628.597656 465.757812 600.8125 397.179688 582.273438 392.957031 "/>
</g>
</g>
<g clip-path="url(#clip22)" clip-rule="nonzero">
<g clip-path="url(#clip23)" clip-rule="nonzero">
<path style=" stroke:none;fill-rule:nonzero;fill:rgb(72.938538%,36.079407%,12.939453%);fill-opacity:1;" d="M 863.894531 379.261719 C 863.894531 294.058594 801.007812 224.972656 723.40625 224.972656 C 645.828125 224.972656 582.894531 294.058594 582.894531 379.261719 C 582.894531 464.46875 645.828125 553.539062 723.40625 553.539062 C 796.316406 553.539062 863.894531 463.757812 863.894531 379.265625 "/>
</g>
</g>
<g clip-path="url(#clip24)" clip-rule="nonzero">
<g clip-path="url(#clip25)" clip-rule="nonzero">
<path style=" stroke:none;fill-rule:nonzero;fill:rgb(19.999695%,8.239746%,12.548828%);fill-opacity:1;" d="M 736.054688 317.042969 C 736.054688 317.042969 762.484375 402.070312 861.894531 393.644531 C 861.894531 393.644531 879.253906 368.550781 873.386719 313.976562 C 866.761719 252.46875 812.277344 200.71875 723.40625 219.238281 C 723.40625 219.238281 715.292969 262.960938 736.054688 317.042969 "/>
</g>
</g>
<g clip-path="url(#clip26)" clip-rule="nonzero">
<g clip-path="url(#clip27)" clip-rule="nonzero">
<path style=" stroke:none;fill-rule:nonzero;fill:rgb(19.999695%,8.239746%,12.548828%);fill-opacity:1;" d="M 740.5 224.972656 C 740.5 224.972656 744.191406 208.878906 730.851562 196.273438 C 717.515625 183.671875 540.925781 209.542969 582.894531 379.261719 C 582.894531 379.261719 624.0625 277.765625 733.074219 268.875 L 740.5 224.972656 "/>
</g>
</g>
<g clip-path="url(#clip28)" clip-rule="nonzero">
<g clip-path="url(#clip29)" clip-rule="nonzero">
<path style=" stroke:none;fill-rule:nonzero;fill:rgb(100%,100%,100%);fill-opacity:1;" d="M 798.894531 437.636719 C 773.53125 437.636719 752.96875 425.234375 752.96875 409.917969 C 752.96875 394.601562 773.53125 382.175781 798.894531 382.175781 C 824.257812 382.175781 844.796875 394.601562 844.796875 409.917969 C 844.796875 425.234375 824.257812 437.636719 798.894531 437.636719 Z M 798.894531 376.617188 C 768.441406 376.617188 743.769531 391.535156 743.769531 409.917969 C 743.769531 428.300781 768.441406 443.195312 798.894531 443.195312 C 829.328125 443.195312 854.023438 428.300781 854.023438 409.917969 C 854.023438 391.535156 829.328125 376.617188 798.894531 376.617188 "/>
</g>
</g>
<g clip-path="url(#clip30)" clip-rule="nonzero">
<g clip-path="url(#clip31)" clip-rule="nonzero">
<path style=" stroke:none;fill-rule:nonzero;fill:rgb(100%,100%,100%);fill-opacity:1;" d="M 695.796875 407.226562 C 696.554688 409.226562 696.820312 410.785156 696.820312 412.386719 C 704.332031 409.160156 713.492188 407.25 723.40625 407.25 C 731.519531 407.25 739.144531 408.539062 745.746094 410.761719 C 745.769531 410.605469 745.789062 410.429688 745.8125 410.273438 C 745.96875 408.429688 746.191406 406.605469 746.433594 404.761719 C 739.410156 402.804688 731.628906 401.691406 723.40625 401.691406 C 713.160156 401.691406 703.578125 403.382812 695.375 406.316406 C 695.507812 406.628906 695.664062 406.9375 695.796875 407.226562 "/>
</g>
</g>
<g clip-path="url(#clip32)" clip-rule="nonzero">
<g clip-path="url(#clip33)" clip-rule="nonzero">
<path style=" stroke:none;fill-rule:nonzero;fill:rgb(100%,100%,100%);fill-opacity:1;" d="M 647.914062 437.636719 C 622.550781 437.636719 601.992188 425.234375 601.992188 409.917969 C 601.992188 394.601562 622.550781 382.175781 647.914062 382.175781 C 673.28125 382.175781 693.839844 394.601562 693.839844 409.917969 C 693.839844 425.234375 673.28125 437.636719 647.914062 437.636719 Z M 647.914062 376.617188 C 617.484375 376.617188 592.808594 391.535156 592.808594 409.917969 C 592.808594 428.300781 617.484375 443.195312 647.917969 443.195312 C 678.371094 443.195312 703.042969 428.300781 703.042969 409.917969 C 703.042969 391.535156 678.371094 376.617188 647.917969 376.617188 "/>
</g>
</g>
<g clip-path="url(#clip34)" clip-rule="nonzero">
<g clip-path="url(#clip35)" clip-rule="nonzero">
<path style=" stroke:none;fill-rule:nonzero;fill:rgb(100%,100%,100%);fill-opacity:1;" d="M 842.953125 392.957031 L 863.894531 373.285156 L 871.296875 373.285156 L 871.296875 378.21875 L 854.023438 412.386719 L 842.953125 392.957031 "/>
</g>
</g>
<g clip-path="url(#clip36)" clip-rule="nonzero">
<g clip-path="url(#clip37)" clip-rule="nonzero">
<path style=" stroke:none;fill-rule:nonzero;fill:rgb(100%,100%,100%);fill-opacity:1;" d="M 604.8125 392.957031 L 583.851562 373.285156 L 576.472656 373.285156 L 576.472656 378.21875 L 593.742188 412.386719 L 604.8125 392.957031 "/>
</g>
</g>
</g>
</svg>
