<?xml version="1.0" encoding="UTF-8"?>
<svg xmlns="http://www.w3.org/2000/svg" xmlns:xlink="http://www.w3.org/1999/xlink" width="1440pt" height="809.999993pt" viewBox="0 0 1440 809.999993" version="1.2">
<defs>
<clipPath id="clip1">
  <path d="M 0 0 L 794 0 L 794 684 L 0 684 Z M 0 0 "/>
</clipPath>
<clipPath id="clip2">
  <path d="M -463.175781 251.226562 L 729.03125 -359.429688 L 950.933594 73.796875 L -241.273438 684.453125 Z M -463.175781 251.226562 "/>
</clipPath>
<clipPath id="clip3">
  <path d="M -463.175781 251.226562 L 729.03125 -359.429688 L 950.933594 73.796875 L -241.273438 684.453125 Z M -463.175781 251.226562 "/>
</clipPath>
<clipPath id="clip4">
  <path d="M -283.507812 597.691406 L -285.164062 597.804688 C -297.164062 499.722656 -255.636719 387.46875 -174.367188 297.773438 C -111.148438 227.871094 -25.160156 170.828125 95.804688 118.433594 C 144.582031 97.375 195.132812 78.347656 244.132812 60.117188 C 295.367188 40.988281 348.445312 21.15625 399.453125 -1.289062 C 458.332031 -27.035156 533.195312 -64.152344 590.871094 -122.390625 C 652.511719 -184.371094 687.519531 -265.332031 721.582031 -343.351562 C 723.675781 -348.347656 725.96875 -353.445312 728.261719 -358.542969 L 729.828125 -357.875 C 727.535156 -352.777344 725.441406 -347.78125 723.148438 -342.683594 C 688.992188 -264.367188 653.984375 -183.410156 592.25 -121.132812 C 534.480469 -62.605469 459.320312 -25.578125 400.347656 0.457031 C 349.34375 22.90625 296.261719 42.734375 245.027344 61.867188 C 196.027344 80.097656 145.476562 99.125 96.894531 120.082031 C -23.878906 172.378906 -109.476562 229.21875 -172.792969 298.929688 C -254.164062 388.429688 -295.503906 500.097656 -283.507812 597.691406 Z M -277.109375 534.574219 C -272.546875 512.375 -266.03125 490.644531 -257.457031 469.574219 C -232.804688 407.164062 -198.828125 350.03125 -159.175781 304.460938 C -95.878906 232.3125 -6.71875 170.945312 105.992188 122.535156 C 114.058594 119.140625 122.125 115.742188 130.484375 112.441406 C 169.066406 96.847656 209.039062 83.488281 247.847656 70.722656 C 278.875 60.472656 310.675781 49.820312 341.6875 38.105469 C 367.15625 28.496094 389.511719 19.496094 409.625 10.910156 C 455 -8.652344 490.527344 -27.339844 521.839844 -48.039062 C 549.761719 -66.261719 575.601562 -88.082031 598.679688 -112.410156 C 622.433594 -137.820312 644.277344 -168.382812 664.984375 -205.964844 C 683.484375 -239.230469 699.71875 -275.011719 715.378906 -309.519531 C 721.394531 -322.65625 727.507812 -336.085938 733.71875 -349.324219 L 732.152344 -349.992188 C 725.941406 -336.753906 719.828125 -323.324219 713.8125 -310.1875 C 682.683594 -241.273438 650.214844 -170.195312 597.402344 -113.472656 C 574.515625 -89.242188 548.773438 -67.71875 520.851562 -49.492188 C 489.730469 -28.894531 454.203125 -10.207031 409.023438 9.257812 C 388.714844 17.941406 366.554688 26.839844 341.085938 36.453125 C 310.074219 48.167969 278.269531 58.816406 247.246094 69.070312 C 208.4375 81.832031 168.269531 95.296875 129.6875 110.890625 C 121.523438 114.089844 113.261719 117.585938 105.199219 120.980469 C -7.609375 169.6875 -97.066406 230.957031 -160.457031 303.398438 C -200.300781 349.070312 -234.472656 406.300781 -259.027344 468.90625 C -267.597656 489.972656 -274.210938 512 -278.769531 534.199219 C -283.523438 556.988281 -284.65625 580.132812 -282.378906 603.246094 L -280.722656 603.132812 C -283.09375 580.3125 -281.765625 557.070312 -277.109375 534.574219 Z M -270.808594 540.175781 C -264.398438 517.273438 -255.335938 496.691406 -246.347656 477.863281 C -222.265625 426.78125 -188.957031 361.652344 -145.167969 309.792969 C -81.515625 234.519531 8.695312 170.410156 115.675781 124.6875 C 123.742188 121.292969 131.804688 117.898438 139.972656 114.695312 C 177.296875 99.992188 216.605469 88.6875 254.550781 77.589844 C 286.5625 68.304688 319.644531 58.714844 351.4375 47.09375 C 376.71875 38.066406 398.976562 29.363281 419.480469 20.578125 C 463.984375 1.707031 500.382812 -17.671875 530.8125 -38.65625 C 558.242188 -57.363281 583.199219 -79.464844 605.296875 -104.273438 C 651.136719 -155.953125 680.464844 -219.289062 708.835938 -280.664062 C 718.003906 -300.5625 727.753906 -321.253906 737.605469 -341.257812 L 736.230469 -342.027344 C 726.183594 -321.921875 716.628906 -301.332031 707.460938 -281.429688 C 678.988281 -220.25 649.855469 -157.015625 604.214844 -105.433594 C 582.308594 -80.726562 557.253906 -58.820312 530.015625 -40.210938 C 499.585938 -19.226562 463.1875 0.152344 418.875 18.925781 C 398.375 27.710938 376.210938 36.121094 351.027344 45.339844 C 319.429688 56.863281 286.347656 66.453125 254.335938 75.734375 C 216.390625 86.832031 177.082031 98.140625 139.757812 112.84375 C 131.59375 116.042969 123.527344 119.441406 115.460938 122.835938 C 8.09375 168.757812 -82.3125 232.964844 -146.160156 308.339844 C -190.140625 360.296875 -223.351562 425.621094 -247.433594 476.703125 C -256.320312 495.722656 -265.386719 516.308594 -271.792969 539.210938 C -278.859375 564.65625 -281.269531 587.226562 -279.109375 608.191406 L -277.453125 608.078125 C -280.09375 587.605469 -277.78125 565.328125 -270.808594 540.175781 Z M -264.3125 545.679688 C -256.421875 524.714844 -245.589844 505.1875 -235.242188 486.152344 C -229.488281 475.847656 -224.027344 465.449219 -217.894531 454.460938 C -191.925781 406.578125 -165.386719 356.9375 -131.164062 315.128906 C -66.375 235.839844 22.359375 170.769531 125.261719 127.132812 C 133.328125 123.738281 141.492188 120.539062 149.65625 117.335938 C 186.109375 103.324219 225.242188 93.582031 262.910156 84.339844 C 295.519531 76.222656 329.003906 67.902344 360.996094 56.664062 C 385.988281 48.03125 408.253906 39.816406 429.046875 31.125 C 473.363281 12.84375 509.664062 -6.730469 539.695312 -28.492188 C 566.632812 -47.683594 590.902344 -70.167969 612.019531 -95.457031 C 651.652344 -142.976562 678.410156 -199.84375 704.113281 -254.945312 C 715.957031 -280.632812 728.378906 -307.105469 741.886719 -332.417969 L 740.515625 -333.183594 C 727.007812 -307.871094 714.585938 -281.398438 702.546875 -255.613281 C 677.039062 -200.613281 650.476562 -143.84375 610.742188 -96.515625 C 589.625 -71.230469 565.546875 -48.84375 538.804688 -29.75 C 508.671875 -8.1875 472.566406 11.289062 428.351562 29.765625 C 407.75 38.355469 385.292969 46.671875 360.496094 55.203125 C 328.695312 66.34375 295.019531 74.761719 262.605469 82.78125 C 225.03125 92.21875 185.902344 101.960938 149.15625 115.878906 C 140.988281 119.078125 132.824219 122.28125 124.761719 125.675781 C 21.46875 169.507812 -67.460938 234.675781 -132.34375 314.261719 C -166.46875 356.265625 -193.296875 405.8125 -219.167969 453.886719 C -225.011719 464.972656 -230.761719 475.277344 -236.515625 485.578125 C -247.058594 504.714844 -257.890625 524.242188 -265.683594 545.398438 C -275.09375 570.574219 -278.773438 593.058594 -276.808594 614.125 L -275.148438 614.011719 C -277.113281 592.945312 -273.628906 570.558594 -264.3125 545.679688 Z M -257.71875 551.375 C -250.074219 535.195312 -240.65625 520.5625 -230.660156 505.144531 C -228.550781 501.609375 -226.144531 498.171875 -223.839844 494.535156 C -211.152344 474.796875 -199.265625 453.503906 -186.609375 430.835938 C -165.515625 393.054688 -143.558594 354.09375 -117.15625 320.460938 C -52.398438 238.242188 37.089844 170.335938 134.945312 129.289062 C 143.007812 125.890625 151.175781 122.691406 159.246094 119.785156 C 195.507812 106.359375 234.457031 98.179688 272.339844 90.304688 C 304.863281 83.453125 338.75 76.398438 370.457031 66.042969 C 396.230469 57.5 418.59375 49.480469 438.519531 41.480469 C 482.738281 23.492188 518.746094 3.820312 548.578125 -18.324219 C 574.828125 -37.902344 598.507812 -61.066406 618.644531 -86.832031 C 653.433594 -130.890625 677.410156 -182.65625 700.527344 -232.753906 C 714.667969 -263.050781 729.1875 -294.519531 745.972656 -323.964844 L 744.597656 -324.730469 C 727.816406 -295.289062 713.195312 -264.011719 699.15625 -233.523438 C 675.9375 -183.617188 651.960938 -131.851562 617.558594 -87.992188 C 597.421875 -62.226562 573.839844 -39.355469 547.785156 -19.878906 C 518.144531 2.167969 482.332031 21.738281 438.109375 39.726562 C 418.1875 47.726562 395.921875 55.941406 370.148438 64.484375 C 338.441406 74.839844 304.75 81.796875 272.03125 88.746094 C 234.152344 96.621094 195.199219 104.800781 158.742188 118.324219 C 150.671875 121.230469 142.3125 124.53125 134.441406 127.828125 C 36.394531 168.976562 -53.382812 237.277344 -118.335938 319.59375 C -144.738281 353.226562 -166.695312 392.1875 -187.984375 430.066406 C -200.738281 452.539062 -212.625 473.835938 -225.210938 493.769531 C -227.515625 497.402344 -229.824219 501.035156 -232.035156 504.375 C -242.03125 519.796875 -251.347656 534.621094 -259.285156 550.707031 C -271.140625 575.417969 -275.898438 597.714844 -273.925781 619.269531 L -272.269531 619.15625 C -274.234375 598.089844 -269.480469 575.792969 -257.71875 551.375 Z M -251.613281 557.074219 C -243.9375 543.824219 -234.785156 532.023438 -225.347656 519.34375 C -221.398438 514.132812 -217.160156 508.527344 -213.117188 503.023438 C -195.308594 478.453125 -179.679688 450.582031 -162.898438 421.140625 C -144.679688 388.757812 -125.789062 355.292969 -103.632812 326.285156 C -38.132812 240.253906 49.882812 171.386719 144.144531 131.933594 C 151.820312 128.738281 159.789062 125.636719 168.542969 122.625 C 204.421875 109.886719 243.195312 103.269531 280.699219 97.058594 C 313.625 91.472656 347.917969 85.679688 379.628906 75.8125 C 406.089844 67.65625 427.675781 60.03125 447.601562 52.035156 C 491.726562 34.335938 527.539062 14.769531 556.976562 -8.15625 C 582.730469 -28.214844 605.527344 -51.664062 624.878906 -78.007812 C 655.304688 -119.097656 677.082031 -166.546875 698.09375 -212.625 C 713.753906 -247.132812 729.890625 -282.621094 749.769531 -315.117188 L 748.394531 -315.886719 C 728.519531 -283.386719 712.480469 -247.703125 696.527344 -213.292969 C 675.710938 -167.316406 653.933594 -119.867188 623.601562 -79.070312 C 604.441406 -52.824219 581.648438 -29.378906 555.984375 -9.613281 C 526.742188 13.214844 491.125 32.683594 447.191406 50.28125 C 427.269531 58.277344 405.582031 65.707031 379.222656 74.0625 C 347.507812 83.929688 313.414062 89.621094 280.488281 95.203125 C 242.785156 101.515625 204.015625 108.132812 167.941406 120.96875 C 159.1875 123.980469 151.21875 127.082031 143.539062 130.28125 C 48.988281 169.636719 -39.316406 238.898438 -104.71875 325.125 C -126.96875 354.425781 -145.859375 387.890625 -164.078125 420.273438 C -180.566406 449.8125 -196.390625 477.78125 -214.101562 502.058594 C -218.242188 507.855469 -222.382812 513.167969 -226.332031 518.378906 C -235.871094 530.863281 -244.921875 542.859375 -252.792969 556.207031 C -266.898438 580.355469 -272.820312 602.761719 -271.238281 624.515625 L -269.582031 624.402344 C -271.453125 603.042969 -265.429688 580.828125 -251.613281 557.074219 Z M -245.117188 562.578125 C -237.324219 551.472656 -228.539062 541.824219 -219.371094 531.488281 C -213.582031 525.089844 -207.695312 518.394531 -201.816406 511.214844 C -179.445312 484.0625 -161.328125 451.480469 -141.863281 416.742188 C -125.660156 387.597656 -108.882812 357.667969 -89.53125 331.324219 C -23.675781 241.679688 62.765625 171.652344 153.824219 134.085938 C 161.695312 130.789062 169.960938 127.78125 178.03125 124.875 C 213.425781 112.632812 252.3125 107.671875 289.832031 102.925781 C 323.164062 98.605469 357.46875 94.277344 389.183594 84.898438 C 416.039062 77.03125 437.726562 69.601562 457.359375 61.996094 C 501.488281 44.785156 537.105469 24.828125 565.953125 1.714844 C 591.214844 -18.828125 613.226562 -42.855469 631.597656 -69.675781 C 658.246094 -108.097656 677.816406 -151.71875 696.519531 -194.160156 C 713.511719 -232.292969 730.972656 -271.894531 753.753906 -306.859375 L 752.28125 -307.820312 C 729.40625 -272.5625 711.84375 -233.15625 694.953125 -194.828125 C 676.148438 -152.582031 656.871094 -108.863281 630.320312 -70.738281 C 612.140625 -44.015625 590.03125 -20.183594 564.960938 0.257812 C 536.210938 23.566406 500.695312 43.234375 456.757812 60.339844 C 437.121094 67.945312 415.628906 75.277344 388.777344 83.144531 C 357.058594 92.523438 322.753906 96.851562 289.621094 101.070312 C 251.90625 105.921875 213.019531 110.878906 177.429688 123.222656 C 169.257812 125.933594 161.09375 129.136719 153.027344 132.53125 C 61.777344 170.199219 -24.957031 240.617188 -91.003906 330.363281 C -110.550781 356.804688 -127.230469 386.929688 -143.429688 416.074219 C -162.699219 450.714844 -180.820312 483.292969 -203.09375 510.152344 C -208.976562 517.332031 -214.859375 524.027344 -220.652344 530.425781 C -229.820312 540.761719 -238.601562 550.410156 -246.398438 561.515625 C -262.757812 584.609375 -270.140625 607.519531 -268.554688 629.761719 L -266.894531 629.648438 C -268.378906 608.089844 -261.089844 585.472656 -245.117188 562.578125 Z M -238.71875 568.375 C -230.714844 558.632812 -221.917969 550.449219 -212.539062 541.476562 C -205.289062 534.574219 -197.847656 527.574219 -190.605469 519.695312 C -164.25 491.238281 -144.414062 454.835938 -123.035156 416.175781 C -108.375 389.289062 -92.9375 361.519531 -75.617188 336.953125 C -9.410156 243.691406 75.558594 172.703125 163.410156 136.53125 C 171.089844 133.335938 179.160156 130.429688 187.71875 127.515625 C 222.925781 115.859375 261.628906 112.464844 299.359375 109.082031 C 332.898438 106.125 367.410156 103.164062 398.9375 94.371094 C 425.503906 86.894531 447.195312 79.953125 467.023438 72.25 C 511.449219 55.136719 546.867188 35.277344 574.929688 11.585938 C 599.507812 -9.34375 620.832031 -33.753906 638.222656 -61.054688 C 661.671875 -97.097656 679.125 -137.675781 695.914062 -176.683594 C 713.652344 -218.140625 732.058594 -261.164062 757.644531 -298.304688 L 756.171875 -299.265625 C 730.390625 -262.027344 711.984375 -219.003906 694.050781 -177.445312 C 677.363281 -138.242188 660.003906 -97.960938 636.554688 -61.914062 C 619.257812 -34.910156 597.933594 -10.5 573.550781 10.328125 C 545.488281 34.023438 510.457031 53.679688 466.035156 70.796875 C 446.203125 78.5 424.515625 85.441406 398.144531 92.816406 C 366.613281 101.609375 332.101562 104.574219 298.757812 107.425781 C 261.027344 110.8125 222.027344 114.109375 186.820312 125.769531 C 178.261719 128.679688 170.191406 131.585938 162.515625 134.785156 C 74.371094 170.859375 -10.59375 242.335938 -77.191406 335.796875 C -94.707031 360.460938 -109.945312 388.132812 -124.804688 415.117188 C -145.984375 453.679688 -165.824219 490.082031 -192.085938 518.246094 C -199.324219 526.125 -206.769531 533.125 -214.019531 540.027344 C -223.394531 549 -232.191406 557.183594 -240.195312 566.921875 C -252.921875 582.269531 -267.902344 606.621094 -266.160156 634.910156 L -264.5 634.796875 C -265.847656 607.285156 -251.351562 583.425781 -238.71875 568.375 Z M -232.417969 573.976562 C -224.109375 565.304688 -215.109375 557.996094 -205.328125 550.289062 C -196.8125 543.476562 -188.003906 536.265625 -179.496094 527.984375 C -149.34375 498.804688 -126.824219 457.109375 -105.269531 416.882812 C -91.761719 391.570312 -77.675781 365.472656 -61.613281 342.285156 C 4.855469 245.703125 88.152344 173.363281 172.898438 138.785156 C 180.871094 135.683594 188.941406 132.777344 197.109375 130.0625 C 231.835938 118.898438 270.847656 117.0625 308.496094 115.4375 C 342.050781 113.945312 376.964844 112.246094 408.304688 104.042969 C 431.277344 98.164062 454.136719 91.113281 476.402344 82.898438 C 520.636719 66.371094 555.566406 46.519531 583.621094 21.847656 C 607.703125 0.4375 628.339844 -24.355469 644.75 -52.136719 C 665.394531 -86.007812 681.117188 -123.734375 695.976562 -160.285156 C 714.371094 -204.773438 733.132812 -250.925781 761.539062 -289.265625 L 760.261719 -290.328125 C 731.953125 -251.792969 712.996094 -205.542969 694.605469 -161.054688 C 679.644531 -124.699219 664.019531 -86.773438 643.472656 -53.195312 C 627.15625 -25.710938 606.617188 -0.722656 582.628906 20.394531 C 554.863281 44.667969 519.933594 64.523438 475.992188 81.144531 C 453.730469 89.359375 430.867188 96.410156 407.898438 102.289062 C 376.558594 110.496094 341.835938 112.09375 308.382812 113.777344 C 270.539062 115.503906 231.527344 117.339844 196.605469 128.605469 C 188.4375 131.316406 180.367188 134.222656 172.203125 137.425781 C 87.164062 171.910156 3.476562 244.449219 -63.28125 341.421875 C -79.246094 364.804688 -93.332031 390.902344 -106.835938 416.214844 C -128.394531 456.441406 -150.714844 498.039062 -180.777344 526.925781 C -189.28125 535.203125 -197.996094 542.121094 -206.414062 549.128906 C -215.898438 556.929688 -225.097656 564.339844 -233.695312 572.914062 C -259.679688 599.710938 -264.117188 624.546875 -262.980469 640.640625 L -261.324219 640.527344 C -263.167969 612.042969 -246.519531 588.554688 -232.417969 573.976562 Z M -225.921875 579.476562 C -217.117188 571.78125 -207.71875 565.246094 -197.929688 558.515625 C -188.140625 551.785156 -177.964844 544.859375 -168.390625 536.273438 C -134.429688 506.863281 -110.96875 462.230469 -88.175781 418.671875 C -75.535156 394.542969 -62.511719 369.722656 -47.703125 347.425781 C 37.574219 219.136719 124.65625 164.230469 182.582031 140.9375 C 190.550781 137.835938 198.621094 134.929688 206.695312 132.507812 C 241.230469 121.933594 280.261719 121.5625 317.925781 121.398438 C 351.585938 121.078125 386.515625 120.84375 417.859375 113.128906 C 440.835938 107.734375 463.796875 100.878906 485.867188 92.765625 C 530.007812 76.53125 564.835938 56.484375 592.304688 31.625 C 614.738281 11.304688 634.011719 -13.28125 651.175781 -43.898438 C 669.398438 -75.796875 683.195312 -111.066406 696.617188 -145.160156 C 715.273438 -192.484375 734.496094 -241.570312 765.425781 -281.199219 L 764.144531 -282.261719 C 733.023438 -242.53125 713.800781 -193.445312 695.046875 -145.832031 C 681.628906 -111.734375 667.828125 -76.464844 649.800781 -44.667969 C 632.539062 -14.242188 613.460938 10.242188 591.21875 30.464844 C 563.753906 55.324219 529.117188 75.269531 485.167969 91.402344 C 463 99.324219 440.039062 106.183594 417.164062 111.769531 C 386.015625 119.382812 351.082031 119.617188 317.421875 119.9375 C 279.5625 120.203125 240.242188 120.476562 205.613281 131.347656 C 197.34375 133.867188 189.273438 136.773438 181.300781 139.875 C 75.851562 182.363281 -2.453125 275.933594 -49.660156 346.953125 C -64.464844 369.253906 -77.492188 394.070312 -90.132812 418.203125 C -112.632812 461.367188 -136.097656 506 -169.863281 535.3125 C -179.535156 543.699219 -189.714844 550.628906 -199.207031 557.457031 C -209.191406 564.285156 -218.398438 570.71875 -227.394531 578.515625 C -240.550781 590.15625 -262.265625 614.277344 -260.875 646.183594 L -259.21875 646.070312 C -260.117188 614.648438 -238.6875 590.921875 -225.921875 579.476562 Z M -219.425781 584.980469 C -210.132812 577.765625 -200.332031 572.011719 -190.144531 566.058594 C -179.183594 559.707031 -167.929688 552.960938 -157.085938 544.464844 C -119.417969 515.117188 -95.109375 467.347656 -71.558594 421.445312 C -59.691406 398.199219 -47.632812 374.363281 -33.699219 352.757812 C 13.390625 279.589844 90.792969 183.78125 192.066406 143.191406 C 199.550781 140.09375 207.722656 137.378906 216.183594 134.761719 C 250.238281 124.675781 289.378906 125.964844 327.25 127.167969 C 361.121094 128.210938 396.261719 129.339844 427.414062 122.210938 C 450.492188 117.015625 473.457031 110.648438 495.625 102.726562 C 539.769531 86.980469 574.503906 66.738281 601.375 41.203125 C 623.03125 20.789062 641.710938 -4.472656 658.085938 -35.667969 C 673.984375 -65.882812 686.4375 -98.992188 698.320312 -130.828125 C 717.046875 -180.886719 736.144531 -232.605469 769.898438 -272.945312 L 768.617188 -274.007812 C 734.964844 -233.472656 715.476562 -181.554688 696.851562 -131.304688 C 684.96875 -99.46875 672.515625 -66.355469 656.617188 -36.140625 C 640.4375 -5.046875 621.851562 19.921875 600.195312 40.335938 C 573.324219 65.871094 538.878906 85.71875 495.027344 101.558594 C 472.757812 109.285156 449.894531 115.847656 427.011719 120.945312 C 396.050781 127.976562 361.011719 127.039062 327.335938 125.898438 C 289.464844 124.695312 250.128906 123.507812 215.78125 133.496094 C 207.316406 136.113281 199.148438 138.828125 191.472656 142.023438 C 89.710938 182.621094 12.015625 278.824219 -35.167969 352.28125 C -48.90625 373.789062 -61.160156 397.722656 -73.027344 420.96875 C -96.382812 466.773438 -120.597656 514.25 -158.070312 543.496094 C -168.914062 551.996094 -180.074219 558.445312 -190.9375 564.992188 C -201.316406 571.042969 -210.921875 576.699219 -220.414062 584.011719 C -232.035156 592.90625 -259.015625 617.273438 -257.601562 651.617188 L -255.945312 651.503906 C -257.355469 617.648438 -230.855469 593.773438 -219.425781 584.980469 Z M -213.222656 590.875 C -203.332031 584.335938 -193.234375 579.164062 -182.457031 573.890625 C -170.417969 567.722656 -157.890625 561.554688 -146.167969 553.339844 C -104.691406 524.25 -79.824219 473.742188 -55.714844 425.101562 C -44.617188 402.738281 -33.136719 379.691406 -20.269531 358.875 C 48.113281 248.804688 122.539062 177.332031 201.171875 146.128906 C 209.144531 143.027344 217.117188 140.414062 225.386719 137.894531 C 259.25 128.398438 298.40625 131.148438 336.488281 133.714844 C 370.566406 136.125 405.722656 138.71875 436.6875 132.175781 C 459.765625 127.46875 482.730469 121.101562 504.90625 113.667969 C 549.152344 98.117188 583.394531 77.878906 609.96875 51.757812 C 630.84375 31.257812 648.640625 5.710938 664.519531 -26.457031 C 678.582031 -54.996094 689.589844 -86.140625 700.125 -116.300781 C 718.53125 -168.894531 737.605469 -223.054688 773.597656 -263.804688 L 772.320312 -264.867188 C 736.039062 -223.722656 716.867188 -169.269531 698.460938 -116.675781 C 687.929688 -86.511719 677.113281 -55.46875 663.050781 -26.929688 C 647.5625 5.039062 629.761719 30.585938 608.984375 50.792969 C 582.605469 76.8125 548.453125 96.757812 504.402344 112.207031 C 482.328125 119.835938 459.265625 126.007812 436.378906 130.617188 C 405.609375 137.0625 370.554688 134.660156 336.667969 132.152344 C 298.488281 129.390625 259.332031 126.640625 225.078125 136.335938 C 216.90625 138.5625 208.640625 141.570312 200.863281 144.570312 C 122.039062 175.871094 47.222656 247.546875 -21.253906 357.910156 C -34.316406 378.824219 -45.699219 402.066406 -56.796875 424.425781 C -80.902344 473.070312 -105.675781 523.28125 -146.761719 552.175781 C -158.488281 560.386719 -170.917969 566.753906 -182.859375 572.625 C -193.152344 577.894531 -203.929688 583.171875 -213.816406 589.707031 C -240.378906 607.238281 -255.449219 632.367188 -254.621094 656.957031 L -252.964844 656.84375 C -254.082031 632.648438 -239.203125 608.105469 -213.222656 590.875 Z M -206.726562 596.375 C -196.34375 590.324219 -185.269531 585.628906 -174.386719 581.035156 C -161.265625 575.542969 -147.664062 569.558594 -134.863281 561.53125 C -89.96875 532.894531 -64.441406 479.84375 -39.675781 428.65625 C -29.257812 406.886719 -18.257812 384.332031 -6.066406 364.109375 C 62.085938 250.722656 135.234375 178.1875 211.148438 148.378906 C 218.925781 145.375 227.09375 142.664062 235.269531 140.4375 C 268.84375 131.332031 308.113281 135.742188 346.308594 139.96875 C 380.597656 143.742188 415.960938 147.699219 446.734375 141.746094 C 469.820312 137.523438 492.691406 131.449219 515.058594 123.917969 C 558.625 108.957031 593.742188 88.03125 619.535156 61.820312 C 639.820312 41.128906 656.832031 15.003906 671.824219 -17.9375 C 684.144531 -45.089844 693.902344 -74.367188 703.085938 -102.859375 C 721.082031 -157.691406 739.839844 -214.386719 778.367188 -255.457031 L 777.085938 -256.519531 C 738.273438 -215.054688 719.515625 -158.363281 701.421875 -103.234375 C 692.140625 -74.9375 682.480469 -45.464844 670.257812 -18.605469 C 655.460938 14.234375 638.347656 40.167969 618.449219 60.660156 C 593.042969 86.667969 558.125 107.5 514.75 122.359375 C 492.578125 129.792969 469.707031 135.867188 446.621094 140.085938 C 416.039062 145.941406 380.777344 142.175781 346.683594 138.304688 C 308.488281 134.078125 269.023438 129.769531 235.15625 138.777344 C 226.980469 141.003906 218.808594 143.71875 210.839844 146.820312 C 134.539062 176.828125 61.296875 249.65625 -7.054688 363.144531 C -19.339844 383.660156 -30.144531 406.117188 -40.757812 427.984375 C -65.425781 478.878906 -90.859375 531.632812 -135.367188 560.070312 C -148.066406 568.292969 -161.574219 573.984375 -174.691406 579.476562 C -185.578125 584.070312 -196.847656 588.863281 -207.230469 594.917969 C -249.722656 619.625 -252.03125 652.445312 -251.839844 661.910156 L -250.183594 661.796875 C -250.761719 652.53125 -248.542969 620.492188 -206.726562 596.375 Z M -200.8125 602.175781 C -200.621094 602.078125 -200.425781 601.976562 -200.230469 601.878906 C -189.359375 596.308594 -177.492188 592.195312 -166.117188 588.082031 C -151.824219 582.96875 -137.144531 577.65625 -123.5625 569.71875 C -74.953125 541.632812 -48.960938 486.140625 -23.734375 432.507812 C -13.796875 411.230469 -3.476562 389.269531 8.132812 369.34375 C 76.726562 251.070312 146.46875 179.542969 220.828125 150.53125 C 228.605469 147.527344 236.777344 144.816406 245.050781 142.785156 C 278.335938 134.074219 317.914062 140.042969 356.125 145.730469 C 390.425781 150.96875 425.703125 156.195312 456.484375 150.730469 C 479.472656 146.804688 502.542969 141.117188 524.816406 133.878906 C 568.582031 119.308594 603.40625 98.285156 628.414062 71.496094 C 648.113281 50.617188 664.054688 24.792969 678.351562 -9.507812 C 689.121094 -35.378906 697.53125 -62.984375 705.851562 -89.808594 C 723.332031 -147.074219 741.386719 -206.105469 782.351562 -247.199219 L 781.265625 -248.359375 C 740.011719 -206.871094 721.765625 -147.742188 704.382812 -90.28125 C 696.253906 -63.554688 687.652344 -35.851562 677.074219 -10.078125 C 662.777344 24.21875 646.933594 49.75 627.425781 70.53125 C 602.515625 97.023438 567.886719 117.949219 524.414062 132.613281 C 502.140625 139.851562 479.363281 145.632812 456.277344 149.367188 C 425.882812 154.632812 390.605469 149.40625 356.597656 144.261719 C 318.289062 138.378906 278.515625 132.511719 245.035156 141.320312 C 236.761719 143.351562 228.589844 146.066406 220.621094 149.167969 C 145.773438 178.183594 75.9375 250.003906 7.050781 368.671875 C -4.554688 388.59375 -14.777344 410.753906 -24.910156 432.128906 C -50.042969 485.464844 -75.9375 540.667969 -123.863281 568.648438 C -137.445312 576.585938 -152.128906 581.898438 -166.226562 586.914062 C -177.601562 591.023438 -189.367188 595.332031 -200.535156 600.808594 C -200.730469 600.90625 -200.921875 601.007812 -201.117188 601.105469 C -224.804688 613.238281 -249.648438 637 -248.953125 667.542969 L -247.296875 667.429688 C -248.472656 637.378906 -224.113281 614.109375 -200.8125 602.175781 Z M -193.929688 607.480469 C -182.371094 602.292969 -169.820312 598.5625 -157.757812 594.835938 C -142.675781 590.300781 -127.015625 585.464844 -112.453125 578.007812 C -60.324219 550.570312 -33.871094 492.632812 -8.371094 436.65625 C 1.082031 415.871094 10.917969 394.402344 21.945312 374.777344 C 65.574219 297.25 134.375 189.910156 230.417969 152.976562 C 238.191406 149.976562 246.363281 147.261719 254.441406 145.332031 C 287.539062 137.207031 327.132812 144.640625 365.164062 151.890625 C 399.671875 158.492188 435.160156 165.085938 465.558594 160.308594 C 488.746094 156.769531 511.722656 151.375 533.898438 144.429688 C 577.570312 130.15625 612.101562 109.035156 636.90625 81.859375 C 656.015625 60.300781 671.269531 34.09375 684.484375 -0.878906 C 693.902344 -25.5625 701.351562 -51.695312 708.414062 -77.140625 C 725.097656 -136.453125 742.347656 -197.523438 785.753906 -238.640625 L 784.667969 -239.800781 C 740.875 -198.488281 723.53125 -137.121094 706.949219 -77.617188 C 699.882812 -52.171875 692.433594 -26.039062 682.917969 -1.546875 C 669.601562 33.234375 654.542969 59.339844 635.527344 80.605469 C 610.914062 107.679688 576.480469 128.507812 533.296875 142.777344 C 511.21875 149.917969 488.242188 155.308594 465.25 158.75 C 435.144531 163.621094 399.558594 156.835938 365.34375 150.328125 C 326.824219 143.082031 287.132812 135.453125 253.839844 143.675781 C 245.566406 145.707031 237.589844 148.320312 229.621094 151.421875 C 133.191406 188.554688 64.101562 296.289062 20.378906 374.109375 C 9.351562 393.734375 -0.488281 415.203125 -10.035156 436.28125 C -35.4375 491.964844 -61.796875 549.609375 -113.4375 577.039062 C -127.707031 584.59375 -143.46875 589.234375 -158.546875 593.769531 C -170.609375 597.496094 -183.160156 601.226562 -194.917969 606.511719 C -219.300781 617.285156 -247.457031 641.273438 -246.851562 673.089844 L -245.191406 672.976562 C -245.601562 641.546875 -217.828125 618.25 -193.929688 607.480469 Z M -187.628906 613.082031 C -175.382812 608.277344 -162.339844 605.03125 -149.683594 601.984375 C -133.625 597.925781 -116.882812 593.765625 -101.34375 586.296875 C -45.695312 559.511719 -18.972656 499.226562 6.988281 440.804688 C 16.152344 420.414062 25.410156 399.242188 35.851562 379.914062 C 82.613281 293.671875 148.132812 189.972656 239.804688 155.035156 C 247.582031 152.035156 255.65625 149.613281 263.734375 147.683594 C 296.347656 140.050781 336.054688 149.140625 374.296875 157.757812 C 408.914062 165.53125 444.710938 173.683594 474.917969 169.492188 C 498.113281 166.441406 520.992188 161.34375 543.367188 154.296875 C 587.136719 140.214844 621.46875 119.195312 645.6875 91.34375 C 664.210938 70.082031 678.679688 43.296875 691.203125 7.453125 C 699.363281 -15.855469 705.847656 -41.003906 711.953125 -64.976562 C 727.832031 -126.328125 744.183594 -189.636719 790.03125 -230.285156 L 788.949219 -231.449219 C 742.808594 -190.402344 726.363281 -126.800781 710.582031 -65.253906 C 704.285156 -41.183594 697.894531 -16.328125 689.835938 7.171875 C 677.40625 42.722656 662.9375 69.507812 644.605469 90.667969 C 620.777344 118.324219 586.640625 139.246094 543.0625 153.226562 C 520.882812 160.171875 498.003906 165.269531 475.003906 168.222656 C 445.089844 172.507812 409.292969 164.355469 374.96875 156.679688 C 336.433594 147.96875 296.726562 138.875 263.625 146.511719 C 255.351562 148.542969 247.277344 150.960938 239.5 153.964844 C 147.25 189.199219 81.535156 293 34.679688 379.535156 C 24.234375 398.863281 14.785156 420.132812 5.8125 440.425781 C -19.378906 497.472656 -45.632812 556.289062 -98.640625 583.441406 C -99.609375 583.9375 -100.777344 584.535156 -101.746094 585.03125 C -117.089844 592.398438 -133.832031 596.5625 -149.894531 600.617188 C -162.546875 603.667969 -175.589844 606.914062 -188.03125 611.816406 C -213.984375 621.921875 -244.199219 645.242188 -243.773438 678.132812 L -242.117188 678.019531 C -242.632812 645.914062 -213.195312 622.988281 -187.628906 613.082031 Z M -181.328125 618.683594 C -168.394531 614.265625 -154.664062 611.402344 -141.515625 608.835938 C -124.378906 605.453125 -106.652344 601.769531 -90.429688 594.683594 C -31.164062 568.742188 -3.976562 506.015625 22.0625 445.347656 C 30.644531 425.253906 39.609375 404.476562 49.570312 385.640625 C 103.964844 281.753906 173.039062 172.558594 273.226562 150.421875 C 305.652344 143.378906 345.566406 153.835938 383.921875 164.109375 C 418.554688 173.347656 454.558594 182.863281 484.578125 179.257812 C 562.546875 169.730469 619.566406 143.714844 654.476562 101.800781 C 689.382812 59.886719 702.769531 2.753906 715.585938 -52.613281 C 730.472656 -115.90625 745.730469 -181.355469 793.828125 -221.441406 L 792.742188 -222.601562 C 744.355469 -182.121094 728.90625 -116.578125 713.925781 -52.988281 C 701.007812 2.1875 687.714844 59.023438 652.902344 100.644531 C 618.285156 142.164062 561.457031 168.082031 483.976562 177.605469 C 454.25 181.304688 418.542969 171.882812 384.101562 162.546875 C 345.453125 152.175781 305.4375 141.527344 272.625 148.769531 C 171.753906 171.007812 102.390625 280.597656 47.902344 384.777344 C 38.042969 403.808594 29.074219 424.585938 20.492188 444.679688 C -5.449219 505.050781 -32.25 567.582031 -91.125 593.324219 C -107.15625 600.308594 -124.878906 603.992188 -142.019531 607.375 C -155.363281 610.039062 -169.09375 612.90625 -182.027344 617.324219 C -211.6875 627.367188 -241.597656 651.757812 -241.578125 683.382812 L -239.917969 683.269531 C -239.734375 652.523438 -210.308594 628.621094 -181.328125 618.683594 Z M -181.328125 618.683594 "/>
</clipPath>
<linearGradient id="linear0" gradientUnits="userSpaceOnUse" x1="98.057416" y1="129.899994" x2="564.726037" y2="129.899994" gradientTransform="matrix(1.941706,-0.994554,0.995079,1.94273,-480.31997,214.883498)">
<stop offset="0" style="stop-color:rgb(67.428589%,7.48291%,57.298279%);stop-opacity:1;"/>
<stop offset="0.0078125" style="stop-color:rgb(67.471313%,7.606506%,57.414246%);stop-opacity:1;"/>
<stop offset="0.015625" style="stop-color:rgb(67.558289%,7.853699%,57.646179%);stop-opacity:1;"/>
<stop offset="0.0234375" style="stop-color:rgb(67.643738%,8.100891%,57.879639%);stop-opacity:1;"/>
<stop offset="0.03125" style="stop-color:rgb(67.730713%,8.348083%,58.111572%);stop-opacity:1;"/>
<stop offset="0.0390625" style="stop-color:rgb(67.816162%,8.595276%,58.345032%);stop-opacity:1;"/>
<stop offset="0.046875" style="stop-color:rgb(67.901611%,8.842468%,58.576965%);stop-opacity:1;"/>
<stop offset="0.0546875" style="stop-color:rgb(67.988586%,9.089661%,58.810425%);stop-opacity:1;"/>
<stop offset="0.0625" style="stop-color:rgb(68.074036%,9.335327%,59.043884%);stop-opacity:1;"/>
<stop offset="0.0703125" style="stop-color:rgb(68.161011%,9.58252%,59.275818%);stop-opacity:1;"/>
<stop offset="0.078125" style="stop-color:rgb(68.24646%,9.829712%,59.509277%);stop-opacity:1;"/>
<stop offset="0.0859375" style="stop-color:rgb(68.333435%,10.076904%,59.741211%);stop-opacity:1;"/>
<stop offset="0.09375" style="stop-color:rgb(68.418884%,10.324097%,59.97467%);stop-opacity:1;"/>
<stop offset="0.101563" style="stop-color:rgb(68.504333%,10.571289%,60.206604%);stop-opacity:1;"/>
<stop offset="0.109375" style="stop-color:rgb(68.591309%,10.818481%,60.440063%);stop-opacity:1;"/>
<stop offset="0.117188" style="stop-color:rgb(68.676758%,11.065674%,60.671997%);stop-opacity:1;"/>
<stop offset="0.125" style="stop-color:rgb(68.763733%,11.312866%,60.905457%);stop-opacity:1;"/>
<stop offset="0.132813" style="stop-color:rgb(68.849182%,11.558533%,61.13739%);stop-opacity:1;"/>
<stop offset="0.140625" style="stop-color:rgb(68.936157%,11.805725%,61.37085%);stop-opacity:1;"/>
<stop offset="0.148438" style="stop-color:rgb(69.021606%,12.052917%,61.604309%);stop-opacity:1;"/>
<stop offset="0.15625" style="stop-color:rgb(69.107056%,12.30011%,61.836243%);stop-opacity:1;"/>
<stop offset="0.164063" style="stop-color:rgb(69.194031%,12.547302%,62.069702%);stop-opacity:1;"/>
<stop offset="0.171875" style="stop-color:rgb(69.27948%,12.794495%,62.301636%);stop-opacity:1;"/>
<stop offset="0.179688" style="stop-color:rgb(69.366455%,13.041687%,62.535095%);stop-opacity:1;"/>
<stop offset="0.1875" style="stop-color:rgb(69.451904%,13.288879%,62.767029%);stop-opacity:1;"/>
<stop offset="0.195313" style="stop-color:rgb(69.538879%,13.534546%,63.000488%);stop-opacity:1;"/>
<stop offset="0.203125" style="stop-color:rgb(69.624329%,13.781738%,63.232422%);stop-opacity:1;"/>
<stop offset="0.210938" style="stop-color:rgb(69.709778%,14.028931%,63.465881%);stop-opacity:1;"/>
<stop offset="0.21875" style="stop-color:rgb(69.796753%,14.276123%,63.697815%);stop-opacity:1;"/>
<stop offset="0.226563" style="stop-color:rgb(69.882202%,14.523315%,63.931274%);stop-opacity:1;"/>
<stop offset="0.234375" style="stop-color:rgb(69.969177%,14.770508%,64.164734%);stop-opacity:1;"/>
<stop offset="0.242188" style="stop-color:rgb(70.054626%,15.0177%,64.396667%);stop-opacity:1;"/>
<stop offset="0.25" style="stop-color:rgb(70.141602%,15.264893%,64.630127%);stop-opacity:1;"/>
<stop offset="0.257813" style="stop-color:rgb(70.227051%,15.512085%,64.862061%);stop-opacity:1;"/>
<stop offset="0.265625" style="stop-color:rgb(70.3125%,15.757751%,65.09552%);stop-opacity:1;"/>
<stop offset="0.273438" style="stop-color:rgb(70.399475%,16.004944%,65.327454%);stop-opacity:1;"/>
<stop offset="0.28125" style="stop-color:rgb(70.484924%,16.252136%,65.560913%);stop-opacity:1;"/>
<stop offset="0.289062" style="stop-color:rgb(70.571899%,16.499329%,65.792847%);stop-opacity:1;"/>
<stop offset="0.296875" style="stop-color:rgb(70.657349%,16.746521%,66.026306%);stop-opacity:1;"/>
<stop offset="0.304688" style="stop-color:rgb(70.744324%,16.993713%,66.25824%);stop-opacity:1;"/>
<stop offset="0.3125" style="stop-color:rgb(70.829773%,17.240906%,66.491699%);stop-opacity:1;"/>
<stop offset="0.320312" style="stop-color:rgb(70.915222%,17.488098%,66.725159%);stop-opacity:1;"/>
<stop offset="0.328125" style="stop-color:rgb(71.002197%,17.735291%,66.957092%);stop-opacity:1;"/>
<stop offset="0.335938" style="stop-color:rgb(71.087646%,17.980957%,67.190552%);stop-opacity:1;"/>
<stop offset="0.34375" style="stop-color:rgb(71.174622%,18.228149%,67.422485%);stop-opacity:1;"/>
<stop offset="0.351562" style="stop-color:rgb(71.260071%,18.475342%,67.655945%);stop-opacity:1;"/>
<stop offset="0.359375" style="stop-color:rgb(71.34552%,18.722534%,67.887878%);stop-opacity:1;"/>
<stop offset="0.367188" style="stop-color:rgb(71.432495%,18.969727%,68.121338%);stop-opacity:1;"/>
<stop offset="0.375" style="stop-color:rgb(71.517944%,19.216919%,68.353271%);stop-opacity:1;"/>
<stop offset="0.382812" style="stop-color:rgb(71.604919%,19.464111%,68.586731%);stop-opacity:1;"/>
<stop offset="0.390625" style="stop-color:rgb(71.690369%,19.711304%,68.818665%);stop-opacity:1;"/>
<stop offset="0.398438" style="stop-color:rgb(71.777344%,19.95697%,69.052124%);stop-opacity:1;"/>
<stop offset="0.40625" style="stop-color:rgb(71.862793%,20.204163%,69.285583%);stop-opacity:1;"/>
<stop offset="0.414063" style="stop-color:rgb(71.948242%,20.451355%,69.517517%);stop-opacity:1;"/>
<stop offset="0.421875" style="stop-color:rgb(72.035217%,20.698547%,69.750977%);stop-opacity:1;"/>
<stop offset="0.429688" style="stop-color:rgb(72.120667%,20.94574%,69.98291%);stop-opacity:1;"/>
<stop offset="0.4375" style="stop-color:rgb(72.207642%,21.192932%,70.21637%);stop-opacity:1;"/>
<stop offset="0.445313" style="stop-color:rgb(72.293091%,21.440125%,70.448303%);stop-opacity:1;"/>
<stop offset="0.453125" style="stop-color:rgb(72.380066%,21.687317%,70.681763%);stop-opacity:1;"/>
<stop offset="0.460937" style="stop-color:rgb(72.465515%,21.934509%,70.913696%);stop-opacity:1;"/>
<stop offset="0.46875" style="stop-color:rgb(72.550964%,22.180176%,71.147156%);stop-opacity:1;"/>
<stop offset="0.476563" style="stop-color:rgb(72.637939%,22.427368%,71.379089%);stop-opacity:1;"/>
<stop offset="0.484375" style="stop-color:rgb(72.723389%,22.674561%,71.612549%);stop-opacity:1;"/>
<stop offset="0.492187" style="stop-color:rgb(72.810364%,22.921753%,71.844482%);stop-opacity:1;"/>
<stop offset="0.5" style="stop-color:rgb(72.895813%,23.168945%,72.077942%);stop-opacity:1;"/>
<stop offset="0.507813" style="stop-color:rgb(72.982788%,23.416138%,72.311401%);stop-opacity:1;"/>
<stop offset="0.515625" style="stop-color:rgb(73.068237%,23.66333%,72.543335%);stop-opacity:1;"/>
<stop offset="0.523438" style="stop-color:rgb(73.153687%,23.910522%,72.776794%);stop-opacity:1;"/>
<stop offset="0.53125" style="stop-color:rgb(73.240662%,24.156189%,73.008728%);stop-opacity:1;"/>
<stop offset="0.539062" style="stop-color:rgb(73.326111%,24.403381%,73.242188%);stop-opacity:1;"/>
<stop offset="0.546875" style="stop-color:rgb(73.413086%,24.650574%,73.474121%);stop-opacity:1;"/>
<stop offset="0.554688" style="stop-color:rgb(73.498535%,24.897766%,73.707581%);stop-opacity:1;"/>
<stop offset="0.5625" style="stop-color:rgb(73.58551%,25.144958%,73.939514%);stop-opacity:1;"/>
<stop offset="0.570312" style="stop-color:rgb(73.670959%,25.392151%,74.172974%);stop-opacity:1;"/>
<stop offset="0.578125" style="stop-color:rgb(73.756409%,25.639343%,74.404907%);stop-opacity:1;"/>
<stop offset="0.585938" style="stop-color:rgb(73.843384%,25.886536%,74.638367%);stop-opacity:1;"/>
<stop offset="0.59375" style="stop-color:rgb(73.928833%,26.133728%,74.871826%);stop-opacity:1;"/>
<stop offset="0.601562" style="stop-color:rgb(74.015808%,26.379395%,75.10376%);stop-opacity:1;"/>
<stop offset="0.609375" style="stop-color:rgb(74.101257%,26.626587%,75.337219%);stop-opacity:1;"/>
<stop offset="0.617188" style="stop-color:rgb(74.188232%,26.873779%,75.569153%);stop-opacity:1;"/>
<stop offset="0.625" style="stop-color:rgb(74.273682%,27.120972%,75.802612%);stop-opacity:1;"/>
<stop offset="0.632812" style="stop-color:rgb(74.359131%,27.368164%,76.034546%);stop-opacity:1;"/>
<stop offset="0.640625" style="stop-color:rgb(74.446106%,27.615356%,76.268005%);stop-opacity:1;"/>
<stop offset="0.648438" style="stop-color:rgb(74.531555%,27.862549%,76.499939%);stop-opacity:1;"/>
<stop offset="0.65625" style="stop-color:rgb(74.61853%,28.109741%,76.733398%);stop-opacity:1;"/>
<stop offset="0.664062" style="stop-color:rgb(74.703979%,28.356934%,76.965332%);stop-opacity:1;"/>
<stop offset="0.671875" style="stop-color:rgb(74.790955%,28.6026%,77.198792%);stop-opacity:1;"/>
<stop offset="0.679688" style="stop-color:rgb(74.876404%,28.849792%,77.432251%);stop-opacity:1;"/>
<stop offset="0.6875" style="stop-color:rgb(74.961853%,29.096985%,77.664185%);stop-opacity:1;"/>
<stop offset="0.695312" style="stop-color:rgb(75.048828%,29.344177%,77.897644%);stop-opacity:1;"/>
<stop offset="0.703125" style="stop-color:rgb(75.134277%,29.59137%,78.129578%);stop-opacity:1;"/>
<stop offset="0.710938" style="stop-color:rgb(75.221252%,29.838562%,78.363037%);stop-opacity:1;"/>
<stop offset="0.71875" style="stop-color:rgb(75.306702%,30.085754%,78.594971%);stop-opacity:1;"/>
<stop offset="0.726562" style="stop-color:rgb(75.393677%,30.332947%,78.82843%);stop-opacity:1;"/>
<stop offset="0.734375" style="stop-color:rgb(75.479126%,30.578613%,79.060364%);stop-opacity:1;"/>
<stop offset="0.742188" style="stop-color:rgb(75.564575%,30.825806%,79.293823%);stop-opacity:1;"/>
<stop offset="0.75" style="stop-color:rgb(75.65155%,31.072998%,79.525757%);stop-opacity:1;"/>
<stop offset="0.757812" style="stop-color:rgb(75.737%,31.32019%,79.759216%);stop-opacity:1;"/>
<stop offset="0.765625" style="stop-color:rgb(75.823975%,31.567383%,79.992676%);stop-opacity:1;"/>
<stop offset="0.773438" style="stop-color:rgb(75.909424%,31.814575%,80.224609%);stop-opacity:1;"/>
<stop offset="0.78125" style="stop-color:rgb(75.994873%,32.061768%,80.458069%);stop-opacity:1;"/>
<stop offset="0.789062" style="stop-color:rgb(76.081848%,32.30896%,80.690002%);stop-opacity:1;"/>
<stop offset="0.796875" style="stop-color:rgb(76.167297%,32.556152%,80.923462%);stop-opacity:1;"/>
<stop offset="0.804688" style="stop-color:rgb(76.254272%,32.801819%,81.155396%);stop-opacity:1;"/>
<stop offset="0.8125" style="stop-color:rgb(76.339722%,33.049011%,81.388855%);stop-opacity:1;"/>
<stop offset="0.820312" style="stop-color:rgb(76.426697%,33.296204%,81.620789%);stop-opacity:1;"/>
<stop offset="0.828125" style="stop-color:rgb(76.512146%,33.543396%,81.854248%);stop-opacity:1;"/>
<stop offset="0.835938" style="stop-color:rgb(76.597595%,33.790588%,82.086182%);stop-opacity:1;"/>
<stop offset="0.84375" style="stop-color:rgb(76.68457%,34.037781%,82.319641%);stop-opacity:1;"/>
<stop offset="0.851562" style="stop-color:rgb(76.77002%,34.284973%,82.553101%);stop-opacity:1;"/>
<stop offset="0.859375" style="stop-color:rgb(76.856995%,34.532166%,82.785034%);stop-opacity:1;"/>
<stop offset="0.867188" style="stop-color:rgb(76.942444%,34.779358%,83.018494%);stop-opacity:1;"/>
<stop offset="0.875" style="stop-color:rgb(77.029419%,35.025024%,83.250427%);stop-opacity:1;"/>
<stop offset="0.882812" style="stop-color:rgb(77.114868%,35.272217%,83.483887%);stop-opacity:1;"/>
<stop offset="0.890625" style="stop-color:rgb(77.200317%,35.519409%,83.71582%);stop-opacity:1;"/>
<stop offset="0.898438" style="stop-color:rgb(77.287292%,35.766602%,83.94928%);stop-opacity:1;"/>
<stop offset="0.90625" style="stop-color:rgb(77.372742%,36.013794%,84.181213%);stop-opacity:1;"/>
<stop offset="0.914062" style="stop-color:rgb(77.459717%,36.260986%,84.414673%);stop-opacity:1;"/>
<stop offset="0.921875" style="stop-color:rgb(77.545166%,36.508179%,84.646606%);stop-opacity:1;"/>
<stop offset="0.929688" style="stop-color:rgb(77.632141%,36.755371%,84.880066%);stop-opacity:1;"/>
<stop offset="0.9375" style="stop-color:rgb(77.71759%,37.001038%,85.113525%);stop-opacity:1;"/>
<stop offset="0.945312" style="stop-color:rgb(77.80304%,37.24823%,85.345459%);stop-opacity:1;"/>
<stop offset="0.953125" style="stop-color:rgb(77.890015%,37.495422%,85.578918%);stop-opacity:1;"/>
<stop offset="0.960938" style="stop-color:rgb(77.975464%,37.742615%,85.810852%);stop-opacity:1;"/>
<stop offset="0.96875" style="stop-color:rgb(78.062439%,37.989807%,86.044312%);stop-opacity:1;"/>
<stop offset="0.976562" style="stop-color:rgb(78.147888%,38.237%,86.276245%);stop-opacity:1;"/>
<stop offset="0.984375" style="stop-color:rgb(78.234863%,38.484192%,86.509705%);stop-opacity:1;"/>
<stop offset="0.992187" style="stop-color:rgb(78.320312%,38.731384%,86.741638%);stop-opacity:1;"/>
<stop offset="1" style="stop-color:rgb(78.405762%,38.978577%,86.975098%);stop-opacity:1;"/>
</linearGradient>
<clipPath id="clip5">
  <path d="M 452 227 L 1440 227 L 1440 810 L 452 810 Z M 452 227 "/>
</clipPath>
<clipPath id="clip6">
  <path d="M 276.648438 837.128906 L 1468.855469 226.472656 L 1690.757812 659.699219 L 498.550781 1270.355469 Z M 276.648438 837.128906 "/>
</clipPath>
<clipPath id="clip7">
  <path d="M 276.648438 837.128906 L 1468.855469 226.472656 L 1690.757812 659.699219 L 498.550781 1270.355469 Z M 276.648438 837.128906 "/>
</clipPath>
<clipPath id="clip8">
  <path d="M 456.316406 1183.589844 L 454.65625 1183.703125 C 442.65625 1085.625 484.183594 973.367188 565.457031 883.671875 C 628.675781 813.769531 714.664062 756.730469 835.628906 704.335938 C 884.402344 683.273438 934.957031 664.25 983.953125 646.019531 C 1035.1875 626.886719 1088.269531 607.054688 1139.277344 584.609375 C 1198.152344 558.867188 1273.019531 521.746094 1330.695312 463.511719 C 1392.335938 401.527344 1427.34375 320.570312 1461.402344 242.550781 C 1463.5 237.550781 1465.792969 232.453125 1468.082031 227.355469 L 1469.652344 228.023438 C 1467.359375 233.121094 1465.261719 238.121094 1462.972656 243.21875 C 1428.816406 321.53125 1393.808594 402.492188 1332.074219 464.765625 C 1274.300781 523.296875 1199.144531 560.320312 1140.171875 586.359375 C 1089.164062 608.804688 1036.085938 628.636719 984.851562 647.765625 C 935.851562 665.996094 885.300781 685.023438 836.71875 705.984375 C 715.945312 758.277344 630.347656 815.121094 567.027344 884.832031 C 485.65625 974.332031 444.320312 1086 456.316406 1183.589844 Z M 462.714844 1120.476562 C 467.273438 1098.273438 473.792969 1076.542969 482.367188 1055.476562 C 507.019531 993.0625 540.996094 935.933594 580.648438 890.363281 C 643.941406 818.210938 733.105469 756.847656 845.816406 708.433594 C 853.882812 705.039062 861.949219 701.644531 870.308594 698.34375 C 908.890625 682.75 948.863281 669.386719 987.671875 656.621094 C 1018.695312 646.371094 1050.5 635.722656 1081.511719 624.007812 C 1106.980469 614.394531 1129.335938 605.398438 1149.449219 596.8125 C 1194.824219 577.25 1230.351562 558.558594 1261.664062 537.863281 C 1289.585938 519.636719 1315.421875 497.820312 1338.503906 473.488281 C 1362.253906 448.082031 1384.101562 417.515625 1404.804688 379.9375 C 1423.308594 346.671875 1439.542969 310.886719 1455.203125 276.378906 C 1461.21875 263.242188 1467.332031 249.8125 1473.542969 236.578125 L 1471.972656 235.910156 C 1465.761719 249.144531 1459.652344 262.574219 1453.632812 275.710938 C 1422.507812 344.628906 1390.035156 415.703125 1337.222656 472.429688 C 1314.339844 496.65625 1288.597656 518.183594 1260.675781 536.40625 C 1229.554688 557.007812 1194.027344 575.695312 1148.847656 595.15625 C 1128.539062 603.84375 1106.378906 612.742188 1080.910156 622.351562 C 1049.898438 634.070312 1018.09375 644.71875 987.070312 654.96875 C 948.261719 667.734375 908.09375 681.195312 869.511719 696.789062 C 861.347656 699.992188 853.085938 703.484375 845.019531 706.878906 C 732.214844 755.585938 642.757812 816.855469 579.367188 889.300781 C 539.519531 934.96875 505.351562 992.203125 480.796875 1054.808594 C 472.226562 1075.875 465.613281 1097.898438 461.050781 1120.101562 C 456.300781 1142.886719 455.164062 1166.03125 457.445312 1189.144531 L 459.101562 1189.03125 C 456.726562 1166.214844 458.058594 1142.96875 462.714844 1120.476562 Z M 469.015625 1126.078125 C 475.421875 1103.175781 484.488281 1082.589844 493.472656 1063.765625 C 517.558594 1012.679688 550.867188 947.550781 594.652344 895.695312 C 658.308594 820.417969 748.519531 756.308594 855.5 710.585938 C 863.5625 707.191406 871.628906 703.796875 879.792969 700.597656 C 917.117188 685.890625 956.429688 674.585938 994.375 663.488281 C 1026.386719 654.203125 1059.46875 644.617188 1091.261719 632.992188 C 1116.539062 623.964844 1138.800781 615.261719 1159.300781 606.480469 C 1203.804688 587.605469 1240.207031 568.226562 1270.636719 547.246094 C 1298.066406 528.535156 1323.023438 506.433594 1345.121094 481.625 C 1390.957031 429.945312 1420.285156 366.609375 1448.65625 305.238281 C 1457.828125 285.335938 1467.574219 264.648438 1477.425781 244.640625 L 1476.054688 243.875 C 1466.007812 263.980469 1456.453125 284.566406 1447.285156 304.46875 C 1418.8125 365.648438 1389.679688 428.882812 1344.035156 480.464844 C 1322.132812 505.171875 1297.074219 527.082031 1269.839844 545.691406 C 1239.410156 566.671875 1203.007812 586.054688 1158.699219 604.824219 C 1138.199219 613.609375 1116.035156 622.019531 1090.851562 631.238281 C 1059.253906 642.765625 1026.171875 652.351562 994.160156 661.636719 C 956.214844 672.734375 916.90625 684.039062 879.582031 698.742188 C 871.414062 701.945312 863.351562 705.339844 855.285156 708.734375 C 747.917969 754.65625 657.511719 818.863281 593.664062 894.238281 C 549.683594 946.195312 516.472656 1011.519531 492.390625 1062.601562 C 483.503906 1081.625 474.4375 1102.207031 468.03125 1125.109375 C 460.964844 1150.554688 458.554688 1173.125 460.714844 1194.089844 L 462.371094 1193.976562 C 459.726562 1173.503906 462.042969 1151.226562 469.015625 1126.078125 Z M 475.511719 1131.578125 C 483.402344 1110.613281 494.234375 1091.085938 504.582031 1072.054688 C 510.335938 1061.75 515.792969 1051.351562 521.929688 1040.359375 C 547.898438 992.480469 574.433594 942.835938 608.660156 901.027344 C 673.445312 821.738281 762.183594 756.667969 865.085938 713.035156 C 873.152344 709.640625 881.316406 706.4375 889.480469 703.238281 C 925.933594 689.226562 965.0625 679.484375 1002.734375 670.242188 C 1035.34375 662.125 1068.828125 653.800781 1100.820312 642.5625 C 1125.8125 633.933594 1148.078125 625.714844 1168.871094 617.027344 C 1213.1875 598.742188 1249.488281 579.167969 1279.519531 557.410156 C 1306.457031 538.21875 1330.726562 515.730469 1351.84375 490.445312 C 1391.476562 442.921875 1418.234375 386.054688 1443.9375 330.953125 C 1455.78125 305.269531 1468.203125 278.796875 1481.710938 253.484375 L 1480.335938 252.714844 C 1466.832031 278.027344 1454.40625 304.5 1442.367188 330.285156 C 1416.859375 385.289062 1390.296875 442.054688 1350.566406 489.382812 C 1329.445312 514.667969 1305.371094 537.054688 1278.628906 556.148438 C 1248.496094 577.714844 1212.390625 597.1875 1168.175781 615.667969 C 1147.574219 624.257812 1125.117188 632.574219 1100.316406 641.105469 C 1068.519531 652.242188 1034.839844 660.664062 1002.425781 668.683594 C 964.855469 678.117188 925.726562 687.859375 888.976562 701.777344 C 880.8125 704.980469 872.648438 708.179688 864.582031 711.574219 C 761.292969 755.40625 672.363281 820.578125 607.480469 900.160156 C 573.355469 942.164062 546.523438 991.710938 520.65625 1039.785156 C 514.8125 1050.871094 509.0625 1061.175781 503.308594 1071.480469 C 492.765625 1090.613281 481.933594 1110.140625 474.140625 1131.296875 C 464.730469 1156.472656 461.050781 1178.957031 463.015625 1200.023438 L 464.675781 1199.910156 C 462.707031 1178.84375 466.195312 1156.460938 475.511719 1131.578125 Z M 482.105469 1137.273438 C 489.75 1121.097656 499.167969 1106.464844 509.164062 1091.042969 C 511.273438 1087.507812 513.679688 1084.070312 515.984375 1080.4375 C 528.667969 1060.695312 540.558594 1039.402344 553.214844 1016.734375 C 574.304688 978.953125 596.265625 939.996094 622.667969 906.359375 C 687.425781 824.144531 776.914062 756.234375 874.765625 715.1875 C 882.832031 711.792969 890.996094 708.589844 899.066406 705.683594 C 935.332031 692.257812 974.28125 684.078125 1012.160156 676.203125 C 1044.683594 669.355469 1078.574219 662.296875 1110.28125 651.941406 C 1136.054688 643.402344 1158.417969 635.378906 1178.34375 627.382812 C 1222.5625 609.390625 1258.570312 589.722656 1288.402344 567.574219 C 1314.652344 547.996094 1338.328125 524.835938 1358.46875 499.070312 C 1393.257812 455.007812 1417.234375 403.242188 1440.351562 353.144531 C 1454.492188 322.851562 1469.011719 291.378906 1485.796875 261.9375 L 1484.421875 261.167969 C 1467.636719 290.609375 1453.019531 321.886719 1438.976562 352.378906 C 1415.761719 402.28125 1391.78125 454.046875 1357.382812 497.910156 C 1337.246094 523.671875 1313.664062 546.542969 1287.605469 566.019531 C 1257.964844 588.070312 1222.15625 607.636719 1177.933594 625.628906 C 1158.011719 633.625 1135.746094 641.84375 1109.972656 650.382812 C 1078.265625 660.738281 1044.570312 667.695312 1011.855469 674.644531 C 973.972656 682.519531 935.023438 690.699219 898.566406 704.222656 C 890.496094 707.132812 882.136719 710.433594 874.265625 713.726562 C 776.214844 754.875 686.4375 823.175781 621.488281 905.492188 C 595.085938 939.128906 573.125 978.085938 551.839844 1015.964844 C 539.085938 1038.441406 527.195312 1059.734375 514.613281 1079.667969 C 512.304688 1083.300781 510 1086.9375 507.789062 1090.277344 C 497.792969 1105.695312 488.476562 1120.523438 480.535156 1136.605469 C 468.683594 1161.316406 463.925781 1183.617188 465.898438 1205.167969 L 467.554688 1205.054688 C 465.589844 1183.992188 470.34375 1161.691406 482.105469 1137.273438 Z M 488.210938 1142.976562 C 495.886719 1129.726562 505.039062 1117.925781 514.476562 1105.242188 C 518.425781 1100.03125 522.660156 1094.429688 526.707031 1088.925781 C 544.515625 1064.351562 560.144531 1036.484375 576.925781 1007.039062 C 595.144531 974.65625 614.035156 941.191406 636.191406 912.1875 C 701.691406 826.15625 789.707031 757.285156 883.964844 717.832031 C 891.644531 714.636719 899.613281 711.535156 908.367188 708.523438 C 944.246094 695.785156 983.015625 689.171875 1020.523438 682.957031 C 1053.449219 677.375 1087.738281 671.582031 1119.453125 661.714844 C 1145.914062 653.554688 1167.5 645.933594 1187.425781 637.933594 C 1231.550781 620.238281 1267.363281 600.667969 1296.796875 577.742188 C 1322.554688 557.683594 1345.351562 534.234375 1364.703125 507.890625 C 1395.128906 466.800781 1416.90625 419.351562 1437.917969 373.277344 C 1453.578125 338.769531 1469.714844 303.28125 1489.589844 270.78125 L 1488.21875 270.015625 C 1468.339844 302.511719 1452.300781 338.195312 1436.347656 372.609375 C 1415.53125 418.585938 1393.757812 466.035156 1363.421875 506.832031 C 1344.265625 533.074219 1321.46875 556.523438 1295.808594 576.289062 C 1266.566406 599.113281 1230.949219 618.585938 1187.015625 636.179688 C 1167.09375 644.179688 1145.40625 651.609375 1119.046875 659.960938 C 1087.332031 669.828125 1053.234375 675.519531 1020.308594 681.105469 C 982.609375 687.417969 943.839844 694.03125 907.765625 706.871094 C 899.011719 709.882812 891.042969 712.984375 883.363281 716.179688 C 788.8125 755.535156 700.507812 824.800781 635.105469 911.027344 C 612.855469 940.324219 593.964844 973.789062 575.746094 1006.171875 C 559.257812 1035.710938 543.433594 1063.679688 525.71875 1087.957031 C 521.582031 1093.757812 517.4375 1099.066406 513.488281 1104.277344 C 503.953125 1116.765625 494.898438 1128.757812 487.03125 1142.109375 C 472.925781 1166.253906 467 1188.664062 468.582031 1210.414062 L 470.242188 1210.300781 C 468.371094 1188.941406 474.394531 1166.726562 488.210938 1142.976562 Z M 494.707031 1148.476562 C 502.5 1137.375 511.28125 1127.722656 520.449219 1117.386719 C 526.242188 1110.988281 532.128906 1104.296875 538.007812 1097.113281 C 560.378906 1069.960938 578.496094 1037.382812 597.960938 1002.644531 C 614.160156 973.5 630.941406 943.570312 650.292969 917.226562 C 716.144531 827.578125 802.589844 757.554688 893.648438 719.984375 C 901.519531 716.691406 909.785156 713.683594 917.855469 710.777344 C 953.25 698.53125 992.136719 693.574219 1029.65625 688.824219 C 1062.984375 684.503906 1097.289062 680.175781 1129.007812 670.796875 C 1155.863281 662.929688 1177.546875 655.5 1197.183594 647.894531 C 1241.3125 630.6875 1276.925781 610.730469 1305.777344 587.613281 C 1331.039062 567.070312 1353.050781 543.046875 1371.421875 516.222656 C 1398.070312 477.804688 1417.640625 434.183594 1436.34375 391.738281 C 1453.335938 353.609375 1470.796875 314.007812 1493.578125 279.042969 L 1492.105469 278.078125 C 1469.230469 313.339844 1451.667969 352.746094 1434.777344 391.070312 C 1415.972656 433.320312 1396.695312 477.035156 1370.140625 515.160156 C 1351.964844 541.882812 1329.855469 565.714844 1304.785156 586.160156 C 1276.035156 609.46875 1240.515625 629.132812 1196.582031 646.242188 C 1176.945312 653.847656 1155.453125 661.175781 1128.601562 669.046875 C 1096.882812 678.425781 1062.578125 682.753906 1029.441406 686.972656 C 991.726562 691.820312 952.84375 696.777344 917.25 709.121094 C 909.082031 711.835938 900.917969 715.035156 892.851562 718.433594 C 801.597656 756.097656 714.867188 826.519531 648.820312 916.261719 C 629.273438 942.707031 612.59375 972.832031 596.390625 1001.976562 C 577.121094 1036.613281 559.003906 1069.191406 536.730469 1096.050781 C 530.847656 1103.234375 524.960938 1109.925781 519.171875 1116.328125 C 510.003906 1126.664062 501.21875 1136.3125 493.425781 1147.417969 C 477.066406 1170.511719 469.683594 1193.421875 471.269531 1215.660156 L 472.929688 1215.546875 C 471.445312 1193.988281 478.734375 1171.371094 494.707031 1148.476562 Z M 501.105469 1154.273438 C 509.109375 1144.535156 517.90625 1136.347656 527.28125 1127.378906 C 534.53125 1120.476562 541.976562 1113.472656 549.21875 1105.597656 C 575.574219 1077.136719 595.410156 1040.734375 616.785156 1002.074219 C 631.449219 975.191406 646.882812 947.417969 664.203125 922.851562 C 730.414062 829.589844 815.382812 758.601562 903.234375 722.433594 C 910.910156 719.234375 918.980469 716.328125 927.539062 713.417969 C 962.746094 701.757812 1001.453125 698.367188 1039.183594 694.980469 C 1072.71875 692.027344 1107.234375 689.0625 1138.761719 680.269531 C 1165.328125 672.796875 1187.019531 665.855469 1206.847656 658.148438 C 1251.273438 641.035156 1286.691406 621.179688 1314.753906 597.484375 C 1339.332031 576.558594 1360.652344 552.148438 1378.042969 524.847656 C 1401.496094 488.800781 1418.949219 448.226562 1435.738281 409.21875 C 1453.476562 367.757812 1471.878906 324.734375 1497.46875 287.59375 L 1495.992188 286.632812 C 1470.210938 323.871094 1451.808594 366.898438 1433.875 408.453125 C 1417.1875 447.65625 1399.828125 487.9375 1376.375 523.984375 C 1359.082031 550.992188 1337.757812 575.402344 1313.375 596.230469 C 1285.3125 619.921875 1250.28125 639.582031 1205.859375 656.695312 C 1186.027344 664.398438 1164.335938 671.339844 1137.964844 678.71875 C 1106.4375 687.507812 1071.925781 690.472656 1038.582031 693.328125 C 1000.851562 696.710938 961.851562 700.011719 926.644531 711.667969 C 918.085938 714.582031 910.015625 717.488281 902.339844 720.683594 C 814.195312 756.757812 729.230469 828.234375 662.632812 921.695312 C 645.117188 946.363281 629.878906 974.035156 615.019531 1001.015625 C 593.839844 1039.578125 574 1075.980469 547.738281 1104.148438 C 540.5 1112.023438 533.054688 1119.023438 525.804688 1125.925781 C 516.429688 1134.898438 507.628906 1143.082031 499.628906 1152.824219 C 486.898438 1168.171875 471.917969 1192.519531 473.664062 1220.8125 L 475.320312 1220.699219 C 473.976562 1193.183594 488.472656 1169.328125 501.105469 1154.273438 Z M 507.40625 1159.875 C 515.710938 1151.207031 524.714844 1143.898438 534.492188 1136.191406 C 543.011719 1129.375 551.820312 1122.164062 560.324219 1113.886719 C 590.480469 1084.707031 612.996094 1043.007812 634.554688 1002.785156 C 648.0625 977.472656 662.144531 951.375 678.210938 928.183594 C 744.679688 831.601562 827.976562 759.265625 912.722656 724.683594 C 920.691406 721.582031 928.761719 718.675781 936.933594 715.964844 C 971.65625 704.796875 1010.671875 702.964844 1048.320312 701.335938 C 1081.875 699.847656 1116.789062 698.148438 1148.128906 689.941406 C 1171.097656 684.0625 1193.960938 677.011719 1216.222656 668.796875 C 1260.457031 652.273438 1295.390625 632.417969 1323.441406 607.75 C 1347.527344 586.339844 1368.164062 561.542969 1384.574219 533.765625 C 1405.214844 499.894531 1420.941406 462.164062 1435.800781 425.613281 C 1454.191406 381.125 1472.957031 334.972656 1501.363281 296.636719 L 1500.082031 295.574219 C 1471.777344 334.105469 1452.820312 380.359375 1434.429688 424.847656 C 1419.46875 461.203125 1403.84375 499.125 1383.292969 532.703125 C 1366.980469 560.1875 1346.441406 585.175781 1322.453125 606.292969 C 1294.6875 630.570312 1259.757812 650.425781 1215.816406 667.042969 C 1193.550781 675.261719 1170.691406 682.308594 1147.722656 688.191406 C 1116.382812 696.394531 1081.660156 697.992188 1048.207031 699.679688 C 1010.363281 701.40625 971.351562 703.238281 936.429688 714.503906 C 928.261719 717.214844 920.191406 720.125 912.027344 723.324219 C 826.988281 757.808594 743.300781 830.347656 676.542969 927.324219 C 660.578125 950.707031 646.492188 976.804688 632.984375 1002.117188 C 611.429688 1042.339844 589.105469 1083.9375 559.046875 1112.824219 C 550.542969 1121.105469 541.828125 1128.019531 533.410156 1135.03125 C 523.921875 1142.832031 514.726562 1150.238281 506.128906 1158.8125 C 480.144531 1185.609375 475.707031 1210.445312 476.84375 1226.539062 L 478.5 1226.425781 C 476.65625 1197.941406 493.304688 1174.453125 507.40625 1159.875 Z M 513.902344 1165.375 C 522.703125 1157.679688 532.105469 1151.148438 541.894531 1144.417969 C 551.683594 1137.6875 561.859375 1130.757812 571.433594 1122.175781 C 605.394531 1092.765625 628.855469 1048.128906 651.648438 1004.574219 C 664.289062 980.441406 677.3125 955.621094 692.117188 933.324219 C 777.398438 805.035156 864.476562 750.132812 922.402344 726.839844 C 930.375 723.738281 938.445312 720.828125 946.519531 718.410156 C 981.054688 707.832031 1020.082031 707.460938 1057.746094 707.296875 C 1091.410156 706.976562 1126.339844 706.742188 1157.683594 699.027344 C 1180.660156 693.636719 1203.621094 686.78125 1225.6875 678.664062 C 1269.828125 662.433594 1304.660156 642.382812 1332.125 617.523438 C 1354.5625 597.203125 1373.835938 572.617188 1390.996094 542 C 1409.222656 510.105469 1423.019531 474.835938 1436.441406 440.738281 C 1455.09375 393.414062 1474.320312 344.332031 1505.25 304.699219 L 1503.96875 303.636719 C 1472.847656 343.367188 1453.621094 392.453125 1434.871094 440.070312 C 1421.453125 474.164062 1407.652344 509.4375 1389.625 541.234375 C 1372.363281 571.65625 1353.285156 596.140625 1331.042969 616.363281 C 1303.578125 641.222656 1268.9375 661.171875 1224.992188 677.304688 C 1202.824219 685.226562 1179.863281 692.082031 1156.988281 697.667969 C 1125.835938 705.285156 1090.90625 705.519531 1057.246094 705.839844 C 1019.386719 706.101562 980.066406 706.378906 945.433594 717.25 C 937.167969 719.765625 929.097656 722.675781 921.125 725.777344 C 815.675781 768.261719 737.367188 861.835938 690.164062 932.855469 C 675.355469 955.152344 662.332031 979.972656 649.691406 1004.105469 C 627.1875 1047.265625 603.726562 1091.902344 569.960938 1121.210938 C 560.285156 1129.601562 550.109375 1136.53125 540.613281 1143.355469 C 530.632812 1150.1875 521.425781 1156.617188 512.429688 1164.414062 C 499.273438 1176.058594 477.558594 1200.179688 478.949219 1232.082031 L 480.605469 1231.96875 C 479.707031 1200.546875 501.132812 1176.820312 513.902344 1165.375 Z M 520.394531 1170.878906 C 529.691406 1163.664062 539.492188 1157.910156 549.675781 1151.957031 C 560.640625 1145.605469 571.894531 1138.859375 582.738281 1130.363281 C 620.402344 1101.015625 644.714844 1053.25 668.261719 1007.34375 C 680.132812 984.097656 692.191406 960.261719 706.125 938.65625 C 753.210938 865.492188 830.617188 769.683594 931.890625 729.089844 C 939.375 725.992188 947.542969 723.28125 956.007812 720.660156 C 990.058594 710.578125 1029.203125 711.863281 1067.074219 713.066406 C 1100.945312 714.109375 1136.085938 715.242188 1167.238281 708.113281 C 1190.3125 702.914062 1213.277344 696.546875 1235.449219 688.625 C 1279.59375 672.878906 1314.324219 652.636719 1341.199219 627.101562 C 1362.855469 606.691406 1381.535156 581.425781 1397.910156 550.230469 C 1413.808594 520.015625 1426.261719 486.90625 1438.144531 455.070312 C 1456.871094 405.015625 1475.96875 353.292969 1509.722656 312.953125 L 1508.441406 311.890625 C 1474.789062 352.425781 1455.300781 404.347656 1436.675781 454.597656 C 1424.792969 486.433594 1412.339844 519.542969 1396.441406 549.757812 C 1380.257812 580.855469 1361.675781 605.824219 1340.019531 626.234375 C 1313.144531 651.769531 1278.703125 671.621094 1234.851562 687.460938 C 1212.582031 695.1875 1189.714844 701.75 1166.835938 706.847656 C 1135.875 713.875 1100.835938 712.941406 1067.160156 711.796875 C 1029.285156 710.59375 989.949219 709.40625 955.605469 719.398438 C 947.140625 722.015625 938.972656 724.726562 931.292969 727.925781 C 829.53125 768.523438 751.839844 864.722656 704.65625 938.183594 C 690.917969 959.691406 678.664062 983.625 666.796875 1006.871094 C 643.441406 1052.675781 619.222656 1100.148438 581.75 1129.398438 C 570.90625 1137.894531 559.75 1144.34375 548.886719 1150.890625 C 538.503906 1156.945312 528.902344 1162.597656 519.410156 1169.910156 C 507.789062 1178.808594 480.808594 1203.171875 482.222656 1237.519531 L 483.878906 1237.40625 C 482.46875 1203.546875 508.96875 1179.675781 520.394531 1170.878906 Z M 526.601562 1176.773438 C 536.492188 1170.238281 546.585938 1165.066406 557.367188 1159.789062 C 569.40625 1153.625 581.929688 1147.453125 593.65625 1139.238281 C 635.132812 1110.148438 660 1059.644531 684.109375 1011 C 695.203125 988.640625 706.683594 965.59375 719.554688 944.777344 C 787.9375 834.707031 862.363281 763.230469 940.996094 732.03125 C 948.964844 728.929688 956.941406 726.316406 965.210938 723.796875 C 999.074219 714.296875 1038.230469 717.050781 1076.3125 719.617188 C 1110.390625 722.023438 1145.546875 724.617188 1176.511719 718.078125 C 1199.589844 713.367188 1222.554688 707 1244.730469 699.566406 C 1288.972656 684.015625 1323.21875 663.777344 1349.792969 637.660156 C 1370.667969 617.160156 1388.464844 591.609375 1404.34375 559.445312 C 1418.40625 530.90625 1429.414062 499.761719 1439.945312 469.597656 C 1458.355469 417.007812 1477.429688 362.847656 1513.421875 322.09375 L 1512.144531 321.03125 C 1475.863281 362.179688 1456.691406 416.632812 1438.285156 469.222656 C 1427.753906 499.386719 1416.9375 530.429688 1402.875 558.96875 C 1387.386719 590.9375 1369.585938 616.484375 1348.808594 636.691406 C 1322.425781 662.710938 1288.277344 682.65625 1244.226562 698.105469 C 1222.152344 705.734375 1199.085938 711.910156 1176.203125 716.519531 C 1145.429688 722.960938 1110.375 720.5625 1076.492188 718.050781 C 1038.3125 715.292969 999.15625 712.539062 964.902344 722.238281 C 956.730469 724.460938 948.464844 727.46875 940.6875 730.472656 C 861.863281 761.773438 787.046875 833.445312 718.570312 943.808594 C 705.507812 964.722656 694.125 987.964844 683.027344 1010.328125 C 658.921875 1058.96875 634.144531 1109.183594 593.058594 1138.074219 C 581.335938 1146.289062 568.90625 1152.652344 556.964844 1158.523438 C 546.671875 1163.796875 535.894531 1169.070312 526.003906 1175.609375 C 499.441406 1193.136719 484.371094 1218.269531 485.203125 1242.859375 L 486.859375 1242.746094 C 485.742188 1218.550781 500.621094 1194.003906 526.601562 1176.773438 Z M 533.097656 1182.277344 C 543.476562 1176.222656 554.554688 1171.53125 565.4375 1166.9375 C 578.558594 1161.445312 592.160156 1155.457031 604.960938 1147.429688 C 649.855469 1118.792969 675.382812 1065.742188 700.144531 1014.554688 C 710.566406 992.789062 721.5625 970.234375 733.753906 950.011719 C 801.910156 836.621094 875.058594 764.085938 950.972656 734.277344 C 958.746094 731.277344 966.917969 728.5625 975.09375 726.335938 C 1008.667969 717.234375 1047.9375 721.644531 1086.132812 725.867188 C 1120.417969 729.640625 1155.78125 733.597656 1186.558594 727.644531 C 1209.644531 723.425781 1232.511719 717.351562 1254.882812 709.816406 C 1298.449219 694.859375 1333.566406 673.929688 1359.359375 647.71875 C 1379.644531 627.027344 1396.65625 600.902344 1411.648438 567.964844 C 1423.96875 540.808594 1433.726562 511.53125 1442.910156 483.039062 C 1460.90625 428.207031 1479.664062 371.511719 1518.1875 330.445312 L 1516.910156 329.382812 C 1478.09375 370.84375 1459.335938 427.539062 1441.246094 482.664062 C 1431.964844 510.960938 1422.304688 540.433594 1410.082031 567.296875 C 1395.28125 600.136719 1378.171875 626.066406 1358.273438 646.558594 C 1332.867188 672.570312 1297.945312 693.398438 1254.574219 708.257812 C 1232.398438 715.691406 1209.527344 721.765625 1186.445312 725.988281 C 1155.863281 731.84375 1120.597656 728.078125 1086.503906 724.203125 C 1048.308594 719.980469 1008.847656 715.667969 974.976562 724.679688 C 966.804688 726.902344 958.632812 729.617188 950.664062 732.71875 C 874.359375 762.726562 801.121094 835.558594 732.769531 949.042969 C 720.484375 969.558594 709.679688 992.015625 699.066406 1013.882812 C 674.394531 1064.777344 648.964844 1117.53125 604.457031 1145.96875 C 591.753906 1154.191406 578.25 1159.882812 565.128906 1165.378906 C 554.246094 1169.972656 542.976562 1174.765625 532.59375 1180.816406 C 490.101562 1205.523438 487.792969 1238.34375 487.984375 1247.808594 L 489.640625 1247.695312 C 489.0625 1238.429688 491.28125 1206.394531 533.097656 1182.277344 Z M 539.007812 1188.078125 C 539.203125 1187.976562 539.398438 1187.878906 539.59375 1187.777344 C 550.464844 1182.207031 562.328125 1178.09375 573.707031 1173.984375 C 588 1168.871094 602.679688 1163.558594 616.261719 1155.617188 C 664.871094 1127.53125 690.859375 1072.039062 716.089844 1018.40625 C 726.027344 997.132812 736.347656 975.167969 747.957031 955.242188 C 816.550781 836.972656 886.292969 765.445312 960.652344 736.429688 C 968.429688 733.429688 976.597656 730.714844 984.875 728.683594 C 1018.160156 719.972656 1057.738281 725.941406 1095.945312 731.628906 C 1130.25 736.867188 1165.527344 742.097656 1196.308594 736.628906 C 1219.296875 732.703125 1242.367188 727.015625 1264.640625 719.777344 C 1308.40625 705.207031 1343.230469 684.183594 1368.234375 657.398438 C 1387.933594 636.515625 1403.875 610.691406 1418.171875 576.394531 C 1428.941406 550.523438 1437.351562 522.917969 1445.671875 496.09375 C 1463.15625 438.824219 1481.207031 379.792969 1522.175781 338.703125 L 1521.089844 337.542969 C 1479.835938 379.027344 1461.589844 438.15625 1444.207031 495.617188 C 1436.078125 522.34375 1427.472656 550.046875 1416.898438 575.820312 C 1402.601562 610.121094 1386.753906 635.648438 1367.25 656.429688 C 1342.339844 682.921875 1307.710938 703.847656 1264.238281 718.511719 C 1241.964844 725.753906 1219.1875 731.53125 1196.097656 735.265625 C 1165.707031 740.535156 1130.429688 735.304688 1096.421875 730.160156 C 1058.109375 724.277344 1018.339844 718.410156 984.859375 727.21875 C 976.585938 729.25 968.414062 731.964844 960.445312 735.066406 C 885.597656 764.085938 815.757812 835.90625 746.875 954.570312 C 735.265625 974.496094 725.046875 996.652344 714.914062 1018.027344 C 689.78125 1071.367188 663.886719 1126.566406 615.957031 1154.546875 C 602.375 1162.484375 587.695312 1167.800781 573.597656 1172.8125 C 562.21875 1176.921875 550.457031 1181.234375 539.289062 1186.707031 C 539.09375 1186.808594 538.898438 1186.90625 538.707031 1187.003906 C 515.015625 1199.140625 490.175781 1222.898438 490.867188 1253.445312 L 492.527344 1253.332031 C 491.351562 1223.277344 515.707031 1200.011719 539.007812 1188.078125 Z M 545.890625 1193.378906 C 557.453125 1188.195312 570.003906 1184.464844 582.066406 1180.738281 C 597.144531 1176.199219 612.808594 1171.367188 627.371094 1163.90625 C 679.5 1136.472656 705.953125 1078.53125 731.449219 1022.554688 C 740.90625 1001.773438 750.742188 980.300781 761.769531 960.675781 C 805.398438 883.148438 874.199219 775.808594 970.238281 738.878906 C 978.015625 735.875 986.1875 733.160156 994.265625 731.230469 C 1027.363281 723.105469 1066.957031 730.539062 1104.984375 737.792969 C 1139.496094 744.394531 1174.984375 750.988281 1205.378906 746.207031 C 1228.570312 742.667969 1251.542969 737.277344 1273.722656 730.332031 C 1317.394531 716.054688 1351.921875 694.9375 1376.730469 667.761719 C 1395.835938 646.203125 1411.09375 619.996094 1424.308594 585.023438 C 1433.722656 560.335938 1441.171875 534.203125 1448.238281 508.757812 C 1464.921875 449.449219 1482.171875 388.375 1525.578125 347.257812 L 1524.492188 346.097656 C 1480.699219 387.414062 1463.355469 448.78125 1446.769531 508.285156 C 1439.703125 533.730469 1432.253906 559.863281 1422.742188 584.355469 C 1409.425781 619.132812 1394.363281 645.238281 1375.351562 666.503906 C 1350.738281 693.582031 1316.304688 714.40625 1273.121094 728.675781 C 1251.042969 735.816406 1228.066406 741.210938 1205.070312 744.648438 C 1174.96875 749.523438 1139.382812 742.734375 1105.164062 736.226562 C 1066.648438 728.980469 1026.953125 721.355469 993.664062 729.578125 C 985.390625 731.609375 977.414062 734.222656 969.445312 737.324219 C 873.015625 774.453125 803.925781 882.1875 760.199219 960.007812 C 749.175781 979.632812 739.335938 1001.105469 729.789062 1022.179688 C 704.386719 1077.863281 678.027344 1135.511719 626.386719 1162.941406 C 612.117188 1170.496094 596.355469 1175.136719 581.273438 1179.671875 C 569.210938 1183.398438 556.660156 1187.128906 544.90625 1192.414062 C 520.523438 1203.1875 492.363281 1227.171875 492.972656 1258.988281 L 494.628906 1258.875 C 494.222656 1227.449219 521.996094 1204.148438 545.890625 1193.378906 Z M 552.191406 1198.980469 C 564.441406 1194.179688 577.484375 1190.933594 590.140625 1187.882812 C 606.199219 1183.824219 622.941406 1179.664062 638.480469 1172.195312 C 694.125 1145.410156 720.851562 1085.125 746.8125 1026.703125 C 755.976562 1006.316406 765.230469 985.144531 775.675781 965.816406 C 822.4375 879.570312 887.957031 775.871094 979.628906 740.9375 C 987.40625 737.933594 995.480469 735.515625 1003.558594 733.582031 C 1036.171875 725.953125 1075.878906 735.042969 1114.117188 743.660156 C 1148.738281 751.429688 1184.535156 759.582031 1214.742188 755.390625 C 1237.933594 752.339844 1260.816406 747.242188 1283.1875 740.195312 C 1326.960938 726.117188 1361.292969 705.097656 1385.507812 677.242188 C 1404.035156 655.984375 1418.503906 629.199219 1431.027344 593.355469 C 1439.1875 570.042969 1445.671875 544.898438 1451.773438 520.925781 C 1467.65625 459.574219 1484.007812 396.265625 1529.855469 355.613281 L 1528.769531 354.453125 C 1482.632812 395.496094 1466.1875 459.097656 1450.40625 520.644531 C 1444.109375 544.71875 1437.71875 569.570312 1429.65625 593.074219 C 1417.226562 628.625 1402.757812 655.410156 1384.429688 676.570312 C 1360.601562 704.222656 1326.460938 725.144531 1282.886719 739.125 C 1260.707031 746.070312 1237.824219 751.171875 1214.828125 754.121094 C 1184.914062 758.410156 1149.117188 750.257812 1114.792969 742.578125 C 1076.257812 733.867188 1036.550781 724.777344 1003.449219 732.414062 C 995.175781 734.441406 987.101562 736.863281 979.324219 739.863281 C 887.070312 775.101562 821.359375 878.898438 774.5 965.433594 C 764.058594 984.761719 754.609375 1006.035156 745.636719 1026.324219 C 720.441406 1083.375 694.191406 1142.1875 641.183594 1169.339844 C 640.210938 1169.835938 639.046875 1170.433594 638.078125 1170.929688 C 622.734375 1178.300781 605.992188 1182.460938 589.929688 1186.519531 C 577.273438 1189.566406 564.230469 1192.816406 551.789062 1197.714844 C 525.835938 1207.820312 495.625 1231.144531 496.046875 1264.035156 L 497.707031 1263.921875 C 497.191406 1231.8125 526.628906 1208.886719 552.191406 1198.980469 Z M 558.492188 1204.582031 C 571.429688 1200.164062 585.160156 1197.300781 598.304688 1194.734375 C 615.445312 1191.351562 633.167969 1187.667969 649.394531 1180.585938 C 708.660156 1154.644531 735.847656 1091.914062 761.882812 1031.246094 C 770.464844 1011.15625 779.433594 990.375 789.394531 971.539062 C 843.789062 867.65625 912.863281 758.457031 1013.050781 736.324219 C 1045.476562 729.28125 1085.390625 739.734375 1123.746094 750.007812 C 1158.378906 759.246094 1194.382812 768.761719 1224.402344 765.160156 C 1302.371094 755.632812 1359.390625 729.613281 1394.296875 687.699219 C 1429.207031 645.789062 1442.59375 588.65625 1455.410156 533.285156 C 1470.296875 469.992188 1485.554688 404.546875 1533.652344 364.460938 L 1532.566406 363.296875 C 1484.179688 403.777344 1468.730469 469.324219 1453.75 532.914062 C 1440.832031 588.085938 1427.539062 644.925781 1392.726562 686.542969 C 1358.105469 728.066406 1301.28125 753.984375 1223.800781 763.503906 C 1194.074219 767.203125 1158.363281 757.78125 1123.925781 748.445312 C 1085.277344 738.078125 1045.261719 727.425781 1012.449219 734.667969 C 911.578125 756.90625 842.214844 866.5 787.726562 970.679688 C 777.863281 989.707031 768.898438 1010.488281 760.316406 1030.578125 C 734.375 1090.953125 707.574219 1153.480469 648.699219 1179.226562 C 632.667969 1186.210938 614.945312 1189.890625 597.804688 1193.277344 C 584.460938 1195.941406 570.730469 1198.804688 557.796875 1203.222656 C 528.136719 1213.265625 498.226562 1237.660156 498.246094 1269.285156 L 499.90625 1269.171875 C 500.085938 1238.421875 529.515625 1214.519531 558.492188 1204.582031 Z M 558.492188 1204.582031 "/>
</clipPath>
<linearGradient id="linear1" gradientUnits="userSpaceOnUse" x1="72.796568" y1="129.899994" x2="601.442565" y2="129.899994" gradientTransform="matrix(1.941706,-0.994554,0.995079,1.94273,259.503334,800.783518)">
<stop offset="0" style="stop-color:rgb(81.893921%,41.407776%,91.371155%);stop-opacity:1;"/>
<stop offset="0.015625" style="stop-color:rgb(82.023621%,41.351318%,91.436768%);stop-opacity:1;"/>
<stop offset="0.03125" style="stop-color:rgb(82.281494%,41.238403%,91.567993%);stop-opacity:1;"/>
<stop offset="0.046875" style="stop-color:rgb(82.539368%,41.127014%,91.700745%);stop-opacity:1;"/>
<stop offset="0.0625" style="stop-color:rgb(82.797241%,41.015625%,91.83197%);stop-opacity:1;"/>
<stop offset="0.078125" style="stop-color:rgb(83.056641%,40.904236%,91.963196%);stop-opacity:1;"/>
<stop offset="0.09375" style="stop-color:rgb(83.314514%,40.792847%,92.095947%);stop-opacity:1;"/>
<stop offset="0.109375" style="stop-color:rgb(83.572388%,40.679932%,92.227173%);stop-opacity:1;"/>
<stop offset="0.125" style="stop-color:rgb(83.831787%,40.568542%,92.359924%);stop-opacity:1;"/>
<stop offset="0.140625" style="stop-color:rgb(84.089661%,40.457153%,92.49115%);stop-opacity:1;"/>
<stop offset="0.15625" style="stop-color:rgb(84.347534%,40.345764%,92.622375%);stop-opacity:1;"/>
<stop offset="0.171875" style="stop-color:rgb(84.605408%,40.234375%,92.755127%);stop-opacity:1;"/>
<stop offset="0.1875" style="stop-color:rgb(84.864807%,40.122986%,92.886353%);stop-opacity:1;"/>
<stop offset="0.203125" style="stop-color:rgb(85.122681%,40.010071%,93.019104%);stop-opacity:1;"/>
<stop offset="0.21875" style="stop-color:rgb(85.380554%,39.898682%,93.15033%);stop-opacity:1;"/>
<stop offset="0.234375" style="stop-color:rgb(85.638428%,39.787292%,93.281555%);stop-opacity:1;"/>
<stop offset="0.25" style="stop-color:rgb(85.897827%,39.675903%,93.414307%);stop-opacity:1;"/>
<stop offset="0.265625" style="stop-color:rgb(86.155701%,39.564514%,93.545532%);stop-opacity:1;"/>
<stop offset="0.28125" style="stop-color:rgb(86.413574%,39.453125%,93.678284%);stop-opacity:1;"/>
<stop offset="0.296875" style="stop-color:rgb(86.672974%,39.34021%,93.809509%);stop-opacity:1;"/>
<stop offset="0.3125" style="stop-color:rgb(86.930847%,39.228821%,93.940735%);stop-opacity:1;"/>
<stop offset="0.328125" style="stop-color:rgb(87.188721%,39.117432%,94.073486%);stop-opacity:1;"/>
<stop offset="0.34375" style="stop-color:rgb(87.446594%,39.006042%,94.204712%);stop-opacity:1;"/>
<stop offset="0.359375" style="stop-color:rgb(87.705994%,38.894653%,94.337463%);stop-opacity:1;"/>
<stop offset="0.375" style="stop-color:rgb(87.963867%,38.781738%,94.468689%);stop-opacity:1;"/>
<stop offset="0.390625" style="stop-color:rgb(88.221741%,38.670349%,94.599915%);stop-opacity:1;"/>
<stop offset="0.40625" style="stop-color:rgb(88.479614%,38.55896%,94.732666%);stop-opacity:1;"/>
<stop offset="0.421875" style="stop-color:rgb(88.739014%,38.447571%,94.863892%);stop-opacity:1;"/>
<stop offset="0.4375" style="stop-color:rgb(88.996887%,38.336182%,94.996643%);stop-opacity:1;"/>
<stop offset="0.453125" style="stop-color:rgb(89.254761%,38.224792%,95.127869%);stop-opacity:1;"/>
<stop offset="0.46875" style="stop-color:rgb(89.51416%,38.111877%,95.259094%);stop-opacity:1;"/>
<stop offset="0.484375" style="stop-color:rgb(89.772034%,38.000488%,95.391846%);stop-opacity:1;"/>
<stop offset="0.5" style="stop-color:rgb(90.029907%,37.889099%,95.523071%);stop-opacity:1;"/>
<stop offset="0.515625" style="stop-color:rgb(90.287781%,37.77771%,95.655823%);stop-opacity:1;"/>
<stop offset="0.53125" style="stop-color:rgb(90.54718%,37.666321%,95.787048%);stop-opacity:1;"/>
<stop offset="0.546875" style="stop-color:rgb(90.805054%,37.554932%,95.918274%);stop-opacity:1;"/>
<stop offset="0.5625" style="stop-color:rgb(91.062927%,37.442017%,96.051025%);stop-opacity:1;"/>
<stop offset="0.578125" style="stop-color:rgb(91.322327%,37.330627%,96.182251%);stop-opacity:1;"/>
<stop offset="0.59375" style="stop-color:rgb(91.5802%,37.219238%,96.315002%);stop-opacity:1;"/>
<stop offset="0.609375" style="stop-color:rgb(91.838074%,37.107849%,96.446228%);stop-opacity:1;"/>
<stop offset="0.625" style="stop-color:rgb(92.095947%,36.99646%,96.577454%);stop-opacity:1;"/>
<stop offset="0.640625" style="stop-color:rgb(92.355347%,36.883545%,96.710205%);stop-opacity:1;"/>
<stop offset="0.65625" style="stop-color:rgb(92.61322%,36.772156%,96.841431%);stop-opacity:1;"/>
<stop offset="0.671875" style="stop-color:rgb(92.871094%,36.660767%,96.974182%);stop-opacity:1;"/>
<stop offset="0.6875" style="stop-color:rgb(93.128967%,36.549377%,97.105408%);stop-opacity:1;"/>
<stop offset="0.703125" style="stop-color:rgb(93.388367%,36.437988%,97.236633%);stop-opacity:1;"/>
<stop offset="0.71875" style="stop-color:rgb(93.64624%,36.326599%,97.369385%);stop-opacity:1;"/>
<stop offset="0.734375" style="stop-color:rgb(93.904114%,36.213684%,97.50061%);stop-opacity:1;"/>
<stop offset="0.75" style="stop-color:rgb(94.163513%,36.102295%,97.633362%);stop-opacity:1;"/>
<stop offset="0.765625" style="stop-color:rgb(94.421387%,35.990906%,97.764587%);stop-opacity:1;"/>
<stop offset="0.78125" style="stop-color:rgb(94.67926%,35.879517%,97.895813%);stop-opacity:1;"/>
<stop offset="0.796875" style="stop-color:rgb(94.937134%,35.768127%,98.028564%);stop-opacity:1;"/>
<stop offset="0.8125" style="stop-color:rgb(95.196533%,35.656738%,98.15979%);stop-opacity:1;"/>
<stop offset="0.828125" style="stop-color:rgb(95.454407%,35.543823%,98.292542%);stop-opacity:1;"/>
<stop offset="0.84375" style="stop-color:rgb(95.71228%,35.432434%,98.423767%);stop-opacity:1;"/>
<stop offset="0.859375" style="stop-color:rgb(95.97168%,35.321045%,98.554993%);stop-opacity:1;"/>
<stop offset="0.875" style="stop-color:rgb(96.229553%,35.209656%,98.687744%);stop-opacity:1;"/>
<stop offset="0.890625" style="stop-color:rgb(96.487427%,35.098267%,98.81897%);stop-opacity:1;"/>
<stop offset="0.90625" style="stop-color:rgb(96.7453%,34.985352%,98.951721%);stop-opacity:1;"/>
<stop offset="0.921875" style="stop-color:rgb(97.0047%,34.873962%,99.082947%);stop-opacity:1;"/>
<stop offset="0.9375" style="stop-color:rgb(97.262573%,34.762573%,99.214172%);stop-opacity:1;"/>
<stop offset="0.953125" style="stop-color:rgb(97.520447%,34.651184%,99.346924%);stop-opacity:1;"/>
<stop offset="0.96875" style="stop-color:rgb(97.77832%,34.539795%,99.478149%);stop-opacity:1;"/>
<stop offset="0.984375" style="stop-color:rgb(98.03772%,34.428406%,99.610901%);stop-opacity:1;"/>
<stop offset="1" style="stop-color:rgb(98.295593%,34.315491%,99.742126%);stop-opacity:1;"/>
</linearGradient>
</defs>
<g id="surface1">
<rect x="0" y="0" width="1440" height="809.999993" style="fill:rgb(100%,100%,100%);fill-opacity:1;stroke:none;"/>
<rect x="0" y="0" width="1440" height="809.999993" style="fill:rgb(100%,100%,100%);fill-opacity:1;stroke:none;"/>
<rect x="0" y="0" width="1440" height="809.999993" style="fill:rgb(26.669312%,3.919983%,40.388489%);fill-opacity:1;stroke:none;"/>
<g clip-path="url(#clip1)" clip-rule="nonzero">
<g clip-path="url(#clip2)" clip-rule="nonzero">
<g clip-path="url(#clip3)" clip-rule="nonzero">
<g clip-path="url(#clip4)" clip-rule="nonzero">
<path style=" stroke:none;fill-rule:nonzero;fill:url(#linear0);" d="M -277.285156 142.027344 L 164.980469 1005.484375 L 1071.113281 541.355469 L 628.847656 -322.097656 Z M -277.285156 142.027344 "/>
</g>
</g>
</g>
</g>
<g clip-path="url(#clip5)" clip-rule="nonzero">
<g clip-path="url(#clip6)" clip-rule="nonzero">
<g clip-path="url(#clip7)" clip-rule="nonzero">
<g clip-path="url(#clip8)" clip-rule="nonzero">
<path style=" stroke:none;fill-rule:nonzero;fill:url(#linear1);" d="M 206.246094 348.445312 L 649.933594 1214.675781 L 1676.410156 688.910156 L 1232.722656 -177.320312 Z M 206.246094 348.445312 "/>
</g>
</g>
</g>
</g>
</g>
</svg>
