<?xml version="1.0" encoding="UTF-8"?>
<svg xmlns="http://www.w3.org/2000/svg" xmlns:xlink="http://www.w3.org/1999/xlink" width="705pt" height="591.000005pt" viewBox="0 0 705 591.000005" version="1.2">
<defs>
<clipPath id="clip1">
  <path d="M 0.59375 196 L 183 196 L 183 314 L 0.59375 314 Z M 0.59375 196 "/>
</clipPath>
</defs>
<g id="surface1">
<path style=" stroke:none;fill-rule:nonzero;fill:rgb(0%,0%,0%);fill-opacity:1;" d="M 458.523438 343.511719 L 483.6875 368.691406 L 502.421875 349.949219 L 477.257812 324.765625 C 474.417969 328.203125 471.4375 331.488281 468.335938 334.585938 C 465.238281 337.6875 461.957031 340.671875 458.523438 343.511719 Z M 483.6875 385.957031 C 481.859375 385.957031 480.027344 385.265625 478.636719 383.863281 L 442.6875 347.898438 C 441.214844 346.421875 440.460938 344.375 440.617188 342.292969 C 440.78125 340.210938 441.839844 338.304688 443.515625 337.074219 C 448.78125 333.21875 453.726562 328.976562 458.230469 324.472656 C 462.730469 319.964844 466.96875 315.015625 470.824219 309.75 C 472.050781 308.070312 473.960938 307.011719 476.039062 306.847656 C 478.121094 306.691406 480.164062 307.449219 481.644531 308.921875 L 517.582031 344.890625 C 520.378906 347.679688 520.378906 352.214844 517.582031 355.003906 L 488.742188 383.863281 C 487.347656 385.265625 485.519531 385.957031 483.6875 385.957031 "/>
<path style=" stroke:none;fill-rule:nonzero;fill:rgb(85.488892%,72.938538%,89.408875%);fill-opacity:1;" d="M 472.375 88.683594 C 541.355469 157.699219 541.355469 269.605469 472.375 338.625 C 403.398438 407.652344 291.558594 407.652344 222.582031 338.625 C 153.605469 269.605469 153.605469 157.699219 222.582031 88.683594 C 291.558594 19.65625 403.398438 19.65625 472.375 88.683594 "/>
<path style=" stroke:none;fill-rule:nonzero;fill:rgb(0%,0%,0%);fill-opacity:1;" d="M 347.476562 44.066406 C 302.207031 44.066406 259.644531 61.707031 227.636719 93.738281 C 195.625 125.765625 177.996094 168.355469 177.996094 213.652344 C 177.996094 258.953125 195.625 301.535156 227.636719 333.566406 C 259.644531 365.601562 302.207031 383.238281 347.476562 383.238281 C 392.75 383.238281 435.304688 365.601562 467.320312 333.566406 C 499.332031 301.535156 516.960938 258.953125 516.960938 213.652344 C 516.960938 168.355469 499.332031 125.765625 467.320312 93.738281 C 435.304688 61.707031 392.75 44.066406 347.476562 44.066406 Z M 347.476562 397.542969 C 298.390625 397.542969 252.238281 378.417969 217.527344 343.683594 C 182.816406 308.953125 163.699219 262.769531 163.699219 213.652344 C 163.699219 164.53125 182.816406 118.355469 217.527344 83.617188 C 252.238281 48.886719 298.390625 29.765625 347.476562 29.765625 C 396.566406 29.765625 442.71875 48.886719 477.425781 83.617188 C 512.144531 118.355469 531.253906 164.53125 531.253906 213.652344 C 531.253906 262.769531 512.144531 308.953125 477.425781 343.683594 C 442.71875 378.417969 396.566406 397.542969 347.476562 397.542969 "/>
<path style=" stroke:none;fill-rule:nonzero;fill:rgb(100%,100%,100%);fill-opacity:1;" d="M 394.785156 141.5625 C 394.785156 167.917969 373.429688 189.289062 347.085938 189.289062 C 320.746094 189.289062 299.394531 167.917969 299.394531 141.5625 C 299.394531 115.210938 320.746094 93.839844 347.085938 93.839844 C 373.429688 93.839844 394.785156 115.210938 394.785156 141.5625 "/>
<path style=" stroke:none;fill-rule:nonzero;fill:rgb(100%,100%,100%);fill-opacity:1;" d="M 390.890625 229.257812 L 303.527344 229.257812 C 270.292969 229.257812 243.347656 256.21875 243.347656 289.476562 L 243.347656 356.441406 C 305.003906 401.578125 389.289062 401.699219 451.074219 356.820312 L 451.074219 289.476562 C 451.074219 256.21875 424.125 229.257812 390.890625 229.257812 "/>
<path style=" stroke:none;fill-rule:nonzero;fill:rgb(0%,0%,0%);fill-opacity:1;" d="M 347.085938 100.992188 C 324.730469 100.992188 306.542969 119.191406 306.542969 141.5625 C 306.542969 163.933594 324.730469 182.136719 347.085938 182.136719 C 369.445312 182.136719 387.636719 163.933594 387.636719 141.5625 C 387.636719 119.191406 369.445312 100.992188 347.085938 100.992188 Z M 347.085938 196.441406 C 316.847656 196.441406 292.246094 171.824219 292.246094 141.5625 C 292.246094 111.304688 316.847656 86.6875 347.085938 86.6875 C 377.332031 86.6875 401.933594 111.304688 401.933594 141.5625 C 401.933594 171.824219 377.332031 196.441406 347.085938 196.441406 "/>
<path style=" stroke:none;fill-rule:nonzero;fill:rgb(0%,0%,0%);fill-opacity:1;" d="M 91.511719 100.992188 C 74.214844 100.992188 60.144531 115.070312 60.144531 132.375 C 60.144531 149.679688 74.214844 163.765625 91.511719 163.765625 C 108.804688 163.765625 122.878906 149.679688 122.878906 132.375 C 122.878906 115.070312 108.804688 100.992188 91.511719 100.992188 Z M 91.511719 178.070312 C 66.332031 178.070312 45.851562 157.570312 45.851562 132.375 C 45.851562 107.183594 66.332031 86.6875 91.511719 86.6875 C 116.6875 86.6875 137.171875 107.183594 137.171875 132.375 C 137.171875 157.570312 116.6875 178.070312 91.511719 178.070312 "/>
<g clip-path="url(#clip1)" clip-rule="nonzero">
<path style=" stroke:none;fill-rule:nonzero;fill:rgb(0%,0%,0%);fill-opacity:1;" d="M 14.886719 298.96875 L 168.328125 298.96875 L 168.328125 263.40625 C 168.328125 234.148438 144.539062 210.335938 115.296875 210.335938 L 67.921875 210.335938 C 38.679688 210.335938 14.886719 234.148438 14.886719 263.40625 Z M 175.476562 313.269531 L 7.742188 313.269531 C 3.792969 313.269531 0.59375 310.066406 0.59375 306.121094 L 0.59375 263.40625 C 0.59375 226.257812 30.792969 196.03125 67.921875 196.03125 L 115.296875 196.03125 C 152.421875 196.03125 182.625 226.257812 182.625 263.40625 L 182.625 306.121094 C 182.625 310.066406 179.425781 313.269531 175.476562 313.269531 "/>
</g>
<path style=" stroke:none;fill-rule:nonzero;fill:rgb(0%,0%,0%);fill-opacity:1;" d="M 602.632812 100.992188 C 585.34375 100.992188 571.269531 115.070312 571.269531 132.375 C 571.269531 149.679688 585.34375 163.765625 602.632812 163.765625 C 619.929688 163.765625 633.996094 149.679688 633.996094 132.375 C 633.996094 115.070312 619.929688 100.992188 602.632812 100.992188 Z M 602.632812 178.070312 C 577.457031 178.070312 556.972656 157.570312 556.972656 132.375 C 556.972656 107.183594 577.457031 86.6875 602.632812 86.6875 C 627.8125 86.6875 648.292969 107.183594 648.292969 132.375 C 648.292969 157.570312 627.8125 178.070312 602.632812 178.070312 "/>
<path style=" stroke:none;fill-rule:nonzero;fill:rgb(0%,0%,0%);fill-opacity:1;" d="M 526.007812 298.96875 L 679.453125 298.96875 L 679.453125 263.40625 C 679.453125 234.148438 655.660156 210.335938 626.417969 210.335938 L 579.046875 210.335938 C 549.804688 210.335938 526.007812 234.148438 526.007812 263.40625 Z M 686.601562 313.269531 L 518.859375 313.269531 C 514.914062 313.269531 511.714844 310.066406 511.714844 306.121094 L 511.714844 263.40625 C 511.714844 226.257812 541.921875 196.03125 579.046875 196.03125 L 626.417969 196.03125 C 663.546875 196.03125 693.75 226.257812 693.75 263.40625 L 693.75 306.121094 C 693.75 310.066406 690.550781 313.269531 686.601562 313.269531 "/>
<path style=" stroke:none;fill-rule:nonzero;fill:rgb(0%,0%,0%);fill-opacity:1;" d="M 451.074219 356.820312 L 451.082031 356.820312 Z M 250.496094 352.765625 C 278.890625 372.648438 312.238281 383.175781 347.175781 383.234375 C 347.273438 383.234375 347.382812 383.234375 347.476562 383.234375 C 382.289062 383.234375 415.550781 372.839844 443.925781 353.128906 L 443.925781 289.476562 C 443.925781 260.21875 420.140625 236.410156 390.890625 236.410156 L 303.527344 236.410156 C 274.289062 236.410156 250.496094 260.21875 250.496094 289.476562 Z M 347.480469 397.539062 C 347.367188 397.539062 347.261719 397.539062 347.148438 397.539062 C 307.957031 397.472656 270.605469 385.257812 239.128906 362.210938 C 237.289062 360.859375 236.203125 358.722656 236.203125 356.441406 L 236.203125 289.476562 C 236.203125 252.328125 266.402344 222.105469 303.527344 222.105469 L 390.890625 222.105469 C 428.015625 222.105469 458.21875 252.328125 458.21875 289.476562 L 458.21875 356.820312 C 458.21875 359.109375 457.128906 361.261719 455.269531 362.605469 C 423.804688 385.464844 386.535156 397.539062 347.480469 397.539062 "/>
<path style=" stroke:none;fill-rule:nonzero;fill:rgb(79.60968%,42.349243%,90.19928%);fill-opacity:1;" d="M 517.683594 328.839844 L 462.59375 383.960938 L 638.234375 559.710938 C 649.253906 570.738281 667.121094 570.738281 678.132812 559.710938 L 693.324219 544.511719 C 704.34375 533.492188 704.34375 515.617188 693.324219 504.589844 L 517.683594 328.839844 "/>
</g>
</svg>
