<?xml version="1.0" encoding="UTF-8"?>
<svg xmlns="http://www.w3.org/2000/svg" xmlns:xlink="http://www.w3.org/1999/xlink" width="705pt" height="591.000005pt" viewBox="0 0 705 591.000005" version="1.2">
<defs>
<clipPath id="clip1">
  <path d="M 0.59375 0 L 704.402344 0 L 704.402344 590 L 0.59375 590 Z M 0.59375 0 "/>
</clipPath>
<clipPath id="clip2">
  <path d="M 230 142.714844 L 435 142.714844 L 435 394 L 230 394 Z M 230 142.714844 "/>
</clipPath>
<clipPath id="clip3">
  <path d="M 295 414 L 370 414 L 370 487.882812 L 295 487.882812 Z M 295 414 "/>
</clipPath>
<clipPath id="clip4">
  <path d="M 41.714844 196 L 209 196 L 209 405 L 41.714844 405 Z M 41.714844 196 "/>
</clipPath>
<clipPath id="clip5">
  <path d="M 460 197 L 627.226562 197 L 627.226562 404 L 460 404 Z M 460 197 "/>
</clipPath>
</defs>
<g id="surface1">
<g clip-path="url(#clip1)" clip-rule="nonzero">
<path style=" stroke:none;fill-rule:nonzero;fill:rgb(100%,100%,100%);fill-opacity:1;" d="M 0.59375 0 L 704.40625 0 L 704.40625 597.488281 L 0.59375 597.488281 Z M 0.59375 0 "/>
<path style=" stroke:none;fill-rule:nonzero;fill:rgb(100%,100%,100%);fill-opacity:1;" d="M 0.59375 0 L 704.40625 0 L 704.40625 590 L 0.59375 590 Z M 0.59375 0 "/>
<path style=" stroke:none;fill-rule:nonzero;fill:rgb(100%,100%,100%);fill-opacity:1;" d="M 0.59375 0 L 704.40625 0 L 704.40625 590 L 0.59375 590 Z M 0.59375 0 "/>
</g>
<path style=" stroke:none;fill-rule:nonzero;fill:rgb(79.60968%,42.349243%,90.19928%);fill-opacity:1;" d="M 414.800781 200.792969 C 416.382812 204.261719 417.5625 207.894531 418.542969 211.574219 C 420.75 219.835938 433.5625 216.328125 431.355469 208.042969 C 430.066406 203.238281 428.332031 198.617188 426.265625 194.09375 C 424.765625 190.796875 420.066406 190.023438 417.1875 191.710938 C 413.820312 193.675781 413.300781 197.503906 414.800781 200.792969 "/>
<g clip-path="url(#clip2)" clip-rule="nonzero">
<path style=" stroke:none;fill-rule:nonzero;fill:rgb(79.60968%,42.349243%,90.19928%);fill-opacity:1;" d="M 421.175781 233.625 C 421.023438 251.414062 416.609375 267.96875 405.367188 282.050781 C 394.328125 295.882812 379.230469 306.363281 366.347656 318.355469 C 353.726562 330.101562 347.140625 343.496094 345.546875 360.621094 C 344.730469 369.34375 345.144531 378.253906 345.144531 387.011719 L 351.78125 380.378906 L 308.980469 380.378906 C 311.199219 382.585938 313.410156 384.804688 315.628906 387.011719 L 315.628906 365.863281 C 315.628906 350.257812 319.015625 336.132812 327.800781 323.089844 C 339.652344 305.503906 358.058594 293.261719 372.273438 277.800781 C 383.253906 265.84375 388.699219 252.589844 388.933594 236.359375 C 389.132812 221.492188 383.808594 207.234375 373.101562 196.84375 C 351.875 176.242188 313.796875 177.097656 292.746094 197.199219 C 281.308594 208.128906 275.546875 223.230469 273.667969 238.632812 C 275.875 236.421875 278.097656 234.207031 280.304688 231.996094 C 265.734375 230.324219 251.167969 228.65625 236.597656 226.988281 C 238.734375 229.789062 240.871094 232.589844 242.996094 235.394531 C 248.144531 200.765625 269.335938 171.914062 303.183594 160.867188 C 337.625 149.628906 380.679688 156.765625 404.964844 184.910156 C 410.574219 191.402344 419.925781 181.96875 414.363281 175.523438 C 386.773438 143.558594 338.675781 136.191406 299.65625 148.0625 C 261.625 159.632812 235.9375 193.195312 230.199219 231.859375 C 229.511719 236.457031 231.957031 239.734375 236.597656 240.265625 C 251.167969 241.933594 265.734375 243.605469 280.304688 245.273438 C 284.210938 245.71875 286.550781 241.886719 286.949219 238.632812 C 288.734375 223.9375 296.078125 209.507812 308.746094 201.347656 C 321.023438 193.449219 339.136719 193.210938 352.359375 198.832031 C 366.3125 204.769531 374.398438 217.609375 375.535156 232.460938 C 376.101562 239.917969 375.355469 247.945312 372.335938 254.859375 C 369.097656 262.246094 363.113281 268.535156 357.375 274.023438 C 342.25 288.496094 325.535156 301.9375 314.140625 319.726562 C 301.152344 340.015625 302.347656 363.679688 302.347656 386.695312 L 302.347656 387.011719 C 302.347656 390.636719 305.367188 393.660156 308.980469 393.660156 L 351.777344 393.660156 C 355.402344 393.660156 358.425781 390.636719 358.425781 387.011719 C 358.425781 378.230469 358.179688 369.390625 358.828125 360.621094 C 359.417969 352.453125 361.851562 344.890625 366.335938 338.03125 C 370.859375 331.148438 377.90625 325.636719 384.035156 320.257812 C 397.46875 308.464844 411.554688 297.359375 421.484375 282.261719 C 430.964844 267.863281 434.316406 250.613281 434.457031 233.625 C 434.53125 225.058594 421.246094 225.070312 421.175781 233.625 "/>
</g>
<g clip-path="url(#clip3)" clip-rule="nonzero">
<path style=" stroke:none;fill-rule:nonzero;fill:rgb(79.60968%,42.349243%,90.19928%);fill-opacity:1;" d="M 356.527344 451.1875 C 356.148438 464.5 345.78125 474.261719 332.664062 474.589844 C 319.84375 474.910156 309.171875 464.253906 308.804688 451.648438 C 308.402344 438.144531 319.890625 428.558594 332.664062 428.242188 C 345.886719 427.921875 356.171875 438.167969 356.527344 451.1875 C 356.761719 459.730469 370.042969 459.753906 369.808594 451.1875 C 369.242188 430.378906 353.21875 415.457031 332.664062 414.964844 C 312.003906 414.480469 296.066406 431.59375 295.523438 451.648438 C 294.96875 472.042969 313.363281 487.386719 332.664062 487.871094 C 353.113281 488.390625 369.242188 471.039062 369.808594 451.1875 C 370.054688 442.617188 356.761719 442.640625 356.527344 451.1875 "/>
</g>
<g clip-path="url(#clip4)" clip-rule="nonzero">
<path style=" stroke:none;fill-rule:nonzero;fill:rgb(79.60968%,42.349243%,90.19928%);fill-opacity:1;" d="M 166.738281 383.683594 C 155.480469 386.351562 144.226562 389.019531 132.96875 391.699219 C 135.6875 393.234375 138.414062 394.78125 141.132812 396.328125 C 139.777344 390.613281 138.429688 384.902344 137.070312 379.175781 C 133.320312 363.359375 135.65625 349.171875 143.484375 334.996094 C 147.867188 327.054688 153.140625 319.570312 158.109375 311.980469 C 164.378906 302.433594 171.167969 292.53125 172.21875 280.8125 C 174.769531 252.265625 153.816406 227.695312 124.671875 229.117188 C 111.402344 229.761719 97.964844 235.34375 89.191406 245.449219 C 79.542969 256.558594 76.160156 272.015625 77.695312 286.371094 C 79.90625 284.152344 82.121094 281.945312 84.335938 279.726562 C 72.527344 281.128906 60.71875 282.535156 48.90625 283.949219 C 51.121094 286.15625 53.335938 288.375 55.546875 290.582031 C 54.179688 273.976562 57.125 258.140625 65.796875 243.789062 C 74.160156 229.9375 88.132812 220.320312 103.144531 214.902344 C 132.925781 204.15625 169.441406 209.3125 186.503906 238.390625 C 193.871094 250.933594 197.046875 267.390625 194.769531 281.742188 C 192.183594 298.113281 181.097656 311.425781 171.6875 324.457031 C 162.582031 337.050781 155.488281 349.421875 156.777344 365.496094 C 157.492188 374.40625 160.046875 383.175781 162.101562 391.851562 C 164.070312 400.1875 176.882812 396.65625 174.910156 388.324219 C 172.703125 379.023438 169.878906 369.652344 169.832031 360.019531 C 169.75 343.921875 184.660156 329.472656 193.1875 317.046875 C 202.558594 303.378906 208.710938 288.917969 208.769531 272.113281 C 208.816406 256.578125 203.742188 240.011719 195.121094 227.128906 C 175.785156 198.253906 139.191406 191.878906 107.359375 199.757812 C 74.480469 207.894531 48.992188 233.4375 43.105469 267.023438 C 41.742188 274.816406 41.617188 282.710938 42.265625 290.582031 C 42.539062 293.851562 45.101562 297.675781 48.90625 297.226562 C 60.71875 295.8125 72.53125 294.40625 84.335938 293.003906 C 87.613281 292.613281 91.398438 290.265625 90.976562 286.371094 C 89.613281 273.597656 92.300781 260.601562 101.820312 251.433594 C 110.449219 243.113281 125.140625 240.628906 136.410156 243.390625 C 148.25 246.300781 155.117188 256.023438 157.988281 267.261719 C 161.402344 280.679688 155.910156 291.148438 148.710938 302.125 C 139.015625 316.914062 128.023438 331.550781 123.484375 348.902344 C 119.015625 365.980469 124.394531 383.261719 128.328125 399.855469 C 129.183594 403.46875 133.074219 405.308594 136.496094 404.492188 C 147.753906 401.828125 159.011719 399.160156 170.269531 396.492188 C 178.605469 394.519531 175.0625 381.714844 166.738281 383.683594 "/>
</g>
<path style=" stroke:none;fill-rule:nonzero;fill:rgb(79.60968%,42.349243%,90.19928%);fill-opacity:1;" d="M 183.089844 440.375 C 187.554688 462.882812 153.8125 470.4375 147.835938 448.613281 C 145.34375 439.5 151.480469 430.625 159.949219 427.816406 C 170.28125 424.394531 180.304688 430.117188 183.089844 440.375 C 185.335938 448.625 198.144531 445.121094 195.902344 436.847656 C 191.238281 419.707031 175.132812 411.128906 158.121094 414.5625 C 140.839844 418.054688 131.757812 435.75 135.027344 452.140625 C 138.441406 469.210938 157.027344 477.578125 172.808594 474.425781 C 189.925781 470.992188 199.113281 453.050781 195.902344 436.847656 C 194.238281 428.453125 181.425781 432.019531 183.089844 440.375 "/>
<g clip-path="url(#clip5)" clip-rule="nonzero">
<path style=" stroke:none;fill-rule:nonzero;fill:rgb(79.60968%,42.349243%,90.19928%);fill-opacity:1;" d="M 535.261719 390.921875 C 523.925781 388.59375 512.59375 386.28125 501.257812 383.96875 C 502.804688 386.683594 504.351562 389.410156 505.898438 392.136719 C 507.078125 386.339844 508.257812 380.558594 509.453125 374.773438 C 512.710938 358.851562 520.433594 346.707031 533.558594 337.097656 C 549.851562 325.179688 572.390625 317.246094 583.136719 299.386719 C 590.183594 287.679688 591.882812 271.546875 587.433594 258.695312 C 583.085938 246.164062 572.816406 237.558594 560.890625 232.628906 C 547.941406 227.285156 532.992188 227.671875 520.457031 233.703125 C 507.5625 239.910156 498.875 252.898438 494.421875 266.046875 C 497.148438 264.5 499.867188 262.964844 502.59375 261.40625 C 491.28125 257.71875 479.984375 254.023438 468.683594 250.332031 C 470.21875 253.050781 471.765625 255.773438 473.324219 258.496094 C 478.554688 244.195312 487.410156 231.667969 499.867188 222.769531 C 513.417969 213.097656 529.839844 209.832031 546.242188 210.757812 C 577.242188 212.511719 609.640625 232.429688 613.558594 265.335938 C 615.34375 280.375 611.386719 296.648438 603.382812 309.398438 C 594.527344 323.5 578.484375 330.984375 564.457031 338.847656 C 550.761719 346.519531 539.546875 354.519531 533.429688 369.484375 C 530.089844 377.699219 528.863281 386.894531 527.089844 395.558594 C 525.378906 403.914062 538.1875 407.46875 539.902344 399.089844 C 541.800781 389.777344 543.101562 379.847656 547.066406 371.164062 C 553.902344 356.242188 572.957031 349.574219 586.203125 341.726562 C 600.371094 333.332031 612.296875 322.957031 619.402344 307.816406 C 626.335938 293.015625 628.53125 275.863281 626.085938 259.796875 C 621.007812 226.242188 589.933594 205.101562 558.707031 199.0625 C 524.835938 192.515625 491.613281 204.828125 471.507812 232.996094 C 466.726562 239.679688 463.324219 247.277344 460.515625 254.96875 C 459.226562 258.480469 461.933594 262.078125 465.15625 263.128906 C 476.453125 266.824219 487.753906 270.519531 499.0625 274.210938 C 502.652344 275.394531 506.109375 272.878906 507.234375 269.574219 C 511.035156 258.316406 518.910156 247.996094 530.382812 243.8125 C 541.519531 239.75 554.929688 242.976562 564.492188 249.410156 C 574.882812 256.382812 577.988281 269.113281 575.828125 280.8125 C 573.277344 294.574219 564.398438 301.867188 553.015625 308.925781 C 538.128906 318.167969 521.882812 326.757812 510.539062 340.402344 C 499.121094 354.152344 496.546875 371.695312 493.089844 388.605469 C 492.402344 391.960938 494.007812 396.007812 497.726562 396.773438 C 509.0625 399.089844 520.398438 401.402344 531.730469 403.726562 C 540.089844 405.4375 543.65625 392.632812 535.261719 390.921875 "/>
</g>
<path style=" stroke:none;fill-rule:nonzero;fill:rgb(79.60968%,42.349243%,90.19928%);fill-opacity:1;" d="M 525.699219 448.402344 C 523.382812 458.066406 514.765625 464.394531 504.753906 462.671875 C 495.34375 461.054688 488.390625 451.917969 489.960938 442.382812 C 493.691406 419.847656 529.5 425.738281 525.699219 448.402344 C 524.304688 456.769531 537.101562 460.355469 538.507812 451.929688 C 541.398438 434.6875 531.625 419.304688 514.445312 415.292969 C 497.539062 411.351562 481.117188 422.246094 477.160156 438.839844 C 473.171875 455.53125 485.203125 471.699219 501.222656 475.476562 C 517.953125 479.417969 534.5625 468.347656 538.507812 451.929688 C 540.515625 443.609375 527.703125 440.066406 525.699219 448.402344 "/>
</g>
</svg>
