<?xml version="1.0" encoding="UTF-8"?>
<svg xmlns="http://www.w3.org/2000/svg" xmlns:xlink="http://www.w3.org/1999/xlink" width="705pt" height="591.000005pt" viewBox="0 0 705 591.000005" version="1.2">
<defs>
<clipPath id="clip1">
  <path d="M 0.59375 0 L 678.949219 0 L 678.949219 542.832031 L 0.59375 542.832031 Z M 0.59375 0 "/>
</clipPath>
</defs>
<g id="surface1">
<g clip-path="url(#clip1)" clip-rule="nonzero">
<path style=" stroke:none;fill-rule:nonzero;fill:rgb(100%,100%,100%);fill-opacity:1;" d="M 543.277344 0 C 542.167969 0 541.058594 0.0273438 539.949219 0.0820312 C 538.839844 0.136719 537.734375 0.21875 536.628906 0.328125 C 535.523438 0.4375 534.421875 0.570312 533.324219 0.734375 C 532.226562 0.898438 531.132812 1.085938 530.042969 1.304688 C 528.953125 1.519531 527.871094 1.765625 526.792969 2.035156 C 525.71875 2.304688 524.648438 2.597656 523.585938 2.921875 C 522.523438 3.246094 521.46875 3.59375 520.425781 3.964844 C 519.378906 4.339844 518.34375 4.738281 517.316406 5.164062 C 516.292969 5.589844 515.277344 6.039062 514.273438 6.515625 C 513.269531 6.988281 512.277344 7.488281 511.300781 8.011719 C 510.320312 8.535156 509.355469 9.082031 508.402344 9.652344 C 507.449219 10.222656 506.511719 10.820312 505.589844 11.433594 C 504.667969 12.050781 503.757812 12.691406 502.867188 13.351562 C 501.976562 14.015625 501.101562 14.699219 500.242188 15.402344 C 499.386719 16.105469 498.542969 16.832031 497.722656 17.578125 C 496.898438 18.324219 496.09375 19.089844 495.308594 19.875 C 494.527344 20.660156 493.761719 21.464844 493.015625 22.285156 C 492.269531 23.109375 491.542969 23.949219 490.839844 24.808594 C 490.136719 25.667969 489.453125 26.542969 488.792969 27.433594 C 488.128906 28.324219 487.492188 29.234375 486.875 30.15625 C 486.257812 31.078125 485.664062 32.015625 485.09375 32.96875 C 484.523438 33.921875 483.976562 34.886719 483.453125 35.867188 C 482.929688 36.847656 482.429688 37.839844 481.953125 38.84375 C 481.480469 39.847656 481.03125 40.863281 480.605469 41.886719 C 480.179688 42.914062 479.78125 43.949219 479.40625 44.996094 C 479.035156 46.039062 478.683594 47.09375 478.363281 48.15625 C 478.039062 49.21875 477.746094 50.289062 477.476562 51.367188 C 477.207031 52.445312 476.960938 53.527344 476.746094 54.617188 C 476.527344 55.707031 476.339844 56.800781 476.175781 57.898438 C 476.011719 58.996094 475.878906 60.097656 475.769531 61.203125 C 475.660156 62.308594 475.578125 63.414062 475.523438 64.523438 C 475.46875 65.632812 475.441406 66.742188 475.441406 67.855469 C 475.441406 68.964844 475.46875 70.074219 475.523438 71.183594 C 475.578125 72.292969 475.660156 73.398438 475.769531 74.503906 C 475.878906 75.609375 476.011719 76.710938 476.175781 77.808594 C 476.339844 78.910156 476.527344 80.003906 476.746094 81.089844 C 476.960938 82.179688 477.207031 83.265625 477.476562 84.339844 C 477.746094 85.417969 478.039062 86.488281 478.363281 87.550781 C 478.683594 88.613281 479.035156 89.667969 479.40625 90.714844 C 479.78125 91.757812 480.179688 92.792969 480.605469 93.820312 C 481.03125 94.847656 481.480469 95.863281 481.953125 96.863281 C 482.429688 97.867188 482.929688 98.859375 483.453125 99.839844 C 483.976562 100.820312 484.523438 101.785156 485.09375 102.738281 C 485.664062 103.691406 486.257812 104.628906 486.875 105.550781 C 487.492188 106.476562 488.128906 107.382812 488.792969 108.273438 C 489.453125 109.167969 490.136719 110.042969 490.839844 110.898438 C 491.542969 111.757812 492.269531 112.597656 493.015625 113.421875 C 493.761719 114.246094 494.527344 115.046875 495.308594 115.832031 C 496.09375 116.617188 496.898438 117.382812 497.722656 118.128906 C 498.542969 118.875 499.382812 119.601562 500.242188 120.304688 C 501.101562 121.011719 501.976562 121.691406 502.867188 122.355469 C 503.757812 123.015625 504.667969 123.65625 505.589844 124.273438 C 506.511719 124.890625 507.449219 125.484375 508.402344 126.054688 C 509.355469 126.625 510.320312 127.171875 511.300781 127.695312 C 512.277344 128.21875 513.269531 128.71875 514.273438 129.191406 C 515.277344 129.667969 516.292969 130.117188 517.316406 130.542969 C 518.34375 130.96875 519.378906 131.367188 520.425781 131.742188 C 521.46875 132.117188 522.523438 132.464844 523.585938 132.785156 C 524.648438 133.109375 525.71875 133.40625 526.792969 133.675781 C 527.871094 133.945312 528.953125 134.1875 530.042969 134.402344 C 531.132812 134.621094 532.226562 134.808594 533.324219 134.972656 C 534.421875 135.136719 535.523438 135.273438 536.628906 135.382812 C 537.734375 135.488281 538.839844 135.570312 539.949219 135.625 C 541.058594 135.679688 542.167969 135.707031 543.277344 135.707031 C 544.386719 135.707031 545.496094 135.679688 546.605469 135.625 C 547.714844 135.570312 548.820312 135.488281 549.925781 135.382812 C 551.03125 135.273438 552.132812 135.136719 553.230469 134.972656 C 554.328125 134.808594 555.421875 134.621094 556.511719 134.402344 C 557.601562 134.1875 558.683594 133.945312 559.761719 133.675781 C 560.835938 133.40625 561.90625 133.109375 562.96875 132.785156 C 564.03125 132.464844 565.085938 132.117188 566.128906 131.742188 C 567.175781 131.367188 568.210938 130.96875 569.238281 130.542969 C 570.261719 130.117188 571.277344 129.667969 572.28125 129.191406 C 573.285156 128.71875 574.273438 128.21875 575.253906 127.695312 C 576.234375 127.171875 577.199219 126.625 578.152344 126.054688 C 579.105469 125.484375 580.042969 124.890625 580.964844 124.273438 C 581.886719 123.65625 582.792969 123.015625 583.6875 122.355469 C 584.578125 121.691406 585.453125 121.011719 586.3125 120.304688 C 587.167969 119.601562 588.011719 118.875 588.832031 118.128906 C 589.65625 117.382812 590.457031 116.617188 591.242188 115.832031 C 592.027344 115.046875 592.792969 114.246094 593.539062 113.421875 C 594.285156 112.597656 595.011719 111.757812 595.714844 110.898438 C 596.417969 110.042969 597.101562 109.167969 597.761719 108.273438 C 598.425781 107.382812 599.0625 106.476562 599.679688 105.550781 C 600.296875 104.628906 600.890625 103.691406 601.460938 102.738281 C 602.03125 101.785156 602.578125 100.820312 603.101562 99.839844 C 603.625 98.859375 604.125 97.867188 604.597656 96.863281 C 605.074219 95.863281 605.523438 94.847656 605.949219 93.820312 C 606.375 92.792969 606.773438 91.757812 607.148438 90.714844 C 607.519531 89.667969 607.871094 88.613281 608.191406 87.550781 C 608.515625 86.488281 608.808594 85.417969 609.078125 84.339844 C 609.347656 83.265625 609.59375 82.179688 609.808594 81.089844 C 610.027344 80.003906 610.214844 78.910156 610.378906 77.808594 C 610.539062 76.710938 610.675781 75.609375 610.785156 74.503906 C 610.894531 73.398438 610.976562 72.292969 611.03125 71.183594 C 611.085938 70.074219 611.113281 68.964844 611.113281 67.855469 C 611.113281 66.742188 611.085938 65.632812 611.03125 64.523438 C 610.976562 63.414062 610.894531 62.308594 610.785156 61.203125 C 610.675781 60.097656 610.539062 58.996094 610.378906 57.898438 C 610.214844 56.800781 610.027344 55.707031 609.808594 54.617188 C 609.59375 53.527344 609.347656 52.445312 609.078125 51.367188 C 608.808594 50.289062 608.511719 49.21875 608.191406 48.15625 C 607.867188 47.09375 607.519531 46.039062 607.148438 44.996094 C 606.773438 43.949219 606.375 42.914062 605.949219 41.886719 C 605.523438 40.863281 605.074219 39.847656 604.597656 38.84375 C 604.125 37.839844 603.625 36.847656 603.101562 35.867188 C 602.578125 34.886719 602.03125 33.921875 601.460938 32.96875 C 600.890625 32.015625 600.296875 31.078125 599.679688 30.15625 C 599.0625 29.234375 598.425781 28.324219 597.761719 27.433594 C 597.101562 26.542969 596.417969 25.667969 595.714844 24.808594 C 595.011719 23.949219 594.285156 23.109375 593.539062 22.285156 C 592.792969 21.464844 592.027344 20.660156 591.242188 19.875 C 590.457031 19.089844 589.65625 18.324219 588.832031 17.578125 C 588.011719 16.832031 587.167969 16.105469 586.3125 15.402344 C 585.453125 14.699219 584.578125 14.015625 583.6875 13.351562 C 582.792969 12.691406 581.886719 12.050781 580.964844 11.433594 C 580.042969 10.820312 579.105469 10.222656 578.152344 9.652344 C 577.199219 9.082031 576.234375 8.535156 575.253906 8.011719 C 574.273438 7.488281 573.285156 6.988281 572.28125 6.515625 C 571.277344 6.039062 570.261719 5.589844 569.238281 5.164062 C 568.210938 4.738281 567.175781 4.339844 566.128906 3.964844 C 565.085938 3.59375 564.03125 3.246094 562.96875 2.921875 C 561.90625 2.597656 560.835938 2.304688 559.761719 2.035156 C 558.683594 1.765625 557.601562 1.519531 556.511719 1.304688 C 555.421875 1.085938 554.328125 0.898438 553.230469 0.734375 C 552.132812 0.570312 551.03125 0.4375 549.925781 0.328125 C 548.820312 0.21875 547.714844 0.136719 546.605469 0.0820312 C 545.496094 0.0273438 544.386719 0 543.277344 0 Z M 339.773438 101.78125 C 338.660156 101.78125 337.550781 101.808594 336.441406 101.863281 C 335.335938 101.917969 334.226562 102 333.121094 102.109375 C 332.019531 102.214844 330.917969 102.351562 329.816406 102.515625 C 328.71875 102.679688 327.625 102.867188 326.539062 103.085938 C 325.449219 103.300781 324.367188 103.542969 323.289062 103.8125 C 322.210938 104.085938 321.140625 104.378906 320.078125 104.703125 C 319.019531 105.023438 317.964844 105.375 316.917969 105.746094 C 315.875 106.121094 314.835938 106.519531 313.8125 106.945312 C 312.785156 107.371094 311.773438 107.820312 310.769531 108.296875 C 309.765625 108.769531 308.773438 109.269531 307.792969 109.792969 C 306.816406 110.316406 305.847656 110.863281 304.898438 111.433594 C 303.945312 112.003906 303.007812 112.597656 302.085938 113.214844 C 301.160156 113.832031 300.253906 114.472656 299.363281 115.132812 C 298.46875 115.796875 297.59375 116.480469 296.738281 117.183594 C 295.878906 117.886719 295.039062 118.613281 294.214844 119.359375 C 293.394531 120.105469 292.589844 120.871094 291.804688 121.65625 C 291.019531 122.441406 290.253906 123.246094 289.507812 124.066406 C 288.761719 124.890625 288.039062 125.730469 287.335938 126.589844 C 286.628906 127.445312 285.945312 128.324219 285.285156 129.214844 C 284.625 130.105469 283.984375 131.015625 283.367188 131.9375 C 282.75 132.859375 282.15625 133.796875 281.585938 134.75 C 281.015625 135.703125 280.46875 136.667969 279.945312 137.648438 C 279.421875 138.628906 278.925781 139.621094 278.449219 140.625 C 277.972656 141.628906 277.523438 142.640625 277.101562 143.667969 C 276.675781 144.695312 276.277344 145.730469 275.902344 146.777344 C 275.527344 147.820312 275.179688 148.875 274.855469 149.9375 C 274.535156 151 274.238281 152.070312 273.96875 153.148438 C 273.699219 154.226562 273.457031 155.308594 273.238281 156.398438 C 273.023438 157.488281 272.832031 158.582031 272.671875 159.679688 C 272.507812 160.777344 272.371094 161.878906 272.261719 162.984375 C 272.152344 164.089844 272.074219 165.195312 272.019531 166.304688 C 271.964844 167.414062 271.9375 168.523438 271.9375 169.636719 C 271.9375 170.746094 271.964844 171.855469 272.019531 172.964844 C 272.074219 174.074219 272.152344 175.179688 272.261719 176.285156 C 272.371094 177.390625 272.507812 178.492188 272.671875 179.589844 C 272.832031 180.691406 273.023438 181.785156 273.238281 182.871094 C 273.457031 183.960938 273.699219 185.042969 273.96875 186.121094 C 274.238281 187.199219 274.535156 188.269531 274.855469 189.332031 C 275.179688 190.394531 275.527344 191.449219 275.902344 192.496094 C 276.277344 193.539062 276.675781 194.574219 277.101562 195.601562 C 277.523438 196.628906 277.972656 197.640625 278.449219 198.644531 C 278.925781 199.648438 279.421875 200.640625 279.945312 201.621094 C 280.46875 202.601562 281.015625 203.566406 281.585938 204.519531 C 282.15625 205.472656 282.75 206.410156 283.367188 207.332031 C 283.984375 208.253906 284.625 209.164062 285.285156 210.054688 C 285.945312 210.949219 286.628906 211.824219 287.335938 212.679688 C 288.039062 213.539062 288.761719 214.378906 289.507812 215.203125 C 290.253906 216.027344 291.019531 216.828125 291.804688 217.613281 C 292.589844 218.398438 293.394531 219.164062 294.214844 219.910156 C 295.039062 220.65625 295.878906 221.382812 296.738281 222.085938 C 297.59375 222.792969 298.46875 223.472656 299.363281 224.136719 C 300.253906 224.796875 301.160156 225.4375 302.085938 226.054688 C 303.007812 226.671875 303.945312 227.265625 304.898438 227.835938 C 305.847656 228.40625 306.816406 228.953125 307.792969 229.476562 C 308.773438 230 309.765625 230.5 310.769531 230.972656 C 311.773438 231.449219 312.785156 231.898438 313.8125 232.324219 C 314.835938 232.75 315.875 233.148438 316.917969 233.523438 C 317.964844 233.894531 319.019531 234.246094 320.078125 234.566406 C 321.140625 234.890625 322.210938 235.183594 323.289062 235.457031 C 324.367188 235.726562 325.449219 235.96875 326.539062 236.183594 C 327.625 236.402344 328.71875 236.589844 329.816406 236.753906 C 330.917969 236.917969 332.019531 237.054688 333.121094 237.160156 C 334.226562 237.269531 335.335938 237.351562 336.441406 237.40625 C 337.550781 237.460938 338.660156 237.488281 339.773438 237.488281 C 340.882812 237.488281 341.992188 237.460938 343.101562 237.40625 C 344.207031 237.351562 345.316406 237.269531 346.421875 237.160156 C 347.523438 237.054688 348.625 236.917969 349.726562 236.753906 C 350.824219 236.589844 351.917969 236.402344 353.003906 236.183594 C 354.09375 235.96875 355.175781 235.726562 356.253906 235.457031 C 357.332031 235.183594 358.402344 234.890625 359.464844 234.566406 C 360.527344 234.246094 361.578125 233.894531 362.625 233.523438 C 363.667969 233.148438 364.707031 232.75 365.730469 232.324219 C 366.757812 231.898438 367.769531 231.449219 368.773438 230.972656 C 369.777344 230.5 370.769531 230 371.75 229.476562 C 372.726562 228.953125 373.695312 228.40625 374.644531 227.835938 C 375.597656 227.265625 376.535156 226.671875 377.457031 226.054688 C 378.382812 225.4375 379.289062 224.796875 380.179688 224.136719 C 381.074219 223.472656 381.949219 222.792969 382.804688 222.085938 C 383.664062 221.382812 384.503906 220.65625 385.328125 219.910156 C 386.148438 219.164062 386.953125 218.398438 387.738281 217.613281 C 388.523438 216.828125 389.289062 216.027344 390.035156 215.203125 C 390.78125 214.378906 391.503906 213.539062 392.207031 212.679688 C 392.914062 211.824219 393.597656 210.949219 394.257812 210.054688 C 394.917969 209.164062 395.558594 208.253906 396.175781 207.332031 C 396.792969 206.410156 397.386719 205.472656 397.957031 204.519531 C 398.527344 203.566406 399.074219 202.601562 399.597656 201.621094 C 400.121094 200.640625 400.617188 199.648438 401.09375 198.644531 C 401.570312 197.640625 402.019531 196.628906 402.441406 195.601562 C 402.867188 194.574219 403.265625 193.539062 403.640625 192.496094 C 404.015625 191.449219 404.363281 190.394531 404.6875 189.332031 C 405.007812 188.269531 405.304688 187.199219 405.574219 186.121094 C 405.84375 185.042969 406.085938 183.960938 406.304688 182.871094 C 406.519531 181.785156 406.710938 180.691406 406.871094 179.589844 C 407.035156 178.492188 407.171875 177.390625 407.28125 176.285156 C 407.390625 175.179688 407.46875 174.074219 407.523438 172.964844 C 407.578125 171.855469 407.605469 170.746094 407.605469 169.636719 C 407.605469 168.523438 407.578125 167.414062 407.523438 166.304688 C 407.46875 165.195312 407.390625 164.089844 407.28125 162.984375 C 407.171875 161.878906 407.035156 160.777344 406.871094 159.679688 C 406.710938 158.582031 406.519531 157.488281 406.304688 156.398438 C 406.085938 155.308594 405.84375 154.226562 405.574219 153.148438 C 405.304688 152.070312 405.007812 151 404.6875 149.9375 C 404.363281 148.875 404.015625 147.820312 403.640625 146.777344 C 403.265625 145.730469 402.867188 144.695312 402.441406 143.667969 C 402.019531 142.640625 401.570312 141.628906 401.09375 140.625 C 400.617188 139.621094 400.121094 138.628906 399.597656 137.648438 C 399.074219 136.667969 398.527344 135.703125 397.957031 134.75 C 397.386719 133.796875 396.792969 132.859375 396.175781 131.9375 C 395.558594 131.015625 394.917969 130.105469 394.257812 129.214844 C 393.597656 128.324219 392.914062 127.445312 392.207031 126.589844 C 391.503906 125.730469 390.78125 124.890625 390.035156 124.066406 C 389.289062 123.242188 388.523438 122.441406 387.738281 121.65625 C 386.953125 120.871094 386.148438 120.105469 385.328125 119.359375 C 384.503906 118.613281 383.664062 117.886719 382.804688 117.183594 C 381.949219 116.480469 381.074219 115.796875 380.179688 115.132812 C 379.289062 114.472656 378.382812 113.832031 377.457031 113.214844 C 376.535156 112.597656 375.597656 112.003906 374.644531 111.433594 C 373.695312 110.863281 372.726562 110.316406 371.75 109.792969 C 370.769531 109.269531 369.777344 108.769531 368.773438 108.296875 C 367.769531 107.820312 366.757812 107.371094 365.730469 106.945312 C 364.707031 106.519531 363.667969 106.121094 362.625 105.746094 C 361.578125 105.375 360.523438 105.023438 359.464844 104.703125 C 358.402344 104.378906 357.332031 104.085938 356.253906 103.8125 C 355.175781 103.542969 354.09375 103.300781 353.003906 103.085938 C 351.917969 102.867188 350.824219 102.679688 349.726562 102.515625 C 348.625 102.351562 347.523438 102.214844 346.421875 102.109375 C 345.316406 102 344.207031 101.917969 343.101562 101.863281 C 341.992188 101.808594 340.882812 101.78125 339.773438 101.78125 Z M 136.265625 203.5625 C 135.15625 203.5625 134.046875 203.589844 132.9375 203.644531 C 131.828125 203.699219 130.722656 203.78125 129.617188 203.886719 C 128.511719 203.996094 127.410156 204.132812 126.3125 204.296875 C 125.214844 204.460938 124.121094 204.648438 123.03125 204.867188 C 121.941406 205.082031 120.859375 205.324219 119.785156 205.59375 C 118.707031 205.863281 117.636719 206.160156 116.574219 206.484375 C 115.511719 206.804688 114.457031 207.152344 113.414062 207.527344 C 112.367188 207.902344 111.332031 208.300781 110.304688 208.726562 C 109.28125 209.152344 108.265625 209.601562 107.261719 210.078125 C 106.257812 210.550781 105.269531 211.050781 104.289062 211.574219 C 103.308594 212.097656 102.34375 212.644531 101.390625 213.214844 C 100.4375 213.785156 99.5 214.378906 98.578125 214.996094 C 97.65625 215.613281 96.75 216.253906 95.855469 216.914062 C 94.964844 217.578125 94.089844 218.257812 93.230469 218.964844 C 92.375 219.667969 91.53125 220.394531 90.710938 221.140625 C 89.886719 221.886719 89.085938 222.652344 88.300781 223.4375 C 87.515625 224.222656 86.75 225.023438 86.003906 225.847656 C 85.257812 226.671875 84.53125 227.511719 83.828125 228.371094 C 83.125 229.226562 82.441406 230.101562 81.78125 230.996094 C 81.117188 231.886719 80.480469 232.792969 79.863281 233.71875 C 79.246094 234.640625 78.652344 235.578125 78.082031 236.53125 C 77.511719 237.484375 76.964844 238.449219 76.441406 239.429688 C 75.917969 240.410156 75.417969 241.402344 74.945312 242.40625 C 74.46875 243.410156 74.019531 244.421875 73.59375 245.449219 C 73.167969 246.476562 72.769531 247.511719 72.394531 248.554688 C 72.023438 249.601562 71.675781 250.65625 71.351562 251.71875 C 71.03125 252.78125 70.734375 253.851562 70.464844 254.929688 C 70.195312 256.003906 69.949219 257.089844 69.734375 258.179688 C 69.515625 259.265625 69.328125 260.359375 69.164062 261.460938 C 69.003906 262.558594 68.867188 263.660156 68.757812 264.765625 C 68.648438 265.871094 68.566406 266.976562 68.511719 268.085938 C 68.457031 269.195312 68.429688 270.304688 68.429688 271.414062 C 68.429688 272.527344 68.457031 273.636719 68.511719 274.746094 C 68.566406 275.855469 68.648438 276.960938 68.757812 278.066406 C 68.867188 279.171875 69.003906 280.273438 69.164062 281.371094 C 69.328125 282.46875 69.515625 283.5625 69.734375 284.652344 C 69.949219 285.742188 70.195312 286.824219 70.464844 287.902344 C 70.734375 288.980469 71.03125 290.050781 71.351562 291.113281 C 71.675781 292.175781 72.023438 293.230469 72.394531 294.273438 C 72.769531 295.320312 73.167969 296.355469 73.59375 297.382812 C 74.019531 298.410156 74.46875 299.421875 74.945312 300.425781 C 75.417969 301.429688 75.917969 302.421875 76.441406 303.402344 C 76.964844 304.382812 77.511719 305.347656 78.082031 306.300781 C 78.652344 307.253906 79.246094 308.191406 79.863281 309.113281 C 80.480469 310.035156 81.117188 310.945312 81.78125 311.835938 C 82.441406 312.726562 83.125 313.601562 83.828125 314.460938 C 84.53125 315.320312 85.257812 316.160156 86.003906 316.984375 C 86.75 317.804688 87.515625 318.609375 88.300781 319.394531 C 89.085938 320.179688 89.886719 320.945312 90.710938 321.691406 C 91.53125 322.4375 92.375 323.164062 93.230469 323.867188 C 94.089844 324.570312 94.964844 325.253906 95.855469 325.917969 C 96.75 326.578125 97.65625 327.21875 98.578125 327.835938 C 99.5 328.449219 100.4375 329.046875 101.390625 329.617188 C 102.34375 330.1875 103.308594 330.734375 104.289062 331.257812 C 105.269531 331.78125 106.257812 332.28125 107.261719 332.753906 C 108.265625 333.230469 109.28125 333.679688 110.304688 334.105469 C 111.332031 334.53125 112.367188 334.929688 113.414062 335.304688 C 114.457031 335.675781 115.511719 336.027344 116.574219 336.347656 C 117.636719 336.671875 118.707031 336.964844 119.785156 337.234375 C 120.859375 337.507812 121.941406 337.75 123.03125 337.964844 C 124.121094 338.183594 125.214844 338.371094 126.3125 338.535156 C 127.410156 338.699219 128.511719 338.835938 129.617188 338.941406 C 130.722656 339.050781 131.828125 339.132812 132.9375 339.1875 C 134.046875 339.242188 135.15625 339.269531 136.265625 339.269531 C 137.375 339.269531 138.484375 339.242188 139.59375 339.1875 C 140.703125 339.132812 141.808594 339.050781 142.914062 338.941406 C 144.019531 338.835938 145.121094 338.699219 146.21875 338.535156 C 147.316406 338.371094 148.410156 338.183594 149.5 337.964844 C 150.589844 337.75 151.671875 337.507812 152.75 337.234375 C 153.824219 336.964844 154.894531 336.671875 155.957031 336.347656 C 157.019531 336.027344 158.074219 335.675781 159.117188 335.304688 C 160.164062 334.929688 161.199219 334.53125 162.226562 334.105469 C 163.25 333.679688 164.265625 333.230469 165.269531 332.753906 C 166.273438 332.28125 167.265625 331.78125 168.242188 331.257812 C 169.222656 330.734375 170.1875 330.1875 171.140625 329.617188 C 172.09375 329.046875 173.03125 328.449219 173.953125 327.835938 C 174.875 327.21875 175.785156 326.578125 176.675781 325.917969 C 177.566406 325.253906 178.441406 324.570312 179.300781 323.867188 C 180.160156 323.164062 181 322.4375 181.820312 321.691406 C 182.644531 320.945312 183.449219 320.179688 184.234375 319.394531 C 185.019531 318.609375 185.78125 317.804688 186.527344 316.984375 C 187.273438 316.160156 188 315.320312 188.703125 314.460938 C 189.40625 313.601562 190.089844 312.726562 190.75 311.835938 C 191.414062 310.945312 192.050781 310.035156 192.667969 309.113281 C 193.285156 308.191406 193.878906 307.253906 194.449219 306.300781 C 195.019531 305.347656 195.566406 304.382812 196.089844 303.402344 C 196.613281 302.421875 197.113281 301.429688 197.589844 300.425781 C 198.0625 299.421875 198.511719 298.410156 198.9375 297.382812 C 199.363281 296.355469 199.761719 295.320312 200.136719 294.273438 C 200.507812 293.230469 200.859375 292.175781 201.179688 291.113281 C 201.503906 290.050781 201.796875 288.980469 202.066406 287.902344 C 202.335938 286.824219 202.582031 285.742188 202.796875 284.652344 C 203.015625 283.5625 203.203125 282.46875 203.367188 281.371094 C 203.53125 280.273438 203.664062 279.171875 203.773438 278.066406 C 203.882812 276.960938 203.964844 275.855469 204.019531 274.746094 C 204.074219 273.636719 204.101562 272.527344 204.101562 271.414062 C 204.101562 270.304688 204.074219 269.195312 204.019531 268.085938 C 203.964844 266.976562 203.882812 265.871094 203.773438 264.765625 C 203.664062 263.660156 203.53125 262.558594 203.367188 261.460938 C 203.203125 260.359375 203.015625 259.265625 202.796875 258.179688 C 202.582031 257.089844 202.335938 256.003906 202.066406 254.929688 C 201.796875 253.851562 201.503906 252.78125 201.179688 251.71875 C 200.859375 250.65625 200.507812 249.601562 200.136719 248.554688 C 199.761719 247.511719 199.363281 246.476562 198.9375 245.449219 C 198.511719 244.421875 198.0625 243.410156 197.589844 242.40625 C 197.113281 241.402344 196.613281 240.410156 196.089844 239.429688 C 195.566406 238.449219 195.019531 237.484375 194.449219 236.53125 C 193.878906 235.578125 193.285156 234.640625 192.667969 233.71875 C 192.050781 232.792969 191.414062 231.886719 190.75 230.996094 C 190.089844 230.101562 189.40625 229.226562 188.703125 228.371094 C 188 227.511719 187.273438 226.671875 186.527344 225.847656 C 185.78125 225.023438 185.019531 224.222656 184.234375 223.4375 C 183.449219 222.652344 182.644531 221.886719 181.820312 221.140625 C 181 220.394531 180.160156 219.667969 179.300781 218.964844 C 178.441406 218.257812 177.566406 217.578125 176.675781 216.914062 C 175.785156 216.253906 174.875 215.613281 173.953125 214.996094 C 173.03125 214.378906 172.09375 213.785156 171.140625 213.214844 C 170.1875 212.644531 169.222656 212.097656 168.242188 211.574219 C 167.265625 211.050781 166.273438 210.550781 165.269531 210.078125 C 164.265625 209.601562 163.25 209.152344 162.226562 208.726562 C 161.199219 208.300781 160.164062 207.902344 159.117188 207.527344 C 158.074219 207.152344 157.019531 206.804688 155.957031 206.484375 C 154.894531 206.160156 153.824219 205.863281 152.75 205.59375 C 151.671875 205.324219 150.589844 205.082031 149.5 204.867188 C 148.410156 204.648438 147.316406 204.460938 146.21875 204.296875 C 145.121094 204.132812 144.019531 203.996094 142.914062 203.886719 C 141.808594 203.78125 140.703125 203.699219 139.59375 203.644531 C 138.484375 203.589844 137.375 203.5625 136.265625 203.5625 Z M 543.277344 203.5625 C 506.816406 203.5625 441.164062 219.464844 416.949219 249.21875 C 467.078125 263.363281 519.414062 291.433594 537.050781 339.269531 L 678.949219 339.269531 L 678.949219 273.136719 C 678.949219 228.015625 588.558594 203.5625 543.277344 203.5625 Z M 339.773438 305.34375 C 303.308594 305.34375 237.660156 321.246094 213.441406 351 C 263.570312 365.144531 315.90625 393.214844 333.542969 441.050781 L 475.441406 441.050781 L 475.441406 374.917969 C 475.441406 329.796875 385.050781 305.34375 339.773438 305.34375 Z M 136.265625 407.125 C 90.984375 407.125 0.59375 431.578125 0.59375 476.699219 L 0.59375 542.832031 L 271.9375 542.832031 L 271.9375 476.699219 C 271.9375 431.578125 181.546875 407.125 136.265625 407.125 Z M 136.265625 407.125 "/>
</g>
</g>
</svg>
