<?xml version="1.0" encoding="UTF-8"?>
<svg xmlns="http://www.w3.org/2000/svg" xmlns:xlink="http://www.w3.org/1999/xlink" width="705pt" height="591.000005pt" viewBox="0 0 705 591.000005" version="1.2">
<defs>
<clipPath id="clip1">
  <path d="M 254 97.382812 L 487 97.382812 L 487 382 L 254 382 Z M 254 97.382812 "/>
</clipPath>
<clipPath id="clip2">
  <path d="M 328 405 L 414 405 L 414 488.21875 L 328 488.21875 Z M 328 405 "/>
</clipPath>
<clipPath id="clip3">
  <path d="M 41.714844 158 L 231 158 L 231 395 L 41.714844 395 Z M 41.714844 158 "/>
</clipPath>
<clipPath id="clip4">
  <path d="M 515 159 L 704.34375 159 L 704.34375 394 L 515 394 Z M 515 159 "/>
</clipPath>
</defs>
<g id="surface1">
<path style=" stroke:none;fill-rule:nonzero;fill:rgb(79.60968%,42.349243%,90.19928%);fill-opacity:1;" d="M 463.941406 163.144531 C 465.730469 167.074219 467.066406 171.1875 468.175781 175.351562 C 470.675781 184.707031 485.171875 180.734375 482.671875 171.351562 C 481.214844 165.914062 479.253906 160.679688 476.914062 155.558594 C 475.21875 151.828125 469.898438 150.949219 466.640625 152.863281 C 462.832031 155.085938 462.242188 159.417969 463.941406 163.144531 "/>
<g clip-path="url(#clip1)" clip-rule="nonzero">
<path style=" stroke:none;fill-rule:nonzero;fill:rgb(79.60968%,42.349243%,90.19928%);fill-opacity:1;" d="M 471.15625 200.320312 C 470.980469 220.464844 465.984375 239.207031 453.265625 255.152344 C 440.773438 270.816406 423.683594 282.683594 409.105469 296.261719 C 394.824219 309.5625 387.367188 324.730469 385.5625 344.121094 C 384.640625 354 385.109375 364.089844 385.109375 374.003906 L 392.617188 366.496094 L 344.183594 366.496094 C 346.695312 368.992188 349.195312 371.507812 351.707031 374.003906 L 351.707031 350.054688 C 351.707031 332.386719 355.542969 316.390625 365.480469 301.621094 C 378.898438 281.707031 399.726562 267.847656 415.8125 250.339844 C 428.238281 236.804688 434.398438 221.792969 434.667969 203.417969 C 434.894531 186.582031 428.867188 170.4375 416.75 158.671875 C 392.726562 135.347656 349.636719 136.3125 325.8125 159.074219 C 312.867188 171.453125 306.34375 188.550781 304.222656 205.992188 C 306.71875 203.484375 309.230469 200.980469 311.730469 198.472656 C 295.242188 196.585938 278.753906 194.691406 262.265625 192.804688 C 264.683594 195.976562 267.105469 199.148438 269.507812 202.320312 C 275.335938 163.113281 299.316406 130.445312 337.625 117.9375 C 376.597656 105.207031 425.328125 113.289062 452.8125 145.160156 C 459.15625 152.511719 469.738281 141.832031 463.445312 134.53125 C 432.222656 98.335938 377.789062 89.996094 333.628906 103.4375 C 290.59375 116.535156 261.519531 154.542969 255.023438 198.320312 C 254.25 203.527344 257.015625 207.238281 262.265625 207.839844 C 278.753906 209.730469 295.242188 211.621094 311.730469 213.507812 C 316.152344 214.015625 318.796875 209.675781 319.253906 205.992188 C 321.269531 189.351562 329.582031 173.011719 343.917969 163.773438 C 357.8125 154.828125 378.308594 154.558594 393.273438 160.921875 C 409.066406 167.644531 418.21875 182.183594 419.5 199 C 420.140625 207.449219 419.300781 216.535156 415.878906 224.363281 C 412.21875 232.726562 405.445312 239.851562 398.953125 246.066406 C 381.835938 262.449219 362.917969 277.671875 350.023438 297.8125 C 335.324219 320.785156 336.675781 347.582031 336.675781 373.644531 L 336.675781 374.003906 C 336.675781 378.109375 340.097656 381.53125 344.183594 381.53125 L 392.617188 381.53125 C 396.71875 381.53125 400.140625 378.109375 400.140625 374.003906 C 400.140625 364.0625 399.859375 354.050781 400.59375 344.121094 C 401.261719 334.875 404.015625 326.308594 409.09375 318.542969 C 414.210938 310.75 422.1875 304.507812 429.121094 298.414062 C 444.328125 285.0625 460.265625 272.488281 471.503906 255.394531 C 482.230469 239.089844 486.027344 219.554688 486.1875 200.320312 C 486.265625 190.621094 471.234375 190.632812 471.15625 200.320312 "/>
</g>
<g clip-path="url(#clip2)" clip-rule="nonzero">
<path style=" stroke:none;fill-rule:nonzero;fill:rgb(79.60968%,42.349243%,90.19928%);fill-opacity:1;" d="M 397.988281 446.667969 C 397.5625 461.746094 385.832031 472.796875 370.988281 473.171875 C 356.476562 473.53125 344.398438 461.464844 343.984375 447.191406 C 343.53125 431.902344 356.53125 421.050781 370.988281 420.6875 C 385.953125 420.328125 397.589844 431.929688 397.988281 446.667969 C 398.257812 456.34375 413.289062 456.371094 413.019531 446.667969 C 412.378906 423.109375 394.25 406.214844 370.988281 405.652344 C 347.605469 405.105469 329.566406 424.484375 328.953125 447.191406 C 328.324219 470.285156 349.140625 487.660156 370.988281 488.207031 C 394.128906 488.796875 412.378906 469.148438 413.019531 446.667969 C 413.300781 436.96875 398.257812 436.992188 397.988281 446.667969 "/>
</g>
<g clip-path="url(#clip3)" clip-rule="nonzero">
<path style=" stroke:none;fill-rule:nonzero;fill:rgb(79.60968%,42.349243%,90.19928%);fill-opacity:1;" d="M 183.207031 370.238281 C 170.46875 373.257812 157.730469 376.277344 144.988281 379.3125 C 148.066406 381.046875 151.152344 382.800781 154.230469 384.550781 C 152.699219 378.082031 151.167969 371.613281 149.632812 365.132812 C 145.390625 347.222656 148.03125 331.15625 156.890625 315.105469 C 161.851562 306.113281 167.816406 297.640625 173.441406 289.046875 C 180.535156 278.234375 188.21875 267.019531 189.410156 253.75 C 192.292969 221.429688 168.585938 193.609375 135.597656 195.214844 C 120.582031 195.945312 105.375 202.269531 95.449219 213.707031 C 84.53125 226.289062 80.699219 243.792969 82.4375 260.042969 C 84.941406 257.53125 87.445312 255.03125 89.953125 252.519531 C 76.589844 254.109375 63.222656 255.699219 49.859375 257.304688 C 52.363281 259.804688 54.867188 262.316406 57.375 264.816406 C 55.824219 246.011719 59.160156 228.078125 68.972656 211.828125 C 78.4375 196.144531 94.246094 185.253906 111.238281 179.121094 C 144.941406 166.953125 186.269531 172.789062 205.574219 205.714844 C 213.914062 219.921875 217.507812 238.554688 214.929688 254.804688 C 212.003906 273.34375 199.457031 288.417969 188.808594 303.171875 C 178.503906 317.433594 170.472656 331.4375 171.933594 349.640625 C 172.746094 359.730469 175.632812 369.660156 177.957031 379.484375 C 180.1875 388.921875 194.6875 384.925781 192.453125 375.488281 C 189.957031 364.957031 186.761719 354.347656 186.710938 343.441406 C 186.617188 325.210938 203.492188 308.851562 213.136719 294.78125 C 223.746094 279.304688 230.707031 262.929688 230.773438 243.898438 C 230.828125 226.308594 225.082031 207.554688 215.328125 192.964844 C 193.445312 160.269531 152.035156 153.050781 116.007812 161.972656 C 78.796875 171.1875 49.953125 200.109375 43.292969 238.140625 C 41.746094 246.960938 41.605469 255.902344 42.34375 264.816406 C 42.652344 268.515625 45.550781 272.847656 49.859375 272.339844 C 63.226562 270.734375 76.589844 269.144531 89.953125 267.554688 C 93.664062 267.113281 97.945312 264.453125 97.46875 260.042969 C 95.921875 245.582031 98.964844 230.867188 109.738281 220.484375 C 119.503906 211.066406 136.132812 208.25 148.882812 211.378906 C 162.285156 214.671875 170.054688 225.683594 173.304688 238.40625 C 177.171875 253.601562 170.953125 265.457031 162.808594 277.886719 C 151.832031 294.632812 139.394531 311.203125 134.257812 330.851562 C 129.199219 350.191406 135.285156 369.753906 139.738281 388.546875 C 140.707031 392.636719 145.109375 394.722656 148.980469 393.796875 C 161.722656 390.777344 174.460938 387.757812 187.203125 384.738281 C 196.636719 382.503906 192.628906 368.003906 183.210938 370.238281 "/>
</g>
<path style=" stroke:none;fill-rule:nonzero;fill:rgb(79.60968%,42.349243%,90.19928%);fill-opacity:1;" d="M 201.714844 434.425781 C 206.765625 459.914062 168.578125 468.46875 161.816406 443.757812 C 158.996094 433.4375 165.9375 423.386719 175.527344 420.207031 C 187.21875 416.332031 198.5625 422.8125 201.714844 434.425781 C 204.253906 443.769531 218.75 439.800781 216.210938 430.429688 C 210.933594 411.027344 192.707031 401.308594 173.453125 405.199219 C 153.898438 409.15625 143.621094 429.1875 147.320312 447.753906 C 151.183594 467.078125 172.214844 476.554688 190.078125 472.984375 C 209.449219 469.09375 219.84375 448.78125 216.210938 430.429688 C 214.328125 420.929688 199.832031 424.964844 201.714844 434.425781 "/>
<g clip-path="url(#clip4)" clip-rule="nonzero">
<path style=" stroke:none;fill-rule:nonzero;fill:rgb(79.60968%,42.349243%,90.19928%);fill-opacity:1;" d="M 600.265625 378.429688 C 587.4375 375.796875 574.609375 373.175781 561.785156 370.558594 C 563.535156 373.632812 565.285156 376.71875 567.035156 379.804688 C 568.371094 373.242188 569.707031 366.695312 571.058594 360.144531 C 574.746094 342.117188 583.484375 328.363281 598.339844 317.484375 C 616.777344 303.988281 642.285156 295.007812 654.445312 274.785156 C 662.421875 261.527344 664.34375 243.257812 659.308594 228.707031 C 654.390625 214.515625 642.765625 204.773438 629.273438 199.195312 C 614.613281 193.144531 597.699219 193.578125 583.507812 200.410156 C 568.917969 207.4375 559.085938 222.144531 554.046875 237.03125 C 557.132812 235.28125 560.207031 233.542969 563.292969 231.777344 C 550.496094 227.601562 537.707031 223.417969 524.921875 219.238281 C 526.65625 222.316406 528.40625 225.402344 530.171875 228.480469 C 536.089844 212.289062 546.113281 198.101562 560.207031 188.027344 C 575.546875 177.074219 594.132812 173.378906 612.691406 174.425781 C 647.777344 176.410156 684.441406 198.964844 688.875 236.226562 C 690.894531 253.253906 686.417969 271.683594 677.359375 286.117188 C 667.335938 302.089844 649.179688 310.5625 633.308594 319.464844 C 617.808594 328.152344 605.113281 337.210938 598.195312 354.160156 C 594.414062 363.460938 593.023438 373.871094 591.019531 383.679688 C 589.082031 393.144531 603.578125 397.167969 605.515625 387.675781 C 607.667969 377.132812 609.136719 365.894531 613.625 356.058594 C 621.363281 339.164062 642.925781 331.613281 657.917969 322.726562 C 673.953125 313.222656 687.445312 301.476562 695.488281 284.328125 C 703.332031 267.570312 705.816406 248.148438 703.050781 229.953125 C 697.308594 191.957031 662.140625 168.019531 626.800781 161.183594 C 588.464844 153.769531 550.867188 167.714844 528.113281 199.605469 C 522.703125 207.175781 518.855469 215.78125 515.675781 224.488281 C 514.21875 228.464844 517.277344 232.539062 520.925781 233.730469 C 533.710938 237.914062 546.5 242.09375 559.300781 246.277344 C 563.359375 247.613281 567.277344 244.769531 568.546875 241.027344 C 572.847656 228.277344 581.757812 216.59375 594.746094 211.855469 C 607.347656 207.253906 622.523438 210.910156 633.347656 218.191406 C 645.105469 226.089844 648.617188 240.503906 646.171875 253.75 C 643.289062 269.332031 633.238281 277.59375 620.359375 285.585938 C 603.511719 296.050781 585.125 305.777344 572.285156 321.226562 C 559.367188 336.796875 556.453125 356.65625 552.539062 375.808594 C 551.761719 379.605469 553.582031 384.191406 557.789062 385.058594 C 570.617188 387.675781 583.441406 390.296875 596.269531 392.929688 C 605.730469 394.867188 609.765625 380.367188 600.265625 378.429688 "/>
</g>
<path style=" stroke:none;fill-rule:nonzero;fill:rgb(79.60968%,42.349243%,90.19928%);fill-opacity:1;" d="M 589.441406 443.515625 C 586.824219 454.460938 577.070312 461.625 565.738281 459.671875 C 555.089844 457.84375 547.21875 447.5 548.996094 436.699219 C 553.21875 411.1875 593.746094 417.855469 589.441406 443.515625 C 587.867188 452.992188 602.347656 457.054688 603.9375 447.511719 C 607.210938 427.984375 596.148438 410.570312 576.707031 406.027344 C 557.574219 401.5625 538.988281 413.898438 534.515625 432.691406 C 530 451.585938 543.613281 469.898438 561.746094 474.175781 C 580.675781 478.636719 599.476562 466.101562 603.9375 447.511719 C 606.210938 438.089844 591.714844 434.078125 589.441406 443.515625 "/>
</g>
</svg>
