<?xml version="1.0" encoding="UTF-8"?>
<svg xmlns="http://www.w3.org/2000/svg" xmlns:xlink="http://www.w3.org/1999/xlink" width="595.5pt" height="842.249979pt" viewBox="0 0 595.5 842.249979" version="1.2">
<defs>
<clipPath id="clip1">
  <path d="M 354 59.523438 L 457 59.523438 L 457 153 L 354 153 Z M 354 59.523438 "/>
</clipPath>
<clipPath id="clip2">
  <path d="M 27.570312 246 L 136 246 L 136 333 L 27.570312 333 Z M 27.570312 246 "/>
</clipPath>
<clipPath id="clip3">
  <path d="M 232 390 L 392 390 L 392 719.492188 L 232 719.492188 Z M 232 390 "/>
</clipPath>
<clipPath id="clip4">
  <path d="M 365 332 L 479.800781 332 L 479.800781 410 L 365 410 Z M 365 332 "/>
</clipPath>
</defs>
<g id="surface1">
<path style=" stroke:none;fill-rule:nonzero;fill:rgb(87.449646%,69.018555%,96.469116%);fill-opacity:1;" d="M 267.613281 477.789062 C 267.613281 477.789062 267.171875 454.300781 269.59375 419.160156 C 270.171875 410.375 270.996094 400.871094 271.964844 390.824219 C 273 380.789062 274.230469 370.210938 275.789062 359.3125 C 276.179688 356.582031 276.574219 353.835938 276.96875 351.0625 C 277.40625 348.300781 277.851562 345.519531 278.300781 342.722656 C 279.144531 337.113281 280.226562 331.476562 281.234375 325.777344 C 282.253906 320.078125 283.492188 314.375 284.621094 308.628906 C 285.910156 302.910156 287.140625 297.160156 288.527344 291.441406 C 291.320312 280.007812 294.289062 268.601562 297.769531 257.53125 C 298.628906 254.761719 299.488281 251.996094 300.335938 249.253906 C 301.285156 246.535156 302.230469 243.828125 303.167969 241.144531 C 304.96875 235.746094 307.070312 230.519531 309.097656 225.367188 C 313.3125 215.128906 317.820312 205.390625 322.613281 196.425781 C 323.738281 194.144531 325.027344 191.992188 326.269531 189.855469 C 327.511719 187.71875 328.734375 185.613281 329.933594 183.546875 C 331.105469 181.464844 332.433594 179.515625 333.714844 177.59375 C 334.996094 175.671875 336.25 173.785156 337.480469 171.933594 C 338.089844 171.011719 338.699219 170.101562 339.304688 169.195312 C 339.957031 168.328125 340.601562 167.472656 341.246094 166.625 C 342.542969 164.9375 343.8125 163.296875 345.042969 161.691406 C 346.300781 160.109375 347.421875 158.492188 348.699219 157.050781 C 349.964844 155.617188 351.199219 154.222656 352.386719 152.867188 C 354.816406 150.207031 356.890625 147.542969 359.199219 145.433594 C 361.453125 143.28125 363.515625 141.304688 365.382812 139.515625 C 367.1875 137.671875 369.046875 136.289062 370.597656 135.011719 C 372.148438 133.757812 373.476562 132.6875 374.554688 131.820312 C 376.710938 130.105469 377.859375 129.191406 377.859375 129.191406 L 378.214844 129.632812 C 378.214844 129.632812 377.164062 130.65625 375.199219 132.574219 C 374.214844 133.527344 372.996094 134.699219 371.5625 136.078125 C 370.140625 137.460938 368.429688 138.964844 366.78125 140.933594 C 363.421875 144.785156 359.128906 149.238281 354.886719 154.9375 C 353.796875 156.332031 352.664062 157.769531 351.503906 159.25 C 350.335938 160.726562 349.324219 162.390625 348.175781 164.011719 C 347.058594 165.652344 345.914062 167.339844 344.738281 169.058594 C 344.144531 169.917969 343.554688 170.789062 342.949219 171.667969 C 342.398438 172.578125 341.835938 173.5 341.261719 174.429688 C 336.632812 181.8125 331.992188 190.042969 327.480469 198.949219 C 323.074219 207.910156 318.570312 217.441406 314.5625 227.59375 C 312.507812 232.648438 310.359375 237.765625 308.507812 243.074219 C 307.539062 245.714844 306.5625 248.367188 305.582031 251.03125 C 304.671875 253.726562 303.765625 256.441406 302.855469 259.160156 C 299.160156 270.027344 295.957031 281.261719 292.925781 292.542969 C 291.449219 298.195312 290.125 303.882812 288.734375 309.539062 C 287.515625 315.230469 286.179688 320.878906 285.0625 326.523438 C 283.960938 332.171875 282.78125 337.761719 281.839844 343.324219 C 281.34375 346.101562 280.855469 348.867188 280.359375 351.605469 C 279.917969 354.355469 279.476562 357.085938 279.042969 359.792969 C 277.269531 370.625 275.914062 381.144531 274.617188 391.125 C 273.410156 401.113281 272.363281 410.574219 271.570312 419.316406 C 268.308594 454.320312 268.175781 477.789062 268.175781 477.789062 L 267.613281 477.789062 "/>
<g clip-path="url(#clip1)" clip-rule="nonzero">
<path style=" stroke:none;fill-rule:nonzero;fill:rgb(87.449646%,69.018555%,96.469116%);fill-opacity:1;" d="M 354.875 152.214844 C 354.875 152.214844 367.589844 93.769531 456.855469 59.511719 C 450.773438 123.59375 354.875 152.214844 354.875 152.214844 "/>
</g>
<path style=" stroke:none;fill-rule:nonzero;fill:rgb(87.449646%,69.018555%,96.469116%);fill-opacity:1;" d="M 321.273438 199.625 C 321.273438 199.625 285.941406 127.773438 313.496094 78.453125 C 334.992188 111.378906 332.195312 172.066406 321.273438 199.625 "/>
<path style=" stroke:none;fill-rule:nonzero;fill:rgb(87.449646%,69.018555%,96.469116%);fill-opacity:1;" d="M 306.21875 240.28125 C 306.21875 240.28125 251.785156 181.554688 264.058594 126.40625 C 294.089844 151.800781 308.792969 210.75 306.21875 240.28125 "/>
<path style=" stroke:none;fill-rule:nonzero;fill:rgb(87.449646%,69.018555%,96.469116%);fill-opacity:1;" d="M 333.429688 185.902344 C 333.429688 185.902344 391.988281 151.691406 441.6875 158.839844 C 427.386719 187.804688 351.855469 200.4375 333.429688 185.902344 "/>
<path style=" stroke:none;fill-rule:nonzero;fill:rgb(87.449646%,69.018555%,96.469116%);fill-opacity:1;" d="M 310.191406 231.582031 C 310.191406 231.582031 371.480469 202.550781 420.371094 213.953125 C 403.625 241.582031 327.289062 247.652344 310.191406 231.582031 "/>
<path style=" stroke:none;fill-rule:nonzero;fill:rgb(87.449646%,69.018555%,96.469116%);fill-opacity:1;" d="M 291.046875 295.289062 C 291.046875 295.289062 236.613281 236.5625 248.886719 181.410156 C 278.914062 206.808594 293.621094 265.753906 291.046875 295.289062 "/>
<path style=" stroke:none;fill-rule:nonzero;fill:rgb(87.449646%,69.018555%,96.469116%);fill-opacity:1;" d="M 294.960938 280.425781 C 294.960938 280.425781 355.980469 250.828125 404.976562 261.773438 C 388.488281 289.5625 312.210938 296.339844 294.960938 280.425781 "/>
<path style=" stroke:none;fill-rule:nonzero;fill:rgb(87.449646%,69.018555%,96.469116%);fill-opacity:1;" d="M 278.90625 351.027344 C 278.90625 351.027344 220.578125 296.164062 229.046875 240.304688 C 260.742188 263.585938 279.457031 321.386719 278.90625 351.027344 "/>
<path style=" stroke:none;fill-rule:nonzero;fill:rgb(87.449646%,69.018555%,96.469116%);fill-opacity:1;" d="M 284.328125 333.238281 C 284.328125 333.238281 345.15625 303.257812 394.21875 313.898438 C 377.910156 341.78125 301.675781 349.039062 284.328125 333.238281 "/>
<path style=" stroke:none;fill-rule:nonzero;fill:rgb(87.449646%,69.018555%,96.469116%);fill-opacity:1;" d="M 270.785156 410.027344 C 270.785156 410.027344 207.039062 361.554688 209.621094 305.121094 C 243.578125 324.957031 268.230469 380.492188 270.785156 410.027344 "/>
<path style=" stroke:none;fill-rule:nonzero;fill:rgb(87.449646%,69.018555%,96.469116%);fill-opacity:1;" d="M 274.308594 391.765625 C 274.308594 391.765625 331.671875 355.59375 381.582031 361.050781 C 368.273438 390.492188 293.214844 405.671875 274.308594 391.765625 "/>
<path style=" stroke:none;fill-rule:nonzero;fill:rgb(100%,19.999695%,57.249451%);fill-opacity:1;" d="M 243.828125 651.699219 C 243.828125 651.699219 242.132812 628.292969 236.535156 593.585938 C 235.164062 584.914062 233.484375 575.542969 231.609375 565.65625 C 229.648438 555.792969 227.589844 545.382812 225.101562 534.695312 C 224.484375 532.023438 223.863281 529.328125 223.238281 526.613281 C 222.566406 523.914062 221.890625 521.1875 221.210938 518.453125 C 219.898438 512.964844 218.351562 507.460938 216.871094 501.902344 C 215.382812 496.34375 213.671875 490.796875 212.070312 485.203125 C 210.308594 479.648438 208.609375 474.0625 206.753906 468.523438 C 202.972656 457.472656 199.03125 446.472656 194.617188 435.875 C 193.527344 433.222656 192.4375 430.578125 191.355469 427.949219 C 190.195312 425.355469 189.042969 422.773438 187.898438 420.203125 C 185.695312 415.03125 183.214844 410.066406 180.824219 405.164062 C 176.148438 395.300781 171.015625 386.089844 166.019531 377.445312 C 160.917969 368.859375 155.746094 360.957031 150.628906 353.898438 C 150.003906 353.011719 149.378906 352.125 148.765625 351.257812 C 148.101562 350.421875 147.449219 349.597656 146.804688 348.777344 C 145.515625 347.132812 144.261719 345.53125 143.035156 343.972656 C 141.785156 342.425781 140.660156 340.835938 139.398438 339.4375 C 138.140625 338.042969 136.917969 336.679688 135.738281 335.363281 C 131.121094 329.960938 126.539062 325.804688 122.929688 322.1875 C 121.15625 320.328125 119.347656 318.945312 117.835938 317.660156 C 116.316406 316.378906 115.023438 315.289062 113.972656 314.410156 C 111.882812 312.621094 110.765625 311.671875 110.765625 311.671875 L 111.09375 311.207031 C 111.09375 311.207031 112.300781 312.046875 114.566406 313.613281 C 115.695312 314.402344 117.09375 315.382812 118.730469 316.53125 C 120.355469 317.699219 122.300781 318.960938 124.230469 320.675781 C 126.210938 322.335938 128.40625 324.167969 130.792969 326.167969 C 133.246094 328.117188 135.488281 330.636719 138.089844 333.128906 C 139.367188 334.402344 140.691406 335.710938 142.050781 337.0625 C 143.414062 338.40625 144.644531 339.945312 146.007812 341.441406 C 147.34375 342.960938 148.714844 344.519531 150.121094 346.109375 C 150.816406 346.914062 151.523438 347.730469 152.238281 348.546875 C 152.898438 349.40625 153.566406 350.28125 154.238281 351.15625 C 155.589844 352.921875 156.96875 354.722656 158.371094 356.554688 C 159.78125 358.386719 161.238281 360.238281 162.542969 362.242188 C 163.878906 364.226562 165.238281 366.242188 166.621094 368.289062 C 168.003906 370.339844 169.433594 372.402344 170.707031 374.597656 C 176.089844 383.226562 181.238281 392.640625 186.128906 402.574219 C 188.5 407.578125 190.9375 412.65625 193.101562 417.921875 C 194.21875 420.539062 195.339844 423.175781 196.464844 425.824219 C 197.5 428.507812 198.539062 431.203125 199.582031 433.914062 C 203.796875 444.726562 207.515625 455.90625 211.070312 467.125 C 212.835938 472.746094 214.449219 478.398438 216.117188 484.015625 C 217.625 489.679688 219.242188 495.285156 220.640625 500.898438 C 222.027344 506.519531 223.480469 512.070312 224.699219 517.613281 C 225.335938 520.375 225.964844 523.121094 226.589844 525.847656 C 227.167969 528.585938 227.742188 531.300781 228.3125 533.992188 C 230.597656 544.769531 232.53125 555.242188 234.238281 565.1875 C 235.878906 575.144531 237.332031 584.570312 238.5 593.296875 C 243.265625 628.199219 244.394531 651.667969 244.394531 651.667969 L 243.828125 651.699219 "/>
<g clip-path="url(#clip2)" clip-rule="nonzero">
<path style=" stroke:none;fill-rule:nonzero;fill:rgb(100%,19.999695%,57.249451%);fill-opacity:1;" d="M 135.566406 332.648438 C 135.566406 332.648438 118.972656 275.183594 27.617188 246.960938 C 37.96875 310.5 135.566406 332.648438 135.566406 332.648438 "/>
</g>
<path style=" stroke:none;fill-rule:nonzero;fill:rgb(100%,19.999695%,57.249451%);fill-opacity:1;" d="M 172.261719 377.707031 C 172.261719 377.707031 202.714844 303.660156 171.917969 256.285156 C 152.671875 290.574219 159.515625 350.945312 172.261719 377.707031 "/>
<path style=" stroke:none;fill-rule:nonzero;fill:rgb(100%,19.999695%,57.249451%);fill-opacity:1;" d="M 189.996094 417.265625 C 189.996094 417.265625 240.386719 355.03125 224.449219 300.828125 C 196.1875 328.171875 185.453125 387.972656 189.996094 417.265625 "/>
<path style=" stroke:none;fill-rule:nonzero;fill:rgb(100%,19.999695%,57.249451%);fill-opacity:1;" d="M 159.207031 364.824219 C 159.207031 364.824219 98.492188 334.605469 49.386719 345.050781 C 65.589844 373.003906 141.800781 380.558594 159.207031 364.824219 "/>
<path style=" stroke:none;fill-rule:nonzero;fill:rgb(100%,19.999695%,57.249451%);fill-opacity:1;" d="M 185.457031 408.855469 C 185.457031 408.855469 122.359375 383.984375 74.339844 398.621094 C 92.890625 425.074219 169.46875 426.03125 185.457031 408.855469 "/>
<path style=" stroke:none;fill-rule:nonzero;fill:rgb(100%,19.999695%,57.249451%);fill-opacity:1;" d="M 208.816406 471.140625 C 208.816406 471.140625 259.203125 408.902344 243.265625 354.703125 C 215.003906 382.042969 204.269531 441.84375 208.816406 471.140625 "/>
<path style=" stroke:none;fill-rule:nonzero;fill:rgb(100%,19.999695%,57.249451%);fill-opacity:1;" d="M 203.914062 456.570312 C 203.914062 456.570312 141.054688 431.117188 92.898438 445.3125 C 111.207031 471.933594 187.769531 473.597656 203.914062 456.570312 "/>
<path style=" stroke:none;fill-rule:nonzero;fill:rgb(100%,19.999695%,57.249451%);fill-opacity:1;" d="M 224.648438 525.941406 C 224.648438 525.941406 279.183594 467.304688 266.996094 412.136719 C 236.929688 437.480469 222.121094 496.410156 224.648438 525.941406 "/>
<path style=" stroke:none;fill-rule:nonzero;fill:rgb(100%,19.999695%,57.249451%);fill-opacity:1;" d="M 218.054688 508.554688 C 218.054688 508.554688 155.355469 482.699219 107.113281 496.597656 C 125.253906 523.332031 201.804688 525.480469 218.054688 508.554688 "/>
<path style=" stroke:none;fill-rule:nonzero;fill:rgb(100%,19.999695%,57.249451%);fill-opacity:1;" d="M 236.703125 584.265625 C 236.703125 584.265625 297.0625 531.644531 290.714844 475.507812 C 258.160156 497.570312 237.273438 554.628906 236.703125 584.265625 "/>
<path style=" stroke:none;fill-rule:nonzero;fill:rgb(100%,19.999695%,57.249451%);fill-opacity:1;" d="M 231.960938 566.285156 C 231.960938 566.285156 172.308594 534.023438 122.875 542.800781 C 138.121094 571.289062 214.03125 581.417969 231.960938 566.285156 "/>
<g clip-path="url(#clip3)" clip-rule="nonzero">
<path style=" stroke:none;fill-rule:nonzero;fill:rgb(59.21936%,3.529358%,80.778503%);fill-opacity:1;" d="M 232.070312 719.390625 C 232.070312 719.390625 235.03125 696.085938 242.496094 661.660156 C 244.34375 653.050781 246.523438 643.765625 248.933594 633.964844 C 251.410156 624.183594 254.15625 613.894531 257.273438 603.328125 C 258.054688 600.691406 258.839844 598.023438 259.628906 595.34375 C 260.460938 592.671875 261.304688 589.988281 262.152344 587.277344 C 263.800781 581.851562 265.675781 576.429688 267.503906 570.933594 C 269.332031 565.445312 271.382812 559.980469 273.328125 554.457031 C 275.429688 548.984375 277.476562 543.46875 279.675781 538.011719 C 284.089844 527.101562 288.671875 516.246094 293.714844 505.792969 C 294.964844 503.171875 296.210938 500.5625 297.453125 497.964844 C 298.78125 495.417969 300.105469 492.875 301.417969 490.351562 C 303.992188 485.269531 306.816406 480.398438 309.566406 475.59375 C 315.214844 466.074219 321.085938 457.089844 327.125 448.910156 C 328.5625 446.816406 330.152344 444.871094 331.6875 442.933594 C 333.226562 441 334.738281 439.09375 336.230469 437.222656 C 337.683594 435.324219 339.28125 433.59375 340.828125 431.875 C 342.371094 430.15625 343.886719 428.472656 345.367188 426.820312 C 346.109375 425.996094 346.839844 425.179688 347.566406 424.371094 C 348.339844 423.609375 349.109375 422.855469 349.867188 422.109375 C 351.394531 420.628906 352.882812 419.1875 354.332031 417.773438 C 355.808594 416.390625 357.15625 414.949219 358.621094 413.714844 C 360.078125 412.472656 361.5 411.273438 362.878906 410.101562 C 365.664062 407.820312 368.097656 405.476562 370.691406 403.734375 C 373.230469 401.921875 375.558594 400.265625 377.664062 398.769531 C 379.714844 397.207031 381.753906 396.101562 383.46875 395.0625 C 385.191406 394.042969 386.660156 393.175781 387.847656 392.472656 C 390.226562 391.089844 391.5 390.351562 391.5 390.351562 L 391.789062 390.839844 C 391.789062 390.839844 390.597656 391.699219 388.378906 393.316406 C 387.261719 394.113281 385.890625 395.097656 384.277344 396.253906 C 382.667969 397.421875 380.753906 398.660156 378.84375 400.371094 C 374.960938 403.699219 370.070312 407.484375 365.046875 412.515625 C 363.765625 413.734375 362.441406 414.996094 361.082031 416.292969 C 359.714844 417.585938 358.46875 419.082031 357.101562 420.523438 C 355.757812 421.988281 354.378906 423.488281 352.96875 425.023438 C 352.257812 425.789062 351.542969 426.5625 350.820312 427.339844 C 350.140625 428.164062 349.449219 428.996094 348.757812 429.835938 C 343.101562 436.472656 337.332031 443.945312 331.578125 452.105469 C 325.921875 460.339844 320.089844 469.125 314.660156 478.585938 C 311.890625 483.292969 309.03125 488.046875 306.429688 493.035156 C 305.089844 495.503906 303.742188 497.992188 302.382812 500.488281 C 301.097656 503.023438 299.808594 505.578125 298.515625 508.136719 C 293.285156 518.359375 288.5 529.011719 283.871094 539.738281 C 281.585938 545.117188 279.457031 550.554688 277.269531 555.949219 C 275.238281 561.40625 273.101562 566.800781 271.179688 572.226562 C 269.273438 577.65625 267.300781 583.019531 265.566406 588.390625 C 264.671875 591.0625 263.789062 593.726562 262.90625 596.367188 C 262.070312 599.027344 261.238281 601.664062 260.421875 604.28125 C 257.101562 614.738281 254.242188 624.960938 251.519531 634.640625 C 248.878906 644.355469 246.476562 653.5625 244.429688 662.105469 C 236.152344 696.269531 232.628906 719.472656 232.628906 719.472656 L 232.070312 719.390625 "/>
</g>
<g clip-path="url(#clip4)" clip-rule="nonzero">
<path style=" stroke:none;fill-rule:nonzero;fill:rgb(59.21936%,3.529358%,80.778503%);fill-opacity:1;" d="M 365.425781 409.816406 C 365.425781 409.816406 386.449219 353.816406 479.730469 332.804688 C 464.457031 395.339844 365.425781 409.816406 365.425781 409.816406 "/>
</g>
<path style=" stroke:none;fill-rule:nonzero;fill:rgb(59.21936%,3.529358%,80.778503%);fill-opacity:1;" d="M 325.332031 451.886719 C 325.332031 451.886719 300.746094 375.6875 335.136719 330.859375 C 351.652344 366.539062 340.125 426.195312 325.332031 451.886719 "/>
<path style=" stroke:none;fill-rule:nonzero;fill:rgb(59.21936%,3.529358%,80.778503%);fill-opacity:1;" d="M 304.566406 489.941406 C 304.566406 489.941406 259.183594 423.976562 279.292969 371.175781 C 305.335938 400.636719 311.378906 461.089844 304.566406 489.941406 "/>
<path style=" stroke:none;fill-rule:nonzero;fill:rgb(59.21936%,3.529358%,80.778503%);fill-opacity:1;" d="M 339.351562 440.058594 C 339.351562 440.058594 402.234375 414.65625 450.378906 428.898438 C 432.042969 455.503906 355.480469 457.097656 339.351562 440.058594 "/>
<path style=" stroke:none;fill-rule:nonzero;fill:rgb(59.21936%,3.529358%,80.778503%);fill-opacity:1;" d="M 309.75 481.910156 C 309.75 481.910156 374.59375 462.027344 421.324219 480.363281 C 400.769531 505.289062 324.351562 500.28125 309.75 481.910156 "/>
<path style=" stroke:none;fill-rule:nonzero;fill:rgb(59.21936%,3.529358%,80.778503%);fill-opacity:1;" d="M 281.613281 542.1875 C 281.613281 542.1875 236.222656 476.21875 256.332031 423.417969 C 282.382812 452.882812 288.421875 513.332031 281.613281 542.1875 "/>
<path style=" stroke:none;fill-rule:nonzero;fill:rgb(59.21936%,3.529358%,80.778503%);fill-opacity:1;" d="M 287.628906 528.042969 C 287.628906 528.042969 352.28125 507.558594 399.1875 525.464844 C 378.859375 550.578125 302.398438 546.277344 287.628906 528.042969 "/>
<path style=" stroke:none;fill-rule:nonzero;fill:rgb(59.21936%,3.529358%,80.778503%);fill-opacity:1;" d="M 261.550781 595.589844 C 261.550781 595.589844 211.757812 532.882812 228.203125 478.832031 C 256.203125 506.441406 266.375 566.339844 261.550781 595.589844 "/>
<path style=" stroke:none;fill-rule:nonzero;fill:rgb(59.21936%,3.529358%,80.778503%);fill-opacity:1;" d="M 269.480469 578.769531 C 269.480469 578.769531 334.003906 557.875 381.019531 575.484375 C 360.851562 600.730469 284.363281 596.910156 269.480469 578.769531 "/>
<path style=" stroke:none;fill-rule:nonzero;fill:rgb(59.21936%,3.529358%,80.778503%);fill-opacity:1;" d="M 244.992188 652.796875 C 244.992188 652.796875 188.914062 595.640625 199.621094 540.164062 C 230.355469 564.699219 246.730469 623.207031 244.992188 652.796875 "/>
<path style=" stroke:none;fill-rule:nonzero;fill:rgb(59.21936%,3.529358%,80.778503%);fill-opacity:1;" d="M 251.121094 635.238281 C 251.121094 635.238281 313.105469 607.722656 361.703125 620.324219 C 344.285156 647.539062 267.816406 651.726562 251.121094 635.238281 "/>
</g>
</svg>
