<svg id="Layer_1" data-name="Layer 1" xmlns="http://www.w3.org/2000/svg" viewBox="0 0 20 20"><defs><style>.cls-1{fill:#fff;}</style></defs><title>CLOSE</title><g id="icons"><g id="exit2"><path class="cls-1" d="M12,10a2,2,0,0,0,2-2V4a2,2,0,0,0-4,0V8A2,2,0,0,0,12,10Z" transform="translate(-2 -2)"/><path class="cls-1" d="M19.1,4.9h0A1.37,1.37,0,0,0,18,4.5,1.54,1.54,0,0,0,16.5,6a2.1,2.1,0,0,0,.4,1.1h0a6.8,6.8,0,0,1,2,4.9,7,7,0,0,1-14,0A6.72,6.72,0,0,1,7,7.1H7A1.61,1.61,0,0,0,7.5,6,1.54,1.54,0,0,0,6,4.5a2.1,2.1,0,0,0-1.1.4h0a10,10,0,1,0,14.2,0Z" transform="translate(-2 -2)"/></g></g></svg>