<?xml version="1.0" encoding="UTF-8"?>
<svg xmlns="http://www.w3.org/2000/svg" xmlns:xlink="http://www.w3.org/1999/xlink" width="595.5pt" height="842.249979pt" viewBox="0 0 595.5 842.249979" version="1.2">
<defs>
<clipPath id="clip1">
  <path d="M 0.015625 0 L 594.984375 0 L 594.984375 349 L 0.015625 349 Z M 0.015625 0 "/>
</clipPath>
<filter id="alpha" filterUnits="objectBoundingBox" x="0%" y="0%" width="100%" height="100%">
  <feColorMatrix type="matrix" in="SourceGraphic" values="0 0 0 0 1 0 0 0 0 1 0 0 0 0 1 0 0 0 1 0"/>
</filter>
<mask id="mask0">
  <g filter="url(#alpha)">
<rect x="0" y="0" width="595.5" height="842.249979" style="fill:rgb(0%,0%,0%);fill-opacity:0.5686;stroke:none;"/>
  </g>
</mask>
<clipPath id="clip3">
  <path d="M 59 80 L 594.984375 80 L 594.984375 316 L 59 316 Z M 59 80 "/>
</clipPath>
<clipPath id="clip4">
  <path d="M 0.015625 108 L 526 108 L 526 347.230469 L 0.015625 347.230469 Z M 0.015625 108 "/>
</clipPath>
<clipPath id="clip2">
  <rect x="0" y="0" width="595" height="349"/>
</clipPath>
<g id="surface5" clip-path="url(#clip2)">
<g clip-path="url(#clip3)" clip-rule="nonzero">
<path style=" stroke:none;fill-rule:nonzero;fill:rgb(87.449646%,69.018555%,96.469116%);fill-opacity:1;" d="M 59.898438 110.003906 L 74.828125 117.882812 L 136.832031 136.292969 L 197.371094 161.023438 L 258 185.386719 L 317.714844 213.6875 L 378.988281 235.121094 L 440.898438 253.804688 L 500.066406 284.949219 L 561.429688 305.921875 L 591.46875 315.265625 C 592.75 304.183594 594.125 293.742188 595.40625 283.941406 L 568.480469 273.773438 L 508.214844 247.761719 L 447.769531 222.574219 L 386.589844 200.589844 L 326.140625 175.3125 L 264.59375 155.160156 L 204.515625 128.230469 L 142.144531 112.203125 L 81.695312 86.921875 L 64.480469 80.511719 C 62.007812 89.304688 60.539062 99.105469 59.898438 110.003906 Z M 59.898438 110.003906 "/>
</g>
<g clip-path="url(#clip4)" clip-rule="nonzero">
<path style=" stroke:none;fill-rule:nonzero;fill:rgb(87.449646%,69.018555%,96.469116%);fill-opacity:1;" d="M 57.882812 169.082031 L 119.246094 190.332031 L 180.609375 211.671875 L 239.5 243.730469 L 300.679688 265.53125 L 362.777344 283.390625 L 423.863281 305.648438 L 484.679688 329.097656 L 522.410156 347.230469 C 523.238281 337.613281 524.0625 327.632812 525.066406 317.191406 L 491.089844 299.785156 L 430.550781 275.421875 L 368.179688 258.660156 L 308.832031 228.617188 L 248.203125 204.253906 L 187.113281 182.089844 L 126.207031 158.824219 L 63.929688 141.695312 L 4.949219 109.914062 L 0.09375 108.265625 C 1.285156 119.988281 3.117188 132.628906 5.40625 146.09375 Z M 57.882812 169.082031 "/>
</g>
<path style=" stroke:none;fill-rule:nonzero;fill:rgb(87.449646%,69.018555%,96.469116%);fill-opacity:1;" d="M 499.605469 191.429688 L 438.609375 168.347656 L 377.613281 145.269531 L 319.273438 111.5625 L 258.460938 88.023438 L 196.636719 68.421875 L 135.917969 44.421875 L 75.46875 19.234375 L 38.101562 0 C 37.1875 9.617188 36.085938 19.507812 34.894531 29.953125 L 68.507812 48.269531 L 128.773438 74.375 L 190.867188 92.875 L 249.757812 124.566406 L 310.023438 150.671875 L 370.746094 174.578125 L 431.191406 199.582031 L 493.195312 218.542969 L 551.628906 251.976562 L 556.480469 253.804688 C 555.476562 242.082031 553.917969 229.351562 551.8125 215.796875 Z M 499.605469 191.429688 "/>
</g>
</defs>
<g id="surface1">
<g clip-path="url(#clip1)" clip-rule="nonzero">
<use xlink:href="#surface5" transform="matrix(1,0,0,1,-0.000000000000000002,0)" mask="url(#mask0)"/>
</g>
</g>
</svg>
