<?xml version="1.0" encoding="UTF-8"?>
<svg xmlns="http://www.w3.org/2000/svg" xmlns:xlink="http://www.w3.org/1999/xlink" width="1440pt" height="809.999993pt" viewBox="0 0 1440 809.999993" version="1.2">
<defs>
<clipPath id="clip1">
  <path d="M 760 243.34375 L 878.144531 243.34375 L 878.144531 381 L 760 381 Z M 760 243.34375 "/>
</clipPath>
<clipPath id="clip2">
  <path d="M 561.644531 430 L 797 430 L 797 567 L 561.644531 567 Z M 561.644531 430 "/>
</clipPath>
</defs>
<g id="surface1">
<g clip-path="url(#clip1)" clip-rule="nonzero">
<path style=" stroke:none;fill-rule:nonzero;fill:rgb(100%,89.019775%,99.609375%);fill-opacity:1;" d="M 820.46875 243.34375 C 776.582031 243.34375 760.605469 275.320312 760.605469 296.789062 L 760.605469 299.832031 C 760.605469 303.589844 763.675781 306.320312 767.058594 306.320312 L 785.789062 306.320312 C 789.519531 306.320312 792.246094 303.246094 792.246094 299.832031 L 792.246094 296.789062 C 792.246094 295.753906 792.589844 275.003906 820.46875 275.003906 C 838.484375 275.003906 846.316406 281.804688 846.316406 297.449219 C 846.316406 307.667969 834.410156 318.230469 823.539062 327.414062 C 808.566406 339.644531 801.421875 352.589844 801.421875 367.226562 L 801.421875 374.375 C 801.421875 378.105469 804.492188 380.832031 807.878906 380.832031 L 826.582031 380.832031 C 830.339844 380.832031 833.0625 377.761719 833.0625 374.375 L 833.0625 367.226562 C 833.0625 365.53125 833.0625 360.769531 843.589844 351.898438 C 856.527344 341.363281 878.300781 323.65625 878.300781 297.449219 C 877.957031 271.242188 862.980469 243.34375 820.46875 243.34375 "/>
</g>
<path style=" stroke:none;fill-rule:nonzero;fill:rgb(100%,89.019775%,99.609375%);fill-opacity:1;" d="M 817.746094 395.125 C 829.019531 395.125 838.167969 404.28125 838.167969 415.535156 C 838.167969 426.8125 829.019531 435.972656 817.746094 435.972656 C 806.472656 435.972656 797.351562 426.8125 797.351562 415.535156 C 797.351562 404.28125 806.472656 395.125 817.746094 395.125 "/>
<path style=" stroke:none;fill-rule:nonzero;fill:rgb(100%,89.019775%,99.609375%);fill-opacity:1;" d="M 678.996094 292.339844 C 711.496094 292.339844 737.828125 321.15625 737.828125 356.664062 C 737.828125 392.199219 711.496094 420.988281 678.996094 420.988281 C 646.496094 420.988281 620.132812 392.199219 620.132812 356.664062 C 620.132812 321.15625 646.496094 292.339844 678.996094 292.339844 "/>
<g clip-path="url(#clip2)" clip-rule="nonzero">
<path style=" stroke:none;fill-rule:nonzero;fill:rgb(100%,89.019775%,99.609375%);fill-opacity:1;" d="M 753.804688 439.359375 L 734.070312 430.515625 C 718.78125 443.117188 699.734375 450.953125 678.996094 450.953125 C 658.226562 450.953125 639.179688 443.460938 623.890625 430.515625 L 604.15625 439.359375 C 578.3125 450.953125 561.644531 476.816406 561.644531 505.402344 L 561.644531 540.105469 C 561.644531 554.746094 573.550781 566.65625 588.179688 566.65625 L 770.128906 566.65625 C 784.757812 566.65625 796.660156 554.746094 796.660156 540.105469 L 796.660156 505.402344 C 796.316406 476.816406 779.652344 451.269531 753.804688 439.359375 "/>
</g>
</g>
</svg>
