<?xml version="1.0" encoding="UTF-8"?>
<svg xmlns="http://www.w3.org/2000/svg" xmlns:xlink="http://www.w3.org/1999/xlink" width="1440pt" height="809.999993pt" viewBox="0 0 1440 809.999993" version="1.2">
<defs>
<clipPath id="clip1">
  <path d="M 346.742188 28.472656 L 1116.992188 28.472656 L 1116.992188 771.722656 L 346.742188 771.722656 Z M 346.742188 28.472656 "/>
</clipPath>
</defs>
<g id="surface1">
<g clip-path="url(#clip1)" clip-rule="nonzero">
<path style=" stroke:none;fill-rule:nonzero;fill:rgb(83.529663%,57.249451%,86.669922%);fill-opacity:1;" d="M 891.144531 320.460938 C 766.710938 320.460938 665.503906 421.664062 665.503906 546.09375 C 665.503906 584.457031 675.199219 620.59375 692.152344 652.269531 L 373.496094 652.269531 L 373.496094 201.011719 L 957.507812 201.011719 L 957.507812 330.46875 C 936.511719 323.988281 914.214844 320.460938 891.144531 320.460938 Z M 1090.238281 546.09375 C 1090.238281 655.898438 1000.90625 745.175781 891.144531 745.175781 C 781.382812 745.175781 692.046875 655.898438 692.046875 546.09375 C 692.046875 436.285156 781.382812 347.007812 891.144531 347.007812 C 1000.90625 347.007812 1090.238281 436.285156 1090.238281 546.09375 Z M 426.589844 678.816406 L 709.054688 678.816406 C 715.898438 688.199219 723.3125 697.167969 731.453125 705.359375 L 426.589844 705.359375 Z M 373.496094 108.105469 C 373.496094 100.796875 379.457031 94.832031 386.769531 94.832031 L 426.589844 94.832031 L 426.589844 121.378906 C 426.589844 128.6875 432.550781 134.648438 439.859375 134.648438 L 492.953125 134.648438 C 500.261719 134.648438 506.226562 128.6875 506.226562 121.378906 L 506.226562 94.832031 L 559.316406 94.832031 L 559.316406 121.378906 C 559.316406 128.6875 565.28125 134.648438 572.589844 134.648438 L 625.683594 134.648438 C 632.992188 134.648438 638.957031 128.6875 638.957031 121.378906 L 638.957031 94.832031 L 692.046875 94.832031 L 692.046875 121.378906 C 692.046875 128.6875 698.011719 134.648438 705.320312 134.648438 L 758.414062 134.648438 C 765.722656 134.648438 771.6875 128.6875 771.6875 121.378906 L 771.6875 94.832031 L 824.777344 94.832031 L 824.777344 121.378906 C 824.777344 128.6875 830.742188 134.648438 838.050781 134.648438 L 891.144531 134.648438 C 898.453125 134.648438 904.417969 128.6875 904.417969 121.378906 L 904.417969 94.832031 L 944.234375 94.832031 C 951.546875 94.832031 957.507812 100.796875 957.507812 108.105469 L 957.507812 174.46875 L 373.496094 174.46875 Z M 453.132812 68.289062 C 453.132812 60.976562 459.097656 55.015625 466.40625 55.015625 C 473.71875 55.015625 479.679688 60.976562 479.679688 68.289062 L 479.679688 108.105469 L 453.132812 108.105469 Z M 585.863281 68.289062 C 585.863281 60.976562 591.828125 55.015625 599.136719 55.015625 C 606.449219 55.015625 612.410156 60.976562 612.410156 68.289062 L 612.410156 108.105469 L 585.863281 108.105469 Z M 718.59375 68.289062 C 718.59375 60.976562 724.558594 55.015625 731.867188 55.015625 C 739.179688 55.015625 745.140625 60.976562 745.140625 68.289062 L 745.140625 108.105469 L 718.59375 108.105469 Z M 851.324219 68.289062 C 851.324219 60.976562 857.289062 55.015625 864.597656 55.015625 C 871.910156 55.015625 877.871094 60.976562 877.871094 68.289062 L 877.871094 108.105469 L 851.324219 108.105469 Z M 984.054688 108.105469 C 984.054688 86.125 966.21875 68.289062 944.234375 68.289062 L 904.417969 68.289062 C 904.417969 46.304688 886.582031 28.472656 864.597656 28.472656 C 842.613281 28.472656 824.777344 46.304688 824.777344 68.289062 L 771.6875 68.289062 C 771.6875 46.304688 753.851562 28.472656 731.867188 28.472656 C 709.882812 28.472656 692.046875 46.304688 692.046875 68.289062 L 638.957031 68.289062 C 638.957031 46.304688 621.121094 28.472656 599.136719 28.472656 C 577.152344 28.472656 559.316406 46.304688 559.316406 68.289062 L 506.226562 68.289062 C 506.226562 46.304688 488.390625 28.472656 466.40625 28.472656 C 444.421875 28.472656 426.589844 46.304688 426.589844 68.289062 L 386.769531 68.289062 C 364.785156 68.289062 346.949219 86.125 346.949219 108.105469 L 346.949219 665.542969 C 346.949219 672.851562 352.914062 678.816406 360.222656 678.816406 L 400.042969 678.816406 L 400.042969 718.632812 C 400.042969 725.941406 406.003906 731.90625 413.316406 731.90625 L 762.820312 731.90625 C 762.976562 731.90625 763.132812 731.800781 763.289062 731.800781 C 799.683594 756.945312 843.703125 771.722656 891.144531 771.722656 C 1015.578125 771.722656 1116.785156 670.519531 1116.785156 546.09375 C 1116.785156 454.792969 1062.191406 376.195312 984.054688 340.734375 L 984.054688 108.105469 "/>
</g>
<path style=" stroke:none;fill-rule:nonzero;fill:rgb(83.529663%,57.249451%,86.669922%);fill-opacity:1;" d="M 466.40625 307.191406 C 459.097656 307.191406 453.132812 301.226562 453.132812 293.917969 C 453.132812 286.609375 459.097656 280.644531 466.40625 280.644531 C 473.71875 280.644531 479.679688 286.609375 479.679688 293.917969 C 479.679688 301.226562 473.71875 307.191406 466.40625 307.191406 Z M 466.40625 254.101562 C 444.421875 254.101562 426.589844 271.9375 426.589844 293.917969 C 426.589844 315.898438 444.421875 333.734375 466.40625 333.734375 C 488.390625 333.734375 506.226562 315.898438 506.226562 293.917969 C 506.226562 271.9375 488.390625 254.101562 466.40625 254.101562 "/>
<path style=" stroke:none;fill-rule:nonzero;fill:rgb(83.529663%,57.249451%,86.669922%);fill-opacity:1;" d="M 599.136719 307.191406 C 591.828125 307.191406 585.863281 301.226562 585.863281 293.917969 C 585.863281 286.609375 591.828125 280.644531 599.136719 280.644531 C 606.449219 280.644531 612.410156 286.609375 612.410156 293.917969 C 612.410156 301.226562 606.449219 307.191406 599.136719 307.191406 Z M 599.136719 254.101562 C 577.152344 254.101562 559.316406 271.9375 559.316406 293.917969 C 559.316406 315.898438 577.152344 333.734375 599.136719 333.734375 C 621.121094 333.734375 638.957031 315.898438 638.957031 293.917969 C 638.957031 271.9375 621.121094 254.101562 599.136719 254.101562 "/>
<path style=" stroke:none;fill-rule:nonzero;fill:rgb(83.529663%,57.249451%,86.669922%);fill-opacity:1;" d="M 731.867188 307.191406 C 724.558594 307.191406 718.59375 301.226562 718.59375 293.917969 C 718.59375 286.609375 724.558594 280.644531 731.867188 280.644531 C 739.179688 280.644531 745.140625 286.609375 745.140625 293.917969 C 745.140625 301.226562 739.179688 307.191406 731.867188 307.191406 Z M 731.867188 254.101562 C 709.882812 254.101562 692.046875 271.9375 692.046875 293.917969 C 692.046875 315.898438 709.882812 333.734375 731.867188 333.734375 C 753.851562 333.734375 771.6875 315.898438 771.6875 293.917969 C 771.6875 271.9375 753.851562 254.101562 731.867188 254.101562 "/>
<path style=" stroke:none;fill-rule:nonzero;fill:rgb(83.529663%,57.249451%,86.669922%);fill-opacity:1;" d="M 466.40625 413.367188 C 459.097656 413.367188 453.132812 407.40625 453.132812 400.097656 C 453.132812 392.785156 459.097656 386.824219 466.40625 386.824219 C 473.71875 386.824219 479.679688 392.785156 479.679688 400.097656 C 479.679688 407.40625 473.71875 413.367188 466.40625 413.367188 Z M 466.40625 360.28125 C 444.421875 360.28125 426.589844 378.113281 426.589844 400.097656 C 426.589844 422.078125 444.421875 439.914062 466.40625 439.914062 C 488.390625 439.914062 506.226562 422.078125 506.226562 400.097656 C 506.226562 378.113281 488.390625 360.28125 466.40625 360.28125 "/>
<path style=" stroke:none;fill-rule:nonzero;fill:rgb(83.529663%,57.249451%,86.669922%);fill-opacity:1;" d="M 599.136719 413.367188 C 591.828125 413.367188 585.863281 407.40625 585.863281 400.097656 C 585.863281 392.785156 591.828125 386.824219 599.136719 386.824219 C 606.449219 386.824219 612.410156 392.785156 612.410156 400.097656 C 612.410156 407.40625 606.449219 413.367188 599.136719 413.367188 Z M 599.136719 360.28125 C 577.152344 360.28125 559.316406 378.113281 559.316406 400.097656 C 559.316406 422.078125 577.152344 439.914062 599.136719 439.914062 C 621.121094 439.914062 638.957031 422.078125 638.957031 400.097656 C 638.957031 378.113281 621.121094 360.28125 599.136719 360.28125 "/>
<path style=" stroke:none;fill-rule:nonzero;fill:rgb(83.529663%,57.249451%,86.669922%);fill-opacity:1;" d="M 466.40625 519.546875 C 459.097656 519.546875 453.132812 513.585938 453.132812 506.273438 C 453.132812 498.964844 459.097656 493.003906 466.40625 493.003906 C 473.71875 493.003906 479.679688 498.964844 479.679688 506.273438 C 479.679688 513.585938 473.71875 519.546875 466.40625 519.546875 Z M 466.40625 466.457031 C 444.421875 466.457031 426.589844 484.292969 426.589844 506.273438 C 426.589844 528.257812 444.421875 546.09375 466.40625 546.09375 C 488.390625 546.09375 506.226562 528.257812 506.226562 506.273438 C 506.226562 484.292969 488.390625 466.457031 466.40625 466.457031 "/>
<path style=" stroke:none;fill-rule:nonzero;fill:rgb(83.529663%,57.249451%,86.669922%);fill-opacity:1;" d="M 599.136719 519.546875 C 591.828125 519.546875 585.863281 513.585938 585.863281 506.273438 C 585.863281 498.964844 591.828125 493.003906 599.136719 493.003906 C 606.449219 493.003906 612.410156 498.964844 612.410156 506.273438 C 612.410156 513.585938 606.449219 519.546875 599.136719 519.546875 Z M 599.136719 466.457031 C 577.152344 466.457031 559.316406 484.292969 559.316406 506.273438 C 559.316406 528.257812 577.152344 546.09375 599.136719 546.09375 C 621.121094 546.09375 638.957031 528.257812 638.957031 506.273438 C 638.957031 484.292969 621.121094 466.457031 599.136719 466.457031 "/>
<path style=" stroke:none;fill-rule:nonzero;fill:rgb(83.529663%,57.249451%,86.669922%);fill-opacity:1;" d="M 1037.148438 546.09375 L 1010.601562 546.09375 C 1003.289062 546.09375 997.328125 552.054688 997.328125 559.363281 C 997.328125 566.675781 1003.289062 572.636719 1010.601562 572.636719 L 1034.605469 572.636719 C 1022.835938 636.25 969.847656 685.503906 904.417969 691.414062 L 904.417969 665.542969 C 904.417969 658.234375 898.453125 652.269531 891.144531 652.269531 C 883.832031 652.269531 877.871094 658.234375 877.871094 665.542969 L 877.871094 691.414062 C 812.4375 685.503906 759.449219 636.25 747.679688 572.636719 L 771.6875 572.636719 C 778.996094 572.636719 784.960938 566.675781 784.960938 559.363281 C 784.960938 552.054688 778.996094 546.09375 771.6875 546.09375 L 745.140625 546.09375 C 745.140625 470.085938 803.574219 407.511719 877.871094 400.769531 L 877.871094 426.640625 C 877.871094 433.953125 883.832031 439.914062 891.144531 439.914062 C 898.453125 439.914062 904.417969 433.953125 904.417969 426.640625 L 904.417969 400.769531 C 978.714844 407.511719 1037.148438 470.085938 1037.148438 546.09375 Z M 718.59375 546.09375 C 718.59375 641.226562 796.003906 718.632812 891.144531 718.632812 C 986.285156 718.632812 1063.691406 641.226562 1063.691406 546.09375 C 1063.691406 450.957031 986.285156 373.550781 891.144531 373.550781 C 796.003906 373.550781 718.59375 450.957031 718.59375 546.09375 "/>
<path style=" stroke:none;fill-rule:nonzero;fill:rgb(83.529663%,57.249451%,86.669922%);fill-opacity:1;" d="M 893.996094 539.714844 L 875.640625 512.183594 C 871.546875 506.066406 863.351562 504.460938 857.234375 508.503906 C 851.117188 512.546875 849.511719 520.792969 853.554688 526.910156 L 880.101562 566.726562 C 882.175781 569.835938 885.492188 571.960938 889.226562 572.480469 C 889.898438 572.585938 890.523438 572.636719 891.144531 572.636719 C 894.203125 572.636719 897.261719 571.546875 899.648438 569.578125 L 979.285156 503.214844 C 984.9375 498.5 985.664062 490.152344 980.996094 484.5 C 976.277344 478.847656 967.929688 478.125 962.277344 482.789062 L 893.996094 539.714844 "/>
</g>
</svg>
