<?xml version="1.0" encoding="UTF-8"?>
<svg xmlns="http://www.w3.org/2000/svg" xmlns:xlink="http://www.w3.org/1999/xlink" width="595.5pt" height="842.249979pt" viewBox="0 0 595.5 842.249979" version="1.2">
<defs>
<clipPath id="clip1">
  <path d="M 240 399 L 396 399 L 396 655 L 240 655 Z M 240 399 "/>
</clipPath>
<clipPath id="clip2">
  <path d="M 10.449219 125.25 L 433.183594 13.605469 L 586.195312 592.960938 L 163.460938 704.605469 Z M 10.449219 125.25 "/>
</clipPath>
<clipPath id="clip3">
  <path d="M 10.449219 125.25 L 433.183594 13.605469 L 586.195312 592.960938 L 163.460938 704.605469 Z M 10.449219 125.25 "/>
</clipPath>
<clipPath id="clip4">
  <path d="M 129 151 L 262 151 L 262 362 L 129 362 Z M 129 151 "/>
</clipPath>
<clipPath id="clip5">
  <path d="M 10.449219 125.25 L 433.183594 13.605469 L 586.195312 592.960938 L 163.460938 704.605469 Z M 10.449219 125.25 "/>
</clipPath>
<clipPath id="clip6">
  <path d="M 10.449219 125.25 L 433.183594 13.605469 L 586.195312 592.960938 L 163.460938 704.605469 Z M 10.449219 125.25 "/>
</clipPath>
<clipPath id="clip7">
  <path d="M 69 301 L 113 301 L 113 356 L 69 356 Z M 69 301 "/>
</clipPath>
<clipPath id="clip8">
  <path d="M 10.449219 125.25 L 433.183594 13.605469 L 586.195312 592.960938 L 163.460938 704.605469 Z M 10.449219 125.25 "/>
</clipPath>
<clipPath id="clip9">
  <path d="M 10.449219 125.25 L 433.183594 13.605469 L 586.195312 592.960938 L 163.460938 704.605469 Z M 10.449219 125.25 "/>
</clipPath>
<clipPath id="clip10">
  <path d="M 394 171 L 439 171 L 439 227 L 394 227 Z M 394 171 "/>
</clipPath>
<clipPath id="clip11">
  <path d="M 10.449219 125.25 L 433.183594 13.605469 L 586.195312 592.960938 L 163.460938 704.605469 Z M 10.449219 125.25 "/>
</clipPath>
<clipPath id="clip12">
  <path d="M 10.449219 125.25 L 433.183594 13.605469 L 586.195312 592.960938 L 163.460938 704.605469 Z M 10.449219 125.25 "/>
</clipPath>
<clipPath id="clip13">
  <path d="M 111 390 L 204 390 L 204 545 L 111 545 Z M 111 390 "/>
</clipPath>
<clipPath id="clip14">
  <path d="M 10.449219 125.25 L 433.183594 13.605469 L 586.195312 592.960938 L 163.460938 704.605469 Z M 10.449219 125.25 "/>
</clipPath>
<clipPath id="clip15">
  <path d="M 10.449219 125.25 L 433.183594 13.605469 L 586.195312 592.960938 L 163.460938 704.605469 Z M 10.449219 125.25 "/>
</clipPath>
<clipPath id="clip16">
  <path d="M 377 239 L 518 239 L 518 475 L 377 475 Z M 377 239 "/>
</clipPath>
<clipPath id="clip17">
  <path d="M 10.449219 125.25 L 433.183594 13.605469 L 586.195312 592.960938 L 163.460938 704.605469 Z M 10.449219 125.25 "/>
</clipPath>
<clipPath id="clip18">
  <path d="M 10.449219 125.25 L 433.183594 13.605469 L 586.195312 592.960938 L 163.460938 704.605469 Z M 10.449219 125.25 "/>
</clipPath>
<clipPath id="clip19">
  <path d="M 349.683594 262.929688 L 489.050781 226.121094 L 550.144531 457.449219 L 410.777344 494.257812 Z M 349.683594 262.929688 "/>
</clipPath>
<clipPath id="clip20">
  <path d="M 349.683594 262.929688 L 488.558594 226.253906 L 549.652344 457.582031 L 410.777344 494.257812 Z M 349.683594 262.929688 "/>
</clipPath>
<clipPath id="clip21">
  <path d="M 337 282 L 362 282 L 362 308 L 337 308 Z M 337 282 "/>
</clipPath>
<clipPath id="clip22">
  <path d="M 10.449219 125.25 L 433.183594 13.605469 L 586.195312 592.960938 L 163.460938 704.605469 Z M 10.449219 125.25 "/>
</clipPath>
<clipPath id="clip23">
  <path d="M 10.449219 125.25 L 433.183594 13.605469 L 586.195312 592.960938 L 163.460938 704.605469 Z M 10.449219 125.25 "/>
</clipPath>
<clipPath id="clip24">
  <path d="M 261 182 L 281 182 L 281 202 L 261 202 Z M 261 182 "/>
</clipPath>
<clipPath id="clip25">
  <path d="M 10.449219 125.25 L 433.183594 13.605469 L 586.195312 592.960938 L 163.460938 704.605469 Z M 10.449219 125.25 "/>
</clipPath>
<clipPath id="clip26">
  <path d="M 10.449219 125.25 L 433.183594 13.605469 L 586.195312 592.960938 L 163.460938 704.605469 Z M 10.449219 125.25 "/>
</clipPath>
<clipPath id="clip27">
  <path d="M 260 52 L 346 52 L 346 185 L 260 185 Z M 260 52 "/>
</clipPath>
<clipPath id="clip28">
  <path d="M 10.449219 125.25 L 433.183594 13.605469 L 586.195312 592.960938 L 163.460938 704.605469 Z M 10.449219 125.25 "/>
</clipPath>
<clipPath id="clip29">
  <path d="M 10.449219 125.25 L 433.183594 13.605469 L 586.195312 592.960938 L 163.460938 704.605469 Z M 10.449219 125.25 "/>
</clipPath>
</defs>
<g id="surface1">
<g clip-path="url(#clip1)" clip-rule="nonzero">
<g clip-path="url(#clip2)" clip-rule="nonzero">
<g clip-path="url(#clip3)" clip-rule="nonzero">
<path style=" stroke:none;fill-rule:nonzero;fill:rgb(79.60968%,42.349243%,90.19928%);fill-opacity:1;" d="M 340.308594 624.25 C 323.613281 586.449219 299.859375 543.105469 263.15625 525.902344 C 269.476562 523.785156 276.164062 521.25 277.433594 520.40625 C 287.65625 513.574219 293.941406 502.019531 298.609375 491.0625 C 305.941406 473.839844 308.328125 454.761719 309.585938 435.761719 C 314.851562 453.441406 320.714844 470.027344 336.636719 483.621094 C 345.304688 491.023438 355.640625 494.316406 366.351562 495.046875 C 335.042969 523.898438 340.824219 579.921875 340.308594 624.25 Z M 388.050781 481.96875 C 364.949219 486.984375 346.515625 481.292969 331.816406 462.167969 C 319.257812 445.835938 318.621094 422.335938 311.074219 403.601562 C 308.742188 397.820312 300.34375 398.25 299.914062 404.988281 C 298.292969 430.628906 297.5625 456.226562 290.242188 481.046875 C 285.269531 497.90625 274.800781 511.613281 257.894531 517.617188 C 252.359375 519.585938 244.699219 517.351562 241.292969 523.078125 C 239.46875 526.140625 241.125 530.542969 244.679688 531.390625 C 294.496094 543.316406 321.8125 608.113281 339.132812 650.289062 C 341.585938 656.265625 349.484375 655.46875 350.292969 648.902344 C 355.898438 603.140625 335.765625 513.429688 390.945312 492.933594 C 394.824219 492.09375 395.734375 488.492188 394.628906 485.613281 C 393.933594 482.839844 391.503906 480.6875 388.050781 481.96875 "/>
</g>
</g>
</g>
<g clip-path="url(#clip4)" clip-rule="nonzero">
<g clip-path="url(#clip5)" clip-rule="nonzero">
<g clip-path="url(#clip6)" clip-rule="nonzero">
<path style=" stroke:none;fill-rule:nonzero;fill:rgb(79.60968%,42.349243%,90.19928%);fill-opacity:1;" d="M 159.59375 246.375 C 177.882812 235.535156 187.726562 214.84375 192.554688 192.648438 C 200.675781 218.789062 215.40625 241.621094 242.230469 250.28125 C 218.472656 269.832031 212.515625 296.042969 207.378906 324.867188 C 200.0625 293.421875 186.074219 258.03125 159.59375 246.375 Z M 201.824219 357.574219 C 202.582031 363.222656 211.636719 362.914062 212.777344 357.640625 C 221.453125 317.4375 219.222656 276.605469 258.609375 252.503906 C 262.386719 250.199219 262.433594 242.90625 257.277344 242.148438 C 213.628906 235.707031 201.257812 193.601562 196.335938 155.523438 C 195.492188 149.011719 185.304688 150.730469 185.179688 156.910156 C 184.488281 190.402344 176.242188 239.292969 134.8125 242.695312 C 134.558594 242.714844 134.308594 242.753906 134.066406 242.800781 C 133.8125 242.832031 133.5625 242.847656 133.304688 242.882812 C 129.78125 243.339844 128.683594 246.167969 129.308594 248.839844 C 129.285156 251.664062 131.0625 254.332031 134.6875 254.03125 C 135.945312 253.929688 137.167969 253.785156 138.371094 253.621094 C 183.324219 250.199219 197.378906 324.601562 201.824219 357.574219 "/>
</g>
</g>
</g>
<g clip-path="url(#clip7)" clip-rule="nonzero">
<g clip-path="url(#clip8)" clip-rule="nonzero">
<g clip-path="url(#clip9)" clip-rule="nonzero">
<path style=" stroke:none;fill-rule:nonzero;fill:rgb(79.60968%,42.349243%,90.19928%);fill-opacity:1;" d="M 81.03125 326.1875 C 82.3125 321.125 87.875 310.40625 94.5 313.578125 C 99.472656 318.605469 102 325.070312 100.457031 332.445312 C 99.34375 337.765625 95.628906 344.113281 89.5 343.730469 C 86.367188 343.539062 83.460938 339.828125 81.84375 337.578125 C 79.507812 334.316406 80.113281 329.808594 81.03125 326.1875 Z M 84.347656 353.929688 C 95.699219 358.285156 106.128906 349.761719 110.097656 339.523438 C 115.203125 326.355469 110.78125 311.722656 99.761719 303.089844 C 98.195312 301.863281 96.449219 301.585938 94.859375 301.914062 C 84.332031 300.1875 75.140625 309.726562 71.316406 319.585938 C 66.214844 332.734375 70.15625 348.492188 84.347656 353.929688 "/>
</g>
</g>
</g>
<g clip-path="url(#clip10)" clip-rule="nonzero">
<g clip-path="url(#clip11)" clip-rule="nonzero">
<g clip-path="url(#clip12)" clip-rule="nonzero">
<path style=" stroke:none;fill-rule:nonzero;fill:rgb(79.60968%,42.349243%,90.19928%);fill-opacity:1;" d="M 405.886719 205.535156 C 405.570312 199.535156 408.128906 183.859375 416.109375 182.855469 C 433.308594 182.359375 427.726562 206.46875 418.078125 213.230469 C 411.167969 218.070312 406.25 212.410156 405.886719 205.535156 Z M 418.230469 225.542969 C 443.089844 219.480469 447.140625 172.160156 417.691406 171.515625 C 417.242188 171.457031 416.765625 171.453125 416.234375 171.515625 C 415.550781 171.539062 414.925781 171.65625 414.363281 171.855469 C 388.546875 177.65625 386.234375 233.339844 418.230469 225.542969 "/>
</g>
</g>
</g>
<g clip-path="url(#clip13)" clip-rule="nonzero">
<g clip-path="url(#clip14)" clip-rule="nonzero">
<g clip-path="url(#clip15)" clip-rule="nonzero">
<path style=" stroke:none;fill-rule:nonzero;fill:rgb(79.60968%,42.349243%,90.19928%);fill-opacity:1;" d="M 152.695312 390.929688 C 159.054688 456.050781 111.828125 473.34375 111.828125 473.34375 C 111.828125 473.34375 163.554688 486.761719 178.859375 544.710938 C 178.859375 544.710938 175.496094 518.140625 180.578125 491.894531 C 185.65625 465.660156 203.023438 453.746094 203.023438 453.746094 C 167.554688 463.113281 152.695312 390.929688 152.695312 390.929688 "/>
</g>
</g>
</g>
<g clip-path="url(#clip16)" clip-rule="nonzero">
<g clip-path="url(#clip17)" clip-rule="nonzero">
<g clip-path="url(#clip18)" clip-rule="nonzero">
<g clip-path="url(#clip19)" clip-rule="nonzero">
<g clip-path="url(#clip20)" clip-rule="nonzero">
<path style=" stroke:none;fill-rule:nonzero;fill:rgb(79.60968%,42.349243%,90.19928%);fill-opacity:1;" d="M 440.460938 239.507812 C 450.195312 339.105469 377.964844 365.558594 377.964844 365.558594 C 377.964844 365.558594 457.074219 386.078125 480.476562 474.691406 C 480.476562 474.691406 475.339844 434.058594 483.113281 393.925781 C 490.871094 353.804688 517.429688 335.578125 517.429688 335.578125 C 463.1875 349.90625 440.460938 239.507812 440.460938 239.507812 "/>
</g>
</g>
</g>
</g>
</g>
<g clip-path="url(#clip21)" clip-rule="nonzero">
<g clip-path="url(#clip22)" clip-rule="nonzero">
<g clip-path="url(#clip23)" clip-rule="nonzero">
<path style=" stroke:none;fill-rule:nonzero;fill:rgb(79.60968%,42.349243%,90.19928%);fill-opacity:1;" d="M 355.953125 284.789062 C 353.003906 283.015625 349.851562 282.574219 347.039062 283.355469 C 346.652344 283.402344 346.253906 283.492188 345.835938 283.628906 C 334.148438 287.523438 336.257812 302.539062 346.695312 306.695312 C 359.621094 311.832031 367.304688 291.628906 355.953125 284.789062 "/>
</g>
</g>
</g>
<g clip-path="url(#clip24)" clip-rule="nonzero">
<g clip-path="url(#clip25)" clip-rule="nonzero">
<g clip-path="url(#clip26)" clip-rule="nonzero">
<path style=" stroke:none;fill-rule:nonzero;fill:rgb(79.60968%,42.349243%,90.19928%);fill-opacity:1;" d="M 268.140625 201.363281 C 272.625 202.925781 276.273438 200.632812 278.828125 197.070312 C 282.226562 192.3125 279.121094 186.570312 275.046875 183.6875 C 272.023438 181.550781 268.96875 181.921875 266.570312 183.542969 C 258.996094 187.410156 259.554688 198.375 268.140625 201.363281 "/>
</g>
</g>
</g>
<g clip-path="url(#clip27)" clip-rule="nonzero">
<g clip-path="url(#clip28)" clip-rule="nonzero">
<g clip-path="url(#clip29)" clip-rule="nonzero">
<path style=" stroke:none;fill-rule:nonzero;fill:rgb(79.60968%,42.349243%,90.19928%);fill-opacity:1;" d="M 298.558594 87.183594 C 305.640625 98.96875 315.023438 105.972656 329.21875 110.769531 C 317.816406 122.5625 316.777344 142.183594 317.375 159.609375 C 307.5 144.332031 294.203125 127.925781 277.585938 122.878906 C 287.171875 112.59375 295.199219 101.355469 298.558594 87.183594 Z M 264.28125 130.84375 C 265.609375 131.570312 267.160156 131.804688 268.644531 131.253906 C 292.617188 132.835938 308.453125 162.839844 318.394531 181.785156 C 320.96875 186.683594 329.210938 184.570312 328.972656 178.992188 C 328.105469 158.753906 321.0625 123.523438 343.195312 112.542969 C 347.609375 110.351562 346.464844 103.296875 341.859375 102.179688 C 316.113281 95.925781 305.75 81.679688 298.550781 56.792969 C 296.484375 49.667969 286.382812 52.585938 287.578125 59.691406 C 291.347656 82.054688 277.996094 106.300781 262.476562 121.519531 C 260.53125 123.429688 260.449219 125.800781 261.375 127.761719 C 261.726562 129.117188 262.683594 130.296875 264.28125 130.84375 "/>
</g>
</g>
</g>
</g>
</svg>
