<?xml version="1.0" encoding="UTF-8"?>
<svg xmlns="http://www.w3.org/2000/svg" xmlns:xlink="http://www.w3.org/1999/xlink" width="595.5pt" height="842.249979pt" viewBox="0 0 595.5 842.249979" version="1.2">
<defs>
<clipPath id="clip1">
  <path d="M 318 98 L 594.984375 98 L 594.984375 223 L 318 223 Z M 318 98 "/>
</clipPath>
<clipPath id="clip2">
  <path d="M 348 123.238281 L 594.984375 123.238281 L 594.984375 219 L 348 219 Z M 348 123.238281 "/>
</clipPath>
</defs>
<g id="surface1">
<path style=" stroke:none;fill-rule:nonzero;fill:rgb(62.748718%,37.249756%,51.368713%);fill-opacity:1;" d="M 225.554688 209.265625 C 222.421875 229.011719 226.363281 251.195312 217.929688 269.789062 C 209.257812 288.921875 169.535156 277.503906 152.449219 283.4375 C 110.222656 298.105469 68.417969 349.671875 63.71875 394.101562 C 60.777344 421.867188 68.800781 446.914062 79.085938 472.3125 C 85.921875 489.195312 86.386719 501.964844 69.40625 512.542969 C 60.117188 518.332031 49.371094 521.597656 39.636719 526.546875 C 0.128906 546.613281 7.390625 605.742188 39.328125 629.382812 C 42.222656 631.523438 44.925781 627.125 42.925781 624.730469 C 24.097656 602.207031 9.292969 569.714844 30.382812 543.132812 C 42.402344 527.976562 65.59375 525.84375 80.453125 514.148438 C 97.027344 501.109375 91.511719 483.1875 84.539062 466.066406 C 73.191406 438.167969 66.035156 410.082031 74.078125 380.167969 C 81.550781 352.363281 102.128906 327.558594 123.355469 308.980469 C 134.15625 299.53125 147.410156 291.160156 161.402344 287.597656 C 171.855469 284.9375 184.171875 287.175781 194.875 286.871094 C 237.734375 285.664062 226.839844 239.464844 229.695312 209.824219 C 229.925781 207.46875 225.925781 206.921875 225.554688 209.265625 "/>
<path style=" stroke:none;fill-rule:nonzero;fill:rgb(62.748718%,37.249756%,51.368713%);fill-opacity:1;" d="M 122.742188 711.28125 C 122.8125 690.636719 118.90625 669.703125 123.445312 649.292969 C 131.6875 612.226562 172.269531 623.921875 199.738281 622.945312 C 222.167969 622.144531 244.3125 605.460938 257.023438 587.957031 C 270.789062 569 268.007812 551.191406 262.230469 529.726562 C 242.375 455.957031 345.695312 482.535156 385.773438 473.84375 C 433.121094 463.566406 447.863281 414.332031 451.074219 372.125 C 451.371094 368.273438 444.828125 367.355469 444.285156 371.210938 C 440.726562 396.597656 436.816406 422.964844 420.402344 443.652344 C 401.3125 467.699219 370.835938 469.296875 342.675781 468.296875 C 306.144531 466.996094 244.0625 468.601562 252.390625 521.117188 C 254.285156 533.070312 258.972656 544.238281 260.011719 556.390625 C 261.441406 573.097656 250 586.191406 238.648438 596.925781 C 225.453125 609.410156 208.457031 616.089844 190.429688 616.246094 C 177.429688 616.355469 163.984375 613.347656 151.058594 615.761719 C 104.90625 624.382812 117.613281 677.777344 118.964844 711.28125 C 119.066406 713.695312 122.734375 713.714844 122.742188 711.28125 "/>
<path style=" stroke:none;fill-rule:nonzero;fill:rgb(58.428955%,69.40918%,66.268921%);fill-opacity:1;" d="M 334.746094 97.058594 C 304.066406 114.714844 271.722656 145.546875 258.835938 179.152344 C 244.953125 215.347656 254.453125 256.046875 235.863281 291.160156 C 220.132812 320.890625 178.425781 310.878906 151.425781 322.101562 C 126.011719 332.664062 110.871094 359.359375 105.605469 385.265625 C 105.089844 387.800781 108.871094 389.785156 110.042969 387.132812 C 123.367188 356.96875 134.523438 332.371094 169.007812 323.628906 C 194.136719 317.257812 220.589844 322.449219 238.152344 299.609375 C 256.8125 275.339844 255.300781 239.542969 258.417969 210.828125 C 263.527344 163.816406 297.769531 125.1875 336.703125 100.394531 C 338.800781 99.0625 336.925781 95.804688 334.746094 97.058594 "/>
<path style=" stroke:none;fill-rule:nonzero;fill:rgb(58.428955%,69.40918%,66.268921%);fill-opacity:1;" d="M 104.78125 402.074219 C 96.65625 426.171875 108.617188 447.328125 115.175781 470.324219 C 122.929688 497.546875 110.554688 520.371094 86.402344 532.667969 C 73.328125 539.324219 58.65625 542.675781 47.769531 553.039062 C 35.019531 565.1875 35.609375 586.5625 40.640625 601.976562 C 41.578125 604.855469 46.339844 604.507812 46.128906 601.234375 C 44.785156 580.546875 42.613281 562.359375 62.929688 550.753906 C 76.398438 543.058594 91.246094 539.253906 103.65625 529.535156 C 148.53125 494.410156 98.050781 444.824219 107.429688 402.800781 C 107.816406 401.070312 105.339844 400.398438 104.78125 402.074219 "/>
<path style=" stroke:none;fill-rule:nonzero;fill:rgb(58.428955%,69.40918%,66.268921%);fill-opacity:1;" d="M 479.472656 275.421875 C 452.84375 272.855469 433.003906 299.394531 422.941406 320.808594 C 408.417969 351.714844 413.324219 388.09375 398.042969 418.945312 C 374.117188 467.269531 303.539062 437.082031 262.914062 437.046875 C 245.125 437.03125 226.277344 442.507812 215.703125 457.792969 C 199.734375 480.878906 203.6875 508.671875 199.167969 534.929688 C 195.867188 554.113281 182.902344 566.003906 165.195312 572.710938 C 150.824219 578.160156 134.125 578.941406 121.621094 588.75 C 94.28125 610.1875 92.886719 647.640625 95.222656 679.457031 C 95.507812 683.410156 101.609375 683.488281 101.441406 679.457031 C 100.734375 662.125 100.777344 644.851562 104.734375 627.875 C 110.351562 603.777344 126.386719 590.277344 149.46875 583.976562 C 175.1875 576.960938 197.4375 567.742188 204.996094 540.089844 C 211.980469 514.539062 205.714844 487.4375 220.261719 463.746094 C 232.890625 443.175781 259.261719 443.230469 280.449219 445.269531 C 316.683594 448.75 364.710938 466.164062 394.457031 436.285156 C 414.71875 415.921875 415.816406 381.597656 420.042969 355.074219 C 424.898438 324.550781 442.5 279.75 479.472656 278.601562 C 481.558594 278.539062 481.484375 275.617188 479.472656 275.421875 "/>
<path style=" stroke:none;fill-rule:nonzero;fill:rgb(58.428955%,69.40918%,66.268921%);fill-opacity:1;" d="M 87.8125 553.957031 C 50.148438 559.234375 49.367188 627.210938 64.425781 651.6875 C 65.578125 653.5625 68.753906 652.355469 68.050781 650.160156 C 58.339844 619.675781 55.132812 573.488281 89.417969 557.757812 C 91.765625 556.6875 89.929688 553.660156 87.8125 553.957031 "/>
<path style=" stroke:none;fill-rule:nonzero;fill:rgb(62.748718%,37.249756%,51.368713%);fill-opacity:1;" d="M 90.839844 579.007812 C 53.78125 605.585938 54.34375 671.617188 84.0625 703.332031 C 85.355469 704.710938 87.246094 702.96875 86.527344 701.433594 C 77.488281 682.277344 69.785156 664.96875 68.878906 643.414062 C 67.863281 619.125 78.015625 599.949219 93.035156 581.851562 C 94.253906 580.386719 92.628906 577.722656 90.839844 579.007812 "/>
<path style=" stroke:none;fill-rule:nonzero;fill:rgb(62.748718%,37.249756%,51.368713%);fill-opacity:1;" d="M 103.109375 573.183594 C 106.046875 573.144531 108.941406 572.042969 111.746094 571.222656 C 114.496094 570.421875 117.53125 569.34375 120.011719 567.902344 C 121.289062 567.160156 120.828125 564.839844 119.222656 564.984375 C 116.28125 565.25 113.421875 566.234375 110.578125 566.988281 C 107.851562 567.714844 104.679688 568.753906 102.339844 570.359375 C 101.148438 571.175781 101.507812 573.207031 103.109375 573.183594 "/>
<path style=" stroke:none;fill-rule:nonzero;fill:rgb(62.748718%,37.249756%,51.368713%);fill-opacity:1;" d="M 141.601562 552.4375 C 184.554688 570.007812 189.304688 479.492188 195.652344 457.496094 C 200.964844 439.066406 214.964844 424.785156 232.949219 418.640625 C 251.105469 412.441406 272.367188 418.132812 291.011719 419.140625 C 322.285156 420.839844 348.480469 410.039062 369.167969 386.242188 C 371.480469 383.582031 367.992188 380.128906 365.324219 382.398438 C 351.78125 393.894531 339.207031 405.019531 321.941406 410.421875 C 306.691406 415.195312 290.058594 413.476562 274.421875 412.15625 C 247.421875 409.871094 219.640625 409.429688 201.820312 433.683594 C 188.203125 452.222656 186.511719 473.933594 182.3125 495.839844 C 177.640625 520.210938 171.5625 550.128906 141.894531 550.316406 C 140.589844 550.328125 140.53125 551.996094 141.601562 552.4375 "/>
<path style=" stroke:none;fill-rule:nonzero;fill:rgb(58.428955%,69.40918%,66.268921%);fill-opacity:1;" d="M 316.296875 239.925781 C 309.667969 276.113281 304.714844 311.566406 273.148438 335.070312 C 259.007812 345.59375 239.222656 347.585938 222.59375 351.851562 C 208.191406 355.550781 195.640625 362.257812 185.054688 372.6875 C 163.132812 394.289062 165.386719 421.652344 167.601562 449.652344 C 171.09375 493.863281 147.535156 528.523438 106.222656 544.304688 C 102.816406 545.601562 104.085938 550.664062 107.75 549.828125 C 139.289062 542.644531 162.949219 516.878906 172.355469 486.566406 C 177.289062 470.6875 175.039062 453.300781 173.507812 437.082031 C 171.335938 413.96875 174.410156 395.738281 189.828125 377.453125 C 203.585938 361.136719 226.582031 357.609375 246.082031 352.597656 C 262.105469 348.484375 275.570312 341.578125 287.671875 330.28125 C 312.363281 307.238281 316.015625 271.902344 318.945312 240.28125 C 319.085938 238.773438 316.566406 238.4375 316.296875 239.925781 "/>
<g clip-path="url(#clip1)" clip-rule="nonzero">
<path style=" stroke:none;fill-rule:nonzero;fill:rgb(62.748718%,37.249756%,51.368713%);fill-opacity:1;" d="M 322.027344 220.660156 C 324.738281 172.175781 381.695312 137.0625 424.238281 125.703125 C 455.519531 117.34375 488.203125 121.96875 520.09375 120.636719 C 549.550781 119.402344 581.152344 114.875 607.324219 100.640625 C 608.734375 99.875 607.757812 97.695312 606.246094 98.089844 C 569.773438 107.6875 535.636719 115.027344 497.648438 115.164062 C 465.027344 115.285156 432.503906 113.675781 401.867188 127.242188 C 367.207031 142.59375 314.300781 176.757812 318.449219 220.660156 C 318.664062 222.929688 321.894531 222.984375 322.027344 220.660156 "/>
</g>
<path style=" stroke:none;fill-rule:nonzero;fill:rgb(62.748718%,37.249756%,51.368713%);fill-opacity:1;" d="M 197.019531 414.617188 C 220.363281 376.421875 261.941406 388.351562 299.148438 377.730469 C 347.023438 364.054688 341.164062 301.800781 354.476562 264.125 C 355.511719 261.199219 351.121094 259.554688 349.597656 262.070312 C 334.367188 287.207031 338.335938 318.992188 326.933594 345.769531 C 318.410156 365.773438 298.230469 372.746094 278.386719 375.816406 C 247.898438 380.523438 207.320312 378.699219 194.332031 413.484375 C 193.730469 415.09375 196.179688 415.992188 197.019531 414.617188 "/>
<path style=" stroke:none;fill-rule:nonzero;fill:rgb(62.748718%,37.249756%,51.368713%);fill-opacity:1;" d="M 372.265625 375.351562 C 382.757812 366.859375 384.960938 352.527344 386.777344 339.898438 C 389.320312 322.214844 389.707031 305.808594 398.628906 289.839844 C 408.617188 271.953125 426.855469 259.394531 445.371094 251.671875 C 462.933594 244.347656 480.234375 245.222656 498.683594 244.242188 C 500.59375 244.140625 500.910156 241.597656 499.125 240.972656 C 468.304688 230.230469 429 248.902344 407.230469 270.148438 C 395.199219 281.894531 387.722656 297.113281 384.910156 313.53125 C 381.414062 333.921875 383.613281 356.015625 370.015625 373.101562 C 368.734375 374.710938 370.65625 376.65625 372.265625 375.351562 "/>
<path style=" stroke:none;fill-rule:nonzero;fill:rgb(62.748718%,37.249756%,51.368713%);fill-opacity:1;" d="M 227.390625 192.71875 C 229.582031 159.582031 249.535156 132.972656 274.050781 112.339844 C 276.320312 110.433594 273.433594 107.472656 271.113281 108.535156 C 243.921875 120.933594 220.851562 163.351562 224.011719 192.71875 C 224.234375 194.863281 227.246094 194.921875 227.390625 192.71875 "/>
<path style=" stroke:none;fill-rule:nonzero;fill:rgb(58.428955%,69.40918%,66.268921%);fill-opacity:1;" d="M 265.527344 285.84375 C 252.855469 308.152344 236.894531 325.984375 212.632812 335.605469 C 193.796875 343.070312 175.460938 343.40625 158.566406 355.964844 C 131.925781 375.765625 122.613281 415.59375 131.613281 446.535156 C 132.160156 448.410156 134.933594 448.015625 134.984375 446.082031 C 135.480469 427.363281 134.792969 409.601562 140.996094 391.578125 C 148.066406 371.019531 164.652344 356.496094 184.65625 349.058594 C 202.773438 342.324219 219.902344 339.492188 236.074219 328.097656 C 250.449219 317.976562 260.8125 303.132812 268.660156 287.671875 C 269.710938 285.597656 266.6875 283.792969 265.527344 285.84375 "/>
<path style=" stroke:none;fill-rule:nonzero;fill:rgb(58.428955%,69.40918%,66.268921%);fill-opacity:1;" d="M 132.53125 459.511719 C 135.242188 474.890625 133.730469 488.574219 128.421875 503.191406 C 127.65625 505.316406 130.855469 506.5 131.964844 504.6875 C 140.4375 490.808594 139.800781 473.757812 136.835938 458.328125 C 136.289062 455.496094 132.039062 456.714844 132.53125 459.511719 "/>
<path style=" stroke:none;fill-rule:nonzero;fill:rgb(58.428955%,69.40918%,66.268921%);fill-opacity:1;" d="M 95.890625 596.09375 C 72.597656 632.402344 66.714844 702.773438 103.417969 733.496094 C 104.695312 734.5625 106.835938 733.199219 105.84375 731.625 C 92.617188 710.734375 84.191406 691.789062 82.792969 666.648438 C 81.460938 642.8125 87.472656 618.589844 97.835938 597.230469 C 98.46875 595.933594 96.683594 594.863281 95.890625 596.09375 "/>
<path style=" stroke:none;fill-rule:nonzero;fill:rgb(58.428955%,69.40918%,66.268921%);fill-opacity:1;" d="M 242.523438 465.011719 C 222.300781 476.257812 225.863281 504.421875 226.933594 523.933594 C 229.136719 563.988281 199.984375 583.523438 167.878906 598.488281 C 165.476562 599.613281 167.300781 602.859375 169.558594 602.472656 C 194.035156 598.292969 218.347656 578.449219 227.242188 555.203125 C 232.082031 542.554688 232.78125 530.714844 232.011719 517.355469 C 231.089844 501.203125 229.03125 478.742188 244.722656 468.777344 C 247.09375 467.273438 244.988281 463.640625 242.523438 465.011719 "/>
<g clip-path="url(#clip2)" clip-rule="nonzero">
<path style=" stroke:none;fill-rule:nonzero;fill:rgb(58.428955%,69.40918%,66.268921%);fill-opacity:1;" d="M 609.433594 123.820312 C 559.332031 153.058594 499.179688 143.34375 443.738281 150.632812 C 406.507812 155.535156 354.6875 171.238281 348.699219 215.253906 C 348.375 217.640625 351.875 219.792969 353.042969 217.082031 C 362.585938 194.898438 374.148438 179.894531 396.496094 169.441406 C 417.847656 159.453125 442.5625 156.648438 465.753906 154.566406 C 515.210938 150.132812 568.203125 155.851562 611.585938 127.496094 C 613.875 126.003906 611.828125 122.421875 609.433594 123.820312 "/>
</g>
<path style=" stroke:none;fill-rule:nonzero;fill:rgb(62.748718%,37.249756%,51.368713%);fill-opacity:1;" d="M 450.328125 358.871094 C 458.472656 341.011719 465.277344 324.992188 480.011719 311.335938 C 495.84375 296.664062 515.785156 293.855469 536.460938 294.113281 C 539.152344 294.148438 539.761719 290.023438 537.101562 289.402344 C 494.472656 279.425781 453.488281 316.511719 446.164062 357.117188 C 445.738281 359.476562 449.183594 361.378906 450.328125 358.871094 "/>
<path style=" stroke:none;fill-rule:nonzero;fill:rgb(58.428955%,69.40918%,66.268921%);fill-opacity:1;" d="M 277.121094 269.328125 C 289.117188 247.253906 291.710938 222.058594 297.503906 197.964844 C 303.339844 173.730469 316.820312 153 335.09375 136.285156 C 369.632812 104.695312 414.796875 102.820312 458.550781 96.9375 C 460.660156 96.65625 459.84375 93.738281 458.082031 93.527344 C 415.308594 88.359375 366.90625 102.023438 333.605469 129.183594 C 316.84375 142.851562 305.160156 161.566406 296.84375 181.265625 C 285.230469 208.792969 286.011719 240.386719 274.929688 268.402344 C 274.421875 269.679688 276.484375 270.5 277.121094 269.328125 "/>
<path style=" stroke:none;fill-rule:nonzero;fill:rgb(62.748718%,37.249756%,51.368713%);fill-opacity:1;" d="M 586.828125 165.464844 C 566.296875 177.351562 545.316406 186.199219 522.085938 191.199219 C 498.164062 196.351562 473.976562 196.394531 449.710938 198.003906 C 417.0625 200.160156 376.738281 209.449219 361.777344 242.152344 C 360.882812 244.105469 363.46875 246.625 365.011719 244.648438 C 392.824219 208.984375 429.320312 204.617188 471.886719 201.578125 C 512.636719 198.671875 554.046875 191.613281 588.5625 168.421875 C 590.382812 167.207031 588.761719 164.347656 586.828125 165.464844 "/>
<path style=" stroke:none;fill-rule:nonzero;fill:rgb(62.748718%,37.249756%,51.368713%);fill-opacity:1;" d="M 500.464844 275.785156 C 503.324219 275.972656 505.953125 275.8125 508.253906 273.96875 C 508.902344 273.445312 508.164062 272.648438 507.535156 272.738281 C 505.171875 273.074219 502.851562 273.363281 500.464844 273.53125 C 499.011719 273.636719 499.007812 275.691406 500.464844 275.785156 "/>
</g>
</svg>
