<?xml version="1.0" encoding="UTF-8"?>
<svg xmlns="http://www.w3.org/2000/svg" xmlns:xlink="http://www.w3.org/1999/xlink" width="595.5pt" height="842.249979pt" viewBox="0 0 595.5 842.249979" version="1.2">
<defs>
<clipPath id="clip1">
  <path d="M 293 712 L 594.628906 712 L 594.628906 775 L 293 775 Z M 293 712 "/>
</clipPath>
<clipPath id="clip2">
  <path d="M 315 724 L 594.628906 724 L 594.628906 763 L 315 763 Z M 315 724 "/>
</clipPath>
<clipPath id="clip3">
  <path d="M 0.015625 505.109375 L 85 505.109375 L 85 540 L 0.015625 540 Z M 0.015625 505.109375 "/>
</clipPath>
<clipPath id="clip4">
  <path d="M 0.015625 539 L 46 539 L 46 841.5 L 0.015625 841.5 Z M 0.015625 539 "/>
</clipPath>
<clipPath id="clip5">
  <path d="M 45 505.109375 L 86 505.109375 L 86 841.5 L 45 841.5 Z M 45 505.109375 "/>
</clipPath>
<clipPath id="clip6">
  <path d="M 67 505.109375 L 152 505.109375 L 152 540 L 67 540 Z M 67 505.109375 "/>
</clipPath>
<clipPath id="clip7">
  <path d="M 67 539 L 113 539 L 113 841.5 L 67 841.5 Z M 67 539 "/>
</clipPath>
<clipPath id="clip8">
  <path d="M 111 505.109375 L 152 505.109375 L 152 841.5 L 111 841.5 Z M 111 505.109375 "/>
</clipPath>
</defs>
<g id="surface1">
<path style=" stroke:none;fill-rule:nonzero;fill:rgb(97.24884%,63.529968%,16.079712%);fill-opacity:1;" d="M 564.679688 824.371094 C 564.679688 831.488281 562.945312 837.261719 555.84375 837.261719 L 276.992188 837.261719 C 269.875 837.261719 264.117188 831.488281 264.117188 824.371094 L 264.117188 787.785156 C 264.117188 780.667969 269.875 774.894531 276.992188 774.894531 L 555.84375 774.894531 C 562.945312 774.894531 564.679688 780.667969 564.679688 787.785156 L 564.679688 824.371094 "/>
<path style=" stroke:none;fill-rule:nonzero;fill:rgb(82.348633%,49.409485%,10.978699%);fill-opacity:1;" d="M 317.4375 774.894531 L 276.992188 774.894531 C 269.875 774.894531 264.117188 780.667969 264.117188 787.785156 L 264.117188 824.371094 C 264.117188 831.488281 269.875 837.261719 276.992188 837.261719 L 317.4375 837.261719 L 317.4375 774.894531 "/>
<path style=" stroke:none;fill-rule:nonzero;fill:rgb(68.238831%,83.529663%,89.7995%);fill-opacity:1;" d="M 564.679688 825.320312 L 285.671875 825.320312 L 285.671875 786.699219 L 564.679688 786.699219 L 564.679688 825.320312 "/>
<path style=" stroke:none;fill-rule:nonzero;fill:rgb(7.839966%,70.199585%,94.119263%);fill-opacity:1;" d="M 285.671875 786.820312 L 285.671875 825.421875 C 290.261719 825.371094 293.976562 817.890625 293.976562 808.691406 L 293.976562 803.554688 C 293.976562 794.351562 290.261719 786.871094 285.671875 786.820312 "/>
<path style=" stroke:none;fill-rule:nonzero;fill:rgb(7.839966%,70.199585%,94.119263%);fill-opacity:1;" d="M 310.976562 795.851562 C 310.976562 795.851562 311.9375 795.816406 313.777344 795.730469 C 315.597656 795.679688 318.28125 795.542969 321.71875 795.453125 C 328.542969 795.265625 338.308594 794.902344 350.03125 794.679688 C 355.894531 794.558594 362.234375 794.457031 368.941406 794.316406 C 375.660156 794.230469 382.742188 794.144531 390.066406 794.042969 C 397.390625 793.988281 404.953125 793.9375 412.636719 793.871094 C 420.320312 793.851562 428.140625 793.835938 435.945312 793.800781 C 443.765625 793.835938 451.589844 793.851562 459.273438 793.871094 C 466.957031 793.871094 474.519531 793.988281 481.84375 794.042969 C 496.503906 794.195312 510.171875 794.402344 521.878906 794.679688 C 533.601562 794.902344 543.367188 795.265625 550.207031 795.453125 C 553.628906 795.542969 556.308594 795.679688 558.148438 795.730469 C 559.972656 795.816406 560.949219 795.851562 560.949219 795.851562 C 560.949219 795.851562 559.972656 795.886719 558.148438 795.953125 C 556.308594 796.023438 553.628906 796.160156 550.207031 796.246094 C 543.367188 796.421875 533.601562 796.800781 521.878906 797.023438 C 510.171875 797.28125 496.503906 797.503906 481.84375 797.644531 C 474.519531 797.695312 466.957031 797.832031 459.273438 797.832031 C 451.589844 797.851562 443.765625 797.867188 435.945312 797.882812 C 428.140625 797.867188 420.320312 797.851562 412.636719 797.816406 C 404.953125 797.765625 397.390625 797.710938 390.066406 797.644531 C 382.742188 797.558594 375.660156 797.453125 368.941406 797.367188 C 362.234375 797.246094 355.894531 797.125 350.03125 797.023438 C 338.308594 796.78125 328.542969 796.417969 321.71875 796.246094 C 318.28125 796.160156 315.597656 796.023438 313.777344 795.953125 C 311.9375 795.886719 310.976562 795.851562 310.976562 795.851562 "/>
<path style=" stroke:none;fill-rule:nonzero;fill:rgb(7.839966%,70.199585%,94.119263%);fill-opacity:1;" d="M 310.976562 806.070312 C 310.976562 806.070312 318.640625 805.398438 330.160156 804.914062 C 333.046875 804.777344 336.160156 804.640625 339.460938 804.554688 C 342.757812 804.449219 346.230469 804.328125 349.824219 804.277344 C 353.433594 804.226562 357.148438 804.105469 360.929688 804.105469 C 364.710938 804.070312 368.542969 804.054688 372.378906 804.035156 C 376.226562 804.054688 380.0625 804.070312 383.84375 804.105469 C 387.625 804.105469 391.339844 804.226562 394.929688 804.277344 C 402.132812 804.417969 408.855469 804.640625 414.613281 804.898438 C 426.128906 805.398438 433.796875 806.070312 433.796875 806.070312 C 433.796875 806.070312 426.128906 806.777344 414.613281 807.257812 C 408.855469 807.519531 402.132812 807.742188 394.929688 807.878906 C 391.339844 807.929688 387.625 808.050781 383.84375 808.050781 C 380.0625 808.070312 376.226562 808.105469 372.378906 808.121094 C 368.542969 808.105469 364.710938 808.070312 360.929688 808.050781 C 357.148438 808.050781 353.433594 807.929688 349.824219 807.878906 C 346.230469 807.828125 342.757812 807.707031 339.460938 807.605469 C 336.160156 807.519531 333.046875 807.378906 330.160156 807.242188 C 318.640625 806.757812 310.976562 806.070312 310.976562 806.070312 "/>
<path style=" stroke:none;fill-rule:nonzero;fill:rgb(7.839966%,70.199585%,94.119263%);fill-opacity:1;" d="M 449.457031 806.070312 C 449.457031 806.070312 456.417969 805.398438 466.871094 804.914062 C 469.5 804.777344 472.320312 804.640625 475.3125 804.554688 C 478.300781 804.449219 481.464844 804.328125 484.730469 804.277344 C 487.996094 804.226562 491.367188 804.105469 494.785156 804.105469 C 498.226562 804.070312 501.714844 804.054688 505.203125 804.035156 C 508.675781 804.054688 512.164062 804.070312 515.605469 804.105469 C 519.023438 804.105469 522.394531 804.226562 525.660156 804.277344 C 532.191406 804.417969 538.292969 804.640625 543.519531 804.898438 C 553.972656 805.398438 560.949219 806.070312 560.949219 806.070312 C 560.949219 806.070312 553.972656 806.777344 543.519531 807.257812 C 538.292969 807.519531 532.191406 807.742188 525.660156 807.878906 C 522.394531 807.929688 519.023438 808.050781 515.605469 808.050781 C 512.164062 808.070312 508.675781 808.105469 505.203125 808.121094 C 501.714844 808.105469 498.226562 808.070312 494.785156 808.050781 C 491.367188 808.050781 487.996094 807.929688 484.730469 807.878906 C 481.464844 807.828125 478.300781 807.707031 475.3125 807.605469 C 472.320312 807.519531 469.5 807.378906 466.871094 807.242188 C 456.417969 806.757812 449.457031 806.070312 449.457031 806.070312 "/>
<path style=" stroke:none;fill-rule:nonzero;fill:rgb(7.839966%,70.199585%,94.119263%);fill-opacity:1;" d="M 310.976562 816.324219 C 310.976562 816.324219 311.113281 816.132812 311.355469 815.910156 C 311.59375 815.667969 311.9375 815.394531 312.351562 815.136719 C 313.175781 814.617188 314.292969 814.273438 315.394531 814.257812 C 316.492188 814.257812 317.59375 814.601562 318.4375 815.117188 C 318.847656 815.394531 319.191406 815.667969 319.433594 815.910156 C 319.671875 816.132812 319.8125 816.324219 319.8125 816.324219 C 319.8125 816.324219 319.671875 816.496094 319.433594 816.71875 C 319.191406 816.960938 318.847656 817.238281 318.4375 817.496094 C 317.59375 818.011719 316.492188 818.359375 315.394531 818.359375 C 314.292969 818.359375 313.175781 818.011719 312.351562 817.496094 C 311.9375 817.238281 311.59375 816.945312 311.355469 816.71875 C 311.113281 816.496094 310.976562 816.324219 310.976562 816.324219 "/>
<path style=" stroke:none;fill-rule:nonzero;fill:rgb(7.839966%,70.199585%,94.119263%);fill-opacity:1;" d="M 335.917969 816.324219 C 335.917969 816.324219 344.496094 815.636719 357.371094 815.152344 C 360.585938 815.015625 364.074219 814.875 367.769531 814.789062 C 371.449219 814.6875 375.351562 814.566406 379.375 814.515625 C 383.394531 814.464844 387.554688 814.359375 391.785156 814.34375 C 396.015625 814.324219 400.292969 814.289062 404.589844 814.273438 C 408.890625 814.289062 413.167969 814.324219 417.398438 814.34375 C 421.625 814.34375 425.785156 814.464844 429.808594 814.515625 C 437.855469 814.652344 445.367188 814.875 451.8125 815.136719 C 464.6875 815.617188 473.265625 816.324219 473.265625 816.324219 C 473.265625 816.324219 464.6875 816.996094 451.8125 817.496094 C 445.367188 817.753906 437.855469 817.976562 429.808594 818.117188 C 425.785156 818.167969 421.625 818.289062 417.398438 818.289062 C 413.167969 818.304688 408.890625 818.339844 404.589844 818.359375 C 400.292969 818.339844 396.015625 818.304688 391.785156 818.289062 C 387.554688 818.289062 383.394531 818.167969 379.375 818.117188 C 375.351562 818.066406 371.449219 817.925781 367.769531 817.839844 C 364.074219 817.753906 360.585938 817.617188 357.371094 817.496094 C 344.496094 816.996094 335.917969 816.324219 335.917969 816.324219 "/>
<path style=" stroke:none;fill-rule:nonzero;fill:rgb(7.839966%,70.199585%,94.119263%);fill-opacity:1;" d="M 485.519531 816.324219 C 485.519531 816.324219 490.230469 815.636719 497.3125 815.152344 C 499.085938 815.015625 500.992188 814.875 503.019531 814.789062 C 505.03125 814.6875 507.179688 814.566406 509.382812 814.515625 C 511.597656 814.464844 513.886719 814.359375 516.207031 814.34375 C 518.527344 814.324219 520.882812 814.289062 523.234375 814.273438 C 525.589844 814.289062 527.945312 814.324219 530.265625 814.34375 C 532.585938 814.34375 534.875 814.464844 537.074219 814.515625 C 541.507812 814.652344 545.617188 814.875 549.160156 815.136719 C 556.242188 815.617188 560.949219 816.324219 560.949219 816.324219 C 560.949219 816.324219 556.242188 816.996094 549.160156 817.496094 C 545.617188 817.753906 541.507812 817.976562 537.074219 818.117188 C 534.875 818.167969 532.585938 818.289062 530.265625 818.289062 C 527.945312 818.304688 525.589844 818.339844 523.234375 818.359375 C 520.882812 818.339844 518.527344 818.304688 516.207031 818.289062 C 513.886719 818.289062 511.597656 818.167969 509.382812 818.117188 C 507.179688 818.066406 505.03125 817.925781 503.019531 817.839844 C 500.992188 817.753906 499.085938 817.617188 497.3125 817.496094 C 490.230469 816.996094 485.519531 816.324219 485.519531 816.324219 "/>
<g clip-path="url(#clip1)" clip-rule="nonzero">
<path style=" stroke:none;fill-rule:nonzero;fill:rgb(10.198975%,12.939453%,25.099182%);fill-opacity:1;" d="M 594.539062 761.988281 C 594.539062 769.121094 592.785156 774.894531 585.6875 774.894531 L 306.832031 774.894531 C 299.734375 774.894531 293.976562 769.121094 293.976562 761.988281 L 293.976562 725.417969 C 293.976562 718.285156 299.734375 712.511719 306.832031 712.511719 L 585.6875 712.511719 C 592.785156 712.511719 594.539062 718.285156 594.539062 725.417969 L 594.539062 761.988281 "/>
</g>
<path style=" stroke:none;fill-rule:nonzero;fill:rgb(8.239746%,10.198975%,20.388794%);fill-opacity:1;" d="M 347.28125 712.511719 L 306.832031 712.511719 C 299.734375 712.511719 293.976562 718.285156 293.976562 725.417969 L 293.976562 761.988281 C 293.976562 769.121094 299.734375 774.894531 306.832031 774.894531 L 347.28125 774.894531 L 347.28125 712.511719 "/>
<g clip-path="url(#clip2)" clip-rule="nonzero">
<path style=" stroke:none;fill-rule:nonzero;fill:rgb(68.238831%,83.529663%,89.7995%);fill-opacity:1;" d="M 594.539062 762.953125 L 315.511719 762.953125 L 315.511719 724.316406 L 594.539062 724.316406 L 594.539062 762.953125 "/>
</g>
<path style=" stroke:none;fill-rule:nonzero;fill:rgb(7.839966%,70.199585%,94.119263%);fill-opacity:1;" d="M 315.511719 724.4375 L 315.511719 763.058594 C 320.101562 762.988281 323.816406 755.527344 323.816406 746.324219 L 323.816406 741.171875 C 323.816406 731.96875 320.101562 724.507812 315.511719 724.4375 "/>
<path style=" stroke:none;fill-rule:nonzero;fill:rgb(7.839966%,70.199585%,94.119263%);fill-opacity:1;" d="M 340.816406 733.46875 C 340.816406 733.46875 341.796875 733.433594 343.617188 733.363281 C 345.457031 733.296875 348.140625 733.15625 351.542969 733.070312 C 358.386719 732.898438 368.148438 732.539062 379.871094 732.3125 C 385.734375 732.191406 392.078125 732.070312 398.796875 731.953125 C 405.503906 731.863281 412.585938 731.761719 419.90625 731.675781 C 427.230469 731.625 434.792969 731.554688 442.476562 731.503906 C 450.179688 731.46875 457.984375 731.453125 465.804688 731.417969 C 473.609375 731.453125 481.414062 731.46875 489.113281 731.484375 C 496.796875 731.503906 504.363281 731.625 511.703125 731.675781 C 526.347656 731.8125 540.011719 732.039062 551.738281 732.296875 C 563.441406 732.519531 573.222656 732.898438 580.046875 733.070312 C 583.46875 733.15625 586.152344 733.296875 587.972656 733.363281 C 589.8125 733.433594 590.773438 733.46875 590.773438 733.46875 C 590.773438 733.46875 589.8125 733.519531 587.972656 733.589844 C 586.152344 733.640625 583.46875 733.777344 580.046875 733.863281 C 573.222656 734.035156 563.441406 734.414062 551.738281 734.65625 C 540.011719 734.914062 526.347656 735.140625 511.703125 735.277344 C 504.363281 735.328125 496.796875 735.449219 489.113281 735.449219 C 481.414062 735.464844 473.609375 735.5 465.804688 735.519531 C 457.984375 735.5 450.179688 735.464844 442.476562 735.449219 C 434.792969 735.378906 427.230469 735.328125 419.90625 735.261719 C 412.585938 735.171875 405.503906 735.085938 398.796875 734.984375 C 392.078125 734.863281 385.734375 734.742188 379.871094 734.640625 C 368.148438 734.414062 358.386719 734.035156 351.542969 733.863281 C 348.140625 733.777344 345.457031 733.640625 343.617188 733.570312 C 341.796875 733.519531 340.816406 733.46875 340.816406 733.46875 "/>
<path style=" stroke:none;fill-rule:nonzero;fill:rgb(7.839966%,70.199585%,94.119263%);fill-opacity:1;" d="M 340.816406 743.703125 C 340.816406 743.703125 348.484375 743.015625 360 742.53125 C 362.890625 742.410156 366 742.273438 369.300781 742.1875 C 372.601562 742.085938 376.089844 741.964844 379.683594 741.910156 C 383.277344 741.84375 386.988281 741.738281 390.769531 741.722656 C 394.550781 741.707031 398.386719 741.6875 402.238281 741.671875 C 406.070312 741.6875 409.902344 741.707031 413.683594 741.722656 C 417.464844 741.722656 421.179688 741.84375 424.773438 741.910156 C 431.976562 742.050781 438.695312 742.257812 444.453125 742.53125 C 455.953125 743.015625 463.640625 743.703125 463.640625 743.703125 C 463.640625 743.703125 455.953125 744.394531 444.453125 744.875 C 438.695312 745.152344 431.976562 745.359375 424.773438 745.511719 C 421.179688 745.566406 417.464844 745.6875 413.683594 745.6875 C 409.902344 745.703125 406.070312 745.738281 402.238281 745.753906 C 398.386719 745.71875 394.550781 745.703125 390.769531 745.6875 C 386.988281 745.667969 383.277344 745.546875 379.683594 745.496094 C 376.089844 745.445312 372.601562 745.324219 369.300781 745.238281 C 366 745.152344 362.890625 744.996094 360 744.875 C 348.484375 744.394531 340.816406 743.703125 340.816406 743.703125 "/>
<path style=" stroke:none;fill-rule:nonzero;fill:rgb(7.839966%,70.199585%,94.119263%);fill-opacity:1;" d="M 479.296875 743.703125 C 479.296875 743.703125 486.261719 743.015625 496.730469 742.53125 C 499.324219 742.410156 502.160156 742.273438 505.152344 742.1875 C 508.144531 742.085938 511.304688 741.964844 514.574219 741.910156 C 517.839844 741.84375 521.226562 741.738281 524.644531 741.722656 C 528.066406 741.707031 531.554688 741.6875 535.046875 741.671875 C 538.535156 741.6875 542.007812 741.707031 545.445312 741.722656 C 548.867188 741.722656 552.234375 741.84375 555.519531 741.910156 C 562.050781 742.050781 568.136719 742.257812 573.363281 742.53125 C 583.8125 743.015625 590.773438 743.703125 590.773438 743.703125 C 590.773438 743.703125 583.8125 744.394531 573.363281 744.875 C 568.136719 745.152344 562.050781 745.359375 555.519531 745.511719 C 552.234375 745.566406 548.867188 745.6875 545.445312 745.6875 C 542.007812 745.703125 538.535156 745.738281 535.046875 745.753906 C 531.554688 745.71875 528.066406 745.703125 524.644531 745.6875 C 521.226562 745.667969 517.839844 745.546875 514.574219 745.496094 C 511.304688 745.445312 508.144531 745.324219 505.152344 745.238281 C 502.160156 745.152344 499.324219 744.996094 496.730469 744.875 C 486.261719 744.394531 479.296875 743.703125 479.296875 743.703125 "/>
<path style=" stroke:none;fill-rule:nonzero;fill:rgb(7.839966%,70.199585%,94.119263%);fill-opacity:1;" d="M 340.816406 753.941406 C 340.816406 753.941406 340.9375 753.769531 341.195312 753.527344 C 341.4375 753.304688 341.78125 753.027344 342.191406 752.75 C 343.015625 752.234375 344.132812 751.890625 345.234375 751.890625 C 346.335938 751.890625 347.453125 752.21875 348.277344 752.75 C 348.691406 753.027344 349.035156 753.304688 349.273438 753.527344 C 349.515625 753.769531 349.652344 753.941406 349.652344 753.941406 C 349.652344 753.941406 349.515625 754.113281 349.273438 754.355469 C 349.035156 754.578125 348.691406 754.871094 348.277344 755.128906 C 347.453125 755.648438 346.335938 755.992188 345.234375 755.972656 C 344.132812 755.972656 343.015625 755.648438 342.191406 755.113281 C 341.78125 754.855469 341.4375 754.578125 341.195312 754.355469 C 340.9375 754.113281 340.816406 753.941406 340.816406 753.941406 "/>
<path style=" stroke:none;fill-rule:nonzero;fill:rgb(7.839966%,70.199585%,94.119263%);fill-opacity:1;" d="M 365.742188 753.941406 C 365.742188 753.941406 374.335938 753.25 387.210938 752.769531 C 390.425781 752.648438 393.917969 752.511719 397.613281 752.425781 C 401.308594 752.320312 405.191406 752.183594 409.214844 752.148438 C 413.238281 752.078125 417.398438 751.976562 421.625 751.957031 C 425.855469 751.941406 430.136719 751.90625 434.433594 751.890625 C 438.730469 751.90625 443.027344 751.941406 447.238281 751.957031 C 451.46875 751.957031 455.628906 752.078125 459.652344 752.132812 C 467.710938 752.285156 475.207031 752.492188 481.652344 752.769531 C 494.527344 753.25 503.105469 753.941406 503.105469 753.941406 C 503.105469 753.941406 494.527344 754.628906 481.652344 755.113281 C 475.207031 755.386719 467.710938 755.59375 459.652344 755.734375 C 455.628906 755.785156 451.46875 755.921875 447.238281 755.921875 C 443.027344 755.941406 438.730469 755.957031 434.433594 755.972656 C 430.136719 755.957031 425.855469 755.941406 421.625 755.921875 C 417.398438 755.90625 413.238281 755.785156 409.214844 755.734375 C 405.191406 755.679688 401.308594 755.558594 397.613281 755.457031 C 393.917969 755.371094 390.425781 755.234375 387.210938 755.113281 C 374.335938 754.628906 365.742188 753.941406 365.742188 753.941406 "/>
<path style=" stroke:none;fill-rule:nonzero;fill:rgb(7.839966%,70.199585%,94.119263%);fill-opacity:1;" d="M 515.363281 753.941406 C 515.363281 753.941406 520.074219 753.25 527.136719 752.769531 C 528.925781 752.648438 530.835938 752.511719 532.863281 752.425781 C 534.890625 752.320312 537.023438 752.183594 539.238281 752.148438 C 541.441406 752.078125 543.726562 751.976562 546.046875 751.957031 C 548.351562 751.941406 550.722656 751.90625 553.078125 751.890625 C 555.433594 751.90625 557.789062 751.941406 560.109375 751.957031 C 562.429688 751.957031 564.714844 752.078125 566.933594 752.132812 C 571.351562 752.285156 575.457031 752.492188 579 752.769531 C 586.082031 753.25 590.773438 753.941406 590.773438 753.941406 C 590.773438 753.941406 586.082031 754.628906 579 755.113281 C 575.457031 755.386719 571.351562 755.59375 566.933594 755.734375 C 564.714844 755.785156 562.429688 755.921875 560.109375 755.921875 C 557.789062 755.941406 555.433594 755.957031 553.078125 755.972656 C 550.722656 755.957031 548.351562 755.941406 546.046875 755.921875 C 543.726562 755.90625 541.441406 755.785156 539.238281 755.734375 C 537.023438 755.679688 534.890625 755.558594 532.863281 755.457031 C 530.835938 755.371094 528.925781 755.234375 527.136719 755.113281 C 520.074219 754.628906 515.363281 753.941406 515.363281 753.941406 "/>
<path style=" stroke:none;fill-rule:nonzero;fill:rgb(93.728638%,18.429565%,30.589294%);fill-opacity:1;" d="M 408.289062 639.011719 C 412.929688 644.390625 415.386719 649.90625 410.007812 654.574219 L 229.667969 810.894531 L 199.085938 837.417969 C 193.707031 842.085938 185.59375 841.484375 180.933594 836.109375 L 157.074219 808.429688 C 152.417969 803.039062 153.011719 794.902344 158.382812 790.234375 L 188.980469 763.710938 L 369.316406 607.390625 C 374.679688 602.71875 379.769531 605.960938 384.410156 611.335938 L 408.289062 639.011719 "/>
<path style=" stroke:none;fill-rule:nonzero;fill:rgb(73.329163%,10.198975%,20.388794%);fill-opacity:1;" d="M 188.980469 763.710938 L 158.382812 790.234375 C 153.011719 794.902344 152.417969 803.039062 157.074219 808.429688 L 180.933594 836.109375 C 185.59375 841.484375 193.707031 842.085938 199.085938 837.417969 L 229.667969 810.894531 L 188.980469 763.710938 "/>
<path style=" stroke:none;fill-rule:nonzero;fill:rgb(68.238831%,83.529663%,89.7995%);fill-opacity:1;" d="M 408.90625 639.71875 L 197.867188 822.683594 L 172.660156 793.472656 L 383.699219 610.511719 L 408.898438 639.71875 "/>
<path style=" stroke:none;fill-rule:nonzero;fill:rgb(7.839966%,70.199585%,94.119263%);fill-opacity:1;" d="M 172.738281 793.558594 L 197.933594 822.769531 C 201.355469 819.71875 199.292969 811.636719 193.292969 804.675781 L 189.925781 800.78125 C 183.925781 793.816406 176.246094 790.59375 172.738281 793.558594 "/>
<path style=" stroke:none;fill-rule:nonzero;fill:rgb(7.839966%,70.199585%,94.119263%);fill-opacity:1;" d="M 197.761719 783.804688 C 197.761719 783.804688 198.46875 783.132812 199.808594 781.890625 C 201.148438 780.632812 203.09375 778.773438 205.636719 776.464844 C 210.671875 771.84375 217.824219 765.175781 226.539062 757.316406 C 230.90625 753.390625 235.632812 749.132812 240.617188 744.632812 C 245.636719 740.171875 250.929688 735.449219 256.414062 730.589844 C 261.914062 725.730469 267.605469 720.734375 273.382812 715.648438 C 279.175781 710.582031 285.070312 705.445312 290.964844 700.3125 C 296.898438 695.191406 302.808594 690.09375 308.65625 685.078125 C 314.464844 680.027344 320.273438 675.152344 325.84375 670.394531 C 337.019531 660.898438 347.503906 652.09375 356.527344 644.613281 C 365.554688 637.101562 373.167969 630.984375 378.464844 626.640625 C 381.109375 624.453125 383.222656 622.796875 384.652344 621.644531 C 386.078125 620.503906 386.851562 619.902344 386.851562 619.902344 C 386.851562 619.902344 386.128906 620.558594 384.789062 621.816406 C 383.449219 623.074219 381.523438 624.933594 378.980469 627.226562 C 373.925781 631.84375 366.789062 638.53125 358.074219 646.390625 C 349.378906 654.265625 339.183594 663.414062 328.199219 673.117188 C 322.683594 677.960938 317.042969 683.007812 311.234375 688.058594 C 305.421875 693.109375 299.527344 698.261719 293.632812 703.394531 C 287.71875 708.496094 281.785156 713.597656 275.960938 718.628906 C 270.097656 723.628906 264.339844 728.539062 258.769531 733.296875 C 253.164062 738.035156 247.75 742.601562 242.613281 746.945312 C 237.453125 751.253906 232.574219 755.320312 228.070312 759.074219 C 219.042969 766.589844 211.429688 772.722656 206.152344 777.066406 C 203.503906 779.238281 201.371094 780.894531 199.945312 782.046875 C 198.519531 783.203125 197.761719 783.804688 197.761719 783.804688 "/>
<path style=" stroke:none;fill-rule:nonzero;fill:rgb(7.839966%,70.199585%,94.119263%);fill-opacity:1;" d="M 204.433594 791.542969 C 204.433594 791.542969 209.796875 785.992188 218.183594 778.066406 C 220.28125 776.101562 222.550781 773.949219 224.992188 771.707031 C 227.433594 769.484375 229.976562 767.105469 232.660156 764.710938 C 235.339844 762.296875 238.089844 759.78125 240.945312 757.300781 C 243.78125 754.800781 246.667969 752.269531 249.554688 749.734375 C 252.476562 747.238281 255.402344 744.738281 258.269531 742.273438 C 261.125 739.792969 264.011719 737.449219 266.78125 735.121094 C 272.316406 730.519531 277.542969 726.28125 282.0625 722.695312 C 291.085938 715.511719 297.359375 710.996094 297.34375 710.996094 C 297.34375 710.996094 291.996094 716.5625 283.609375 724.472656 C 279.414062 728.453125 274.480469 733.019531 269.136719 737.84375 C 266.4375 740.257812 263.703125 742.773438 260.851562 745.253906 C 257.996094 747.753906 255.109375 750.289062 252.21875 752.820312 C 249.316406 755.320312 246.394531 757.816406 243.503906 760.28125 C 240.652344 762.746094 237.765625 765.109375 235.011719 767.417969 C 232.246094 769.742188 229.546875 771.933594 226.984375 774.015625 C 224.425781 776.121094 221.984375 778.050781 219.714844 779.859375 C 210.691406 787.027344 204.433594 791.542969 204.433594 791.542969 "/>
<path style=" stroke:none;fill-rule:nonzero;fill:rgb(7.839966%,70.199585%,94.119263%);fill-opacity:1;" d="M 309.1875 700.742188 C 309.1875 700.742188 314.019531 695.660156 321.597656 688.4375 C 323.507812 686.609375 325.550781 684.664062 327.753906 682.628906 C 329.953125 680.597656 332.257812 678.425781 334.699219 676.238281 C 337.136719 674.066406 339.613281 671.773438 342.210938 669.5 C 344.769531 667.242188 347.402344 664.949219 350.03125 662.640625 C 352.679688 660.363281 355.324219 658.109375 357.9375 655.867188 C 360.515625 653.628906 363.164062 651.507812 365.65625 649.40625 C 370.691406 645.21875 375.453125 641.390625 379.582031 638.167969 C 387.796875 631.6875 393.519531 627.621094 393.519531 627.621094 C 393.519531 627.621094 388.707031 632.722656 381.109375 639.945312 C 377.328125 643.5625 372.859375 647.734375 368.011719 652.128906 C 365.585938 654.300781 363.113281 656.609375 360.5 658.867188 C 357.9375 661.125 355.308594 663.433594 352.695312 665.726562 C 350.03125 668 347.382812 670.273438 344.769531 672.496094 C 342.175781 674.738281 339.5625 676.855469 337.035156 678.960938 C 334.542969 681.078125 332.066406 683.042969 329.746094 684.941406 C 327.425781 686.835938 325.191406 688.574219 323.128906 690.195312 C 314.910156 696.691406 309.1875 700.742188 309.1875 700.742188 "/>
<path style=" stroke:none;fill-rule:nonzero;fill:rgb(7.839966%,70.199585%,94.119263%);fill-opacity:1;" d="M 211.121094 799.28125 C 211.121094 799.28125 211.101562 799.054688 211.136719 798.730469 C 211.171875 798.402344 211.238281 797.953125 211.394531 797.488281 C 211.6875 796.558594 212.289062 795.574219 213.128906 794.851562 C 213.957031 794.109375 215.023438 793.644531 215.984375 793.492188 C 216.464844 793.421875 216.914062 793.421875 217.238281 793.421875 C 217.582031 793.4375 217.804688 793.492188 217.804688 793.492188 C 217.804688 793.492188 217.824219 793.714844 217.789062 794.042969 C 217.753906 794.386719 217.667969 794.816406 217.53125 795.300781 C 217.238281 796.230469 216.636719 797.210938 215.796875 797.9375 C 214.953125 798.660156 213.886719 799.125 212.941406 799.28125 C 212.441406 799.351562 211.996094 799.367188 211.667969 799.351562 C 211.34375 799.332031 211.121094 799.28125 211.121094 799.28125 "/>
<path style=" stroke:none;fill-rule:nonzero;fill:rgb(7.839966%,70.199585%,94.119263%);fill-opacity:1;" d="M 229.976562 782.925781 C 229.976562 782.925781 236.027344 776.773438 245.449219 767.96875 C 247.800781 765.761719 250.363281 763.367188 253.078125 760.886719 C 255.8125 758.402344 258.667969 755.75 261.675781 753.078125 C 264.699219 750.390625 267.761719 747.582031 270.957031 744.808594 C 274.136719 742.015625 277.371094 739.171875 280.601562 736.34375 C 283.851562 733.554688 287.117188 730.761719 290.332031 728.003906 C 293.527344 725.230469 296.742188 722.59375 299.835938 720.007812 C 306.007812 714.820312 311.835938 710.066406 316.871094 706.050781 C 326.945312 697.96875 333.890625 692.867188 333.890625 692.867188 C 333.890625 692.867188 327.839844 699.019531 318.417969 707.824219 C 313.707031 712.253906 308.191406 717.335938 302.191406 722.714844 C 299.183594 725.402344 296.105469 728.210938 292.910156 730.984375 C 289.730469 733.777344 286.496094 736.621094 283.265625 739.449219 C 280 742.238281 276.734375 745.03125 273.535156 747.789062 C 270.320312 750.5625 267.105469 753.199219 264.03125 755.785156 C 260.953125 758.402344 257.925781 760.851562 255.074219 763.195312 C 252.21875 765.554688 249.503906 767.726562 246.976562 769.742188 C 236.921875 777.824219 229.976562 782.925781 229.976562 782.925781 "/>
<path style=" stroke:none;fill-rule:nonzero;fill:rgb(7.839966%,70.199585%,94.119263%);fill-opacity:1;" d="M 343.15625 684.835938 C 343.15625 684.835938 346.265625 681.21875 351.304688 676.21875 C 352.558594 674.960938 353.914062 673.601562 355.394531 672.203125 C 356.855469 670.808594 358.386719 669.308594 360.035156 667.828125 C 361.667969 666.328125 363.320312 664.742188 365.070312 663.226562 C 366.808594 661.691406 368.578125 660.125 370.347656 658.554688 C 372.136719 657.023438 373.941406 655.503906 375.710938 653.988281 C 377.464844 652.472656 379.269531 651.078125 380.972656 649.644531 C 384.410156 646.871094 387.675781 644.320312 390.511719 642.203125 C 396.1875 637.945312 400.207031 635.378906 400.207031 635.378906 C 400.207031 635.378906 397.078125 638.980469 392.058594 643.992188 C 389.550781 646.511719 386.578125 649.371094 383.328125 652.386719 C 381.695312 653.867188 380.042969 655.453125 378.292969 656.988281 C 376.554688 658.519531 374.765625 660.089844 373.015625 661.65625 C 371.207031 663.175781 369.402344 664.707031 367.652344 666.207031 C 365.878906 667.722656 364.074219 669.136719 362.375 670.53125 C 360.671875 671.945312 358.96875 673.253906 357.371094 674.511719 C 355.789062 675.769531 354.242188 676.925781 352.816406 677.976562 C 347.160156 682.25 343.15625 684.835938 343.15625 684.835938 "/>
<g clip-path="url(#clip3)" clip-rule="nonzero">
<path style=" stroke:none;fill-rule:nonzero;fill:rgb(99.21875%,89.019775%,71.759033%);fill-opacity:1;" d="M 45.578125 539.800781 L 0.183594 539.800781 L 46.101562 505.144531 L 84.625 505.144531 L 45.578125 539.800781 "/>
</g>
<g clip-path="url(#clip4)" clip-rule="nonzero">
<path style=" stroke:none;fill-rule:nonzero;fill:rgb(18.818665%,1.179504%,5.099487%);fill-opacity:1;" d="M 45.578125 841.8125 L 0.183594 841.8125 L 0.183594 539.800781 L 45.578125 539.800781 L 45.578125 841.8125 "/>
</g>
<path style=" stroke:none;fill-rule:nonzero;fill:rgb(99.21875%,89.019775%,71.759033%);fill-opacity:1;" d="M 34.550781 820.890625 L 11.210938 820.890625 L 11.210938 560.722656 L 34.550781 560.722656 L 34.550781 820.890625 "/>
<g clip-path="url(#clip5)" clip-rule="nonzero">
<path style=" stroke:none;fill-rule:nonzero;fill:rgb(23.529053%,1.959229%,7.839966%);fill-opacity:1;" d="M 85.597656 807.164062 L 45.578125 841.8125 L 45.578125 539.800781 L 85.597656 505.144531 L 85.597656 807.160156 "/>
</g>
<g clip-path="url(#clip6)" clip-rule="nonzero">
<path style=" stroke:none;fill-rule:nonzero;fill:rgb(99.21875%,89.019775%,71.759033%);fill-opacity:1;" d="M 112.695312 539.800781 L 67.3125 539.800781 L 113.214844 505.144531 L 151.742188 505.144531 L 112.695312 539.800781 "/>
</g>
<g clip-path="url(#clip7)" clip-rule="nonzero">
<path style=" stroke:none;fill-rule:nonzero;fill:rgb(71.759033%,10.5896%,24.308777%);fill-opacity:1;" d="M 112.695312 841.8125 L 67.3125 841.8125 L 67.3125 539.800781 L 112.695312 539.800781 L 112.695312 841.8125 "/>
</g>
<path style=" stroke:none;fill-rule:nonzero;fill:rgb(99.21875%,89.019775%,71.759033%);fill-opacity:1;" d="M 112.695312 576.25 L 112.695312 560.722656 L 67.3125 560.722656 L 67.3125 576.25 L 112.695312 576.25 "/>
<path style=" stroke:none;fill-rule:nonzero;fill:rgb(99.21875%,89.019775%,71.759033%);fill-opacity:1;" d="M 112.695312 797.714844 L 112.695312 789.007812 L 67.3125 789.007812 L 67.3125 797.714844 L 112.695312 797.714844 "/>
<path style=" stroke:none;fill-rule:nonzero;fill:rgb(99.21875%,89.019775%,71.759033%);fill-opacity:1;" d="M 67.3125 811.46875 L 67.3125 820.890625 L 112.695312 820.890625 L 112.695312 811.46875 L 67.3125 811.46875 "/>
<g clip-path="url(#clip8)" clip-rule="nonzero">
<path style=" stroke:none;fill-rule:nonzero;fill:rgb(83.529663%,12.548828%,29.019165%);fill-opacity:1;" d="M 151.742188 807.164062 L 111.722656 841.8125 L 111.722656 539.800781 L 151.742188 505.144531 L 151.742188 807.160156 "/>
</g>
</g>
</svg>
