<?xml version="1.0" encoding="UTF-8"?>
<svg xmlns="http://www.w3.org/2000/svg" xmlns:xlink="http://www.w3.org/1999/xlink" width="595.5pt" height="842.249979pt" viewBox="0 0 595.5 842.249979" version="1.2">
<defs>
<clipPath id="clip1">
  <path d="M 335 90.699219 L 388 90.699219 L 388 152 L 335 152 Z M 335 90.699219 "/>
</clipPath>
<clipPath id="clip2">
  <path d="M 67 171 L 500 171 L 500 751.414062 L 67 751.414062 Z M 67 171 "/>
</clipPath>
</defs>
<g id="surface1">
<path style=" stroke:none;fill-rule:nonzero;fill:rgb(100%,100%,100%);fill-opacity:1;" d="M 519.742188 313.6875 L 519.742188 378.214844 L 530.753906 378.214844 L 530.753906 315.144531 L 519.742188 313.6875 "/>
<path style=" stroke:none;fill-rule:nonzero;fill:rgb(100%,100%,100%);fill-opacity:1;" d="M 519.742188 444.632812 L 519.742188 702.910156 C 519.742188 708.5625 515.5625 713.234375 510.132812 714.035156 L 510.132812 725.101562 C 521.640625 724.253906 530.753906 714.636719 530.753906 702.910156 L 530.753906 444.632812 L 519.742188 444.632812 "/>
<path style=" stroke:none;fill-rule:nonzero;fill:rgb(100%,100%,100%);fill-opacity:1;" d="M 199.835938 145.507812 L 245.058594 145.507812 L 245.058594 134.496094 L 201.292969 134.496094 L 199.835938 145.507812 "/>
<path style=" stroke:none;fill-rule:nonzero;fill:rgb(100%,100%,100%);fill-opacity:1;" d="M 311.453125 145.507812 L 331.636719 145.507812 L 330.136719 134.496094 L 311.453125 134.496094 L 311.453125 145.507812 "/>
<path style=" stroke:none;fill-rule:nonzero;fill:rgb(100%,100%,100%);fill-opacity:1;" d="M 398.238281 145.507812 L 508.484375 145.507812 C 514.691406 145.507812 519.742188 150.5625 519.742188 156.769531 L 519.742188 178.742188 L 530.753906 178.742188 L 530.753906 156.769531 C 530.753906 144.484375 520.765625 134.496094 508.484375 134.496094 L 396.738281 134.496094 L 398.238281 145.507812 "/>
<path style=" stroke:none;fill-rule:nonzero;fill:rgb(100%,100%,100%);fill-opacity:1;" d="M 98.714844 160.800781 L 98.714844 156.769531 C 98.714844 150.5625 103.769531 145.507812 109.976562 145.507812 L 136.542969 145.507812 L 137.996094 134.496094 L 109.976562 134.496094 C 97.699219 134.496094 87.707031 144.484375 87.707031 156.769531 L 87.707031 160.800781 L 98.714844 160.800781 "/>
<path style=" stroke:none;fill-rule:nonzero;fill:rgb(100%,100%,100%);fill-opacity:1;" d="M 519.742188 245.160156 L 519.742188 250.378906 L 530.753906 251.835938 L 530.753906 245.160156 L 519.742188 245.160156 "/>
<path style=" stroke:none;fill-rule:nonzero;fill:rgb(100%,100%,100%);fill-opacity:1;" d="M 553.777344 234.144531 C 556.652344 234.144531 558.980469 231.8125 558.980469 228.933594 L 558.980469 194.960938 C 558.980469 193.164062 558.070312 191.582031 556.6875 190.644531 C 555.855469 190.085938 554.855469 189.757812 553.777344 189.757812 L 510.132812 189.757812 L 510.132812 234.144531 L 553.777344 234.144531 "/>
<path style=" stroke:none;fill-rule:nonzero;fill:rgb(100%,100%,100%);fill-opacity:1;" d="M 510.132812 389.230469 L 510.132812 433.617188 L 539.644531 433.617188 C 542.15625 433.617188 544.253906 431.835938 544.742188 429.464844 C 544.8125 429.121094 544.847656 428.773438 544.847656 428.414062 L 544.847656 394.4375 C 544.847656 393.46875 544.5625 392.566406 544.105469 391.789062 C 544.023438 391.652344 543.941406 391.519531 543.851562 391.394531 C 543.492188 390.898438 543.058594 390.464844 542.554688 390.117188 C 541.722656 389.558594 540.71875 389.230469 539.644531 389.230469 L 510.132812 389.230469 "/>
<g clip-path="url(#clip1)" clip-rule="nonzero">
<path style=" stroke:none;fill-rule:nonzero;fill:rgb(100%,100%,100%);fill-opacity:1;" d="M 342.765625 145.59375 L 343.574219 151.554688 L 387.949219 151.554688 L 380.363281 95.933594 C 380.363281 94.855469 380.035156 93.855469 379.476562 93.019531 C 379.101562 92.46875 378.625 91.988281 378.070312 91.617188 C 377.238281 91.050781 376.238281 90.726562 375.160156 90.726562 L 341.191406 90.726562 C 340.113281 90.726562 339.113281 91.050781 338.285156 91.617188 C 337.730469 91.988281 337.25 92.46875 336.878906 93.019531 C 336.316406 93.855469 335.988281 94.855469 335.988281 95.933594 L 342.765625 145.59375 "/>
</g>
<path style=" stroke:none;fill-rule:nonzero;fill:rgb(100%,100%,100%);fill-opacity:1;" d="M 146.25 156.082031 L 187.335938 156.082031 L 190.1875 134.496094 L 193.25 111.304688 C 193.25 108.644531 191.089844 106.484375 188.429688 106.484375 L 156.984375 106.484375 C 155.65625 106.484375 154.453125 107.027344 153.582031 107.898438 C 153.359375 108.113281 153.160156 108.355469 152.988281 108.609375 C 152.816406 108.867188 152.667969 109.140625 152.546875 109.429688 C 152.300781 110.007812 152.164062 110.640625 152.164062 111.304688 L 146.25 156.082031 "/>
<path style=" stroke:none;fill-rule:nonzero;fill:rgb(100%,100%,100%);fill-opacity:1;" d="M 510.132812 260.21875 L 510.132812 301.308594 L 519.742188 302.578125 L 530.753906 304.035156 L 549.144531 306.46875 C 551.8125 306.46875 553.964844 304.308594 553.964844 301.648438 L 553.964844 270.195312 C 553.964844 267.53125 551.8125 265.378906 549.144531 265.378906 L 530.753906 262.945312 L 510.132812 260.21875 "/>
<path style=" stroke:none;fill-rule:nonzero;fill:rgb(100%,100%,100%);fill-opacity:1;" d="M 300.441406 160.800781 L 300.441406 100.617188 C 300.441406 97.746094 298.113281 95.414062 295.234375 95.414062 L 261.269531 95.414062 C 260.914062 95.414062 260.558594 95.453125 260.21875 95.519531 C 259.542969 95.65625 258.914062 95.929688 258.359375 96.300781 C 257.808594 96.675781 257.328125 97.152344 256.953125 97.707031 C 256.394531 98.539062 256.066406 99.539062 256.066406 100.617188 L 256.066406 160.800781 L 300.441406 160.800781 "/>
<g clip-path="url(#clip2)" clip-rule="nonzero">
<path style=" stroke:none;fill-rule:nonzero;fill:rgb(100%,100%,100%);fill-opacity:1;" d="M 83.851562 751.488281 L 482.363281 751.488281 C 490.550781 751.488281 497.359375 745.609375 498.820312 737.84375 C 499.011719 736.832031 499.125 735.792969 499.125 734.722656 L 499.125 188.582031 C 499.125 187.425781 499.007812 186.296875 498.785156 185.203125 C 498.445312 183.5625 497.875 182.015625 497.101562 180.589844 C 495.8125 178.210938 493.960938 176.183594 491.734375 174.675781 C 489.949219 173.472656 487.921875 172.601562 485.738281 172.15625 C 484.652344 171.933594 483.519531 171.8125 482.363281 171.8125 L 83.851562 171.8125 C 82.117188 171.8125 80.445312 172.082031 78.867188 172.566406 C 77.820312 172.894531 76.8125 173.320312 75.863281 173.835938 C 75.183594 174.207031 74.546875 174.636719 73.929688 175.089844 C 73.246094 175.589844 72.59375 176.128906 71.996094 176.726562 C 70.480469 178.242188 69.257812 180.046875 68.40625 182.058594 C 68.195312 182.558594 68.007812 183.070312 67.847656 183.59375 C 67.355469 185.167969 67.09375 186.84375 67.09375 188.582031 L 67.09375 194.273438 L 97.558594 194.273438 C 109.25 194.273438 118.769531 203.789062 118.769531 215.484375 L 118.769531 217.1875 C 118.769531 228.882812 109.25 238.398438 97.558594 238.398438 L 67.09375 238.398438 L 67.09375 276.625 L 97.558594 276.625 C 109.25 276.625 118.769531 286.144531 118.769531 297.839844 L 118.769531 299.539062 C 118.769531 311.238281 109.25 320.753906 97.558594 320.753906 L 67.09375 320.753906 L 67.09375 358.976562 L 97.558594 358.976562 C 109.25 358.976562 118.769531 368.492188 118.769531 380.195312 L 118.769531 381.894531 C 118.769531 393.589844 109.25 403.109375 97.558594 403.109375 L 67.09375 403.109375 L 67.09375 441.332031 L 97.558594 441.332031 C 109.25 441.332031 118.769531 450.847656 118.769531 462.542969 L 118.769531 464.25 C 118.769531 475.945312 109.25 485.460938 97.558594 485.460938 L 67.09375 485.460938 L 67.09375 523.683594 L 97.558594 523.683594 C 109.25 523.683594 118.769531 533.199219 118.769531 544.898438 L 118.769531 546.601562 C 118.769531 558.300781 109.25 567.8125 97.558594 567.8125 L 67.09375 567.8125 L 67.09375 606.039062 L 97.558594 606.039062 C 109.25 606.039062 118.769531 615.550781 118.769531 627.25 L 118.769531 628.953125 C 118.769531 640.648438 109.25 650.167969 97.558594 650.167969 L 67.09375 650.167969 L 67.09375 688.386719 L 97.558594 688.386719 C 109.25 688.386719 118.769531 697.90625 118.769531 709.601562 L 118.769531 711.308594 C 118.769531 723.003906 109.25 732.519531 97.558594 732.519531 L 67.09375 732.519531 L 67.09375 734.722656 C 67.09375 743.980469 74.59375 751.488281 83.851562 751.488281 "/>
</g>
<path style=" stroke:none;fill-rule:nonzero;fill:rgb(100%,100%,100%);fill-opacity:1;" d="M 97.558594 227.386719 C 103.191406 227.386719 107.757812 222.820312 107.757812 217.1875 L 107.757812 215.484375 C 107.757812 209.847656 103.191406 205.285156 97.558594 205.285156 L 46.535156 205.285156 C 44.066406 205.285156 41.804688 206.15625 40.046875 207.613281 C 38.785156 208.65625 37.78125 209.992188 37.132812 211.511719 C 36.617188 212.730469 36.335938 214.078125 36.335938 215.484375 L 36.335938 217.1875 C 36.335938 218.246094 36.496094 219.261719 36.792969 220.21875 C 36.992188 220.863281 37.25 221.472656 37.5625 222.050781 C 37.71875 222.339844 37.890625 222.621094 38.074219 222.890625 C 38.808594 223.976562 39.742188 224.914062 40.828125 225.648438 C 42.457031 226.746094 44.421875 227.386719 46.535156 227.386719 L 97.558594 227.386719 "/>
<path style=" stroke:none;fill-rule:nonzero;fill:rgb(100%,100%,100%);fill-opacity:1;" d="M 46.535156 309.742188 L 97.558594 309.742188 C 103.191406 309.742188 107.757812 305.175781 107.757812 299.539062 L 107.757812 297.839844 C 107.757812 292.203125 103.191406 287.636719 97.558594 287.636719 L 46.535156 287.636719 C 44.421875 287.636719 42.457031 288.277344 40.828125 289.382812 C 40.558594 289.5625 40.300781 289.761719 40.046875 289.96875 C 39.539062 290.382812 39.082031 290.84375 38.664062 291.347656 C 37.832031 292.355469 37.1875 293.523438 36.792969 294.804688 C 36.59375 295.441406 36.457031 296.109375 36.382812 296.796875 C 36.347656 297.136719 36.335938 297.484375 36.335938 297.839844 L 36.335938 299.539062 C 36.335938 300.949219 36.617188 302.289062 37.132812 303.511719 C 37.390625 304.121094 37.710938 304.703125 38.074219 305.246094 C 39.910156 307.957031 43.007812 309.742188 46.535156 309.742188 "/>
<path style=" stroke:none;fill-rule:nonzero;fill:rgb(100%,100%,100%);fill-opacity:1;" d="M 56.082031 392.097656 L 97.558594 392.097656 C 103.191406 392.097656 107.757812 387.527344 107.757812 381.894531 L 107.757812 380.195312 C 107.757812 374.558594 103.191406 369.992188 97.558594 369.992188 L 46.535156 369.992188 C 44.066406 369.992188 41.804688 370.867188 40.046875 372.316406 C 38.785156 373.359375 37.78125 374.695312 37.132812 376.222656 C 36.617188 377.441406 36.335938 378.78125 36.335938 380.195312 L 36.335938 381.894531 C 36.335938 382.246094 36.347656 382.589844 36.382812 382.9375 C 36.457031 383.625 36.59375 384.292969 36.792969 384.929688 C 37.488281 387.164062 38.933594 389.070312 40.828125 390.351562 C 42.457031 391.453125 44.421875 392.097656 46.535156 392.097656 L 56.082031 392.097656 "/>
<path style=" stroke:none;fill-rule:nonzero;fill:rgb(100%,100%,100%);fill-opacity:1;" d="M 97.558594 474.445312 C 103.191406 474.445312 107.757812 469.882812 107.757812 464.25 L 107.757812 462.542969 C 107.757812 456.910156 103.191406 452.34375 97.558594 452.34375 L 46.535156 452.34375 C 44.421875 452.34375 42.457031 452.988281 40.828125 454.085938 C 40.558594 454.269531 40.300781 454.464844 40.046875 454.671875 C 39.539062 455.085938 39.082031 455.550781 38.664062 456.054688 C 37.832031 457.066406 37.1875 458.234375 36.792969 459.507812 C 36.59375 460.152344 36.457031 460.8125 36.382812 461.5 C 36.347656 461.84375 36.335938 462.191406 36.335938 462.542969 L 36.335938 464.25 C 36.335938 465.65625 36.617188 466.996094 37.132812 468.21875 C 37.78125 469.742188 38.785156 471.078125 40.046875 472.121094 C 41.804688 473.570312 44.066406 474.445312 46.535156 474.445312 L 97.558594 474.445312 "/>
<path style=" stroke:none;fill-rule:nonzero;fill:rgb(100%,100%,100%);fill-opacity:1;" d="M 56.082031 556.800781 L 97.558594 556.800781 C 103.191406 556.800781 107.757812 552.234375 107.757812 546.601562 L 107.757812 544.898438 C 107.757812 539.261719 103.191406 534.695312 97.558594 534.695312 L 46.535156 534.695312 C 43.007812 534.695312 39.910156 536.480469 38.074219 539.191406 C 37.890625 539.464844 37.71875 539.742188 37.5625 540.039062 C 36.777344 541.480469 36.335938 543.136719 36.335938 544.898438 L 36.335938 546.601562 C 36.335938 546.953125 36.347656 547.300781 36.382812 547.644531 C 36.457031 548.328125 36.59375 548.996094 36.792969 549.632812 C 37.488281 551.871094 38.933594 553.777344 40.828125 555.0625 C 42.457031 556.160156 44.421875 556.800781 46.535156 556.800781 L 56.082031 556.800781 "/>
<path style=" stroke:none;fill-rule:nonzero;fill:rgb(100%,100%,100%);fill-opacity:1;" d="M 97.558594 639.15625 C 103.191406 639.15625 107.757812 634.589844 107.757812 628.953125 L 107.757812 627.25 C 107.757812 621.617188 103.191406 617.050781 97.558594 617.050781 L 46.535156 617.050781 C 44.773438 617.050781 43.117188 617.496094 41.667969 618.28125 C 38.492188 620.007812 36.335938 623.378906 36.335938 627.25 L 36.335938 628.953125 C 36.335938 630.363281 36.617188 631.703125 37.132812 632.925781 C 37.78125 634.453125 38.785156 635.789062 40.046875 636.824219 C 41.804688 638.28125 44.066406 639.15625 46.535156 639.15625 L 97.558594 639.15625 "/>
<path style=" stroke:none;fill-rule:nonzero;fill:rgb(100%,100%,100%);fill-opacity:1;" d="M 56.082031 721.507812 L 97.558594 721.507812 C 103.191406 721.507812 107.757812 716.9375 107.757812 711.308594 L 107.757812 709.601562 C 107.757812 703.96875 103.191406 699.398438 97.558594 699.398438 L 46.535156 699.398438 C 40.902344 699.398438 36.335938 703.96875 36.335938 709.601562 L 36.335938 711.308594 C 36.335938 711.65625 36.347656 712.007812 36.382812 712.351562 C 36.457031 713.03125 36.59375 713.699219 36.792969 714.339844 C 37.488281 716.574219 38.933594 718.480469 40.828125 719.765625 C 42.457031 720.863281 44.421875 721.507812 46.535156 721.507812 L 56.082031 721.507812 "/>
</g>
</svg>
