<?xml version="1.0" encoding="UTF-8"?>
<svg xmlns="http://www.w3.org/2000/svg" xmlns:xlink="http://www.w3.org/1999/xlink" width="595.5pt" height="842.249979pt" viewBox="0 0 595.5 842.249979" version="1.2">
<defs>
<clipPath id="clip1">
  <path d="M 59.539062 247.667969 L 566 247.667969 L 566 754 L 59.539062 754 Z M 59.539062 247.667969 "/>
</clipPath>
</defs>
<g id="surface1">
<g clip-path="url(#clip1)" clip-rule="nonzero">
<path style=" stroke:none;fill-rule:nonzero;fill:rgb(100%,100%,100%);fill-opacity:1;" d="M 559.617188 486.800781 L 462.355469 389.539062 C 461.902344 389.101562 461.425781 388.683594 460.933594 388.292969 C 460.441406 387.902344 459.929688 387.535156 459.398438 387.191406 C 458.871094 386.851562 458.328125 386.535156 457.765625 386.246094 C 457.207031 385.957031 456.632812 385.695312 456.050781 385.460938 C 455.464844 385.230469 454.867188 385.023438 454.261719 384.847656 C 453.660156 384.671875 453.046875 384.527344 452.425781 384.410156 C 451.808594 384.292969 451.183594 384.207031 450.558594 384.152344 C 449.929688 384.097656 449.300781 384.070312 448.671875 384.078125 C 448.039062 384.082031 447.410156 384.117188 446.785156 384.183594 C 446.160156 384.253906 445.539062 384.347656 444.921875 384.476562 C 444.304688 384.601562 443.695312 384.757812 443.089844 384.945312 C 442.488281 385.132812 441.898438 385.347656 441.316406 385.589844 C 440.734375 385.832031 440.167969 386.105469 439.613281 386.402344 C 439.058594 386.703125 438.519531 387.027344 437.996094 387.378906 C 437.472656 387.730469 436.96875 388.105469 436.480469 388.507812 C 435.996094 388.90625 435.53125 389.328125 435.082031 389.773438 C 434.636719 390.21875 434.214844 390.6875 433.816406 391.171875 C 433.414062 391.660156 433.039062 392.164062 432.6875 392.6875 C 432.335938 393.210938 432.011719 393.75 431.714844 394.304688 C 431.414062 394.859375 431.144531 395.425781 430.898438 396.007812 C 430.65625 396.589844 430.441406 397.179688 430.253906 397.78125 C 430.070312 398.382812 429.914062 398.992188 429.785156 399.609375 C 429.660156 400.226562 429.5625 400.847656 429.496094 401.476562 C 429.429688 402.101562 429.390625 402.730469 429.386719 403.359375 C 429.382812 403.992188 429.40625 404.621094 429.460938 405.246094 C 429.519531 405.875 429.605469 406.5 429.71875 407.117188 C 429.835938 407.738281 429.980469 408.347656 430.15625 408.953125 C 430.332031 409.558594 430.539062 410.152344 430.773438 410.738281 C 431.003906 411.324219 431.265625 411.898438 431.554688 412.457031 C 431.84375 413.015625 432.160156 413.5625 432.503906 414.089844 C 432.84375 414.621094 433.210938 415.128906 433.601562 415.625 C 433.996094 416.117188 434.410156 416.589844 434.847656 417.042969 L 498.90625 481.101562 L 234.617188 481.101562 C 233.980469 481.101562 233.34375 481.070312 232.710938 481.007812 C 232.074219 480.945312 231.445312 480.851562 230.820312 480.730469 C 230.195312 480.605469 229.578125 480.449219 228.96875 480.265625 C 228.359375 480.082031 227.761719 479.867188 227.171875 479.621094 C 226.582031 479.378906 226.007812 479.105469 225.445312 478.804688 C 224.886719 478.503906 224.339844 478.179688 223.808594 477.824219 C 223.28125 477.46875 222.769531 477.089844 222.277344 476.6875 C 221.785156 476.28125 221.3125 475.855469 220.863281 475.40625 C 220.410156 474.953125 219.984375 474.484375 219.578125 473.992188 C 219.175781 473.5 218.796875 472.988281 218.441406 472.457031 C 218.089844 471.925781 217.761719 471.382812 217.460938 470.820312 C 217.160156 470.257812 216.886719 469.683594 216.644531 469.09375 C 216.402344 468.503906 216.1875 467.90625 216 467.296875 C 215.816406 466.6875 215.660156 466.070312 215.539062 465.445312 C 215.414062 464.820312 215.320312 464.191406 215.257812 463.554688 C 215.195312 462.921875 215.164062 462.285156 215.164062 461.648438 C 215.164062 461.011719 215.195312 460.378906 215.257812 459.742188 C 215.320312 459.109375 215.414062 458.480469 215.539062 457.855469 C 215.660156 457.230469 215.816406 456.613281 216 456.003906 C 216.1875 455.394531 216.402344 454.792969 216.644531 454.207031 C 216.886719 453.617188 217.160156 453.042969 217.460938 452.480469 C 217.761719 451.917969 218.089844 451.371094 218.441406 450.84375 C 218.796875 450.3125 219.175781 449.800781 219.578125 449.308594 C 219.984375 448.816406 220.410156 448.34375 220.863281 447.894531 C 221.3125 447.445312 221.785156 447.015625 222.277344 446.613281 C 222.769531 446.207031 223.28125 445.828125 223.808594 445.476562 C 224.339844 445.121094 224.886719 444.792969 225.445312 444.492188 C 226.007812 444.195312 226.582031 443.921875 227.171875 443.675781 C 227.761719 443.433594 228.359375 443.21875 228.96875 443.035156 C 229.578125 442.847656 230.195312 442.695312 230.820312 442.570312 C 231.445312 442.445312 232.074219 442.351562 232.710938 442.289062 C 233.34375 442.226562 233.980469 442.195312 234.617188 442.195312 L 390.242188 442.195312 L 390.242188 325.480469 C 390.242188 324.367188 390.148438 323.261719 389.957031 322.164062 C 389.769531 321.066406 389.488281 319.996094 389.113281 318.945312 C 388.738281 317.898438 388.28125 316.890625 387.734375 315.921875 C 387.1875 314.949219 386.5625 314.035156 385.859375 313.171875 C 385.152344 312.3125 384.382812 311.515625 383.542969 310.785156 C 382.703125 310.054688 381.804688 309.402344 380.851562 308.828125 C 379.898438 308.25 378.90625 307.761719 377.871094 307.355469 C 376.832031 306.949219 375.769531 306.636719 374.679688 306.414062 L 82.882812 248.054688 C 82.179688 247.910156 81.46875 247.808594 80.753906 247.742188 C 80.035156 247.675781 79.320312 247.652344 78.601562 247.664062 C 77.882812 247.679688 77.167969 247.734375 76.453125 247.828125 C 75.742188 247.921875 75.035156 248.054688 74.335938 248.226562 C 73.640625 248.398438 72.953125 248.609375 72.277344 248.855469 C 71.601562 249.105469 70.945312 249.390625 70.300781 249.710938 C 69.65625 250.03125 69.035156 250.390625 68.429688 250.777344 C 67.828125 251.167969 67.246094 251.59375 66.691406 252.046875 C 66.132812 252.5 65.601562 252.984375 65.101562 253.5 C 64.597656 254.011719 64.125 254.554688 63.679688 255.121094 C 63.234375 255.683594 62.824219 256.273438 62.449219 256.886719 C 62.070312 257.496094 61.726562 258.128906 61.417969 258.777344 C 61.109375 259.425781 60.839844 260.09375 60.605469 260.773438 C 60.371094 261.453125 60.171875 262.144531 60.015625 262.84375 C 59.855469 263.546875 59.738281 264.253906 59.660156 264.96875 C 59.578125 265.683594 59.539062 266.402344 59.539062 267.121094 L 59.539062 733.992188 C 59.539062 734.710938 59.578125 735.429688 59.660156 736.144531 C 59.738281 736.855469 59.855469 737.566406 60.015625 738.265625 C 60.171875 738.96875 60.367188 739.660156 60.601562 740.339844 C 60.835938 741.019531 61.109375 741.683594 61.417969 742.332031 C 61.726562 742.984375 62.066406 743.613281 62.445312 744.226562 C 62.824219 744.835938 63.234375 745.425781 63.679688 745.992188 C 64.121094 746.558594 64.59375 747.097656 65.097656 747.609375 C 65.601562 748.125 66.132812 748.609375 66.6875 749.0625 C 67.246094 749.519531 67.824219 749.941406 68.429688 750.332031 C 69.03125 750.722656 69.65625 751.078125 70.300781 751.398438 C 70.941406 751.71875 71.601562 752.003906 72.277344 752.253906 C 72.953125 752.5 73.636719 752.710938 74.335938 752.882812 C 75.035156 753.054688 75.738281 753.1875 76.453125 753.28125 C 77.164062 753.375 77.882812 753.429688 78.601562 753.445312 C 79.320312 753.460938 80.035156 753.433594 80.753906 753.371094 C 81.46875 753.304688 82.179688 753.199219 82.882812 753.054688 L 374.679688 694.695312 C 375.769531 694.476562 376.832031 694.160156 377.867188 693.757812 C 378.90625 693.351562 379.898438 692.859375 380.851562 692.285156 C 381.804688 691.710938 382.699219 691.058594 383.539062 690.328125 C 384.378906 689.597656 385.152344 688.800781 385.855469 687.941406 C 386.558594 687.078125 387.183594 686.164062 387.730469 685.191406 C 388.277344 684.222656 388.738281 683.214844 389.113281 682.167969 C 389.484375 681.117188 389.765625 680.046875 389.957031 678.949219 C 390.144531 677.851562 390.242188 676.746094 390.242188 675.632812 L 390.242188 520.007812 L 498.90625 520.007812 L 434.847656 584.066406 C 434.382812 584.515625 433.945312 584.984375 433.527344 585.476562 C 433.109375 585.96875 432.71875 586.476562 432.351562 587.007812 C 431.988281 587.539062 431.648438 588.085938 431.335938 588.648438 C 431.023438 589.210938 430.742188 589.789062 430.488281 590.382812 C 430.234375 590.972656 430.007812 591.578125 429.816406 592.191406 C 429.621094 592.804688 429.457031 593.425781 429.324219 594.058594 C 429.191406 594.6875 429.089844 595.324219 429.019531 595.964844 C 428.953125 596.605469 428.914062 597.246094 428.910156 597.890625 C 428.902344 598.535156 428.929688 599.179688 428.988281 599.820312 C 429.046875 600.460938 429.136719 601.097656 429.257812 601.730469 C 429.378906 602.363281 429.53125 602.988281 429.714844 603.605469 C 429.898438 604.222656 430.113281 604.832031 430.355469 605.425781 C 430.601562 606.023438 430.875 606.605469 431.175781 607.175781 C 431.476562 607.742188 431.804688 608.296875 432.164062 608.832031 C 432.519531 609.367188 432.902344 609.886719 433.308594 610.386719 C 433.71875 610.882812 434.148438 611.359375 434.605469 611.816406 C 435.0625 612.269531 435.539062 612.703125 436.035156 613.109375 C 436.535156 613.519531 437.050781 613.902344 437.589844 614.257812 C 438.125 614.613281 438.679688 614.945312 439.246094 615.246094 C 439.816406 615.546875 440.398438 615.820312 440.996094 616.066406 C 441.589844 616.308594 442.199219 616.523438 442.816406 616.707031 C 443.433594 616.890625 444.058594 617.042969 444.691406 617.164062 C 445.324219 617.285156 445.960938 617.375 446.601562 617.433594 C 447.242188 617.492188 447.886719 617.519531 448.53125 617.511719 C 449.175781 617.507812 449.816406 617.46875 450.457031 617.398438 C 451.097656 617.332031 451.734375 617.230469 452.363281 617.097656 C 452.992188 616.964844 453.617188 616.800781 454.230469 616.605469 C 454.84375 616.414062 455.449219 616.1875 456.039062 615.933594 C 456.632812 615.679688 457.207031 615.398438 457.773438 615.085938 C 458.335938 614.773438 458.882812 614.433594 459.414062 614.070312 C 459.945312 613.703125 460.453125 613.3125 460.945312 612.894531 C 461.4375 612.476562 461.90625 612.039062 462.355469 611.574219 L 559.617188 514.308594 C 560.070312 513.859375 560.496094 513.386719 560.898438 512.894531 C 561.304688 512.402344 561.683594 511.890625 562.035156 511.363281 C 562.390625 510.832031 562.71875 510.285156 563.019531 509.722656 C 563.320312 509.164062 563.589844 508.585938 563.835938 508 C 564.078125 507.410156 564.292969 506.8125 564.476562 506.203125 C 564.660156 505.59375 564.816406 504.976562 564.941406 504.351562 C 565.066406 503.726562 565.160156 503.097656 565.21875 502.460938 C 565.28125 501.828125 565.3125 501.191406 565.3125 500.554688 C 565.3125 499.917969 565.28125 499.285156 565.21875 498.648438 C 565.160156 498.015625 565.066406 497.386719 564.941406 496.761719 C 564.816406 496.136719 564.660156 495.519531 564.476562 494.910156 C 564.292969 494.300781 564.078125 493.703125 563.835938 493.113281 C 563.589844 492.523438 563.320312 491.949219 563.019531 491.386719 C 562.71875 490.824219 562.390625 490.28125 562.035156 489.75 C 561.683594 489.21875 561.304688 488.710938 560.898438 488.21875 C 560.496094 487.722656 560.070312 487.253906 559.617188 486.800781 Z M 559.617188 486.800781 "/>
</g>
</g>
</svg>
