<?xml version="1.0" encoding="UTF-8"?>
<svg xmlns="http://www.w3.org/2000/svg" xmlns:xlink="http://www.w3.org/1999/xlink" width="595.5pt" height="842.249979pt" viewBox="0 0 595.5 842.249979" version="1.2">
<defs>
<clipPath id="clip1">
  <path d="M 354 99 L 594.984375 99 L 594.984375 238 L 354 238 Z M 354 99 "/>
</clipPath>
<clipPath id="clip2">
  <path d="M 387 127.222656 L 594.984375 127.222656 L 594.984375 234 L 387 234 Z M 387 127.222656 "/>
</clipPath>
<clipPath id="clip3">
  <path d="M 496 310 L 594.984375 310 L 594.984375 392 L 496 392 Z M 496 310 "/>
</clipPath>
<clipPath id="clip4">
  <path d="M 402 173 L 594.984375 173 L 594.984375 264 L 402 264 Z M 402 173 "/>
</clipPath>
</defs>
<g id="surface1">
<path style=" stroke:none;fill-rule:nonzero;fill:rgb(100%,100%,100%);fill-opacity:1;" d="M 250.925781 223.070312 C 247.4375 245.074219 251.824219 269.792969 242.445312 290.507812 C 232.792969 311.824219 188.601562 299.105469 169.59375 305.71875 C 122.617188 322.058594 76.109375 379.511719 70.878906 429.015625 C 67.609375 459.953125 76.535156 487.859375 87.976562 516.160156 C 95.582031 534.972656 96.101562 549.199219 77.210938 560.984375 C 66.871094 567.433594 54.917969 571.074219 44.089844 576.585938 C 0.132812 598.945312 8.214844 664.824219 43.746094 691.167969 C 46.964844 693.550781 49.972656 688.648438 47.746094 685.980469 C 26.800781 660.886719 10.332031 624.6875 33.792969 595.066406 C 47.164062 578.179688 72.96875 575.804688 89.5 562.769531 C 107.9375 548.242188 101.800781 528.277344 94.042969 509.199219 C 81.417969 478.117188 73.457031 446.820312 82.40625 413.492188 C 90.722656 382.511719 113.613281 354.875 137.230469 334.175781 C 149.246094 323.644531 163.988281 314.320312 179.554688 310.351562 C 191.1875 307.386719 204.886719 309.882812 216.792969 309.542969 C 264.476562 308.195312 252.355469 256.722656 255.53125 223.699219 C 255.789062 221.074219 251.339844 220.464844 250.925781 223.070312 "/>
<path style=" stroke:none;fill-rule:nonzero;fill:rgb(100%,100%,100%);fill-opacity:1;" d="M 136.546875 782.417969 C 136.625 759.414062 132.277344 736.089844 137.328125 713.351562 C 146.5 672.050781 191.644531 685.082031 222.207031 683.992188 C 247.160156 683.097656 271.796875 664.511719 285.9375 645.007812 C 301.253906 623.886719 298.15625 604.042969 291.730469 580.128906 C 269.640625 497.9375 384.585938 527.550781 429.171875 517.863281 C 481.847656 506.414062 498.25 451.554688 501.820312 404.53125 C 502.152344 400.238281 494.871094 399.21875 494.269531 403.511719 C 490.308594 431.796875 485.960938 461.175781 467.699219 484.222656 C 446.460938 511.019531 412.558594 512.800781 381.222656 511.683594 C 340.582031 510.238281 271.515625 512.023438 280.78125 570.539062 C 282.890625 583.855469 288.101562 596.300781 289.257812 609.839844 C 290.847656 628.453125 278.125 643.042969 265.492188 655.003906 C 250.816406 668.910156 231.90625 676.355469 211.847656 676.527344 C 197.386719 676.648438 182.429688 673.300781 168.046875 675.992188 C 116.699219 685.59375 130.839844 745.085938 132.34375 782.417969 C 132.457031 785.109375 136.535156 785.128906 136.546875 782.417969 "/>
<path style=" stroke:none;fill-rule:nonzero;fill:rgb(58.428955%,69.40918%,66.268921%);fill-opacity:1;" d="M 372.40625 98.054688 C 338.273438 117.722656 302.289062 152.078125 287.953125 189.519531 C 272.507812 229.851562 283.074219 275.199219 262.398438 314.320312 C 244.894531 347.449219 198.492188 336.292969 168.453125 348.792969 C 140.179688 360.5625 123.335938 390.304688 117.484375 419.171875 C 116.90625 421.996094 121.117188 424.207031 122.417969 421.253906 C 137.238281 387.640625 149.652344 360.238281 188.015625 350.496094 C 215.972656 343.398438 245.402344 349.183594 264.941406 323.734375 C 285.703125 296.695312 284.019531 256.808594 287.488281 224.8125 C 293.171875 172.4375 331.269531 129.394531 374.582031 101.773438 C 376.914062 100.289062 374.828125 96.660156 372.40625 98.054688 "/>
<path style=" stroke:none;fill-rule:nonzero;fill:rgb(58.428955%,69.40918%,66.268921%);fill-opacity:1;" d="M 116.5625 437.898438 C 107.527344 464.75 120.832031 488.324219 128.125 513.945312 C 136.753906 544.273438 122.984375 569.707031 96.117188 583.40625 C 81.574219 590.824219 65.25 594.558594 53.136719 606.105469 C 38.949219 619.636719 39.609375 643.457031 45.207031 660.632812 C 46.25 663.835938 51.546875 663.449219 51.3125 659.804688 C 49.816406 636.75 47.398438 616.488281 70.003906 603.558594 C 84.988281 594.980469 101.503906 590.746094 115.3125 579.917969 C 165.234375 540.777344 109.078125 485.53125 119.507812 438.707031 C 119.9375 436.78125 117.1875 436.035156 116.5625 437.898438 "/>
<path style=" stroke:none;fill-rule:nonzero;fill:rgb(58.428955%,69.40918%,66.268921%);fill-opacity:1;" d="M 533.417969 296.785156 C 503.792969 293.925781 481.71875 323.496094 470.523438 347.351562 C 454.363281 381.792969 459.824219 422.320312 442.824219 456.699219 C 416.207031 510.539062 337.6875 476.90625 292.488281 476.867188 C 272.699219 476.847656 251.730469 482.949219 239.964844 499.980469 C 222.203125 525.703125 226.597656 556.667969 221.570312 585.925781 C 217.898438 607.300781 203.476562 620.546875 183.773438 628.023438 C 167.785156 634.09375 149.210938 634.964844 135.296875 645.890625 C 104.878906 669.777344 103.328125 711.507812 105.929688 746.957031 C 106.246094 751.363281 113.035156 751.449219 112.851562 746.957031 C 112.0625 727.648438 112.109375 708.402344 116.511719 689.488281 C 122.761719 662.636719 140.597656 647.59375 166.277344 640.574219 C 194.894531 632.757812 219.644531 622.484375 228.054688 591.675781 C 235.824219 563.207031 228.855469 533.011719 245.039062 506.613281 C 259.085938 483.695312 288.425781 483.753906 311.996094 486.027344 C 352.308594 489.90625 405.742188 509.308594 438.832031 476.015625 C 461.375 453.332031 462.597656 415.085938 467.296875 385.53125 C 472.699219 351.523438 492.285156 301.609375 533.417969 300.328125 C 535.738281 300.257812 535.652344 297 533.417969 296.785156 "/>
<path style=" stroke:none;fill-rule:nonzero;fill:rgb(58.428955%,69.40918%,66.268921%);fill-opacity:1;" d="M 97.6875 607.125 C 55.78125 613.003906 54.914062 688.742188 71.667969 716.019531 C 72.949219 718.105469 76.484375 716.761719 75.703125 714.316406 C 64.898438 680.351562 61.332031 628.890625 99.472656 611.363281 C 102.085938 610.167969 100.042969 606.796875 97.6875 607.125 "/>
<path style=" stroke:none;fill-rule:nonzero;fill:rgb(100%,100%,100%);fill-opacity:1;" d="M 101.050781 635.039062 C 59.824219 664.652344 60.449219 738.222656 93.511719 773.5625 C 94.953125 775.097656 97.054688 773.152344 96.257812 771.445312 C 86.199219 750.101562 77.628906 730.816406 76.621094 706.800781 C 75.488281 679.738281 86.785156 658.371094 103.496094 638.207031 C 104.851562 636.574219 103.042969 633.609375 101.050781 635.039062 "/>
<path style=" stroke:none;fill-rule:nonzero;fill:rgb(100%,100%,100%);fill-opacity:1;" d="M 114.703125 628.550781 C 117.972656 628.503906 121.195312 627.277344 124.3125 626.367188 C 127.371094 625.472656 130.75 624.273438 133.507812 622.664062 C 134.929688 621.839844 134.414062 619.253906 132.628906 619.414062 C 129.359375 619.710938 126.179688 620.804688 123.011719 621.648438 C 119.976562 622.457031 116.449219 623.613281 113.847656 625.398438 C 112.519531 626.308594 112.921875 628.578125 114.703125 628.550781 "/>
<path style=" stroke:none;fill-rule:nonzero;fill:rgb(100%,100%,100%);fill-opacity:1;" d="M 157.527344 605.433594 C 205.3125 625.007812 210.597656 524.15625 217.65625 499.652344 C 223.570312 479.117188 239.144531 463.203125 259.152344 456.359375 C 279.351562 449.449219 303.003906 455.792969 323.75 456.914062 C 358.542969 458.808594 387.683594 446.777344 410.699219 420.261719 C 413.269531 417.296875 409.390625 413.449219 406.421875 415.976562 C 391.355469 428.785156 377.367188 441.183594 358.15625 447.199219 C 341.191406 452.523438 322.691406 450.605469 305.292969 449.132812 C 275.253906 446.585938 244.347656 446.09375 224.523438 473.117188 C 209.371094 493.777344 207.488281 517.964844 202.816406 542.375 C 197.621094 569.527344 190.859375 602.859375 157.851562 603.074219 C 156.398438 603.082031 156.339844 604.941406 157.527344 605.433594 "/>
<path style=" stroke:none;fill-rule:nonzero;fill:rgb(58.428955%,69.40918%,66.268921%);fill-opacity:1;" d="M 351.878906 257.238281 C 344.507812 297.554688 338.992188 337.058594 303.875 363.242188 C 288.140625 374.96875 266.128906 377.191406 247.632812 381.941406 C 231.609375 386.0625 217.648438 393.539062 205.871094 405.15625 C 181.480469 429.226562 183.988281 459.714844 186.453125 490.914062 C 190.339844 540.167969 164.128906 578.789062 118.167969 596.371094 C 114.378906 597.816406 115.792969 603.457031 119.867188 602.523438 C 154.953125 594.523438 181.273438 565.8125 191.738281 532.039062 C 197.230469 514.347656 194.726562 494.976562 193.023438 476.90625 C 190.605469 451.152344 194.027344 430.839844 211.179688 410.46875 C 226.488281 392.289062 252.070312 388.355469 273.765625 382.773438 C 291.589844 378.191406 306.570312 370.496094 320.03125 357.910156 C 347.503906 332.234375 351.566406 292.863281 354.824219 257.632812 C 354.980469 255.953125 352.179688 255.578125 351.878906 257.238281 "/>
<g clip-path="url(#clip1)" clip-rule="nonzero">
<path style=" stroke:none;fill-rule:nonzero;fill:rgb(100%,100%,100%);fill-opacity:1;" d="M 358.253906 235.769531 C 361.273438 181.75 424.632812 142.625 471.96875 129.96875 C 506.765625 120.65625 543.128906 125.808594 578.605469 124.324219 C 611.378906 122.949219 646.535156 117.902344 675.652344 102.046875 C 677.21875 101.191406 676.136719 98.761719 674.453125 99.203125 C 633.875 109.898438 595.898438 118.078125 553.636719 118.226562 C 517.34375 118.359375 481.160156 116.570312 447.074219 131.683594 C 408.515625 148.789062 349.65625 186.851562 354.273438 235.769531 C 354.511719 238.296875 358.105469 238.359375 358.253906 235.769531 "/>
</g>
<path style=" stroke:none;fill-rule:nonzero;fill:rgb(100%,100%,100%);fill-opacity:1;" d="M 219.183594 451.875 C 245.152344 409.316406 291.40625 422.613281 332.800781 410.773438 C 386.0625 395.539062 379.542969 326.175781 394.355469 284.199219 C 395.507812 280.9375 390.621094 279.105469 388.925781 281.910156 C 371.980469 309.917969 376.398438 345.332031 363.710938 375.164062 C 354.226562 397.453125 331.78125 405.226562 309.703125 408.640625 C 275.785156 413.890625 230.640625 411.859375 216.191406 450.613281 C 215.519531 452.40625 218.246094 453.410156 219.183594 451.875 "/>
<path style=" stroke:none;fill-rule:nonzero;fill:rgb(100%,100%,100%);fill-opacity:1;" d="M 414.148438 408.128906 C 425.816406 398.664062 428.269531 382.695312 430.289062 368.625 C 433.117188 348.921875 433.546875 330.640625 443.476562 312.847656 C 454.589844 292.921875 474.875 278.929688 495.476562 270.324219 C 515.015625 262.160156 534.265625 263.136719 554.785156 262.042969 C 556.914062 261.933594 557.265625 259.097656 555.277344 258.402344 C 520.992188 246.433594 477.265625 267.238281 453.042969 290.910156 C 439.660156 303.996094 431.34375 320.953125 428.210938 339.246094 C 424.320312 361.964844 426.773438 386.582031 411.640625 405.621094 C 410.21875 407.414062 412.355469 409.578125 414.148438 408.128906 "/>
<path style=" stroke:none;fill-rule:nonzero;fill:rgb(100%,100%,100%);fill-opacity:1;" d="M 252.96875 204.636719 C 255.410156 167.71875 277.605469 138.070312 304.878906 115.078125 C 307.402344 112.957031 304.195312 109.65625 301.609375 110.839844 C 271.359375 124.652344 245.691406 171.917969 249.207031 204.636719 C 249.460938 207.023438 252.808594 207.09375 252.96875 204.636719 "/>
<path style=" stroke:none;fill-rule:nonzero;fill:rgb(58.428955%,69.40918%,66.268921%);fill-opacity:1;" d="M 295.398438 308.398438 C 281.300781 333.253906 263.539062 353.121094 236.550781 363.839844 C 215.59375 372.160156 195.195312 372.535156 176.402344 386.527344 C 146.761719 408.585938 136.402344 452.960938 146.414062 487.441406 C 147.023438 489.527344 150.109375 489.085938 150.164062 486.933594 C 150.71875 466.078125 149.953125 446.285156 156.851562 426.207031 C 164.722656 403.296875 183.171875 387.117188 205.425781 378.832031 C 225.582031 371.328125 244.636719 368.171875 262.632812 355.476562 C 278.621094 344.199219 290.152344 327.660156 298.878906 310.433594 C 300.050781 308.125 296.6875 306.113281 295.398438 308.398438 "/>
<path style=" stroke:none;fill-rule:nonzero;fill:rgb(58.428955%,69.40918%,66.268921%);fill-opacity:1;" d="M 147.4375 501.894531 C 150.449219 519.03125 148.769531 534.28125 142.867188 550.566406 C 142.011719 552.933594 145.574219 554.25 146.804688 552.230469 C 156.230469 536.769531 155.523438 517.769531 152.226562 500.578125 C 151.617188 497.421875 146.890625 498.78125 147.4375 501.894531 "/>
<path style=" stroke:none;fill-rule:nonzero;fill:rgb(58.428955%,69.40918%,66.268921%);fill-opacity:1;" d="M 106.671875 654.078125 C 80.757812 694.527344 74.210938 772.9375 115.050781 807.167969 C 116.464844 808.355469 118.851562 806.839844 117.746094 805.085938 C 103.03125 781.808594 93.65625 760.695312 92.097656 732.683594 C 90.621094 706.128906 97.308594 679.140625 108.835938 655.34375 C 109.539062 653.898438 107.554688 652.703125 106.671875 654.078125 "/>
<path style=" stroke:none;fill-rule:nonzero;fill:rgb(58.428955%,69.40918%,66.268921%);fill-opacity:1;" d="M 269.800781 508.027344 C 247.304688 520.554688 251.269531 551.933594 252.460938 573.675781 C 254.914062 618.304688 222.480469 640.066406 186.761719 656.746094 C 184.085938 657.996094 186.121094 661.613281 188.628906 661.183594 C 215.859375 656.527344 242.90625 634.417969 252.800781 608.515625 C 258.1875 594.421875 258.964844 581.230469 258.109375 566.34375 C 257.082031 548.347656 254.796875 523.324219 272.253906 512.21875 C 274.886719 510.542969 272.546875 506.496094 269.800781 508.027344 "/>
<g clip-path="url(#clip2)" clip-rule="nonzero">
<path style=" stroke:none;fill-rule:nonzero;fill:rgb(58.428955%,69.40918%,66.268921%);fill-opacity:1;" d="M 678 127.871094 C 622.261719 160.449219 555.339844 149.621094 493.660156 157.746094 C 452.238281 163.207031 394.589844 180.707031 387.925781 229.742188 C 387.566406 232.40625 391.460938 234.800781 392.761719 231.78125 C 403.375 207.0625 416.242188 190.347656 441.105469 178.699219 C 464.859375 167.574219 492.351562 164.445312 518.152344 162.128906 C 573.175781 157.1875 632.128906 163.558594 680.394531 131.96875 C 682.941406 130.304688 680.664062 126.3125 678 127.871094 "/>
</g>
<g clip-path="url(#clip3)" clip-rule="nonzero">
<path style=" stroke:none;fill-rule:nonzero;fill:rgb(100%,100%,100%);fill-opacity:1;" d="M 500.988281 389.765625 C 510.054688 369.863281 517.621094 352.015625 534.011719 336.800781 C 551.628906 320.453125 573.8125 317.324219 596.816406 317.609375 C 599.808594 317.648438 600.488281 313.054688 597.527344 312.363281 C 550.105469 301.246094 504.507812 342.566406 496.359375 387.808594 C 495.882812 390.441406 499.71875 392.554688 500.988281 389.765625 "/>
</g>
<path style=" stroke:none;fill-rule:nonzero;fill:rgb(58.428955%,69.40918%,66.268921%);fill-opacity:1;" d="M 308.296875 289.996094 C 321.640625 265.398438 324.527344 237.328125 330.972656 210.480469 C 337.460938 183.480469 352.460938 160.382812 372.792969 141.761719 C 411.21875 106.5625 461.464844 104.476562 510.136719 97.921875 C 512.488281 97.609375 511.578125 94.351562 509.617188 94.117188 C 462.035156 88.363281 408.179688 103.585938 371.132812 133.847656 C 352.488281 149.074219 339.488281 169.929688 330.234375 191.878906 C 317.316406 222.546875 318.183594 257.75 305.855469 288.960938 C 305.292969 290.386719 307.585938 291.300781 308.296875 289.996094 "/>
<g clip-path="url(#clip4)" clip-rule="nonzero">
<path style=" stroke:none;fill-rule:nonzero;fill:rgb(100%,100%,100%);fill-opacity:1;" d="M 652.851562 174.273438 C 630.007812 187.515625 606.667969 197.371094 580.824219 202.945312 C 554.210938 208.683594 527.300781 208.734375 500.304688 210.527344 C 463.980469 212.925781 419.121094 223.277344 402.476562 259.714844 C 401.484375 261.894531 404.359375 264.703125 406.078125 262.496094 C 437.019531 222.757812 477.621094 217.894531 524.976562 214.507812 C 570.3125 211.269531 616.378906 203.40625 654.777344 177.566406 C 656.804688 176.210938 655 173.027344 652.851562 174.273438 "/>
</g>
<path style=" stroke:none;fill-rule:nonzero;fill:rgb(100%,100%,100%);fill-opacity:1;" d="M 556.769531 297.191406 C 559.949219 297.398438 562.875 297.21875 565.433594 295.164062 C 566.15625 294.585938 565.335938 293.695312 564.636719 293.796875 C 562.007812 294.171875 559.425781 294.488281 556.769531 294.679688 C 555.15625 294.796875 555.148438 297.085938 556.769531 297.191406 "/>
</g>
</svg>
